<?xml version="1.0" standalone="no"?>
<!DOCTYPE svg PUBLIC "-//W3C//DTD SVG 20010904//EN"
 "http://www.w3.org/TR/2001/REC-SVG-20010904/DTD/svg10.dtd">
<svg version="1.0" xmlns="http://www.w3.org/2000/svg"
 width="1024.000000pt" height="1024.000000pt" viewBox="0 0 1024.000000 1024.000000"
 preserveAspectRatio="xMidYMid meet">

<g transform="translate(0.000000,1024.000000) scale(0.100000,-0.100000)"
fill="#000000" stroke="none">
<path d="M1795 6091 c-211 -35 -377 -117 -532 -264 -291 -277 -375 -730 -203
-1100 128 -277 383 -478 688 -543 103 -21 300 -18 397 7 44 11 91 23 104 26
40 10 180 81 243 125 74 49 163 137 223 219 78 106 88 144 52 193 -13 18 -17
15 -51 -50 -45 -85 -154 -215 -229 -271 -241 -182 -551 -240 -812 -151 -252
86 -424 234 -535 462 -70 143 -90 229 -90 392 0 163 22 259 91 395 105 209
288 370 504 444 75 26 222 55 276 55 72 0 193 -19 262 -41 l62 -20 18 22 c34
42 24 51 -96 84 -67 18 -296 28 -372 16z"/>
<path d="M6392 5653 l3 -438 58 -3 57 -3 0 36 c0 44 21 54 52 25 56 -52 154
-77 238 -61 84 17 137 48 181 106 58 78 69 114 69 229 0 90 -3 107 -28 161
-35 74 -92 126 -166 154 -97 36 -192 22 -284 -41 -23 -16 -47 -26 -52 -23 -6
4 -10 66 -10 151 l0 144 -60 0 -60 0 2 -437z m422 94 c147 -84 158 -299 21
-401 -50 -37 -103 -48 -158 -31 -66 20 -112 58 -142 118 -57 115 -11 264 101
322 44 23 131 19 178 -8z"/>
<path d="M7195 6081 c-10 -17 1 -851 12 -862 6 -6 30 -9 54 -7 l44 3 1 415 c0
228 -2 425 -4 438 -4 19 -10 22 -52 22 -27 0 -51 -4 -55 -9z"/>
<path d="M4942 6035 c-118 -33 -215 -116 -265 -224 -27 -60 -30 -76 -31 -176
-1 -140 23 -210 103 -298 32 -35 123 -97 143 -97 7 0 19 -5 26 -12 8 -8 53
-12 140 -12 121 0 130 2 192 31 75 36 138 92 163 145 9 20 17 39 17 42 0 3
-34 6 -75 6 -41 0 -75 -4 -75 -9 0 -19 -54 -73 -94 -93 -51 -26 -191 -29 -246
-5 -53 23 -126 104 -150 167 -29 72 -28 238 1 256 5 3 9 16 9 29 0 15 18 40
55 73 79 73 103 82 208 82 84 0 94 -2 139 -31 26 -17 56 -44 65 -60 17 -28 20
-29 90 -29 86 0 90 7 40 72 -43 57 -113 109 -179 132 -70 25 -205 31 -276 11z"/>
<path d="M2375 6000 c-5 -8 67 -155 125 -255 16 -28 42 -76 158 -295 24 -47
67 -128 95 -180 85 -157 175 -330 218 -415 71 -140 71 -140 117 -143 23 -2 42
0 42 3 0 6 -108 213 -120 230 -4 6 -51 96 -105 200 -54 105 -106 204 -115 220
-9 17 -45 84 -80 150 -241 459 -252 479 -264 487 -16 11 -64 10 -71 -2z"/>
<path d="M2554 5996 c-4 -9 -2 -22 3 -29 6 -6 41 -70 78 -142 37 -71 85 -161
105 -200 21 -38 70 -133 110 -210 40 -77 108 -205 150 -285 43 -80 79 -149 81
-155 2 -5 35 -67 72 -137 l69 -128 39 0 c21 0 39 3 39 8 0 7 -33 72 -102 202
-19 36 -68 128 -108 205 -40 77 -114 217 -163 310 -49 94 -120 229 -158 300
-141 271 -141 270 -177 273 -22 2 -34 -2 -38 -12z"/>
<path d="M2725 6001 c-3 -6 11 -40 31 -78 116 -218 183 -345 299 -568 72 -138
111 -212 203 -385 19 -36 57 -108 84 -161 47 -93 50 -97 86 -102 44 -5 68 5
77 34 4 11 24 50 44 87 36 63 71 129 221 417 34 66 77 147 95 180 18 33 65
123 105 200 98 188 104 197 115 199 6 1 12 -293 15 -824 l5 -825 30 0 30 0 0
915 c0 878 -1 915 -18 918 -48 9 -65 -7 -120 -111 -109 -205 -187 -354 -332
-632 -43 -82 -102 -193 -130 -245 -27 -52 -63 -121 -78 -152 -45 -91 -42 -94
-177 167 -119 229 -170 327 -205 390 -35 64 -85 160 -210 400 -43 83 -85 158
-93 168 -16 18 -67 23 -77 8z"/>
<path d="M3743 6000 c-13 -5 -23 -13 -23 -18 0 -5 -22 -49 -48 -98 -27 -49
-81 -152 -122 -229 -40 -77 -101 -192 -135 -255 -127 -238 -122 -224 -102
-264 9 -20 20 -36 25 -36 4 0 22 28 40 63 33 65 118 226 204 387 28 52 77 145
108 205 32 61 71 136 89 168 17 31 31 64 31 72 0 17 -32 19 -67 5z"/>
<path d="M3908 5993 c-8 -10 -55 -94 -103 -188 -48 -93 -100 -192 -115 -220
-39 -73 -214 -405 -269 -511 -23 -44 -30 -69 -25 -88 6 -24 31 -53 38 -45 4 5
72 132 234 439 27 52 71 136 97 185 26 50 73 140 105 200 31 61 71 137 88 169
17 33 29 63 26 68 -9 15 -60 9 -76 -9z"/>
<path d="M1765 5930 c-271 -58 -506 -267 -597 -530 -43 -126 -56 -315 -28
-430 14 -60 58 -189 70 -205 4 -5 18 -28 30 -50 52 -94 177 -221 270 -274 148
-85 254 -114 425 -114 156 -1 231 16 360 78 107 52 189 116 265 206 59 72 140
213 140 247 0 25 -30 92 -41 92 -4 0 -13 -17 -19 -37 -42 -131 -155 -292 -258
-366 -219 -157 -481 -191 -722 -95 -111 44 -228 130 -295 217 -224 293 -218
670 17 949 82 98 206 177 348 222 100 32 287 35 398 6 40 -10 75 -17 77 -14 3
2 8 18 11 35 6 30 5 31 -47 48 -62 19 -336 30 -404 15z"/>
<path d="M5775 5869 c-84 -24 -164 -92 -198 -169 -48 -105 -30 -288 37 -380
91 -126 306 -152 418 -52 33 30 56 23 60 -19 3 -32 4 -32 58 -33 l55 -1 0 325
0 325 -55 0 c-47 0 -55 -3 -58 -20 -1 -11 -5 -31 -8 -44 l-5 -24 -27 25 c-46
43 -134 78 -194 77 -29 0 -66 -5 -83 -10z m196 -120 c39 -20 92 -79 109 -123
16 -44 12 -140 -9 -189 -24 -55 -81 -103 -147 -122 -46 -13 -57 -13 -94 0 -56
20 -89 48 -124 103 -26 41 -29 56 -30 123 0 64 4 83 26 120 34 57 55 76 114
99 55 20 99 17 155 -11z"/>
<path d="M7669 5865 c-102 -37 -137 -67 -189 -160 -33 -58 -40 -214 -14 -292
34 -101 117 -173 236 -205 57 -15 159 -1 224 31 44 22 114 88 114 108 0 7 5
13 10 13 6 0 10 9 10 20 0 18 -7 20 -58 20 -53 0 -61 -3 -92 -35 -20 -21 -54
-41 -85 -51 -49 -15 -57 -15 -107 0 -80 23 -143 94 -136 154 l3 27 250 2 250
2 0 73 c-1 133 -69 234 -191 282 -72 29 -164 34 -225 11z m182 -108 c33 -15
98 -77 100 -95 0 -4 2 -17 5 -29 6 -37 -23 -43 -201 -43 -178 0 -184 2 -171
53 7 28 54 90 81 108 11 7 47 15 80 19 69 7 60 8 106 -13z"/>
<path d="M2360 5754 c0 -55 5 -76 29 -118 15 -28 61 -114 101 -191 40 -77 87
-167 105 -200 18 -33 63 -118 100 -190 100 -192 136 -255 145 -255 4 0 12 19
18 41 11 45 13 41 -173 394 -29 55 -75 143 -103 195 -27 52 -65 124 -84 160
-19 36 -54 102 -78 148 -23 45 -46 82 -51 82 -5 0 -9 -30 -9 -66z"/>
<path d="M1785 5774 c-63 -15 -79 -21 -160 -61 -54 -27 -124 -80 -168 -128
-30 -31 -117 -159 -117 -170 0 -4 -6 -21 -14 -38 -44 -100 -56 -317 -23 -423
54 -180 176 -328 334 -404 97 -48 98 -48 198 -65 88 -15 125 -14 235 7 135 25
261 97 355 202 90 101 147 218 160 329 7 53 5 63 -26 125 l-34 67 -6 -100 c-4
-55 -12 -116 -19 -135 -71 -204 -199 -336 -389 -401 -71 -25 -262 -26 -340 -3
-204 60 -362 237 -406 456 -27 130 2 281 77 406 59 97 174 196 268 231 19 7
44 17 55 21 31 12 137 30 176 30 34 0 150 -22 181 -35 11 -4 22 1 34 20 15 23
15 28 2 41 -40 40 -254 56 -373 28z"/>
<path d="M1860 5630 c-145 -25 -272 -109 -348 -230 -40 -64 -58 -114 -72 -200
-11 -64 -10 -86 4 -155 44 -213 173 -347 386 -401 69 -17 180 -14 250 8 114
35 216 111 276 206 69 107 84 173 84 363 0 133 -2 154 -21 192 -56 109 -54
116 -59 -153 l-5 -245 -30 -60 c-38 -77 -134 -173 -205 -207 -87 -40 -173 -51
-259 -33 -96 20 -165 57 -227 121 -152 155 -163 392 -27 570 23 31 114 99 163
121 72 34 198 43 273 21 35 -11 41 -10 53 7 24 32 17 51 -23 63 -54 15 -160
22 -213 12z"/>
<path d="M3971 5471 l-31 -68 0 -611 0 -612 25 -6 c58 -15 55 -55 55 680 0
371 -4 677 -9 680 -4 3 -22 -25 -40 -63z"/>
<path d="M3843 5228 c-6 -7 -20 -32 -32 -55 -21 -42 -21 -50 -19 -520 l3 -478
33 -3 c17 -2 32 0 32 5 1 652 0 1056 -3 1059 -2 3 -9 -1 -14 -8z"/>
<path d="M4717 4994 c-4 -4 -7 -189 -7 -411 l0 -403 55 0 55 0 0 258 c0 274 5
306 40 262 11 -14 20 -29 20 -34 0 -5 9 -28 19 -50 11 -23 29 -63 41 -91 11
-27 29 -68 40 -90 10 -22 35 -76 55 -120 57 -124 60 -130 67 -135 4 -3 24 -4
45 -2 37 4 39 6 76 85 39 81 61 130 90 197 9 19 32 71 51 114 20 43 36 83 36
87 0 15 43 59 52 53 4 -3 8 -124 8 -270 l0 -264 60 0 60 0 -2 408 -3 407 -66
3 -66 3 -23 -48 c-12 -26 -29 -64 -37 -83 -8 -19 -28 -62 -43 -95 -15 -33 -63
-140 -106 -237 -44 -103 -83 -178 -91 -178 -13 0 -31 36 -98 190 -18 41 -47
107 -64 145 -18 39 -56 122 -85 185 l-52 115 -60 3 c-33 2 -63 0 -67 -4z"/>
<path d="M7200 4911 c0 -81 -9 -98 -44 -85 -8 3 -19 -3 -24 -13 -11 -22 -9
-76 4 -79 5 -1 21 -5 37 -8 l27 -6 0 -203 c0 -227 8 -265 61 -309 31 -26 39
-28 131 -28 l98 0 0 29 c0 51 -9 61 -54 61 -107 0 -114 16 -110 259 2 102 7
188 11 192 5 5 39 9 78 11 75 3 84 11 71 64 -6 22 -11 24 -65 24 -87 0 -91 3
-91 69 0 97 -3 101 -71 101 l-59 0 0 -79z"/>
<path d="M3689 4930 c-51 -79 -50 -70 -50 -418 1 -180 1 -330 1 -334 0 -13 60
-9 65 5 3 6 4 183 3 392 -3 352 -4 377 -19 355z"/>
<path d="M5990 4834 c-99 -17 -176 -64 -218 -133 -38 -63 -52 -116 -52 -197 0
-171 84 -291 230 -331 72 -20 182 0 247 44 56 39 73 37 73 -8 0 -29 0 -29 60
-29 l60 0 -2 318 -3 317 -57 3 c-42 2 -58 -1 -59 -10 -1 -7 -2 -22 -3 -32 -2
-29 -18 -29 -60 -1 -70 47 -152 70 -216 59z m141 -120 c80 -39 120 -101 127
-196 9 -122 -49 -212 -154 -243 -59 -17 -91 -13 -144 19 -47 27 -66 51 -96
114 -29 60 -29 131 -1 192 50 108 173 159 268 114z"/>
<path d="M6690 4821 c-113 -33 -155 -85 -148 -186 3 -51 9 -70 28 -91 29 -30
76 -55 140 -73 162 -47 203 -70 208 -115 6 -48 -55 -96 -123 -96 -44 0 -106
34 -131 72 -17 25 -25 28 -76 28 -54 0 -58 -2 -58 -23 0 -27 54 -117 71 -117
6 0 23 -8 37 -19 35 -24 63 -30 147 -31 151 -2 222 38 251 137 15 52 15 55 -9
107 -23 49 -32 58 -86 85 -33 17 -69 31 -79 31 -26 0 -143 48 -165 68 -34 30
-39 50 -22 82 20 39 43 50 105 50 58 0 105 -26 120 -66 9 -22 15 -24 71 -24
l61 0 -7 38 c-21 117 -186 188 -335 143z"/>
<path d="M7761 4817 c-138 -43 -218 -173 -209 -338 10 -180 113 -293 282 -307
122 -11 194 10 264 73 39 35 70 90 58 102 -3 4 -32 5 -64 4 -49 -2 -61 -6 -84
-32 -57 -62 -151 -77 -223 -34 -52 30 -95 84 -102 129 -5 30 -2 34 22 40 14 4
124 6 243 6 119 0 223 -1 231 0 11 0 13 16 8 86 -7 101 -30 148 -105 215 -80
72 -202 93 -321 56z m204 -104 c52 -29 101 -107 90 -142 -4 -15 -26 -16 -186
-15 -99 1 -182 4 -185 7 -3 3 0 24 7 47 13 42 70 100 117 117 28 11 130 1 157
-14z"/>
<path d="M8575 4821 c-28 -10 -64 -30 -79 -45 -40 -36 -56 -34 -56 9 l0 35
-55 0 -55 0 0 -320 0 -320 55 0 55 0 0 156 c0 299 27 356 179 376 23 3 25 7
25 62 1 33 -3 61 -9 62 -5 2 -33 -5 -60 -15z"/>
<path d="M8940 4829 c-84 -15 -99 -21 -144 -66 -46 -45 -46 -46 -46 -113 0
-53 4 -73 21 -94 30 -39 94 -72 184 -97 130 -35 175 -65 175 -117 0 -36 -71
-82 -126 -82 -45 0 -115 39 -134 74 -12 24 -19 26 -77 26 -69 0 -72 -4 -47
-53 35 -69 101 -121 169 -131 157 -24 266 8 316 92 29 50 24 136 -12 180 -25
32 -110 76 -169 87 -56 12 -157 61 -169 83 -16 31 -14 47 14 80 46 55 140 50
194 -9 17 -18 31 -37 31 -41 0 -5 27 -8 61 -8 l61 0 -7 32 c-8 35 -43 96 -67
116 -20 16 -135 52 -162 51 -11 -1 -41 -5 -66 -10z"/>
</g>
</svg>
