<?xml version="1.0" standalone="no"?>
<!DOCTYPE svg PUBLIC "-//W3C//DTD SVG 20010904//EN"
 "http://www.w3.org/TR/2001/REC-SVG-20010904/DTD/svg10.dtd">
<svg version="1.0" xmlns="http://www.w3.org/2000/svg"
 width="800.000000pt" height="167.000000pt" viewBox="0 0 800.000000 167.000000"
 preserveAspectRatio="xMidYMid meet">

<g transform="translate(0.000000,167.000000) scale(0.100000,-0.100000)"
fill="#000000" stroke="none">
<path d="M910 1664 c-14 -2 -59 -9 -100 -15 -41 -6 -118 -25 -170 -41 -264
-84 -447 -230 -553 -443 -61 -122 -72 -173 -72 -335 1 -132 3 -152 28 -225
123 -355 468 -579 927 -602 251 -13 513 48 703 164 74 45 168 122 196 161 18
25 19 34 9 68 -7 21 -12 40 -13 42 -1 1 -37 -33 -81 -76 -137 -134 -284 -195
-474 -196 -181 0 -337 63 -465 188 -84 83 -133 160 -171 271 -25 72 -28 94
-28 210 0 120 2 137 30 216 62 175 179 307 339 384 115 55 176 69 300 69 113
-1 197 -19 288 -65 44 -23 57 -34 53 -46 -4 -9 -81 -135 -172 -281 -91 -145
-164 -265 -162 -267 2 -1 150 83 330 187 371 215 343 185 258 287 -187 225
-514 355 -880 350 -52 -1 -106 -3 -120 -5z"/>
<path d="M2695 1346 c-55 -20 -203 -73 -330 -120 l-230 -85 309 -3 309 -3 48
-180 c27 -99 49 -186 49 -193 0 -8 -12 -4 -32 11 -96 72 -212 108 -348 108
-113 0 -188 -18 -282 -68 -272 -143 -324 -460 -107 -656 235 -213 627 -189
853 53 27 28 50 50 52 48 2 -2 16 -51 31 -108 l28 -105 243 -3 c150 -1 242 1
242 7 0 6 -63 245 -140 533 -152 569 -168 616 -251 693 -76 71 -145 99 -254
103 -81 2 -100 -1 -190 -32z m73 -671 c96 -41 160 -147 149 -252 -21 -205
-268 -291 -414 -144 -70 70 -90 193 -45 278 25 48 85 102 133 119 48 18 133
17 177 -1z"/>
<path d="M3870 1369 c-14 -5 -129 -58 -256 -117 l-232 -107 159 -3 159 -2 0
-550 0 -550 245 0 245 0 1 493 c0 354 3 502 12 527 14 41 68 80 111 80 17 0
46 -9 64 -20 62 -38 62 -38 62 -585 l0 -495 245 0 246 0 -3 577 c-3 562 -4
579 -24 623 -25 54 -88 113 -139 130 -82 27 -143 11 -365 -92 l-205 -96 -23
51 c-30 67 -56 94 -117 123 -53 25 -138 31 -185 13z"/>
<path d="M5655 1364 c-33 -8 -98 -33 -145 -56 -67 -33 -103 -60 -171 -128 -72
-71 -93 -101 -132 -180 -125 -256 -92 -536 90 -758 83 -101 242 -196 380 -226
248 -55 516 38 680 235 53 65 117 191 138 274 19 74 22 229 5 310 -48 233
-222 430 -452 512 -61 21 -94 26 -203 29 -92 2 -147 -1 -190 -12z m115 -96
c25 -13 52 -37 62 -53 24 -43 258 -920 258 -969 0 -78 -67 -146 -143 -146 -49
0 -102 25 -127 59 -11 16 -73 228 -145 497 -142 529 -141 522 -74 586 55 53
102 60 169 26z"/>
<path d="M6860 1337 c-52 -24 -167 -77 -255 -118 l-159 -74 162 -3 162 -2 0
-550 0 -550 245 0 244 0 3 515 3 515 31 31 c39 38 97 49 142 25 63 -33 62 -24
62 -581 l0 -505 245 0 245 0 0 575 c0 494 -2 581 -15 612 -42 99 -121 153
-227 153 -59 0 -77 -7 -268 -96 -113 -52 -209 -96 -214 -97 -4 -1 -14 15 -22
35 -34 97 -122 158 -228 158 -50 0 -78 -8 -156 -43z"/>
</g>
</svg>
