<?xml version="1.0" encoding="UTF-8"?>
<svg version="1.1" xmlns="http://www.w3.org/2000/svg" width="814" height="260">
<path d="M0 0 C0 0.66 0 1.32 0 2 C-0.91394531 1.97679687 -1.82789063 1.95359375 -2.76953125 1.9296875 C-70.22365961 0.77610655 -135.25877368 21.00340355 -194 53 C-192.37753635 53.34546754 -190.75179539 53.67554219 -189.125 54 C-188.22007812 54.185625 -187.31515625 54.37125 -186.3828125 54.5625 C-176.08271943 55.89461365 -166.32632562 54.1194088 -156.1640625 52.421875 C-142.55098569 50.25615823 -130.59219595 51.30074517 -117.06640625 53.578125 C-105.16122055 55.48731858 -94.47985671 55.20387383 -82.66601562 53.06640625 C-70.86739754 51.08582288 -59.62588427 52.05917834 -47.875 53.9375 C-46.67101562 54.11990234 -45.46703125 54.30230469 -44.2265625 54.49023438 C-35.48837493 55.83720836 -35.48837493 55.83720836 -32 57 C-32 84.72 -32 112.44 -32 141 C-38.6 141.99 -45.2 142.98 -52 144 C-54.743125 144.474375 -57.48625 144.94875 -60.3125 145.4375 C-70.20450521 146.82095449 -80.14461731 144.98525849 -89.92504883 143.43725586 C-97.57090429 142.26704603 -104.34988957 141.80728463 -112 143 C-112.81380127 143.12270264 -113.62760254 143.24540527 -114.46606445 143.37182617 C-116.06627601 143.62440621 -117.66514553 143.88565724 -119.26245117 144.15600586 C-133.67719556 146.57224963 -146.76754588 146.39443561 -161.1875 144.1875 C-162.27571045 144.02241943 -163.3639209 143.85733887 -164.48510742 143.68725586 C-165.51482666 143.51589111 -166.5445459 143.34452637 -167.60546875 143.16796875 C-168.52481201 143.01610107 -169.44415527 142.8642334 -170.39135742 142.70776367 C-173.4978164 141.86493498 -175.5180852 141.07947156 -178 139 C-178.97299466 134.15335054 -179.12207289 129.43605607 -179.11352539 124.50415039 C-179.11367142 123.79111755 -179.11381744 123.07808472 -179.1139679 122.34344482 C-179.11327713 120.0114832 -179.1055243 117.67960374 -179.09765625 115.34765625 C-179.0957891 113.72098331 -179.0943666 112.09430981 -179.09336853 110.46763611 C-179.08956677 106.20484846 -179.07975668 101.94209537 -179.06866455 97.67932129 C-179.0583999 93.32202624 -179.05386012 88.96472556 -179.04882812 84.60742188 C-179.03813213 76.0715988 -179.02108409 67.53580371 -179 59 C-181.54112232 58.66198848 -184.08276746 58.32946621 -186.625 58 C-187.33785156 57.90460937 -188.05070313 57.80921875 -188.78515625 57.7109375 C-197.75220705 56.40291508 -197.75220705 56.40291508 -205.75 60 C-209.83333333 63 -209.83333333 63 -212 63 C-212 89.73 -212 116.46 -212 144 C-211.34 143.67 -210.68 143.34 -210 143 C-207.20676953 142.59718676 -204.42900585 142.24425039 -201.625 141.9375 C-200.81949707 141.84807129 -200.01399414 141.75864258 -199.18408203 141.66650391 C-192.77493652 140.99582394 -186.44418708 140.7725581 -180 141 C-180 141.33 -180 141.66 -180 142 C-203.72510722 146.30169515 -223.27489278 146.30169515 -247 142 C-247 141.67 -247 141.34 -247 141 C-239.71836035 140.74300095 -232.60635161 141.1346594 -225.375 141.9375 C-224.58109863 142.02435059 -223.78719727 142.11120117 -222.96923828 142.20068359 C-217.26388962 142.86805519 -217.26388962 142.86805519 -215 144 C-215.33 118.59 -215.66 93.18 -216 67 C-227.63517445 75.27245883 -227.63517445 75.27245883 -238.8125 84.0625 C-239.50408203 84.62904297 -240.19566406 85.19558594 -240.90820312 85.77929688 C-244.04127099 88.29193261 -244.04127099 88.29193261 -247 91 C-247.14812918 93.35536848 -247.23516616 95.68494943 -247.28125 98.04296875 C-247.29965942 98.7630159 -247.31806885 99.48306305 -247.33703613 100.22492981 C-247.39593903 102.54570085 -247.44850363 104.86655364 -247.5 107.1875 C-247.74318084 117.82268443 -248.12422718 128.39400855 -249 139 C-249.33 139 -249.66 139 -250 139 C-251.1884005 124.3599172 -251.5402859 109.67685293 -252 95 C-270.4937414 112.87152206 -290.18084689 135.39912387 -292 162.26953125 C-292 172.1218738 -288.51188554 181.02222795 -281.86328125 188.28125 C-260.85616012 207.65888794 -227.7237328 207.9815546 -201 207 C-173.35799547 205.38887936 -146.31076307 199.46357087 -120 191 C-118.56648193 190.54004639 -118.56648193 190.54004639 -117.10400391 190.07080078 C-90.61288041 181.45772523 -63.65443327 170.46993835 -41 154 C-40.04480469 153.31679687 -39.08960938 152.63359375 -38.10546875 151.9296875 C-15.89889829 135.68949573 12.97036079 111.25369297 18.0625 82.5625 C17.98647769 78.22922815 17.60244344 76.49470976 15 73 C5.53062844 64.28895594 -7.56394793 60.96050703 -20 59 C-19.67 58.34 -19.34 57.68 -19 57 C-2.70683161 53.70405372 18.91881784 54.70304638 33.34765625 63.41796875 C37.83769307 66.58788585 40.71116554 69.60216369 42.6875 74.8125 C43.58048411 81.06338877 42.9419976 86.67568743 41.125 92.6875 C40.8005188 93.76620361 40.8005188 93.76620361 40.46948242 94.86669922 C35.50695659 110.4319639 27.68823236 124.89630534 18 138 C17.57638184 138.57766113 17.15276367 139.15532227 16.71630859 139.75048828 C2.43790096 159.03358787 -14.81515028 175.66412356 -34 190 C-34.62293945 190.46873535 -35.24587891 190.9374707 -35.88769531 191.42041016 C-77.24919915 222.30046166 -127.18769302 242.54654112 -178 251 C-179.22082275 251.22212158 -179.22082275 251.22212158 -180.46630859 251.44873047 C-194.99641347 254.03811613 -209.46964444 254.31368592 -224.1875 254.375 C-225.10950195 254.38285522 -226.03150391 254.39071045 -226.98144531 254.39880371 C-244.16284052 254.51264344 -261.4287274 253.28371634 -277.9375 248.1875 C-278.80101074 247.92960693 -279.66452148 247.67171387 -280.55419922 247.40600586 C-296.93872572 242.3783457 -310.69861827 235.06928018 -323 223 C-323.95712891 222.07960937 -323.95712891 222.07960937 -324.93359375 221.140625 C-336.49491046 209.09007663 -340.54080885 192.95436922 -340.41772461 176.70117188 C-339.45866397 144.54407894 -319.55419876 116.37102944 -298 94 C-297.36642578 93.33919434 -296.73285156 92.67838867 -296.08007812 91.99755859 C-287.46111747 83.05446957 -278.73973235 74.64013384 -268.72705078 67.27392578 C-266.95902089 65.96977255 -265.2113778 64.64136158 -263.46484375 63.30859375 C-191.27407163 8.71061257 -89.4670086 -21.06309002 0 0 Z M-143 54 C-146.43793339 54.18129815 -146.43793339 54.18129815 -150 55 C-150.66 56.32 -151.32 57.64 -152 59 C-148.7 58.67 -145.4 58.34 -142 58 C-142.33 56.68 -142.66 55.36 -143 54 Z M-138 55 C-138 55.99 -138 56.98 -138 58 C-135.03 58.33 -132.06 58.66 -129 59 C-129.33 57.68 -129.66 56.36 -130 55 C-132.64 55 -135.28 55 -138 55 Z M-163 57 C-163 57.99 -163 58.98 -163 60 C-157.91696314 60.11320856 -157.91696314 60.11320856 -153 59 C-153.33 58.01 -153.66 57.02 -154 56 C-157.19902639 55.91113816 -159.92677456 56.08941469 -163 57 Z M-127 56 C-127 56.99 -127 57.98 -127 59 C-124.03 59.33 -121.06 59.66 -118 60 C-118 59.01 -118 58.02 -118 57 C-120.97 56.67 -123.94 56.34 -127 56 Z M-174 59 C-174 59.99 -174 60.98 -174 62 C-169.545 61.505 -169.545 61.505 -165 61 C-165 60.01 -165 59.02 -165 58 C-168.19902639 57.91113816 -170.92677456 58.08941469 -174 59 Z M-115 58 C-115 58.99 -115 59.98 -115 61 C-112.03 61.33 -109.06 61.66 -106 62 C-106 61.01 -106 60.02 -106 59 C-108.97 58.67 -111.94 58.34 -115 58 Z M-139 60 C-139 60.99 -139 61.98 -139 63 C-136.71294169 64.14352916 -135.40735238 64.10334439 -132.875 64.0625 C-131.59625 64.041875 -130.3175 64.02125 -129 64 C-129 63.01 -129 62.02 -129 61 C-132.3 60.67 -135.6 60.34 -139 60 Z M-151 61 C-151 61.99 -151 62.98 -151 64 C-148.36 64 -145.72 64 -143 64 C-142.67 62.68 -142.34 61.36 -142 60 C-145.11227195 60 -147.94152152 60.45627049 -151 61 Z M-163 63 C-163 63.99 -163 64.98 -163 66 C-158.545 65.505 -158.545 65.505 -154 65 C-154 64.01 -154 63.02 -154 62 C-158.65052872 61.73067479 -158.65052872 61.73067479 -163 63 Z M-127 62 C-127 62.99 -127 63.98 -127 65 C-123.7 65.33 -120.4 65.66 -117 66 C-117.66 64.68 -118.32 63.36 -119 62 C-121.64 62 -124.28 62 -127 62 Z M-115 63 C-115.33 63.99 -115.66 64.98 -116 66 C-112.37 66.33 -108.74 66.66 -105 67 C-105 66.01 -105 65.02 -105 64 C-108.3 63.67 -111.6 63.34 -115 63 Z M-175 64 C-175 64.99 -175 65.98 -175 67 C-171.7 66.67 -168.4 66.34 -165 66 C-165 65.01 -165 64.02 -165 63 C-168.41099168 63 -171.63088314 63.49145406 -175 64 Z M-151 67 C-151 67.99 -151 68.98 -151 70 C-146.545 69.505 -146.545 69.505 -142 69 C-142 68.01 -142 67.02 -142 66 C-145.34252724 65.92572162 -147.8035914 65.93453047 -151 67 Z M-138 66 C-138 66.99 -138 67.98 -138 69 C-135.03 69.33 -132.06 69.66 -129 70 C-129 69.01 -129 68.02 -129 67 C-131.97 66.67 -134.94 66.34 -138 66 Z M-127 67 C-127 67.99 -127 68.98 -127 70 C-124.03 70.33 -121.06 70.66 -118 71 C-118 70.01 -118 69.02 -118 68 C-120.97 67.67 -123.94 67.34 -127 67 Z M-163 68 C-163 68.99 -163 69.98 -163 71 C-159.7 70.67 -156.4 70.34 -153 70 C-153.33 69.01 -153.66 68.02 -154 67 C-157.11227195 67 -159.94152152 67.45627049 -163 68 Z M-115 68 C-115 68.99 -115 69.98 -115 71 C-112.03 71.33 -109.06 71.66 -106 72 C-106 71.01 -106 70.02 -106 69 C-108.97 68.67 -111.94 68.34 -115 68 Z M-166 68 C-168.64 68.33 -171.28 68.66 -174 69 C-174 69.99 -174 70.98 -174 72 C-169.545 71.505 -169.545 71.505 -165 71 C-165.33 70.01 -165.66 69.02 -166 68 Z M-139 71 C-139 72.32 -139 73.64 -139 75 C-135.7 75 -132.4 75 -129 75 C-129 74.01 -129 73.02 -129 72 C-132.3 71.67 -135.6 71.34 -139 71 Z M-143 71 C-145.64 71.33 -148.28 71.66 -151 72 C-151 72.99 -151 73.98 -151 75 C-148.03 75 -145.06 75 -142 75 C-142.33 73.68 -142.66 72.36 -143 71 Z M-163 73 C-162.67 74.32 -162.34 75.64 -162 77 C-159.36 76.67 -156.72 76.34 -154 76 C-154 75.01 -154 74.02 -154 73 C-156.97 73 -159.94 73 -163 73 Z M-127 73 C-127 73.99 -127 74.98 -127 76 C-123.7 76.33 -120.4 76.66 -117 77 C-117.33 75.68 -117.66 74.36 -118 73 C-120.97 73 -123.94 73 -127 73 Z M-175 74 C-175 74.99 -175 75.98 -175 77 C-171.7 77 -168.4 77 -165 77 C-165 76.01 -165 75.02 -165 74 C-168.3 74 -171.6 74 -175 74 Z M-115 74 C-115 74.99 -115 75.98 -115 77 C-111.7 77 -108.4 77 -105 77 C-105.33 76.01 -105.66 75.02 -106 74 C-108.97 74 -111.94 74 -115 74 Z M-151 78 C-151.33 78.99 -151.66 79.98 -152 81 C-150.72125 81.020625 -149.4425 81.04125 -148.125 81.0625 C-147.40570313 81.07410156 -146.68640625 81.08570312 -145.9453125 81.09765625 C-143.91814596 81.12649242 -143.91814596 81.12649242 -142 80 C-142 79.01 -142 78.02 -142 77 C-145.15436364 76.91237879 -148.03421164 76.83486886 -151 78 Z M-138 77 C-137.67 78.32 -137.34 79.64 -137 81 C-134.36 81 -131.72 81 -129 81 C-129 80.01 -129 79.02 -129 78 C-131.97 77.67 -134.94 77.34 -138 77 Z M-163 78 C-163 79.32 -163 80.64 -163 82 C-159.7 81.67 -156.4 81.34 -153 81 C-153.33 80.01 -153.66 79.02 -154 78 C-156.97 78 -159.94 78 -163 78 Z M-127 78 C-127 78.99 -127 79.98 -127 81 C-124.03 81.33 -121.06 81.66 -118 82 C-118 80.68 -118 79.36 -118 78 C-120.97 78 -123.94 78 -127 78 Z M-174 80 C-173.67 80.99 -173.34 81.98 -173 83 C-170.36 82.67 -167.72 82.34 -165 82 C-165 81.01 -165 80.02 -165 79 C-169.65052872 78.73067479 -169.65052872 78.73067479 -174 80 Z M-115 79 C-115 79.99 -115 80.98 -115 82 C-112.03 82.33 -109.06 82.66 -106 83 C-106 82.01 -106 81.02 -106 80 C-108.95664519 78.5216774 -111.74229737 78.93967217 -115 79 Z M-151 83 C-151 83.99 -151 84.98 -151 86 C-148.03 86 -145.06 86 -142 86 C-142 85.01 -142 84.02 -142 83 C-144.97 83 -147.94 83 -151 83 Z M-139 83 C-139 83.99 -139 84.98 -139 86 C-135.7 86 -132.4 86 -129 86 C-129 85.01 -129 84.02 -129 83 C-132.3 83 -135.6 83 -139 83 Z M-174 84 C-174 85.32 -174 86.64 -174 88 C-169.545 87.505 -169.545 87.505 -165 87 C-165 86.01 -165 85.02 -165 84 C-167.97 84 -170.94 84 -174 84 Z M-163 84 C-163 84.99 -163 85.98 -163 87 C-160.03 87 -157.06 87 -154 87 C-154 86.01 -154 85.02 -154 84 C-156.97 84 -159.94 84 -163 84 Z M-127 84 C-127 84.99 -127 85.98 -127 87 C-123.7 87 -120.4 87 -117 87 C-117.33 86.01 -117.66 85.02 -118 84 C-120.97 84 -123.94 84 -127 84 Z M-115 84 C-115 84.99 -115 85.98 -115 87 C-111.7 87 -108.4 87 -105 87 C-105.33 86.01 -105.66 85.02 -106 84 C-108.97 84 -111.94 84 -115 84 Z M-163 89 C-163 89.99 -163 90.98 -163 92 C-159.7 92 -156.4 92 -153 92 C-153.33 91.01 -153.66 90.02 -154 89 C-156.97 89 -159.94 89 -163 89 Z M-151 89 C-151 89.99 -151 90.98 -151 92 C-148.03 92 -145.06 92 -142 92 C-142 91.01 -142 90.02 -142 89 C-144.97 89 -147.94 89 -151 89 Z M-138 89 C-138 89.99 -138 90.98 -138 92 C-135.03 92 -132.06 92 -129 92 C-129 91.01 -129 90.02 -129 89 C-131.97 89 -134.94 89 -138 89 Z M-127 89 C-127 89.99 -127 90.98 -127 92 C-124.03 92 -121.06 92 -118 92 C-118 91.01 -118 90.02 -118 89 C-120.97 89 -123.94 89 -127 89 Z M-174 90 C-174 90.99 -174 91.98 -174 93 C-171.03 93 -168.06 93 -165 93 C-165 92.01 -165 91.02 -165 90 C-167.97 90 -170.94 90 -174 90 Z M-115 90 C-114.67 90.99 -114.34 91.98 -114 93 C-111.36 93 -108.72 93 -106 93 C-106 92.01 -106 91.02 -106 90 C-108.97 90 -111.94 90 -115 90 Z M-151 94 C-151 95.32 -151 96.64 -151 98 C-148.36 98 -145.72 98 -143 98 C-142.67 96.68 -142.34 95.36 -142 94 C-144.97 94 -147.94 94 -151 94 Z M-139 94 C-139 94.99 -139 95.98 -139 97 C-136.71294169 98.14352916 -135.40735238 98.10334439 -132.875 98.0625 C-131.59625 98.041875 -130.3175 98.02125 -129 98 C-129 96.68 -129 95.36 -129 94 C-132.3 94 -135.6 94 -139 94 Z M-175 95 C-175 95.99 -175 96.98 -175 98 C-171.7 98 -168.4 98 -165 98 C-165 97.01 -165 96.02 -165 95 C-168.3 95 -171.6 95 -175 95 Z M-163 95 C-163 95.99 -163 96.98 -163 98 C-160.03 98 -157.06 98 -154 98 C-154 97.01 -154 96.02 -154 95 C-156.97 95 -159.94 95 -163 95 Z M-127 95 C-127 95.99 -127 96.98 -127 98 C-123.7 98 -120.4 98 -117 98 C-117 97.01 -117 96.02 -117 95 C-120.3 95 -123.6 95 -127 95 Z M-115 95 C-115 95.99 -115 96.98 -115 98 C-111.7 98 -108.4 98 -105 98 C-105 97.01 -105 96.02 -105 95 C-108.3 95 -111.6 95 -115 95 Z M-174 100 C-174 100.99 -174 101.98 -174 103 C-171.03 103 -168.06 103 -165 103 C-165 102.01 -165 101.02 -165 100 C-167.97 100 -170.94 100 -174 100 Z M-163 100 C-163 100.99 -163 101.98 -163 103 C-159.7 103 -156.4 103 -153 103 C-153.33 102.01 -153.66 101.02 -154 100 C-156.97 100 -159.94 100 -163 100 Z M-151 100 C-151 100.99 -151 101.98 -151 103 C-148.03 103 -145.06 103 -142 103 C-142 102.01 -142 101.02 -142 100 C-144.97 100 -147.94 100 -151 100 Z M-138 100 C-138 100.99 -138 101.98 -138 103 C-135.03 103 -132.06 103 -129 103 C-129 102.01 -129 101.02 -129 100 C-131.97 100 -134.94 100 -138 100 Z M-127 100 C-127 100.99 -127 101.98 -127 103 C-124.03 103 -121.06 103 -118 103 C-118 102.01 -118 101.02 -118 100 C-120.97 100 -123.94 100 -127 100 Z M-115 100 C-115 100.99 -115 101.98 -115 103 C-112.03 103 -109.06 103 -106 103 C-106 102.01 -106 101.02 -106 100 C-108.97 100 -111.94 100 -115 100 Z M-175 105 C-174.67 105.99 -174.34 106.98 -174 108 C-171.03 108 -168.06 108 -165 108 C-165 107.01 -165 106.02 -165 105 C-168.3 105 -171.6 105 -175 105 Z M-163 105 C-163 106.32 -163 107.64 -163 109 C-160.03 109 -157.06 109 -154 109 C-154 107.68 -154 106.36 -154 105 C-156.97 105 -159.94 105 -163 105 Z M-151 105 C-151 106.32 -151 107.64 -151 109 C-148.03 109 -145.06 109 -142 109 C-142.33 107.68 -142.66 106.36 -143 105 C-145.64 105 -148.28 105 -151 105 Z M-139 105 C-139 106.32 -139 107.64 -139 109 C-135.7 109 -132.4 109 -129 109 C-129 107.68 -129 106.36 -129 105 C-132.3 105 -135.6 105 -139 105 Z M-127 105 C-127 106.32 -127 107.64 -127 109 C-123.7 109 -120.4 109 -117 109 C-117.33 107.68 -117.66 106.36 -118 105 C-120.97 105 -123.94 105 -127 105 Z M-115 105 C-115 105.99 -115 106.98 -115 108 C-112.03 108 -109.06 108 -106 108 C-105.67 107.01 -105.34 106.02 -105 105 C-108.3 105 -111.6 105 -115 105 Z M-174 110 C-173.67 111.32 -173.34 112.64 -173 114 C-170.36 114 -167.72 114 -165 114 C-165 113.01 -165 112.02 -165 111 C-167.97 110.67 -170.94 110.34 -174 110 Z M-163 111 C-163 111.99 -163 112.98 -163 114 C-159.7 114 -156.4 114 -153 114 C-153.33 113.01 -153.66 112.02 -154 111 C-156.97 111 -159.94 111 -163 111 Z M-151 111 C-151.33 112.32 -151.66 113.64 -152 115 C-148.7 115 -145.4 115 -142 115 C-142 113.68 -142 112.36 -142 111 C-144.97 111 -147.94 111 -151 111 Z M-138 111 C-138 112.32 -138 113.64 -138 115 C-135.03 115 -132.06 115 -129 115 C-129 113.68 -129 112.36 -129 111 C-131.97 111 -134.94 111 -138 111 Z M-127 111 C-127 111.99 -127 112.98 -127 114 C-124.03 114 -121.06 114 -118 114 C-118 113.01 -118 112.02 -118 111 C-120.97 111 -123.94 111 -127 111 Z M-115 111 C-115 111.99 -115 112.98 -115 114 C-112.03 114 -109.06 114 -106 114 C-106 112.68 -106 111.36 -106 110 C-109.04200046 110 -111.99532806 110.55486342 -115 111 Z M-175 115 C-175 115.99 -175 116.98 -175 118 C-171.52674819 119.1577506 -168.63932552 119.06866652 -165 119 C-165 118.01 -165 117.02 -165 116 C-168.3 115.67 -171.6 115.34 -175 115 Z M-163 116 C-163 116.99 -163 117.98 -163 119 C-160.03 119.33 -157.06 119.66 -154 120 C-154.33 118.68 -154.66 117.36 -155 116 C-157.64 116 -160.28 116 -163 116 Z M-151 116 C-151 117.32 -151 118.64 -151 120 C-148.03 120 -145.06 120 -142 120 C-142 119.01 -142 118.02 -142 117 C-144.97 116.67 -147.94 116.34 -151 116 Z M-127 117 C-127 117.99 -127 118.98 -127 120 C-123.7 119.67 -120.4 119.34 -117 119 C-117.33 118.01 -117.66 117.02 -118 116 C-122.65052872 115.73067479 -122.65052872 115.73067479 -127 117 Z M-111.125 115.5 C-113.043125 115.7475 -113.043125 115.7475 -115 116 C-115 116.99 -115 117.98 -115 119 C-109.91696314 119.11320856 -109.91696314 119.11320856 -105 118 C-105 117.01 -105 116.02 -105 115 C-107.08896425 115 -109.05372935 115.23273927 -111.125 115.5 Z M-130 116 C-134.455 116.495 -134.455 116.495 -139 117 C-139 117.99 -139 118.98 -139 120 C-135.7 120 -132.4 120 -129 120 C-129.33 118.68 -129.66 117.36 -130 116 Z M-174 121 C-174.33 121.99 -174.66 122.98 -175 124 C-171.7 124 -168.4 124 -165 124 C-165 123.01 -165 122.02 -165 121 C-167.97 121 -170.94 121 -174 121 Z M-163 121 C-163 121.99 -163 122.98 -163 124 C-160.71294169 125.14352916 -159.40735238 125.10334439 -156.875 125.0625 C-155.59625 125.041875 -154.3175 125.02125 -153 125 C-153.33 124.01 -153.66 123.02 -154 122 C-156.97 121.67 -159.94 121.34 -163 121 Z M-115 121 C-115 121.99 -115 122.98 -115 124 C-112.03 124 -109.06 124 -106 124 C-106 123.01 -106 122.02 -106 121 C-108.97 121 -111.94 121 -115 121 Z M-151 122 C-151.33 123.32 -151.66 124.64 -152 126 C-148.7 126 -145.4 126 -142 126 C-142 125.01 -142 124.02 -142 123 C-144.97 122.67 -147.94 122.34 -151 122 Z M-138 123 C-138 123.99 -138 124.98 -138 126 C-135.03 126 -132.06 126 -129 126 C-129 124.68 -129 123.36 -129 122 C-132.19902639 121.91113816 -134.92677456 122.08941469 -138 123 Z M-127 122 C-127 122.99 -127 123.98 -127 125 C-124.36 125 -121.72 125 -119 125 C-118.67 123.68 -118.34 122.36 -118 121 C-121.04200046 121 -123.99532806 121.55486342 -127 122 Z M-175 125 C-175 126.32 -175 127.64 -175 129 C-171.7 129.33 -168.4 129.66 -165 130 C-165.33 128.68 -165.66 127.36 -166 126 C-168.97 125.67 -171.94 125.34 -175 125 Z M-106 125 C-108.97 125.66 -111.94 126.32 -115 127 C-115 127.66 -115 128.32 -115 129 C-111.7 129 -108.4 129 -105 129 C-105.33 127.68 -105.66 126.36 -106 125 Z M-163 127 C-163 127.99 -163 128.98 -163 130 C-160.03 130.33 -157.06 130.66 -154 131 C-154 129.68 -154 128.36 -154 127 C-156.97 127 -159.94 127 -163 127 Z M-126 127 C-126.33 128.32 -126.66 129.64 -127 131 C-123.7 130.67 -120.4 130.34 -117 130 C-117 129.01 -117 128.02 -117 127 C-119.97 127 -122.94 127 -126 127 Z M-151 128 C-151 128.99 -151 129.98 -151 131 C-148.03 131.33 -145.06 131.66 -142 132 C-142 130.68 -142 129.36 -142 128 C-144.97 128 -147.94 128 -151 128 Z M-139 128 C-139 129.32 -139 130.64 -139 132 C-135.7 131.67 -132.4 131.34 -129 131 C-129 130.01 -129 129.02 -129 128 C-132.3 128 -135.6 128 -139 128 Z M-174 131 C-174.33 131.99 -174.66 132.98 -175 134 C-171.7 134.33 -168.4 134.66 -165 135 C-165 134.01 -165 133.02 -165 132 C-167.97 131.67 -170.94 131.34 -174 131 Z M-163 132 C-163 132.99 -163 133.98 -163 135 C-159.7 135.33 -156.4 135.66 -153 136 C-153.33 135.01 -153.66 134.02 -154 133 C-156.97 132.67 -159.94 132.34 -163 132 Z M-115 132 C-115 132.99 -115 133.98 -115 135 C-110.545 134.505 -110.545 134.505 -106 134 C-106 133.01 -106 132.02 -106 131 C-109.27275026 131 -111.846632 131.29925156 -115 132 Z M-151 133 C-151.33 134.32 -151.66 135.64 -152 137 C-148.7 137 -145.4 137 -142 137 C-142 136.01 -142 135.02 -142 134 C-144.97 133.67 -147.94 133.34 -151 133 Z M-127 133 C-127 133.99 -127 134.98 -127 136 C-122.545 135.505 -122.545 135.505 -118 135 C-117.67 134.01 -117.34 133.02 -117 132 C-120.50935186 132 -123.56484998 132.37542727 -127 133 Z M-138 134 C-138 134.99 -138 135.98 -138 137 C-135.03 137 -132.06 137 -129 137 C-129 135.68 -129 134.36 -129 133 C-132.11227195 133 -134.94152152 133.45627049 -138 134 Z M-175 136 C-175 137.32 -175 138.64 -175 140 C-171.7 140.33 -168.4 140.66 -165 141 C-165 139.68 -165 138.36 -165 137 C-168.3 136.67 -171.6 136.34 -175 136 Z M-115 137 C-115.33 138.32 -115.66 139.64 -116 141 C-110.555 140.505 -110.555 140.505 -105 140 C-105 138.68 -105 137.36 -105 136 C-108.41099168 136 -111.63088314 136.49145406 -115 137 Z M-163 138 C-163 138.99 -163 139.98 -163 141 C-160.03 141 -157.06 141 -154 141 C-154 140.01 -154 139.02 -154 138 C-156.97 138 -159.94 138 -163 138 Z M-127 138 C-126.67 139.32 -126.34 140.64 -126 142 C-121.545 141.505 -121.545 141.505 -117 141 C-117 140.01 -117 139.02 -117 138 C-120.3 138 -123.6 138 -127 138 Z M-151 139 C-151 139.99 -151 140.98 -151 142 C-148.04335481 143.4783226 -145.25770263 143.06032783 -142 143 C-142 142.01 -142 141.02 -142 140 C-144.97 139.67 -147.94 139.34 -151 139 Z M-139 140 C-139 140.99 -139 141.98 -139 143 C-133.91696314 143.11320856 -133.91696314 143.11320856 -129 142 C-129 141.01 -129 140.02 -129 139 C-134.08303686 138.88679144 -134.08303686 138.88679144 -139 140 Z " fill="#EF8801" transform="translate(340,6)"/>
<path d="M0 0 C1.20398438 0.18240234 2.40796875 0.36480469 3.6484375 0.55273438 C12.38662507 1.89970836 12.38662507 1.89970836 15.875 3.0625 C15.875 30.7825 15.875 58.5025 15.875 87.0625 C9.275 88.0525 2.675 89.0425 -4.125 90.0625 C-6.868125 90.536875 -9.61125 91.01125 -12.4375 91.5 C-26.42721192 93.44321696 -43.55196323 90.56865252 -57.125 87.0625 C-57.19440679 76.27522683 -57.24776373 65.48800649 -57.28043652 54.7005558 C-57.29611514 49.69189207 -57.31739334 44.68338071 -57.35131836 39.67480469 C-57.38383368 34.84430817 -57.40183645 30.01395853 -57.40963173 25.18336105 C-57.41518935 23.33729107 -57.42604156 21.49122943 -57.44219017 19.64522171 C-57.46386068 17.06619938 -57.46697133 14.48778963 -57.46557617 11.90869141 C-57.476362 11.13977066 -57.48714783 10.37084991 -57.4982605 9.57862854 C-57.48576355 7.45401001 -57.48576355 7.45401001 -57.125 4.0625 C-52.33288594 0.86775729 -46.87997366 0.75125422 -41.25 -0.0625 C-39.50203125 -0.33513672 -39.50203125 -0.33513672 -37.71875 -0.61328125 C-24.76864988 -2.52277495 -12.89906039 -2.06185202 0 0 Z " fill="#044187" transform="translate(292.125,59.9375)"/>
<path d="M0 0 C1.4097105 0.17039581 2.81985805 0.33722444 4.23046875 0.5 C5.53628906 0.665 6.84210938 0.83 8.1875 1 C8.84685547 1.0825 9.50621094 1.165 10.18554688 1.25 C13.2563434 1.63725316 16.31020324 2.05188068 19.36328125 2.5625 C29.78477824 3.81621392 39.55155424 2.1398081 49.8359375 0.421875 C63.30733763 -1.72130229 75.40240719 -0.734597 88.75 1.5 C90.23683897 1.74174924 91.72381776 1.98264022 93.2109375 2.22265625 C96.80895345 2.80524385 100.40495229 3.39933437 104 4 C103.34 4.66 102.68 5.32 102 6 C101.60235737 7.98821313 101.26224651 9.98944339 101 12 C94.375 12.125 94.375 12.125 91 11 C91 11.66 91 12.32 91 13 C94.3 13.66 97.6 14.32 101 15 C101 17.64 101 20.28 101 23 C97.7 22.67 94.4 22.34 91 22 C91 22.99 91 23.98 91 25 C94.3 25 97.6 25 101 25 C101 27.64 101 30.28 101 33 C94.375 33.125 94.375 33.125 91 32 C91 32.99 91 33.98 91 35 C94.3 35 97.6 35 101 35 C101 37.64 101 40.28 101 43 C97.7 43 94.4 43 91 43 C91 43.99 91 44.98 91 46 C94.3 46 97.6 46 101 46 C101 48.31 101 50.62 101 53 C97.7 53 94.4 53 91 53 C91 53.99 91 54.98 91 56 C94.3 55.67 97.6 55.34 101 55 C101 57.64 101 60.28 101 63 C97.78548731 64.60725635 94.56387464 64.05748185 91 64 C91 64.99 91 65.98 91 67 C94.3 66.67 97.6 66.34 101 66 C101.04241723 68.33294775 101.04092937 70.66702567 101 73 C99.41727399 74.58272601 97.61965997 74.34735747 95.4375 74.5625 C94.61121094 74.64628906 93.78492188 74.73007813 92.93359375 74.81640625 C92.29550781 74.87699219 91.65742188 74.93757813 91 75 C91 75.66 91 76.32 91 77 C94.3 77 97.6 77 101 77 C101 79.31 101 81.62 101 84 C97.52674819 85.1577506 94.63932552 85.06866652 91 85 C91 85.99 91 86.98 91 88 C94.3 88 97.6 88 101 88 C100.67 88.66 100.34 89.32 100 90 C97.75366211 90.59423828 97.75366211 90.59423828 94.77734375 91.0703125 C93.68993896 91.24498047 92.60253418 91.41964844 91.48217773 91.59960938 C75.21634187 94.01052464 61.09348833 94.65920887 44.8125 92.1875 C43.72380615 92.0225 42.6351123 91.8575 41.51342773 91.6875 C40.48419189 91.51605469 39.45495605 91.34460938 38.39453125 91.16796875 C37.47518799 91.01610107 36.55584473 90.8642334 35.60864258 90.70776367 C32.5021836 89.86493498 30.4819148 89.07947156 28 87 C27.02700534 82.15335054 26.87792711 77.43605607 26.88647461 72.50415039 C26.88632858 71.79111755 26.88618256 71.07808472 26.8860321 70.34344482 C26.88672287 68.0114832 26.8944757 65.67960374 26.90234375 63.34765625 C26.9042109 61.72098331 26.9056334 60.09430981 26.90663147 58.46763611 C26.91043323 54.20484846 26.92024332 49.94209537 26.93133545 45.67932129 C26.9416001 41.32202624 26.94613988 36.96472556 26.95117188 32.60742188 C26.96186787 24.0715988 26.97891591 15.53580371 27 7 C24.45887768 6.66198848 21.91723254 6.32946621 19.375 6 C18.30572266 5.85691406 18.30572266 5.85691406 17.21484375 5.7109375 C8.24779295 4.40291508 8.24779295 4.40291508 0.25 8 C-3.83333333 11 -3.83333333 11 -6 11 C-6 37.73 -6 64.46 -6 92 C-5.34 91.67 -4.68 91.34 -4 91 C-1.20676953 90.59718676 1.57099415 90.24425039 4.375 89.9375 C5.58325439 89.80335693 5.58325439 89.80335693 6.81591797 89.66650391 C13.22506348 88.99582394 19.55581292 88.7725581 26 89 C26 89.33 26 89.66 26 90 C2.27489278 94.30169515 -17.27489278 94.30169515 -41 90 C-41 89.67 -41 89.34 -41 89 C-33.71836035 88.74300095 -26.60635161 89.1346594 -19.375 89.9375 C-18.58109863 90.02435059 -17.78719727 90.11120117 -16.96923828 90.20068359 C-11.26388962 90.86805519 -11.26388962 90.86805519 -9 92 C-9.33 66.59 -9.66 41.18 -10 15 C-21.63517445 23.27245883 -21.63517445 23.27245883 -32.8125 32.0625 C-33.84987305 32.91231445 -33.84987305 32.91231445 -34.90820312 33.77929688 C-38.04127099 36.29193261 -38.04127099 36.29193261 -41 39 C-41.14812918 41.35536848 -41.23516616 43.68494943 -41.28125 46.04296875 C-41.29965942 46.7630159 -41.31806885 47.48306305 -41.33703613 48.22492981 C-41.39593903 50.54570085 -41.44850363 52.86655364 -41.5 55.1875 C-41.74318084 65.82268443 -42.12422718 76.39400855 -43 87 C-43.33 87 -43.66 87 -44 87 C-44.82397067 76.61222379 -45.13720837 66.29877231 -45.09765625 55.87890625 C-45.09578435 54.39818877 -45.09436411 52.91747065 -45.09336853 51.43675232 C-45.08960402 47.59494222 -45.07982788 43.75317172 -45.06866455 39.91137695 C-45.0583177 35.9689182 -45.05384288 32.02645287 -45.04882812 28.08398438 C-45.03819823 20.38930513 -45.02119767 12.69465817 -45 5 C-37.91561688 3.17011565 -30.85979682 1.91120544 -23.625 0.8125 C-21.87316406 0.52729492 -21.87316406 0.52729492 -20.0859375 0.23632812 C-13.11022203 -0.82332372 -6.96464162 -1.07478109 0 0 Z M63 2 C59.56206661 2.18129815 59.56206661 2.18129815 56 3 C55.34 4.32 54.68 5.64 54 7 C57.3 6.67 60.6 6.34 64 6 C63.67 4.68 63.34 3.36 63 2 Z M68 3 C68 3.99 68 4.98 68 6 C70.97 6.33 73.94 6.66 77 7 C76.67 5.68 76.34 4.36 76 3 C73.36 3 70.72 3 68 3 Z M43 5 C43 5.99 43 6.98 43 8 C48.08303686 8.11320856 48.08303686 8.11320856 53 7 C52.67 6.01 52.34 5.02 52 4 C48.80097361 3.91113816 46.07322544 4.08941469 43 5 Z M79 4 C79 4.99 79 5.98 79 7 C81.97 7.33 84.94 7.66 88 8 C88 7.01 88 6.02 88 5 C85.03 4.67 82.06 4.34 79 4 Z M32 7 C32 7.99 32 8.98 32 10 C36.455 9.505 36.455 9.505 41 9 C41 8.01 41 7.02 41 6 C37.80097361 5.91113816 35.07322544 6.08941469 32 7 Z M91 6 C91 6.99 91 7.98 91 9 C93.97 9.33 96.94 9.66 100 10 C100 9.01 100 8.02 100 7 C97.03 6.67 94.06 6.34 91 6 Z M67 8 C67 8.99 67 9.98 67 11 C69.28705831 12.14352916 70.59264762 12.10334439 73.125 12.0625 C74.40375 12.041875 75.6825 12.02125 77 12 C77 11.01 77 10.02 77 9 C73.7 8.67 70.4 8.34 67 8 Z M55 9 C55 9.99 55 10.98 55 12 C57.64 12 60.28 12 63 12 C63.33 10.68 63.66 9.36 64 8 C60.88772805 8 58.05847848 8.45627049 55 9 Z M43 11 C43 11.99 43 12.98 43 14 C47.455 13.505 47.455 13.505 52 13 C52 12.01 52 11.02 52 10 C47.34947128 9.73067479 47.34947128 9.73067479 43 11 Z M79 10 C79 10.99 79 11.98 79 13 C82.3 13.33 85.6 13.66 89 14 C88.34 12.68 87.68 11.36 87 10 C84.36 10 81.72 10 79 10 Z M31 12 C31 12.99 31 13.98 31 15 C34.3 14.67 37.6 14.34 41 14 C41 13.01 41 12.02 41 11 C37.58900832 11 34.36911686 11.49145406 31 12 Z M55 15 C55 15.99 55 16.98 55 18 C59.455 17.505 59.455 17.505 64 17 C64 16.01 64 15.02 64 14 C60.65747276 13.92572162 58.1964086 13.93453047 55 15 Z M68 14 C68 14.99 68 15.98 68 17 C70.97 17.33 73.94 17.66 77 18 C77 17.01 77 16.02 77 15 C74.03 14.67 71.06 14.34 68 14 Z M79 15 C79 15.99 79 16.98 79 18 C81.97 18.33 84.94 18.66 88 19 C88 18.01 88 17.02 88 16 C85.03 15.67 82.06 15.34 79 15 Z M43 16 C43 16.99 43 17.98 43 19 C46.3 18.67 49.6 18.34 53 18 C52.67 17.01 52.34 16.02 52 15 C48.88772805 15 46.05847848 15.45627049 43 16 Z M91 16 C91 16.99 91 17.98 91 19 C93.97 19.33 96.94 19.66 100 20 C100 19.01 100 18.02 100 17 C97.03 16.67 94.06 16.34 91 16 Z M40 16 C37.36 16.33 34.72 16.66 32 17 C32 17.99 32 18.98 32 20 C36.455 19.505 36.455 19.505 41 19 C40.67 18.01 40.34 17.02 40 16 Z M67 19 C67 20.32 67 21.64 67 23 C70.3 23 73.6 23 77 23 C77 22.01 77 21.02 77 20 C73.7 19.67 70.4 19.34 67 19 Z M63 19 C60.36 19.33 57.72 19.66 55 20 C55 20.99 55 21.98 55 23 C57.97 23 60.94 23 64 23 C63.67 21.68 63.34 20.36 63 19 Z M43 21 C43.33 22.32 43.66 23.64 44 25 C46.64 24.67 49.28 24.34 52 24 C52 23.01 52 22.02 52 21 C49.03 21 46.06 21 43 21 Z M79 21 C79 21.99 79 22.98 79 24 C82.3 24.33 85.6 24.66 89 25 C88.67 23.68 88.34 22.36 88 21 C85.03 21 82.06 21 79 21 Z M31 22 C31 22.99 31 23.98 31 25 C34.3 25 37.6 25 41 25 C41 24.01 41 23.02 41 22 C37.7 22 34.4 22 31 22 Z M55 26 C54.67 26.99 54.34 27.98 54 29 C55.27875 29.020625 56.5575 29.04125 57.875 29.0625 C58.59429687 29.07410156 59.31359375 29.08570313 60.0546875 29.09765625 C62.08185404 29.12649242 62.08185404 29.12649242 64 28 C64 27.01 64 26.02 64 25 C60.84563636 24.91237879 57.96578836 24.83486886 55 26 Z M68 25 C68.33 26.32 68.66 27.64 69 29 C71.64 29 74.28 29 77 29 C77 28.01 77 27.02 77 26 C74.03 25.67 71.06 25.34 68 25 Z M43 26 C43 27.32 43 28.64 43 30 C46.3 29.67 49.6 29.34 53 29 C52.67 28.01 52.34 27.02 52 26 C49.03 26 46.06 26 43 26 Z M79 26 C79 26.99 79 27.98 79 29 C81.97 29.33 84.94 29.66 88 30 C88 28.68 88 27.36 88 26 C85.03 26 82.06 26 79 26 Z M32 28 C32.33 28.99 32.66 29.98 33 31 C35.64 30.67 38.28 30.34 41 30 C41 29.01 41 28.02 41 27 C36.34947128 26.73067479 36.34947128 26.73067479 32 28 Z M91 27 C91 27.99 91 28.98 91 30 C93.97 30.33 96.94 30.66 100 31 C100 30.01 100 29.02 100 28 C97.04335481 26.5216774 94.25770263 26.93967217 91 27 Z M55 31 C55 31.99 55 32.98 55 34 C57.97 34 60.94 34 64 34 C64 33.01 64 32.02 64 31 C61.03 31 58.06 31 55 31 Z M67 31 C67 31.99 67 32.98 67 34 C70.3 34 73.6 34 77 34 C77 33.01 77 32.02 77 31 C73.7 31 70.4 31 67 31 Z M32 32 C32 33.32 32 34.64 32 36 C36.455 35.505 36.455 35.505 41 35 C41 34.01 41 33.02 41 32 C38.03 32 35.06 32 32 32 Z M43 32 C43 32.99 43 33.98 43 35 C45.97 35 48.94 35 52 35 C52 34.01 52 33.02 52 32 C49.03 32 46.06 32 43 32 Z M79 32 C79 32.99 79 33.98 79 35 C82.3 35 85.6 35 89 35 C88.67 34.01 88.34 33.02 88 32 C85.03 32 82.06 32 79 32 Z M43 37 C43 37.99 43 38.98 43 40 C46.3 40 49.6 40 53 40 C52.67 39.01 52.34 38.02 52 37 C49.03 37 46.06 37 43 37 Z M55 37 C55 37.99 55 38.98 55 40 C57.97 40 60.94 40 64 40 C64 39.01 64 38.02 64 37 C61.03 37 58.06 37 55 37 Z M68 37 C68 37.99 68 38.98 68 40 C70.97 40 73.94 40 77 40 C77 39.01 77 38.02 77 37 C74.03 37 71.06 37 68 37 Z M79 37 C79 37.99 79 38.98 79 40 C81.97 40 84.94 40 88 40 C88 39.01 88 38.02 88 37 C85.03 37 82.06 37 79 37 Z M32 38 C32 38.99 32 39.98 32 41 C34.97 41 37.94 41 41 41 C41 40.01 41 39.02 41 38 C38.03 38 35.06 38 32 38 Z M91 38 C91.33 38.99 91.66 39.98 92 41 C94.64 41 97.28 41 100 41 C100 40.01 100 39.02 100 38 C97.03 38 94.06 38 91 38 Z M55 42 C55 43.32 55 44.64 55 46 C57.64 46 60.28 46 63 46 C63.33 44.68 63.66 43.36 64 42 C61.03 42 58.06 42 55 42 Z M67 42 C67 42.99 67 43.98 67 45 C69.28705831 46.14352916 70.59264762 46.10334439 73.125 46.0625 C74.40375 46.041875 75.6825 46.02125 77 46 C77 44.68 77 43.36 77 42 C73.7 42 70.4 42 67 42 Z M31 43 C31 43.99 31 44.98 31 46 C34.3 46 37.6 46 41 46 C41 45.01 41 44.02 41 43 C37.7 43 34.4 43 31 43 Z M43 43 C43 43.99 43 44.98 43 46 C45.97 46 48.94 46 52 46 C52 45.01 52 44.02 52 43 C49.03 43 46.06 43 43 43 Z M79 43 C79 43.99 79 44.98 79 46 C82.3 46 85.6 46 89 46 C89 45.01 89 44.02 89 43 C85.7 43 82.4 43 79 43 Z M32 48 C32 48.99 32 49.98 32 51 C34.97 51 37.94 51 41 51 C41 50.01 41 49.02 41 48 C38.03 48 35.06 48 32 48 Z M43 48 C43 48.99 43 49.98 43 51 C46.3 51 49.6 51 53 51 C52.67 50.01 52.34 49.02 52 48 C49.03 48 46.06 48 43 48 Z M55 48 C55 48.99 55 49.98 55 51 C57.97 51 60.94 51 64 51 C64 50.01 64 49.02 64 48 C61.03 48 58.06 48 55 48 Z M68 48 C68 48.99 68 49.98 68 51 C70.97 51 73.94 51 77 51 C77 50.01 77 49.02 77 48 C74.03 48 71.06 48 68 48 Z M79 48 C79 48.99 79 49.98 79 51 C81.97 51 84.94 51 88 51 C88 50.01 88 49.02 88 48 C85.03 48 82.06 48 79 48 Z M91 48 C91 48.99 91 49.98 91 51 C93.97 51 96.94 51 100 51 C100 50.01 100 49.02 100 48 C97.03 48 94.06 48 91 48 Z M31 53 C31.33 53.99 31.66 54.98 32 56 C34.97 56 37.94 56 41 56 C41 55.01 41 54.02 41 53 C37.7 53 34.4 53 31 53 Z M43 53 C43 54.32 43 55.64 43 57 C45.97 57 48.94 57 52 57 C52 55.68 52 54.36 52 53 C49.03 53 46.06 53 43 53 Z M55 53 C55 54.32 55 55.64 55 57 C57.97 57 60.94 57 64 57 C63.67 55.68 63.34 54.36 63 53 C60.36 53 57.72 53 55 53 Z M67 53 C67 54.32 67 55.64 67 57 C70.3 57 73.6 57 77 57 C77 55.68 77 54.36 77 53 C73.7 53 70.4 53 67 53 Z M79 53 C79 54.32 79 55.64 79 57 C82.3 57 85.6 57 89 57 C88.67 55.68 88.34 54.36 88 53 C85.03 53 82.06 53 79 53 Z M32 58 C32.33 59.32 32.66 60.64 33 62 C35.64 62 38.28 62 41 62 C41 61.01 41 60.02 41 59 C38.03 58.67 35.06 58.34 32 58 Z M43 59 C43 59.99 43 60.98 43 62 C46.3 62 49.6 62 53 62 C52.67 61.01 52.34 60.02 52 59 C49.03 59 46.06 59 43 59 Z M55 59 C54.67 60.32 54.34 61.64 54 63 C57.3 63 60.6 63 64 63 C64 61.68 64 60.36 64 59 C61.03 59 58.06 59 55 59 Z M68 59 C68 60.32 68 61.64 68 63 C70.97 63 73.94 63 77 63 C77 61.68 77 60.36 77 59 C74.03 59 71.06 59 68 59 Z M79 59 C79 59.99 79 60.98 79 62 C81.97 62 84.94 62 88 62 C88 61.01 88 60.02 88 59 C85.03 59 82.06 59 79 59 Z M91 59 C91 59.99 91 60.98 91 62 C93.97 62 96.94 62 100 62 C100 60.68 100 59.36 100 58 C96.95799954 58 94.00467194 58.55486342 91 59 Z M31 63 C31 63.99 31 64.98 31 66 C34.47325181 67.1577506 37.36067448 67.06866652 41 67 C41 66.01 41 65.02 41 64 C37.7 63.67 34.4 63.34 31 63 Z M43 64 C43 64.99 43 65.98 43 67 C45.97 67.33 48.94 67.66 52 68 C51.67 66.68 51.34 65.36 51 64 C48.36 64 45.72 64 43 64 Z M55 64 C55 65.32 55 66.64 55 68 C57.97 68 60.94 68 64 68 C64 67.01 64 66.02 64 65 C61.03 64.67 58.06 64.34 55 64 Z M79 65 C79 65.99 79 66.98 79 68 C82.3 67.67 85.6 67.34 89 67 C88.67 66.01 88.34 65.02 88 64 C83.34947128 63.73067479 83.34947128 63.73067479 79 65 Z M76 64 C71.545 64.495 71.545 64.495 67 65 C67 65.99 67 66.98 67 68 C70.3 68 73.6 68 77 68 C76.67 66.68 76.34 65.36 76 64 Z M32 69 C31.67 69.99 31.34 70.98 31 72 C34.3 72 37.6 72 41 72 C41 71.01 41 70.02 41 69 C38.03 69 35.06 69 32 69 Z M43 69 C43 69.99 43 70.98 43 72 C45.28705831 73.14352916 46.59264762 73.10334439 49.125 73.0625 C50.40375 73.041875 51.6825 73.02125 53 73 C52.67 72.01 52.34 71.02 52 70 C49.03 69.67 46.06 69.34 43 69 Z M91 69 C91 69.99 91 70.98 91 72 C93.97 72 96.94 72 100 72 C100 71.01 100 70.02 100 69 C97.03 69 94.06 69 91 69 Z M55 70 C54.67 71.32 54.34 72.64 54 74 C57.3 74 60.6 74 64 74 C64 73.01 64 72.02 64 71 C61.03 70.67 58.06 70.34 55 70 Z M68 71 C68 71.99 68 72.98 68 74 C70.97 74 73.94 74 77 74 C77 72.68 77 71.36 77 70 C73.80097361 69.91113816 71.07322544 70.08941469 68 71 Z M79 70 C79 70.99 79 71.98 79 73 C81.64 73 84.28 73 87 73 C87.33 71.68 87.66 70.36 88 69 C84.95799954 69 82.00467194 69.55486342 79 70 Z M31 73 C31 74.32 31 75.64 31 77 C34.3 77.33 37.6 77.66 41 78 C40.67 76.68 40.34 75.36 40 74 C37.03 73.67 34.06 73.34 31 73 Z M43 75 C43 75.99 43 76.98 43 78 C45.97 78.33 48.94 78.66 52 79 C52 77.68 52 76.36 52 75 C49.03 75 46.06 75 43 75 Z M80 75 C79.67 76.32 79.34 77.64 79 79 C82.3 78.67 85.6 78.34 89 78 C89 77.01 89 76.02 89 75 C86.03 75 83.06 75 80 75 Z M55 76 C55 76.99 55 77.98 55 79 C57.97 79.33 60.94 79.66 64 80 C64 78.68 64 77.36 64 76 C61.03 76 58.06 76 55 76 Z M67 76 C67 77.32 67 78.64 67 80 C70.3 79.67 73.6 79.34 77 79 C77 78.01 77 77.02 77 76 C73.7 76 70.4 76 67 76 Z M32 79 C31.67 79.99 31.34 80.98 31 82 C34.3 82.33 37.6 82.66 41 83 C41 82.01 41 81.02 41 80 C38.03 79.67 35.06 79.34 32 79 Z M43 80 C43 80.99 43 81.98 43 83 C46.3 83.33 49.6 83.66 53 84 C52.67 83.01 52.34 82.02 52 81 C49.03 80.67 46.06 80.34 43 80 Z M91 80 C91 80.99 91 81.98 91 83 C95.455 82.505 95.455 82.505 100 82 C100 81.01 100 80.02 100 79 C96.72724974 79 94.153368 79.29925156 91 80 Z M55 81 C54.67 82.32 54.34 83.64 54 85 C57.3 85 60.6 85 64 85 C64 84.01 64 83.02 64 82 C61.03 81.67 58.06 81.34 55 81 Z M79 81 C79 81.99 79 82.98 79 84 C83.455 83.505 83.455 83.505 88 83 C88.33 82.01 88.66 81.02 89 80 C85.49064814 80 82.43515002 80.37542727 79 81 Z M68 82 C68 82.99 68 83.98 68 85 C70.97 85 73.94 85 77 85 C77 83.68 77 82.36 77 81 C73.88772805 81 71.05847848 81.45627049 68 82 Z M31 84 C31 85.32 31 86.64 31 88 C34.3 88.33 37.6 88.66 41 89 C41 87.68 41 86.36 41 85 C37.7 84.67 34.4 84.34 31 84 Z M43 86 C43 86.99 43 87.98 43 89 C45.97 89 48.94 89 52 89 C52 88.01 52 87.02 52 86 C49.03 86 46.06 86 43 86 Z M79 86 C79.33 87.32 79.66 88.64 80 90 C84.455 89.505 84.455 89.505 89 89 C89 88.01 89 87.02 89 86 C85.7 86 82.4 86 79 86 Z M55 87 C55 87.99 55 88.98 55 90 C57.95664519 91.4783226 60.74229737 91.06032783 64 91 C64 90.01 64 89.02 64 88 C61.03 87.67 58.06 87.34 55 87 Z M67 88 C67 88.99 67 89.98 67 91 C72.08303686 91.11320856 72.08303686 91.11320856 77 90 C77 89.01 77 88.02 77 87 C71.91696314 86.88679144 71.91696314 86.88679144 67 88 Z " fill="#BCC0CB" transform="translate(134,58)"/>
<path d="M0 0 C7.9497937 0.42070076 15.75634352 1.3199857 23.625 2.5 C24.50188477 2.63059814 25.37876953 2.76119629 26.28222656 2.89575195 C29.65424922 3.41429731 32.75479028 3.91826343 36 5 C36 32.72 36 60.44 36 89 C23.99730115 90.80040483 12.04446502 92.57014033 0 94 C0 91.36 0 88.72 0 86 C5.94 85.505 5.94 85.505 12 85 C12 83.35 12 81.7 12 80 C15.67410785 78.82428549 19.16929183 78.92633254 23 79 C23 77.35 23 75.7 23 74 C17.555 74.495 17.555 74.495 12 75 C12 73.02 12 71.04 12 69 C6.06 69.495 6.06 69.495 0 70 C0 66.37 0 62.74 0 59 C0.33 60.32 0.66 61.64 1 63 C4.63 63 8.26 63 12 63 C12 61.35 12 59.7 12 58 C17.445 57.505 17.445 57.505 23 57 C23 55.68 23 54.36 23 53 C19.37 53 15.74 53 12 53 C12 51.02 12 49.04 12 47 C8.04 47 4.08 47 0 47 C0 45.02 0 43.04 0 41 C3.96 41 7.92 41 12 41 C12 39.35 12 37.7 12 36 C15.63 36 19.26 36 23 36 C23 34.35 23 32.7 23 31 C22.37351562 31.01160156 21.74703125 31.02320312 21.1015625 31.03515625 C20.28429687 31.04417969 19.46703125 31.05320312 18.625 31.0625 C17.81289063 31.07410156 17.00078125 31.08570312 16.1640625 31.09765625 C14 31 14 31 12 30 C12 28.35 12 26.7 12 25 C10.4221875 25.0309375 10.4221875 25.0309375 8.8125 25.0625 C5.67295096 25.01103198 3.03116604 24.73482813 0 24 C0 21.69 0 19.38 0 17 C5.94 17.99 5.94 17.99 12 19 C12 17.35 12 15.7 12 14 C15.63 14 19.26 14 23 14 C23 12.68 23 11.36 23 10 C22.37351562 9.93941406 21.74703125 9.87882812 21.1015625 9.81640625 C20.28429687 9.73261719 19.46703125 9.64882812 18.625 9.5625 C17.81289063 9.48128906 17.00078125 9.40007812 16.1640625 9.31640625 C14 9 14 9 12 8 C12 6.35 12 4.7 12 3 C11.38511719 2.95101562 10.77023437 2.90203125 10.13671875 2.8515625 C9.32847656 2.77679688 8.52023437 2.70203125 7.6875 2.625 C6.88699219 2.55539063 6.08648437 2.48578125 5.26171875 2.4140625 C3 2 3 2 0 0 Z " fill="#EE8702" transform="translate(272,58)"/>
<path d="M0 0 C4.29 0.99 8.58 1.98 13 3 C13 4.65 13 6.3 13 8 C16.63 8.66 20.26 9.32 24 10 C24 11.32 24 12.64 24 14 C20.37 14 16.74 14 13 14 C13 15.65 13 17.3 13 19 C9.37 18.67 5.74 18.34 2 18 C1.67 19.98 1.34 21.96 1 24 C4.96 24.33 8.92 24.66 13 25 C13 26.65 13 28.3 13 30 C16.63 30.33 20.26 30.66 24 31 C24 32.65 24 34.3 24 36 C20.37 36 16.74 36 13 36 C13 37.65 13 39.3 13 41 C9.04 41 5.08 41 1 41 C1 42.98 1 44.96 1 47 C4.96 47 8.92 47 13 47 C13 48.98 13 50.96 13 53 C16.63 53 20.26 53 24 53 C24 54.32 24 55.64 24 57 C20.32589215 58.17571451 16.83070817 58.07366746 13 58 C13 59.65 13 61.3 13 63 C9.37 63 5.74 63 2 63 C1.67 65.31 1.34 67.62 1 70 C6.94 69.505 6.94 69.505 13 69 C13.33 70.65 13.66 72.3 14 74 C17.3 74 20.6 74 24 74 C24 75.65 24 77.3 24 79 C18.555 79.495 18.555 79.495 13 80 C13 81.65 13 83.3 13 85 C8.9472484 85.98248524 5.16138263 86.08159574 1 86 C1 88.31 1 90.62 1 93 C0.67 93 0.34 93 0 93 C0 62.31 0 31.62 0 0 Z " fill="#CF7E12" transform="translate(271,58)"/>
<path d="M0 0 C3.66666667 0 7.33333333 0 11 0 C12.299375 -0.04125 13.59875 -0.0825 14.9375 -0.125 C18.25309837 -0.14924569 20.04307368 0.52153684 23 2 C24.34246312 1.35191436 25.67432801 0.68177416 27 0 C30.4375 -0.4375 30.4375 -0.4375 34 0 C37.15954305 2.54137159 38.71540886 4.14622659 40 8 C40.0806622 9.48123547 40.10761193 10.96582204 40.09765625 12.44921875 C40.09443359 13.29677734 40.09121094 14.14433594 40.08789062 15.01757812 C40.07532227 16.33918945 40.07532227 16.33918945 40.0625 17.6875 C40.05798828 18.58017578 40.05347656 19.47285156 40.04882812 20.39257812 C40.03705004 22.59508073 40.01911481 24.79754885 40 27 C37.03 27 34.06 27 31 27 C30.505 17.595 30.505 17.595 30 8 C28.35 8 26.7 8 25 8 C24.67 14.27 24.34 20.54 24 27 C21.03 27 18.06 27 15 27 C14.67 21.06 14.34 15.12 14 9 C13.34 8.67 12.68 8.34 12 8 C11.01 8.495 11.01 8.495 10 9 C9.67 14.94 9.34 20.88 9 27 C6.03 27 3.06 27 0 27 C0 18.09 0 9.18 0 0 Z " fill="#004089" transform="translate(696,167)"/>
<path d="M0 0 C3.17625 -0.061875 6.3525 -0.12375 9.625 -0.1875 C11.1092749 -0.22846802 11.1092749 -0.22846802 12.62353516 -0.27026367 C18.63234406 -0.32674429 23.02194798 0.28367702 27.64453125 4.5 C32.15422317 10.29171136 32.598021 14.85636732 32 22 C30.17600149 27.85599522 27.41845531 32.11822174 21.94921875 35.12890625 C17.68242874 36.38916343 13.60742822 36.2100348 9.1875 36.125 C6.155625 36.08375 3.12375 36.0425 0 36 C0 24.12 0 12.24 0 0 Z M9 7 C9 14.26 9 21.52 9 29 C17.32829387 28.85110229 17.32829387 28.85110229 20.5625 26.0625 C22.62318157 21.67235231 22.79837801 17.76678636 22 13 C20.20353146 10.06576805 19.0558929 8.52794645 16 7 C13.69 7 11.38 7 9 7 Z " fill="#00408A" transform="translate(401,112)"/>
<path d="M0 0 C3.031875 -0.061875 6.06375 -0.12375 9.1875 -0.1875 C10.60712036 -0.22846802 10.60712036 -0.22846802 12.05541992 -0.27026367 C16.88152781 -0.3179049 20.08168373 -0.1422614 24 3 C26 5 26 5 26.3125 8.9375 C26.25612142 11.76155426 26.23113287 12.69182284 24.5 15 C24.005 15.33 23.51 15.66 23 16 C23.66 16.639375 24.32 17.27875 25 17.9375 C27.34448426 21.52749153 27.64307506 23.64057544 27.4609375 27.84375 C26.71254118 31.3447226 24.79464909 32.92026114 22 35 C19.17588235 35.94137255 17.47081968 36.11725382 14.55078125 36.09765625 C13.78677002 36.09515869 13.02275879 36.09266113 12.2355957 36.09008789 C11.27097412 36.08098389 10.30635254 36.07187988 9.3125 36.0625 C4.7028125 36.0315625 4.7028125 36.0315625 0 36 C0 24.12 0 12.24 0 0 Z M9 7 C9 9.31 9 11.62 9 14 C12.465 13.505 12.465 13.505 16 13 C16.38218767 11.34385343 16.71395102 9.67542976 17 8 C15.81575674 6.58422523 15.81575674 6.58422523 12.4375 6.9375 C10.7359375 6.9684375 10.7359375 6.9684375 9 7 Z M9 21 C9 23.97 9 26.94 9 30 C14.01535052 29.67039784 14.01535052 29.67039784 18 27 C17.71016731 23.69316534 17.71016731 23.69316534 16 21 C13.66702567 20.95907063 11.33294775 20.95758277 9 21 Z " fill="#004089" transform="translate(475,112)"/>
<path d="M0 0 C4.764375 -0.1546875 4.764375 -0.1546875 9.625 -0.3125 C11.1092749 -0.38078003 11.1092749 -0.38078003 12.62353516 -0.45043945 C16.97338491 -0.51858446 20.10075094 -0.44968297 23.61328125 2.296875 C26 5 26 5 26.5625 8.5625 C25.99779494 12.01347538 25.38644019 13.5141248 23 16 C23.66 16.639375 24.32 17.27875 25 17.9375 C27.3352756 21.51339076 27.70213515 23.64875631 27.52734375 27.84375 C26.57743682 31.7278139 24.31518176 32.91988596 21 35 C14.35169194 37.21610269 7.00793201 36 0 36 C0 24.12 0 12.24 0 0 Z M10 6 C8.58422523 7.18424326 8.58422523 7.18424326 8.9375 10.5625 C8.958125 11.696875 8.97875 12.83125 9 14 C13.47883696 13.55296014 13.47883696 13.55296014 17 11 C16.6814823 8.89179203 16.6814823 8.89179203 16 7 C14.0085944 6.61866701 12.00720923 6.28674418 10 6 Z M9 20 C9 22.97 9 25.94 9 29 C13.18966713 29.34685528 13.18966713 29.34685528 16.9375 27.75 C18.17839873 26.04738219 18.17839873 26.04738219 18 23.9375 C17.11641538 21.77175855 17.11641538 21.77175855 14.625 20.75 C11.97424489 19.86263944 11.97424489 19.86263944 9 20 Z " fill="#01418A" transform="translate(376,158)"/>
<path d="M0 0 C0.87170276 3.91893718 1.03133015 7.09780373 0 11 C-3.31891218 14.54761927 -7.09433103 17.08965949 -11.13916016 19.74853516 C-14.15708775 21.77817264 -17.00735637 24.01554353 -19.875 26.25 C-20.41769531 26.66564209 -20.96039063 27.08128418 -21.51953125 27.50952148 C-24.49435772 29.79238939 -27.37556646 32.14490955 -30.1875 34.625 C-33 37 -33 37 -35 37 C-35 26.11 -35 15.22 -35 4 C-30.524375 3.34 -26.04875 2.68 -21.4375 2 C-19.34039673 1.68675781 -19.34039673 1.68675781 -17.20092773 1.3671875 C-16.08145752 1.20476563 -14.9619873 1.04234375 -13.80859375 0.875 C-12.67220459 0.70742188 -11.53581543 0.53984375 -10.36499023 0.3671875 C-6.88317638 -0.01274778 -3.49962556 -0.06225015 0 0 Z " fill="#EE8905" transform="translate(126,60)"/>
<path d="M0 0 C2.31 0 4.62 0 7 0 C7.33 0.66 7.66 1.32 8 2 C8.99 1.34 9.98 0.68 11 0 C19.2173913 -0.52173913 19.2173913 -0.52173913 23 2 C23.99 1.34 24.98 0.68 26 0 C32.83854552 -0.77209385 32.83854552 -0.77209385 36.73828125 1.8203125 C40.08892315 6.53088678 39.54645885 10.68668947 39.3125 16.3125 C39.28994141 17.33923828 39.26738281 18.36597656 39.24414062 19.42382812 C39.18537575 21.9507179 39.10327849 24.47460255 39 27 C36.36 27 33.72 27 31 27 C30.96261719 25.87980469 30.92523437 24.75960937 30.88671875 23.60546875 C30.82105743 22.1327791 30.75461014 20.66012434 30.6875 19.1875 C30.66494141 18.44951172 30.64238281 17.71152344 30.61914062 16.95117188 C30.44442045 12.66892961 30.44442045 12.66892961 28.45703125 8.98828125 C27.97621094 8.66214844 27.49539063 8.33601562 27 8 C26.01 8.495 26.01 8.495 25 9 C24.67 14.94 24.34 20.88 24 27 C21.03 27 18.06 27 15 27 C14.67 21.06 14.34 15.12 14 9 C12.68 9 11.36 9 10 9 C8.81304447 12.56086658 8.64904582 15.97331024 8.4375 19.6875 C8.39431641 20.38939453 8.35113281 21.09128906 8.30664062 21.81445312 C8.2008264 23.54275206 8.09993419 25.2713511 8 27 C5.36 27 2.72 27 0 27 C0 18.09 0 9.18 0 0 Z " fill="#004089" transform="translate(508,167)"/>
<path d="M0 0 C1.17755859 0.02707031 1.17755859 0.02707031 2.37890625 0.0546875 C3.05824219 0.07789063 3.73757813 0.10109375 4.4375 0.125 C5.0975 0.125 5.7575 0.125 6.4375 0.125 C9.10416667 0.125 11.77083333 0.125 14.4375 0.125 C14.5119389 4.1634057 14.56623729 8.20154293 14.60229492 12.24047852 C14.61733432 13.61294517 14.63777133 14.98536414 14.66381836 16.35766602 C14.70041221 18.33588656 14.71566698 20.31446514 14.73046875 22.29296875 C14.7461792 23.48172607 14.76188965 24.6704834 14.77807617 25.89526367 C14.30952815 30.3385768 12.7748051 32.95485803 9.4375 35.875 C4.98722091 38.65642443 0.5143279 38.50731804 -4.5625 38.125 C-7.625 37.125 -7.625 37.125 -9.5625 36.125 C-9.2325 33.815 -8.9025 31.505 -8.5625 29.125 C-7.87542969 29.22039062 -7.18835938 29.31578125 -6.48046875 29.4140625 C-5.57941406 29.52492187 -4.67835938 29.63578125 -3.75 29.75 C-2.85667969 29.86601562 -1.96335937 29.98203125 -1.04296875 30.1015625 C1.69440391 30.36000743 1.69440391 30.36000743 4.4375 28.125 C4.4375 27.465 4.4375 26.805 4.4375 26.125 C2.6121875 26.4653125 2.6121875 26.4653125 0.75 26.8125 C-2.32132599 27.19234597 -3.43491309 27.17887003 -6.375 25.9375 C-9.52575063 23.32687805 -11.35674917 21.45589275 -11.99609375 17.3203125 C-12.00419549 10.95234786 -11.96025071 6.89970077 -7.5625 2.125 C-4.38115917 0.00410612 -3.62846157 -0.10759853 0 0 Z M-1.25 8.1875 C-3.28512773 11.19173617 -2.94044588 13.59750511 -2.5625 17.125 C-1.47575006 19.21484231 -1.47575006 19.21484231 0.4375 20.125 C2.57495922 19.87353421 3.89675779 19.66574221 5.4375 18.125 C5.63691868 16.05727266 5.63691868 16.05727266 5.625 13.6875 C5.63917969 12.88441406 5.65335938 12.08132812 5.66796875 11.25390625 C5.63912356 8.90869367 5.63912356 8.90869367 3.4375 7.125 C0.52826108 6.85859337 0.52826108 6.85859337 -1.25 8.1875 Z " fill="#01418A" transform="translate(648.5625,166.875)"/>
<path d="M0 0 C2.64 0 5.28 0 8 0 C8.48108275 1.41601714 8.95978141 2.83284437 9.4375 4.25 C9.83775391 5.43335938 9.83775391 5.43335938 10.24609375 6.640625 C10.9153949 8.7352255 11.46667992 10.86671967 12 13 C13.32 8.71 14.64 4.42 16 0 C18.31 0 20.62 0 23 0 C23.50692692 1.5811292 24.00526443 3.16501383 24.5 4.75 C24.7784375 5.63171875 25.056875 6.5134375 25.34375 7.421875 C26 10 26 10 26 14 C26.66 14 27.32 14 28 14 C28.09087891 12.98679688 28.09087891 12.98679688 28.18359375 11.953125 C28.26738281 11.06109375 28.35117187 10.1690625 28.4375 9.25 C28.51871094 8.36828125 28.59992188 7.4865625 28.68359375 6.578125 C29 4 29 4 30 0 C32.97 0 35.94 0 39 0 C37.90833328 6.35151544 36.35551553 12.41936047 34.4375 18.5625 C34.10455933 19.63467773 34.10455933 19.63467773 33.76489258 20.72851562 C32.13087905 25.86912095 32.13087905 25.86912095 31 27 C28.32941149 27.14115161 25.67567762 27.04247107 23 27 C22.79503906 26.37351563 22.59007812 25.74703125 22.37890625 25.1015625 C22.10949219 24.28429687 21.84007812 23.46703125 21.5625 22.625 C21.29566406 21.81289062 21.02882813 21.00078125 20.75390625 20.1640625 C20.04820271 17.98968201 20.04820271 17.98968201 19 16 C18.01 19.63 17.02 23.26 16 27 C13.03 27 10.06 27 7 27 C5.82139224 23.44133896 4.65924408 19.87751124 3.5 16.3125 C3.16613281 15.30509766 2.83226562 14.29769531 2.48828125 13.25976562 C2.17246094 12.28330078 1.85664063 11.30683594 1.53125 10.30078125 C1.23798828 9.40528564 0.94472656 8.50979004 0.64257812 7.5871582 C-0.01140967 4.95406221 -0.11920064 2.70117163 0 0 Z " fill="#02428A" transform="translate(466,167)"/>
<path d="M0 0 C2.64 0 5.28 0 8 0 C8.33 0.66 8.66 1.32 9 2 C9.99 1.34 10.98 0.68 12 0 C18.97227645 -0.7871925 18.97227645 -0.7871925 22.9375 2.25 C25.71805605 5.95740807 26.13019926 8.77210364 26.09765625 13.328125 C26.09443359 14.12734375 26.09121094 14.9265625 26.08789062 15.75 C26.07951172 16.575 26.07113281 17.4 26.0625 18.25 C26.05798828 19.09046875 26.05347656 19.9309375 26.04882812 20.796875 C26.03707961 22.86461401 26.01914522 24.93231624 26 27 C23.03 27 20.06 27 17 27 C16.95101562 25.96359375 16.90203125 24.9271875 16.8515625 23.859375 C16.77650403 22.48955792 16.70095753 21.11976752 16.625 19.75 C16.5940625 19.06808594 16.563125 18.38617188 16.53125 17.68359375 C16.31740626 14.01260962 15.98922945 11.13748384 14 8 C12.02 8.99 12.02 8.99 10 10 C9.67 15.61 9.34 21.22 9 27 C6.03 27 3.06 27 0 27 C0 18.09 0 9.18 0 0 Z " fill="#004089" transform="translate(768,167)"/>
<path d="M0 0 C3.25900019 1.45614902 5.71264424 3.25517308 8 6 C9.74514755 11.23544264 9.64158066 16.17656022 7.8125 21.375 C4.98432118 25.47098313 2.41281462 26.65987796 -2.375 27.8125 C-8.09618665 28.10842345 -11.55942804 27.28398805 -15.875 23.4375 C-18.68828486 19.61813976 -19.26852575 15.67072059 -19 11 C-17.8148305 6.74733295 -16.62950355 4.59879606 -13.4375 1.5625 C-8.83954686 -0.5274787 -4.97427277 -0.69872728 0 0 Z M-7 7 C-9.41486943 9.41486943 -9.2961925 10.12707789 -9.3125 13.4375 C-9.32925781 14.21996094 -9.34601563 15.00242188 -9.36328125 15.80859375 C-8.91858518 18.49111522 -8.14993024 19.38233404 -6 21 C-3.88850355 21.07642709 -3.88850355 21.07642709 -2 20 C0.16561857 17.31875796 -0.00974512 15.85869577 -0.25 12.375 C-0.69481185 8.94727116 -0.69481185 8.94727116 -3 7 C-4.32 7 -5.64 7 -7 7 Z " fill="#01418A" transform="translate(425,167)"/>
<path d="M0 0 C2.97 0 5.94 0 9 0 C9.33 5.94 9.66 11.88 10 18 C11.32 18.33 12.64 18.66 14 19 C15.6498007 15.70039859 15.38258361 12.00872116 15.5625 8.375 C15.60568359 7.57320312 15.64886719 6.77140625 15.69335938 5.9453125 C15.79951457 3.9637489 15.90026855 1.98189729 16 0 C18.97 0 21.94 0 25 0 C25 8.91 25 17.82 25 27 C21.33333333 27 17.66666667 27 14 27 C13.22785156 27.05800781 12.45570313 27.11601562 11.66015625 27.17578125 C10.80292969 27.22089844 9.94570313 27.26601562 9.0625 27.3125 C7.78052734 27.39951172 7.78052734 27.39951172 6.47265625 27.48828125 C4 27 4 27 1.69921875 25.1875 C-0.84639652 20.41227687 -0.42691419 16.00513239 -0.25 10.6875 C-0.23195313 9.66076172 -0.21390625 8.63402344 -0.1953125 7.57617188 C-0.14831063 5.04982115 -0.08262272 2.52539531 0 0 Z " fill="#004089" transform="translate(438,167)"/>
<path d="M0 0 C4.845 3.8475 4.845 3.8475 6.125 7.6875 C6.6431822 12.62297304 6.63486551 16.56579589 4.5625 21.125 C1.11462355 24.74969063 -2.04333334 26.52470383 -7.1171875 26.81640625 C-11.23721307 26.58751594 -13.70117971 25.78863181 -17.3125 23.6875 C-20.61746486 19.81827285 -21.74348953 16.75887249 -21.875 11.6875 C-21.35428548 7.61941779 -20.37336186 4.18990058 -17.42578125 1.234375 C-12.08264112 -2.30280867 -5.77403331 -2.63597173 0 0 Z M-9.875 5.6875 C-12.40810053 9.48715079 -12.47718032 12.23136562 -11.875 16.6875 C-10.80781702 18.84315917 -10.80781702 18.84315917 -8.875 19.6875 C-6.77268759 19.68280794 -6.77268759 19.68280794 -4.875 18.6875 C-2.54920899 15.19881349 -2.45634543 13.79031481 -2.875 9.6875 C-3.9825902 7.26465762 -3.9825902 7.26465762 -5.875 5.6875 C-7.195 5.6875 -8.515 5.6875 -9.875 5.6875 Z " fill="#02428A" transform="translate(526.875,122.3125)"/>
<path d="M0 0 C2.64 0 5.28 0 8 0 C8 0.66 8 1.32 8 2 C8.495 1.67 8.99 1.34 9.5 1 C13.02461484 -0.40984593 16.25422662 -0.64608822 20 0 C22.43119623 1.87015094 23.64069173 3.28138345 25 6 C25.08400529 7.59447464 25.10727467 9.19240545 25.09765625 10.7890625 C25.09443359 11.73007813 25.09121094 12.67109375 25.08789062 13.640625 C25.07951172 14.62546875 25.07113281 15.6103125 25.0625 16.625 C25.05798828 17.61757812 25.05347656 18.61015625 25.04882812 19.6328125 C25.03702145 22.0886016 25.020554 24.54427104 25 27 C22.03 27 19.06 27 16 27 C15.67 21.06 15.34 15.12 15 9 C13.35 8.67 11.7 8.34 10 8 C9.67 14.27 9.34 20.54 9 27 C6.03 27 3.06 27 0 27 C0 18.09 0 9.18 0 0 Z " fill="#003F89" transform="translate(580,167)"/>
<path d="M0 0 C3.63467079 1.62400184 4.77408696 2.66113044 7 6 C7.44921875 8.4453125 7.44921875 8.4453125 7.6875 11.125 C7.77386719 12.01445312 7.86023438 12.90390625 7.94921875 13.8203125 C7.97435547 14.89925781 7.97435547 14.89925781 8 16 C7 17 7 17 3.62109375 17.09765625 C2.22652923 17.09098369 0.83198257 17.07902532 -0.5625 17.0625 C-1.27341797 17.05798828 -1.98433594 17.05347656 -2.71679688 17.04882812 C-4.47790013 17.03700864 -6.23896036 17.01907263 -8 17 C-8 17.66 -8 18.32 -8 19 C-3.71 19 0.58 19 5 19 C5.33 21.31 5.66 23.62 6 26 C3.07539571 27.46230215 0.44347176 27.20908727 -2.8125 27.25 C-4.64748047 27.28867188 -4.64748047 27.28867188 -6.51953125 27.328125 C-10.25352493 26.97609866 -12.05701532 26.27484762 -15 24 C-18.07534363 18.97693874 -18.38954927 15.10813503 -17.578125 9.3046875 C-16.76686438 6.07060802 -15.44685893 4.23712816 -13 2 C-8.74404273 -0.53032753 -4.83808579 -0.57020297 0 0 Z M-7.6875 7.4375 C-9.10719868 8.7875169 -9.10719868 8.7875169 -9 10 C-6.36 10 -3.72 10 -1 10 C-1.66 8.68 -2.32 7.36 -3 6 C-5.9888398 5.67576677 -5.9888398 5.67576677 -7.6875 7.4375 Z " fill="#03438A" transform="translate(757,167)"/>
<path d="M0 0 C2.82236377 2.64027579 3.81544976 5.11761002 4.0949707 8.99926758 C4.13415369 11.54413927 4.11183728 14.08033496 4.0625 16.625 C4.05347656 17.50865234 4.04445313 18.39230469 4.03515625 19.30273438 C4.01169637 21.47277359 3.97582865 23.64267247 3.9375 25.8125 C0.60416667 25.8125 -2.72916667 25.8125 -6.0625 25.8125 C-6.80242188 25.85890625 -7.54234375 25.9053125 -8.3046875 25.953125 C-15.30731328 26.24403527 -15.30731328 26.24403527 -18.6875 24.3125 C-20.62341667 20.79265151 -20.92235824 17.67418478 -20.0625 13.8125 C-17.35554262 9.79572453 -14.82792291 8.5470013 -10.25 7.5 C-8.85732492 7.25236283 -7.46218739 7.01681167 -6.0625 6.8125 C-10.04446457 5.75845055 -13.04445309 5.97151344 -17.0625 6.8125 C-17.3925 4.8325 -17.7225 2.8525 -18.0625 0.8125 C-12.60505099 -2.41060518 -5.81576428 -2.25509227 0 0 Z M-11.0625 15.8125 C-10.7325 17.1325 -10.4025 18.4525 -10.0625 19.8125 C-8.7425 19.4825 -7.4225 19.1525 -6.0625 18.8125 C-5.7325 17.1625 -5.4025 15.5125 -5.0625 13.8125 C-8.24740007 13.5351499 -8.24740007 13.5351499 -11.0625 15.8125 Z " fill="#01418A" transform="translate(629.0625,168.1875)"/>
<path d="M0 0 C2.82236377 2.64027579 3.81544976 5.11761002 4.0949707 8.99926758 C4.13415369 11.54413927 4.11183728 14.08033496 4.0625 16.625 C4.05347656 17.50865234 4.04445313 18.39230469 4.03515625 19.30273438 C4.01169637 21.47277359 3.97582865 23.64267247 3.9375 25.8125 C0.60416667 25.8125 -2.72916667 25.8125 -6.0625 25.8125 C-6.80242188 25.85890625 -7.54234375 25.9053125 -8.3046875 25.953125 C-15.30731328 26.24403527 -15.30731328 26.24403527 -18.6875 24.3125 C-20.62341667 20.79265151 -20.92235824 17.67418478 -20.0625 13.8125 C-17.35554262 9.79572453 -14.82792291 8.5470013 -10.25 7.5 C-8.85732492 7.25236283 -7.46218739 7.01681167 -6.0625 6.8125 C-10.04446457 5.75845055 -13.04445309 5.97151344 -17.0625 6.8125 C-17.3925 4.8325 -17.7225 2.8525 -18.0625 0.8125 C-12.60505099 -2.41060518 -5.81576428 -2.25509227 0 0 Z M-11.0625 15.8125 C-10.7325 17.1325 -10.4025 18.4525 -10.0625 19.8125 C-8.7425 19.4825 -7.4225 19.1525 -6.0625 18.8125 C-5.7325 17.1625 -5.4025 15.5125 -5.0625 13.8125 C-8.24740007 13.5351499 -8.24740007 13.5351499 -11.0625 15.8125 Z " fill="#02418A" transform="translate(571.0625,168.1875)"/>
<path d="M0 0 C2.83537596 2.43032225 3.92482323 4.35279636 5.1875 7.875 C5.1875 10.515 5.1875 13.155 5.1875 15.875 C-0.0925 15.875 -5.3725 15.875 -10.8125 15.875 C-10.8125 16.535 -10.8125 17.195 -10.8125 17.875 C-6.08866037 18.52656409 -1.59275483 18.99450637 3.1875 18.875 C3.5175 20.855 3.8475 22.835 4.1875 24.875 C-1.62064538 27.02148851 -6.75846603 27.44825225 -12.8125 25.875 C-15.8681759 24.11305785 -18.20878577 22.08242846 -19.8125 18.875 C-20.39823029 13.98897136 -20.95119133 9.00824451 -18.578125 4.5625 C-13.61504096 -1.33423352 -7.25333274 -2.90133309 0 0 Z M-10.8125 6.875 C-10.8125 7.535 -10.8125 8.195 -10.8125 8.875 C-8.5025 8.875 -6.1925 8.875 -3.8125 8.875 C-4.4725 7.555 -5.1325 6.235 -5.8125 4.875 C-8.13607511 4.69009993 -8.13607511 4.69009993 -10.8125 6.875 Z " fill="#01418A" transform="translate(555.8125,122.125)"/>
<path d="M0 0 C3.40766001 1.70383 5.38497834 2.99360092 7.375 6.25 C8 9 8 9 8 17 C2.72 17 -2.56 17 -8 17 C-8 17.66 -8 18.32 -8 19 C-3.27616037 19.65156409 1.21974517 20.11950637 6 20 C6 21.98 6 23.96 6 26 C0.58884428 28.42078019 -4.32668841 28.45280913 -10 27 C-13.05689458 25.24090171 -15.39661704 23.20676592 -17 20 C-17.14851844 18.06640414 -17.22130833 16.12657903 -17.25 14.1875 C-17.27578125 13.14980469 -17.3015625 12.11210937 -17.328125 11.04296875 C-16.95494361 7.58215561 -16.06144752 5.77783708 -14 3 C-9.50278507 -0.03300542 -5.29691527 -0.94964616 0 0 Z M-5 6 C-5.99 6.66 -6.98 7.32 -8 8 C-8 8.66 -8 9.32 -8 10 C-5.69 10 -3.38 10 -1 10 C-1.33 9.01 -1.66 8.02 -2 7 C-2.99 6.67 -3.98 6.34 -5 6 Z " fill="#02418A" transform="translate(453,121)"/>
<path d="M0 0 C0.845625 0.00386719 1.69125 0.00773438 2.5625 0.01171875 C6.23214394 0.4645434 8.32209075 1.53774657 10.75 4.3125 C12.59382046 8.7376691 12.19098131 12.53796718 12 17.3125 C7.05 17.6425 2.1 17.9725 -3 18.3125 C-1.91447634 19.62512571 -1.91447634 19.62512571 0.72265625 19.41015625 C1.82480469 19.39855469 2.92695312 19.38695312 4.0625 19.375 C5.16722656 19.36597656 6.27195312 19.35695312 7.41015625 19.34765625 C8.26480469 19.33605469 9.11945312 19.32445312 10 19.3125 C10.33 21.6225 10.66 23.9325 11 26.3125 C6.09742096 28.76378952 -2.0575342 28.27931019 -7.1875 26.59375 C-9.51802183 25.14882646 -10.92733098 23.4281098 -12.375 21.125 C-13.61232753 15.55702613 -13.91851006 11.08391225 -11.25 5.9375 C-7.74689351 1.85054242 -5.50253363 -0.10904411 0 0 Z M-4 8.3125 C-4 8.9725 -4 9.6325 -4 10.3125 C-1.36 10.3125 1.28 10.3125 4 10.3125 C3.67 9.3225 3.34 8.3325 3 7.3125 C-0.37104174 5.85171524 -0.78149208 6.16682805 -4 8.3125 Z " fill="#02418A" transform="translate(680,166.6875)"/>
<path d="M0 0 C1.51400391 0.01740234 1.51400391 0.01740234 3.05859375 0.03515625 C4.07050781 0.04417969 5.08242187 0.05320313 6.125 0.0625 C7.29869141 0.07990234 7.29869141 0.07990234 8.49609375 0.09765625 C8.49609375 1.74765625 8.49609375 3.39765625 8.49609375 5.09765625 C9.17671875 4.93265625 9.85734375 4.76765625 10.55859375 4.59765625 C13.91257595 4.02676566 17.0999918 4.03106602 20.49609375 4.09765625 C20.16609375 5.74765625 19.83609375 7.39765625 19.49609375 9.09765625 C16.19609375 9.42765625 12.89609375 9.75765625 9.49609375 10.09765625 C9.49609375 11.74765625 9.49609375 13.39765625 9.49609375 15.09765625 C3.55609375 15.59265625 3.55609375 15.59265625 -2.50390625 16.09765625 C-2.50390625 18.07765625 -2.50390625 20.05765625 -2.50390625 22.09765625 C1.12609375 21.76765625 4.75609375 21.43765625 8.49609375 21.09765625 C8.49609375 22.74765625 8.49609375 24.39765625 8.49609375 26.09765625 C4.86609375 26.09765625 1.23609375 26.09765625 -2.50390625 26.09765625 C-2.50390625 28.07765625 -2.50390625 30.05765625 -2.50390625 32.09765625 C1.12609375 32.09765625 4.75609375 32.09765625 8.49609375 32.09765625 C8.49609375 33.41765625 8.49609375 34.73765625 8.49609375 36.09765625 C4.86609375 36.09765625 1.23609375 36.09765625 -2.50390625 36.09765625 C-2.17390625 38.07765625 -1.84390625 40.05765625 -1.50390625 42.09765625 C1.79609375 42.09765625 5.09609375 42.09765625 8.49609375 42.09765625 C8.49609375 43.74765625 8.49609375 45.39765625 8.49609375 47.09765625 C4.86609375 47.09765625 1.23609375 47.09765625 -2.50390625 47.09765625 C-2.50390625 49.07765625 -2.50390625 51.05765625 -2.50390625 53.09765625 C1.12609375 53.09765625 4.75609375 53.09765625 8.49609375 53.09765625 C8.49609375 54.41765625 8.49609375 55.73765625 8.49609375 57.09765625 C4.86609375 57.09765625 1.23609375 57.09765625 -2.50390625 57.09765625 C-2.50390625 60.06765625 -2.50390625 63.03765625 -2.50390625 66.09765625 C-2.83390625 66.09765625 -3.16390625 66.09765625 -3.50390625 66.09765625 C-3.52703284 57.63998291 -3.54482295 49.18232269 -3.55571842 40.72462559 C-3.56094656 36.79776967 -3.56804294 32.87093531 -3.5793457 28.9440918 C-3.59017705 25.15751368 -3.59618361 21.37095635 -3.59878349 17.58436394 C-3.6006373 16.13661306 -3.60425706 14.68886337 -3.60963631 13.24112129 C-3.61684992 11.2200849 -3.61731433 9.19902777 -3.61743164 7.17797852 C-3.61965225 6.02548111 -3.62187286 4.8729837 -3.62416077 3.68556213 C-3.46469055 0.25372502 -3.4272832 0.13366939 0 0 Z " fill="#2D5A8F" transform="translate(238.50390625,62.90234375)"/>
<path d="M0 0 C0 1.98 0 3.96 0 6 C1.98 6 3.96 6 6 6 C6 8.31 6 10.62 6 13 C4.02 13 2.04 13 0 13 C0.14095064 14.6254308 0.28792087 16.25034051 0.4375 17.875 C0.51871094 18.77992188 0.59992187 19.68484375 0.68359375 20.6171875 C0.86989285 23.01110861 0.86989285 23.01110861 2 25 C4.02463255 25.65213292 4.02463255 25.65213292 6 26 C6 28.31 6 30.62 6 33 C4.23050905 33.10815225 2.45912513 33.18566083 0.6875 33.25 C-0.29863281 33.29640625 -1.28476562 33.3428125 -2.30078125 33.390625 C-5 33 -5 33 -6.84375 31.5 C-8.48744059 27.94607439 -8.31939345 24.57829189 -8.1875 20.75 C-8.16719727 19.63238281 -8.16719727 19.63238281 -8.14648438 18.4921875 C-8.11127204 16.66114584 -8.05746851 14.83047831 -8 13 C-9.32 13 -10.64 13 -12 13 C-12 10.69 -12 8.38 -12 6 C-10.68 6 -9.36 6 -8 6 C-8 4.35 -8 2.7 -8 1 C-5.10765685 0.17361624 -3.11257569 0 0 0 Z " fill="#004089" transform="translate(808,161)"/>
<path d="M0 0 C0.66 0.66 1.32 1.32 2 2 C3.31747324 2.69748583 4.64914193 3.36959957 6 4 C4.40207898 5.17520646 2.79643092 6.33991247 1.1875 7.5 C0.29417969 8.1496875 -0.59914062 8.799375 -1.51953125 9.46875 C-4 11 -4 11 -7 11 C-7 8.03 -7 5.06 -7 2 C-8.26275757 2.18175781 -8.26275757 2.18175781 -9.55102539 2.3671875 C-12.70201525 2.81835146 -15.85359066 3.26511168 -19.00561523 3.70898438 C-20.36458625 3.9012566 -21.723317 4.09523563 -23.08178711 4.29101562 C-25.04475461 4.57360221 -27.00870166 4.84935725 -28.97265625 5.125 C-30.15093994 5.29257812 -31.32922363 5.46015625 -32.54321289 5.6328125 C-36.05614396 6.00596373 -39.47012768 6.06306863 -43 6 C-42.96970703 6.82161621 -42.93941406 7.64323242 -42.90820312 8.48974609 C-42.3250251 24.72228211 -41.89508164 40.94373517 -41.875 57.1875 C-41.87250244 57.88244568 -41.87000488 58.57739136 -41.86743164 59.293396 C-41.83989781 68.57587703 -42.20899598 77.75029804 -43 87 C-43.33 87 -43.66 87 -44 87 C-44.82397067 76.61222379 -45.13720837 66.29877231 -45.09765625 55.87890625 C-45.09578435 54.39818877 -45.09436411 52.91747065 -45.09336853 51.43675232 C-45.08960402 47.59494222 -45.07982788 43.75317172 -45.06866455 39.91137695 C-45.0583177 35.9689182 -45.05384288 32.02645287 -45.04882812 28.08398438 C-45.03819823 20.38930513 -45.02119767 12.69465817 -45 5 C-37.91561688 3.17011565 -30.85979682 1.91120544 -23.625 0.8125 C-21.87316406 0.52729492 -21.87316406 0.52729492 -20.0859375 0.23632812 C-13.36712309 -0.78429895 -6.68983023 -1.67889174 0 0 Z " fill="#C0BAB9" transform="translate(134,58)"/>
<path d="M0 0 C0 2.97 0 5.94 0 9 C-1.98 9.66 -3.96 10.32 -6 11 C-6.33 16.28 -6.66 21.56 -7 27 C-9.97 27 -12.94 27 -16 27 C-16 18.42 -16 9.84 -16 1 C-13 1 -10 1 -7 1 C-4.53721199 -0.231394 -2.7204945 -0.07159196 0 0 Z " fill="#01418A" transform="translate(581,121)"/>
<path d="M0 0 C0.33 0 0.66 0 1 0 C1 1.65 1 3.3 1 5 C4.63 5.33 8.26 5.66 12 6 C12 7.65 12 9.3 12 11 C8.37 11 4.74 11 1 11 C1 12.65 1 14.3 1 16 C-2.96 16 -6.92 16 -11 16 C-11 12.04 -11 8.08 -11 4 C-7.37 4 -3.74 4 0 4 C0 2.68 0 1.36 0 0 Z " fill="#DA810D" transform="translate(283,83)"/>
<path d="M0 0 C-0.33 1.65 -0.66 3.3 -1 5 C-4.3 5.33 -7.6 5.66 -11 6 C-11 7.65 -11 9.3 -11 11 C-16.94 11.495 -16.94 11.495 -23 12 C-23 8.7 -23 5.4 -23 2 C-20.47980028 1.66114962 -17.95901484 1.32879665 -15.4375 1 C-14.73302734 0.90460938 -14.02855469 0.80921875 -13.30273438 0.7109375 C-8.82632145 0.13333583 -4.51338762 -0.09489383 0 0 Z " fill="#094284" transform="translate(259,67)"/>
<path d="M0 0 C0.99 0.495 0.99 0.495 2 1 C2 2.65 2 4.3 2 6 C5.3 6 8.6 6 12 6 C12.33 4.68 12.66 3.36 13 2 C13 3.65 13 5.3 13 7 C13.66 7.33 14.32 7.66 15 8 C14.34 8 13.68 8 13 8 C13 9.32 13 10.64 13 12 C18.445 12.495 18.445 12.495 24 13 C19.946772 15.026614 19.36328769 15.22721462 15.234375 14.5390625 C14.34492188 14.39726562 13.45546875 14.25546875 12.5390625 14.109375 C11.15847656 13.86960938 11.15847656 13.86960938 9.75 13.625 C8.81414062 13.47289062 7.87828125 13.32078125 6.9140625 13.1640625 C4.60747881 12.78747741 2.3034599 12.39524312 0 12 C0 8.04 0 4.08 0 0 Z " fill="#0E4685" transform="translate(235,135)"/>
<path d="M0 0 C0.33 0 0.66 0 1 0 C1 7.92 1 15.84 1 24 C4.63 24.33 8.26 24.66 12 25 C12 26.32 12 27.64 12 29 C8.37 29 4.74 29 1 29 C1 34.94 1 40.88 1 47 C0.67 47 0.34 47 0 47 C0 31.49 0 15.98 0 0 Z " fill="#82663E" transform="translate(271,58)"/>
<path d="M0 0 C0 1.65 0 3.3 0 5 C1.32 5.33 2.64 5.66 4 6 C4 6.33 4 6.66 4 7 C-1.28 7.66 -6.56 8.32 -12 9 C-12 6.36 -12 3.72 -12 1 C-7.95858806 0.36605303 -4.0934693 -0.12404452 0 0 Z " fill="#EB8704" transform="translate(284,143)"/>
<path d="M0 0 C0.33 1.32 0.66 2.64 1 4 C5.95 4 10.9 4 16 4 C14.68 4.33 13.36 4.66 12 5 C12 6.65 12 8.3 12 10 C6.06 10.495 6.06 10.495 0 11 C0 7.37 0 3.74 0 0 Z " fill="#E78505" transform="translate(272,117)"/>
<path d="M0 0 C5.94 0.99 5.94 0.99 12 2 C12.33 3.98 12.66 5.96 13 8 C8.48382401 8.07654536 4.40914783 8.10228696 0 7 C0 4.69 0 2.38 0 0 Z " fill="#EB8603" transform="translate(272,75)"/>
<path d="M0 0 C9.10714286 -0.26785714 9.10714286 -0.26785714 13 2 C11.40207898 3.17520646 9.79643092 4.33991247 8.1875 5.5 C6.84751953 6.47453125 6.84751953 6.47453125 5.48046875 7.46875 C3 9 3 9 0 9 C0 6.03 0 3.06 0 0 Z " fill="#ED8908" transform="translate(127,60)"/>
<path d="M0 0 C3.96 0 7.92 0 12 0 C12.33 1.98 12.66 3.96 13 6 C8.71 6 4.42 6 0 6 C0 4.02 0 2.04 0 0 Z " fill="#024088" transform="translate(236,110)"/>
<path d="M0 0 C3.96 0 7.92 0 12 0 C12 1.98 12 3.96 12 6 C8.04 6 4.08 6 0 6 C0 4.02 0 2.04 0 0 Z " fill="#F08801" transform="translate(272,99)"/>
<path d="M0 0 C3.96 0 7.92 0 12 0 C12 1.98 12 3.96 12 6 C8.04 6 4.08 6 0 6 C0 4.02 0 2.04 0 0 Z " fill="#014089" transform="translate(236,89)"/>
<path d="M0 0 C3.96 0.33 7.92 0.66 12 1 C12 2.98 12 4.96 12 7 C8.04 6.67 4.08 6.34 0 6 C0 4.02 0 2.04 0 0 Z " fill="#004089" transform="translate(236,120)"/>
<path d="M0 0 C3.63 0 7.26 0 11 0 C11 1.65 11 3.3 11 5 C7.37 5 3.74 5 0 5 C0 3.35 0 1.7 0 0 Z " fill="#1E4978" transform="translate(273,116)"/>
<path d="M0 0 C3.63 0 7.26 0 11 0 C11 1.65 11 3.3 11 5 C7.37 5 3.74 5 0 5 C0 3.35 0 1.7 0 0 Z " fill="#19477A" transform="translate(284,89)"/>
<path d="M0 0 C3.63 0 7.26 0 11 0 C11 1.65 11 3.3 11 5 C7.37 5 3.74 5 0 5 C0 3.35 0 1.7 0 0 Z " fill="#D57F0F" transform="translate(248,89)"/>
<path d="M0 0 C3.3 0 6.6 0 10 0 C10 1.65 10 3.3 10 5 C6.37 5 2.74 5 -1 5 C-0.67 3.35 -0.34 1.7 0 0 Z " fill="#19477A" transform="translate(285,132)"/>
<path d="M0 0 C3.3 0 6.6 0 10 0 C9.67 1.65 9.34 3.3 9 5 C5.7 5 2.4 5 -1 5 C-0.67 3.35 -0.34 1.7 0 0 Z " fill="#DA810D" transform="translate(249,78)"/>
<path d="M0 0 C3.3 0 6.6 0 10 0 C10.33 1.65 10.66 3.3 11 5 C7.7 5 4.4 5 1 5 C0.67 3.35 0.34 1.7 0 0 Z " fill="#14467D" transform="translate(284,78)"/>
<path d="M0 0 C0 1.65 0 3.3 0 5 C-3.63 5 -7.26 5 -11 5 C-11 3.68 -11 2.36 -11 1 C-7.32589215 -0.17571451 -3.83070817 -0.07366746 0 0 Z " fill="#14467E" transform="translate(295,121)"/>
<path d="M0 0 C3.3 0 6.6 0 10 0 C10 1.32 10 2.64 10 4 C6.32589215 5.17571451 2.83070817 5.07366746 -1 5 C-0.67 3.35 -0.34 1.7 0 0 Z " fill="#11457F" transform="translate(285,143)"/>
<path d="M0 0 C3.63 0.33 7.26 0.66 11 1 C11 2.32 11 3.64 11 5 C7.37 5 3.74 5 0 5 C0 3.35 0 1.7 0 0 Z " fill="#DF820A" transform="translate(248,132)"/>
<path d="M0 0 C3.3 0 6.6 0 10 0 C10 1.65 10 3.3 10 5 C6.7 5 3.4 5 0 5 C0 3.35 0 1.7 0 0 Z " fill="#064185" transform="translate(273,105)"/>
<path d="M0 0 C3.3 0 6.6 0 10 0 C10 1.65 10 3.3 10 5 C6.7 5 3.4 5 0 5 C0 3.35 0 1.7 0 0 Z " fill="#D7800E" transform="translate(237,105)"/>
<path d="M0 0 C3.3 0 6.6 0 10 0 C10 1.65 10 3.3 10 5 C6.7 5 3.4 5 0 5 C0 3.35 0 1.7 0 0 Z " fill="#0B4383" transform="translate(273,94)"/>
<path d="M0 0 C-0.33 1.65 -0.66 3.3 -1 5 C-4.3 5 -7.6 5 -11 5 C-11 3.68 -11 2.36 -11 1 C-7.32589215 -0.17571451 -3.83070817 -0.07366746 0 0 Z " fill="#DF830A" transform="translate(259,67)"/>
<path d="M0 0 C1.258125 -0.020625 2.51625 -0.04125 3.8125 -0.0625 C4.52019531 -0.07410156 5.22789062 -0.08570313 5.95703125 -0.09765625 C8 0 8 0 11 1 C11 2.32 11 3.64 11 5 C9.741875 5.020625 8.48375 5.04125 7.1875 5.0625 C6.47980469 5.07410156 5.77210938 5.08570313 5.04296875 5.09765625 C3 5 3 5 0 4 C0 2.68 0 1.36 0 0 Z " fill="#E28308" transform="translate(248,143)"/>
<path d="M0 0 C3.63 0.33 7.26 0.66 11 1 C11 2.32 11 3.64 11 5 C7.7 5 4.4 5 1 5 C0.67 3.35 0.34 1.7 0 0 Z " fill="#0D4382" transform="translate(284,67)"/>
<path d="M0 0 C6.625 -0.125 6.625 -0.125 10 1 C10 2.32 10 3.64 10 5 C6.7 5 3.4 5 0 5 C0 3.35 0 1.7 0 0 Z " fill="#0B4383" transform="translate(273,60)"/>
<path d="M0 0 C3.3 0 6.6 0 10 0 C10 1.32 10 2.64 10 4 C6.7 4.33 3.4 4.66 0 5 C0 3.35 0 1.7 0 0 Z " fill="#064186" transform="translate(273,139)"/>
<path d="M0 0 C3.3 0 6.6 0 10 0 C10 1.65 10 3.3 10 5 C6.7 4.67 3.4 4.34 0 4 C0 2.68 0 1.36 0 0 Z " fill="#DE820A" transform="translate(237,126)"/>
<path d="M0 0 C0 1.65 0 3.3 0 5 C-3.3 5 -6.6 5 -10 5 C-10 3.68 -10 2.36 -10 1 C-6.59437148 0.22157062 -3.49234244 -0.09978121 0 0 Z " fill="#E08309" transform="translate(247,63)"/>
<path d="M0 0 C3.3 0.33 6.6 0.66 10 1 C10 2.32 10 3.64 10 5 C6.7 5 3.4 5 0 5 C0 3.35 0 1.7 0 0 Z " fill="#E18308" transform="translate(237,136)"/>
<path d="M0 0 C3.63 0 7.26 0 11 0 C11 1.32 11 2.64 11 4 C7.37 4 3.74 4 0 4 C0 2.68 0 1.36 0 0 Z " fill="#E88505" transform="translate(248,122)"/>
<path d="M0 0 C3.63 0 7.26 0 11 0 C11 1.32 11 2.64 11 4 C7.37 4 3.74 4 0 4 C0 2.68 0 1.36 0 0 Z " fill="#044187" transform="translate(284,111)"/>
<path d="M0 0 C3.63 0 7.26 0 11 0 C11 1.32 11 2.64 11 4 C7.37 4 3.74 4 0 4 C0 2.68 0 1.36 0 0 Z " fill="#EA8604" transform="translate(248,111)"/>
<path d="M0 0 C3.63 0 7.26 0 11 0 C11 1.32 11 2.64 11 4 C7.37 4 3.74 4 0 4 C0 2.68 0 1.36 0 0 Z " fill="#044186" transform="translate(284,100)"/>
<path d="M0 0 C3.63 0 7.26 0 11 0 C11 1.32 11 2.64 11 4 C7.37 4 3.74 4 0 4 C0 2.68 0 1.36 0 0 Z " fill="#EA8604" transform="translate(248,100)"/>
<path d="M0 0 C3.3 0.33 6.6 0.66 10 1 C10 2.32 10 3.64 10 5 C6.7 5 3.4 5 0 5 C0 3.35 0 1.7 0 0 Z " fill="#034087" transform="translate(273,71)"/>
<path d="M0 0 C-3.66475683 2.44317122 -6.74028297 2.5150334 -11 2.75 C-11.72445312 2.80542969 -12.44890625 2.86085937 -13.1953125 2.91796875 C-17.07844366 3.15439555 -18.67674304 3.21550464 -22 1 C-14.38459684 -0.5832711 -7.70185475 -1.26092312 0 0 Z " fill="#C7B3A1" transform="translate(134,58)"/>
<path d="M0 0 C0 1.65 0 3.3 0 5 C-3.3 5 -6.6 5 -10 5 C-10 3.68 -10 2.36 -10 1 C-3.375 0 -3.375 0 0 0 Z " fill="#E78505" transform="translate(247,84)"/>
<path d="M0 0 C3.3 0 6.6 0 10 0 C10 1.32 10 2.64 10 4 C6.7 4.33 3.4 4.66 0 5 C0 3.35 0 1.7 0 0 Z " fill="#E48407" transform="translate(237,74)"/>
<path d="M0 0 C3.3 0 6.6 0 10 0 C10 1.32 10 2.64 10 4 C6.7 4.33 3.4 4.66 0 5 C0 3.35 0 1.7 0 0 Z " fill="#024088" transform="translate(273,128)"/>
<path d="M0 0 C3.3 0 6.6 0 10 0 C10 1.32 10 2.64 10 4 C6.7 4 3.4 4 0 4 C0 2.68 0 1.36 0 0 Z " fill="#EF8701" transform="translate(237,116)"/>
<path d="M0 0 C3.3 0 6.6 0 10 0 C10 1.32 10 2.64 10 4 C6.7 4 3.4 4 0 4 C0 2.68 0 1.36 0 0 Z " fill="#EE8701" transform="translate(237,95)"/>
<path d="M0 0 C3.3 0 6.6 0 10 0 C10 1.32 10 2.64 10 4 C6.7 4 3.4 4 0 4 C0 2.68 0 1.36 0 0 Z " fill="#004089" transform="translate(273,83)"/>
</svg>
