<?xml version="1.0" encoding="utf-8"?>
<!-- Generator: Adobe Illustrator 23.0.1, SVG Export Plug-In . SVG Version: 6.00 Build 0)  -->
<svg version="1.1" id="Layer_1" xmlns="http://www.w3.org/2000/svg" xmlns:xlink="http://www.w3.org/1999/xlink" x="0px" y="0px"
	 viewBox="0 0 215 51" style="enable-background:new 0 0 215 51;" xml:space="preserve">
<style type="text/css">
	.st0{fill:#231F20;}
</style>
<g transform="translate(0 .83)">
	<path class="st0" d="M64.5,12.6C45.5,1,19.8-5,0,5.2l33.3,17.5C21.7,22.9,10.1,24.6,0,27.4l40.7,10.3l23.8-10.3
		c-5.7-2-11.9-3.3-18.4-4L64.5,12.6z M0,49.5l40.9-1.9l23.6-5.4C45.2,38,11.2,46.4,0,49.5z"/>
	<g transform="translate(78.61 20.91)">
		<path class="st0" d="M4.8,12.5c0.1-1.7,0.9-3.1,2.7-3.1c1.9,0,2.7,1.4,2.7,3.1H4.8L4.8,12.5z M14.6,15.4v-0.9
			c0-4.4-1.9-8.3-7.1-8.3C3.1,6.1,0,9,0,13.9s3.5,7.7,8.2,7.7c1.8,0,3.6-0.3,5.1-0.9V17c-1.4,0.8-3,1.1-4.3,1.1
			c-2.4,0-3.9-0.8-4.1-2.8H14.6z M21.3,12.5c0.1-1.7,0.9-3.1,2.7-3.1c1.9,0,2.7,1.4,2.7,3.1H21.3L21.3,12.5z M31,15.4v-0.9
			c0-4.4-1.9-8.3-7.1-8.3c-4.4,0-7.5,2.8-7.5,7.7s3.5,7.7,8.2,7.7c1.8,0,3.6-0.3,5.1-0.9V17c-1.5,0.8-3,1.1-4.3,1.1
			c-2.4,0-3.9-0.8-4.1-2.8H31z"/>
		<polygon class="st0" points="33.6,0 38.4,0 38.4,12.7 38.5,12.7 42.5,6.5 47.8,6.5 43,13.3 48.2,21.3 42.4,21.3 38.5,13.9 
			38.4,13.9 38.4,21.3 33.6,21.3 33.6,0 		"/>
		<path class="st0" d="M53.6,12.5c0.1-1.7,0.9-3.1,2.7-3.1c1.9,0,2.7,1.4,2.7,3.1H53.6L53.6,12.5z M63.3,15.4v-0.9
			c0-4.4-1.9-8.3-7.1-8.3c-4.4,0-7.5,2.8-7.5,7.7s3.5,7.7,8.2,7.7c1.8,0,3.6-0.3,5.1-0.9V17c-1.5,0.8-3,1.1-4.3,1.1
			c-2.4,0-3.9-0.8-4.1-2.8H63.3z"/>
		<polygon class="st0" points="65.8,0 70.7,0 70.7,21.3 65.8,21.3 		"/>
		<path class="st0" d="M74,17.2c1.1,0.5,2.8,1,4.5,1c1,0,2-0.2,2-1.2c0-2.5-6.9-0.7-6.9-6.1c0-3.4,3.2-4.8,6-4.8
			c1.7,0,3.4,0.2,4.9,0.8l-0.4,3.5c-1-0.6-2.6-1-3.8-1c-1.1,0-2.2,0.2-2.2,1c0,2.3,7.2,0.5,7.2,6.1c0,3.9-3.4,4.9-6.5,4.9
			c-2.2,0-3.7-0.2-5.1-0.7L74,17.2z"/>
	</g>
	<polygon class="st0" points="173.4,45.1 173.4,23.7 176,23.7 176,45.1 	"/>
	<g transform="translate(183.87 27.47)">
		<polygon class="st0" points="6.7,2.6 6.7,14.6 3.8,14.6 3.8,2.6 0,2.6 0,0 10.5,0 10.5,2.6 		"/>
		<path class="st0" d="M19,14.6h-6.1V0h5.9c2.9,0,4.5,1.6,4.5,4.1c0,1.6-1.1,2.7-1.8,3c0.9,0.4,2,1.3,2,3.3
			C23.5,13.2,21.6,14.6,19,14.6z M18.5,2.6h-2.8v3.4h2.8c1.2,0,1.9-0.7,1.9-1.7C20.4,3.2,19.7,2.6,18.5,2.6z M18.7,8.5h-3v3.6h3
			c1.3,0,1.9-0.8,1.9-1.8S20,8.5,18.7,8.5z"/>
		<polygon class="st0" points="27.5,14.6 27.5,0 30.4,0 30.4,14.6 		"/>
	</g>
</g>
</svg>
