<?xml version="1.0" encoding="utf-8"?>
<!-- Generator: Adobe Illustrator 25.0.0, SVG Export Plug-In . SVG Version: 6.00 Build 0)  -->
<svg version="1.1" id="Layer_1" xmlns="http://www.w3.org/2000/svg" xmlns:xlink="http://www.w3.org/1999/xlink" x="0px" y="0px"
	 viewBox="0 0 595 580.8" style="enable-background:new 0 0 595 580.8;" xml:space="preserve">
<path d="M462.5,323.8c0.5,14.2-0.9,27.3-3.3,40.3c-1.7,9.1-3.9,18.2-6.7,27c-1.3,4.2-3,8.4-4.1,12.7c-0.5,2-1.5,3.3-4,3
	c-1.6-0.2-3.3,0-4.9,0.1c-3.8,0-4-0.2-2.5-3.9c1.1-2.7,2.1-5.4,3.2-8.2c3.3-8.2,5.4-16.7,7-25.5c1.7-8.9,2.5-18,2.4-27.1
	c-0.2-8.8-1-17.6-2.3-26.3c-1.3-8.5-3.2-16.8-5.7-25c-2.3-7.3-5.3-14.3-8.9-21.1c-5.1-9.9-11.3-19.3-18.5-27.9
	c-8-9.6-17.1-18.2-27.1-25.8c-8.8-6.6-18.3-12.2-28.3-16.7c-9.1-4-18.6-7.1-28.3-9.3c-22.1-5.1-45-5.1-67.1,0
	c-10.9,2.5-21.5,6.2-31.5,11c-27.6,13.3-50.6,34.4-66.2,60.8c-5.3,8.9-9.6,18.4-12.8,28.2c-1.7,5.1-3.4,10.3-4.6,15.5
	c-2.1,9.1-3.4,18.4-3.8,27.8c-0.5,13.6,0.1,27.2,3.2,40.5c2.1,9.1,4.5,18,8.3,26.5c0.2,0.6,0.4,1.3,0.5,1.9c0.5,1.6,2.3,3.4,1.2,4.7
	c-0.8,1-3.1,0-4.7,0c-5.6-0.2-5.4-0.3-7.1-5.7c-1.1-3.6-2.4-7.2-3.6-10.8c-3.2-9.5-5.6-19.2-7.3-29c-2.2-12.6-3-25.3-3-38.1
	c0.1-12.6,1.2-25.3,3.3-37.7c1.8-10.3,4.2-20.5,7.4-30.4c2.2-6.9,4.8-13.7,7.9-20.4c3.2-7.2,6.9-14.3,10.8-21.1
	c5.3-8.9,11.3-17.4,18-25.3c6.6-7.8,13.8-15,21.7-21.5c8.3-7,17.3-13.1,26.9-18.3c7.2-4,14.7-7.3,22.5-10c8.2-2.8,16.6-4.8,25.2-6
	c9.8-1.4,19.6-1.5,29.5-1.3c9.2,0.2,18.1,1.7,26.9,3.9c7.8,1.9,15.4,4.5,22.7,7.9c7.9,3.6,15.6,7.8,23,12.5
	c12.9,8.3,24.2,18.4,34.3,29.9c7.5,8.4,14.1,17.4,19.9,27c4.9,8.1,9.3,16.6,13,25.3c2.3,5.3,4.4,10.7,6.2,16.1
	c2.3,7.1,4.3,14.3,5.9,21.6c1,4.6,1.9,9.2,2.6,13.8C461.9,301.2,463.2,312.9,462.5,323.8z"/>
<path d="M394,370.2c3.9,4.4,7.1,9.3,10.6,14c5.3,7.2,10.4,14.5,15.5,21.8c0.2,0.3,0.3,0.6,0.4,0.9c-8.1,0-16.1,0-24.1,0
	c-2.9,0-6,0.6-8.6-0.3c-2.4-0.9-3.2-4.2-4.8-6.3c-7-9.3-13.8-18.9-20.6-28.4c-7-9.7-13.9-19.5-20.8-29.3c-0.9-1.3-1.2-1-2.3-0.3
	c-4,2.6-6.6,6.7-10.2,9.7c-8.5,7-6.5,3.9-6.6,14.7c-0.1,12.8-0.1,25.5,0,38.3c0,1.9-0.4,2.6-2.5,2.6c-6.9-0.1-13.8-0.1-20.7,0.1
	c-2.2,0.1-2.7-0.6-2.7-2.7c0-29.1,0-58.2-0.1-87.3v-2.7l-0.7-0.2c-0.9,2.3-1.9,4.5-2.7,6.8c-1.5,4.2-2.8,8.4-4.2,12.6
	c-2.1,6.1-4.1,12.2-6.2,18.3c-1.9,5.7-3.9,11.5-5.9,17.2c-2.1,6.3-4.2,12.6-6.3,18.8c-1.4,4.2-2.8,8.4-4.2,12.7
	c-0.2,0.5-0.5,1.1-0.6,1.6c-1.5,4.9-1.5,4.9-6.5,4.9c-5.9,0-11.7,0-17.6,0c-1.3,0-1.8-0.2-2.3-1.7c-1.8-6-4.1-11.8-6.1-17.7
	c-2-6-4-12-6-18c-1.9-5.7-4-11.4-6-17.2c-2.1-6.1-4-12.2-6.1-18.3c-1.3-3.8-2.6-7.5-3.9-11.2c-1.1-3.2-2.3-6.4-3.7-9.5
	c0,8.3,0,16.6,0,25c-0.1,21.9-0.3,43.7-0.3,65.6c0,2.1-0.4,3-2.7,2.9c-6.3-0.1-12.7-0.1-19,0c-2.4,0.1-3-0.8-3-3.1
	c0.1-40.2,0.1-80.4,0-120.7c0-5.8,0-11.5-0.1-17.3c0-1.6,0.1-2.3,2.1-2.3c9.6,0.1,19.2,0,28.8-0.2c1.9,0,2.7,0.6,3.3,2.4
	c3,9.3,6,18.5,9.1,27.8c1.9,5.8,4.1,11.6,6,17.4c2.1,6.1,4,12.2,6,18.3c1.4,4,2.8,8,4.2,12.1c2.1,6.2,4.1,12.4,6.2,18.6
	c1.1,3.2,2.3,6.4,3.5,9.6c0.1,0.3,0.5,0.5,0.8,0.7c0.2-0.3,0.6-0.5,0.7-0.9c2.4-7.3,4.7-14.6,7.1-21.9c1.9-5.8,4-11.7,6-17.5
	c2.6-7.9,5.2-15.8,7.9-23.7c2-5.9,4.1-11.8,6.1-17.7c2.1-6.1,4-12.3,6-18.4c0.6-1.8,1.7-3.4,1.8-5.4c0.1-1,1-1.2,2-1.2
	c10.2-0.1,20.4-0.1,30.5-0.3c2.2,0,1.9,1.1,1.9,2.5c0,18.7,0,37.4,0,56.2v2.7c3.8-3.7,7.2-6.9,10.6-10.2c9.5-9.1,19.1-18,28.3-27.5
	c7-7.3,14.6-14,21.7-21.2c1.7-1.7,4.1-2.7,6.5-2.6c9.8,0.1,19.6,0.3,29.4,0.5c0.7,0,1.7-0.2,2,0.6c0.4,1-0.8,1.1-1.3,1.6
	c-4,3.8-8,7.6-12,11.4c-12.6,11.8-25.3,23.6-37.9,35.5c-2.9,2.7-5.5,5.6-8.6,8.1c-1.7,1.4-1,2.4-0.2,3.5
	c7.3,10.2,14.7,20.3,22.1,30.5c1.9,2.6,4.2,5.1,5.8,8C388.7,367,391.2,368.8,394,370.2z"/>
<path d="M158.4,444.1c0,1,0,1.9,0,2.9c0.2,1.4-0.4,1.8-1.8,1.8c-1.2,0-1.9-0.1-1.9-1.7c0.1-6.1,0.1-12.3,0-18.4
	c0-1.1,0.4-1.5,1.5-1.5c0.8,0.1,1.5,0.1,2.3,0c2.1-0.3,3.1,0.2,3.4,2.8c0.4,3.5,1.9,6.9,2.9,10.6c2.2-3.8,2.4-8,3.6-11.8
	c0.5-1.5,1-1.6,2.2-1.6c4.8-0.1,4.8-0.1,4.8,4.7s0,9.6,0,14.4c0,1.4,0.2,2.5-1.9,2.5c-2.3,0-2.1-1.1-2.1-2.6c0.1-4.3,0-8.6-0.4-13
	c-0.8,3.1-1.8,6.1-2.4,9.2c-0.3,1.4-0.7,2.8-1,4.1c-0.3,1.7-1.1,2.3-2.9,2.3c-1.9,0-2.3-0.9-2.6-2.3c-0.9-4.1-1.9-8.1-2.9-12.2
	c-1.3-0.5-0.8,0.6-0.8,1C158.5,438.2,158.8,441.2,158.4,444.1z"/>
<path d="M318.3,449.3c-4.2,0-7.3-1.4-8.7-5.2c-0.2-0.6-1.5-1.9,0.1-2.2c1.3-0.2,3.1-1.9,4.1,0.6c1.2,3,5.3,4.1,7.7,2
	c1.3-1.2,1.6-2.3-0.3-3.6c-2.4-1.7-5.5-1.2-8-2.8c-2.3-1.5-3.4-3.2-3.2-5.7c0.2-2.7,1.6-4.6,4.6-5.2c3.9-0.7,7.6-0.9,10.5,2.5
	c0.9,1,1.8,2.7,0.5,3.5s-3.3,1.2-4.5-0.9c-0.9-1.7-5.1-2.2-6.5-1c-0.4,0.4-0.8,0.9-0.6,1.5c0.3,0.8,0.9,1.3,1.8,1.6
	c2.9,1.2,6.1,1.2,8.7,3.2c3.2,2.6,2.8,8.8-0.9,10.5C321.9,448.8,320.1,449.6,318.3,449.3z"/>
<path d="M134.2,437.7c0-3,0.1-5.9,0-8.9c0-1.2,0.3-1.7,1.6-1.6c4.4,0.1,8.8,0.1,13.2,0c1.6,0,1.5,0.9,1.6,2c0.1,1.3-0.5,1.6-1.7,1.6
	c-2.8-0.1-5.6,0.1-8.3-0.1c-2.1-0.1-1.7,1.2-1.7,2.4c0,1.2-0.4,2.6,1.7,2.5c2.4-0.1,4.8,0.1,7.2,0c1.5-0.1,2,0.3,2,1.9
	c0,1.5-0.3,2.1-1.9,1.9c-2.1-0.1-4.2,0.2-6.3-0.1c-2.6-0.3-2.6,1-2.7,2.9c-0.1,2.2,0.5,3,2.8,2.8c2.6-0.2,5.2,0,7.8-0.1
	c1.5-0.1,1.7,0.5,1.7,1.8s-0.2,1.9-1.7,1.9c-4.5-0.1-9-0.1-13.5,0c-1.4,0-1.8-0.4-1.8-1.8C134.2,443.9,134.2,440.8,134.2,437.7z"/>
<path d="M387.1,449.2c-4.4-0.1-7.2-1.9-8.4-5.7c-0.2-0.7-1.1-1.9,0.5-1.9c1.3,0,2.9-1.9,3.9,0.6c1.1,3,5.2,4.2,7.6,2.2
	c1.2-1,1.8-2.2-0.1-3.6c-2.5-1.8-5.7-1.2-8.2-2.9c-2.4-1.6-3.2-3.4-3-6.1c0.3-2.7,1.7-4.2,4.4-4.7c3.9-0.8,7.6-0.9,10.5,2.3
	c1,1.1,1.8,2.8,0.4,3.7c-1.1,0.7-3.1,1-4.2-1c-1-1.7-5.2-2.3-6.6-1s-0.5,2.5,0.9,3c1.7,0.7,3.4,1.2,5.2,1.7c4.2,1.1,6.4,3.5,6.1,6.8
	c-0.3,3.7-3.3,6.4-7.6,6.6C388,449.3,387.6,449.2,387.1,449.2z"/>
<path d="M361.2,437.8c0,4.3,1.3,6.7,4.1,7.3c2.4,0.5,4.6-0.3,5.5-2.6c1-2.6,2.4-1.3,3.8-0.9c2.2,0.6,0.5,1.8,0.2,2.6
	c-1.4,4.1-6.3,5.4-9.6,4.9c-4.7-0.7-7.7-4.2-8.1-7.8c-0.4-3.8-0.8-7.6,1.7-11c2.4-3.2,5.6-3.9,9.3-3.6c3.1,0.3,5.8,1.5,7,4.8
	c0.2,0.6,1,1.5-0.5,1.6c-1.2,0.1-2.9,1.8-3.4,0.4c-1.3-3.2-3.6-3.3-6.3-2.8c-3,0.6-3.1,3.3-3.7,5.5
	C361.1,436.8,361.1,437.3,361.2,437.8z"/>
<path d="M238.9,427.4c-1.7,2.8-2.8,5.5-4.7,7.7c-2.8,3.3-3.6,7-3.1,11.1c0.2,1.6,0,2.6-2.2,2.6c-2.1,0-2.2-1-1.9-2.4
	c1.2-6.2-2.5-10.6-5.4-15.3c-0.7-1.2-1.5-2.3-2.3-3.5c4.9-0.8,5.2-0.7,8,4.7c0.5,1,0.7,2.5,2,2.4c1,0,1.4-1.3,1.9-2.3
	c0.7-1.3,1.4-2.6,2.3-3.9C234.2,427,234.3,427.1,238.9,427.4z"/>
<path d="M335.2,439.6c0-2.2-0.1-4.4,0-6.6c0.2-2-0.6-2.5-2.4-2.3c-0.8,0.1-1.5-0.1-2.3,0c-1.5,0.2-1.6-0.6-1.7-1.9
	c-0.1-1.5,0.5-1.8,1.8-1.7c4.6,0.1,9.2,0.1,13.8,0c1.4,0,1.8,0.3,1.8,1.8c0,1.3-0.2,1.8-1.7,1.9c-4.8,0.2-4.8,0.2-4.8,5
	c0,3.5,0,6.9,0,10.4c0,1.5,0.3,2.8-2.1,2.6c-1.9-0.1-2.7-0.4-2.5-2.5C335.4,444.2,335.2,441.9,335.2,439.6z"/>
<path d="M269.6,437.8c0-2.9,0.1-5.8,0-8.6c-0.1-1.9,1-1.9,2.3-1.9c1.2,0,2.4-0.3,2.3,1.8c-0.2,4.6,0,9.2-0.1,13.8
	c-0.1,1.8,0.5,2.3,2.3,2.2c2.3-0.1,4.6,0,6.9-0.1c1.5-0.1,1.7,0.6,1.8,1.9c0,1.3-0.4,1.8-1.8,1.8c-4-0.1-8.1-0.1-12.1,0
	c-1.3,0-1.6-0.5-1.6-1.7C269.6,443.9,269.6,440.9,269.6,437.8z"/>
<path d="M429.6,439.8c0-1,0-1.9,0-2.9c0-1.9,0.5-4.2-0.4-5.6c-0.9-1.4-3.4-0.5-5.1-0.5c-1.6,0-1.3-1-1.3-1.9
	c-0.1-1.1,0.1-1.8,1.5-1.7c4.8,0.1,9.6,0.1,14.4,0c1.7,0,1.4,1,1.5,2c0.1,1.3-0.4,1.6-1.6,1.6c-4.8,0.2-4.8,0.3-4.8,5
	c0,3.7-0.1,7.5,0,11.2c0.1,1.9-1,1.6-2.2,1.7c-1.3,0-2.2,0-2.1-1.7C429.7,444.6,429.6,442.2,429.6,439.8L429.6,439.8z"/>
<path d="M408.4,437.7c0-2.8,0.1-5.6,0-8.3c-0.1-1.9,0.7-2.1,2.3-2.2c1.8-0.1,1.9,0.8,1.9,2.2c-0.1,4.4,0,8.8-0.1,13.2
	c0,1.8,0.4,2.6,2.4,2.4c2.3-0.2,4.6,0,6.9-0.1c1.5-0.1,2,0.4,2,1.9c0,1.4-0.5,1.8-1.9,1.8c-3.9-0.1-7.9-0.1-11.8,0
	c-1.4,0-1.8-0.4-1.7-1.8C408.4,443.9,408.4,440.8,408.4,437.7z"/>
<path d="M348.7,437.7c0-2.9,0.1-5.8,0-8.6c-0.1-2.2,1.2-1.9,2.5-1.9c1.3,0,2.4-0.3,2.4,1.8c-0.1,6-0.1,12.1,0,18.1
	c0,2.5-1.7,1.4-2.8,1.6c-1.3,0.2-2.2,0-2.1-1.7C348.8,443.9,348.7,440.8,348.7,437.7L348.7,437.7z"/>
<path d="M394,370.2c-5.4-1.7-6-2.5-5.2-6.9C390.8,365.4,392.6,367.7,394,370.2z"/>
<path d="M213.9,429.6c-0.5-1.2-0.3-2.6-2.4-2.4c-1.7,0.2-3.6-0.4-4.3,2.1c-0.6,2.2-1.4,4.3-2.3,6.4c-1.6,4.2-3.4,8.4-5.3,13
	c-3-4.5-5.6-8.5-8.2-12.5c-0.6-0.9,0-1.3,0.5-1.9c1.9-1.8,3.8-3.6,5.6-5.5c0.3-0.3,0.5-0.8,0.5-1.3c0-0.5-0.6-0.3-0.9-0.3
	c-2.3-0.1-4.5-0.3-6.1,2.1c-1.5,2.2-3.5,4-5.3,6c-0.3,0.4-0.7,0.8-1.2,0.5c-0.2-0.2-0.3-0.6-0.3-1c0-1.8-0.1-3.6,0-5.5
	c0.1-1.5-0.1-2.3-1.9-2.2c-1.7,0-2.3,0.3-2.3,2.2c0.1,5.7,0.1,11.3,0,17c0,1.8,0.4,2.4,2.3,2.4c2.3,0.1,1.9-1.3,1.9-2.6
	c0-1-0.1-1.9,0-2.9c0.2-2.1,1.7-3.4,3.4-4c1.5-0.5,1.5,1.5,2.1,2.4c3.8,6.9,3.8,6.9,11.9,6.9c0.3,0,0.6,0,0.9,0
	c1.5,0.1,2.5-0.1,2.7-2c0.1-1,0.4-2.8,2-2.8c2.7,0,5.3-0.5,7.9,0.4c0.1,0,0.1,0.5,0.2,0.8c1.5,3.9,1.5,3.9,6.2,3.4
	C219,442.2,216.4,435.9,213.9,429.6z M208.2,440c-0.1-2.8,1.5-4.9,2.4-7.7c1,2.7,2,5.2,3,7.7H208.2z"/>
<path d="M460.8,434c-0.3-3.5-3.5-6.6-7-6.7c-2.9-0.1-5.7,0-8.6-0.1c-1.9-0.1-2.2,0.7-2.2,2.3c0.1,2.8,0,5.5,0,8.3l0,0
	c0,1.5,0,2.9,0,4.3c0,1.5,0.1,3.1,0,4.6c-0.1,1.4,0.3,2.1,1.9,2c2.6-0.1,5.2,0,7.7-0.1c5-0.2,7.6-2.9,8.3-7.8
	C461.3,438.5,461,436.3,460.8,434z M456.8,439.1c-0.2,4.8-3.7,7.2-8.4,6c-1.1-0.3-1-1-1-1.7c0-1.8,0-3.6,0-5.5c0-0.8-0.2-1.6,0-2.3
	c0.7-1.6-1.9-4.4,1.5-4.8c5-0.7,7,0.6,7.7,4.5C456.8,436.6,456.8,437.8,456.8,439.1z"/>
<path d="M306,444.2c-2.1-4.8-4.1-9.7-5.9-14.7c-0.5-1.4-0.8-2.4-2.5-2.3c-1.8,0.1-3.6-0.2-4.3,2.2c-1.9,6-4.3,11.7-6.7,17.4
	c-0.3,0.7-0.8,1.4,0.3,1.9c1.9,0.8,4-0.3,4.6-2.4c0.3-1.1,0.5-2.5,2-2.4c2.7,0.3,5.5-1,8,0.8c0.1,0.1,0.2,0.3,0.2,0.5
	c0.2,4,2.8,3.8,5.7,3.4C307,447.1,306.7,445.6,306,444.2z M294,440c1-2.3,1-4.9,2.9-6.8c1.6,2,1.6,4.5,2.8,6.8H294z"/>
<path d="M265.6,431.7c-0.5-2.6-1.8-4.2-4.3-4.3c-3.4-0.2-6.9-0.1-10.3-0.2c-1.3,0-1.6,0.4-1.6,1.7c0.1,3,0,5.9,0,8.9
	c0,2.9,0.1,5.7,0,8.6c0,1.5,0,2.4,2,2.4c1.9,0,2.2-0.6,2.2-2.3c0-5.5,0-5.5,5.5-5.9C264.3,440.3,266.6,437,265.6,431.7z
	 M255.9,437.1c-2.7,0.1-2.1-1.5-2.3-3.1c-0.3-2.8,0.7-3.9,3-3.2c3.6,0,5.1,1,5.1,3.1C261.6,436,259.7,436.9,255.9,437.1L255.9,437.1
	z"/>
</svg>
