<svg id="Layer_1" data-name="Layer 1" xmlns="http://www.w3.org/2000/svg" viewBox="0 0 905.49 679.12"><defs><style>.cls-1{fill:#fff;}</style></defs><g id="e7gA6o.tif"><path d="M58.49,149H961.71V825.82H58.49Zm481.16,324.5h27V362.15c8.24-4.17,16.44-3.6,24.79-3.13,0,31.62,0,62.43,0,93.24A33.71,33.71,0,0,0,599,474c8.87-.83,17.69,1,27.43-1.23-7.22-9.75-8.19-19.89-8.08-30.53.28-28.19.09-56.38.09-84.7-2.84-3.82-5.75-7.71-8.63-11.57,4.6-4.47,8.75-8.73,8.71-15.79-.18-31.54-.08-63.08-.08-92.89-3.78-9.27-9.75-14.38-16.85-18h-62ZM724.42,216.66c-3.8,0-9.06-.25-14.29.05a36.89,36.89,0,0,0-28.35,15.15c-5,6.62-9.1,21.46-9.1,30,0,31.19-.38,62.39.1,93.57.49,30.86-2.42,61.82,2.25,92.34,8.7,16.14,19.48,29.45,39.89,28.23,20-1.21,32.46-12.71,39.05-32.5v-20q0-84.55,0-169.1a32.81,32.81,0,0,0-9.9-24.13C738.6,224.8,732.82,220.07,724.42,216.66Zm-287,229.92V219.14h-26.7v6.72q0,104.88,0,209.76c0,12.88,6.65,30.06,25.31,37.61,12,4.87,24.18,4.28,34.95-2.39,13.42-8.32,21-24.54,21-40.79q0-100.93,0-201.87v-8.72H462.35V446.58ZM363.1,218.91H301.77a63.24,63.24,0,0,1-6.8,3.92c-3,1.27-4.55,3.4-6.57,6-4.76,6.2-6.39,12.64-6.39,20q.06,91.87,0,183.77v20.87L293.76,469c13.74,7.26,25,4.36,35.95,4.78,11.15.42,22.32.09,33.3.09V446.5H309.13V368c0-3.32-.66-6.86,4.11-9.26H349.3V331.51H309.65V245.69H363.1ZM855.35,544.14H226.18l-5.66-7H168.06l-3.42,3.16v15.92l3.29,3.28h52.65l5.9-7.09H855.35Zm-628.8,82.75h628.8v-8.3H226.13l-5.62-7H168.09l-3.45,3.14V630.7l3.29,3.28H220.1Zm-.2-112.8h629v-6.33h-629c-2.14-7.36-7.26-9.07-13.45-9.08H171.17L165,501.85v16.87l8.06,4.78c5,0,10.62.16,16.24,0,11.29-.38,22.82,1.79,33.15-2.74Zm629,68.07H226c-1.37-2.47-2.4-4.31-4-7.25-16.64-4.08-34.46-.51-50.26-1.84l-6.89,5.36v14A17,17,0,0,0,178.57,598c7.89-.26,15.81-.24,23.7,0,7.3.21,14.41-.15,19.84-2.94l4.44-6.42h628.8ZM368.2,654.36V760.62c5.4-.69,10.5.42,15.85-.87v-42h29.12c1.42,3.42,4.23,7,4.09,10.46-.41,10,2,19.55,3,29.36l2.45,2.27h15.42c-1.76-4.45-4.36-8.25-4.62-12.19-.69-10.56.7-21.27-3.82-32.43L423.39,708c2.36-2.24,4-3.79,5.62-5.33,6.48-6.08,7.08-14,6.34-22-.15-1.71-1.85-3.51-2.16-5.83-.81-6.22-3.75-10.46-9.8-14-7.17-4.21-14.82-5.18-22.26-6.08C390.44,653.4,379.47,654.36,368.2,654.36Zm394.26,94.57-10.81-5.55c-5.34-5.27-3.62-13.51-7.5-18.6H731.39a44,44,0,0,1,0,4.93c-1,8.07,3.2,14.6,7.26,20.61,3.55,5.26,9.07,8.37,15.78,10.59,6.4,2.11,12.34.85,18.4,1.71,6.35.9,11.85-1.41,17.33-4.41,10.57-5.79,16.81-13.83,15.83-26.47-.35-4.44-.06-8.93-.06-12.84-4.64-7.78-9.8-12.88-18.85-15.33-11-3-22.53-5-33.33-9.93-4.37-4.33-4.93-9.9-3.8-15.63,2.14-6.42,7.12-8.89,12.92-11.6s10,.89,14.46,1.88c5.78,1.29,10.18,5.93,10.62,12.93.15,2.34,1.31,4.62,2,6.76H803.3V676.15c-3.31-7.67-7.71-14.24-14-18.95-5.18-2.8-10.91-3.14-16.27-4.7-9.33-2.73-18.09,2.3-26.35,6.45-8.08,4.07-10.88,12.36-12.76,20.19s1.3,15.47,5.28,22.43a5.06,5.06,0,0,0,2.37,2.34c8.32,2.56,15.4,8.07,24.39,9.33,6.09.85,11.78,4.26,17.84,5.7,4.66,1.11,6.13,4.58,7.72,8s1.56,6.77-1.28,10.08c-1.71,2-2.17,5.06-3.09,7.37C775.38,749.23,775.38,749.23,762.46,748.93ZM540.62,654.58c-3.73,2-3.46,5-3.45,8q.08,31,0,62c0,8.76,2.66,16.76,6.85,24.24,4.93,8.79,12.82,13.2,22.8,13.74a146.49,146.49,0,0,0,14.67,0c8.21-.39,16-3.76,20.41-10s7.86-14.08,7.64-22.71c-.33-12.77-.09-25.56-.09-38.34v-37h-12.8a9,9,0,0,0-.72,2.21c-.94,26.71,2.28,53.56-2.79,79.93-1.85,6.56-7,9.71-12.08,12.17H566l-8-5.55-5-9.79V729q0-32.7,0-65.41c0-3.29.81-6.89-3.55-9ZM525,688c-1.73-2.75-3.46-4.21-3.45-5.66.11-11.88-7.84-18.56-16.16-24.64-4.47-3.26-10.08-4.8-15.67-5.62-6.28-.93-12.54.94-17.68,3.52-9.43,4.73-15.38,12.74-19.56,23-4.08,10.05-1.53,20.71-5.53,30.4a2.6,2.6,0,0,0,0,2.19c3.6,3.75,1.19,8.56,2.36,12.59,1.46,5,2.32,10.17,4,15.2,3.35,9.81,11.83,14.48,15.76,19.59,10.8,5.58,19.75,3.52,27.64,4,19.34-8.21,27.42-22.6,26.9-42.65H511.16c-5.42,3.27-2.33,8.42-3.58,12.44-7.14,11.74-7.78,12.44-15.26,16.66-11.65,1.63-19-3.11-24.38-14-4.13-8.47-2.34-18.29-5.2-27.14a6.17,6.17,0,0,1,.35-3.19c.54-2,1.94-4.09,1.72-6-1-8.77,2.27-16,6.7-23.25,1.58-2.59,2.47-4.56,5.69-5.52s6.09-3.26,9.44-5.16c4.83,3.68,11.51,3.19,14.68,9,2.65,4.83,5.28,9.67,7.76,14.24Zm-220.82.12c2.27-9.09-3.68-15.06-6.87-21.3-2.59-5.08-8.46-9.86-13.93-11.73-6.21-2.12-13.14-4.41-20.2-3-3.51.69-18.27,8.28-20.21,11-4.72,6.55-9.25,13.47-10.37,21.55-.69,5-3.43,9.43-2.63,14.84.77,5.14.36,10.5.11,15.75a37.68,37.68,0,0,0,2.32,16c3.55,8.89,6.12,18.43,14.47,24.39,3.69,2.65,7.82,4.69,11.76,7h20.6c19.23-6.84,25.8-20.65,27.54-38H291.64c-5.47,17-2.87,16.69-15.34,24.49-2.38,0-5,0-7.6,0-8.05.16-13.29-3.4-16.89-10.79A55.62,55.62,0,0,1,246,717.09,169.74,169.74,0,0,1,246,698c.57-10.67,4.43-20.05,12.18-27.61,3.52-3.44,7.92-6,12.64-4.5,4.92,1.55,10.86,2.39,13.44,7.93,2.2,4.69,3.89,9.61,5.8,14.39Zm405.06,72V670.08h21.12l3.06-3.05v-9.31l-2.63-2.93H670.69v15.57h22.58v89.81ZM324.54,670.61v76.31H314.11V760.1h35.41c0-4.3,0-8.34,0-12.37,0-.26-.5-.53-1.17-1.19h-7.15c-1.31-27.69-.82-74.93.79-76.41h6.71l3.21-3.22c-2.42-4.66-2.42-4.66,0-9.29l-3.26-3.26c-9.33,0-18.73-.14-28.12.09-2.32.06-4.61,1.35-6.62,2v10.14C316.38,671.83,320.84,669.35,324.54,670.61Zm328.18,76.3V670.66c3.63-1.37,8.1,1.19,10.62-4v-9.19l-2.7-2.7H627.38c.51,5.4-.53,10.49.82,15.85h8.11V747h-8.5v12.88H663.3v-13Z" transform="translate(-56.23 -148.97)"/><path class="cls-1" d="M58.49,149V825.82H961.71c0,.76,0,2.17,0,2.17-3.38.1-6.77.09-10.15.09H56.23V159.13c0-3.39,0-6.77.09-10.15C56.32,149,57.73,149,58.49,149Z" transform="translate(-56.23 -148.97)"/><path class="cls-1" d="M539.65,473.47V219.28h62c7.1,3.64,13.07,8.75,16.85,18,0,29.81-.1,61.35.08,92.89,0,7.06-4.11,11.32-8.71,15.79,2.88,3.86,5.79,7.75,8.63,11.57,0,28.32.19,56.51-.09,84.7-.11,10.64.86,20.78,8.08,30.53-9.74,2.22-18.56.4-27.43,1.23a33.71,33.71,0,0,1-7.68-21.75c.06-30.81,0-61.62,0-93.24-8.35-.47-16.55-1-24.79,3.13V473.47ZM591,331.53V246c-4.46,0-8.54,0-12.62,0s-7.94.21-11.47.31v85.22Z" transform="translate(-56.23 -148.97)"/><path class="cls-1" d="M724.42,216.66c8.4,3.41,14.18,8.14,19.62,13.58a32.81,32.81,0,0,1,9.9,24.13q.09,84.56,0,169.1v20c-6.59,19.79-19,31.29-39.05,32.5-20.41,1.22-31.19-12.09-39.89-28.23-4.67-30.52-1.76-61.48-2.25-92.34-.48-31.18-.11-62.38-.1-93.57,0-8.56,4.1-23.4,9.1-30a36.89,36.89,0,0,1,28.35-15.15C715.36,216.41,720.62,216.66,724.42,216.66Zm2.05,229.91V246.21h-24V446.57Z" transform="translate(-56.23 -148.97)"/><path class="cls-1" d="M437.44,446.58h24.91V219.46H492v8.72q0,100.94,0,201.87c0,16.25-7.58,32.47-21,40.79-10.77,6.67-22.91,7.26-34.95,2.39-18.66-7.55-25.3-24.73-25.31-37.61q-.09-104.88,0-209.76v-6.72h26.7Z" transform="translate(-56.23 -148.97)"/><path class="cls-1" d="M363.1,218.91v26.78H309.65v85.82H349.3v27.18H313.24c-4.77,2.4-4.11,5.94-4.11,9.26V446.5H363v27.36c-11,0-22.15.33-33.3-.09-11-.42-22.21,2.48-35.95-4.78L282,453.54V432.67q0-91.89,0-183.77c0-7.4,1.63-13.84,6.39-20,2-2.63,3.54-4.76,6.57-6a63.24,63.24,0,0,0,6.8-3.92Z" transform="translate(-56.23 -148.97)"/><path class="cls-1" d="M855.35,544.14v8.29H226.48l-5.9,7.09H167.93l-3.29-3.28V540.32l3.42-3.16h52.46l5.66,7Z" transform="translate(-56.23 -148.97)"/><path class="cls-1" d="M226.55,626.89,220.1,634H167.93l-3.29-3.28V614.76l3.45-3.14h52.42l5.62,7H855.35v8.3Z" transform="translate(-56.23 -148.97)"/><path class="cls-1" d="M226.35,514.09l-3.91,6.63c-10.33,4.53-21.86,2.36-33.15,2.74-5.62.2-11.25,0-16.24,0L165,518.72V501.85l6.18-3.17H212.9c6.19,0,11.31,1.72,13.45,9.08h629v6.33Z" transform="translate(-56.23 -148.97)"/><path class="cls-1" d="M855.35,582.16v6.48H226.55l-4.44,6.42c-5.43,2.79-12.54,3.15-19.84,2.94-7.89-.22-15.81-.24-23.7,0a17,17,0,0,1-13.78-5.55v-14l6.89-5.36c15.8,1.33,33.62-2.24,50.26,1.84,1.64,2.94,2.67,4.78,4,7.25Z" transform="translate(-56.23 -148.97)"/><path class="cls-1" d="M368.2,654.36c11.27,0,22.24-1,32.93.32,7.44.9,15.09,1.87,22.26,6.08,6.05,3.56,9,7.8,9.8,14,.31,2.32,2,4.12,2.16,5.83.74,8,.14,16-6.34,22-1.64,1.54-3.26,3.09-5.62,5.33l6.32,7.24c4.52,11.16,3.13,21.87,3.82,32.43.26,3.94,2.86,7.74,4.62,12.19H422.73l-2.45-2.27c-1.06-9.81-3.43-19.37-3-29.36.14-3.46-2.67-7-4.09-10.46H384.05v42c-5.35,1.29-10.45.18-15.85.87Zm15.63,47.38h26.74l9.2-9.19V679.34L411,670.53H383.83Z" transform="translate(-56.23 -148.97)"/><path class="cls-1" d="M762.46,748.93c12.92.3,12.92.3,24.67-4.53.92-2.31,1.38-5.37,3.09-7.37,2.84-3.31,2.87-6.66,1.28-10.08s-3.06-6.9-7.72-8c-6.06-1.44-11.75-4.85-17.84-5.7-9-1.26-16.07-6.77-24.39-9.33a5.06,5.06,0,0,1-2.37-2.34c-4-7-7.16-14.58-5.28-22.43S738.58,663,746.66,659c8.26-4.15,17-9.18,26.35-6.45,5.36,1.56,11.09,1.9,16.27,4.7,6.31,4.71,10.71,11.28,14,18.95V688H789.87c-.64-2.14-1.8-4.42-2-6.76-.44-7-4.84-11.64-10.62-12.93-4.46-1-8.56-4.63-14.46-1.88s-10.78,5.18-12.92,11.6c-1.13,5.73-.57,11.3,3.8,15.63,10.8,5,22.28,6.94,33.33,9.93,9.05,2.45,14.21,7.55,18.85,15.33,0,3.91-.29,8.4.06,12.84,1,12.64-5.26,20.68-15.83,26.47-5.48,3-11,5.31-17.33,4.41-6.06-.86-12,.4-18.4-1.71-6.71-2.22-12.23-5.33-15.78-10.59-4.06-6-8.26-12.54-7.26-20.61a44,44,0,0,0,0-4.93h12.76c3.88,5.09,2.16,13.33,7.5,18.6Z" transform="translate(-56.23 -148.97)"/><path class="cls-1" d="M540.62,654.58h8.82c4.36,2.12,3.55,5.72,3.55,9q0,32.71,0,65.41v4.55l5,9.79,8,5.55h15.08c5.09-2.46,10.23-5.61,12.08-12.17,5.07-26.37,1.85-53.22,2.79-79.93a9,9,0,0,1,.72-2.21h12.8v37c0,12.78-.24,25.57.09,38.34.22,8.63-3.17,16.37-7.64,22.71s-12.2,9.59-20.41,10a146.49,146.49,0,0,1-14.67,0c-10-.54-17.87-5-22.8-13.74-4.19-7.48-6.87-15.48-6.85-24.24q.09-31,0-62C537.16,659.57,536.89,656.56,540.62,654.58Z" transform="translate(-56.23 -148.97)"/><path class="cls-1" d="M525,688H509.08c-2.48-4.57-5.11-9.41-7.76-14.24-3.17-5.79-9.85-5.3-14.68-9-3.35,1.9-6.2,4.2-9.44,5.16s-4.11,2.93-5.69,5.52c-4.43,7.25-7.71,14.48-6.7,23.25.22,1.9-1.18,4-1.72,6a6.17,6.17,0,0,0-.35,3.19c2.86,8.85,1.07,18.67,5.2,27.14,5.35,10.93,12.73,15.67,24.38,14,7.48-4.22,8.12-4.92,15.26-16.66,1.25-4-1.84-9.17,3.58-12.44h12.46c.52,20-7.56,34.44-26.9,42.65-7.89-.49-16.84,1.57-27.64-4-3.93-5.11-12.41-9.78-15.76-19.59-1.72-5-2.58-10.17-4-15.2-1.17-4,1.24-8.84-2.36-12.59a2.6,2.6,0,0,1,0-2.19c4-9.69,1.45-20.35,5.53-30.4,4.18-10.3,10.13-18.31,19.56-23,5.14-2.58,11.4-4.45,17.68-3.52,5.59.82,11.2,2.36,15.67,5.62,8.32,6.08,16.27,12.76,16.16,24.64C521.5,683.83,523.23,685.29,525,688Z" transform="translate(-56.23 -148.97)"/><path class="cls-1" d="M304.14,688.16H290c-1.91-4.78-3.6-9.7-5.8-14.39-2.58-5.54-8.52-6.38-13.44-7.93-4.72-1.48-9.12,1.06-12.64,4.5C250.4,677.9,246.54,687.28,246,698a169.74,169.74,0,0,0,0,19.14,55.62,55.62,0,0,0,5.83,21.24c3.6,7.39,8.84,10.95,16.89,10.79,2.61,0,5.22,0,7.6,0,12.47-7.8,9.87-7.44,15.34-24.49h15.09c-1.74,17.31-8.31,31.12-27.54,38h-20.6c-3.94-2.31-8.07-4.35-11.76-7-8.35-6-10.92-15.5-14.47-24.39a37.68,37.68,0,0,1-2.32-16c.25-5.25.66-10.61-.11-15.75-.8-5.41,1.94-9.87,2.63-14.84,1.12-8.08,5.65-15,10.37-21.55,1.94-2.69,16.7-10.28,20.21-11,7.06-1.39,14,.9,20.2,3,5.47,1.87,11.34,6.65,13.93,11.73C300.46,673.1,306.41,679.07,304.14,688.16Z" transform="translate(-56.23 -148.97)"/><path class="cls-1" d="M709.2,760.17H693.27V670.36H670.69V654.79h60.06l2.63,2.93V667l-3.06,3.05H709.2Z" transform="translate(-56.23 -148.97)"/><path class="cls-1" d="M324.54,670.61c-3.7-1.26-8.16,1.22-10.63-4V656.43c2-.63,4.3-1.92,6.62-2,9.39-.23,18.79-.09,28.12-.09l3.26,3.26c-2.45,4.63-2.45,4.63,0,9.29l-3.21,3.22H342c-1.61,1.48-2.1,48.72-.79,76.41h7.15c.67.66,1.16.93,1.17,1.19.05,4,0,8.07,0,12.37H314.11V746.92h10.43Z" transform="translate(-56.23 -148.97)"/><path class="cls-1" d="M652.72,746.91H663.3v13H627.81V747h8.5V670.59H628.2c-1.35-5.36-.31-10.45-.82-15.85h33.26l2.7,2.7v9.19c-2.52,5.22-7,2.66-10.62,4Z" transform="translate(-56.23 -148.97)"/><path d="M591,331.53H566.92V246.31c3.53-.1,7.5-.26,11.47-.31s8.16,0,12.62,0Z" transform="translate(-56.23 -148.97)"/><path d="M726.47,446.57h-24V246.21h24Z" transform="translate(-56.23 -148.97)"/><path d="M383.83,701.74V670.53H411l8.81,8.81v13.21l-9.2,9.19Z" transform="translate(-56.23 -148.97)"/></g></svg>