<?xml version="1.0" encoding="utf-8"?>
<!-- Generator: Adobe Illustrator 25.0.0, SVG Export Plug-In . SVG Version: 6.00 Build 0)  -->
<svg version="1.1" id="Layer_1" xmlns="http://www.w3.org/2000/svg" xmlns:xlink="http://www.w3.org/1999/xlink" x="0px" y="0px"
	 viewBox="0 0 206.8 77" style="enable-background:new 0 0 206.8 77;" xml:space="preserve">
<style type="text/css">
	.st0{fill:#FFFFFF;}
	.st1{fill:#008177;}
	.st2{fill:#F6A500;}
</style>
<g>
	<g>
		<rect x="1.7" y="43.7" class="st0" width="203.2" height="23.6"/>
		<g>
			<path d="M52,51l4.3,0c4.1,0,7.9,2.7,7.9,6.6s-3.7,6.6-7.9,6.6l-4.3,0L52,51z M54.3,62.5l1.3,0c3.7,0,6-1.9,6-4.8
				c0-2.8-2.3-4.9-5.2-4.9l-2.3,0l0,9.7L54.3,62.5z"/>
			<path d="M74.2,51l3.4,0c3.7,0,5.4,1.7,5.4,3.8c0,1.8-1.3,3.2-3.6,3.5l4.8,5.4L82,64.6l-5.5-6.4l0,0l0,5.9l-2.4,0.1L74.2,51
				L74.2,51z M76.6,56.9l1.2,0c1.7,0,2.9-0.9,2.9-2.1c0-1.3-1.3-2.1-2.9-2.1l-1.2,0L76.6,56.9z"/>
			<path d="M91.2,63.9l8.6-13.2l8.2,13.4l-2.4,0.4l-3.2-5.3l-5.8,0l-3.3,5.3L91.2,63.9z M101.7,57.6l-1.8-3.2l-2.2,3.2L101.7,57.6z"
				/>
			<path d="M125.3,51l2.4-0.1l0,8.9c0,3.4-2.9,4.7-5.5,4.7c-2.6,0-5.5-1.2-5.5-4.7l0-8.7L119,51l0,8.4c0,2.6,1.4,3.4,3.2,3.4
				c1.7,0,3.2-0.8,3.2-3.4L125.3,51L125.3,51z"/>
			<polygon points="138.1,51 140.4,50.9 140.4,62.3 147.4,62.3 146.5,64.1 138.1,64.1 			"/>
			<polygon points="156.2,51 158.5,50.9 158.5,64.1 156.2,64.2 			"/>
			<path d="M178.9,52.9c-0.7-0.3-1.4-0.4-2.4-0.4c-2.8,0-5.9,1.7-5.9,5c0,2.9,2.7,5,6.3,5c0.6,0,1.3-0.1,1.9-0.2l-0.4,2
				c-0.6,0.1-1.2,0.1-1.8,0.1c-5.3,0-8.4-3-8.4-6.8c0-3.9,3.2-6.9,8.1-6.9c0.8,0,1.6,0.1,2.2,0.2L178.9,52.9z"/>
			<path d="M195.5,54c-0.8-1-1.7-1.7-2.9-1.7c-1.3,0-2.4,0.8-2.4,1.9c0,2.8,6.9,1.5,6.9,6c0,2.2-2,4-4.8,4c-1.9,0-3.6-0.8-4.6-2.2
				l1.6-1.5c0.8,1.1,1.8,1.8,3.1,1.8c1.3,0,2.4-1,2.4-2.1c0-3-6.9-1.5-6.9-6.1c0-2.1,2.2-3.8,4.8-3.8c1.9,0,3.4,0.9,4.4,2.1
				L195.5,54z"/>
			<polygon points="20.3,58.3 12,58.3 12,64.1 9.6,64.2 9.6,51 12,50.9 12,56.5 20.3,56.5 20.3,51 22.7,50.9 22.7,64.1 20.3,64.2 
							"/>
			<polygon points="31.3,51.5 33.4,50.7 37.9,56.9 41.1,50.7 43.3,51.5 36.4,64.4 34.1,64 36.7,59.1 			"/>
		</g>
	</g>
	<g>
		<polygon points="1.7,17.1 9.1,17.1 9.1,27.9 15.2,27.9 15.2,17.1 22.6,17.1 22.6,47.8 15.2,47.8 15.2,36.1 9.1,36.1 9.1,47.8 
			1.7,47.8 		"/>
		<polygon points="24.5,17.1 32.8,17.1 36.1,24.6 39.4,17.1 47.7,17.1 39.8,34.2 39.8,47.8 32.4,47.8 32.4,34.2 		"/>
		<path d="M49.8,17.1h6.7c9,0,13.4,7.9,13.4,15.2c0,8.7-5.6,15.5-14.2,15.5h-5.8C49.8,47.9,49.8,17.1,49.8,17.1z M57.2,39.2
			c4.7-0.8,5.2-4.7,5.2-7c0-2.9-0.9-6.5-5.2-7V39.2z"/>
		<path d="M73,17.1h9.7c5.6,0,9.4,3.4,9.4,9.8c0,3.2-1.3,5.8-3.8,7.6l5.4,13.3h-8.3l-4.9-12.6h-0.1v12.6H73L73,17.1L73,17.1z
			 M80.4,31.6c2.8,0,4.4-1,4.4-3.8S83.1,24,80.4,24V31.6z"/>
		<path d="M108.5,48.6c-7.9,0-14.5-7.3-14.5-16.1c0-8.9,6.7-16.1,14.5-16.1c7.9,0,14.5,7.3,14.5,16.1
			C123,41.4,116.4,48.6,108.5,48.6 M108.5,24.6c-3.8,0-7,3.5-7,7.8s3.2,7.8,7,7.8s7-3.7,7-7.8S112.3,24.6,108.5,24.6"/>
		<polygon points="126,17.1 141,17.1 142.2,25.2 133.2,25.2 133.2,28.4 139.1,28.4 139.1,36.5 133.2,36.5 133.2,47.8 126,47.8 		"/>
		<polygon points="143.3,17.1 150.7,17.1 150.7,39.7 160.5,39.7 158.5,47.8 143.3,47.8 		"/>
		<polygon points="162.9,17.1 177.9,17.1 179,25.2 170.2,25.2 170.2,28.4 176,28.4 176,36.5 170.2,36.5 170.2,39.7 180.1,39.7 
			178.1,47.8 162.9,47.8 		"/>
		<polygon points="196.9,32.2 205,47.8 196.4,47.8 192.6,40.5 188.8,47.8 180.2,47.8 188.3,32.2 180.4,17.1 189,17.1 192.6,24.1 
			196.2,17.1 204.8,17.1 		"/>
	</g>
	<path class="st1" d="M118.2,32.6c0,5.8-4.3,10.5-9.6,10.5c-5.3,0-9.6-4.7-9.6-10.5s4.3-10.5,9.6-10.5S118.2,26.8,118.2,32.6z"/>
	<ellipse class="st2" cx="108.5" cy="32.6" rx="7.7" ry="8.4"/>
	<path class="st0" d="M113.5,32.6c0,3-2.3,5.4-4.9,5.4c-2.8,0-4.9-2.5-4.9-5.4c0-3,2.3-5.4,4.9-5.4
		C111.3,27.2,113.5,29.5,113.5,32.6z"/>
	<path class="st2" d="M112.1,32.6c0,2.2-1.6,3.9-3.6,3.9s-3.6-1.8-3.6-3.9c0-2.2,1.6-3.9,3.6-3.9C110.6,28.5,112.1,30.3,112.1,32.6z
		"/>
</g>
</svg>
