<?xml version="1.0" encoding="utf-8"?>
<!-- Generator: Adobe Illustrator 25.0.0, SVG Export Plug-In . SVG Version: 6.00 Build 0)  -->
<svg version="1.1" id="Layer_1" xmlns="http://www.w3.org/2000/svg" xmlns:xlink="http://www.w3.org/1999/xlink" x="0px" y="0px"
	 viewBox="0 0 511.5 283.5" style="enable-background:new 0 0 511.5 283.5;" xml:space="preserve">
<style type="text/css">
	.st0{clip-path:url(#SVGID_2_);}
</style>
<g>
	<defs>
		<rect id="SVGID_1_" x="-390.7" y="-153.5" width="1275.6" height="566.9"/>
	</defs>
	<clipPath id="SVGID_2_">
		<use xlink:href="#SVGID_1_"  style="overflow:visible;"/>
	</clipPath>
	<g class="st0">
		<path d="M16.5,279.7c0.5,2.3,0.5,2.3-1.7,3c-1,0.3-1.9,0.5-2.9,0.8c0.1-0.6,0.6-0.5,1-0.7c0.9-0.2,1.8-0.4,2.6-0.8
			c0.6-0.1,1-0.7,0.8-1.3c0-0.1,0-0.2-0.1-0.2c0-0.1,0-0.1-0.1-0.2c-0.4-1.6-0.3-1.9-2.1-1.3c-3.6,1.2-5.5-0.2-5.7-4.1
			c-0.1-2.5,0-5.1,0-7.7c0-3.9,0-7.8,0-11.6c0-1.7,0.2-1.9,1.9-1.9c1.3,0,2.6,0,4,0c0.8,0,1.2-0.3,1.2-1.1c0-3.2,0.1-2.7-2.6-2.7
			c-0.9,0-1.7,0-2.6,0c-1.6,0-1.8-0.2-1.8-1.9s0-3.1,0-4.6c0-1.2-0.1-1.3-1.2-0.9c-3.1,1-2.8,0.3-2.8,3.8c0,0.8,0,1.6,0,2.4
			s-0.4,1.2-1.2,1.2c-1.1,0-2.2,0.3-3.2-0.3c1.2,0.1,2.3,0.2,3.5,0.1c0.6,0,0.6-0.3,0.6-0.7c0-1.7,0-3.3,0-5c-0.1-0.5,0.2-1,0.7-1.1
			c0,0,0,0,0.1,0c1.3-0.4,2.6-0.8,4-1.2c0,0.9,0,1.7,0,2.6c-0.1,1.8,0,3.6,0.1,5.4l5.3,0.1c0.3,0,0.5,0,0.8,0c0.7-0.1,1,0.1,0.9,0.9
			c0,0.9,0,1.8,0,2.7c0,0.6-0.2,0.8-0.8,0.8c-1.8,0-3.6,0-5.4,0c-0.6,0-0.9,0.1-0.9,0.8c0,6.6,0,13.3,0.1,19.9c0,4,1.9,5.2,5.7,3.9
			c1.6-0.5,1.6-0.5,2,1.1"/>
		<path d="M40.9,255.9c0.9,3.3,0.7,6.7,0.4,10.1c-0.1,0.7-0.5,0.7-1,0.7c-4.9,0-9.9,0-14.8,0c-0.8,0-1.1,0.1-1,1
			c0.1,2.1,0.4,4.2,1.1,6.2c1.6,4.3,5.2,6.1,9.8,4.9c1.1-0.3,2.2-0.8,3.1-1.5c0.4-0.3,0.7-0.4,0.9,0.2s0.5,1,0.7,1.5
			c0.7,1.5,0.7,1.5-0.7,2.4c-1.5,0.9-3.1,1.5-4.8,1.8c-0.2,0-0.5-0.1-0.6,0.2c0.1-0.6,0.6-0.5,1-0.6c1.5-0.3,3-0.9,4.4-1.8
			c0.7-0.5,0.9-1,0.5-1.8c0-0.1-0.1-0.1-0.1-0.2c-0.7-1.6-0.7-1.6-2.3-0.8c-1.2,0.6-2.6,1-4,1.1c-3.6,0.4-7-1.7-8.1-5.1
			c-0.7-2-1.1-4.2-1.2-6.3c-0.1-1.3,0.2-1.6,1.6-1.6c4.5,0,9,0,13.5,0c1.7,0,1.7,0,1.9-1.8c0.4-2.7,0.2-5.5-0.4-8.2
			c-0.8-3.1-2.2-5.8-5.5-6.7c-5.5-1.6-11.2,0-13.8,6.4c-1.5,4.1-2,8.4-1.6,12.8c0.1,2.3,0.6,4.6,1.3,6.8c1,3.4,3.7,6,7.1,7
			c0.4,0.1,0.9,0.1,0.9,0.7c-0.1-0.1-0.1-0.2-0.2-0.2c-4.7-1-7.2-4.2-8.4-8.5c-1.7-5.8-1.6-11.9,0.2-17.7c2.1-6.6,7.7-9.6,14.4-7.6
			C38.4,250.3,40,252.9,40.9,255.9"/>
		<path d="M65.4,279.5c0.6,1.7,0.6,1.6-1,2.5c-1.4,0.6-2.9,1.1-4.4,1.4c0.1-0.6,0.6-0.5,1-0.6c1.2-0.2,2.3-0.6,3.4-1.2
			c1.1-0.5,1.2-0.9,0.8-2c-0.7-1.8-0.6-1.8-2.4-1c-1.6,0.7-3.3,1-5.1,0.7c-3.3-0.6-4.9-2.9-5.8-5.8c-0.8-2.8-1.1-5.6-0.9-8.5
			c0-1.8,0.2-3.6,0.5-5.4c1.3-6,5.4-8.2,11.1-6c1.3,0.5,1.3,0.5,1.8-0.8c0.8-2.3,0.8-2.3-1.6-3c-2.1-0.7-4.4-0.9-6.6-0.5
			c-4.7,0.7-7.2,3.9-8.6,8.1c-0.9,3.2-1.3,6.6-1.1,9.9c0.1,2.5,0.4,5,1,7.5c0.4,1.4,1,2.8,1.7,4c1.1,1.9,2.9,3.2,5,3.8
			c0.4,0.1,1,0.1,1.1,0.8c0-0.1-0.1-0.2-0.1-0.2c-4.8-1-7.1-4.3-8.1-8.7c-1.5-5.8-1.4-11.9,0.3-17.6c1.2-3.8,3.4-6.8,7.5-7.7
			c3.3-0.7,6.7-0.4,9.7,0.9c0.6,0.3,0.7,0.6,0.5,1.2c-0.4,1-0.4,2.3-1,2.9s-1.8-0.5-2.7-0.7c-1.2-0.3-2.4-0.4-3.6-0.4
			c-2.4,0.2-4.5,1.8-5.3,4.1c-1,2.9-1.5,6-1.3,9.1c-0.1,2.4,0.3,4.8,1,7.1c1.8,5.5,6.6,7.3,11.5,4.2c0.9-0.5,1-0.2,1.2,0.5
			C65,278.7,65.2,279.1,65.4,279.5"/>
		<path d="M92.8,260.2c0.1,7.2,0,14.4,0,21.6c0,0.7-0.2,0.9-0.9,0.9c-0.9-0.1-1.8-0.1-2.7,0c-0.9,0.1-1.2-0.2-1.2-1.2
			c0-6.2,0-12.4,0-18.5c0.1-2-0.1-3.9-0.6-5.8c-0.9-3.6-4-5.1-7.3-3.4c-2.6,1.1-4.3,3.7-4.3,6.6c0,7.1,0,14.2,0,21.2
			c0,0.9-0.3,1.2-1.1,1.1c-1.2-0.1-2.8,0.5-3.5-0.2s-0.2-2.2-0.2-3.4c0-13.8,0-27.6,0-41.4c0-0.9,0.1-1.4,1.2-1.2
			c0.9,0.1,1.7,0.1,2.6,0c0.8-0.1,1,0.2,1,1c0,4.7,0,9.4,0,14.1v1.4c2.9-3.6,6.4-4.6,10.5-3.9c2.3,0.3,4.3,1.8,5.1,4
			C92.5,255.3,92.9,257.8,92.8,260.2"/>
		<path d="M121.8,258.9c0,7.6,0,15.3,0.1,22.9c0,0.8-0.3,0.9-0.9,0.8c-0.9-0.1-1.9-0.1-2.8,0c-0.9,0.1-1-0.3-1-1.1
			c0-6.5,0-13.1,0-19.7c0-1.5-0.1-2.9-0.4-4.4c-0.9-4.1-4.7-5.8-8.2-3.5c-2.2,1.2-3.5,3.6-3.5,6.1c0.1,7,0,14.1,0,21.1
			c0,1.2-0.4,1.5-1.4,1.4c-0.9-0.1-1.8-0.1-2.7,0c-0.5,0-0.7-0.2-0.7-0.7c0-0.2,0-0.4,0-0.6c0-10.2,0-20.4,0-30.6
			c0-0.9,0.2-1.2,1.2-1.2c2.3,0.1,2.3,0,2.9,2.3c0.1,0.4,0.2,0.8,0.4,1.4c2.5-3.4,6.7-5.1,10.8-4.2c2.4,0.3,4.4,1.9,5.2,4.1
			C121.5,255,121.9,256.9,121.8,258.9"/>
		<path d="M134.8,253.4c0,4.3,0,8.6,0,12.9c0,5.1,0,10.2,0,15.2c0,1-0.3,1.2-1.2,1.1c-0.8-0.1-1.7-0.1-2.5,0
			c-0.9,0.1-1.1-0.2-1.1-1.1c0-7.6,0-15.1,0-22.7c0-2.7,0-5.4,0-8.1c0-0.8,0.1-1.2,1-1.1c1.2,0.1,2.9-0.5,3.6,0.3
			S134.7,252.2,134.8,253.4"/>
		<path d="M135.8,239.6c0.1,1.8-1.2,3.3-3,3.4c-0.1,0-0.3,0-0.4,0c-1.7,0.1-3.2-1.3-3.3-3c0-0.1,0-0.2,0-0.4c-0.1-1.8,1.2-3.4,3-3.5
			c0.1,0,0.1,0,0.2,0c1.8,0,3.4,1.4,3.4,3.3C135.8,239.5,135.8,239.5,135.8,239.6"/>
		<path d="M159.5,277.2c-0.7,3-2.9,4.8-5.8,5.8c-0.4,0.1-1,0-1.3,0.5c0.2-0.8,0.9-0.6,1.5-0.8c3.1-0.9,5.3-3.6,5.7-6.8
			c0.6-4.5-1.2-8.1-4.9-10.7c-1.5-1.1-3.1-2-4.6-3c-0.9-0.6-1.7-1.5-2.3-2.4c-1.4-2-0.9-4.7,1.1-6.1c0.7-0.5,1.6-0.8,2.5-0.8
			c2-0.1,3.9,0.2,5.7,1c0.8,0.3,1.1,0.1,1.3-0.6l0,0l0,0v0c0.9-2.6,0.9-2.6-1.8-3.4c-2.6-0.8-5.3-0.9-7.9-0.4
			c-3.5,0.7-5.6,3.4-5.7,7.5c-0.2,3.1,1.3,6.1,3.8,8c1,0.7,2,1.4,3.1,2c1.5,0.8,2.8,1.8,4,3c1.1,1.1,1.7,2.6,1.8,4.2
			c0.3,2.6-1.6,5-4.2,5.3c-0.2,0-0.5,0-0.7,0c-2.1,0.1-4.1-0.4-6-1.2c-1.2-0.5-1.2-0.5-1.7,0.8c-0.9,2.5-0.9,2.5,1.7,3.3
			c0.6,0.2,1.2,0.3,1.7,0.5c0.3,0.1,0.8,0.1,0.8,0.6c-1.2-0.6-2.6-0.7-3.9-1.3c-1.5-0.7-1.5-0.7-1-2.2c0.3-0.8,0.4-2,1-2.5
			s1.5,0.5,2.4,0.8c1.5,0.5,3,0.8,4.5,0.8c1.9-0.1,3.8-0.5,4.7-2.4c0.9-1.9,0.7-4.1-0.5-5.8c-1.4-1.7-3.1-3.1-5.1-4
			c-1.9-1-3.6-2.3-4.9-4.1c-2.1-3-2.3-6.9-0.6-10.2c1-1.9,2.8-3.3,5-3.5c3.3-0.6,6.7-0.3,9.8,1c0.7,0.3,1.1,0.6,0.7,1.5
			s-0.4,2.2-1,2.7s-1.7-0.5-2.6-0.7c-1.3-0.3-2.7-0.5-4-0.5c-1.5,0.1-3,0.3-3.7,1.9c-0.8,1.6-0.6,3.6,0.5,5c0.8,0.9,1.7,1.7,2.7,2.3
			c1.9,1.1,3.7,2.3,5.4,3.7C159.7,269.2,160.6,273,159.5,277.2"/>
		<path d="M183.5,279.4c0.6,1.8,0.6,1.8-1.1,2.7c-1.3,0.7-2.8,0.8-4.1,1.4c0.1-0.7,0.7-0.6,1.1-0.7c1.1-0.3,2.2-0.7,3.3-1.2
			c0.6-0.2,0.9-0.9,0.7-1.5c0,0,0-0.1-0.1-0.1c-0.7-2-0.7-2-2.6-1.2c-1.6,0.7-3.3,0.9-5,0.7c-3.2-0.6-4.8-2.8-5.7-5.6
			c-1-3.1-1.3-6.4-1-9.7c0.1-1.6,0.3-3.1,0.6-4.7c1.5-5.7,5.1-7.8,10.7-5.8c1.8,0.6,1.8,0.6,2.3-1.3c0.5-1.6,0.4-1.7-1.2-2.3
			c-2.1-0.7-4.4-1-6.7-0.8c-3.3,0.3-6.2,2.2-7.8,5.1c-1.4,2.7-2.2,5.7-2.3,8.8c-0.3,3.3-0.1,6.7,0.5,10c0.3,1.9,1,3.8,2,5.5
			c1.1,2,3,3.5,5.3,4.1c0.4,0.1,0.9,0.1,1,0.7c-0.1-0.1-0.1-0.2-0.2-0.2c-4.1-0.8-6.5-3.6-7.6-7.4c-1.9-6.2-1.9-12.8,0-19
			c1.1-3.7,3.4-6.7,7.4-7.6c3.3-0.7,6.7-0.4,9.7,0.9c0.6,0.3,0.8,0.5,0.5,1.2c-0.4,1-0.4,2.3-1,2.9s-1.8-0.6-2.8-0.7
			c-0.7-0.1-1.3-0.3-2-0.4c-3.1-0.6-6.1,1.3-7,4.3c-1.1,3.2-1.5,6.6-1.2,10c0,2.1,0.4,4.1,1,6.1c1.8,5.4,6.6,7.1,11.4,4.2
			c0.8-0.5,1.1-0.5,1.3,0.4C183.3,278.7,183.4,279,183.5,279.4"/>
		<path d="M211,260.2c0.1,7.2,0,14.4,0,21.6c0,0.7-0.3,0.9-0.9,0.9c-0.9-0.1-1.9-0.1-2.8,0c-0.9,0.1-1.1-0.3-1-1.1c0-6,0-12,0-18.1
			c0.1-2.1-0.1-4.2-0.6-6.3c-0.9-3.6-3.9-5.1-7.2-3.5c-2.7,1.1-4.4,3.7-4.3,6.6c0,7.1,0,14.2,0,21.3c0,0.8-0.2,1.1-1,1.1
			c-1-0.1-2-0.1-2.9,0c-0.7,0-0.8-0.2-0.8-0.8s0-1.2,0-1.8c0-14.1,0-28.2,0-42.4c0-1,0.2-1.3,1.2-1.2c0.9,0.1,1.7,0.1,2.6,0
			c0.8-0.1,1,0.2,1,1c0,5,0,10.1,0,15.1l0.3,0.2c0.1-0.2,0.1-0.3,0.2-0.5c2.9-3.3,6.6-4,10.7-3.1c2,0.4,3.6,1.8,4.4,3.7
			C210.7,255.2,211.2,257.7,211,260.2"/>
		<path d="M237.5,253.6c1.1,2.5,1.6,5.3,1.5,8c0,1.3-0.2,2.6-0.2,4c0,0.9-0.3,1.2-1.3,1.2c-4.8,0-9.7,0-14.6,0c-0.8,0-1.1,0.2-1,1
			c0,2.1,0.4,4.3,1.1,6.3c1.6,4.2,5.2,6,9.6,4.8c1.1-0.2,2.2-0.7,3.2-1.4c0.6-0.5,0.8-0.3,1,0.3c0.1,0.4,0.3,0.7,0.5,1
			c0.9,1.9,0.9,1.9-1,3c-1.4,0.7-2.8,1.2-4.3,1.5c-0.2,0-0.5-0.1-0.6,0.2c0.1-0.7,0.8-0.6,1.2-0.7c1.4-0.3,2.8-0.9,4.1-1.6
			c0.8-0.4,1-1,0.5-1.7l0,0l0,0v0c-0.8-1.7-0.8-1.7-2.5-0.9c-1.8,0.9-3.8,1.2-5.8,1c-2.6-0.3-4.9-2.1-5.9-4.5
			c-1-2.2-1.4-4.5-1.4-6.9c0-1.3,0.2-1.5,1.5-1.5c4.5,0,9,0,13.6,0c1.6,0,1.7-0.2,1.8-1.7c0.2-2.6,0.2-5.1-0.3-7.6
			c-0.3-1.8-1-3.6-2.2-5c-2.4-2.8-5.5-3.1-8.8-2.8c-4.8,0.5-7.3,3.6-8.8,7.9c-1.2,3.9-1.6,8-1.1,12.1c0.1,2.4,0.6,4.8,1.5,7
			c1.3,3.2,3.5,5.5,6.9,6.5c0.4,0.1,0.9,0.1,0.9,0.7c0-0.1-0.1-0.2-0.1-0.2c-5.2-1.1-7.7-4.7-8.8-9.5c-1.4-5.6-1.2-11.5,0.5-17
			c2.2-6.5,7.8-9.4,14.4-7.4C234.9,250,236.6,251.6,237.5,253.6"/>
		<path d="M280.7,256.8c1.7,5.9,1.7,12.1,0.1,18.1c-1.2,4.4-3.8,7.5-8.6,8.4c0,0-0.1,0.1-0.1,0.2c0-0.5,0.5-0.5,0.8-0.6
			c4.2-1.1,6.6-4,7.6-7.9c1.7-6.1,1.5-12.6-0.3-18.6c-1.8-5.7-6.5-7.7-11.9-7c-4.8,0.6-7.4,3.7-8.7,8.1c-0.7,2.4-1,4.9-1,7.4
			c-0.1,3.1,0.1,6.2,0.7,9.3c0.4,2.2,1.4,4.2,2.8,5.9c1.1,1.3,2.6,2.3,4.3,2.8c0.5,0.1,1.1,0.1,1.2,0.8c-0.1-0.4-0.4-0.2-0.7-0.3
			c-3.3-0.7-5.9-3.1-7-6.2c-1.3-3.5-1.8-7.3-1.7-11.1c-0.1-3.3,0.4-6.5,1.4-9.7c2-5.8,8.4-8.9,14.3-6.9c0.6,0.2,1.3,0.5,1.9,0.9
			C278.3,251.6,280.1,254,280.7,256.8"/>
		<path d="M309.9,281.6c0,0.8-0.2,1.2-1,1.1c-0.9-0.1-1.9-0.1-2.8,0c-0.8,0-0.9-0.2-0.9-1c0-6.2,0-12.5,0-18.8
			c0.1-2-0.1-3.9-0.5-5.8c-1-4-5.4-5.4-8.7-2.7c-1.9,1.4-3,3.6-3,5.9c0.1,7.1,0,14.2,0.1,21.2c0,0.8-0.2,1.2-1,1.1
			c-0.9-0.1-1.9-0.1-2.8,0c-0.7,0-1-0.2-1-1c0-4.6,0-9.2,0-13.8c0-5.8,0-11.5,0-17.3c0-0.8,0.2-1,1-1c2.5,0,2.5,0,3.1,2.4
			c0.1,0.4,0.2,0.7,0.3,1.1c0.4-0.1,0.5-0.4,0.7-0.6c3-3.3,6.7-4.3,11-3.2c3.3,0.8,4.6,3.4,5.2,6.4c0.3,1.7,0.5,3.4,0.5,5.2
			C309.9,267.8,309.9,274.7,309.9,281.6"/>
		<path d="M338.5,282.1c0.1,0.7-0.1,0.8-0.7,0.7h-0.1c-2.4,0-2.4,0-3-2.2c-0.2-0.5-0.3-1.1-0.5-1.6c-0.1,0-0.2,0-0.2,0
			c-1.3,2.3-3.5,3.9-6,4.5c0-0.5,0.5-0.5,0.8-0.7c1.8-0.5,3.4-1.6,4.4-3.2c0.2-0.4,0.5-0.9,1-0.7c0.5,0.1,0.6,0.6,0.7,1.1
			s0.3,1.1,0.4,1.6c0.1,0.5,0.5,0.8,1,0.8c1.6,0.2,1.8-0.1,1.6-1.6c-0.1-1-0.2-2-0.2-3c0-12.9,0-25.8,0-38.7c0-0.4,0-0.8,0-1.1
			c0.1-0.5-0.2-1-0.7-1.1c-0.1,0-0.2,0-0.3,0h-1.9c-1.2,0-1.3,0.1-1.3,1.3c0,3.3,0,6.6,0,9.9c0,2.2,0,2.2-2.2,1.8
			c-7.2-1.5-12,1.4-14.2,8.1c-0.2,0.8-0.4,1.5-0.5,2.3c-0.8,4.6-0.7,9.4,0.2,14c0.3,1.5,0.8,3,1.5,4.4c1,1.9,2.6,3.3,4.6,4
			c0.5,0.2,1.1,0.2,1.2,0.9c0-0.2-0.2-0.2-0.3-0.2c-3.5-0.9-5.6-3.2-6.7-6.6c-1.3-4.4-1.7-9-1.2-13.5c0.1-2,0.5-4.1,1.2-6
			c2.5-7.1,8.4-9.3,15.1-7.5c1,0.3,1.2,0.2,1.1-0.8c0-3.8,0-7.6,0-11.4c0-0.8,0.2-1.1,1-1c1,0.1,2,0.1,2.9,0c0.7,0,0.9,0.2,0.9,0.9
			c0,2,0,4.1,0,6.1c0,11.1,0,22.3,0.1,33.4C338.1,278.6,338.2,280.4,338.5,282.1"/>
		<path d="M365.9,256.6c0.6,3.2,0.7,6.4,0.2,9.5c-0.1,0.8-0.6,0.6-1.1,0.6c-4.9,0-9.7,0-14.6,0c-1,0-1.3,0.2-1.2,1.2
			c0.1,2,0.4,4,1,5.9c1.9,5.3,7.7,7.1,12.7,3.8l0.9-0.6c0.5,1,0.9,2,1.5,3c0.3,0.5,0,0.8-0.3,1c-1.7,1.2-3.6,2-5.7,2.3
			c-0.2,0-0.5-0.1-0.6,0.2c0.1-0.6,0.7-0.5,1-0.6c1.5-0.3,2.9-0.8,4.2-1.6c1.1-0.7,1.2-0.9,0.6-2.1c-0.7-1.5-0.7-1.5-2.2-0.8
			c-1.7,0.9-3.7,1.2-5.6,1.1c-2.4-0.1-4.6-1.5-5.8-3.6c-1.4-2.6-2-5.6-1.9-8.5c-0.1-0.4,0.2-0.8,0.6-0.8c0,0,0.1,0,0.1,0
			c0.4,0,0.8-0.1,1.2,0h13.3c1.4,0,1.4,0,1.5-1.4c0.5-3.2,0.3-6.4-0.6-9.5c-1.4-4.3-4-6.2-8.4-6.3c-5.2-0.1-9,2.5-10.8,7.6
			c-0.8,2.5-1.2,5-1.3,7.7c-0.2,3.3,0.1,6.6,0.9,9.8c1.1,4,3.2,7.2,7.5,8.5c0.4,0.1,0.9,0.1,0.9,0.7c-0.1-0.1-0.1-0.2-0.2-0.2
			c-4.8-1.1-7.3-4.5-8.5-9c-1.6-5.9-1.4-12.1,0.6-17.8c2.6-7.2,8.7-8.6,14.5-6.9C363.7,250.6,365.2,253.4,365.9,256.6"/>
		<path d="M386.9,250.2c-0.3,1.2-0.5,2.4-0.7,3.7c-0.1,0.6-0.3,0.6-0.8,0.4c-0.9-0.3-1.9-0.5-2.9-0.4c-2.6,0.2-4.6,2.5-4.6,5.1
			c0,7.5,0,14.9,0,22.4c0,1-0.3,1.4-1.3,1.3c-0.8-0.1-1.6-0.1-2.4,0c-0.9,0.1-1.1-0.2-1.1-1.1c0-6.2,0-12.4,0-18.6
			c0-4.1,0-8.1,0-12.2c0-0.8,0.2-1.1,1.1-1.1c2.3,0,2.3,0,2.9,2.3c0.1,0.4,0.2,0.8,0.4,1.4c0.3-0.5,0.5-0.9,0.8-1.2
			c2.2-3.3,5.2-3.4,8.4-2.5C386.9,249.7,386.9,249.9,386.9,250.2"/>
		<path d="M408.1,278.9c-0.6,0.8-1,1.5-1.6,2.1c-1.2,1.1-2.7,2-4.3,2.4c0-0.5,0.5-0.5,0.8-0.6c1.8-0.6,3.3-1.8,4.3-3.3
			C407.4,279.2,407.6,278.8,408.1,278.9"/>
		<path d="M412.4,282.1c0,0.2,0.2,0.6-0.1,0.6c-0.9,0.1-1.9,0.1-2.8,0.1c-0.6,0-0.5-0.7-0.6-1.1c-0.3-0.9-0.5-1.8-0.8-2.8
			c0.3,0.1,0.4,0.5,0.5,0.8c0.2,0.6,0.3,1.2,0.5,1.9c0.5,0.9,1.6,1.2,2.6,0.7c0.2-0.2,0.2-0.5,0.2-0.7c-0.6-14.2-0.1-28.4-0.3-42.6
			c0-0.4,0-0.8,0-1.2c0-0.7-0.3-1-1-1s-1.3,0-1.9,0c-0.9,0-1.2,0.4-1.2,1.2c0,3.3,0,6.6,0,10c0,2.4,0,2.4-2.3,1.9
			c-3.5-0.8-6.9-0.6-9.9,1.6c-1.8,1.3-3.2,3.2-3.9,5.3c-1.4,4.1-1.8,8.4-1.4,12.7c0.1,2.7,0.6,5.4,1.6,7.9c0.9,2.5,2.8,4.4,5.2,5.3
			c0.4,0.1,1,0.2,1.1,0.8c0-0.2-0.3-0.2-0.4-0.3c-3.1-0.8-5.5-3.1-6.4-6.1c-1.5-4.3-1.7-8.8-1.4-13.3c0.1-2.6,0.6-5.1,1.5-7.5
			c2.7-6.5,8.5-8.4,14.8-6.6c1.2,0.3,1.2,0,1.2-0.9c0-3.8,0-7.5,0-11.3c0-0.9,0.2-1.1,1.1-1c0.9,0.1,1.9,0.1,2.8,0
			c0.8-0.1,1,0.2,0.9,1c0,1.2,0,2.5,0,3.7c0,11.9,0,23.8,0,35.7C412.1,278.7,412.2,280.4,412.4,282.1"/>
		<path d="M439.8,256.2c0.7,3.3,0.8,6.7,0.3,10c-0.1,0.8-0.6,0.5-1,0.5c-4.9,0-9.7,0-14.6,0c-1,0-1.3,0.2-1.2,1.2
			c0.1,1.6,0.3,3.2,0.7,4.8c1.7,6.3,7.8,8.5,13.1,4.8c0.7-0.5,0.9-0.4,1.2,0.3c0.2,0.5,0.4,1,0.7,1.5c0.7,0.9,0.3,1.4-0.5,2
			c-1.6,1-3.4,1.7-5.2,2c-0.2,0-0.5,0-0.6,0.2c0.1-0.6,0.7-0.5,1-0.6c1.5-0.3,2.9-0.8,4.2-1.6c0.9-0.8,1.1-2.1,0.3-3.1
			c-0.1-0.2-0.3-0.3-0.4-0.4c-0.4-0.2-0.6,0.1-0.9,0.2c-1.4,0.9-3,1.4-4.7,1.5c-3.7,0.4-7.1-1.9-8.2-5.5c-0.7-2-1.1-4-1-6.1
			c0-1.3,0.2-1.5,1.6-1.5c4.5,0,9,0,13.6,0c1.5,0,1.5,0,1.7-1.4c0.4-3,0.3-6-0.4-8.9c-1.4-5.4-4.9-7.4-10.6-6.8
			c-5.1,0.5-7.9,3.8-9.2,8.5c-1.6,5.6-1.5,11.5,0.1,17.1c1.1,3.9,3.4,6.9,7.5,8c0.3,0.1,0.8,0.1,0.8,0.6c0-0.1-0.1-0.2-0.1-0.2
			c-5-1-7.6-4.5-8.7-9.1c-1.5-5.8-1.3-11.8,0.5-17.5c2.4-7,8.2-8.9,14.4-7.2C437.4,250.4,439,253.1,439.8,256.2"/>
		<path d="M458.1,281.1c0.3,0.6,0,1.3-0.6,1.5c-0.1,0.1-0.3,0.1-0.4,0.1c-0.9,0.3-1.8,0.5-2.8,0.5c0,0.1,0,0.1,0,0.2
			c0-0.1,0-0.1,0-0.2l0,0c0-0.1,0.1-0.1,0.1-0.2c0.7-0.3,1.5-0.5,2.3-0.6c0.5-0.2,1-0.3,1-0.9c0.1-0.8-0.1-1.6-0.4-2.3
			c-0.2-0.2-0.5-0.1-0.7-0.1s-0.7,0.2-1.1,0.2c-1.5,0.4-2.9-0.5-3.3-2c0-0.1,0-0.1,0-0.2c-0.3-1.1-0.4-2.1-0.4-3.2
			c0-11.7,0-23.5,0-35.2c0-2,0-2-2-2h-0.6c-1.3,0-1.5,0.1-1.5,1.5c0,6.7,0,13.3,0,20c0,5.8,0,11.5,0,17.3c0,1.1,0.1,2.1,0.2,3.1
			c0.2,1.7,1.2,3.2,2.8,3.9c0.4,0.2,0.9,0.3,0.9,0.9v-0.1c-3.3-0.9-4.2-3.5-4.2-6.5c0-13.2,0-26.4,0-39.5c0-0.8,0.3-0.9,0.9-0.9
			c1.2,0.1,2.8-0.4,3.6,0.2s0.2,2.3,0.2,3.5c0,11.3,0,22.7,0,34c0,0.9,0,1.9,0.2,2.8c0.3,1.6,1.3,2.2,3,2c0.8-0.1,1.8-0.9,2.4-0.3
			c0.6,0.5,0.2,1.6,0.4,2.4"/>
		<path d="M482.6,256.5c0.6,3.2,0.7,6.4,0.2,9.6c-0.1,0.8-0.6,0.6-1.1,0.6c-4.8,0-9.7,0-14.6,0c-1.1,0-1.3,0.4-1.2,1.3
			c0.1,1.5,0.3,2.9,0.6,4.4c1.5,6.5,7.7,8.9,13.2,5.1c0.2-0.2,0.5-0.3,0.8-0.6c0.5,0.9,0.9,1.9,1.4,2.7c0.3,0.6,0.2,0.9-0.3,1.3
			c-1.7,1.2-3.6,1.9-5.6,2.2c-0.2,0-0.5-0.1-0.6,0.2c0.1-0.6,0.7-0.5,1-0.6c1.5-0.3,2.9-0.9,4.2-1.6c1.1-0.7,1.2-0.9,0.6-2.1
			c-0.8-1.6-0.8-1.6-2.3-0.8c-1.2,0.6-2.6,1-4,1.2c-3.5,0.4-6.9-1.6-8.1-5c-0.7-2.2-1.2-4.4-1.2-6.7c-0.1-0.9,0.4-1.2,1.2-1.2
			c1.7,0,3.5,0,5.2,0h8.9c1.5,0,1.4,0,1.6-1.5c0.3-2.3,0.3-4.7,0-7c-0.5-3.3-1.6-6.4-4.8-7.8c-4-1.9-9.7-1.3-12.9,2.8
			c-1.4,1.9-2.4,4.1-2.8,6.4c-1.1,5.1-0.9,10.3,0.4,15.3c0.7,2.9,2.4,5.4,4.9,7.1c0.8,0.4,1.6,0.7,2.4,1c0.4,0.2,0.9,0.2,1,0.8
			c-0.1-0.1-0.1-0.2-0.2-0.2c-4.8-1.1-7.3-4.4-8.4-8.9c-1.5-5.6-1.4-11.6,0.3-17.2c2.1-6.7,7.6-9.7,14.4-7.8
			C480.2,250.4,481.8,253.2,482.6,256.5"/>
		<path d="M1.1,219.9H0c0.3-0.3,0.7-0.4,1.2-0.4h507.7c0.9,0,1.8-0.2,2.6,0.4H1.1z"/>
		<path d="M489.9,251.7v28.9c0,1.8,0.1,1.8,1.9,1.8c2.6,0,2.4,0.2,2.4-2.5c0-6.8,0-13.5,0-20.3c0.2-3.9,3.5-7,7.4-6.8
			c0.3,0,0.7,0.1,1,0.1c1.4,0.3,2.6,1.2,3.2,2.5c0.8,1.7,1.1,3.6,1.1,5.5c0,6.5,0,13.1,0,19.7c-0.1,0.5,0,1.1,0.2,1.5
			c0,0,0.1,0.1,0.1,0.1c0.4,0.4,0.9,0.2,1.4,0.2c0.8,0,1.6,0,2.3,0c0.2,0.1,0.4,0.1,0.6,0.3c-1.4,0-2.7,0-4.1,0
			c-0.3,0-0.7,0.2-0.9-0.3c0-6.9,0-13.7,0-20.6c0-1.5-0.1-3-0.4-4.5c-0.9-3.9-4-5.5-7.6-3.7c-2.5,1.1-4.1,3.6-4,6.3
			c0,7.1,0,14.3,0,21.5c0,0.9-0.2,1.3-1.2,1.2c-0.9-0.1-1.8-0.1-2.7,0c-0.8,0-1-0.2-1-1c0-2.4,0-4.8,0-7.1c0-7.9,0-15.9,0-23.8
			c0-0.9,0.2-1.2,1.1-1.1c2.3,0,2.3,0,2.9,2.3c0.1,0.4,0.2,0.7,0.3,1.1c0.4,0.1,0.5-0.3,0.7-0.5c2.8-3.3,7.4-4.6,11.5-3.2
			c1.8,0.6,3.3,2,4,3.9c0.7,1.9,1.1,4,1.2,6.1c0.1,0,0.1,0,0.2,0c-0.1,0-0.1,0-0.2,0l0,0c-0.1,0-0.1-0.1-0.1-0.1
			c-0.1-0.3-0.2-0.6-0.2-0.9c-0.1-0.6-0.2-1.2-0.2-1.8c-1-6.6-7.3-9.5-13-6c-1,0.6-1.9,1.4-2.8,2.3c-0.7,0.8-1.1,0.7-1.4-0.3
			c-0.2-0.5-0.3-1.1-0.4-1.6c-0.1-0.5-0.6-0.9-1.1-0.9C490.2,249.7,489.9,249.9,489.9,251.7"/>
		<path d="M241.9,182.5c0,1.1-0.2,1.4-1.3,1.4c-19.1,0-38.3,0-57.4,0c-0.7,0.1-1.5-0.3-1.8-1c-27.9-51.6-55.8-103.2-83.7-154.8
			c-0.3-0.8-1.1-1.3-2-1.2c-4.5,0.1-9,0.1-13.6,0c-1,0-1.2,0.3-1.2,1.2c0,49.6,0,99.2,0,148.7c0,2,0,4.1,0,6.1
			c0,0.6-0.1,0.9-0.9,0.9c-8.4,0-16.8,0-25.2,0c-0.7,0-1-0.2-0.9-0.9c0-0.3,0-0.6,0-0.9V0.6c0-0.2,0-0.4,0-0.6H117
			c0.6,0.4,1,1,1.3,1.7c5.2,9.6,10.3,19.2,15.5,28.7l15.4,28.4c4.7,8.7,9.5,17.5,14.2,26.2l13.8,25.4c3.8,6.9,7.5,13.8,11.2,20.8
			c4.4,8.1,8.8,16.2,13.2,24.3c0.3,0.6,0.9,1,1.6,1c3.4,0,6.8,0,10.3,0c0.8,0,1.1-0.3,1.1-1.1c0-0.4,0-0.8,0-1.2
			c0-50.7,0-101.4,0-152.2c0-0.7-0.2-1.4,0.3-2.1h26.9v85.3C241.9,117.7,241.9,150.1,241.9,182.5"/>
		<path d="M457.3,46.5c0-0.8-0.3-1.6-0.9-2.2c-14.5-14.5-29.1-29-43.6-43.5c-0.3-0.3-0.5-0.6-0.8-0.8H269c0,0.4,0,0.9,0,1.4v77.8
			c0,34.5,0,69,0,103.5c0,0.8,0,1.3,1.1,1.3c47,0,94,0,141,0c0.6,0,1.3-0.2,1.7-0.7c14.5-14.3,29.1-28.7,43.6-43
			c0.6-0.5,0.9-1.3,0.9-2.1C457.3,107.5,457.3,77,457.3,46.5 M430.4,126.4c0,0.7-0.2,1.3-0.7,1.8c-9.4,9.3-18.8,18.7-28.1,28.1
			c-0.4,0.5-1.1,0.7-1.7,0.7c-34.2,0-68.5,0-102.7,0c-1,0-1.2-0.2-1.2-1.2c0-21.2,0-42.5,0-63.7s0-42.5,0-63.8c0-1,0.2-1.3,1.3-1.3
			c34.2,0,68.4,0,102.6,0c0.7,0,1.4,0.3,1.9,0.8c9.3,9.3,18.7,18.6,28,27.9c0.5,0.5,0.8,1.2,0.8,1.9
			C430.4,80.4,430.4,103.4,430.4,126.4"/>
		<path d="M214.9,155.5c0,1.6,0.2,1.5-1.4,1.5c-3.4,0-6.9,0-10.3,0c-0.7,0.1-1.4-0.3-1.7-1c-20.9-38.6-41.8-77.2-62.7-115.8L117.1,0
			c0.6,0.4,1,1,1.3,1.7c5.2,9.6,10.3,19.2,15.5,28.7l15.4,28.4c4.7,8.7,9.5,17.5,14.2,26.2l13.8,25.4c3.8,6.9,7.5,13.8,11.2,20.8
			c4.4,8.1,8.8,16.2,13.2,24.3c0.3,0.6,0.9,1,1.6,1c3.4,0,6.8,0,10.3,0c0.8,0,1.1-0.3,1.1-1.1c0-0.4,0-0.8,0-1.2
			c0-50.7,0-101.4,0-152.2c0-0.7-0.2-1.4,0.3-2.1c0,0.5,0,1,0,1.5L214.9,155.5"/>
		<path d="M26.9,0c0,30.8,0,61.6,0,92.4c0,30,0,60,0,90.1c0,1.2-0.3,1.4-1.4,1.4c-8.1,0-16.2,0-24.3,0c-0.4,0-0.8,0-1.2-0.1V0H26.9z
			"/>
		<path d="M511.5,183.8c-0.3,0-0.6,0.1-0.9,0.1c-8.3,0-16.6,0-25,0c-0.8,0-1.1-0.2-1.1-1c0-60.9,0-121.9,0-182.8
			c8.6,0,17.2,0,25.9,0c0.8,0,1,0.2,1,1C511.4,61.9,511.4,122.8,511.5,183.8"/>
		<path d="M511.5,211.1v8.8H0v-8.8H511.5"/>
		<path d="M338.5,282.1c-0.3-1.7-0.4-3.4-0.4-5.2c0-11.2,0-22.3-0.1-33.5c0-2,0-4.1,0-6.1c0-0.7-0.2-0.9-0.9-0.9c-1,0.1-2,0.1-2.9,0
			c-0.8-0.1-1,0.2-1,1c0,3.8,0,7.6,0,11.4c0,1-0.2,1.1-1.1,0.8c-6.6-1.9-12.6,0.3-15.1,7.5c-0.7,1.9-1.1,4-1.2,6
			c-0.5,4.5,0,9.1,1.2,13.5c1.1,3.3,3.1,5.7,6.7,6.6c0.2,0,0.3,0.1,0.3,0.2h3.8c2.5-0.6,4.7-2.2,6-4.5c0,0,0.1,0,0.2,0
			c0.2,0.5,0.3,1.1,0.5,1.6c0.6,2.3,0.6,2.3,3,2.2h0.1C338.3,282.9,338.5,282.8,338.5,282.1 M325.7,279c-1.7-0.5-3-1.8-3.6-3.5
			c-0.8-2.1-1.3-4.3-1.4-6.6c-0.3-3.4,0-6.8,0.9-10.1c0.8-2.6,2.2-4.7,5.1-5.3c1.9-0.4,3.8-0.2,5.5,0.7c0.6,0.3,1,0.9,0.9,1.6
			c0,2.9,0,5.8,0,8.7s0.1,5.7,0,8.5C333.1,276.4,330.5,280.1,325.7,279"/>
		<path d="M412.4,282.1c-0.2-1.8-0.4-3.5-0.4-5.3c0-11.9,0-23.8,0-35.7c0-1.2,0-2.5,0-3.7c0-0.7-0.2-1-0.9-1c-0.9,0.1-1.9,0.1-2.8,0
			c-0.8-0.1-1.1,0.2-1.1,1.1c0,3.8,0,7.5,0,11.3c0,1,0,1.2-1.2,0.9c-6.3-1.8-12,0.1-14.8,6.6c-0.9,2.4-1.4,4.9-1.5,7.5
			c-0.2,4.5-0.1,9,1.4,13.3c0.9,3,3.3,5.4,6.4,6.1c0.2,0,0.4,0,0.4,0.3h4.1c1.6-0.5,3.1-1.3,4.3-2.4c0.6-0.6,1-1.4,1.6-2.2
			c0,0,0.1-0.1,0.1-0.1c0,0.1,0,0.1,0,0.2c0.3,1,0.5,1.9,0.8,2.8c0.1,0.4,0,1,0.6,1.1c0.9,0,1.9,0,2.8-0.1
			C412.5,282.7,412.4,282.3,412.4,282.1 M399.6,278.9c-1.6-0.5-2.9-1.7-3.4-3.2c-0.9-2.1-1.4-4.4-1.5-6.7c-0.4-3.4-0.1-6.8,0.8-10.1
			c0.8-2.6,2.2-4.9,5.1-5.4c1.9-0.4,4-0.2,5.7,0.8c0.5,0.3,0.9,0.8,0.8,1.4c0,2.9,0,5.7,0,8.6s0.1,5.7,0,8.6
			C407,276.7,404.1,280,399.6,278.9"/>
		<path d="M280.7,256.8c-0.6-2.8-2.4-5.2-4.9-6.6c-5.4-3.1-12.2-1.2-15.3,4.1c-0.3,0.6-0.6,1.2-0.9,1.9c-1,3.1-1.5,6.4-1.4,9.7
			c-0.2,3.8,0.4,7.5,1.7,11.1c1.1,3.1,3.7,5.5,7,6.2c0.2,0.1,0.6,0,0.7,0.3h4.5c0-0.1,0.1-0.2,0.1-0.2c4.8-0.9,7.4-4,8.6-8.4
			C282.4,269,282.3,262.8,280.7,256.8 M265.5,276.9c-1.5-2.1-1.9-4.6-2.2-7.1c-0.1-1.2,0-2.4,0-3.6c-0.2-2.8,0.1-5.6,0.9-8.2
			c1.2-3.6,4.1-5.3,7.4-4.4c1.6,0.5,2.9,1.7,3.6,3.2c0.9,1.9,1.4,4,1.5,6.1c0.4,3.6,0.2,7.2-0.6,10.8c-0.2,1.1-0.7,2.2-1.3,3.2
			c-1.7,2.6-5.2,3.3-7.8,1.6C266.4,277.9,265.9,277.4,265.5,276.9"/>
		<path d="M40.9,256c-0.9-3.1-2.4-5.6-5.7-6.6c-6.7-1.9-12.3,1-14.4,7.6c-1.8,5.7-1.9,11.9-0.2,17.7c1.2,4.3,3.7,7.5,8.4,8.5
			c0.1,0,0.1,0.2,0.2,0.2h4.8c0.1-0.3,0.4-0.2,0.6-0.2c1.7-0.3,3.3-0.9,4.8-1.8c1.4-0.9,1.4-0.9,0.7-2.4c-0.2-0.5-0.5-1-0.7-1.5
			c-0.2-0.5-0.5-0.5-0.9-0.2c-0.9,0.7-2,1.2-3.1,1.5c-4.5,1.2-8.2-0.6-9.8-4.9c-0.6-2-1-4.1-1.1-6.2c-0.1-0.9,0.2-1,1-1
			c4.9,0,9.9,0,14.8,0c0.5,0,1,0.1,1-0.7C41.6,262.7,41.8,259.3,40.9,256 M25.3,262.7c-0.6,0-0.8-0.2-0.8-0.8c0.1-1.7,0.5-3.4,1.2-5
			c0.7-1.8,2.3-3.1,4.2-3.6c2.6-0.7,5.3,0.7,6.1,3.3c0.6,1.7,0.9,3.6,0.9,5.4c0,0.7-0.3,0.7-0.8,0.7h-5.4
			C28.9,262.7,27.1,262.7,25.3,262.7"/>
		<path d="M365.9,256.6c-0.8-3.2-2.2-6-5.6-7.1c-5.7-1.7-11.9-0.3-14.5,6.9c-2,5.7-2.1,11.9-0.6,17.8c1.1,4.5,3.6,7.9,8.5,9
			c0.1,0,0.1,0.1,0.2,0.2h4.8c0.1-0.3,0.4-0.2,0.6-0.2c2.1-0.3,4-1.1,5.7-2.3c0.3-0.2,0.7-0.5,0.3-1c-0.5-0.9-1-1.9-1.5-3l-0.9,0.6
			c-5,3.3-10.8,1.5-12.7-3.8c-0.6-1.9-0.9-3.9-1-5.9c-0.1-1,0.2-1.2,1.2-1.2c4.8,0.1,9.7,0,14.6,0c0.4,0,1,0.2,1.1-0.6
			C366.6,262.9,366.5,259.7,365.9,256.6 M349.4,261.7c0.2-1.8,0.6-3.6,1.4-5.2c0.8-1.7,2.4-3,4.3-3.3c2.3-0.5,4.6,0.6,5.6,2.7
			c0.8,1.9,1.2,4,1.1,6.1c0,0.6-0.3,0.6-0.7,0.5h-5.5c-1.8,0-3.5,0-5.3,0C349.5,262.7,349.3,262.4,349.4,261.7"/>
		<path d="M482.6,256.5c-0.8-3.3-2.3-6.2-5.9-7.2c-6.8-1.9-12.3,1-14.4,7.8c-1.7,5.6-1.8,11.5-0.3,17.2c1.1,4.5,3.6,7.8,8.4,8.9
			c0.1,0,0.1,0.1,0.2,0.2h4.8c0.1-0.3,0.4-0.2,0.6-0.2c2-0.3,3.9-1.1,5.6-2.2c0.5-0.4,0.7-0.7,0.3-1.3c-0.5-0.9-0.9-1.8-1.4-2.7
			c-0.3,0.2-0.5,0.4-0.8,0.6c-5.5,3.7-11.7,1.3-13.2-5.2c-0.3-1.4-0.5-2.9-0.6-4.4c-0.1-1,0.1-1.3,1.2-1.3c4.9,0.1,9.7,0,14.6,0
			c0.5,0,1,0.2,1.1-0.6C483.2,262.9,483.1,259.7,482.6,256.5 M466.1,261.9c0.1-1.9,0.6-3.7,1.4-5.4c1.1-2.3,3.5-3.6,6-3.4
			c2.2,0.2,3.8,1.8,4.5,4.4c0.3,1.4,0.5,2.9,0.5,4.4c0,0.6-0.2,0.8-0.8,0.8c-1.8,0-3.7,0-5.5,0s-3.6,0-5.4,0
			C466.2,262.7,466,262.5,466.1,261.9"/>
		<path d="M237.5,253.6c-0.9-2-2.6-3.6-4.8-4.2c-6.6-2-12.2,0.9-14.4,7.4c-1.7,5.5-1.9,11.4-0.5,16.9c1.1,4.8,3.6,8.4,8.8,9.5
			c0,0,0.1,0.1,0.1,0.2h4.8c0.1-0.3,0.4-0.2,0.6-0.2c1.5-0.3,3-0.8,4.3-1.5c1.9-1.1,1.9-1.1,1-3c-0.2-0.3-0.3-0.7-0.5-1
			c-0.2-0.6-0.5-0.8-1-0.3c-0.9,0.7-2,1.2-3.2,1.4c-4.5,1.2-8-0.6-9.6-4.8c-0.7-2-1-4.2-1.1-6.3c-0.1-0.9,0.2-1,1-1
			c4.9,0,9.7,0,14.6,0c1,0,1.2-0.3,1.3-1.2c0-1.3,0.2-2.6,0.2-4C239.2,259,238.7,256.2,237.5,253.6 M222.8,262.8
			c-0.3,0-0.8,0.1-0.7-0.5c0.1-2.1,0.7-4.2,1.7-6.1c0.9-1.6,2.5-2.7,4.4-2.9c2.4-0.4,4.8,1.1,5.6,3.4c0.6,1.7,0.9,3.6,0.8,5.4
			c0,0.6-0.3,0.6-0.8,0.6L222.8,262.8"/>
		<path d="M439.8,256.2c-0.8-3.1-2.3-5.8-5.7-6.8c-6.2-1.7-12,0.2-14.4,7.2c-1.8,5.7-2,11.7-0.5,17.5c1.1,4.7,3.7,8.1,8.7,9.1
			c0,0,0.1,0.1,0.1,0.2h4.5c0.1-0.3,0.4-0.2,0.6-0.2c1.9-0.3,3.6-1,5.2-2c0.8-0.5,1.2-1,0.5-2c-0.3-0.5-0.6-1-0.7-1.5
			c-0.3-0.7-0.5-0.8-1.2-0.3c-5.3,3.7-11.4,1.5-13.1-4.8c-0.4-1.6-0.6-3.2-0.7-4.8c-0.1-1,0.2-1.2,1.2-1.2c4.9,0.1,9.7,0,14.6,0
			c0.4,0,0.9,0.3,1-0.5C440.6,262.9,440.5,259.5,439.8,256.2 M424,262.7c-0.5,0-0.7-0.1-0.7-0.7c0.1-1.8,0.6-3.6,1.3-5.3
			c0.7-1.6,2.2-2.9,3.9-3.3c2.7-0.9,5.6,0.6,6.4,3.3c0,0.1,0,0.2,0.1,0.2c0.5,1.7,0.8,3.4,0.7,5.1c0,0.6-0.2,0.7-0.7,0.7
			c-1.8,0-3.7,0-5.5,0S425.9,262.7,424,262.7"/>
		<path d="M159.5,277.2c-0.7,3-2.9,4.8-5.8,5.8c-0.4,0.1-1,0-1.3,0.5h-3.8c-0.4-0.2-0.9-0.2-1.4,0h-0.2c-1.2-0.6-2.6-0.7-3.9-1.3
			c-1.5-0.7-1.5-0.7-1-2.2c0.3-0.9,0.4-2,1-2.5s1.5,0.5,2.4,0.8c1.5,0.5,3,0.8,4.5,0.8c1.9-0.1,3.8-0.5,4.7-2.4
			c0.9-1.9,0.7-4.1-0.5-5.8c-1.4-1.7-3.1-3.1-5.1-4c-1.9-1-3.6-2.3-4.9-4.1c-2.1-3-2.3-6.9-0.6-10.2c1-1.9,2.8-3.3,5-3.5
			c3.3-0.6,6.7-0.3,9.8,1c0.7,0.3,1.1,0.6,0.7,1.5s-0.4,2.2-1,2.7s-1.7-0.5-2.6-0.7c-1.3-0.3-2.7-0.5-4-0.5c-1.5,0.1-3,0.3-3.7,1.9
			c-0.8,1.6-0.6,3.6,0.5,5c0.8,0.9,1.7,1.7,2.7,2.4c1.9,1.1,3.7,2.3,5.4,3.7C159.7,269.2,160.6,273,159.5,277.2"/>
		<path d="M14.9,282.7c-1,0.3-1.9,0.5-2.9,0.8h-0.5c-0.8-0.2-1.7-0.2-2.5,0H8.6c-2.9-0.4-4-2.5-4.5-5c-0.2-1.1-0.3-2.2-0.3-3.2
			c0-6.4,0-12.7,0-19.1c0-1.6,0-1.6-1.6-1.6c-0.7,0-1.4,0.2-2.1-0.3v-4.6c1.2,0.1,2.3,0.1,3.5,0.1c0.6,0,0.6-0.3,0.6-0.7
			c0-1.7,0-3.3,0-5c-0.1-0.5,0.2-1,0.8-1.1c0,0,0,0,0.1,0c1.3-0.4,2.6-0.8,4-1.2c0,0.9,0,1.7,0,2.6c-0.1,1.8,0,3.6,0.1,5.4l5.3,0.1
			c0.3,0,0.5,0,0.8,0c0.7-0.1,1,0.1,0.9,0.9c0,0.9,0,1.8,0,2.7c0,0.6-0.2,0.8-0.8,0.8c-1.8,0-3.6,0-5.4,0c-0.6,0-0.9,0.1-0.9,0.8
			c0,6.6,0,13.3,0.1,19.9c0,4,1.9,5.2,5.7,3.9c1.6-0.5,1.6-0.5,2,1.1C17.1,281.9,17.1,282,14.9,282.7"/>
		<path d="M64.3,282c-1.4,0.6-2.9,1.1-4.4,1.4h-4.5c0-0.1-0.1-0.2-0.1-0.2c-4.8-1-7.1-4.3-8.1-8.7c-1.5-5.8-1.4-11.9,0.3-17.6
			c1.2-3.8,3.4-6.8,7.5-7.7c3.3-0.7,6.7-0.4,9.7,0.9c0.6,0.3,0.7,0.6,0.5,1.2c-0.4,1-0.4,2.3-1.1,2.9s-1.8-0.5-2.7-0.7
			c-1.2-0.3-2.4-0.4-3.6-0.4c-2.4,0.2-4.5,1.8-5.3,4.1c-1,2.9-1.5,6-1.3,9.1c-0.1,2.4,0.3,4.8,1,7.1c1.8,5.5,6.6,7.3,11.5,4.2
			c0.9-0.5,1-0.2,1.2,0.5c0.1,0.4,0.3,0.8,0.5,1.3C66,281.2,66,281.1,64.3,282"/>
		<path d="M182.4,282.1c-1.3,0.7-2.8,0.8-4.1,1.4h-4.7c-0.1-0.1-0.1-0.2-0.2-0.2c-4.1-0.8-6.5-3.6-7.6-7.4c-1.9-6.2-1.9-12.8,0-19
			c1.1-3.7,3.4-6.7,7.4-7.6c3.3-0.7,6.7-0.4,9.7,0.9c0.6,0.3,0.8,0.5,0.5,1.2c-0.4,1-0.4,2.3-1,2.9s-1.8-0.6-2.8-0.7
			c-0.7-0.1-1.3-0.3-2-0.4c-3.1-0.6-6.1,1.3-7,4.3c-1.1,3.2-1.5,6.6-1.2,10c0,2.1,0.4,4.1,1,6.1c1.8,5.4,6.6,7.1,11.4,4.2
			c0.8-0.5,1.1-0.5,1.3,0.4c0.1,0.4,0.3,0.8,0.4,1.2C184.3,281.2,184.2,281.2,182.4,282.1"/>
		<path d="M457.1,282.7c-0.9,0.3-1.8,0.5-2.8,0.5h-0.1c-0.7,0.2-1.5-0.1-2.2,0.2h-0.5v-0.1c-3.3-0.9-4.2-3.5-4.2-6.5
			c0-13.2,0-26.4,0-39.5c0-0.8,0.3-0.9,0.9-0.9c1.2,0.1,2.8-0.4,3.6,0.2s0.2,2.3,0.2,3.5c0,11.3,0,22.7,0,34c0,0.9,0,1.9,0.2,2.8
			c0.3,1.6,1.3,2.2,3,2c0.8-0.1,1.8-0.9,2.4-0.3c0.6,0.6,0.2,1.6,0.4,2.4c0.3,0.6,0,1.3-0.6,1.5
			C457.5,282.6,457.4,282.7,457.1,282.7"/>
		<path d="M8.6,283.5L8.6,283.5c-2.9-0.4-4-2.5-4.5-5c-0.2-1.1-0.3-2.2-0.3-3.2c0-6.4,0-12.7,0-19.1c0-1.6,0-1.6-1.6-1.6
			c-0.7,0-1.4,0.2-2.1-0.3l0,0c1.1,0,2.2,0,3.3-0.1c0.7,0,0.8,0.3,0.8,0.9c0,2.2,0,4.4,0,6.7c0,4.6,0,9.2,0,13.8
			c0,1.5,0.2,3,0.7,4.4c0.4,1.6,1.7,2.9,3.3,3.4C8.3,283.2,8.5,283.1,8.6,283.5"/>
		<path d="M511.5,260.6v22.1c-1.4,0-2.7,0-4.1,0c-0.3,0-0.7,0.2-0.9-0.3c0.2-0.1,0.4-0.2,0.6-0.2c0.8-0.1,1.5-0.1,2.3,0
			c1.4-0.1,1.5-0.1,1.5-1.5c0-6,0-12,0-18.1c-0.1-0.6,0-1.3,0.2-1.9c0-0.1,0.1-0.1,0.2-0.1l0,0C511.4,260.6,511.4,260.6,511.5,260.6
			"/>
		<path d="M9,283.5c0.8-0.4,1.7-0.4,2.5,0H9z"/>
		<path d="M454.4,283.3c0,0.1,0,0.1,0,0.2h-2.3C452.8,283,453.6,283.3,454.4,283.3L454.4,283.3"/>
		<path d="M511.5,259.3v1.4h-0.2l0,0c-0.4-0.3-0.4-0.9-0.1-1.3c0,0,0,0,0.1-0.1l0,0C511.4,259.3,511.5,259.3,511.5,259.3"/>
		<path d="M147.1,283.5c0.5-0.4,0.9-0.2,1.4,0H147.1z"/>
		<path d="M92.9,281.8c0,0.7-0.2,0.9-0.9,0.9c-0.9-0.1-1.8-0.1-2.7,0c-0.9,0.1-1.2-0.2-1.2-1.2c0-6.2,0-12.4,0-18.5
			c0.1-2-0.1-3.9-0.6-5.8c-0.9-3.6-4-5.1-7.3-3.4c-2.6,1.1-4.3,3.7-4.3,6.6c0,7.1,0,14.2,0,21.2c0,0.9-0.3,1.2-1.1,1.1
			c-1.2-0.1-2.8,0.5-3.5-0.2s-0.2-2.2-0.2-3.4c0-13.8,0-27.6,0-41.4c0-0.9,0.1-1.4,1.2-1.2c0.9,0.1,1.7,0.1,2.6,0c0.8-0.1,1,0.2,1,1
			c0,4.7,0,9.4,0,14.1v1.4c2.9-3.6,6.4-4.6,10.5-3.9c2.3,0.3,4.3,1.8,5.1,4c0.9,2.3,1.3,4.7,1.2,7.2
			C92.9,267.4,92.8,274.6,92.9,281.8"/>
		<path d="M211.1,281.8c0,0.7-0.3,0.9-0.9,0.9c-0.9-0.1-1.9-0.1-2.8,0c-0.9,0.1-1.1-0.3-1-1.1c0-6,0-12,0-18.1
			c0.1-2.1-0.1-4.2-0.6-6.3c-0.9-3.6-3.9-5.1-7.2-3.5c-2.7,1.1-4.4,3.7-4.3,6.6c0,7.1,0,14.2,0,21.3c0,0.8-0.2,1.1-1,1.1
			c-1-0.1-2-0.1-2.9,0c-0.7,0-0.8-0.2-0.8-0.8s0-1.2,0-1.8c0-14.1,0-28.2,0-42.4c0-1,0.2-1.3,1.2-1.2c0.9,0.1,1.7,0.1,2.6,0
			c0.8-0.1,1,0.2,1,1c0,5,0,10.1,0,15.1l0.3,0.2c0.1-0.2,0.1-0.3,0.2-0.5c2.9-3.3,6.6-4,10.7-3.1c2,0.4,3.6,1.8,4.4,3.7
			c0.9,2.3,1.4,4.8,1.3,7.3C211.2,267.4,211.1,274.6,211.1,281.8"/>
		<path d="M121.9,281.8c0,0.8-0.3,0.9-0.9,0.9c-0.9-0.1-1.9-0.1-2.8,0c-0.9,0.1-1-0.3-1-1.1c0-6.5,0-13.1,0-19.7
			c0-1.5-0.1-2.9-0.4-4.4c-0.9-4.1-4.7-5.8-8.2-3.5c-2.2,1.2-3.5,3.6-3.5,6.1c0.1,7,0,14.1,0,21.1c0,1.2-0.4,1.5-1.4,1.4
			c-0.9-0.1-1.8-0.1-2.7,0c-0.5,0-0.7-0.2-0.7-0.7c0-0.2,0-0.4,0-0.6c0-10.2,0-20.4,0-30.6c0-0.9,0.2-1.2,1.2-1.2
			c2.3,0.1,2.3,0,2.9,2.3c0.1,0.4,0.2,0.8,0.4,1.4c2.5-3.4,6.7-5.1,10.8-4.2c2.4,0.3,4.4,1.9,5.2,4.1c0.8,1.8,1.2,3.8,1.2,5.7
			C121.9,266.5,121.9,274.2,121.9,281.8"/>
		<path d="M511.3,260.6c0,6.9,0,13.8,0,20.6c0,0.7-0.1,1.1-0.4,1.2c-0.3,0.1-0.6,0.2-0.9,0.1c-1.1-0.1-2.2-0.1-3.4-0.1
			c0-6.9,0-13.7,0-20.6c0-1.5-0.1-3-0.4-4.5c-0.9-3.9-4-5.5-7.6-3.7c-2.5,1.1-4.1,3.6-4,6.3c0,7.2,0,14.3,0,21.5
			c0,0.9-0.2,1.3-1.2,1.2c-0.9-0.1-1.8-0.1-2.7,0c-0.8,0-1-0.2-1-1c0-2.4,0-4.8,0-7.1c0-7.9,0-15.9,0-23.8c0-0.9,0.2-1.2,1.1-1.1
			c2.3,0,2.3,0,2.9,2.3c0.1,0.4,0.2,0.7,0.3,1.1c0.4,0.1,0.5-0.3,0.7-0.5c2.8-3.3,7.4-4.6,11.5-3.2c1.8,0.6,3.3,2,4,3.9
			c0.7,1.9,1.1,4,1.2,6L511.3,260.6L511.3,260.6z"/>
		<path d="M309.9,281.6c0,0.8-0.2,1.2-1,1.1c-0.9-0.1-1.9-0.1-2.8,0c-0.8,0-0.9-0.2-0.9-1c0-6.2,0-12.5,0-18.8
			c0.1-2-0.1-3.9-0.5-5.8c-1-4-5.4-5.4-8.7-2.7c-1.9,1.4-3,3.6-3,5.9c0.1,7.1,0,14.2,0.1,21.2c0,0.8-0.2,1.2-1,1.1
			c-0.9-0.1-1.9-0.1-2.8,0c-0.7,0-1-0.2-1-1c0-4.6,0-9.2,0-13.8c0-5.8,0-11.5,0-17.3c0-0.8,0.2-1,1-1c2.5,0,2.5,0,3.1,2.4
			c0.1,0.4,0.2,0.7,0.3,1.1c0.4-0.1,0.5-0.4,0.7-0.6c3-3.3,6.7-4.3,11-3.2c3.3,0.8,4.6,3.4,5.2,6.4c0.3,1.7,0.5,3.4,0.5,5.2
			C309.9,267.8,309.9,274.7,309.9,281.6"/>
		<path d="M386.9,250.2c-0.3,1.2-0.5,2.4-0.7,3.7c-0.1,0.6-0.3,0.6-0.8,0.4c-0.9-0.3-1.9-0.5-2.9-0.4c-2.6,0.2-4.6,2.5-4.6,5.1
			c0,7.5,0,14.9,0,22.4c0,1-0.3,1.4-1.3,1.3c-0.8-0.1-1.6-0.1-2.4,0c-0.9,0.1-1.1-0.2-1.1-1.1c0-6.2,0-12.4,0-18.6
			c0-4.1,0-8.1,0-12.2c0-0.8,0.2-1.1,1.1-1.1c2.3,0,2.3,0,2.9,2.3c0.1,0.4,0.2,0.8,0.4,1.4c0.3-0.5,0.5-0.9,0.8-1.2
			c2.2-3.3,5.2-3.4,8.4-2.5C386.9,249.7,386.9,249.9,386.9,250.2"/>
		<path d="M134.8,281.5c0,1-0.3,1.2-1.2,1.1c-0.8-0.1-1.7-0.1-2.5,0c-0.9,0.1-1.1-0.2-1.1-1.1c0-7.6,0-15.1,0-22.7
			c0-2.7,0-5.4,0-8.1c0-0.8,0.1-1.2,1-1.1c1.2,0.1,2.9-0.5,3.6,0.3s0.2,2.3,0.2,3.5c0,4.3,0,8.6,0,12.9
			C134.7,271.3,134.7,276.4,134.8,281.5"/>
		<path d="M135.8,239.6c0.1,1.8-1.2,3.3-3,3.4c-0.1,0-0.3,0-0.4,0c-1.7,0.1-3.2-1.3-3.3-3c0-0.1,0-0.2,0-0.4c-0.1-1.8,1.2-3.4,3-3.5
			c0.1,0,0.1,0,0.2,0c1.8,0,3.4,1.4,3.4,3.3C135.8,239.5,135.8,239.5,135.8,239.6"/>
	</g>
</g>
</svg>
