<?xml version="1.0" encoding="utf-8"?>
<!-- Generator: Adobe Illustrator 23.0.4, SVG Export Plug-In . SVG Version: 6.00 Build 0)  -->
<svg version="1.1" id="Laag_1" xmlns="http://www.w3.org/2000/svg" xmlns:xlink="http://www.w3.org/1999/xlink" x="0px" y="0px"
	 viewBox="0 0 300 200" style="enable-background:new 0 0 300 200;" xml:space="preserve">
<style type="text/css">
	.st0{display:none;}
	.st1{display:inline;}
	.st2{clip-path:url(#SVGID_2_);}
	.st3{display:inline;fill:#FFFFFF;}
	.st4{display:inline;fill:#FFFFFF;stroke:#1D1D1B;stroke-width:0.3302;stroke-miterlimit:10;}
	.st5{display:inline;fill:#1C1C1C;stroke:#1D1D1B;stroke-width:0.3302;stroke-miterlimit:10;}
	.st6{display:inline;fill:#1C1C1C;}
	.st7{display:inline;fill:none;}
	.st8{display:inline;fill:#1C1C1C;stroke:#000000;stroke-width:0.3854;}
	.st9{display:none;fill:#1C1C1C;}
	.st10{fill:#1C1C1C;}
	.st11{fill-rule:evenodd;clip-rule:evenodd;fill:#1C1C1C;}
	.st12{display:inline;fill-rule:evenodd;clip-rule:evenodd;fill:#1C1C1C;}
	.st13{fill:#FFFFFF;}
	.st14{display:inline;fill:#1C1C1C;stroke:#FFFFFF;stroke-width:1.0998;stroke-miterlimit:10;}
	.st15{display:inline;fill:#FFFFFF;stroke:#1C1C1C;stroke-width:0.4798;stroke-miterlimit:10;}
	.st16{display:inline;fill:#FFFFFF;stroke:#1C1C1C;stroke-width:0.2399;stroke-miterlimit:10;}
</style>
<g class="st0">
	<g class="st1">
		<g>
			<g>
				<g>
					<defs>
						<rect id="SVGID_1_" x="94.6" y="50" width="110.8" height="100"/>
					</defs>
					<clipPath id="SVGID_2_">
						<use xlink:href="#SVGID_1_"  style="overflow:visible;"/>
					</clipPath>
					<path class="st2" d="M97.5,145.5c0.2,1.7,1.4,2.2,2.9,2.2c1.1,0,2.9-0.2,2.9-1.7c-0.1-1.5-2.2-1.7-4.2-2.2
						c-2.1-0.5-4.1-1.2-4.1-3.8c0-2.8,3-3.7,5.4-3.7c2.6,0,5,1.1,5.4,4h-3c-0.3-1.4-1.4-1.7-2.6-1.7c-0.8,0-2.3,0.2-2.3,1.3
						c0,1.4,2.1,1.6,4.2,2.1s4.1,1.2,4.1,3.8c0,3.1-3.1,4.2-5.7,4.2c-3.3,0-5.7-1.4-5.7-4.5L97.5,145.5L97.5,145.5z"/>
				</g>
			</g>
		</g>
	</g>
	<path class="st1" d="M107.4,136.8h2.7v1.9l0,0c0.9-1.4,2.3-2.3,4-2.3c2.8,0,4.6,1.5,4.6,4.4v8.8h-2.8v-8.1c-0.1-2-0.8-2.9-2.5-2.9
		c-1.9,0-3.1,1.5-3.1,3.4v7.6h-2.9L107.4,136.8L107.4,136.8z"/>
	<path class="st1" d="M128.8,143.2c-0.9,0.6-2.2,0.6-3.5,0.8c-1.2,0.2-2.3,0.7-2.3,2.2c0,1.3,1.6,1.6,2.6,1.6c1.3,0,3.2-0.7,3.2-2.4
		V143.2L128.8,143.2z M129,149.7v-1.2c-1.1,1.1-2.9,1.6-4.5,1.6c-2.3,0-4.4-1.3-4.4-3.8c0-3.2,2.6-3.7,4.9-4
		c2.1-0.4,3.9-0.1,3.9-1.8c0-1.5-1.5-1.7-2.7-1.7c-1.6,0-2.7,0.7-2.9,2.1h-2.9c0.2-3.3,3-4.3,5.8-4.3c2.5,0,5.1,1,5.1,3.7v9.5H129
		V149.7z"/>
	<polygon class="st1" points="133.5,131.9 136.4,131.9 136.4,142 141.5,136.8 145,136.8 140,141.5 145.4,149.7 142,149.7 138,143.4 
		136.3,145 136.3,149.6 133.5,149.6 	"/>
	<path class="st1" d="M154.8,142.1c-0.1-1.8-1.3-3.4-3.2-3.4c-2,0-3.3,1.5-3.4,3.4H154.8L154.8,142.1z M148.2,144
		c0,2,1.1,3.8,3.4,3.8c1.7,0,2.6-0.7,3.1-2.2h2.7c-0.6,2.8-3,4.4-5.8,4.4c-4.1,0-6.3-2.8-6.3-6.8c0-3.7,2.4-6.8,6.2-6.8
		c4.1,0,6.5,3.7,6.1,7.5L148.2,144L148.2,144L148.2,144z"/>
	<polygon class="st1" points="175.3,136.8 170.6,148.4 167.9,141.9 170,136.8 169.1,136.8 167.3,141 165.6,136.8 165.5,136.8 
		164.6,136.8 166.8,141.9 164,148.4 158.6,136.8 158.6,136.8 157.6,136.8 163.5,149.7 163.5,149.7 164.4,149.7 167.3,142.8 
		170.3,149.6 170.3,149.7 171.1,149.7 176.2,136.9 176.3,136.8 	"/>
	<path class="st1" d="M185.1,142.3c-0.7,0.9-2.8,0.7-4.6,1c-2.3,0.3-3.5,1-3.5,3c0,1.6,1.1,2.8,3.4,2.8c4.3,0,4.8-3.7,4.8-4.4
		L185.1,142.3L185.1,142.3z M185.1,149.7v-2.5l0,0c-0.6,1.5-2.3,2.9-4.8,2.9c-2.4,0-4.3-0.9-4.3-3.7c0-3,2.6-3.6,4.7-3.8
		c4.2-0.3,4.4-0.6,4.4-2.7c0-0.6-0.7-2.5-3.5-2.5c-2.3,0-3.8,1.2-3.9,3.4h-0.9c0.1-2.9,1.9-4.3,4.9-4.3c2.2,0,4.5,0.7,4.5,3.4v9.8
		L185.1,149.7L185.1,149.7z"/>
	<path class="st1" d="M199.3,150c-3.3,0-6.1-3-6.1-6.8c0-3.7,2.7-6.8,6.1-6.8s6.1,3,6.1,6.8v0.5h-4.5v-0.9h3.7
		c-0.2-3-2.5-5.4-5.2-5.4c-2.9,0-5.2,2.6-5.2,5.8s2.3,5.8,5.2,5.8c0.2,0,0.4,0,0.6,0l0.1,0.9C199.8,150,199.6,150,199.3,150
		L199.3,150z"/>
	<path class="st1" d="M189,139.4L189,139.4c0.6-1.7,2.7-3.1,5-3v1c-1-0.1-2.4,0.1-3.6,1.3c-0.9,1-1.4,1.8-1.5,3.8v7.2H188v-13.2h0.9
		L189,139.4L189,139.4L189,139.4z"/>
	<path class="st1" d="M178.7,50h-21.5v27.1l-7.2-5.6l-7.2,5.6V50h-21.5v39.5c0,15.9,12.8,28.7,28.7,28.7s28.7-12.8,28.7-28.7V50
		L178.7,50L178.7,50z M174.7,54v35.5c0,13.6-11.1,24.7-24.7,24.7c-13.6,0-24.7-11.1-24.7-24.7V54h13.6v23.1v8.1l6.4-5l4.7-3.6
		l4.7,3.7l6.4,5v-8.1V54H174.7"/>
</g>
<g class="st0">
	<path id="XMLID_28_" class="st3" d="M65.1,115.3c8.1,0,14.6-6.5,14.6-14.6s-6.5-14.6-14.6-14.6s-14.6,6.5-14.6,14.6
		S57,115.3,65.1,115.3"/>
	<path id="XMLID_27_" class="st4" d="M65.1,115.3c8.1,0,14.6-6.5,14.6-14.6s-6.5-14.6-14.6-14.6s-14.6,6.5-14.6,14.6
		S57,115.3,65.1,115.3z"/>
	<path id="XMLID_24_" class="st5" d="M65.1,88.1c-6.9,0-12.5,5.6-12.5,12.5s5.6,12.5,12.5,12.5s12.5-5.6,12.5-12.5
		C77.7,93.8,72,88.1,65.1,88.1 M74.7,105.1c-1.1,2.4-4.4,4.2-8.1,3.7c-2.2-0.3-3.7-1.5-4.2-3.4l3.8-1.8c0,0.2,0.1,0.3,0.2,0.5
		c0.5,0.9,1.3,1.4,2.3,1.4h0.4c0.6-0.1,1-0.2,1.2-0.4c0.6-0.4,0.6-1.1,0.2-1.4c-0.1-0.1-0.3-0.2-0.5-0.3l-0.3-0.1l-0.3-0.1l-0.2-0.1
		l-0.6-0.2c-0.2-0.1-0.5-0.2-1-0.4c-0.2-0.1-0.3-0.1-0.5-0.2c-2.5-1.1-3.1-2.7-1.8-5c0,0,0-0.1,0.1-0.1h-2.3l-2.4,11.1h-4l2.4-11.1
		h-4l0.7-3.2h15.7l0,0c0.1,0,0.3,0,0.4,0c2.4,0.1,3.9,1.3,4.3,3.2l-3.4,1.6c0-0.1-0.1-0.3-0.1-0.4c-0.5-1.6-2.3-2-3.3-1.2
		c-0.5,0.4-0.6,0.9-0.2,1.2c0.1,0.1,0.2,0.1,0.5,0.3c0.1,0,0.2,0.1,0.2,0.1H70l0.7,0.3h0.1l0.8,0.3l1,0.4c0.2,0.1,0.4,0.1,0.5,0.2
		C75.2,101.2,75.7,102.8,74.7,105.1"/>
	<path id="XMLID_21_" class="st6" d="M108.6,91.1c3.6,0.5,5.7,3.1,5.6,7.1c-0.3,6.4-4.6,11.1-9.7,11.8c-6,0.8-9.4-2.9-8-9.4
		C98,93.9,103,90.3,108.6,91.1 M102.5,101.4c-0.5,3,0.1,4,1.4,4s2.4-1,3.2-4c0.2-0.6,0.3-1.2,0.4-1.9c0.5-2.9-0.1-4-1.4-4
		s-2.4,1-3.2,4c-0.1,0.3-0.1,0.7-0.2,0.9C102.7,100.8,102.6,101.1,102.5,101.4"/>
	<path id="XMLID_18_" class="st6" d="M127.4,91.1c3.6,0.5,5.7,3.1,5.6,7.1c-0.3,6.4-4.6,11.1-9.7,11.8c-6,0.8-9.4-2.9-8-9.4
		C116.8,93.9,121.8,90.3,127.4,91.1 M121.3,101.4c-0.5,3,0.1,4,1.4,4s2.4-1,3.2-4c0.2-0.6,0.3-1.2,0.4-1.9c0.5-2.9-0.1-4-1.4-4
		s-2.4,1-3.1,4c-0.1,0.3-0.1,0.7-0.2,0.9C121.5,100.8,121.4,101.1,121.3,101.4"/>
	<path id="XMLID_17_" class="st6" d="M143.9,102.8c0.2,0.2,0.3,0.4,0.4,0.5c1.4,1.5,3.2,2.2,4.6,2.1c0.7,0,1.1-0.2,1.4-0.4
		c0.7-0.5,0.6-1.1-0.1-1.5c-0.2-0.1-0.5-0.2-1.3-0.5l-0.3-0.1l-1-0.3c-0.2,0-0.4-0.1-0.6-0.2c-3.1-0.9-4-2.3-3.8-4.7
		c0.5-4.5,5.3-7.9,10.9-6.6c1.4,0.3,2.4,0.8,3.6,2c0.1,0.1,0.3,0.3,0.4,0.4l-2.9,4.1c-0.3-0.5-0.7-0.9-1.2-1.2
		c-1.1-0.8-2.3-1.2-3.2-1.1c-0.7,0.1-1.1,0.2-1.4,0.4c-0.5,0.4-0.6,1-0.2,1.3c0.3,0.2,0.7,0.4,1.9,0.7l0.7,0.2l0.6,0.2
		c0.2,0.1,0.4,0.1,0.6,0.2c3.2,1.2,4.2,3,3.3,5.9c-1.1,3.7-4.7,6.2-9.8,5.7c-2-0.2-3.7-0.9-5.3-2.3c-0.2-0.2-0.3-0.3-0.5-0.5
		L143.9,102.8z"/>
	<path id="XMLID_14_" class="st6" d="M160.9,91.5h6.1l-0.3,1.3c0.6-0.5,1.2-0.8,1.8-1.1c4.4-2,8.2,0.6,7.6,6.9
		c-0.6,6.4-3.9,10.3-7.6,11.3c-2.5,0.7-4.5,0-5.3-1.4l-1.5,7h-6.1L160.9,91.5z M164.9,105.4c1.1,0.7,2.7,0,3.6-2.2
		c0.2-0.4,0.3-0.9,0.6-1.8c0.2-0.6,0.3-1.2,0.4-1.8c0.3-2.2,0.1-3.2-0.5-3.7c-0.7-0.6-2-0.4-2.8,0.6c-0.1,0.2-0.2,0.3-0.3,0.4
		c-0.2,0.3-0.2,0.5-0.3,0.7l-1.4,6.3C164.2,104.6,164.4,105.1,164.9,105.4"/>
	<path id="XMLID_11_" class="st6" d="M183,101.5c0,0.2-0.1,0.4-0.1,0.6c-0.2,1.2,0,2.1,0.3,2.6c0.7,1,2.3,1,3.4-0.1
		c0.2-0.2,0.5-0.5,0.8-1l0.4-0.5l0.1-0.2l4.9,1.7c-0.2,0.3-0.4,0.6-0.5,0.9c-1.6,2.4-4.2,4.1-7.2,4.5c-6.6,1-10.1-3.4-7.6-11
		c1.4-4.1,4.5-7,8-7.7c6.1-1.2,9.2,1.9,8.4,8.8c0,0.5-0.1,1-0.2,1.4C193.7,101.5,183,101.5,183,101.5z M188.7,98.5
		c0-0.2,0.1-0.4,0.1-0.6c0.1-0.6,0.1-1.1-0.1-1.5c-0.4-1.3-2.1-1.6-3.5-0.6c-0.5,0.4-1.1,1.1-1.4,2c-0.1,0.2-0.2,0.4-0.2,0.7H188.7z
		"/>
	<path id="XMLID_10_" class="st6" d="M206.7,98.6c0-0.2,0.1-0.3,0.1-0.5c0.2-2-0.6-2.8-1.7-2.7c-1.4,0.1-2.5,1.2-3.4,4.6
		c-0.1,0.6-0.2,1-0.3,1.5c-0.5,3.3,0.3,4.4,2.1,3.9c0.3-0.1,0.7-0.3,1-0.5c0.2-0.1,0.3-0.3,0.4-0.4l0.1-0.1l0.6-0.9l0.1-0.2l0.5-0.7
		l4.9,1.8c-0.2,0.3-0.3,0.6-0.5,0.9c-0.4,0.7-0.9,1.3-1.4,1.8c-2.3,2.4-5.3,3.5-8.7,3c-4.6-0.6-6.8-4.7-4.6-10.9
		c1.5-4.3,4.6-7.1,8.4-7.8c5-1,8.1,1.3,8.3,5.6c0,0.3,0,0.6,0,0.8L206.7,98.6z"/>
	<path id="XMLID_7_" class="st6" d="M232.7,97.1c0.2-1.2-0.6-2-2.2-1.6c-0.8,0.2-1.5,0.7-2.2,1.6c-0.1,0.1-0.1,0.2-0.2,0.3l-4.9-1.6
		c0.2-0.3,0.5-0.7,0.7-0.9c1.9-2.3,4.2-3.6,7.3-3.8c6-0.6,8.4,2.1,7.5,6.3l-2.1,9.6c-0.2,1.1-0.3,1.4-0.4,1.6v0.5v0.5h-5.5l0.1-1.9
		c-1,0.8-2.2,1.5-3.4,1.9c-4.8,1.5-7.8-1.1-7-4.9c0.6-2.7,2.6-4.5,7.2-5.6l0.3-0.1l1.6-0.4c0.6-0.1,1.2-0.3,1.8-0.5l0.6-0.2l0.7-0.2
		L232.7,97.1z M231.5,101.6l-0.3,0.2c-0.3,0.1-0.6,0.3-0.9,0.4l-0.5,0.2l-0.6,0.2l-0.5,0.2l-0.6,0.2c-0.9,0.4-1.5,0.9-1.7,1.5
		c-0.4,1.1,0.1,1.8,1.4,1.7c0.5,0,1.2-0.2,1.8-0.6c0.4-0.2,0.7-0.5,1-0.8c0.5-0.6,0.8-1.1,0.9-1.6l0.4-1.7L231.5,101.6z"/>
	<polygon id="XMLID_6_" class="st6" points="139.5,105.9 144.2,84.2 138.1,84.2 133.4,105.9 	"/>
	<polygon id="XMLID_5_" class="st6" points="216.9,84.2 215.7,89.7 221.8,89.7 223,84.2 	"/>
	<polygon id="XMLID_4_" class="st6" points="212.1,105.9 218.3,105.9 221.4,91.5 215.3,91.5 	"/>
	<polygon id="XMLID_3_" class="st6" points="245.3,105.9 250,84.2 243.9,84.2 239.2,105.9 	"/>
	<polygon id="XMLID_2_" class="st6" points="82.8,86.1 81.7,91.3 88.3,91.3 85.1,105.9 91.7,105.9 94.9,91.3 101.5,91.3 102.7,86.1 
			"/>
	<rect id="XMLID_1_" x="50" y="84.2" class="st7" width="200" height="31.6"/>
</g>
<g class="st0">
	<rect x="102.9" y="111.6" class="st6" width="14.9" height="1.7"/>
	<rect x="102.9" y="99.1" class="st6" width="14.9" height="1.7"/>
	<polygon class="st6" points="226.7,100 225.4,98.2 217.4,86.5 214.9,86.5 224.2,100 225.4,101.8 233.4,113.5 235.9,113.5 	"/>
	<path class="st6" d="M204.4,101.1c2.1,0,2.3,0,2.3,0c1.9-0.3,3.4-1.1,4.5-2.4c1.1-1.2,1.7-2.9,1.7-4.9c0-1.2-0.2-2.2-0.6-3.1
		c-0.4-0.9-0.9-1.7-1.6-2.3c-0.7-0.6-1.5-1.1-2.5-1.4c-0.9-0.3-2-0.5-3.1-0.5H195l1.4,1.8h0.6h8c1.7,0,3.2,0.4,4.3,1.3
		s1.7,2.3,1.7,4.1c0,1.9-0.6,3.2-1.7,4.1c-1.1,0.9-2.5,1.3-4.3,1.3h-4.1h-1l10.9,14.3h2.4l-9.4-12.5h0.6V101.1z"/>
	<path class="st6" d="M194.6,93.2c-0.2-0.8-0.4-1.6-0.8-2.2c-0.3-0.7-0.8-1.3-1.4-1.9c-0.9-0.9-1.9-1.6-3.1-2
		c-1.2-0.5-2.4-0.7-3.7-0.7s-2.5,0.2-3.7,0.7s-2.2,1.2-3.1,2c-0.6,0.6-1.1,1.2-1.4,1.9c-0.3,0.7-0.6,1.4-0.8,2.2
		c-0.2,0.8-0.3,1.8-0.3,2.9s0,2.4,0,3.9s0,2.8,0,3.9s0.1,2.1,0.3,2.9s0.4,1.6,0.8,2.2c0.3,0.7,0.8,1.3,1.4,1.9
		c0.9,0.9,1.9,1.6,3.1,2c1.2,0.5,2.4,0.7,3.7,0.7s2.5-0.2,3.7-0.7s2.2-1.2,3.1-2c0.6-0.6,1.1-1.2,1.4-1.9c0.3-0.7,0.6-1.4,0.8-2.2
		c0.2-0.8,0.3-1.8,0.3-2.9s0-2.4,0-3.9s0-2.8,0-3.9C194.9,95,194.8,94,194.6,93.2 M192.9,103.7c0,1-0.1,1.9-0.3,2.7
		c-0.1,0.7-0.3,1.4-0.6,1.9s-0.7,1.1-1.1,1.5c-0.7,0.7-1.5,1.2-2.3,1.6c-0.9,0.4-1.8,0.5-2.8,0.5s-1.9-0.2-2.8-0.5
		c-0.9-0.4-1.7-0.9-2.4-1.6c-0.5-0.5-0.9-1-1.1-1.5c-0.3-0.5-0.5-1.2-0.6-1.9c-0.1-0.7-0.2-1.6-0.3-2.7c0-1-0.1-2.3-0.1-3.7
		c0-1.4,0-2.7,0.1-3.7c0-1,0.1-1.9,0.3-2.7c0.1-0.7,0.3-1.4,0.6-1.9s0.7-1.1,1.1-1.5c0.7-0.7,1.5-1.2,2.4-1.6s1.8-0.5,2.8-0.5
		s1.9,0.2,2.8,0.5c0.9,0.4,1.7,0.9,2.3,1.6c0.5,0.5,0.9,1,1.1,1.5c0.3,0.5,0.5,1.2,0.6,1.9c0.1,0.7,0.2,1.6,0.3,2.7
		c0,1,0.1,2.3,0.1,3.7C192.9,101.4,192.9,102.7,192.9,103.7"/>
	<path class="st6" d="M125.8,101.1c3.3,0,5.2-0.6,6.8-2.4c1.1-1.2,1.7-2.9,1.7-4.9c0-1.2-0.2-2.2-0.6-3.1c-0.4-0.9-0.9-1.7-1.6-2.3
		c-0.7-0.6-1.5-1.1-2.5-1.4c-0.9-0.3-2-0.5-3-0.5h-14.3H90.5l0,0H90c-2.4,0.1-4.2,0.7-5.6,1.9c-1.5,1.3-2.2,3.1-2.2,5.3
		c0,2.1,0.7,3.7,2.1,4.9c1.1,1,2.7,1.6,4.7,1.9l3.1,0.5c0.6,0.1,1,0.2,1.4,0.2c0.4,0.1,0.7,0.2,1,0.3c0.3,0.1,0.5,0.2,0.8,0.4
		c0.2,0.1,0.5,0.3,0.7,0.5c1,0.8,1.4,2.1,1.4,3.7c0,1.7-0.6,3.1-1.8,4c-1.2,0.9-2.9,1.4-4.9,1.4H84h-1.1l-9.2-25.1h-0.8h-0.1H72
		l-9.2,25.1H51.9V86.8H50v26.7h14.3l8.4-23.9l8.4,23.9h2.7h6.7c2.7,0,4.9-0.7,6.4-2c1.6-1.3,2.4-3.1,2.4-5.4c0-1.1-0.2-2.1-0.6-2.9
		c-0.4-0.9-1-1.6-1.7-2.2c-0.5-0.5-1.2-0.8-1.9-1.1c-0.7-0.3-1.7-0.5-2.9-0.7l-2.9-0.4c-0.7-0.1-1.5-0.3-2.2-0.6
		c-0.7-0.3-1.3-0.6-1.8-1c-0.9-0.8-1.4-1.9-1.4-3.4c0-1.7,0.5-3,1.6-4s2.6-1.4,4.5-1.4h0.2h29h6.8c1.7,0,3.2,0.5,4.2,1.4
		c1.1,0.9,1.7,2.2,1.7,4.1c0,1.8-0.6,3.2-1.7,4.1c-1.1,0.9-2.5,1.3-4.2,1.3h-4h-1l10.9,14.3l0,0h2.4h0.1l-9.4-12.4h0.8
		C125.8,101.2,125.8,101.1,125.8,101.1z"/>
	<polygon class="st6" points="164.6,110.5 156.2,86.5 155,86.5 146.5,110.5 138.1,86.5 135.8,86.5 145.7,113.5 146.6,113.5 
		147.4,113.5 155.6,91 163.8,113.5 164.7,113.5 165.5,113.5 175.3,86.5 173.1,86.5 	"/>
	<polyline class="st6" points="247.5,66 201,134 203.4,134 250,66 	"/>
</g>
<g class="st0">
	<path class="st8" d="M250,117.1c-0.1,0-0.2,0-0.3,0c-1.9,0.5-3.7,0.8-5.6,1c-2,0.2-4.1,0.3-6.2,0.1c-1.5-0.1-3-0.3-4.4-0.8
		c-1.3-0.5-2.5-1.1-3.4-2.1s-1.5-2.1-1.8-3.4c-0.2-1.1-0.3-2.3-0.1-3.4c0.2-1.6,1.1-2.9,2.3-4c1.2-1,2.5-1.6,4-2.1
		c1.2-0.3,2.5-0.5,3.7-0.6c1.5-0.1,3-0.1,4.5,0c0.1,0,0.3,0,0.4,0c0,0,0,0,0-0.1c0-0.7,0.1-1.4-0.1-2.2c-0.2-1.2-1-2-2.2-2.4
		c-0.6-0.2-1.1-0.3-1.7-0.3c-1.1-0.1-2.2-0.1-3.3,0c-1.3,0.1-2.6,0.4-3.9,0.8c-0.3,0.1-0.6,0.2-0.9,0.2c-1-1.3-1.2-2.8-1.2-4.3
		c0.5-0.1,1-0.3,1.6-0.4c1.7-0.4,3.4-0.7,5.1-0.8c1.3-0.1,2.7-0.1,4,0c2,0.2,3.9,0.7,5.6,1.7c1.9,1.2,3,2.8,3.4,4.8
		c0.1,0.6,0.2,1.2,0.3,1.8c0,0.1,0,0.2,0.1,0.3C250,106.4,250,111.8,250,117.1z M243.3,113.5c0-2.4,0-4.8,0-7.1
		c-0.1,0-0.2,0-0.3-0.1c-0.4,0-0.7-0.1-1.1-0.1c-1.3-0.1-2.5-0.1-3.8,0.1c-0.8,0.1-1.6,0.4-2.3,0.8c-0.8,0.4-1.3,1-1.5,1.8
		c-0.2,0.7-0.2,1.3-0.1,2c0.1,0.8,0.5,1.5,1.2,2s1.4,0.7,2.3,0.9c1.4,0.2,2.9,0.2,4.3,0C242.4,113.7,242.8,113.6,243.3,113.5z"/>
	<path class="st8" d="M85.4,81.6c0.2,0,0.3,0.1,0.5,0.1c2.2,0.4,3.9,2,4.2,4.1c0,0.3,0,0.6,0,0.8c0,2.1,0,4.2,0,6.2
		c0,0.1,0,0.2,0,0.3c-1.1,0-2.2,0-3.3,0c0-0.1,0-0.3,0-0.4c0-2.1,0-4.2,0-6.2c0-0.4-0.1-0.7-0.3-1c-0.4-0.5-0.9-0.7-1.5-0.8
		c-0.1,0-0.2,0-0.3,0c-9.7,0-19.4,0-29.1,0c-0.2,0-0.3,0-0.5,0c-0.9,0.1-1.6,0.8-1.6,1.6c0,0.1,0,0.2,0,0.3c0,2,0,4.1,0,6.1
		c0,0.1,0,0.2,0,0.4c0.4,0,0.8,0,1.2,0s0.8,0,1.2,0s0.8,0,1.2,0s0.8,0,1.2,0s0.8,0,1.2,0s0.8,0,1.2,0s0.8,0,1.2,0s0.8,0,1.2,0
		c0,0.1,0,0.2,0,0.3c0,0.7,0,1.5,0,2.2c0,0.3,0.1,0.4,0.3,0.5c0.8,0.4,1.6,0.9,2.5,1.3c0.1,0.1,0.2,0.1,0.3,0.2c0,0.2,0,0.5,0,0.7
		c-0.7,0.4-1.5,0.8-2.2,1.2c0.8,0.4,1.5,0.8,2.2,1.2c0,0.2,0,0.5,0,0.7c-0.7,0.4-1.4,0.8-2.2,1.2c0.1,0.1,0.2,0.1,0.2,0.2
		c0.6,0.3,1.2,0.6,1.8,0.9c0.2,0.1,0.2,0.2,0.2,0.3c0.1,0.4-0.1,0.6-0.5,0.8c-0.5,0.2-1,0.5-1.5,0.8c-0.1,0-0.2,0.1-0.3,0.2
		c0.1,0.1,0.2,0.1,0.3,0.2c0.6,0.3,1.1,0.6,1.7,0.9c0.1,0.1,0.2,0.2,0.2,0.3c0,0.5,0,0.5-0.5,0.8c-0.3,0.2-0.7,0.4-1,0.5
		c-0.1,0-0.2,0.1-0.3,0.2c0.1,0.1,0.2,0.1,0.2,0.2c0.6,0.3,1.3,0.7,1.9,1c0.2,0.1,0.4,0.1,0.6,0.2c1.6,0.3,3.3,0.3,4.9,0.1
		c0.5-0.1,1-0.1,1.5-0.2c0.2,0,0.3-0.1,0.4-0.1c0.6-0.3,1.2-0.6,1.8-1c0.2-0.1,0.3-0.1,0.5-0.1c0.9,0.3,1.9,0.5,2.8,0.8
		c0.1,0,0.2,0.1,0.3,0.1c-0.1,0.1-0.2,0.1-0.3,0.2c-1.5,0.9-3,1.7-4.5,2.6c-0.2,0.1-0.4,0.2-0.6,0.2c-1.1,0.1-2.1,0.2-3.2,0.2
		c-0.8,0.1-1.6,0-2.4,0c-0.6-0.1-1.3-0.1-1.9-0.2c-0.2,0-0.4-0.1-0.6-0.2c-1.8-1-3.5-2-5.3-3c-0.2-0.1-0.3-0.2-0.3-0.5
		c0-0.5-0.1-0.4,0.4-0.7c0.5-0.3,1-0.5,1.5-0.8c0.1,0,0.2-0.1,0.3-0.2c-0.1-0.1-0.2-0.1-0.2-0.1c-0.6-0.3-1.2-0.6-1.8-0.9
		c-0.2-0.1-0.2-0.2-0.2-0.4c0-0.5,0-0.5,0.5-0.7c0.5-0.3,1-0.5,1.5-0.8c0.1,0,0.2-0.1,0.3-0.2c-0.1-0.1-0.2-0.1-0.2-0.1
		c-0.6-0.3-1.2-0.6-1.8-0.9c-0.2-0.1-0.2-0.2-0.2-0.4c0-0.5,0-0.5,0.5-0.7c0.5-0.3,1-0.5,1.5-0.8c0.1,0,0.2-0.1,0.3-0.2
		c-0.1-0.1-0.2-0.1-0.3-0.2c-0.6-0.3-1.1-0.6-1.7-0.9c-0.2-0.1-0.2-0.2-0.3-0.4c0-0.4,0.1-0.6,0.5-0.7c0.5-0.2,1-0.5,1.5-0.8
		c0.1,0,0.2-0.1,0.3-0.2c-0.1-0.1-0.2-0.1-0.3-0.2c-0.6-0.3-1.1-0.6-1.7-0.9c-0.2-0.1-0.3-0.2-0.2-0.4c0-0.1,0-0.2,0-0.3
		c-0.1,0-0.2,0-0.3,0c-3.3,0-6.7,0-10,0h-0.1c0-3.4,0-6.9,0-10.3c0-0.1,0.1-0.2,0.1-0.3c0.3-2.1,2-3.6,4.2-4c0.2,0,0.3-0.1,0.5-0.1
		C65,81.6,75.2,81.6,85.4,81.6z"/>
	<path class="st8" d="M118.5,81.6c0.1,0,0.3,0,0.4,0.1c0.6,0.1,1.2,0.1,1.8,0.2c0,0.1,0,0.2,0,0.3c0,7.3,0,14.5,0,21.8
		c0,1.6,0,3.3,0,4.9c0,1.2-0.2,2.3-0.5,3.4c-0.6,1.6-1.6,3-3,4c-1.5,1.1-3.2,1.7-5,1.9c-1.2,0.2-2.4,0.2-3.6,0.1s-2.5-0.2-3.7-0.5
		c-0.3-0.1-0.3-0.1-0.3-0.3c-0.2-1.8,0-3.5,0.7-5.2c0,0,0-0.1,0.1-0.2c0.1,0,0.3,0.1,0.4,0.1c1,0.3,2,0.5,3,0.6
		c1.1,0.1,2.1,0,3.1-0.5c1.4-0.6,2.2-1.6,2.3-3c0.1-0.7,0.1-1.5,0.1-2.2c0-0.1,0-0.2,0-0.4c0-3.3,0-6.6,0-10c0-3.5,0-7.1,0-10.6
		c0-1.4,0-2.7,0-4.1c0-0.1,0-0.2,0-0.4c0.7-0.1,1.3-0.1,1.9-0.2c0.1,0,0.3,0,0.4-0.1C117.2,81.6,117.8,81.6,118.5,81.6z"/>
	<path class="st8" d="M50,99.4c0.1,0,0.2,0,0.3,0c0.9,0,1.8,0,2.8,0c0.1,0,0.2,0,0.4,0c0,0.1,0,0.3,0,0.4c0,4.6,0,9.2,0,13.7
		c0,0.2,0,0.4,0.1,0.6c0.2,0.7,0.9,1.2,1.7,1.2c0.1,0,0.2,0,0.4,0c9.7,0,19.4,0,29.1,0c0.2,0,0.5,0,0.7,0c0.8-0.2,1.4-0.8,1.4-1.6
		c0-0.1,0-0.1,0-0.2c0-4.6,0-9.1,0-13.7c0-0.1,0-0.2,0-0.4c-0.2,0-0.3,0-0.4,0c-3,0-5.9,0-8.9,0c-0.1,0-0.3,0-0.4,0c0-1,0-2,0-3.1
		l0,0l0,0c4.2,0,8.4,0,12.7,0c0.1,0,0.2,0,0.4,0c0,0.1,0,0.2,0,0.4c0,2.4,0,4.8,0,7.2c0,3.2,0,6.5,0,9.7c0,1-0.3,2-0.9,2.9
		c-1,1.3-2.4,2-4.2,2c-9.9,0-19.9,0-29.8,0c-2.5,0-4.7-1.7-5.1-4c0-0.1-0.1-0.2-0.1-0.3C50,109.2,50,104.3,50,99.4z"/>
	<path class="st8" d="M148.8,106.8c-6.1,0-12.3,0-18.4,0c0,0.3,0,0.5,0,0.7c0.1,1.2,0.5,2.2,1.3,3.1c0.4,0.5,0.8,1,1.3,1.4
		c0.5,0.5,1.1,0.8,1.8,1c1.3,0.5,2.7,0.7,4.1,0.7c1,0,1.9-0.1,2.9-0.2c1.2-0.1,2.4-0.4,3.6-0.7c0.5-0.1,0.9-0.3,1.4-0.4
		c0.7,1.4,1.1,2.9,1.1,4.5c-0.1,0-0.2,0.1-0.3,0.1c-1.6,0.6-3.3,0.9-5.1,1.1c-1.6,0.2-3.3,0.3-4.9,0.2c-2-0.1-4-0.4-5.9-1.1
		c-3.3-1.3-5.4-3.5-6.5-6.5c-0.5-1.3-0.7-2.7-0.8-4.1c-0.1-1,0-2,0.1-3c0.2-2.1,0.8-4.1,2-5.9c1.9-2.8,4.6-4.6,8.2-5.2
		c2-0.3,4-0.3,6,0.1c2.2,0.5,4.1,1.6,5.7,3.1c0.8,0.8,1.3,1.7,1.7,2.7c0.5,1.2,0.8,2.4,1,3.6c0.1,1,0.1,1.9,0,2.9
		c0,0.5-0.1,1.1-0.1,1.6C148.9,106.7,148.9,106.7,148.8,106.8z M130.5,102.8c0.4,0.1,12.6,0,12.8,0c0-0.1,0-0.2,0-0.2
		c0-0.3-0.1-0.7-0.1-1c-0.2-1-0.6-1.9-1.2-2.7c-0.8-1-1.9-1.5-3.2-1.7c-1.1-0.1-2.2,0-3.3,0.2c-0.9,0.2-1.7,0.5-2.4,1.1
		c-0.4,0.4-0.8,0.8-1.2,1.2c-0.5,0.6-0.9,1.3-1.1,2.1C130.6,102.1,130.5,102.4,130.5,102.8z"/>
	<path class="st8" d="M201.8,106.8c-6.2,0-12.3,0-18.4,0c0,0.1,0,0.2,0,0.3c0,1.2,0.4,2.2,1,3.2c0.4,0.6,1,1.2,1.5,1.7
		c0.7,0.6,1.6,1,2.5,1.3c1.2,0.4,2.5,0.5,3.8,0.5c2.5,0,4.8-0.5,7.2-1.2c0.1,0,0.1,0,0.2-0.1c0,0,0,0,0.1,0c0.7,1.4,1,2.9,1.1,4.5
		c-0.1,0-0.2,0.1-0.3,0.1c-1.6,0.6-3.3,0.9-5.1,1.1c-1.6,0.2-3.3,0.3-4.9,0.2c-2-0.1-3.9-0.4-5.7-1.1c-3.3-1.3-5.5-3.5-6.6-6.6
		c-0.5-1.6-0.8-3.2-0.8-4.8c-0.1-2.5,0.4-5,1.5-7.2c1.5-2.9,3.9-4.8,7.1-5.8c1.8-0.5,3.7-0.7,5.6-0.5c1.3,0.1,2.6,0.4,3.8,0.8
		c1.4,0.6,2.7,1.4,3.7,2.4c0.8,0.8,1.4,1.8,1.9,2.9c0.5,1.2,0.8,2.3,1,3.6c0.1,1,0.1,1.9,0.1,2.9c0,0.4-0.1,0.8-0.1,1.2
		C201.8,106.5,201.8,106.6,201.8,106.8z M196.2,102.8c0-0.1,0-0.2,0-0.3c0-0.3-0.1-0.6-0.1-1c-0.2-1-0.6-2-1.3-2.8
		c-0.8-0.9-1.9-1.4-3.2-1.6c-0.8-0.1-1.6,0-2.4,0.1c-1.5,0.2-2.7,0.7-3.7,1.7c-0.8,0.8-1.5,1.8-1.8,2.9c-0.1,0.3-0.2,0.7-0.2,1
		C183.7,102.8,195.8,102.8,196.2,102.8z"/>
	<path class="st8" d="M163.5,111.4c0-0.1,0.1-0.2,0.1-0.3c2-5.7,4.1-11.4,6.1-17.1c0.1-0.3,0.2-0.6,0.3-0.9c0-0.1,0.1-0.2,0.3-0.2
		c1.4-0.2,2.9-0.3,4.3-0.2c0.7,0,1.4,0.1,2.1,0.2c0.1,0,0.2,0,0.3,0.1c0,0.2-10.3,24.3-10.6,24.9c-0.5,0-1.1,0.1-1.6,0.2
		c-1.1,0.1-2.3,0-3.4-0.1c-0.3,0-0.7-0.1-1-0.1c-0.2,0-0.3-0.1-0.4-0.3c-0.5-1.2-1-2.3-1.5-3.5c-2.9-6.9-5.8-13.8-8.7-20.8
		c0-0.1-0.1-0.2-0.1-0.3c0.2,0,0.3-0.1,0.5-0.1c1.4-0.2,2.9-0.3,4.3-0.2c0.7,0,1.4,0.1,2,0.2c0.2,0,0.3,0.1,0.3,0.3
		c0.4,1.1,0.8,2.3,1.2,3.4c1.8,4.9,3.5,9.8,5.3,14.7C163.4,111.3,163.4,111.3,163.5,111.4L163.5,111.4z"/>
	<path class="st8" d="M211.9,117.8c-2.1,0.4-4.2,0.3-6.3,0c0-11.8,0-23.7,0-35.5c2.1-0.4,4.2-0.3,6.3,0
		C211.9,94.2,211.9,106,211.9,117.8z"/>
	<path class="st8" d="M225.9,93c-0.1,0.1-0.1,0.2-0.2,0.3c-2.1,3.7-4.3,7.4-6.4,11.1c-0.1,0.2-0.1,0.4,0,0.6
		c2.6,4.2,5.3,8.4,7.9,12.6c0.1,0.1,0.1,0.2,0.2,0.3c-0.2,0-0.3,0.1-0.4,0.1c-1.3,0.2-2.6,0.2-3.9,0.2c-0.7,0-1.5-0.1-2.2-0.2
		c-0.2,0-0.4-0.1-0.5-0.3c-1.4-2.3-2.8-4.6-4.2-6.9c-1.2-1.9-2.3-3.7-3.5-5.6c-0.1-0.1-0.1-0.2-0.2-0.3c0.2-0.4,0.4-0.8,0.6-1.1
		c1.9-3.5,3.9-7,5.8-10.5c0.1-0.2,0.2-0.3,0.5-0.3c1.4-0.2,2.8-0.2,4.3-0.1c0.7,0,1.3,0.1,2,0.2C225.8,92.9,225.8,93,225.9,93z"/>
</g>
<g class="st0">
	<path class="st6" d="M107.1,123.2c1,0,1.8-0.8,1.8-1.8V95.6c0-1-0.8-1.8-1.8-1.8H74.7c-0.6,0-1.2-0.5-1.2-1.2v-9.4
		c0-0.6,0.5-1.2,1.2-1.2h9.4c0.6,0,1.2,0.5,1.2,1.2v2.9c0,1,0.8,1.8,1.8,1.8h14.1c1,0,1.8-0.8,1.8-1.8v-8.2c0-1-0.8-1.8-1.8-1.8
		H57.7c-1,0-1.8,0.8-1.8,1.8v20c0,1,0.8,1.8,1.8,1.8H90c0.6,0,1.2,0.5,1.2,1.2v15.3c0,0.7-0.5,1.2-1.2,1.2H68.8
		c-0.6,0-1.2-0.5-1.2-1.2v-8.8c0-1-0.8-1.8-1.8-1.8h-14c-1,0-1.8,0.8-1.8,1.8v14.1c0,1,0.8,1.8,1.8,1.8h55.3
		C107.1,123.3,107.1,123.2,107.1,123.2z"/>
	<path class="st6" d="M138.2,106.3c0-0.2,0.1-0.3,0.3-0.3c0.1,0,0.2,0,0.2,0.1c0,0,16.5,16.5,16.6,16.6s0.5,0.5,1.2,0.5h21.1
		c1,0,1.8-0.8,1.8-1.8v-14.1c0-1-0.8-1.8-1.8-1.8h-15.2c-0.7,0-1.1-0.4-1.2-0.5c-0.2-0.2-11-11-11.1-11.1s-0.1-0.1-0.1-0.2
		s0-0.2,0.1-0.2c0.1-0.1,5.1-5.1,5.2-5.2c0.3-0.3,0.7-0.5,1.2-0.5c0.4,0,15.2,0,15.2,0c1,0,1.8-0.8,1.8-1.8v-8.2
		c0-1-0.8-1.8-1.8-1.8h-15.2c-0.7,0-1.1,0.4-1.2,0.5c-0.1,0.1-16.5,16.6-16.6,16.6c0,0-0.1,0.1-0.2,0.1c-0.2,0-0.3-0.1-0.3-0.3V77.8
		c0-1-0.8-1.8-1.8-1.8h-17.1c-1,0-1.8,0.8-1.8,1.8V92c0,1,0.8,1.8,1.8,1.8c0.7,0,1.2,0.5,1.2,1.2v9.4c0,0.6-0.5,1.2-1.2,1.2
		c-1,0-1.8,0.8-1.8,1.8v14.1c0,1,0.8,1.8,1.8,1.8h17.1c1,0,1.8-0.8,1.8-1.8V106.3z"/>
	<path class="st6" d="M207,123.2c1,0,1.8-0.8,1.8-1.8v-14.1c0-1-0.8-1.8-1.8-1.8c-0.6,0-1.2-0.5-1.2-1.2v-3.5c0-0.7,0.5-1.2,1.2-1.2
		h6.5c0.6,0,1.2,0.5,1.2,1.2c0,1,0.8,1.8,1.8,1.8h14.1c1,0,1.8-0.8,1.8-1.8v-8.2c0-1-0.8-1.8-1.8-1.8h-14.1c-1,0-1.8,0.8-1.8,1.8
		c0,0.7-0.5,1.2-1.2,1.2H207c-0.6,0-1.2-0.5-1.2-1.2v-9.4c0-0.6,0.5-1.2,1.2-1.2h18.2c0.7,0,1.2,0.5,1.2,1.2v2.9
		c0,1,0.8,1.8,1.8,1.8h20c1,0,1.8-0.8,1.8-1.8v-8.2c0-1-0.8-1.8-1.8-1.8H190c-1,0-1.8,0.8-1.8,1.8V92c0,1,0.8,1.8,1.8,1.8
		c0.7,0,1.2,0.5,1.2,1.2v9.4c0,0.6-0.5,1.2-1.2,1.2c-1,0-1.8,0.8-1.8,1.8v14.1c0,1,0.8,1.8,1.8,1.8h17V123.2z"/>
	<path class="st6" d="M239.4,117.4c0-2.7,2.1-4.8,4.7-4.8c2.6,0,4.7,2.1,4.7,4.8c0,2.8-2.1,4.9-4.7,4.9
		C241.5,122.2,239.4,120.2,239.4,117.4z M244.1,123.2c3.2,0,5.9-2.5,5.9-5.8s-2.7-5.8-5.9-5.8s-5.9,2.5-5.9,5.8
		C238.2,120.8,240.9,123.2,244.1,123.2z M243.1,117.8h1l1.6,2.6h1l-1.7-2.6c0.9-0.1,1.5-0.6,1.5-1.6c0-1.2-0.7-1.7-2.1-1.7h-2.2v5.9
		h0.9V117.8z M243.1,117v-1.8h1.2c0.6,0,1.3,0.1,1.3,0.9c0,0.9-0.7,1-1.4,1L243.1,117L243.1,117z"/>
</g>
<path class="st9" d="M117.8,83.9h-10.7v12.8H95.9V83.9H85.2v32.3h10.7v-12.7h11.2v12.7h10.7L117.8,83.9L117.8,83.9z M155.2,109.7
	V83.9h-10.7v32.3h19.4l1.6-6.5H155.2L155.2,109.7z M136.5,83.9h-10.7v32.3h10.7V83.9L136.5,83.9z M180.1,83.9h-10.7v32.3h10.7V83.9
	L180.1,83.9z M233.1,92.1c0-1.8,1.9-2.6,5-2.6c3.4,0,7.1,0.7,9.6,1.6l-0.9-7c-2.8-0.5-5.3-0.9-9.9-0.9c-8.7,0-14.6,3.1-14.6,9.7
	c0,11.3,16.8,9.1,16.8,14.3c0,2-1.6,3.1-5.6,3.1c-3.5,0-9-1.1-12.2-2.6l1.2,7.4c3.2,1.1,7.7,1.6,11.2,1.6c9,0,16.3-2.7,16.3-10.8
	C250,95.2,233.1,97.2,233.1,92.1L233.1,92.1z M202.8,108.4c10,0,16.3-4.7,16.3-13c0-9.1-6.8-12.3-17.8-12.3c-4.3,0-9.4,0.3-13.1,0.7
	v32.3h10.7v-7.7L202.8,108.4L202.8,108.4z M208.5,95.6c0,4.2-2.2,7-7.8,7h-1.8V89.3c0.6,0,1.2,0,1.8,0
	C206,89.3,208.5,91.6,208.5,95.6L208.5,95.6z M64.6,108.4c10,0,16.3-4.7,16.3-13c0-9.1-6.8-12.3-17.8-12.3c-4.3,0-9.4,0.3-13.1,0.7
	v32.3h10.7v-7.7L64.6,108.4L64.6,108.4z M70.3,95.6c0,4.2-2.2,7-7.8,7h-1.8V89.3c0.6,0,1.2,0,1.8,0C67.8,89.3,70.3,91.6,70.3,95.6
	L70.3,95.6z"/>
<g class="st0">
	<polygon class="st6" points="185.3,115 190.5,115 177.4,97.2 190,85 184.6,85 169.7,99.9 169.7,85 165.8,85 165.8,115 169.7,115 
		169.7,104.6 174.6,99.8 	"/>
	<polygon class="st6" points="250,115 250,85 246.2,85 246.2,108.6 230.5,85 226.4,85 226.4,115 230.2,115 230.2,91.4 245.9,115 	
		"/>
	<path class="st6" d="M105.1,115c1.9,0,3.5-0.2,4.8-0.5s2.4-0.8,3.3-1.5s1.6-1.6,2.2-2.8c0.6-1.2,0.9-2.5,0.9-3.9
		c0-1.7-0.5-3.3-1.5-4.5c-1-1.3-2.4-2.2-4.2-2.7c1.4-0.7,2.5-1.6,3.1-2.7c0.7-1.1,1-2.3,1-3.6c0-1.4-0.4-2.7-1.2-4
		c-0.8-1.3-1.9-2.2-3.3-2.8c-1.4-0.6-3.2-0.9-5.5-0.9H93.6v30L105.1,115L105.1,115z M97.6,88.6h6c2.2,0,3.7,0.1,4.6,0.4
		s1.6,0.8,2,1.6c0.5,0.8,0.7,1.6,0.7,2.6c0,1.1-0.3,1.9-0.8,2.6s-1.3,1.2-2.3,1.5c-0.8,0.2-2,0.3-3.8,0.3h-6.5v-9H97.6z
		 M104.5,101.2c1.9,0,3.4,0.2,4.4,0.5s1.8,0.9,2.4,1.7c0.6,0.8,0.9,1.8,0.9,2.9c0,1-0.2,1.8-0.6,2.5s-0.9,1.3-1.5,1.7
		c-0.6,0.4-1.4,0.7-2.3,0.8c-0.5,0.1-1.4,0.1-2.7,0.1h-7.5v-10.3L104.5,101.2z"/>
	<path class="st6" d="M147.4,92c-1.2-2.4-2.9-4.2-5.1-5.5c-2.2-1.3-4.7-2-7.5-2c-4.2,0-7.7,1.4-10.3,4.2c-2.7,2.8-4,6.7-4,11.7
		c0,2.6,0.6,5.1,1.7,7.5s2.8,4.2,5.1,5.6c2.2,1.4,4.7,2,7.6,2c2.6,0,5-0.6,7.3-1.9c2.2-1.2,4-3.1,5.2-5.4c1.2-2.4,1.8-5.1,1.8-8.2
		C149.2,97.1,148.6,94.4,147.4,92z M134.8,112.1c-2.9,0-5.4-1-7.3-3.1c-1.9-2.1-2.9-4.9-2.9-8.5c0-4.5,1-7.7,3-9.7
		c2-1.9,4.4-2.9,7.2-2.9c2,0,3.8,0.5,5.3,1.5c1.6,1,2.8,2.4,3.6,4.2c0.8,1.8,1.2,3.9,1.2,6.4c0,3.9-1,6.8-2.9,8.9
		C140.3,111.1,137.8,112.1,134.8,112.1z"/>
	<rect x="155" y="85" class="st6" width="4" height="30"/>
	<path class="st6" d="M199.4,113.5c2.2,1.4,4.7,2,7.6,2c2.6,0,5-0.6,7.3-1.9c2.2-1.2,4-3.1,5.2-5.4c1.2-2.4,1.8-5.1,1.8-8.2
		c0-3-0.6-5.7-1.7-8c-1.2-2.4-2.9-4.2-5.1-5.5c-2.2-1.3-4.7-2-7.5-2c-4.2,0-7.7,1.4-10.3,4.2c-2.7,2.8-4,6.7-4,11.7
		c0,2.6,0.6,5.1,1.7,7.5C195.5,110.2,197.2,112.1,199.4,113.5z M196.7,100.5c0-4.5,1-7.7,3-9.7c2-1.9,4.4-2.9,7.2-2.9
		c2,0,3.8,0.5,5.3,1.5c1.6,1,2.8,2.4,3.6,4.2c0.8,1.8,1.2,3.9,1.2,6.4c0,3.9-1,6.8-2.9,8.9s-4.4,3.1-7.4,3.1c-2.9,0-5.4-1-7.3-3.1
		C197.7,106.9,196.7,104.1,196.7,100.5z"/>
	<g class="st1">
		<g>
			<path class="st10" d="M80,91.4v20c0,2-1.6,3.6-3.6,3.6H63.9L80,91.4z"/>
		</g>
		<g>
			<path class="st10" d="M80,88.6L53.6,115c-2,0-3.6-1.6-3.6-3.6V88.6c0-2,1.6-3.6,3.6-3.6h22.7C78.4,85,80,86.6,80,88.6z"/>
		</g>
	</g>
</g>
<g class="st0">
	<path class="st6" d="M107.4,95.6L107.4,95.6c0-0.4,0.2-0.6,0.5-0.6h0.3v-2.8h-3V95h0.9v0.1c0,0.3-0.2,0.5-0.5,0.5h-2.7v-0.1
		c0-0.3,0.2-0.5,0.5-0.5h0.3v-5.9h-0.8V89c0-0.3,0.2-0.5,0.5-0.5h2.8v0.1c0,0.3-0.2,0.5-0.5,0.5h-0.4v2.4h3v-2.4h-0.8V89
		c0-0.3,0.2-0.5,0.5-0.5h2.8v0.1c0,0.3-0.2,0.5-0.5,0.5h-0.4V95h0.9v0.1c0,0.3-0.2,0.5-0.5,0.5H107.4z"/>
	<path class="st6" d="M111.5,94.4c0-0.4,0.2-0.7,0.4-0.9l2.4-0.7v-0.6c0-0.6-0.3-0.9-0.8-0.9c-0.1,0-0.3,0-0.4,0.1L113,92
		c-0.1,0.3-0.3,0.6-0.7,0.6h-0.4v-0.2c0-1,1.4-1.6,2.5-1.6c0.7,0,1.3,0.3,1.5,0.7v3.1c0,0.4,0.1,0.5,0.5,0.5h0.2v0.1
		c0,0.4-0.5,0.6-1.1,0.6c-0.5,0-0.9-0.3-1-0.7l0,0l-0.4,0.3c-0.2,0.1-0.6,0.4-1,0.4C112,95.7,111.5,95.2,111.5,94.4z M113.6,94.9
		h0.2l0.5-0.2v-1.4l-0.7,0.2c-0.3,0.1-0.6,0.3-0.6,0.8C113,94.7,113.2,94.9,113.6,94.9z"/>
	<path class="st6" d="M120.3,95.6L120.3,95.6c0-0.4,0.2-0.6,0.5-0.6h0.1v-2.3c0-0.7-0.2-1.1-0.9-1.1c-0.4,0-0.7,0.1-0.9,0.3V95h0.7
		v0.1c0,0.3-0.2,0.5-0.5,0.5H117v-0.1c0-0.3,0.2-0.5,0.5-0.5h0.1v-3.1c-0.2-0.1-0.5-0.5-0.5-0.7V91l1.4-0.4h0.6v0.9l0,0
		c0.4-0.5,1-0.8,1.6-0.8c1.1,0,1.6,0.6,1.6,1.6V95h0.8v0.1c0,0.3-0.2,0.5-0.5,0.5H120.3z"/>
	<path class="st6" d="M127.6,95.8l-0.6-0.2h-3.4v-0.2c0-0.4,0.1-0.6,0.3-0.9l2.3-3.2h-1.7l-0.3,1.1h-0.1c-0.3,0-0.5-0.2-0.5-0.5
		c0-0.2,0.1-0.4,0.1-0.6l0.1-0.7h0.2l0.5,0.2h3.3v0.1c0,0.3-0.2,0.6-0.4,0.9l-2.3,3.2h1.7l0.3-0.6c0.2-0.3,0.3-0.4,0.6-0.4h0.2
		L127.6,95.8L127.6,95.8z"/>
	<path class="st6" d="M128.7,93.2c0-1.7,1.1-2.6,2.6-2.6c1.3,0,2,0.6,2,1.4c0,0.3-0.1,0.6-0.2,0.9l-2.9,0.1v0.1
		c0,0.9,0.5,1.6,1.3,1.6c0.6,0,1-0.2,1.3-0.5h0.1c0.1,0.1,0.1,0.2,0.1,0.4c0,0.6-0.7,1.1-1.9,1.1C129.7,95.7,128.7,94.9,128.7,93.2z
		 M131.8,92.4c0-0.1,0.1-0.2,0.1-0.4c0-0.4-0.2-0.8-0.7-0.8c-0.6,0-1,0.6-1.1,1.3l0,0L131.8,92.4z"/>
	<path class="st6" d="M103.5,103.6v-4.1h-0.8v-0.1c0-0.3,0.2-0.5,0.5-0.5h2.8V99c0,0.3-0.2,0.5-0.5,0.5h-0.4v3.9
		c0,1.3,0.5,1.9,1.6,1.9c1,0,1.7-0.6,1.7-1.8v-4h-0.9v-0.1c0-0.3,0.2-0.5,0.5-0.5h2.3V99c0,0.3-0.2,0.5-0.5,0.5h-0.3v4
		c0,1.5-1.1,2.6-2.9,2.6C104.6,106,103.5,105.2,103.5,103.6z"/>
	<path class="st6" d="M114.1,105.9L114.1,105.9c0-0.4,0.2-0.6,0.5-0.6h0.1V103c0-0.7-0.2-1.1-0.9-1.1c-0.4,0-0.7,0.1-0.9,0.3v3.1
		h0.7v0.1c0,0.3-0.2,0.5-0.5,0.5h-2.2v-0.1c0-0.3,0.2-0.5,0.5-0.5h0.1v-3.1c-0.2-0.1-0.5-0.5-0.5-0.7v-0.2l1.4-0.4h0.6v0.9l0,0
		c0.4-0.5,1-0.8,1.6-0.8c1.1,0,1.6,0.6,1.6,1.6v2.7h0.8v0.1c0,0.3-0.2,0.5-0.5,0.5H114.1z"/>
	<path class="st6" d="M117.4,105.9L117.4,105.9c0-0.4,0.2-0.6,0.5-0.6h0.2v-3.1c-0.2-0.1-0.5-0.5-0.5-0.7v-0.2l1.4-0.4h0.7
		c-0.1,0.2-0.1,1.1-0.1,1.5v2.9h0.8v0.1c0,0.3-0.2,0.5-0.5,0.5C119.9,105.9,117.4,105.9,117.4,105.9z M118,99.2
		c0-0.4,0.3-0.7,0.8-0.7s0.8,0.3,0.8,0.7c0,0.4-0.3,0.7-0.8,0.7S118,99.6,118,99.2z"/>
	<path class="st6" d="M122.3,106c0-0.4-0.3-1.1-0.4-1.4l-1.2-2.9h-0.5v-0.1c0-0.3,0.2-0.5,0.5-0.5h2.2v0.1c0,0.3-0.2,0.5-0.5,0.5
		h-0.2v0.1l1.1,2.9l1.1-2.9v-0.1h-0.6v-0.1c0-0.3,0.2-0.5,0.5-0.5h1.5v0.1c0,0.3-0.2,0.5-0.5,0.5h-0.1l-1.8,4.3H122.3z"/>
	<path class="st6" d="M126.2,103.6c0-1.7,1.1-2.6,2.6-2.6c1.3,0,2,0.6,2,1.4c0,0.3-0.1,0.6-0.2,0.9l-2.9,0.1v0.1
		c0,0.9,0.5,1.6,1.3,1.6c0.6,0,1-0.2,1.3-0.5h0.1c0.1,0.1,0.1,0.2,0.1,0.4c0,0.6-0.7,1.1-1.9,1.1C127.2,106,126.2,105.2,126.2,103.6
		z M129.4,102.7c0-0.1,0.1-0.2,0.1-0.4c0-0.4-0.2-0.8-0.7-0.8c-0.6,0-1,0.6-1.1,1.3l0,0L129.4,102.7z"/>
	<path class="st6" d="M131.6,105.9L131.6,105.9c0-0.4,0.2-0.6,0.5-0.6h0.2v-3.1c-0.2-0.1-0.5-0.5-0.5-0.7v-0.2l1.4-0.4h0.6v0.9l0,0
		l0.3-0.3c0.3-0.3,0.5-0.5,0.9-0.5s0.7,0.3,0.7,0.7c0,0.3-0.1,0.5-0.3,0.8h-0.1c-0.2-0.2-0.4-0.3-0.8-0.3c-0.3,0-0.5,0.1-0.7,0.2v3
		h1.1v0.1c0,0.3-0.2,0.5-0.5,0.5L131.6,105.9L131.6,105.9z"/>
	<path class="st6" d="M135.9,105.6v-0.2c0-0.5,0.3-0.9,0.8-0.9h0.2l0.3,0.8c0.1,0.1,0.3,0.2,0.6,0.2c0.5,0,0.9-0.3,0.9-0.7
		c0-0.4-0.5-0.5-0.8-0.7l-0.6-0.2c-0.7-0.3-1.2-0.7-1.2-1.5c0-1,1.1-1.5,2.1-1.5c0.6,0,1.4,0.2,1.8,0.4v0.2c0,0.4-0.3,0.9-0.6,0.9
		h-0.2l-0.4-0.8c-0.1-0.1-0.3-0.1-0.5-0.1c-0.4,0-0.7,0.2-0.7,0.7c0,0.3,0.3,0.5,0.7,0.6l0.5,0.2c0.7,0.3,1.4,0.6,1.4,1.5
		s-0.8,1.5-2.3,1.5C137.1,106,136.3,105.8,135.9,105.6z"/>
	<path class="st6" d="M140.9,105.9L140.9,105.9c0-0.4,0.2-0.6,0.5-0.6h0.2v-3.1c-0.2-0.1-0.5-0.5-0.5-0.7v-0.2l1.4-0.4h0.7
		c-0.1,0.2-0.1,1.1-0.1,1.5v2.9h0.8v0.1c0,0.3-0.2,0.5-0.5,0.5C143.4,105.9,140.9,105.9,140.9,105.9z M141.5,99.2
		c0-0.4,0.3-0.7,0.8-0.7s0.8,0.3,0.8,0.7c0,0.4-0.3,0.7-0.8,0.7C141.8,99.8,141.5,99.6,141.5,99.2z"/>
	<path class="st6" d="M144.8,105.3v-3.5H144v-0.2c0-0.3,0.2-0.5,0.5-0.5h0.2v-0.9l1-0.4h0.4v1.3h1.4v0.1c0,0.3-0.2,0.6-0.6,0.6h-0.8
		v2.7c0,0.5,0.2,0.6,0.6,0.6c0.3,0,0.5-0.1,0.7-0.2h0.1c0.1,0.1,0.1,0.2,0.1,0.3c0,0.5-0.6,0.8-1.5,0.8
		C145.5,106,145,105.6,144.8,105.3z"/>
	<path class="st6" d="M147.7,107.9v-0.2c0-0.5,0.3-0.8,0.7-0.8c0.3,0,0.6,0.2,0.9,0.5h0.1c0.2-0.1,0.3-0.1,0.4-0.4l0.3-0.7
		c-0.1-0.4-0.5-1.4-0.6-1.6l-1.3-2.9h-0.5v-0.1c0-0.3,0.2-0.5,0.5-0.5h2.2v0.1c0,0.3-0.2,0.5-0.5,0.5h-0.2v0.1l1.2,2.7l1.1-2.7v-0.1
		h-0.6v-0.1c0-0.3,0.2-0.5,0.5-0.5h1.5v0.1c0,0.3-0.2,0.5-0.5,0.5h-0.1l-2.1,4.9c-0.4,1-0.8,1.5-1.9,1.5
		C148.3,108.1,147.9,108,147.7,107.9z"/>
	<path class="st6" d="M156,103.5c0-1.5,1-2.6,2.6-2.6c1.7,0,2.6,0.9,2.6,2.6c0,1.6-1.1,2.6-2.7,2.6C156.9,106,156,105.2,156,103.5z
		 M159.7,103.5c0-1.1-0.3-2-1.1-2c-0.7,0-1.1,0.9-1.1,2s0.3,2,1.1,2C159.3,105.4,159.7,104.6,159.7,103.5z"/>
	<path class="st6" d="M162,105.9L162,105.9c0-0.4,0.2-0.6,0.5-0.6h0.2v-3.5h-0.8v-0.2c0-0.3,0.2-0.5,0.5-0.5h0.2v-1
		c0.4-1,1.3-1.6,2.4-1.6c0.4,0,0.8,0.1,1,0.1l0.4,0.1v0.1c0,0.4-0.2,0.7-0.6,0.7c-0.2,0-0.5-0.1-0.6-0.2l-0.5-0.3h-0.1
		c-0.3,0.2-0.5,0.5-0.5,1.5v0.7h1.4v0.1c0,0.3-0.2,0.6-0.6,0.6h-0.8v3.5h1v0.1c0,0.3-0.2,0.5-0.5,0.5L162,105.9L162,105.9z"/>
	<path class="st6" d="M172.3,105.8c0-0.3,0.2-0.5,0.5-0.5h0.4v-0.1l-0.4-1.3h-2.4l-0.5,1.3v0.1h0.8v0.1c0,0.3-0.2,0.5-0.5,0.5h-1.9
		v-0.1c0-0.3,0.2-0.5,0.5-0.5h0.2l2.5-6.4l1.4-0.2c0,0.4,0.3,1.2,0.5,1.9l1.6,4.6h0.6v0.1c0,0.3-0.2,0.5-0.5,0.5h-2.6l0,0H172.3z
		 M170.5,103.2h2l-1-2.9L170.5,103.2z"/>
	<path class="st6" d="M175.7,108.1L175.7,108.1c0-0.4,0.2-0.6,0.5-0.6h0.2v-5.3c-0.2-0.1-0.5-0.5-0.5-0.7v-0.2l1.4-0.4h0.6v0.7l0,0
		c0.4-0.4,0.9-0.6,1.4-0.6c1.2,0,2,0.8,2,2.3c0,1.6-1,2.7-2.7,2.7c-0.3,0-0.6-0.1-0.8-0.1v1.6h1.1v0.1c0,0.3-0.2,0.5-0.5,0.5H175.7z
		 M179.8,103.6c0-1.2-0.5-1.7-1.3-1.7c-0.2,0-0.4,0-0.6,0.2v2.5c0,0.7,0.3,1,0.7,1C179.2,105.4,179.8,104.7,179.8,103.6z"/>
	<path class="st6" d="M181.9,108.1L181.9,108.1c0-0.4,0.2-0.6,0.5-0.6h0.2v-5.3c-0.2-0.1-0.5-0.5-0.5-0.7v-0.2l1.4-0.4h0.6v0.7l0,0
		c0.4-0.4,0.9-0.6,1.4-0.6c1.2,0,2,0.8,2,2.3c0,1.6-1,2.7-2.7,2.7c-0.3,0-0.6-0.1-0.8-0.1v1.6h1.1v0.1c0,0.3-0.2,0.5-0.5,0.5H181.9z
		 M186,103.6c0-1.2-0.5-1.7-1.3-1.7c-0.2,0-0.4,0-0.6,0.2v2.5c0,0.7,0.3,1,0.7,1C185.5,105.4,186,104.7,186,103.6z"/>
	<path class="st6" d="M188.3,105.9L188.3,105.9c0-0.4,0.2-0.6,0.5-0.6h0.2v-6l-0.8,0.2v-0.2c0-0.3,0.2-0.5,0.7-0.6l0.8-0.2h1
		c-0.1,0.3-0.1,1.1-0.1,1.5v5.3h0.8v0.1c0,0.3-0.2,0.5-0.5,0.5C190.9,105.9,188.3,105.9,188.3,105.9z"/>
	<path class="st6" d="M191.6,105.9L191.6,105.9c0-0.4,0.2-0.6,0.5-0.6h0.2v-3.1c-0.2-0.1-0.5-0.5-0.5-0.7v-0.2l1.4-0.4h0.7
		c-0.1,0.2-0.1,1.1-0.1,1.5v2.9h0.8v0.1c0,0.3-0.2,0.5-0.5,0.5C194.1,105.9,191.6,105.9,191.6,105.9z M192.3,99.2
		c0-0.4,0.3-0.7,0.8-0.7s0.8,0.3,0.8,0.7c0,0.4-0.3,0.7-0.8,0.7C192.6,99.8,192.3,99.6,192.3,99.2z"/>
	<path class="st6" d="M195.1,103.6c0-1.7,1.1-2.6,2.6-2.6c1.3,0,2,0.6,2,1.4c0,0.3-0.1,0.6-0.2,0.9l-2.9,0.1v0.1
		c0,0.9,0.5,1.6,1.3,1.6c0.6,0,1-0.2,1.3-0.5h0.1c0.1,0.1,0.1,0.2,0.1,0.4c0,0.6-0.7,1.1-1.9,1.1C196.1,106,195.1,105.2,195.1,103.6
		z M198.2,102.7c0-0.1,0.1-0.2,0.1-0.4c0-0.4-0.2-0.8-0.7-0.8c-0.6,0-1,0.6-1.1,1.3l0,0L198.2,102.7z"/>
	<path class="st6" d="M204,106v-0.6l0,0c-0.3,0.4-0.8,0.6-1.4,0.6c-1.1,0-2.1-0.8-2.1-2.4s1.1-2.7,2.7-2.7c0.3,0,0.7,0.1,0.8,0.1
		v-1.8l-1.1,0.2v-0.2c0-0.3,0.2-0.5,0.7-0.6l1-0.2h1c-0.1,0.3-0.1,1.1-0.1,1.5v5.3h0.8v0.1c0,0.3-0.2,0.5-0.5,0.5L204,106z
		 M202.1,103.4c0,1.2,0.5,1.7,1.3,1.7c0.2,0,0.4,0,0.6-0.2v-2.6c0-0.6-0.3-0.9-0.7-0.9C202.6,101.6,202.1,102.3,202.1,103.4z"/>
	<path class="st6" d="M209.4,106l-0.2-2.2h0.2c0.3,0,0.5,0.1,0.6,0.4l0.3,0.8c0.3,0.2,0.7,0.3,1.2,0.3c0.8,0,1.3-0.5,1.3-1.2
		s-0.4-1-1-1.2l-1-0.4c-0.6-0.3-1.4-0.8-1.4-1.9c0-1.2,1.1-1.9,2.6-1.9c0.6,0,1.1,0.1,1.4,0.3h0.1l0.5-0.2h0.3v1.2
		c0,0.5-0.2,0.7-0.6,0.7h-0.1l-0.5-1.1c-0.2-0.1-0.6-0.2-0.9-0.2c-0.7,0-1.1,0.3-1.1,1s0.4,0.9,0.9,1.1l1,0.4c0.8,0.3,1.6,0.9,1.6,2
		c0,1.4-1.2,2.1-2.8,2.1c-0.6,0-1.2-0.1-1.4-0.2h-0.1l-0.5,0.2L209.4,106L209.4,106z"/>
	<path class="st6" d="M215.2,103.5c0-1.7,1.3-2.6,2.7-2.6c0.6,0,1.2,0.2,1.5,0.4v0.2c0,0.4-0.1,0.7-0.5,0.9h-0.1l-0.6-0.7
		c-0.1-0.1-0.2-0.2-0.4-0.2c-0.6,0-1.1,0.7-1.1,1.8c0,1.4,0.7,1.8,1.3,1.8c0.5,0,0.9-0.3,1.1-0.5h0.1c0,0.1,0.1,0.2,0.1,0.4
		c0,0.6-0.7,1.1-1.7,1.1C216.1,106,215.2,105.1,215.2,103.5z"/>
	<path class="st6" d="M220.1,105.9L220.1,105.9c0-0.4,0.2-0.6,0.5-0.6h0.2v-3.1c-0.2-0.1-0.5-0.5-0.5-0.7v-0.2l1.4-0.4h0.7
		c-0.1,0.2-0.1,1.1-0.1,1.5v2.9h0.8v0.1c0,0.3-0.2,0.5-0.5,0.5C222.6,105.9,220.1,105.9,220.1,105.9z M220.7,99.2
		c0-0.4,0.3-0.7,0.8-0.7s0.8,0.3,0.8,0.7c0,0.4-0.3,0.7-0.8,0.7C221,99.8,220.7,99.6,220.7,99.2z"/>
	<path class="st6" d="M223.5,103.6c0-1.7,1.1-2.6,2.6-2.6c1.3,0,2,0.6,2,1.4c0,0.3-0.1,0.6-0.2,0.9l-2.9,0.1v0.1
		c0,0.9,0.5,1.6,1.3,1.6c0.6,0,1-0.2,1.3-0.5h0.1c0.1,0.1,0.1,0.2,0.1,0.4c0,0.6-0.7,1.1-1.9,1.1C224.5,106,223.5,105.2,223.5,103.6
		z M226.7,102.7c0-0.1,0.1-0.2,0.1-0.4c0-0.4-0.2-0.8-0.7-0.8c-0.6,0-1,0.6-1.1,1.3l0,0L226.7,102.7z"/>
	<path class="st6" d="M232.1,105.9L232.1,105.9c0-0.4,0.2-0.6,0.5-0.6h0.1V103c0-0.7-0.2-1.1-0.9-1.1c-0.4,0-0.7,0.1-0.9,0.3v3.1
		h0.7v0.1c0,0.3-0.2,0.5-0.5,0.5h-2.2v-0.1c0-0.3,0.2-0.5,0.5-0.5h0.1v-3.1c-0.2-0.1-0.5-0.5-0.5-0.7v-0.2l1.4-0.4h0.6v0.9l0,0
		c0.4-0.5,1-0.8,1.6-0.8c1.1,0,1.6,0.6,1.6,1.6v2.7h0.8v0.1c0,0.3-0.2,0.5-0.5,0.5H232.1z"/>
	<path class="st6" d="M235.4,103.5c0-1.7,1.3-2.6,2.7-2.6c0.6,0,1.2,0.2,1.5,0.4v0.2c0,0.4-0.1,0.7-0.5,0.9H239l-0.6-0.7
		c-0.1-0.1-0.2-0.2-0.4-0.2c-0.6,0-1.1,0.7-1.1,1.8c0,1.4,0.7,1.8,1.3,1.8c0.5,0,0.9-0.3,1.1-0.5h0.1c0,0.1,0.1,0.2,0.1,0.4
		c0,0.6-0.7,1.1-1.7,1.1C236.4,106,235.4,105.1,235.4,103.5z"/>
	<path class="st6" d="M240.4,103.6c0-1.7,1.1-2.6,2.6-2.6c1.3,0,2,0.6,2,1.4c0,0.3-0.1,0.6-0.2,0.9l-2.9,0.1v0.1
		c0,0.9,0.5,1.6,1.3,1.6c0.6,0,1-0.2,1.3-0.5h0.1c0.1,0.1,0.1,0.2,0.1,0.4c0,0.6-0.7,1.1-1.9,1.1C241.4,106,240.4,105.2,240.4,103.6
		z M243.5,102.7c0-0.1,0.1-0.2,0.1-0.4c0-0.4-0.2-0.8-0.7-0.8c-0.6,0-1,0.6-1.1,1.3l0,0L243.5,102.7z"/>
	<path class="st6" d="M245.8,105.6v-0.2c0-0.5,0.3-0.9,0.8-0.9h0.2l0.3,0.8c0.1,0.1,0.3,0.2,0.6,0.2c0.5,0,0.9-0.3,0.9-0.7
		c0-0.4-0.5-0.5-0.8-0.7l-0.6-0.2c-0.7-0.3-1.2-0.7-1.2-1.5c0-1,1.1-1.5,2.1-1.5c0.6,0,1.4,0.2,1.8,0.4v0.2c0,0.4-0.3,0.9-0.6,0.9
		H249l-0.4-0.8c-0.1-0.1-0.3-0.1-0.5-0.1c-0.4,0-0.7,0.2-0.7,0.7c0,0.3,0.3,0.5,0.7,0.6l0.5,0.2c0.7,0.3,1.4,0.6,1.4,1.5
		s-0.8,1.5-2.2,1.5C247,106,246.2,105.8,245.8,105.6z"/>
	<g class="st1">
		<path class="st10" d="M105.6,111.9L105.6,111.9c0-0.3,0.2-0.4,0.4-0.4h1.9v0.1c0,0.3-0.2,0.4-0.5,0.4h-0.2v1.8
			c-0.3,0.2-1,0.6-1.9,0.6c-1.9,0-2.7-1.4-2.7-3c0-1.9,1.3-3.1,2.9-3.1c0.6,0,1,0.1,1.2,0.2h0.1l0.4-0.2h0.1v1
			c0,0.4-0.1,0.6-0.3,0.6l0,0l-0.4-1c-0.2-0.2-0.4-0.3-1.1-0.3c-1.3,0-2.1,1.1-2.1,2.5c0,1.6,0.8,2.7,2,2.7c0.4,0,0.7-0.1,1-0.3
			v-1.7h-0.8V111.9z"/>
		<path class="st10" d="M108.5,114.2L108.5,114.2c0-0.3,0.2-0.4,0.4-0.4h0.1V111c-0.2-0.1-0.5-0.3-0.5-0.5v-0.1l1-0.3h0.2v0.7l0,0
			l0.4-0.4c0.2-0.2,0.4-0.3,0.5-0.3c0.3,0,0.5,0.2,0.5,0.5c0,0.2,0,0.3-0.2,0.5h-0.1c0-0.1-0.2-0.3-0.4-0.3c-0.4,0-0.6,0.1-0.8,0.3
			v2.7h0.9v0.1c0,0.2-0.2,0.4-0.5,0.4L108.5,114.2L108.5,114.2z"/>
		<path class="st10" d="M111.5,112.2c0-1.3,0.9-2.2,2-2.2c1.2,0,1.8,0.8,1.8,2.1c0,1.3-0.8,2.2-1.9,2.2
			C112.1,114.3,111.5,113.5,111.5,112.2z M114.5,112.2c0-1-0.4-1.7-1.2-1.7c-0.7,0-1.1,0.8-1.1,1.8s0.4,1.7,1.2,1.7
			S114.5,113.2,114.5,112.2z"/>
		<path class="st10" d="M118.5,114.2L118.5,114.2c0-0.3,0.2-0.4,0.4-0.4h0.1v-2.2c0-0.7-0.3-1-0.8-1c-0.3,0-0.7,0.2-1,0.4v2.8h0.6
			v0.1c0,0.2-0.2,0.4-0.5,0.4H116v-0.1c0-0.3,0.2-0.4,0.4-0.4h0.1V111c-0.2-0.1-0.5-0.3-0.5-0.5v-0.1l1-0.3h0.2v0.7l0,0
			c0.4-0.4,0.8-0.6,1.2-0.6c0.8,0,1.2,0.4,1.2,1.2v2.5h0.7v0.1c0,0.2-0.2,0.4-0.5,0.4h-1.3L118.5,114.2L118.5,114.2z"/>
		<path class="st10" d="M120.9,114.2L120.9,114.2c0-0.3,0.2-0.4,0.4-0.4h0.1V111c-0.2-0.1-0.5-0.3-0.5-0.5v-0.1l1-0.3h0.3
			c-0.1,0.2-0.1,0.9-0.1,1.3v2.5h0.6v0.1c0,0.2-0.2,0.4-0.5,0.4h-1.3V114.2z M121.3,108.6c0-0.3,0.2-0.4,0.5-0.4s0.5,0.2,0.5,0.4
			c0,0.3-0.2,0.5-0.5,0.5S121.3,108.9,121.3,108.6z"/>
		<path class="st10" d="M125.7,114.2L125.7,114.2c0-0.3,0.2-0.4,0.4-0.4h0.1v-2.2c0-0.7-0.3-1-0.8-1c-0.3,0-0.7,0.2-1,0.4v2.8h0.6
			v0.1c0,0.2-0.2,0.4-0.5,0.4h-1.4v-0.1c0-0.3,0.2-0.4,0.4-0.4h0.1V111c-0.2-0.1-0.5-0.3-0.5-0.5v-0.1l1-0.3h0.2v0.7l0,0
			c0.4-0.4,0.8-0.6,1.2-0.6c0.8,0,1.2,0.4,1.2,1.2v2.5h0.7v0.1c0,0.2-0.2,0.4-0.5,0.4h-1.2L125.7,114.2L125.7,114.2z"/>
		<path class="st10" d="M129.4,112.9c-0.1,0.1-0.2,0.2-0.2,0.3c0,0.2,0.2,0.3,0.6,0.4l0.9,0.1c0.6,0.1,1,0.3,1,0.9
			c0,0.8-1.2,1.5-2.3,1.5c-0.7,0-1.5-0.2-1.5-1c0-0.6,0.7-0.9,1.2-1V114l0,0c-0.2-0.1-0.5-0.3-0.5-0.6c0-0.3,0.3-0.5,0.6-0.6l0,0
			c-0.6-0.2-1-0.6-1-1.3c0-0.9,0.7-1.4,1.5-1.4c0.4,0,0.7,0.1,1,0.3h0.1c0.1-0.1,0.2-0.2,0.5-0.2h0.7v0.1c0,0.3-0.1,0.4-0.4,0.4H131
			c0.2,0.2,0.3,0.5,0.3,0.8c0,1-0.7,1.4-1.5,1.4C129.6,112.9,129.5,112.9,129.4,112.9z M129.7,115.6c0.9,0,1.4-0.2,1.4-0.8
			c0-0.4-0.2-0.5-0.7-0.5l-1-0.1c-0.4,0.2-0.6,0.4-0.6,0.7C128.7,115.4,129,115.6,129.7,115.6z M130.6,111.5c0-0.6-0.3-1-0.8-1
			s-0.8,0.3-0.8,1c0,0.6,0.2,1.1,0.8,1.1C130.3,112.5,130.6,112.1,130.6,111.5z"/>
		<path class="st10" d="M132.4,112.3c0-1.3,0.8-2.2,1.9-2.2c0.9,0,1.4,0.5,1.4,1.1c0,0.3,0,0.5-0.1,0.7l-2.5,0.1v0.1
			c0,0.9,0.5,1.6,1.3,1.6c0.5,0,0.8-0.2,1-0.4h0.1c0,0.1,0.1,0.1,0.1,0.2c0,0.4-0.5,0.8-1.3,0.8
			C133.1,114.3,132.4,113.5,132.4,112.3z M134.9,111.6c0.1-0.1,0.1-0.3,0.1-0.4c0-0.4-0.2-0.8-0.8-0.8s-1.1,0.6-1.1,1.3L134.9,111.6
			z"/>
		<path class="st10" d="M138.9,114.2L138.9,114.2c0-0.3,0.2-0.4,0.4-0.4h0.1v-2.2c0-0.7-0.3-1-0.8-1c-0.3,0-0.7,0.2-1,0.4v2.8h0.6
			v0.1c0,0.2-0.2,0.4-0.5,0.4h-1.4v-0.1c0-0.3,0.2-0.4,0.4-0.4h0.1V111c-0.2-0.1-0.5-0.3-0.5-0.5v-0.1l1-0.3h0.2v0.7l0,0
			c0.4-0.4,0.8-0.6,1.2-0.6c0.8,0,1.2,0.4,1.2,1.2v2.5h0.7v0.1c0,0.2-0.2,0.4-0.5,0.4h-1.2V114.2z"/>
	</g>
	<g class="st1">
		<path class="st11" d="M81.1,114.6c-0.7,0-1.5,0.2-2.1,0.6c-1,1.2,3.1,1.4,0.4,2.8c-0.7,0.3-1.5,0.3-2.2,0.2
			c-1.1-0.2-1.9-0.9-1.6-1.7c0.3-1,1.7-1.8,3.4-2.4c5.1-1.1,8.6-0.7,13.7-1.3c1.9-0.2,2.1,0,2.1-1.2c-0.3-0.7-1.2-1.4-1.8-2.1
			c-5.1-4.4-13.4-5.6-21.6-6v0.1c3.5,1.7,6.2,3.7,9.3,5.5c1.6,0.9,3.9,1,5.9,0.9l0.7,0.8l-0.1,0.1l-11.9,0.7h-0.1
			c-3.1-4-9-8.7-16.6-10.6c-1.4-0.3-3.2-0.5-4.4-0.1c-1.3,0.7-0.4,2.7-3.3,2.2c-0.4-0.1-0.7-0.3-0.9-0.6c-0.4-0.7-0.1-1.4,0.8-1.8
			c2.9-1.4,7.7-0.6,11.7-0.7c2.2-0.1,4.8-0.4,5.3-1.8c0.1-0.6-0.8-1.1-1.6-1.4c-1.1-0.3-2.4-0.2-3.4,0c-0.4-0.1-0.9-0.4-1.1-0.6
			c1.8-0.8,3.9-1.4,6.5-0.8c1.1,0.2,2.1,0.6,3,1c1.1-0.5,1.7-1.2,2.2-1.9c0.6-1-0.3-2.2-1.7-3c-1.2-0.8-2.7-1.2-4.3-1.1l-1.3,0.1
			l-0.7-0.7c1.9-0.9,5-1,7.4-0.3c1.7,0.5,3.4,1.4,4.6,2.3c1.3-0.7,2.6-1.6,4.2-2.1c3-1,7.1-1,11.1-0.6V89c-2.3-0.7-5-1.7-6.4-3.1
			c-1.6-1-2.7-2.7-5.3-3c-1.4-0.1-2.5,0.4-3.6,0.7c-0.5-0.2-1-0.4-1.3-0.7c2.7-1.2,6.8-1.6,10.5-0.7c5,1.3,5.4,4.5,9.7,6.4
			c0.4,0.2,0.7,0.3,1.1,0.5V77.9h0.8v44.2h-0.8V115C92.9,116.4,87.4,114.6,81.1,114.6 M97.8,92.4v-1.8l0,0c-3-0.4-6-0.4-8.2,0.6
			l-3.1,1.5l-11.9,7c-2.4,1.3-5.7,1.4-9.1,1.6v0.1c3.9,0.7,9.1,1.4,12.5,0.3l3.7-1.8l10-5.9C93.4,93,95.5,92.5,97.8,92.4 M97.8,99.7
			V96l-5.3,3.1c-0.1,0-0.1,0.1,0,0.1L97.8,99.7z M97.8,105.7v-5.1l-6.5-0.7l-0.9,0.6C91.9,102.4,94.6,104.4,97.8,105.7 M97.8,109.5
			v-2.7c-3.6-1.3-6.9-3.5-8.6-5.6l-5,3c4.9,1.1,9.8,3.8,11.8,6.6L97.8,109.5z"/>
	</g>
</g>
<g class="st0">
	<polygon class="st6" points="121,85 121,68 118.1,68 118.1,79.3 108.1,67.8 107.1,67.8 107.1,84.7 109.7,84.7 109.7,73.2 120,85 	
		"/>
	<polygon class="st6" points="136.2,84.7 138.7,84.7 138.7,68 136.2,68 136.2,74.8 127.7,74.8 127.7,68 124.9,68 124.9,84.7 
		127.7,84.7 127.7,77.1 136.2,77.1 	"/>
	<path class="st6" d="M114.2,107.4c-0.5,0.4-1.2,0.6-2.1,0.6c-1.7,0-3.1-0.9-4.4-2.7l-1.9,1.4c0.6,1.1,1.5,2,2.6,2.7
		c1.1,0.6,2.3,1,3.7,1c1.6,0,3-0.4,4-1.3c1.1-0.9,1.6-2.1,1.6-3.5c0-1.1-0.3-2-1-2.7s-1.7-1.4-3-2l-1.9-0.9
		c-0.8-0.4-1.4-0.8-1.8-1.1c-0.4-0.3-0.5-0.7-0.5-1.3c0-0.7,0.2-1.2,0.7-1.5s1.1-0.5,1.8-0.5c1.4,0,2.6,0.7,3.5,2l1.9-1.4
		c-0.5-0.9-1.3-1.6-2.2-2.2c-0.9-0.5-2-0.8-3.2-0.8c-1.5,0-2.7,0.4-3.7,1.3c-1,0.8-1.5,1.9-1.5,3.3c0,1.1,0.3,2,1,2.7
		s1.6,1.4,2.9,1.9l1.8,0.9c0.9,0.4,1.5,0.8,1.9,1.1c0.4,0.3,0.6,0.8,0.6,1.4S114.7,106.9,114.2,107.4z"/>
	<polygon class="st6" points="127.7,110.1 127.7,95.7 133.4,95.7 133.4,93.4 119.6,93.4 119.6,95.7 124.9,95.7 124.9,110.1 	"/>
	<polygon class="st6" points="147.2,107.5 138.7,107.5 138.7,102.4 144.9,102.4 144.9,100.2 138.7,100.2 138.7,96 146.9,96 
		146.9,93.4 135.9,93.4 135.9,110.1 147.2,110.1 	"/>
	<path class="st6" d="M173.5,93.4h-5.2V110h5.2c2.7,0,4.9-0.8,6.6-2.3c1.7-1.6,2.5-3.6,2.5-6c0-2.5-0.8-4.5-2.5-6
		C178.5,94.2,176.3,93.4,173.5,93.4z M178,106.1c-1.1,1.1-2.7,1.7-4.6,1.7h-2.5V96h2.5c2,0,3.5,0.5,4.6,1.6s1.7,2.5,1.7,4.3
		C179.7,103.6,179.2,105,178,106.1z"/>
	<polygon class="st6" points="188.3,102.4 194.5,102.4 194.5,100.2 188.3,100.2 188.3,96 196.5,96 196.5,93.4 185.8,93.4 
		185.8,110.1 196.8,110.1 196.8,107.8 188.3,107.8 	"/>
	<polygon class="st6" points="211.2,93.4 211.2,104.7 200.9,93.1 199.9,93.1 199.9,110.1 202.7,110.1 202.7,98.6 213.4,110.3 
		214,110.3 214,93.4 	"/>
	<polygon class="st6" points="86,128.1 164.1,128.1 164.1,114.3 164.1,110.1 164.1,109.8 164.1,93.4 161.3,93.4 161.3,104.6 
		151.2,93.1 150.3,93.1 150.3,110.1 152.8,110.1 152.8,98.8 161.3,108.2 161.3,109.9 161.3,110.2 161.3,114.3 161.3,125.3 
		89.1,125.3 89.1,53.1 161.3,53.1 161.3,69.7 161.3,77.5 161.3,82.4 161.3,82.4 153.3,82.4 151.1,82.4 145.8,82.4 145.8,68 143,68 
		143,84.7 151.1,84.7 153.3,84.7 157.6,84.7 157.6,85 164.1,85 164.1,82.7 164.1,82.6 164.1,82.3 164.1,82.3 164.1,77.4 164.1,69.5 
		164.1,50 86,50 	"/>
	<path class="st6" d="M89.5,139.9c-0.9,0-1.6,0.3-2.1,0.9v-4.5H86v11h1.7V143c0-0.5,0.1-0.9,0.4-1.2s0.7-0.5,1.1-0.5
		c0.5,0,0.8,0.2,1.1,0.5c0.3,0.3,0.4,0.7,0.4,1.2v4.3h1.4v-4.5c0-0.9-0.2-1.5-0.7-2.1C91,140.1,90.3,139.9,89.5,139.9z"/>
	<path class="st6" d="M97.8,139.9c-1.1,0-2,0.4-2.7,1.1c-0.7,0.7-1.1,1.6-1.1,2.7c0,1.1,0.4,2,1.1,2.7s1.6,1.1,2.7,1.1
		s2-0.4,2.7-1.1c0.8-0.7,1.1-1.6,1.1-2.7c0-1.1-0.4-2-1.1-2.7C99.8,140.2,98.9,139.9,97.8,139.9z M99.4,145.3
		c-0.4,0.4-1,0.7-1.6,0.7s-1.2-0.2-1.6-0.7c-0.4-0.4-0.6-1-0.6-1.7s0.2-1.2,0.6-1.7c0.4-0.4,1-0.7,1.6-0.7s1.2,0.2,1.6,0.7
		c0.4,0.4,0.6,1,0.6,1.7C100.1,144.3,99.9,144.9,99.4,145.3z"/>
	<path class="st6" d="M108.8,141c-0.3-0.8-1.1-1.2-2.3-1.2c-1,0-1.9,0.3-2.5,1c-0.7,0.7-1,1.5-1,2.6s0.3,1.9,1,2.6
		c0.7,0.7,1.5,1,2.5,1s2.6-1,2.6-1v0.4c0,0.7-0.2,1.2-0.5,1.5c-0.4,0.3-0.8,0.5-1.4,0.5c-0.8,0-1.5-0.3-2.3-1l-0.8,1.1
		c0.9,0.9,1.9,1.4,3.2,1.4c1,0,1.8-0.3,2.4-0.9c0.6-0.6,0.9-1.5,0.9-2.6v-6.5h-1.7L108.8,141L108.8,141z M108.4,145.2
		c-0.4,0.4-0.9,0.6-1.5,0.6s-1.2-0.2-1.6-0.6c-0.4-0.4-0.6-1-0.6-1.6c0-0.7,0.2-1.2,0.6-1.6c0.4-0.4,0.9-0.6,1.6-0.6
		c0.6,0,1.1,0.2,1.5,0.6c0.4,0.4,0.6,0.9,0.6,1.7C109,144.2,108.8,144.8,108.4,145.2z"/>
	<path class="st6" d="M116.1,139.9c-1.1,0-1.9,0.4-2.7,1.1c-0.7,0.7-1.1,1.6-1.1,2.7c0,1.1,0.4,2,1.1,2.7s1.7,1.1,2.8,1.1
		c1.1,0,2.1-0.4,2.9-1.2l-0.7-1.1c-0.6,0.6-1.4,0.9-2.1,0.9c-0.6,0-1.2-0.2-1.6-0.5s-0.7-0.8-0.8-1.4h5.4c0.1-0.3,0.1-0.7,0.1-1
		c0-1-0.3-1.7-1-2.4C117.9,140.2,117.1,139.9,116.1,139.9z M114,143c0.1-0.5,0.4-1,0.7-1.3c0.4-0.3,0.8-0.5,1.3-0.5s1,0.2,1.3,0.5
		c0.4,0.3,0.5,0.8,0.5,1.3H114z"/>
	<path class="st6" d="M124.2,143l-0.7-0.3c-0.4-0.1-0.6-0.3-0.7-0.4c-0.1-0.1-0.2-0.3-0.2-0.5c0-0.5,0.3-0.7,1-0.7s1.2,0.2,1.7,0.7
		l0.8-1c-0.6-0.7-1.5-1.1-2.5-1.1c-0.7,0-1.3,0.2-1.8,0.6c-0.5,0.4-0.7,0.9-0.7,1.5c0,0.5,0.2,0.9,0.5,1.2s0.8,0.6,1.4,0.9l0.7,0.3
		c0.4,0.1,0.6,0.3,0.8,0.4c0.2,0.1,0.2,0.3,0.2,0.5c0,0.3-0.1,0.5-0.3,0.6c-0.2,0.1-0.5,0.2-0.8,0.2c-0.7,0-1.4-0.3-2-1l-0.9,1
		c0.7,0.9,1.7,1.4,2.9,1.4c0.8,0,1.4-0.2,1.9-0.6c0.5-0.4,0.8-0.9,0.8-1.6c0-0.5-0.2-0.9-0.5-1.3C125.4,143.6,124.9,143.3,124.2,143
		z"/>
	<path class="st6" d="M131.3,141.3c0.8,0,1.4,0.4,1.9,1.1l1.1-0.9c-0.3-0.5-0.7-0.9-1.3-1.2c-0.5-0.3-1.1-0.4-1.8-0.4
		c-1.1,0-2,0.4-2.7,1.1c-0.7,0.7-1.1,1.6-1.1,2.7c0,1.1,0.4,2,1.1,2.7s1.6,1.1,2.7,1.1c1.3,0,2.4-0.6,3.1-1.7l-1.1-0.8
		c-0.5,0.7-1.2,1.1-1.9,1.1s-1.2-0.2-1.6-0.7c-0.4-0.4-0.6-1-0.6-1.7s0.2-1.2,0.6-1.7C130.1,141.5,130.7,141.3,131.3,141.3z"/>
	<path class="st6" d="M139.7,139.9c-0.9,0-1.6,0.3-2.1,0.9v-4.5h-1.4v11h1.4V143c0-0.5,0.1-0.9,0.4-1.2c0.3-0.3,0.7-0.5,1.1-0.5
		c0.5,0,0.8,0.2,1.1,0.5s0.4,0.7,0.4,1.2v4.3h1.7v-4.5c0-0.9-0.2-1.5-0.7-2.1C141.2,140.1,140.5,139.9,139.7,139.9z"/>
	<path class="st6" d="M147.9,139.9c-1.1,0-2,0.4-2.7,1.1c-0.7,0.7-1.1,1.6-1.1,2.7c0,1.1,0.4,2,1.1,2.7c0.7,0.7,1.6,1.1,2.7,1.1
		c1.1,0,2-0.4,2.7-1.1c0.8-0.7,1.1-1.6,1.1-2.7c0-1.1-0.4-2-1.1-2.7C149.9,140.2,149,139.9,147.9,139.9z M149.5,145.3
		c-0.4,0.4-1,0.7-1.6,0.7s-1.2-0.2-1.6-0.7c-0.4-0.4-0.6-1-0.6-1.7s0.2-1.2,0.6-1.7c0.4-0.4,1-0.7,1.6-0.7s1.2,0.2,1.6,0.7
		c0.4,0.4,0.6,1,0.6,1.7C150.2,144.3,150,144.9,149.5,145.3z"/>
	<path class="st6" d="M156.9,139.9c-1.1,0-2,0.4-2.7,1.1c-0.7,0.7-1.1,1.6-1.1,2.7c0,1.1,0.4,2,1.1,2.7c0.7,0.7,1.6,1.1,2.7,1.1
		c1.1,0,2-0.4,2.7-1.1c0.8-0.7,1.1-1.6,1.1-2.7c0-1.1-0.4-2-1.1-2.7C158.9,140.2,158,139.9,156.9,139.9z M158.5,145.3
		c-0.4,0.4-1,0.7-1.6,0.7s-1.2-0.2-1.6-0.7c-0.4-0.4-0.6-1-0.6-1.7s0.2-1.2,0.6-1.7c0.4-0.4,1-0.7,1.6-0.7s1.2,0.2,1.6,0.7
		c0.4,0.4,0.6,1,0.6,1.7C159.2,144.3,158.9,144.9,158.5,145.3z"/>
	<rect x="162.7" y="136.3" class="st6" width="1.4" height="11"/>
</g>
<g class="st0">
	<g class="st1">
		<path class="st10" d="M50,85h4.3l8.4,14c-0.1-1.4-0.1-2.7-0.1-3.7V85h5.3v24.5h-4.3l-8.4-13.9c0.1,1.4,0.1,2.8,0.1,3.8v10.1H50V85
			z"/>
		<path class="st10" d="M70.9,98.3c0-5.2,3.4-8.3,8.1-8.3s8.1,3.1,8.1,8.3v3.3c0,5.2-3.4,8.3-8.1,8.3s-8.1-3.1-8.1-8.3V98.3z
			 M79,105.5c2.2,0,2.9-1.6,2.9-4.1v-2.9c0-2.5-0.8-4.1-2.9-4.1c-2.2,0-2.9,1.6-2.9,4.1v2.9C76.1,103.9,76.8,105.5,79,105.5z"/>
		<path class="st10" d="M90,98.3c0-5.2,3.4-8.3,8.1-8.3s8.1,3.1,8.1,8.3v3.3c0,5.2-3.4,8.3-8.1,8.3s-8.1-3.1-8.1-8.3V98.3z
			 M98.1,105.5c2.2,0,2.9-1.6,2.9-4.1v-2.9c0-2.5-0.8-4.1-2.9-4.1c-2.2,0-2.9,1.6-2.9,4.1v2.9C95.2,103.9,95.9,105.5,98.1,105.5z"/>
		<path class="st10" d="M109.2,97.3c0-4.4,3.4-7.3,7.7-7.3c1.2,0,2.5,0.2,3.6,0.6l-1,4.2c-0.8-0.2-1.7-0.4-2.6-0.4
			c-1.6,0-2.6,1.2-2.6,2.9v12.1h-5.1V97.3z"/>
		<path class="st10" d="M121.6,98c0-5.4,3.7-8,7.5-8c1.2,0,2.4,0.4,3.2,0.9v-8h5.2v19c0,5-3.7,7.9-7.9,7.9s-7.9-2.9-7.9-7.9V98
			H121.6z M129.5,105.5c1.6,0,2.8-1.2,2.8-3.7v-6.7c-0.9-0.4-1.8-0.7-2.7-0.7c-1.6,0-2.8,1-2.8,3.8v3.6
			C126.8,104.3,127.9,105.5,129.5,105.5z"/>
		<path class="st10" d="M140.6,98c0-5.2,3.4-8,7.7-8s7.7,3,7.7,7.3v4.1h-10.3v0.3c0,2.6,1.1,3.8,3.3,3.8c1.8,0,3.5-0.4,5.2-0.9
			l1,4.2c-2.1,0.8-3.7,1.1-6.2,1.1c-5.1,0-8.5-2.9-8.5-8.2V98H140.6z M150.8,97.8v-0.5c0-1.6-0.9-2.9-2.6-2.9
			c-1.5,0-2.6,1.3-2.6,2.9v0.5H150.8z"/>
		<path class="st10" d="M159.1,97.3c0-4.4,3.4-7.3,7.7-7.3c1.2,0,2.5,0.2,3.6,0.6l-1,4.2c-0.8-0.2-1.7-0.4-2.6-0.4
			c-1.6,0-2.6,1.2-2.6,2.9v12.1h-5.1L159.1,97.3L159.1,97.3z"/>
		<path class="st10" d="M176.8,117.1h-5.2V98c0-5,3.7-7.9,8-7.9s7.9,2.9,7.9,7.9v4c0,5.4-3.7,8-7.5,8c-1.2,0-2.5-0.4-3.2-0.9V117.1z
			 M179.6,105.5c1.6,0,2.8-1,2.8-3.8v-3.6c0-2.5-1.2-3.7-2.8-3.7s-2.8,1.2-2.8,3.7v6.7C177.7,105.2,178.6,105.5,179.6,105.5z"/>
		<path class="st10" d="M226.5,97.3c0-4.4,3.4-7.3,7.7-7.3c1.2,0,2.5,0.2,3.6,0.6l-1,4.2c-0.8-0.2-1.7-0.4-2.6-0.4
			c-1.6,0-2.6,1.2-2.6,2.9v12.1h-5.1L226.5,97.3L226.5,97.3z"/>
		<path class="st10" d="M241.8,93.9h-2.3l-0.8-3.4h3.1v-5.1l5.2-0.7v5.8h3v3.4h-3v15.5h-5.2V93.9z"/>
	</g>
	<path class="st6" d="M215.8,90c-4.8,0-7.4,3.4-8.7,5.1c-2.5-3.8-4.9-5.1-8.5-5.1c-5.1,0-9,3.9-9,10c0,6.2,4.2,9.8,8.4,9.8
		c4,0,6.5-1.9,9.1-5.5c3,5.2,5.8,5.5,8.5,5.5c4.3,0,8.6-3.6,8.6-10.2v-0.1C224.2,93.7,220.2,90,215.8,90z M198.7,105L198.7,105
		c-2.3,0-4.4-2.2-4.4-4.9c0.1-3.3,1.5-5.3,4.3-5.3c2.9,0,3.9,2.2,5.9,5.6C202.5,103.4,201,105,198.7,105z M215.6,105.1
		c-2.9,0.1-4-2.1-6.2-5.3c1.9-3.1,3.3-4.8,5.7-4.9h0.1c2.2-0.1,4.4,2,4.5,4.7C219.8,102.9,218.4,104.9,215.6,105.1z"/>
</g>
<g class="st0">
	<g class="st1">
		<polygon class="st11" points="165,121.8 165,95.3 250,95.3 242.6,121.8 		"/>
	</g>
	<polygon class="st12" points="50,98.1 81.3,98.1 75.6,117.6 50,117.6 	"/>
	<path class="st12" d="M131.9,87.6c1.1,0.7,3.6,2.6,6.7,2.4c1.7-0.1,3.8-1.1,6.2-1.9c2-0.6,4.3-1.1,6.3-0.8
		c6.3,0.7,11.5,4.8,10,15.4c-0.8-4.9-2.9-12-9.7-12.6c-1.9-0.2-3.8,0.2-5.8,0.6c-2.2,0.4-4.4,0.7-6.4,0.7
		C136.7,91.2,134,90.4,131.9,87.6L131.9,87.6z"/>
	<path class="st12" d="M98.6,96.3c-1.2-7.9,1.5-15.6,6.3-20.6c3.7-3.8,8.7-6,13.6-5.8c3.6,0.2,7.7,0.9,10.3,3.9
		c-3.2-1.7-6.6-2.9-10.2-2.6c-6.1,0.5-10.9,4.2-13.8,9.6c-2.4,4.5-3.1,10-2.9,15.4C100.8,96.2,99.7,96.2,98.6,96.3L98.6,96.3z"/>
	<path class="st3" d="M55.6,108.6h0.6l1.8,3.5h1.8l-1.9-3.8c0.5-0.2,1.6-0.8,1.6-2.4c0-2.2-1.4-2.7-2.6-2.7H54v8.9h1.6V108.6
		L55.6,108.6z M55.6,104.8h0.7c0.5,0,1.4,0,1.4,1.2c0,1.1-0.8,1.2-1.2,1.2h-0.9V104.8L55.6,104.8z M67.4,107.7
		c0-1.1-0.4-4.7-3.5-4.7s-3.5,3.6-3.5,4.7s0.4,4.7,3.5,4.7C67.1,112.4,67.4,108.8,67.4,107.7L67.4,107.7z M65.6,107.7
		c0,0.8-0.1,3.2-1.6,3.2c-1.6,0-1.6-2.4-1.6-3.2c0-0.8,0.1-3.2,1.6-3.2S65.6,106.9,65.6,107.7L65.6,107.7z M74.1,104.3
		c-0.5-0.8-1.5-1.2-2.4-1.2c-1.5,0-3.5,1.4-3.5,4.7c0,2.8,1.4,4.6,3.4,4.6c0.9,0,1.9-0.3,2.9-1.8l-1-1c-0.5,0.8-1.1,1-1.6,1
		s-1.8-0.4-1.8-2.9c0-2.2,0.8-3,1.8-3c0.6,0,0.9,0.2,1.5,0.8L74.1,104.3L74.1,104.3z"/>
	<path class="st6" d="M94.9,101.3V98h-9.5v19.5h3.4v-7.9H94v-3.2h-5.2v-5.1H94.9L94.9,101.3z M105.7,109.3c1.1-0.5,3.4-1.8,3.4-5.4
		c0-4.8-3-5.9-5.6-5.9h-6v19.5h3.4v-7.8h1c1.9,3.8,3.7,7.3,6.6,10.5c5.3,5.7,11.7,9,18.9,9.8c4.4,0.5,9.4,0.1,14.2-1.5
		c-12.3,0.4-21.9-0.8-30.1-9.5C109.5,116.8,107,112.5,105.7,109.3L105.7,109.3z M100.9,101.3h1.6c1,0,2.9-0.1,2.9,2.6
		c0,2.4-1.7,2.6-2.5,2.6h-2V101.3L100.9,101.3z M112.1,117.6h3.4V98h-3.4V117.6L112.1,117.6z M129.7,101.3V98h-10.9v19.5h11.6v-3.2
		h-8.3v-5.1h6.5V106h-6.5v-4.7H129.7L129.7,101.3z M143.4,101.4c-1.5-2.6-3.8-3.8-5.9-3.8c-3.4,0-5.7,2.4-5.7,5.7
		c0,3.6,3.4,5.1,5.4,6c1.6,0.7,3.2,1.1,3.2,3c0,0.8-0.6,1.5-1.7,1.5c-0.7,0-2.9-0.1-4.6-3.5l-2.6,2.3c1,2.6,3.1,5.5,6.8,5.5
		c4,0,6.1-2.9,6.1-5.8c0-4-2.9-5.6-5.2-6.6c-1.5-0.7-3.5-1.3-3.5-2.8c0-0.6,0.4-1.5,1.5-1.5c1.5,0,2.8,1.2,4,2.7L143.4,101.4
		L143.4,101.4z M157,101.3V98h-9.5v19.5h10.3v-3.2h-6.9v-5.1h5.2V106h-5.2v-4.7H157L157,101.3z"/>
	<path class="st3" d="M172.6,111.7h1.9c4.8,0,6.5-2.8,6.5-6.4c0-6.2-4.4-6.7-7-6.7h-4.8v19.5h3.4L172.6,111.7L172.6,111.7z
		 M172.6,108.5v-6.7h1.5c2.2,0,2.9,1.5,2.9,3.4c0,2.5-1.2,3.3-2.9,3.3L172.6,108.5L172.6,108.5z M197.7,108.3
		c0-2.4-0.8-10.2-7.5-10.2c-6.8,0-7.5,7.8-7.5,10.2c0,2.5,0.8,10.2,7.5,10.2C197,118.6,197.7,110.8,197.7,108.3L197.7,108.3z
		 M193.7,108.3c0,1.7-0.1,7-3.5,7s-3.5-5.3-3.5-7s0.1-7,3.5-7C193.6,101.3,193.7,106.6,193.7,108.3L193.7,108.3z M214.6,108.3
		c0-2.4-0.8-10.2-7.5-10.2c-6.8,0-7.5,7.8-7.5,10.2c0,2.5,0.8,10.2,7.5,10.2C213.8,118.6,214.6,110.8,214.6,108.3L214.6,108.3z
		 M210.6,108.3c0,1.7-0.1,7-3.5,7s-3.5-5.3-3.5-7s0.1-7,3.5-7S210.6,106.6,210.6,108.3L210.6,108.3z M220.7,110.3h1.3l4,7.8h3.9
		l-4.2-8.3c1.1-0.5,3.4-1.8,3.4-5.3c0-4.8-3.1-5.9-5.7-5.9h-6.1v19.5h3.4L220.7,110.3L220.7,110.3z M220.7,101.8h1.6
		c1,0,3-0.1,3,2.6c0,2.4-1.7,2.6-2.6,2.6h-2V101.8L220.7,101.8z M235,101.8v16.3h3.4v-16.3h4v-3.2H231v3.2H235L235,101.8z"/>
</g>
<g class="st0">
	<path class="st6" d="M54,88.5l1.1-0.5l1.7-3.1L56,85l3.4-6.2l1.1-0.5l1.6-3c5.8-3.3,22,2.5,22,2.5c-6-1.5-14.9,0.5-14.9,0.5
		c2.6,0,12.2,3.1,12.2,3.1C73.6,80.8,65,85.1,65,85.1c7.7-1.8,13.9-0.2,13.9-0.2C60.7,81.1,50,97.6,50,97.6L54,88.5z"/>
	<path class="st6" d="M52,115.2c-2.7-7.7,4.8-16.1,4.8-16.1C69,86,80.2,87.5,80.2,87.5c-7.2,0.7-10.4,3.1-10.4,3.1
		c4-1.5,14.2-0.7,14.2-0.7c-8.5-0.3-10.4,2.9-11,4.6l0.8,0.5c-10.6-4.1-14.4,6-14.4,6c-0.5,1.8-1.8,7.9,3.8,11.6
		c7.9,5.2,17.6-2.6,17.6-2.6c-0.9,1.4-1.2,1.7-1.2,1.7c1.1,0.3,3.1-0.2,3.1-0.2c-1.9,4-6.2,5.3-6.2,5.3c5.4,1.5,7.5-0.2,7.5-0.2
		c-1.7,1.2-4.3,3-10.5,4.5c-1.7,0.5-7.5,1.5-12.2,0.8C52.8,120.1,52,115.2,52,115.2 M61.1,116.9c5.5,2.8,11.3,0.4,11.3,0.4
		c-6.2,0.9-13-0.5-15.2-4.7C57.9,115.2,61.1,116.9,61.1,116.9"/>
	<path class="st6" d="M101.5,83h-2.2v-2.2h2.2v-1.6c0-2.3,1.3-3.9,3.7-3.9c0.8,0,1.6,0.1,2.2,0.2l-0.2,2.5c-0.3-0.2-0.7-0.4-1.3-0.4
		c-1,0-1.3,0.9-1.3,1.8v1.4h2.6V83h-2.6v9.4h-3L101.5,83L101.5,83z"/>
	<path class="st6" d="M116.7,80.8h2.7v2.6l0,0c0.1-1.1,1.4-2.9,3.2-2.9c0.3,0,0.6,0,0.9,0.1v3c-0.3-0.2-0.8-0.2-1.3-0.2
		c-2.5,0-2.5,3.1-2.5,4.7v4.2h-3L116.7,80.8z"/>
	<path class="st6" d="M133,80.8h3v11.6h-3V80.8z M133,75.8h3v2.9h-3V75.8z"/>
	<path class="st6" d="M156,91.7c-1.1,0.6-2.4,0.9-4,0.9c-3.8,0-6-2.2-6-6c0-3.4,1.8-6.1,5.4-6.1c4.3,0,5.5,2.9,5.5,7h-8
		c0.1,1.9,1.4,2.9,3.3,2.9c1.5,0,2.7-0.5,3.8-1.2V91.7L156,91.7z M154,85.4c-0.1-1.5-0.8-2.7-2.5-2.7s-2.5,1.2-2.7,2.7H154z"/>
	<path class="st6" d="M173.6,83.2c-0.9-0.3-1.6-0.5-2.7-0.5c-0.8,0-1.8,0.3-1.8,1.3c0,1.8,5.2,0.7,5.2,4.9c0,2.7-2.4,3.8-4.9,3.8
		c-1.1,0-2.3-0.2-3.4-0.5l0.2-2.5c0.9,0.5,1.9,0.8,3,0.8c0.8,0,2-0.3,2-1.4c0-2.3-5.2-0.7-5.2-4.9c0-2.5,2.2-3.6,4.5-3.6
		c1.4,0,2.3,0.2,3.3,0.4L173.6,83.2z"/>
	<rect x="184.3" y="75.5" class="st6" width="3" height="16.9"/>
	<path class="st6" d="M198.6,81.4c1.2-0.5,2.7-0.9,4-0.9c3.5,0,5,1.5,5,4.9v1.5c0,1.2,0,2,0,2.9s0.1,1.7,0.1,2.6H205
		c-0.1-0.6-0.1-1.4-0.1-1.7l0,0c-0.7,1.3-2.2,2-3.6,2c-2,0-4-1.2-4-3.4c0-1.7,0.8-2.7,2-3.3c1.1-0.6,2.6-0.7,3.9-0.7h1.7
		c0-1.9-0.8-2.5-2.6-2.5c-1.3,0-2.6,0.5-3.6,1.3L198.6,81.4z M202.1,90.4c0.9,0,1.6-0.4,2.1-1c0.5-0.7,0.6-1.5,0.6-2.4h-1.3
		c-1.3,0-3.4,0.2-3.4,2C200.2,90,201,90.4,202.1,90.4"/>
	<path class="st6" d="M218.1,80.8h2.9v1.6l0,0c0.9-1.3,2.2-1.8,3.8-1.8c2.7,0,3.9,1.9,3.9,4.5v7.3h-3v-6.2c0-1.4,0-3.3-2-3.3
		c-2.2,0-2.7,2.4-2.7,3.8v5.7h-3V80.8H218.1z"/>
	<path class="st6" d="M247.1,91.1L247.1,91.1c-0.9,1.1-2.2,1.6-3.6,1.6c-3.6,0-4.9-2.9-4.9-6.1s1.3-6,4.9-6c1.5,0,2.6,0.5,3.5,1.6
		l0,0v-6.6h3v16.9h-2.9V91.1z M244.3,90.3c2,0,2.7-2.1,2.7-3.8c0-1.6-0.8-3.7-2.7-3.7c-2,0-2.5,2.1-2.5,3.7S242.3,90.3,244.3,90.3"
		/>
	<path class="st6" d="M107.5,111.7c-0.5-0.2-1.1-0.4-2-0.4c-1.9,0-3.1,1.5-3.1,3.7c0,2.1,1,3.8,3.1,3.8c0.9,0,1.8-0.3,2.3-0.5
		l0.1,2.5c-0.9,0.3-1.8,0.4-3,0.4c-3.8,0-5.7-2.6-5.7-6.1c0-3.4,2-6,5.6-6c1.2,0,2.1,0.1,2.9,0.4L107.5,111.7z"/>
	<path class="st6" d="M122.8,108.9c3.4,0,6.1,2.3,6.1,6.1c0,3.3-2.2,6-6.1,6c-3.8,0-6-2.7-6-6C116.8,111.2,119.4,108.9,122.8,108.9
		 M122.8,118.7c2.3,0,2.9-2.1,2.9-4c0-1.8-0.9-3.4-2.9-3.4s-2.9,1.7-2.9,3.4C119.9,116.6,120.5,118.7,122.8,118.7"/>
	<rect x="138.9" y="103.9" class="st6" width="3" height="16.9"/>
	<rect x="152.6" y="103.9" class="st6" width="3" height="16.9"/>
	<path class="st6" d="M175.6,120.1c-1.1,0.6-2.4,0.9-4,0.9c-3.8,0-6-2.2-6-6c0-3.4,1.8-6.1,5.4-6.1c4.3,0,5.5,2.9,5.5,7h-8
		c0.1,1.9,1.4,2.9,3.3,2.9c1.5,0,2.7-0.5,3.8-1.2V120.1L175.6,120.1z M173.6,113.8c-0.1-1.5-0.8-2.7-2.5-2.7s-2.5,1.2-2.7,2.7H173.6
		z"/>
	<path class="st6" d="M197,109.2v10.5c0,3.1-1.3,6.1-6.1,6.1c-1.2,0-2.6-0.2-4-0.8l0.2-2.6c0.9,0.5,2.4,1,3.4,1
		c3.3,0,3.5-2.5,3.5-4.5l0,0c-0.6,1-1.9,1.8-3.6,1.8c-3.4,0-4.7-2.7-4.7-5.8c0-2.8,1.4-6,4.9-6c1.5,0,2.7,0.5,3.6,1.8l0,0v-1.6
		L197,109.2L197,109.2z M194,114.9c0-2-0.8-3.6-2.5-3.6c-2,0-2.7,1.9-2.7,3.7c0,1.6,0.8,3.5,2.6,3.5
		C193.2,118.4,194,116.8,194,114.9"/>
	<path class="st6" d="M216.9,120.1c-1.1,0.6-2.4,0.9-4,0.9c-3.8,0-6-2.2-6-6c0-3.4,1.8-6.1,5.4-6.1c4.3,0,5.5,2.9,5.5,7h-8
		c0.1,1.9,1.4,2.9,3.3,2.9c1.5,0,2.7-0.5,3.8-1.2V120.1L216.9,120.1z M214.9,113.8c-0.1-1.5-0.8-2.7-2.5-2.7s-2.5,1.2-2.7,2.7H214.9
		z"/>
</g>
<g class="st0">
	<g class="st1">
		<g>
			<g>
				<path class="st10" d="M93.2,49.8c-3.9,0-7,3.2-7,7.1v86c0,3.9,3.2,7,7,7h122.7v-100L93.2,49.8L93.2,49.8z"/>
			</g>
		</g>
	</g>
	<g class="st1">
		<path class="st13" d="M101.1,70.6c0-3.1,2.2-5.3,5.3-5.3h11.4c15.3,0,24.1,9.8,24.1,25c0,14.4-9.3,23.7-23.4,23.7h-11.9
			c-2.3,0-5.4-1.2-5.4-5.1L101.1,70.6z M111.3,104.6h6.9c8.8,0,12.9-6.5,12.8-14.7c0-8.8-4.1-15.1-13.5-15.1h-6.2V104.6z"/>
		<path class="st13" d="M152,85.6c2.9,0,5.3,2.4,5.3,5.3s-2.4,5.3-5.3,5.3c-2.9,0-5.3-2.4-5.3-5.3S149.1,85.6,152,85.6z"/>
		<g>
			<path class="st13" d="M192.6,104.6h-6.9c-8.8,0-12.9-6.5-12.9-14.7c0-8.8,4.1-15.1,13.5-15.1h6.2l0,0h7.3v-4.2
				c0-3.1-2.2-5.3-5.3-5.3h-8.4c-15.3,0-24.1,9.9-24.1,25c0,14.4,9.3,23.7,23.4,23.6h9c2.3,0,5.4-1.2,5.4-5.1v-4.3L192.6,104.6
				L192.6,104.6z"/>
		</g>
	</g>
	<g class="st1">
		<path class="st13" d="M102.2,135.5v-7.3h2c2.5,0,3.9,1.2,3.9,3.5c0,2.2-1.1,3.8-3.7,3.8H102.2z M104.4,134.6c1.8,0,2.7-1,2.7-3
			c0-1.8-0.9-2.6-2.9-2.6h-1v5.6H104.4z"/>
		<path class="st13" d="M110.3,135.5v-7.3h2.3c1.5,0,2.5,0.6,2.5,2.1c0,1-0.4,1.6-1.3,2l1.6,3.1v0.1h-1.1l-1.5-2.8h-1.6v2.8
			L110.3,135.5L110.3,135.5z M113.2,131.8c0.5-0.2,1-0.6,1-1.5c0-1-0.5-1.3-1.5-1.3h-1.2v2.7h1.7V131.8z"/>
		<path class="st13" d="M117.7,135.5v-7.3h4.3v0.9h-3.3v2.1h2.9v0.9h-2.9v2.6h3.4v0.9L117.7,135.5L117.7,135.5z"/>
		<path class="st13" d="M129.1,135.5l-3.7-5.6v5.6h-1v-7.3h1l3.7,5.6v-5.6h1v7.3H129.1z"/>
		<path class="st13" d="M134.3,135.5V129H132v-0.9h5.6v0.9h-2.2v6.4h-1.1V135.5z"/>
		<path class="st13" d="M144,135.5V132h-3.5v3.5h-1v-7.3h1v3h3.5v-3h1v7.3H144z"/>
		<path class="st13" d="M147.6,135.5v-7.3h4.3v0.9h-3.3v2.1h2.9v0.9h-2.9v2.6h3.4v0.9L147.6,135.5L147.6,135.5z"/>
		<path class="st13" d="M153.8,131.7c0-2.4,1.5-3.7,3.4-3.7c0.9,0,1.7,0.3,1.9,0.5v0.7h-0.2c-0.5-0.2-1-0.4-1.7-0.4
			c-1.4,0-2.3,1-2.3,2.8c0,2,0.9,3,2.3,3c0.7,0,1.4-0.2,1.7-0.5h0.2v0.7c-0.4,0.4-1.2,0.7-2.1,0.7
			C154.8,135.6,153.8,133.9,153.8,131.7z"/>
		<path class="st13" d="M160.6,131.8c0-2.4,1.2-3.7,3.3-3.7s3.2,1.3,3.2,3.7s-1.2,3.7-3.2,3.7C161.8,135.6,160.6,134.2,160.6,131.8z
			 M166.1,131.8c0-1.9-0.7-2.9-2.2-2.9s-2.2,1-2.2,2.9s0.7,2.9,2.2,2.9C165.4,134.7,166.1,133.7,166.1,131.8z"/>
		<path class="st13" d="M169.4,135.5v-7.3h1v6.4h3v0.9L169.4,135.5L169.4,135.5z"/>
		<path class="st13" d="M175.3,135.5v-7.3h1v6.4h3v0.9L175.3,135.5L175.3,135.5z"/>
		<path class="st13" d="M181.2,135.5v-7.3h4.3v0.9h-3.3v2.1h2.9v0.9h-2.9v2.6h3.4v0.9L181.2,135.5L181.2,135.5z"/>
		<path class="st13" d="M187.4,131.7c0-2.4,1.6-3.7,3.6-3.7c0.9,0,1.7,0.3,2,0.5v0.7h-0.2c-0.4-0.2-1-0.4-1.7-0.4
			c-1.5,0-2.5,0.9-2.5,2.8c0,2.1,0.9,3,2.3,3c0.6,0,1-0.2,1.3-0.3v-1.9H191v-0.9h2.1v3.2c-0.5,0.3-1.2,0.7-2.5,0.7
			C188.4,135.6,187.4,134,187.4,131.7z"/>
		<path class="st13" d="M195.6,135.5v-7.3h4.3v0.9h-3.3v2.1h2.9v0.9h-2.9v2.6h3.4v0.9L195.6,135.5L195.6,135.5z"/>
	</g>
</g>
<g class="st0">
	<polygon class="st6" points="65,82.5 50,124.9 66.1,124.9 68.8,116.2 83.4,116.2 85.8,125 102.6,125 95.9,106 71.2,106 78.8,82.5 	
		"/>
	<polygon class="st6" points="86.1,75 77.7,101.2 94.6,101.2 	"/>
	<path class="st6" d="M124.7,109.3h3.3l-1.6-4.9l0,0L124.7,109.3z M122.6,101.2h7.9l5.3,15h-6l-1-3.2H124l-0.9,3.2h-5.7L122.6,101.2
		z"/>
	<rect x="136.9" y="100.1" class="st6" width="5.4" height="16.1"/>
	<g class="st1">
		<path class="st10" d="M145.7,108.2h-2V105h2v-1c0.1-3,2-4.2,4.8-4.2c1.3,0,2.6,0.2,3.3,0.4v3c-0.3-0.1-0.5-0.2-1.2-0.2
			s-1.4,0.5-1.4,1.4v0.6h2.3v3.2h-2.3v8h-5.6L145.7,108.2L145.7,108.2z"/>
		<path class="st10" d="M161.8,111.2h-0.5c-1.1,0-2.4,0.1-2.4,1.3c0,0.8,0.4,1.1,1.3,1.1c1.1,0,1.7-1,1.7-2v-0.4H161.8z
			 M155.2,105.4c1.6-0.5,2.6-0.6,4.7-0.6c3.1,0,6.8,0.6,6.8,4.6v6.8h-5v-1.6l0,0c-0.7,1.3-2.1,1.9-3.6,1.9c-2.1,0-4.1-0.9-4.1-3.3
			c0-3.4,3.1-4.1,5.7-4.1c0.7,0,1.6,0.1,2.1,0.2c0-1.4-1.5-1.6-2.8-1.6s-2.6,0.4-3.7,0.9L155.2,105.4L155.2,105.4z"/>
	</g>
	<rect x="171.7" y="109.6" class="st6" width="5.5" height="1.6"/>
	<g class="st1">
		<path class="st10" d="M189.4,107c-0.8-0.3-1.5-0.5-2.2-0.5c-2.2,0-3.5,2-3.5,4.1c0,2,1,4.1,3.6,4.1c0.7,0,1.5-0.2,2.2-0.6l0.1,1.8
			c-0.8,0.4-1.8,0.5-2.5,0.5c-3.3,0-5.5-2.6-5.5-5.7c0-3.3,2.2-5.7,5.5-5.7c0.8,0,1.9,0.2,2.4,0.4L189.4,107z"/>
		<path class="st10" d="M196.4,114.8c2.3,0,3.4-2.1,3.4-4.1c0-2.1-1.3-4.1-3.4-4.1c-2.2,0-3.4,2-3.4,4.1
			C193,112.6,194.1,114.8,196.4,114.8 M196.4,104.9c3.3,0,5.5,2.4,5.5,5.7c0,3.1-2.3,5.7-5.5,5.7c-3.3,0-5.5-2.6-5.5-5.7
			C190.9,107.3,193.1,104.9,196.4,104.9"/>
	</g>
	<rect x="204.8" y="100.1" class="st6" width="2" height="16.1"/>
	<rect x="210.3" y="100.1" class="st6" width="2" height="16.1"/>
	<g class="st1">
		<path class="st10" d="M222.9,109.6c0-1.7-1-3-2.7-3c-2,0-2.8,1.6-2.9,3H222.9z M224.2,115.7c-0.8,0.3-1.6,0.7-3.4,0.7
			c-3.9,0-5.6-2.4-5.6-5.9c0-3.2,2-5.5,5.1-5.5c3.6,0,4.8,2.7,4.8,6.2h-7.8c0,2.2,1.7,3.6,3.6,3.6c1.3,0,2.9-0.7,3.3-1.1
			L224.2,115.7L224.2,115.7z"/>
		<path class="st10" d="M235.4,110.8c0-2.3-1-4.2-3.2-4.2c-2,0-3,2.2-3,4.1c0,2.1,1.2,3.9,3,3.9
			C234.1,114.5,235.4,112.8,235.4,110.8 M237.4,115.7c0,3.3-1.7,5.2-5.6,5.2c-1.2,0-2.2-0.1-3.9-0.8l0.2-1.9c1.5,0.7,2.5,1,3.9,1
			c2.1,0,3.4-1.4,3.4-3.8v-1.1l0,0c-0.9,1.1-2.3,1.7-3.6,1.7c-3.1,0-4.7-2.6-4.7-5.4s1.6-5.8,4.9-5.8c1.9,0,3,0.7,3.6,1.9l0,0v-1.6
			h1.9L237.4,115.7L237.4,115.7z"/>
		<path class="st10" d="M247.9,109.6c0-1.7-1-3-2.7-3c-2,0-2.8,1.6-2.9,3H247.9z M249.2,115.7c-0.8,0.3-1.6,0.7-3.4,0.7
			c-3.9,0-5.6-2.4-5.6-5.9c0-3.2,2-5.5,5.1-5.5c3.6,0,4.8,2.7,4.8,6.2h-7.8c0,2.2,1.7,3.6,3.6,3.6c1.3,0,2.9-0.7,3.3-1.1
			L249.2,115.7L249.2,115.7z"/>
	</g>
</g>
<g class="st0">
	<path class="st6" d="M100.5,107.1c-3.9-27.3,15.1-52.7,42.4-56.6s52.7,15.1,56.6,42.4c3.9,27.3-15.1,52.7-42.4,56.6
		S104.4,134.4,100.5,107.1z"/>
	<path class="st14" d="M103.7,106.6C100,81,117.8,57.3,143.4,53.7c25.6-3.7,49.3,14.1,52.9,39.7c3.7,25.6-14.1,49.3-39.7,52.9
		C131.1,149.9,107.4,132.2,103.7,106.6z"/>
	<path class="st3" d="M118.2,104.6c-2.5-17.6,9.7-33.9,27.3-36.4s33.9,9.7,36.4,27.3s-9.7,33.9-27.3,36.4
		C137,134.3,120.7,122.1,118.2,104.6z"/>
	<g class="st1">
		<path class="st13" d="M107.4,102.2l6.5-0.5l0.2,2.7l-0.8,0.1l-0.1-1.7l-1.9,0.2l0.1,1.5l-0.8,0.1l-0.1-1.5l-2.1,0.2l0.1,1.7
			l-0.8,0.1L107.4,102.2z"/>
		<path class="st13" d="M108.7,111l3.7-3c0.3-0.2,0.5-0.4,0.5-0.4l0,0c0,0-0.3,0.1-0.6,0.2l-4.2,1l-0.2-0.9l6.4-1.5l0.2,1l-3.4,2.7
			c-0.3,0.2-0.5,0.4-0.5,0.4l0,0c0,0,0.3-0.1,0.6-0.2l3.8-0.9l0.2,0.9l-6.4,1.5L108.7,111z"/>
		<path class="st13" d="M110,114.9l6.1-2.5l1,2.5l-0.8,0.3l-0.6-1.5l-1.8,0.7l0.6,1.4l-0.8,0.3l-0.6-1.4l-2,0.8l0.6,1.5l-0.8,0.3
			L110,114.9z"/>
		<path class="st13" d="M113.6,122.3l1.9-2.9l0,0l-2.7,1.6l-0.5-0.9l5.4-3.2c0.4,0.2,0.8,0.6,1.1,1.1c0.7,1.2,0.3,2.2-0.7,2.8
			c-0.7,0.4-1.7,0.2-2.1-0.3l0,0l-1.7,2.9L113.6,122.3z M118.2,118.4c-0.1-0.2-0.2-0.3-0.3-0.4l-2.1,1.3c0,0.1,0,0.1,0.1,0.2
			c0.3,0.6,1,0.9,1.7,0.5C118.3,119.5,118.5,119,118.2,118.4z"/>
		<path class="st13" d="M117.2,127.4c-0.9-1.1-0.5-2.7,1.1-4s3.2-1.4,4.1-0.2c0.4,0.5,0.6,0.9,0.6,1.3l-0.8,0.2
			c0-0.2-0.1-0.5-0.4-0.9c-0.6-0.7-1.6-0.6-2.9,0.5c-1.1,0.9-1.7,1.9-1.2,2.6c0.2,0.3,0.3,0.3,0.4,0.4l1.6-1.4l-0.5-0.6l0.6-0.5
			l1.2,1.4l-2.7,2.2C118.1,128.3,117.6,128,117.2,127.4z"/>
		<path class="st13" d="M123.9,130l-1.9,2.2l-0.8-0.7l1.9-2.2l1.3-3.7l0.8,0.8l-1,2.6l0,0l2.5-1.3l0.7,0.7L123.9,130z"/>
		<path class="st13" d="M131.5,138.5l0.4-1.7l-1.5-0.8l-1.1,1.3l-0.8-0.4l4.7-5l0.8,0.4l-1.4,6.7L131.5,138.5z M132.6,134.1
			c0.1-0.4,0.2-0.9,0.2-0.9l0,0c0,0-0.3,0.4-0.6,0.7l-1.4,1.6l1.2,0.6L132.6,134.1z"/>
		<path class="st13" d="M136.6,140.6c-1.4-0.5-1.5-2.1-0.9-3.9c0.6-1.7,1.8-3,3.1-2.5c0.5,0.2,0.8,0.4,1,0.7l-0.4,0.6
			c-0.1-0.1-0.3-0.3-0.6-0.4c-0.9-0.3-1.6,0.8-2,2c-0.4,1.1-0.5,2.4,0.4,2.7c0.3,0.1,0.6,0.1,0.8,0v0.8
			C137.6,140.8,137.2,140.8,136.6,140.6z"/>
		<path class="st13" d="M143.8,142.2l-0.1-1.7l-1.7-0.3l-0.7,1.6l-0.9-0.2l3-6.1l0.9,0.2l0.7,6.8L143.8,142.2z M143.5,137.7
			c0-0.4,0-0.9,0-0.9l0,0c0,0-0.2,0.4-0.3,0.8l-0.9,1.9l1.4,0.2L143.5,137.7z"/>
		<path class="st13" d="M149.3,142.8c-0.7,0-1.3-0.2-1.6-0.4v-6c0.3-0.2,0.9-0.4,1.5-0.4c1.7,0,2.4,1.4,2.4,3.3
			C151.7,141.3,151,142.8,149.3,142.8z M149.3,136.8c-0.2,0-0.4,0-0.5,0.1v4.9c0.1,0,0.3,0.1,0.5,0.1c0.9,0,1.3-0.8,1.3-2.6
			C150.6,137.7,150.2,136.8,149.3,136.8z"/>
		<path class="st13" d="M154.7,142.4l-0.8-6.5l2.7-0.3l0.1,0.8l-1.7,0.2l0.2,1.9l1.5-0.2l0.1,0.8l-1.5,0.2l0.3,2.1l1.7-0.2l0.1,0.8
			L154.7,142.4z"/>
		<path class="st13" d="M164.7,140.1l-1.6-3.9c-0.1-0.3-0.2-0.7-0.2-0.7l0,0c0,0,0,0.4,0.1,0.7l0.3,4.3l-0.6,0.2l-2.3-3.7
			c-0.2-0.3-0.4-0.7-0.4-0.7l0,0c0,0,0.1,0.4,0.2,0.7l1,4.1l-0.9,0.3l-1.4-6.4l1-0.3l2.2,3.6c0.2,0.3,0.4,0.7,0.4,0.7l0,0
			c0,0,0-0.4-0.1-0.8l-0.3-4.2l1-0.3l2.6,6.1L164.7,140.1z"/>
		<path class="st13" d="M168.8,135.1l1.3,2.6l-0.9,0.5l-1.3-2.6l-3-2.6l1-0.5l2.1,1.9l0,0l-0.4-2.8l0.9-0.5L168.8,135.1z"/>
		<path class="st13" d="M177.1,133l-4.3-4.9l2.1-1.8l0.6,0.6l-1.3,1.1l1.3,1.5l1.1-1l0.5,0.6l-1.1,1l1.4,1.6l1.3-1.1l0.6,0.6
			L177.1,133z"/>
		<path class="st13" d="M182.5,127.8c-0.7,0.8-1.7,0.9-2.7,0.1l-3.6-3.1l0.7-0.8l3.6,3.1c0.4,0.4,0.9,0.4,1.3,0
			c0.3-0.4,0.3-0.9-0.2-1.2l-3.6-3.1l0.6-0.7l3.6,3.1C183.1,126,183.2,127,182.5,127.8z"/>
		<path class="st13" d="M186.9,121.4l-3.5-0.3l0,0l2.6,1.6l-0.6,0.9l-5.4-3.3c0-0.4,0.1-1,0.5-1.5c0.7-1.2,1.7-1.3,2.8-0.7
			c0.7,0.4,1,1.4,0.7,2l0,0l3.3,0.2L186.9,121.4z M181.3,119.3c-0.1,0.2-0.2,0.3-0.2,0.5l2.1,1.3l0.1-0.1c0.3-0.6,0.4-1.3-0.4-1.8
			C182.2,118.7,181.7,118.7,181.3,119.3z"/>
		<path class="st13" d="M189.6,116.1c-0.6,1.4-2.2,1.4-3.9,0.7c-1.7-0.7-2.9-1.8-2.3-3.2c0.6-1.4,2.2-1.4,3.9-0.7
			C189,113.6,190.2,114.7,189.6,116.1z M184.1,113.9c-0.3,0.8,0.8,1.4,1.9,1.9c1.1,0.5,2.4,0.8,2.7,0s-0.8-1.4-1.9-1.9
			C185.7,113.4,184.4,113.1,184.1,113.9z"/>
		<path class="st13" d="M189,109.4l-0.1,0.1l2.5,0.6l-0.2,1l-6.1-1.4c-0.1-0.4-0.2-1,0-1.6c0.3-1.4,1.3-1.8,2.5-1.5
			C188.7,106.9,189.5,107.8,189,109.4z M185.8,108.3c0,0.2-0.1,0.4,0,0.5l2.4,0.6v-0.1c0.3-1-0.2-1.4-0.9-1.6
			C186.6,107.5,186,107.6,185.8,108.3z"/>
		<path class="st13" d="M192.4,104.9l-6.5-0.6l0.2-2.7l0.8,0.1l-0.1,1.7l1.9,0.2l0.1-1.5l0.8,0.1l-0.1,1.5l2.1,0.2l0.1-1.7l0.8,0.1
			L192.4,104.9z"/>
	</g>
	<polygon class="st6" points="139.6,70 128.7,123.1 181.2,105.7 	"/>
	<path class="st15" d="M133.8,89.9h-3l-0.6,2.8h2.6l-0.3,1.7h-2.6l-0.6,3h3l-0.4,1.7h-5.6l2.3-10.9h5.6L133.8,89.9z"/>
	<path class="st15" d="M142.1,93.2l-1.2,5.9h-2.5l1.2-6c0-0.1,0-0.2,0-0.3c0-0.5-0.3-0.8-1.1-0.8c-0.4,0-0.8,0.1-1.1,0.2l-1.5,7
		h-2.5l1.7-8.1c0.9-0.4,2.2-0.6,3.7-0.6c2.3,0,3.2,0.9,3.2,2.2C142.2,92.7,142.1,92.9,142.1,93.2z"/>
	<path class="st15" d="M150.8,94.9l-5.2,0.7c0,1.1,0.4,1.9,1.7,1.9c0.9,0,1.8-0.3,2.3-0.5l0.2,1.5c-0.7,0.3-1.8,0.6-3.1,0.6
		c-2.2,0-3.4-1.2-3.4-3.3c0-1.3,0.4-2.7,1.2-3.7c0.8-1.2,2.1-1.9,3.6-1.9c1.9,0,2.9,1.1,2.9,3C151,93.8,151,94.3,150.8,94.9z
		 M147.8,91.8c-0.7,0-1.3,0.5-1.7,1.3c-0.2,0.4-0.3,0.8-0.4,1.3l3.1-0.5c0.1-0.3,0.1-0.6,0.1-0.9C148.8,92.3,148.5,91.8,147.8,91.8z
		"/>
	<path class="st15" d="M157.1,92.1c-0.6-0.2-1.2-0.2-1.6-0.1l-1.4,7h-2.5l1.7-8.1c0.9-0.4,2.1-0.6,3.7-0.6c0.4,0,0.7,0,1,0
		L157.1,92.1z"/>
	<path class="st15" d="M164.2,99.1c-0.5,2.5-2.2,3.5-4.5,3.5c-1.3,0-2.4-0.3-3.1-0.6l0.9-1.5c0.4,0.2,1.2,0.4,2.1,0.4
		c1.3,0,1.9-0.7,2.1-1.6l0.1-0.5c-0.3,0.2-0.8,0.3-1.5,0.3c-1.7,0-2.9-1.1-2.9-3c0-1.3,0.5-2.9,1.3-3.9c0.9-1.2,2.3-1.9,4.1-1.9
		c1.3,0,2.4,0.3,3,0.6L164.2,99.1z M162.5,91.8c-0.8,0-1.4,0.5-1.9,1.4c-0.4,0.8-0.7,2.1-0.7,3c0,1,0.4,1.5,1.3,1.5
		c0.3,0,0.7-0.1,0.9-0.2l1.2-5.6C163.1,91.9,162.9,91.8,162.5,91.8z"/>
	<path class="st15" d="M168.8,102.5h-2.6l2.1-3.4l-1-8.5h2.6l0.1,5c0,0.7-0.1,1.3-0.1,1.3l0,0c0,0,0.1-0.6,0.5-1.3l2.3-5h2.4
		L168.8,102.5z"/>
	<path class="st16" d="M134.4,112.2c-0.2,0.5-1.6,2.5-4,2.5c-2.7,0-4.8-1.9-4.8-5.7c0-3.5,1.9-5.9,4.6-5.9c2.5,0,3.7,1.6,4,2.4
		l-0.5,0.4c-0.4-0.7-1.4-2.1-3.4-2.1c-2.3,0-3.9,2-3.9,5.2s1.5,5.1,4,5.1c2.4,0,3.2-1.6,3.5-2.3L134.4,112.2z"/>
	<path class="st16" d="M142.7,110.6c0,2.3-1.4,4-3.3,4c-1.9,0-3.3-1.7-3.3-4s1.4-4,3.3-4S142.7,108.3,142.7,110.6z M136.8,110.6
		c0,2.1,1,3.4,2.6,3.4s2.7-1.3,2.7-3.4s-1-3.4-2.7-3.4C137.7,107.1,136.8,108.5,136.8,110.6z"/>
	<path class="st16" d="M145,103.3h0.7v11H145V103.3z"/>
	<path class="st16" d="M148.9,103.3h0.7v11h-0.7V103.3z"/>
	<path class="st16" d="M158.2,112.6c-0.2,0.5-0.3,0.7-0.5,1c-0.6,0.6-1.4,1-2.4,1c-2.2,0-3.4-1.4-3.4-4.1c0-2.4,1.3-3.9,3.2-3.9
		c1.3,0,2.3,0.7,2.9,2c0.2,0.6,0.3,1.1,0.3,2.2h-5.7c0,1.2,0.3,1.9,0.8,2.5c0.5,0.5,1.2,0.7,2,0.7c1.1,0,1.9-0.6,2.2-1.7
		L158.2,112.6z M157.6,110.2c0-3-2.1-3-2.4-3c-2.4,0-2.6,2.1-2.7,3H157.6z"/>
	<path class="st16" d="M165.8,112.5c-0.3,0.6-1,2.1-2.6,2.1c-1.8,0-3.1-1.7-3.1-3.9c0-2.4,1.3-4.1,3.1-4.1c0.2,0,1.6,0,2.6,2v-1.8
		h0.7v7.3c0,2-1.2,3.2-3.1,3.2c-1.4,0-2.4-0.5-2.8-1.5c-0.1-0.3-0.2-0.5-0.2-1l0.7,0.2c0.1,0.7,0.3,1.8,2.3,1.8
		c0.7,0,1.4-0.3,1.8-0.7c0.4-0.5,0.6-1.1,0.6-2.2V112.5z M165.8,110c0-1.7-1.1-2.9-2.5-2.9c-1.5,0-2.5,1.4-2.5,3.5
		c0,2,1,3.5,2.5,3.5c1.4,0,2.6-1.4,2.6-3.2V110H165.8z"/>
	<path class="st16" d="M174.8,112.6c-0.2,0.5-0.3,0.7-0.5,1c-0.6,0.6-1.4,1-2.4,1c-2.2,0-3.4-1.4-3.4-4.1c0-2.4,1.3-3.9,3.2-3.9
		c1.3,0,2.3,0.7,2.9,2c0.2,0.6,0.3,1.1,0.3,2.2h-5.7c0,1.2,0.3,1.9,0.8,2.5c0.5,0.5,1.2,0.7,2,0.7c1.1,0,1.9-0.6,2.2-1.7
		L174.8,112.6z M174.2,110.2c0-3-2.1-3-2.4-3c-2.4,0-2.6,2.1-2.7,3H174.2z"/>
</g>
<g class="st0">
	<rect x="50" y="113.9" class="st6" width="32.9" height="2.6"/>
	<path class="st6" d="M50,112.1h32.9V83.5H50V112.1z M73.5,108.5l-7.1-4.3l-7.1,4.3l1.9-8.1L55,95l8.3-0.7l3.4-7.6l2.9,7.6l8.3,0.7
		l-6.3,5.4L73.5,108.5z"/>
	<g class="st1">
		<path class="st10" d="M90.3,107.2c1.1,0.7,3.1,1.5,5.1,1.5c2.8,0,4.1-1.4,4.1-3.2c0-1.8-1.1-2.8-3.9-3.9c-3.8-1.4-5.6-3.5-5.6-6
			c0-3.4,2.8-6.2,7.3-6.2c2.1,0,4,0.6,5.2,1.3l-1,2.8c-0.8-0.5-2.4-1.2-4.3-1.2c-2.3,0-3.5,1.3-3.5,2.9c0,1.8,1.3,2.5,4,3.6
			c3.7,1.4,5.6,3.2,5.6,6.4c0,3.7-2.9,6.3-7.9,6.3c-2.3,0-4.5-0.6-5.9-1.4L90.3,107.2z"/>
		<path class="st10" d="M108.1,95.7c0-2.2,0-4-0.2-5.7h3.4l0.2,3.5h0.1c1.1-2,3.5-4,7-4c2.9,0,7.5,1.8,7.5,9v12.6h-3.8V99
			c0-3.4-1.3-6.3-4.9-6.3c-2.5,0-4.5,1.8-5.2,3.9c-0.2,0.5-0.3,1.1-0.3,1.8v12.7H108L108.1,95.7L108.1,95.7z"/>
		<path class="st10" d="M134.5,101.3c0.1,5.2,3.4,7.4,7.3,7.4c2.8,0,4.4-0.5,5.9-1.1l0.7,2.8c-1.4,0.6-3.7,1.3-7,1.3
			c-6.5,0-10.4-4.3-10.4-10.7c0-6.4,3.8-11.4,9.9-11.4c6.9,0,8.8,6.1,8.8,10c0,0.8-0.1,1.4-0.1,1.8h-15.1L134.5,101.3L134.5,101.3z
			 M145.8,98.5c0-2.4-1-6.3-5.3-6.3c-3.9,0-5.6,3.6-5.9,6.3H145.8z"/>
		<path class="st10" d="M163.6,105.4c1.2,0.7,4.2,1.6,6.2,1.6s2.8-0.7,2.8-1.8c0-1.1-0.7-1.6-3.2-2.5c-4.4-1.5-6.1-3.9-6.1-6.4
			c0-4,3.4-7,8.7-7c2.5,0,4.7,0.8,6,1.5v4.9c-1-0.5-4-1.8-5.8-1.8c-1.6,0-2.5,0.7-2.5,1.8c0,1,0.8,1.5,3.5,2.4
			c4.1,1.4,5.8,3.5,5.8,6.6c0,4-3.2,6.9-9.3,6.9c-2.8,0-4.5-0.6-6.2-1.5v-4.7H163.6z"/>
		<path class="st10" d="M189.8,83.7v7.1h4.8v4.9h-4.8v6.7c0,2.6,0.6,3.8,2.6,3.8c0.8,0,1.5-0.1,2-0.2v5c-0.9,0.3-2.5,0.6-4.3,0.6
			c-2.1,0-3.9-0.7-5-1.8c-1.2-1.3-1.8-3.3-1.8-6.3v-7.7v-4.9v-5.6L189.8,83.7z"/>
		<path class="st10" d="M212.1,111.2l-0.4-2.1h-0.1c-1.4,1.7-3.6,2.6-6.1,2.6c-4.3,0-6.9-3.2-6.9-6.6c0-5.6,5-8.2,12.6-8.2v-0.3
			c0-1.1-0.6-2.8-3.9-2.8c-2.2,0-7.3,1.8-7.3,1.8v-4.9c0,0,4.6-1.5,8.5-1.5c7.1,0,9.4,4.2,9.4,9.2v7.4c0,2.1,0.1,4,0.3,5.2h-6.1
			V111.2z M211.3,101.1c-3.5,0-6.2,0.8-6.2,3.4c0,1.7,1.1,2.5,2.6,2.5c1.7,0,3-1.1,3.5-2.4c0.1-0.4,0.1-0.7,0.1-1.1L211.3,101.1
			L211.3,101.1z"/>
		<path class="st10" d="M245.2,83.7v7.1h4.8v4.9h-4.8v6.7c0,2.6,0.6,3.8,2.6,3.8c0.8,0,1.5-0.1,2-0.2v5c-0.9,0.3-2.5,0.6-4.3,0.6
			c-2.1,0-3.9-0.7-5-1.8c-1.2-1.3-1.8-3.3-1.8-6.3v-7.7h-0.1v-4.9h0.1v-5.6L245.2,83.7z"/>
		<polygon class="st10" points="154.3,84.6 154.3,111.2 158.2,111.2 158.2,83.7 		"/>
		<path class="st10" d="M223,96.8c0-3.1-0.1-5.2-0.2-7h5.7l0.2,3.9h0.2c1.1-3.1,2.9-2.9,4.9-2.9h6.1v4.9h-6.5
			c-2.4,0-3.2,1.1-3.7,3.1c-0.1,0.4-0.1,1-0.1,1.5v10.9H223V96.8z"/>
	</g>
</g>
<g>
	<g>
		<path d="M21.7,16.7c2.2,0,3.2,0.7,3.2,2.2c0,0.7-0.2,1.5-0.5,2.5c-0.2,0.7-0.5,1.9-1.5,5.9c-0.3,1.4-0.7,2.7-1,4.1l-2,8.3
			c-0.2,0.7-0.3,1.9-0.3,2.2c0,0.7,0.2,0.8,0.8,0.8s1.7-0.7,4.9-3.4c6.6-5.4,10.2-8.7,14.6-13.1c2.9-3.1,3.6-4.1,3.6-5.1
			c0-1.4-0.5-1.7-4.6-2.2c-0.3,0-0.8-0.2-1.5-0.3l0.5-2.2h14.4c2.5,0,3.4,0.5,3.4,2c0,1.4-1,2.5-6.1,6.6
			c-4.1,3.2-13.8,10.2-21.1,15.1c1,0.2,1.5,0.2,1.9,0.3l4.4,0.5c3.2,0.5,4.2,1.4,5.4,4.9c2.9,9.5,4.9,15.1,7.3,19.9
			c1.7,3.6,3.1,4.6,7.3,5.6l-0.5,2H42.9c-2.9,0-3.7-0.8-4.4-4.1L37,62.4c-0.2-0.8-0.3-1.7-1.2-4.4c-2-8-2.9-10.4-4.1-11.7
			c-1.2-1.7-3.1-2.4-6.5-2.4c-5.3,0-6.5,0.8-7.6,5.6l-1.5,6.1c-0.3,1.5-0.8,3.7-1.4,7c-0.2,1.4-0.3,2.9-0.3,3.9
			c0,2.7,1.2,3.7,5.8,4.6c0.3,0.2,1,0.3,1.9,0.5l-0.3,2H7.6c-2.4,0-3.4-0.8-3.4-2.5c0-0.7,0.2-1.7,0.5-2.7C4.8,67.9,5,67,5.9,64.3
			c0.2-0.8,0.5-1.9,0.7-2.7l3.9-13.3c1.4-4.9,3.6-14.8,4.6-19.9c0.5-2.9,0.7-4.4,0.7-5.4c0-1.4-0.3-2.2-1-2.9
			c-0.8-0.7-1.4-0.8-5.3-1.7l0.5-2.2h11.7C21.7,16.2,21.7,16.7,21.7,16.7z"/>
		<path d="M60.3,16.7c3.7,0,4.4,0.7,5.1,5.6l1.5,11l1.7,12.1c0.2,2.2,0.5,4.2,1,8c0.2,1.9,0.5,3.4,0.7,5.4l0.5,3.4
			C74,57.8,76.1,55,80.1,49c6.5-9.5,9.5-14.4,12.6-20.1c1.2-2.4,2-4.6,2-5.3c0-1.9-1.9-3.2-5.4-3.9c-0.7-0.2-1.9-0.3-3.2-0.7l0.3-2
			h14.3c2.4,0,3.4,0.8,3.4,2.5c0,1.2-0.7,2.7-3.4,7.3c-3.9,6.8-8,12.9-15.6,24c-8.2,11.9-10.4,15-17.8,24.6h-2L64.8,73l-2-13.3
			c-0.2-2.2-0.5-4.1-1.2-8.5c-1.9-13.1-2.5-17.5-3.4-21.6c-1.7-8.5-1.9-8.8-6.8-10.4l-1.7-0.5l0.5-2L60.3,16.7L60.3,16.7z"/>
		<path d="M119.1,26.7l0.5,3.1c1,6.3,1.7,11,1.7,12.6c0,2.2-1.4,3.1-4.9,3.1c-1.5,0-3.1-0.2-5.3-0.5c-2.9,2.7-4.9,4.1-5.8,4.1
			c-0.5,0-0.8-0.3-0.8-0.8c0-0.5,0.2-0.8,0.5-1.4c0.2-0.5,1-1.5,2-3.4c0.5-0.8,0.8-1.4,1.9-2.7c0.8-1.4,1.9-2.7,2.9-4.1
			c0.7-1.2,1.9-2.7,3.2-4.6L119.1,26.7z M133.3,62.3L123.7,15h-1.9c-3.7,4.8-5.8,7.5-10.7,14.4l-7.8,11c-1.2,1.7-2.2,3.2-4.2,6.1
			c-1.5,2.4-3.1,4.6-4.1,5.9c-3.1,4.6-4.9,7.3-6.8,10.5c-3.6,5.9-4.2,7.1-4.2,8.3c0,1.7,1.4,2.5,3.7,2.5h12.9l0.5-2
			c-6.6-1.7-8.5-2.5-8.5-4.6c0-0.8,0.5-2,1.5-3.7c2-3.6,3.9-6.3,5.6-8.7c2.7-3.6,4.1-4.2,9.9-4.2c0.5,0,1,0.2,1.5,0.2l5.4,0.2
			c0.7,0,1.4,0,2,0c1.4,0,2,0,3.7-0.2c0.5,2.9,0.5,3.6,0.8,6.3c0.3,2,0.5,4.1,0.8,6.1c0.2,1.4,0.3,2.5,0.5,3.9
			c0.3,2.2,0.3,2.7,0.3,3.1c0.2,1.2,0.3,1.9,0.7,2.4"/>
		<path d="M132.8,60.1c0,0,1,4.8,4.6,8c2.2,1.9,6.6,2.4,10,2.4c8.5,0,15.8-7.3,15.8-15.8c0-3.1-1.2-5.3-3.2-6.5
			c-1.5-0.8-2.2-1-6.1-1.5l-4.1-0.7c-5.8-0.8-7.3-1.4-9.2-2.9c-1.9-1.9-3.1-4.6-3.1-7.6c0-5.8,3.4-11.9,8.7-15.5
			c3.7-2.7,8.5-4.1,13.6-4.1c4.6,0,10.5,1.2,13.4,2.9c1.5,0.8,2.2,1.7,2.2,2.7c0,0.3-0.2,1-0.5,1.9l-4.9,9.5h-1.9
			c-0.2-8.5-3.4-12.6-10-12.6c-6.6,0-12.6,5.4-12.6,11.7c0,2.5,1,4.4,2.9,5.6c1,0.7,2.9,1.2,5.8,1.5l3.9,0.5
			c4.2,0.5,4.9,0.7,6.1,1.2c4.8,1.5,7.5,5.3,7.5,10.2c0,13.1-13.9,24.6-27,25.2c0,0-3.9,0.3-8.3,0.2c-3.9-0.2-7.6-0.7-7.8-0.7
			c-0.3-0.2-2.4-0.8-2.7-3.2"/>
		<path d="M217.1,16.7c1.9,0,2.5,0.5,2.5,2c0,0.3,0,0.7,0,0.8L219,31h-1.9c-0.2-0.5-0.3-0.8-0.3-1c-1.9-4.8-2.9-6.3-4.8-7.3
			c-1.9-1-3.9-1.4-7.6-1.4c-2.9,0-5.8,0.3-9.5,0.8c-0.7,2.2-0.8,2.7-1.7,5.8c-0.5,1.7-0.8,3.6-1.5,5.9c-0.7,2.7-0.8,3.6-1,4.4
			l-0.8,4.2c-0.2,0.8-0.3,1.5-0.3,1.9c0,0.7,0.3,1,0.7,1c0.8,0,2.2-1.7,4.6-5.1c2.2,0.2,3.2,0.2,4.8,0.2c3.4,0,7.3-0.3,9.5-0.8
			c0.3-0.2,0.7-0.2,1-0.2c0.5,0,1,0.5,1,1c0,0.3-0.2,0.7-0.3,1l-3.2,5.1c-2.5,0.2-4.2,0.3-6.6,0.3c-1.7,0-3.6-0.2-5.9-0.2
			c-0.8,0-1.9,0-2.4,0c-3.2,0-4.2,1.2-5.4,7l-1.2,5.9c-0.8,4.4-1,5.9-1,7c0,2.4,1.2,3.1,5.1,3.1c0.8,0,2.5-0.2,3.7-0.2l8.3-0.5
			c4.6-0.3,5.9-1.2,10.9-6.6c0.7-0.7,1.5-1.7,2.9-3.2h2l-5.6,12.6c-0.7,1.9-1.5,2.4-3.6,2.4h-31.4c-1.7,0-2.9-1-2.9-2.5
			c0-0.5,0-1.2,0.2-1.9c0.5-2,0.8-3.6,1.2-4.6l2.9-10.4c1.9-6.8,3.7-14.3,5.4-21.4c1-4.6,1.5-8.3,1.5-10c0-2.2-0.7-2.9-4.2-3.9
			c-0.3-0.2-1-0.3-1.7-0.5l0.5-2.2C180.1,16.7,217.1,16.7,217.1,16.7z"/>
		<path d="M240.3,21.5c2.9-0.7,5.1-1,7.8-1c5.9,0,9.5,2.9,9.5,7.8c0,7.1-6.8,13.3-14.8,13.3c-1,0-1.7-0.2-3.1-0.5l-0.5,0.8
			c-2.2,2.9-3.1,3.7-3.7,3.7c-0.5,0-0.7-0.3-0.7-0.8c0-0.5,0-1.2,0.2-1.9c0.2-0.7,0.5-2,1-4.1c0.2-1.2,0.5-2.2,1-4.8
			c0.5-2,1-4.1,1.5-6.5C239.4,24.4,239.6,23.9,240.3,21.5z M225.5,16.5l-0.3,2c5.3,1.2,6.3,1.9,6.3,4.6c0,0.8-0.2,2.5-0.5,4.6
			c-1.5,8.7-3.2,15.6-7.6,31.1c-1.2,4.1-1.9,6.5-2.4,8.3c-0.8,2.5-1,3.4-1,4.1c0,1.7,1,2.5,3.4,2.5h14.3l0.3-2c-1-0.3-2-0.5-2.5-0.5
			c-3.6-0.8-4.9-2-4.9-4.6c0-0.7,0-1.5,0.2-2.4c0.3-2.7,0.8-4.9,1.4-7l1.4-6.3c0.8-4.1,1.9-4.6,9-4.6c4.1,0,6.6,0.7,8.2,2.4
			c1.2,1.4,2,3.7,2.7,8.5c0.7,4.4,1.4,9.2,1.7,12.2c0.3,3.4,1.2,4.2,4.1,4.2h10.9l0.5-2c-0.7-0.2-1.2-0.3-1.5-0.5
			c-3.9-1-4.2-1.5-5.6-6.8l-3.7-14.1c-1.2-4.8-1.9-5.3-8.8-6.5l-2-0.3c4.6-1,7.1-2,10-4.1c5.3-3.6,8.5-9.3,8.5-14.8
			c0-5.6-3.2-8.3-9.7-8.3c-0.7,0-1.2,0-1.9,0l-5.6,0.3c-3.9,0.2-7.6,0.2-11.2,0.2C234.3,16.9,231.4,16.7,225.5,16.5z"/>
	</g>
	<g>
		<path d="M15.9,170.4l0.2,1c0.3,1.9,0.5,3.4,0.5,3.7c0,0.7-0.5,0.8-1.5,0.8c-0.5,0-1,0-1.5-0.2c-0.8,0.8-1.5,1.2-1.7,1.2
			c-0.2,0-0.3-0.2-0.3-0.2c0-0.2,0-0.3,0.2-0.3c0-0.2,0.3-0.5,0.7-1c0.2-0.3,0.3-0.3,0.5-0.8c0.3-0.3,0.5-0.8,0.8-1.2
			c0.2-0.3,0.5-0.8,1-1.4L15.9,170.4z M17.3,166.8h-0.5c-1.2,1.5-1.7,2.2-3.2,4.4l-2.4,3.4c-0.3,0.5-0.7,1-1.4,1.9
			c-0.5,0.7-1,1.4-1.2,1.9c-1,1.4-1.5,2.2-2,3.2c-1.2,1.9-1.4,2.2-1.4,2.5c0,0.5,0.3,0.7,1.2,0.7h3.9l0.2-0.7
			c-2-0.5-2.5-0.8-2.5-1.4c0-0.3,0.2-0.7,0.5-1.2c0.7-1,1.2-1.9,1.7-2.5c0.8-1,1.4-1.4,3.1-1.4c0.2,0,0.3,0,0.5,0h1.7
			c0.2,0,0.5,0,0.7,0c0.3,0,0.7,0,1.2,0c0.2,0.8,0.2,1,0.3,1.9c0.2,0.7,0.2,1.2,0.3,1.9c0,0.3,0.2,0.7,0.2,1.2
			c0.2,0.7,0.2,0.8,0.2,0.8c0,0.3,0.2,0.5,0.2,0.7c0.2,0.3,0.5,0.5,1.2,0.5h2.9l0.2-0.7c-1.7-0.5-1.9-0.7-2.4-2.9L17.3,166.8z"/>
		<path d="M31,181.4c-1,0.8-1.9,1.2-2.9,1.2c-1.7,0-2.7-1.2-2.7-3.1c0-3.2,2.5-6.3,5.3-6.3c1.2,0,1.9,0.7,1.9,1.9
			c0,0.3,0,0.8-0.3,1.5l-0.5,2l-0.7,2.2V181.4z M32,167.3l-0.2,0.7h0.3c1.2,0.2,1.5,0.5,1.5,1.2c0,0.3,0,0.7-0.2,1.2l-0.3,1.4
			c0,0,0,0.3-0.2,0.7c-0.8-0.2-1.4-0.2-2-0.2c-2,0-4.1,0.7-5.6,2.2c-1.7,1.5-2.9,3.9-2.9,6.1c0,2.4,1.9,4.4,4.2,4.4
			c0.7,0,1.4-0.2,1.7-0.3c0.3-0.2,0.5-0.5,1.5-1.9l0.3-0.5c-0.3,1.5-0.5,1.5-0.5,1.9c0,0.5,0.3,0.7,1,0.7h3.7l0.2-0.7l-0.5-0.2
			c-1-0.2-1.4-0.5-1.4-1.2c0-0.3,0.2-1.4,0.5-2.7c0.5-2.2,1-4.4,1.5-6.3c0.2-0.5,0.2-0.8,0.3-1.4c0.3-1.2,0.3-1.7,0.5-1.9
			c0-0.3,0.2-0.5,0.2-0.7c0.2-0.7,0.2-0.8,0.3-1c0.2-0.3,0.2-0.7,0.2-0.8c0-0.3-0.3-0.7-0.8-0.7L32,167.3L32,167.3z"/>
		<path d="M39.2,172.1c0.7,0,0.8,0,1,0.2c0.2,0.2,0.2,0.2,0.3,1.4l1.4,8l0.3-0.7c1.5-2,2.7-4.1,3.6-5.4c0.5-1,0.7-1.4,0.7-1.7
			c0-0.3-0.2-0.5-0.5-0.7c-0.3-0.2-0.7-0.3-1.5-0.5l0.2-0.5h3.6c0.7,0,1,0.2,1,0.7c0,0.3-0.3,0.8-0.8,1.9c-1.4,2.2-2.4,3.6-3.6,5.3
			c-1.4,1.9-2.2,3.1-3.7,4.9h-0.5l-0.2-0.7c-0.3-1.4-0.5-2.5-0.7-3.7c-0.2-0.7-0.3-1.4-0.3-2c-0.2-1-0.2-1-0.3-1.4l-0.5-2.4
			c-0.3-1.2-0.5-1.5-1.7-1.9l-0.3-0.2l0.2-0.5L39.2,172.1L39.2,172.1z"/>
		<path d="M56.7,177c-0.3,1.5-0.7,2.9-1.2,3.7c-0.7,1.2-1.9,2-3.2,2s-2.2-0.7-2.2-1.9c0-1.4,1-2.5,2.5-3.2
			C53.6,177.3,55.3,177,56.7,177z M58.7,183.5v-0.3c-0.7-0.2-1-0.7-1-1.5c0-0.3,0-0.8,0.3-1.9c0.2-0.8,0.5-1.9,1-3.6
			c0.3-1,0.5-1.7,0.5-2c0-1.5-1.7-2.4-4.4-2.4c-1,0-2.5,0.2-2.9,0.3c-0.2,0-0.2,0-0.5,0.5l-1.9,2.5l0.3,0.2c1.4-1.4,2.7-2,4.1-2
			c1.7,0,2.7,0.7,2.7,1.7c0,0.2,0,0.3,0,0.7h-0.7c-3.2,0.2-4.4,0.5-6.1,1.4c-1.7,1-2.9,2.5-2.9,4.2c0,1.9,1.5,3.2,3.6,3.2
			c0.8,0,1.9-0.2,2.4-0.3c0.2-0.2,0.3-0.2,0.5-0.5l0.5-0.7l0.5-0.8c0,0,0.2-0.2,0.3-0.3c0,0.2,0,0.3,0,0.3c0,1.4,0.3,2.4,0.8,2.4
			c0.2,0,0.3,0,0.7-0.3L58.7,183.5z"/>
		<path d="M64.8,172.1c0.7,0,1,0.2,1,0.7c0,0.2,0,0.3-0.3,1.4l-0.2,0.8l1.5-2c0.3-0.5,0.5-0.7,0.8-0.7c0.3-0.2,1-0.2,1.7-0.2
			c2.2,0,3.6,1,3.6,2.5c0,0.3-0.2,1-0.3,1.7c-0.3,1-0.7,2.7-0.8,4.1c-0.2,1.2-0.3,1.7-0.3,2.2c0,0.8,0.3,1,1.9,1.4l-0.2,0.7h-3.6
			c-0.8,0-1-0.2-1-0.7c0-0.2,0-0.3,0.2-0.5l0.3-0.8l0.3-1.4c0.3-1,0.7-2.2,0.8-3.2c0.3-1.4,0.3-1.9,0.3-2.4c0-1.2-0.8-1.9-2.2-1.9
			c-1.9,0-2.9,1-3.7,3.6c-0.3,1.2-0.7,2.5-1,3.7c-0.2,1-0.2,1.4-0.2,1.7c0,0.7,0.3,1,1.5,1.2c0.2,0,0.3,0,0.7,0.2l-0.2,0.7h-3.9
			c-0.7,0-1-0.2-1-0.7c0-0.2,0-0.3,0.2-0.7c0.2-0.7,0.5-1.7,0.8-2.9c0.5-1.7,0.8-2.9,1-4.1c0.3-1.4,0.3-1.9,0.3-2.2
			c0-0.7-0.3-1-1.2-1.2l-0.5-0.2l0.2-0.5h3.4C64.8,172.4,64.8,172.1,64.8,172.1z"/>
		<path d="M82.4,176.5c0-1.2,0-1.5-0.2-2c-0.2-0.8-0.7-1.2-1.5-1.2c-2,0-4.2,2.9-4.2,5.6c0,2.4,1.5,3.9,3.9,3.9
			c0.8,0,1.7-0.2,2.7-0.5l0.2,0.3l-3.6,1.9c-0.5,0.3-0.7,0.3-1,0.3c-2.5,0-4.4-2-4.4-4.9c0-2,1-4.2,2.7-5.8c1.5-1.5,3.4-2.2,5.6-2.2
			c0.8,0,1.7,0.2,2.2,0.3c0.2,0.2,0.3,0.3,0.3,0.5c0,0.2,0,0.2-0.2,0.5l-1.7,3.2L82.4,176.5L82.4,176.5z"/>
		<path d="M93.2,176.8c-0.8,0-1.5,0.2-2.2,0.2c-0.8,0-1.5,0-2.5-0.2c-0.7,0.8-1.2,1.4-1.4,1.4c-0.2,0-0.2-0.2-0.2-0.3
			c0-0.3,0.2-1.2,0.5-1.7c0.8-2,2.4-3.2,3.9-3.2c1.4,0,2.2,0.8,2.2,2.5C93.2,175.8,93.2,176.1,93.2,176.8z M94.4,182.1l-0.2-0.3
			c-1.4,0.7-2.5,1-3.9,1c-2,0-3.7-1.4-3.7-3.1c0-1.2,0.5-1.4,4.1-1.4c0.8,0,1.9,0,2.5,0c0.3,0,0.7,0,0.7,0c0.5,0,0.8-0.2,1-0.5
			c0.3-0.3,0.3-1.2,0.3-2c0-2.5-1.5-4.1-4.1-4.1c-1.5,0-3.1,0.7-4.4,1.7c-1.9,1.5-2.9,4.1-2.9,6.3c0,2.9,2,4.9,5.3,4.9
			c1,0,1.4-0.2,2-0.7L94.4,182.1z"/>
		<path d="M104.3,181.4c-1,0.8-1.9,1.2-2.9,1.2c-1.7,0-2.7-1.2-2.7-3.1c0-3.2,2.5-6.3,5.3-6.3c1.2,0,1.9,0.7,1.9,1.9
			c0,0.3,0,0.8-0.3,1.5l-0.5,2l-0.7,2.2V181.4z M105.3,167.3l-0.2,0.7h0.3c1.2,0.2,1.5,0.5,1.5,1.2c0,0.3,0,0.7-0.2,1.2l-0.3,1.4
			c0,0,0,0.3-0.2,0.7c-0.8-0.2-1.4-0.2-2-0.2c-2,0-4.1,0.7-5.6,2.2c-1.7,1.5-2.9,3.9-2.9,6.1c0,2.4,1.9,4.4,4.2,4.4
			c0.7,0,1.4-0.2,1.7-0.3c0.3-0.2,0.5-0.5,1.5-1.9l0.3-0.5c-0.3,1.5-0.5,1.5-0.5,1.9c0,0.5,0.3,0.7,1,0.7h3.7l0.2-0.7l-0.5-0.2
			c-1-0.2-1.4-0.5-1.4-1.2c0-0.3,0.2-1.4,0.5-2.7c0.5-2.2,1-4.4,1.5-6.3c0.2-0.5,0.2-0.8,0.3-1.4c0.3-1.2,0.3-1.7,0.5-1.9
			c0-0.3,0.2-0.5,0.2-0.7c0.2-0.7,0.2-0.8,0.3-1c0.2-0.3,0.2-0.7,0.2-0.8c0-0.3-0.3-0.7-0.8-0.7L105.3,167.3L105.3,167.3z"/>
		<path d="M128.8,171.9c-0.2-2.2-1-3.2-2.5-3.2c-3.2,0-6.5,4.2-6.5,8.7c0,3.2,1.9,5.1,5.1,5.1c1.2,0,2.4-0.2,3.9-0.7l0.2,0.5
			l-4.6,2.4c-0.7,0.3-0.7,0.3-1.2,0.3c-3.2,0-5.8-2.9-5.8-6.5c0-6.1,5.3-11.4,11-11.4c1.2,0,2.4,0.2,2.9,0.3
			c0.3,0.2,0.3,0.3,0.3,0.7c0,0.2,0,0.3-0.2,0.3l-1.9,3.6h-0.8V171.9z"/>
		<path d="M140.8,170.4l0.2,1c0.3,1.9,0.5,3.4,0.5,3.7c0,0.7-0.5,0.8-1.5,0.8c-0.5,0-1,0-1.5-0.2c-0.8,0.8-1.5,1.2-1.7,1.2
			c-0.2,0-0.3-0.2-0.3-0.2c0-0.2,0-0.3,0.2-0.3c0-0.2,0.3-0.5,0.7-1c0.2-0.3,0.3-0.3,0.5-0.8c0.3-0.3,0.5-0.8,0.8-1.2
			c0.2-0.3,0.5-0.8,1-1.4L140.8,170.4z M142.2,166.8h-0.5c-1.2,1.5-1.7,2.2-3.2,4.4l-2.4,3.4c-0.3,0.5-0.7,1-1.4,1.9
			c-0.5,0.7-1,1.4-1.2,1.9c-1,1.4-1.5,2.2-2,3.2c-1.2,1.9-1.4,2.2-1.4,2.5c0,0.5,0.3,0.7,1.2,0.7h3.9l0.2-0.7
			c-2-0.5-2.5-0.8-2.5-1.4c0-0.3,0.2-0.7,0.5-1.2c0.7-1,1.2-1.9,1.7-2.5c0.8-1,1.2-1.4,3.1-1.4c0.2,0,0.3,0,0.5,0h1.7
			c0.2,0,0.5,0,0.7,0c0.3,0,0.7,0,1.2,0c0.2,0.8,0.2,1,0.3,1.9c0.2,0.7,0.2,1.2,0.3,1.9c0,0.3,0.2,0.7,0.2,1.2
			c0.2,0.7,0.2,0.8,0.2,0.8c0,0.3,0.2,0.5,0.2,0.7c0.2,0.3,0.5,0.5,1.2,0.5h3.2l0.2-0.7c-1.7-0.5-1.9-0.7-2.4-2.9L142.2,166.8z"/>
		<path d="M155.1,167.3c0.2,0.2,0.2,0.3,0.2,0.5c0,0.2,0.3,0.7,1,2l0.3,0.7l0.3,0.7c0.2,0.2,0.2,0.3,0.8,1.7
			c0.8,1.5,1.4,2.7,1.7,3.2c1,1.9,1.2,2.2,1.9,3.2l0.2-0.8c0.3-1.2,0.7-2.9,1-4.4c0.7-2.7,0.8-4.1,0.8-4.8c0-0.7-0.2-0.8-2.2-1.4
			l0.2-0.7h3.2c0.7,0,1,0.2,1,0.7c0,0.2,0,0.3-0.2,0.5l-0.2,0.8l-0.3,1.4c-0.5,1.9-0.8,3.2-1.4,5.8c-0.2,1-0.5,2-0.7,2.9
			c-0.3,1.2-0.3,1.5-0.5,2l-0.5,2.7v0.8h-0.5l-0.2-0.3l-2-4.2c-0.3-0.7-0.5-1-1.4-2.5c-0.7-1.5-1.4-2.5-1.9-3.7c-1-2-1.2-2.4-2-3.7
			l-0.3,1c-0.2,0.3-0.2,0.5-0.7,2.5c-1.2,4.8-1.4,5.6-1.5,7.1c-0.2,0.7-0.2,1.2-0.2,1.5c0,0.8,0.3,1.2,1.7,1.4c0.2,0,0.3,0,0.7,0.2
			l-0.2,0.7h-3.9c-0.7,0-1-0.3-1-0.8c0-0.2,0-0.3,0.2-0.8l0.5-1.5c0.5-1.4,1.4-4.8,1.9-6.5c0.7-2.4,1.2-4.9,1.2-5.6
			c0-0.5-0.2-0.8-0.7-1c-0.2-0.2-0.5-0.2-1.4-0.3l0.2-0.7L155.1,167.3L155.1,167.3L155.1,167.3z"/>
		<path d="M183.1,172.1c0-2.5-1-3.7-3.1-3.7s-3.9,1.7-3.9,3.6c0,0.7,0.3,1.4,0.8,1.7c0.3,0.2,0.8,0.3,1.7,0.5l1.2,0.2
			c1.4,0.2,1.5,0.2,1.9,0.3c1.5,0.5,2.4,1.5,2.4,3.1c0,4.1-3.7,7.3-8.3,7.3c-1.5,0-3.2-0.5-4.4-1c-0.5-0.3-0.7-0.5-0.7-0.8
			c0-0.2,0-0.3,0.2-0.7l1.5-3.2h0.7v0.3c0,1.5,0.3,2.4,0.8,3.1c0.7,0.7,1.5,1,2.5,1c2.5,0,4.9-2.2,4.9-4.8c0-0.8-0.3-1.5-1-1.9
			c-0.5-0.3-0.7-0.3-1.9-0.5l-1.2-0.2c-1.7-0.3-2.2-0.3-2.9-0.8c-0.7-0.5-1-1.4-1-2.4c0-1.7,1-3.6,2.7-4.8c1.2-0.8,2.5-1.2,4.1-1.2
			c1.4,0,3.2,0.3,4.1,0.8c0.5,0.2,0.7,0.5,0.7,0.8c0,0.2,0,0.3-0.2,0.5l-1.5,2.9h-0.2L183.1,172.1L183.1,172.1z"/>
		<path d="M187.9,179.4c0-3.7,1.9-6.5,4.2-6.5c1.9,0,2.9,1.7,2.9,4.4c0,3.7-1.9,6.5-4.2,6.5C189.1,183.6,187.9,182.1,187.9,179.4z
			 M185.4,180.1c0,2.9,1.9,4.8,4.8,4.8c4.1,0,7.6-3.7,7.6-8.2c0-2.9-1.9-4.8-4.6-4.8C188.9,171.9,185.4,175.6,185.4,180.1z"/>
		<path d="M203.4,167.3c0.7,0,1,0.2,1,0.7c0,0.2,0,0.5-0.2,1.2l-0.5,2.2l-0.8,3.2l-0.7,2.9c-0.2,0.3-0.2,0.7-0.5,1.9
			c-0.3,1.7-0.5,2-0.5,2.5c0,0.3,0,0.5,0,0.7c0,0.7,0.3,1,1.4,1.4c0.2,0,0.3,0,0.5,0.2l-0.2,0.7h-3.7c-0.7,0-1-0.2-1-0.7
			c0-0.2,0-0.5,0.3-1.2l0.5-1.9c0.3-1,0.7-2.2,1-3.6l0.5-2.2c0.3-1.5,0.7-2.4,0.8-3.6c0.3-1.5,0.3-2,0.3-2.5c0-0.8-0.2-0.8-1.7-1.4
			l0.2-0.5L203.4,167.3L203.4,167.3z"/>
		<path d="M208,172.1c0.7,0,1,0.2,1,0.5c0,0.2,0,0.7-0.2,1c-0.2,0.7-0.5,1.7-1,3.6c-0.5,2.2-0.7,2.5-0.7,3.2c0,0.3,0,0.5,0,0.7
			c0,1,0.7,1.7,2,1.7c1.2,0,2.2-0.5,2.9-1.5c0.7-0.8,1.2-2,1.5-3.2l0.7-2.2c0.2-0.7,0.3-1.5,0.3-2s-0.2-0.8-0.7-1
			c-0.3-0.2-0.5-0.2-1.4-0.3l0.2-0.7h3.7c0.5,0,0.8,0.2,0.8,0.7c0,0.2-0.2,0.7-0.3,1.4c-0.2,0.3-0.3,1-0.5,1.9
			c-0.2,0.5-0.3,1.2-0.3,1.7c-0.2,0.8-0.2,0.8-0.3,1.2l-0.5,2.5c-0.2,0.5-0.2,1-0.2,1.4c0,0.8,0.3,1,1.9,1.5l-0.2,0.7h-3.7
			c-0.7,0-0.8-0.2-0.8-0.7c0-0.2,0-0.3,0-0.5l0.5-2l-1.9,2.2c-0.5,0.7-0.7,0.7-0.8,0.8c-0.3,0.2-1.2,0.2-1.7,0.2c-2,0-3.6-1-3.6-2.5
			c0-0.3,0.2-0.8,0.2-1.4c0.3-1.5,1-3.6,1.2-4.8c0.3-1,0.3-1.7,0.3-2c0-0.7-0.3-1-1.7-1.4l0.2-0.7L208,172.1L208,172.1z"/>
		<path d="M222.4,173.8c-0.5,1.9-1,3.9-1.4,5.9c-0.2,0.5-0.2,1.2-0.2,1.5c0,1,0.7,1.5,1.9,1.5c0.3,0,0.7,0,1.2-0.2l0.2,0.3l-3.2,1.5
			l-0.2,0.2h-0.2c-1,0-2-1.4-2-2.5c0-0.3,0.2-1,0.3-1.7l0.5-1.9c0.3-1,0.5-2,0.7-2.9l0.5-2l0.2-0.3h-1.9l0.2-0.5
			c0.3-0.2,0.8-0.3,1.4-0.7c0.7-0.3,0.7-0.5,1-1.4c0-0.2,0-0.3,0.2-0.8c0-0.3,0.2-0.5,0.2-0.7c0-0.5,0.2-0.7,0.7-0.8l1.2-0.5
			c0.2,0,0.3-0.2,0.5-0.2c0.2,0,0.3,0.2,0.3,0.3c0,0.2,0,0.3-0.2,0.5l-0.3,1l-0.5,1.5c0,0.2,0,0.3-0.2,0.5h3.4l-1,1.4
			c-1,0-1.5-0.2-2.2-0.2h-0.5L222.4,173.8z"/>
		<path d="M228.9,172.1l0.8-4.2c0-0.3,0.3-0.7,0.7-0.7h1.5h0.2c0.2,0,0.3,0.2,0.3,0.3v0.2l-0.3,1.5c-0.2,0.5-0.3,0.7-0.8,0.7h-0.5
			C230.1,169.9,230.1,169.9,228.9,172.1h1.4c0.7,0,0.8,0.2,0.8,0.7c0,0.2,0,0.5-0.2,1c-0.2,0.7-0.5,1.5-0.8,2.9
			c-0.2,0.7-0.3,1.5-0.5,2.2c-0.2,0.8-0.2,1-0.3,1.4l-0.3,1.9c0,0.2,0,0.3,0,0.5c0,0.7,0.3,1.2,1.5,1.4c0,0,0.2,0,0.3,0.2l-0.2,0.7
			h-3.7c-0.7,0-1-0.2-1-0.7c0-0.2,0.2-0.5,0.2-0.8c0,0,0-0.3,0.3-0.8c0-0.3,0.2-0.3,0.2-0.7l0.8-3.2c0.3-1,0.5-2.2,0.8-3.2
			c0-0.3,0.2-0.7,0.2-1c0-0.5-0.2-0.8-0.7-1c-0.2,0-0.3-0.2-1.2-0.3l0.2-0.5h2.2L228.9,172.1L228.9,172.1z"/>
		<path d="M234.1,179.4c0-3.7,1.9-6.5,4.2-6.5c1.9,0,2.9,1.7,2.9,4.4c0,3.7-1.9,6.5-4.2,6.5C235.3,183.6,234.1,182.1,234.1,179.4z
			 M231.6,180.1c0,2.9,1.9,4.8,4.8,4.8c4.1,0,7.6-3.7,7.6-8.2c0-2.9-1.9-4.8-4.6-4.8C235.2,171.9,231.6,175.6,231.6,180.1z"/>
		<path d="M248.6,172.1c0.7,0,1,0.2,1,0.7c0,0.2,0,0.3-0.3,1.4l-0.2,0.8l1.5-2c0.3-0.5,0.5-0.7,0.8-0.7c0.3-0.2,1-0.2,1.7-0.2
			c2.2,0,3.6,1,3.6,2.5c0,0.3-0.2,1-0.3,1.7c-0.3,1-0.7,2.7-0.8,4.1c-0.2,1.2-0.3,1.7-0.3,2.2c0,0.8,0.3,1,1.9,1.4l-0.2,0.7h-3.6
			c-0.8,0-1-0.2-1-0.7c0-0.2,0-0.3,0.2-0.5l0.3-0.8l0.3-1.4c0.3-1,0.7-2.2,0.8-3.2c0.3-1.4,0.3-1.9,0.3-2.4c0-1.2-0.8-1.9-2.2-1.9
			c-1.9,0-2.9,1-3.7,3.6c-0.3,1.2-0.7,2.5-1,3.7c-0.2,1-0.2,1.4-0.2,1.7c0,0.7,0.3,1,1.5,1.2c0.2,0,0.3,0,0.7,0.2l-0.2,0.7h-3.9
			c-0.7,0-1-0.2-1-0.7c0-0.2,0-0.3,0.2-0.7c0.2-0.7,0.5-1.7,0.8-2.9c0.5-1.7,0.8-2.9,1-4.1c0.3-1.4,0.3-1.9,0.3-2.2
			c0-0.7-0.3-1-1.2-1.2l-0.5-0.2l0.2-0.5h3.4L248.6,172.1L248.6,172.1z"/>
		<path d="M267.1,176.1c0-0.2,0-0.3,0-0.3c-0.2-1-0.2-1.2-0.3-1.7c-0.3-0.7-1-1-1.9-1c-1.5,0-2.9,1.2-2.9,2.5c0,1,0.5,1.4,2.2,1.5
			c1,0.2,1.7,0.3,2.2,0.5c1,0.3,1.5,1.2,1.5,2.2c0,2.7-2.7,4.9-6.1,4.9c-1.2,0-2.4-0.3-3.7-1c-0.5-0.3-0.8-0.5-0.8-0.8
			c0-0.2,0.2-0.5,0.3-0.8l1.5-2.4h0.3c0,0.2,0,0.2,0,0.3c0,1.4,0.2,1.5,0.3,2.2c0.5,0.8,1.4,1.4,2.4,1.4c1.7,0,3.2-1.5,3.2-3.1
			c0-0.5-0.3-1-0.7-1.2c-0.3-0.2-0.8-0.3-1.9-0.5l-0.8-0.2c-1.7-0.3-2.5-1.2-2.5-2.5c0-2.5,2.4-4.4,5.4-4.4c1.9,0,4.1,0.8,4.1,1.5
			c0,0.2,0,0.3-0.2,0.5l-1.5,2.2h-0.2L267.1,176.1L267.1,176.1z"/>
	</g>
	<path d="M61.4,129.6c0,2,1.5,3.6,3.6,3.6h3.1h153.1h2c2.4,0,4.2-2,4.2-4.4v-0.3v-21.6v-1.2c0-1.9-1.5-3.2-3.2-3.2h-1.5H4V80.3
		h269.1v-8.2L296,92.9l-22.8,18.4v-8.5l-15-0.2c0,0-2.5-0.3-3.7,1c-1.2,1.2-1,3.1-1,3.1v30.6v1c0,9.5-7.6,17.2-17.2,17.2h-1H58.6
		h-8.5c-8.3,0-15.1-6.6-15.1-15v-0.5v-17.8h-9.5l23.1-19l22.9,19h-9.9v6.5L61.4,129.6z"/>
</g>
</svg>
