<?xml version="1.0" encoding="UTF-8"?><svg id="Layer_2" xmlns="http://www.w3.org/2000/svg" viewBox="0 0 242 49.11"><defs><style>.cls-1{fill:#ee7f00;}</style></defs><g id="Layer_1-2"><g><path d="M72.57,5.04h1.97V15.1h-1.97v-4.17h-3.74v4.17h-1.98V5.04h1.98v3.99h3.74v-3.99Z"/><path d="M81.78,7.91h1.85v7.18h-1.85v-.85c-.56,.7-1.34,1.05-2.34,1.05s-1.78-.37-2.46-1.1c-.68-.73-1.03-1.63-1.03-2.69s.34-1.96,1.03-2.69,1.51-1.1,2.46-1.1c1.01,0,1.79,.35,2.34,1.05v-.85Zm-3.42,5.05c.37,.38,.85,.57,1.42,.57s1.05-.19,1.43-.57c.38-.38,.57-.86,.57-1.46s-.19-1.08-.57-1.46c-.38-.38-.85-.57-1.43-.57s-1.05,.19-1.42,.57c-.37,.38-.56,.86-.56,1.46s.19,1.08,.56,1.46Z"/><path d="M89.31,7.71c.79,0,1.43,.26,1.95,.79,.51,.53,.77,1.25,.77,2.18v4.41h-1.85v-4.18c0-.48-.13-.84-.39-1.1s-.6-.38-1.03-.38c-.48,0-.86,.15-1.15,.45s-.43,.74-.43,1.34v3.88h-1.85V7.91h1.85v.8c.45-.67,1.16-1.01,2.14-1.01Z"/><path d="M95.78,13.36h3.19v1.74h-5.66v-1.23l3.03-4.21h-2.89v-1.74h5.38v1.23l-3.05,4.21Z"/><path d="M101.46,12.27c.25,.9,.92,1.35,2.03,1.35,.71,0,1.25-.24,1.61-.72l1.49,.86c-.71,1.02-1.75,1.54-3.13,1.54-1.19,0-2.14-.36-2.86-1.08s-1.08-1.62-1.08-2.72,.35-1.98,1.06-2.71c.71-.72,1.62-1.08,2.73-1.08,1.05,0,1.92,.36,2.61,1.09,.68,.73,1.03,1.63,1.03,2.7,0,.24-.02,.49-.07,.76h-5.42Zm-.03-1.44h3.66c-.11-.49-.32-.85-.65-1.09s-.71-.36-1.13-.36c-.5,0-.91,.13-1.24,.38s-.54,.61-.65,1.07Z"/><path d="M88.37,20.85v21.98h-4.3v-14.26l-6.2,10.2-.5,.02-6.17-10.16v14.2h-4.33V20.85h4.46l6.3,10.38,6.27-10.38h4.48Z"/><path d="M104.19,27.13h4.05v15.7h-4.05v-1.85c-1.21,1.53-2.92,2.29-5.12,2.29s-3.89-.8-5.39-2.4c-1.5-1.6-2.25-3.56-2.25-5.89s.75-4.29,2.25-5.89c1.5-1.6,3.29-2.4,5.39-2.4,2.2,0,3.9,.76,5.12,2.29v-1.85Zm-7.47,11.04c.82,.83,1.85,1.24,3.11,1.24s2.3-.41,3.12-1.24,1.24-1.89,1.24-3.19-.41-2.36-1.24-3.19c-.83-.83-1.87-1.24-3.12-1.24s-2.29,.41-3.11,1.24-1.22,1.89-1.22,3.19,.41,2.36,1.22,3.19Z"/><path d="M126.4,42.83h-4.71l-5.72-7.13v7.13h-4.05V20.85h4.05v13.22l5.4-6.94h4.84l-6.31,7.76,6.5,7.95Z"/><path d="M130.7,36.64c.54,1.97,2.02,2.95,4.43,2.95,1.55,0,2.72-.52,3.52-1.57l3.27,1.88c-1.55,2.24-3.83,3.36-6.85,3.36-2.6,0-4.68-.79-6.25-2.36s-2.36-3.55-2.36-5.94,.77-4.34,2.32-5.92c1.55-1.58,3.54-2.37,5.97-2.37,2.3,0,4.2,.8,5.7,2.39,1.5,1.59,2.25,3.56,2.25,5.9,0,.52-.05,1.08-.16,1.67h-11.84Zm-.06-3.14h8.01c-.23-1.07-.71-1.86-1.43-2.39s-1.54-.79-2.47-.79c-1.09,0-1.99,.28-2.7,.83-.71,.55-1.18,1.33-1.41,2.34Z"/><path d="M149.57,29.83c.38-1,1-1.76,1.87-2.26,.87-.5,1.84-.75,2.91-.75v4.52c-1.24-.15-2.34,.1-3.31,.75-.97,.65-1.46,1.73-1.46,3.24v7.51h-4.05v-15.7h4.05v2.7Z"/><path d="M159.94,31.59c0,.42,.28,.76,.83,1.02,.55,.26,1.23,.49,2.03,.69,.79,.2,1.59,.45,2.39,.75,.8,.3,1.47,.81,2.03,1.52,.55,.71,.83,1.6,.83,2.67,0,1.61-.6,2.85-1.81,3.72-1.2,.87-2.71,1.3-4.51,1.3-3.22,0-5.42-1.25-6.59-3.74l3.52-1.98c.46,1.36,1.49,2.04,3.08,2.04,1.45,0,2.17-.45,2.17-1.35,0-.42-.28-.76-.83-1.02s-1.23-.5-2.03-.71c-.8-.21-1.59-.47-2.39-.79-.8-.31-1.47-.81-2.03-1.49-.56-.68-.83-1.53-.83-2.56,0-1.55,.57-2.77,1.71-3.66,1.14-.89,2.56-1.33,4.26-1.33,1.28,0,2.44,.29,3.49,.86,1.05,.58,1.87,1.4,2.48,2.47l-3.46,1.88c-.5-1.07-1.34-1.6-2.51-1.6-.52,0-.96,.12-1.3,.35s-.52,.54-.52,.94Z"/><path d="M179.94,26.69c2.11,0,3.92,.8,5.42,2.4s2.25,3.56,2.25,5.89-.75,4.29-2.25,5.89-3.3,2.4-5.42,2.4-3.89-.76-5.09-2.29v8.13h-4.05V27.13h4.05v1.85c1.19-1.53,2.89-2.29,5.09-2.29Zm-3.86,11.48c.82,.83,1.85,1.24,3.11,1.24s2.3-.41,3.12-1.24c.83-.83,1.24-1.89,1.24-3.19s-.41-2.36-1.24-3.19-1.87-1.24-3.12-1.24-2.29,.41-3.11,1.24-1.22,1.89-1.22,3.19,.41,2.36,1.22,3.19Z"/><path d="M202.4,27.13h4.05v15.7h-4.05v-1.85c-1.21,1.53-2.92,2.29-5.12,2.29s-3.89-.8-5.39-2.4c-1.5-1.6-2.25-3.56-2.25-5.89s.75-4.29,2.25-5.89c1.5-1.6,3.29-2.4,5.39-2.4,2.2,0,3.9,.76,5.12,2.29v-1.85Zm-7.47,11.04c.82,.83,1.85,1.24,3.11,1.24s2.3-.41,3.12-1.24,1.24-1.89,1.24-3.19-.41-2.36-1.24-3.19c-.83-.83-1.87-1.24-3.12-1.24s-2.29,.41-3.11,1.24-1.22,1.89-1.22,3.19,.41,2.36,1.22,3.19Z"/><path d="M217.6,43.27c-2.37,0-4.34-.79-5.92-2.39-1.58-1.59-2.37-3.56-2.37-5.9s.79-4.31,2.37-5.9c1.58-1.59,3.55-2.39,5.92-2.39,1.53,0,2.92,.37,4.18,1.1,1.26,.73,2.21,1.72,2.86,2.95l-3.49,2.04c-.31-.65-.79-1.16-1.43-1.54s-1.36-.57-2.15-.57c-1.21,0-2.22,.4-3.01,1.21-.8,.81-1.19,1.84-1.19,3.09s.4,2.26,1.19,3.06c.79,.81,1.8,1.21,3.01,1.21,.82,0,1.54-.18,2.18-.55s1.12-.87,1.43-1.52l3.52,2.01c-.69,1.24-1.66,2.22-2.92,2.97-1.26,.74-2.65,1.11-4.18,1.11Z"/><path d="M230,36.64c.54,1.97,2.02,2.95,4.43,2.95,1.55,0,2.72-.52,3.52-1.57l3.27,1.88c-1.55,2.24-3.83,3.36-6.85,3.36-2.6,0-4.68-.79-6.25-2.36s-2.36-3.55-2.36-5.94,.77-4.34,2.32-5.92c1.55-1.58,3.54-2.37,5.97-2.37,2.3,0,4.2,.8,5.7,2.39,1.5,1.59,2.25,3.56,2.25,5.9,0,.52-.05,1.08-.16,1.67h-11.84Zm-.06-3.14h8.01c-.23-1.07-.71-1.86-1.43-2.39s-1.54-.79-2.47-.79c-1.09,0-1.99,.28-2.7,.83-.71,.55-1.18,1.33-1.41,2.34Z"/></g><g><polygon class="cls-1" points="35.15 0 35.15 4.44 43.5 4.44 43.5 12.79 47.94 12.79 47.94 0 35.15 0"/><g><path d="M43.5,17.23v14.78l-8.35,8.35V12.79H7.58L15.93,4.44h14.78V0H14.09L0,14.09v10.11H4.39l.9,5.29c1.4,.4,2.8,1,4.09,1.7l4.49-3.1,6.19,6.29-3.2,4.39c.7,1.2,1.3,2.6,1.7,4.09l5.39,.9v4.17h9.88l14.09-14.09V17.23h-4.44Z"/><path d="M0,36.72v11.21H11.44c-.12-6.24-5.29-11.21-11.44-11.21Z"/></g></g></g></svg>