<?xml version="1.0" encoding="utf-8"?>
<!-- Generator: Adobe Illustrator 25.0.0, SVG Export Plug-In . SVG Version: 6.00 Build 0)  -->
<svg version="1.1" id="Laag_1" xmlns="http://www.w3.org/2000/svg" xmlns:xlink="http://www.w3.org/1999/xlink" x="0px" y="0px"
	 viewBox="0 0 845.6 283.5" style="enable-background:new 0 0 845.6 283.5;" xml:space="preserve">
<style type="text/css">
	.st0{fill:#231F20;}
</style>
<path class="st0" d="M155.5,208.9c-25.3,1.8-38.1,2.5-60.4,2.7v44.9c20.3-0.5,32.6-0.9,53.8-4.8C152.6,241.1,155.1,223,155.5,208.9z
	"/>
<path class="st0" d="M95.1,263.2v20.3c14.1-0.7,30.1-2.7,44.2-7.5c3.8-5.3,6.6-11.1,8.4-17.3C134.8,261.1,114.7,262.9,95.1,263.2z"
	/>
<path class="st0" d="M81.6,212.5c-22.6,0-56.8-2.5-56.8-2.5c1.6,17.8,3.6,31.7,6.4,42.4c6.6,1.4,30.1,4.3,51.1,4.1
	C82.6,256.6,81.4,220.7,81.6,212.5z"/>
<path class="st0" d="M156.7,31.9c3.4,11.9,5.9,34.9,6.6,41.3c13.8,1.5,27.5,4,41,7.5c-2.9-12.6-7.4-24.8-13.2-36.3
	C175.6,36.7,156.7,31.9,156.7,31.9z"/>
<path class="st0" d="M210.3,136.2c-0.4-16.9-2.2-33.8-5.2-50.4c-13.2-3.2-27.8-5-41.3-6.4c0,0,3.2,34.9,2.5,56.8H210.3z"/>
<path class="st0" d="M75.5,65c0-14.4,0.7-44.9,0.7-44.9c-15.7,0.2-39.2,2-51.8,4.8c-3,12.5-5,31.7-5.9,42.4
	C36.7,65.7,54.3,65.2,75.5,65z"/>
<path class="st0" d="M65.9,75l0.2,59.3c0,0,39.7,0.2,57.5,0.2c-0.5-23.5-0.7-35.8-2.5-57.9C101,75,84.1,74.8,65.9,75z"/>
<path class="st0" d="M88.7,26.2c0,0,0.7,29,0.9,44c0,0,45.2,1.1,60,2.5c-1.8-19.8-4.1-33.5-6.6-42.4C128.6,27.6,108.5,26,88.7,26.2z
	"/>
<path class="st0" d="M155.3,257.2c-4.1,11.9-9.8,16.7-9.8,16.9c18-7.5,26.9-13.5,37.6-22.1c2.7-2.3,5.9-7.1,7.5-9.6
	C179.8,249.4,167.9,254.4,155.3,257.2z"/>
<path class="st0" d="M205,200.9c-13.7,3.3-27.7,5.7-41.7,7.1c0,0-2.5,27.1-7.3,42.6l0,0c13.7-3,28.3-8.2,36.3-13.2
	C200,221,205,200.9,205,200.9z"/>
<path class="st0" d="M189.5,40.1c-4.1-6.4-6.4-8.7-6.4-8.9C172,22,159.4,14.5,145.9,9.1c4.2,5.2,7.5,11.2,9.6,17.6
	C172.2,30.6,189.5,40.1,189.5,40.1z"/>
<path class="st0" d="M2.5,197.9c0,0,35.1,1.8,56.1,1.6c-0.2-12.3-0.2-59.3-0.2-59.3s-41-0.2-58.4-0.5C0.5,163.3,1.4,182.4,2.5,197.9
	z"/>
<path class="st0" d="M89.2,204.3c15.7-0.2,41.7-0.9,59.5-2.7c1.4-19.1,1.8-35.1,1.8-57.5H89.6C89.6,165.6,89.4,186.1,89.2,204.3z"/>
<path class="st0" d="M205.9,195.7c0.7-2,5-30.3,4.3-51.3h-44c-0.2,22.8-1.1,42.2-2.5,57.7C177.9,200.8,192,198.6,205.9,195.7z"/>
<path class="st0" d="M95.1,20.5c19.6,0,39.5,1.8,52.5,4.3c-1.9-6.2-4.8-12.1-8.7-17.3c-12.3-4.3-31-7.3-43.8-7.5V20.5z"/>
<path class="st0" d="M165.8,198.2"/>
<path class="st0" d="M295.3,94c-3.9,0-7.7,0.9-11.2,2.7c-4,2.2-7.9,4.7-11.6,7.3v59.1h-22.8V77.8h15l3.9,9.1
	c5.3-3.6,10.9-6.6,16.9-8.9c5.1-1.9,10.5-3,16-3.2c10.7,0,18.2,3,22.6,9.1s6.6,14.6,6.6,25.5v53.4h-22.8v-52.5
	c0-5.2-1.1-9.4-3.2-12.3C302.3,95.4,298.9,93.9,295.3,94z"/>
<path class="st0" d="M386.8,75.4c8.7,0,15.7,2,21.7,5.9c5.9,3.9,10.5,9.6,13,16.2c2.9,7.2,4.3,14.8,4.3,22.6v7.1h-57.5
	c1.1,5.9,3.7,10.5,7.8,13.7c3.9,3.2,10,4.8,18,4.8c4.3,0,8.6-0.6,12.8-1.8c4.2-1.6,8.2-3.5,12.1-5.7l6.6,16.5
	c-4.3,3.3-9,5.9-14.1,7.8c-5.8,2-11.9,2.9-18,2.7c-16.2,0-28.5-3.9-37-11.9s-12.5-18.9-12.5-32.8c-0.2-8.2,1.6-16.3,5.2-23.7
	c3.2-6.6,8.4-12.1,14.8-15.7C370.3,77.3,377.9,75.4,386.8,75.4z M386.3,95.1c-4.4-0.2-8.6,1.4-11.8,4.4c-3.2,3-5.2,7.1-6.2,12.5
	h35.8c-1.1-5.7-3.2-9.8-6.2-12.8C394.7,96.5,390.6,95,386.3,95.1L386.3,95.1z"/>
<path class="st0" d="M519.3,163.1h-11.9l-5.2-7.8c-7.5,6.6-15.7,9.8-24.6,9.8c-13.2,0-23.7-4.1-31.5-12.1s-11.6-18.9-11.6-32.6
	c-0.2-8.1,1.6-16.2,5.2-23.5c3.3-6.7,8.5-12.2,15-15.7c7.2-3.9,15.3-5.8,23.5-5.7c3,0,6,0.5,8.9,1.6c3.2,1,6.2,2.4,9.1,4.1V40.8
	l23-2.1L519.3,163.1z M478.3,145.7c3.1-0.1,6.1-0.7,8.9-1.8c3.2-1.4,6.3-3.1,9.1-5.2v-36.5c-2.6-2.3-5.6-4.2-8.9-5.5
	c-2.9-1.1-6-1.7-9.1-1.6c-6.2,0-11.2,2.3-14.8,7.1s-5.5,10.9-5.5,18.5s1.8,13.7,5.5,18.2C466.8,143.4,471.8,145.7,478.3,145.7
	L478.3,145.7z"/>
<path class="st0" d="M580.4,75.4c3.9,0,8.9,0.9,14.8,2.5c5.3,1.4,10.3,3.6,14.8,6.6l-6.6,16.4c-3.8-1.8-7.8-3.2-11.9-4.3
	c-3.6-0.9-7.3-1.4-11-1.4c-6.1-0.1-11.9,2.6-15.7,7.3c-4.1,4.8-6.2,11-6.2,18.2s2,13.5,6.2,18c3.9,4.6,9.7,7.3,15.7,7.1
	c3.7,0,7.4-0.5,11-1.4c4-1.2,8-2.6,11.9-4.3l6.6,16.4c-4.3,3.1-9.1,5.3-14.1,6.6c-5,1.4-10.1,2.2-15.3,2.3c-9.1,0-17.1-1.8-23.9-5.5
	c-6.7-3.5-12.1-8.9-15.7-15.5c-3.6-6.9-5.5-14.6-5.5-23.7s1.8-16.9,5.5-23.7c3.5-6.7,9-12.1,15.7-15.7
	C563.3,77.3,571.3,75.4,580.4,75.4z"/>
<path class="st0" d="M656.3,96.7c-4.3,0-8.6,0.5-12.8,1.6c-4.1,0.9-8,2.2-11.9,3.9l-6.2-18.9c3-2,8-3.9,14.6-5.2
	c5.2-1.4,10.6-2.1,16-2.3c6.5-0.1,12.9,1.3,18.7,4.1c5.4,2.5,10,6.3,13.4,11.2c3.3,4.7,5.1,10.4,5,16.2v56.1h-15l-3.9-9.1
	c-7.1,7.5-14.6,11.2-22.6,11.2c-10.3,0-17.8-2.5-23-7.5s-7.8-11.6-7.8-20.1c0-8.7,3-15.3,8.9-20.1s13.7-7.1,23.5-7.1h16.7
	c-0.2-4.3-1.4-7.8-3.9-10C663.8,97.8,660.7,96.7,656.3,96.7z M652.9,125.7c-3.4-0.1-6.7,1.1-9.1,3.4c-2.2,2.2-3.5,5.3-3.4,8.4
	c0,2.5,1.1,5,3,6.6c2.1,1.9,4.9,2.9,7.8,2.7c6.8,0,13-2.7,18.9-8.4v-13h-17.1L652.9,125.7z"/>
<path class="st0" d="M843.6,106v57h-22.8v-52.4c0-5.5-0.9-9.6-2.5-12.5c-1.6-2.7-4.3-4.1-8-4.1c-3.4,0-6.7,0.9-9.6,2.5
	c-3.8,2.2-7.6,4.7-11.2,7.3v59.3h-22.8v-52.5c0-5.5-0.9-9.6-2.5-12.5c-1.6-2.7-4.3-4.1-8-4.1c-3.4,0-6.7,0.9-9.6,2.5
	c-4,2.2-7.8,4.7-11.4,7.5v59.1h-22.8V77.8h15l3.9,9.1c5.1-3.6,10.6-6.6,16.4-8.9c4.7-2,9.7-3.1,14.8-3.2c11.6,0,19.4,3.9,23.5,11.6
	c5-3.5,10.5-6.3,16.2-8.4c4.6-1.9,9.6-2.9,14.6-3c9.8,0,16.7,2.5,21,7.8C841.3,88,843.6,95.8,843.6,106z"/>
<path class="st0" d="M270.7,207.7c-1.5-2.7-4.4-4.4-7.5-4.3c-3.2,0-6.6,1.4-6.6,4.8c0,3,2.3,4.3,7.3,5.2c7.3,1.6,10.7,4.3,10.7,9.1
	c0,7.1-5.9,9.6-11.6,9.6c-4.8,0.2-9.4-2.1-12.3-5.9l3.7-2.7c1.9,3,5.1,4.8,8.7,4.8c3.9,0,7.3-1.4,7.3-5.5c0-3.2-3.2-4.6-9.1-5.9
	c-3.7-0.9-8.9-2.5-8.9-8.2c0-6.4,5.5-8.9,11-8.9c4.3,0,8.9,2.1,11,5.5L270.7,207.7z"/>
<path class="st0" d="M288.3,205.4c1.6-3.6,5.9-5.9,10.3-5.9c7.8,0,11.9,5,11.9,12.8v18.9h-4.6v-16.9c0-6.4-1.8-11-8.4-11
	c-4.8,0-9.3,3.9-9.3,12.1v16h-4.5v-50h4.6L288.3,205.4L288.3,205.4z"/>
<path class="st0" d="M341.6,211.4c0-5.2-3-8-8.2-8c-3.4-0.1-6.7,1.2-9.1,3.6l-2.5-3c2.5-2.5,6.8-4.3,12.1-4.3
	c6.6,0,12.1,3.6,12.1,11.2v13.5c0,2.3,0.2,4.6,0.5,6.8h-4.1c-0.3-1.7-0.4-3.3-0.5-5h-0.2c-2.7,4.1-6.4,5.7-11.2,5.7
	s-10.7-2.5-10.7-9.4c0-9.6,10.5-10.3,21.9-10.3L341.6,211.4z M340.2,216c-7.3,0-15.7,0.7-15.7,6.6c0,4.3,3.6,5.9,7.3,5.9
	c6.4,0,9.8-4.8,9.8-10.3V216H340.2z"/>
<path class="st0" d="M361.9,247.2h-4.6v-46.8h4.6v5.2h0.2c2.6-3.9,7-6.2,11.6-6.2c9.6,0,16,7.1,16,16.2s-6.4,16.2-16,16.2
	c-4.6-0.1-8.9-2.2-11.6-5.9h-0.2V247.2z M373.3,203.4c-6.8,0-11.8,5.4-11.8,12.5s5,12.3,11.9,12.3c7.5,0,11.6-5.5,11.6-12.3
	S380.6,203.4,373.3,203.4z"/>
<path class="st0" d="M401.6,191.8c-1.8,0-3.2-1.4-3.2-3.2s1.4-3.2,3.2-3.2s3.2,1.4,3.2,3.2C404.7,190.3,403.3,191.7,401.6,191.8z
	 M403.9,231.4h-4.6v-31h4.6V231.4z"/>
<path class="st0" d="M419.8,200.4c0.2,1.7,0.3,3.5,0.2,5.2h0.2c2.1-3.8,6.1-6.2,10.5-6.2c7.8,0,11.9,5,11.9,12.8v18.9h-4.6v-16.9
	c0-6.4-1.8-11-8.4-11c-4.8,0-9.3,3.9-9.3,12.1v16h-4.6v-24.2c0-1.6,0-4.8-0.2-6.8L419.8,200.4z"/>
<path class="st0" d="M455.9,237.6c2.9,3.6,7.3,5.6,11.9,5.7c8.9,0,12.1-5.5,12.1-12.1v-5.9h-0.2c-2.3,3.9-7.3,6.2-11.6,6.2
	c-9.6,0-16-6.6-16-15.7c0-8.9,6.4-16,16-16c4.6,0,9.3,2.3,11.6,6.2h0.2v-5.2h4.6v30.5c0,6.9-3.2,16.2-16.9,16.2
	c-5.6,0-10.9-2.2-14.8-6.2L455.9,237.6z M468.4,227.6c6.8,0,11.9-4.8,11.9-12.1c0.1-6.6-5.2-12-11.9-12.1c-7.5,0-11.6,5.7-11.6,12.1
	C456.8,222.1,460.9,227.6,468.4,227.6L468.4,227.6z"/>
<path class="st0" d="M526.6,204.3h-8.7v18c0,4.6,1.8,5.7,4.6,5.7c1.3-0.1,2.7-0.4,3.9-0.9l0.2,3.9c-1.7,0.7-3.5,1-5.2,0.9
	c-3.2,0-8-1.4-8-8.2v-19.4h-6.4v-3.6h6.4V192h4.6v8.7h8.7L526.6,204.3z"/>
<path class="st0" d="M561.5,217.1h-25.6c0.2,6.4,5.5,11.4,11.9,11.2c3.8-0.1,7.3-2.1,9.3-5.2l3.4,2.7c-3.1,4.2-8,6.6-13.2,6.6
	c-9.1,0-16-6.8-16-16.2s6.8-16.2,15.5-16.2c9.8,0,14.8,6.8,14.8,15.3C561.7,215.9,561.6,216.5,561.5,217.1z M557.2,213.7
	c-0.2-5.9-3.9-10-10.3-10c-5.6,0-10.3,4.4-10.7,10H557.2z"/>
<path class="st0" d="M593.6,207.5c-1.8-2.6-4.8-4.2-8-4.1c-7.3,0-11.9,5.5-11.9,12.5s4.6,12.3,11.9,12.3c3.3,0.1,6.5-1.4,8.4-4.1
	l3.4,2.5c-2.9,3.5-7.3,5.4-11.9,5.2c-10,0-16.4-6.8-16.4-16.2s6.6-16.2,16.4-16.2c4.1,0,8.9,1.8,11.4,5.2L593.6,207.5z"/>
<path class="st0" d="M609.1,205.4c1.6-3.6,5.9-5.9,10.3-5.9c7.8,0,11.9,5,11.9,12.8v18.9h-4.6v-16.9c0-6.4-1.8-11-8.4-11
	c-4.8,0-9.3,3.9-9.3,12.1v16h-4.6v-50h4.6L609.1,205.4L609.1,205.4z"/>
<path class="st0" d="M646.8,200.4c0.2,1.7,0.3,3.5,0.2,5.2h0.2c2.1-3.8,6.1-6.2,10.5-6.2c7.8,0,11.8,5,11.8,12.8v18.9H665v-16.9
	c0-6.4-1.8-11-8.4-11c-4.8,0-9.3,3.9-9.3,12.1v16h-4.6v-24.2c0-1.6,0-4.8-0.2-6.8L646.8,200.4z"/>
<path class="st0" d="M695.3,232.2c-9.6,0-16.4-6.9-16.4-16.2s6.8-16.2,16.4-16.2s16.4,6.8,16.4,16.2S705.1,232.2,695.3,232.2z
	 M695.3,203.4c-7.1,0-11.6,5.5-11.6,12.5s4.6,12.3,11.6,12.3c7.3,0,11.9-5.5,11.9-12.3S702.6,203.4,695.3,203.4L695.3,203.4z"/>
<path class="st0" d="M726.1,231.4h-4.6v-49.9h4.6V231.4z"/>
<path class="st0" d="M752.3,232.2c-9.6,0-16.4-6.9-16.4-16.2s6.8-16.2,16.4-16.2s16.4,6.8,16.4,16.2S762.1,232.2,752.3,232.2z
	 M752.3,203.4c-7.1,0-11.6,5.5-11.6,12.5s4.6,12.3,11.6,12.3c7.3,0,11.8-5.5,11.8-12.3S759.6,203.4,752.3,203.4L752.3,203.4z"/>
<path class="st0" d="M780.4,237.6c2.9,3.6,7.3,5.6,11.8,5.7c8.9,0,12.1-5.5,12.1-12.1v-5.9h-0.2c-2.3,3.9-7.3,6.2-11.6,6.2
	c-9.6,0-16-6.6-16-15.7c0-8.9,6.4-16,16-16c4.6,0,9.3,2.3,11.6,6.2h0.2v-5.2h4.6v30.5c0,6.9-3.2,16.2-16.9,16.2
	c-5.6,0-10.9-2.2-14.8-6.2L780.4,237.6z M792.9,227.6c6.8,0,11.9-4.8,11.9-12.1c0.1-6.6-5.2-12-11.9-12.1c-7.5,0-11.6,5.7-11.6,12.1
	C781.1,222.1,785.4,227.6,792.9,227.6L792.9,227.6z"/>
<path class="st0" d="M831,226.7L831,226.7l9.8-26h4.8l-15.3,39c-1.8,4.8-4.3,7.8-9.8,7.8c-1.4,0-2.7-0.2-4.1-0.5l0.4-4.1
	c1,0.3,2.1,0.4,3.2,0.5c3,0,4.6-2,5.9-5.5l2.5-6.4l-13.2-30.8h5L831,226.7z"/>
</svg>
