<?xml version="1.0" encoding="utf-8"?>
<!-- Generator: Adobe Illustrator 24.0.2, SVG Export Plug-In . SVG Version: 6.00 Build 0)  -->
<svg version="1.1" id="Laag_1" xmlns="http://www.w3.org/2000/svg" xmlns:xlink="http://www.w3.org/1999/xlink" x="0px" y="0px"
	 width="299.8px" height="133.3px" viewBox="0 0 299.8 133.3" style="enable-background:new 0 0 299.8 133.3;" xml:space="preserve"
	>
<style type="text/css">
	.st0{fill:#3CB9D7;}
	.st1{fill:#F59100;}
	.st2{fill:#636363;}
	.st3{fill:#4A4A4A;}
</style>
<g>
	<path class="st0" d="M144,29h-0.2c-0.7,1.6-3.6,7.6-10.8,7.6c-7.5,0-12.1-6.6-12.1-13.4c0-6.4,4.3-13.1,12-13.1
		c6.2,0,9.6,4.5,10.9,7.8h0.2c0.6-3.3,2.5-7.5,5.9-10.9c-3.8-3.9-9.4-7-16.9-7c-14.7,0-23.6,11.8-23.6,23.2
		c0,12.1,9.6,23.4,23.7,23.4c6.6,0,12.5-2.6,16.8-6.9C147.1,36.8,145,33.2,144,29z"/>
	<path class="st1" d="M166.8,0c-7.5,0-13.1,3-16.9,7c3.4,3.5,5.4,7.6,5.9,10.9h0.2c1.3-3.3,4.7-7.8,10.9-7.8c7.7,0,12,6.7,12,13.1
		c0,6.8-4.6,13.4-12.1,13.4c-7.2,0-10.1-6-10.8-7.6h-0.2c-1,4.2-3.1,7.9-5.9,10.7c4.3,4.4,10.2,6.9,16.8,6.9
		c14.1,0,23.7-11.2,23.7-23.4C190.3,11.8,181.5,0,166.8,0z"/>
	<path class="st2" d="M144,17.9h11.9c-0.6-3.3-2.5-7.5-5.9-10.9C146.5,10.5,144.5,14.6,144,17.9z"/>
	<path class="st2" d="M155.8,29h-11.9c1,4.2,3.1,7.9,5.9,10.7C152.7,36.8,154.8,33.2,155.8,29z"/>
</g>
<g>
	<path class="st3" d="M6.4,71.8c4.2-4,9.5-6.1,15.3-6.1S33,67.8,37,71.8c4.2,4.1,6.4,9.1,6.4,15c0,5.5-2.2,10.8-6.3,14.7
		c-4.2,4-9.5,6.1-15.4,6.1c-5.8,0-11.2-2.2-15.3-6.1c-4.2-4-6.4-9.3-6.4-15C0,81,2.3,75.7,6.4,71.8z M10.7,97.6
		c2.9,2.9,6.8,4.5,10.9,4.5c4.2,0,8-1.5,11-4.5c2.9-2.9,4.5-6.8,4.5-10.9c0-4.2-1.6-7.9-4.6-10.9c-2.9-3-6.8-4.6-10.9-4.6
		s-8,1.7-10.9,4.6c-2.9,2.9-4.5,6.8-4.5,10.9C6.2,90.8,7.8,94.6,10.7,97.6z"/>
	<path class="st3" d="M49.8,66.3h5.1l14.6,17l14.6-17.1h5.1v40.6h-5.7V75.2l-14,16.3l-14-16.3v31.7h-5.6L49.8,66.3L49.8,66.3z"/>
	<path class="st3" d="M97.8,66.3h5.1l26.7,31.5V66.3h5.8v40.6h-5.2l-26.6-31.6v31.6h-5.8V66.3z"/>
	<path class="st3" d="M155.2,86.6l-15.7-20.3h6.9l11.8,15.4l12.1-15.4h7L161,86.9v20h-5.9L155.2,86.6L155.2,86.6z"/>
	<path class="st3" d="M187.3,66.3h4.2l17.8,40.6h-6L198.1,95h-17.3l-5.2,11.9h-5.9L187.3,66.3z M195.8,89.7l-6.4-14.6l-6.2,14.6
		H195.8z"/>
	<path class="st3" d="M245.4,94c-0.7,1.3-1.6,2.5-2.6,3.5c-3,3-6.8,4.5-11,4.5c-4.1,0-8.1-1.6-10.9-4.5c-2.9-2.9-4.5-6.8-4.5-10.9
		c0-4.2,1.6-8.1,4.5-10.9c3-2.9,6.8-4.6,10.9-4.6c4.2,0,8,1.6,10.9,4.6c0.9,0.9,1.7,2,2.4,3h6.8c-1.1-2.5-2.6-4.9-4.8-6.9
		c-4-4-9.5-6.1-15.3-6.1c-5.8,0-11.1,2.1-15.3,6.1c-4,3.9-6.4,9.2-6.4,14.7c0,5.8,2.2,11,6.4,15c4,3.9,9.5,6.1,15.3,6.1
		c5.9,0,11.2-2.1,15.4-6.1c2.2-2.1,3.9-4.7,5-7.4L245.4,94L245.4,94z"/>
	<path class="st3" d="M293,94c-0.7,1.3-1.6,2.5-2.6,3.5c-3,3-6.8,4.5-11,4.5c-4.1,0-8.1-1.6-10.9-4.5c-2.9-2.9-4.5-6.8-4.5-10.9
		c0-4.2,1.6-8.1,4.5-10.9c3-2.9,6.8-4.6,10.9-4.6c4.2,0,8,1.6,10.9,4.6c0.9,0.9,1.7,2,2.4,3h6.8c-1.1-2.5-2.6-4.9-4.8-6.9
		c-4-4-9.5-6.1-15.3-6.1s-11.1,2.1-15.3,6.1c-4,3.9-6.4,9.2-6.4,14.7c0,5.8,2.2,11,6.4,15c4,3.9,9.5,6.1,15.3,6.1
		c5.9,0,11.2-2.1,15.4-6.1c2.2-2.1,3.9-4.7,5-7.4L293,94L293,94z"/>
</g>
<g>
	<path class="st3" d="M30.5,123.5h1l4.2,9.6h-1.4l-1.2-2.8H29l-1.2,2.8h-1.4L30.5,123.5z M32.5,129l-1.5-3.4l-1.5,3.4H32.5z"/>
	<path class="st3" d="M57.8,132.3c-1.1,0.6-2.3,0.9-3.4,0.9s-2.1-0.3-3-0.9c-1.4-0.9-2.3-2.4-2.3-4.1c0-1.3,0.5-2.5,1.5-3.5
		s2.3-1.4,3.8-1.4c1.3,0,2.4,0.4,3.3,0.8v1.5c-1.2-0.6-2.2-1-3.3-1c-2.3,0-3.9,1.6-3.9,3.7c0,2,1.6,3.6,3.8,3.6
		c1.1,0,2.3-0.4,3.4-1.1L57.8,132.3L57.8,132.3z"/>
	<path class="st3" d="M46.3,132.3c-1.1,0.6-2.3,0.9-3.4,0.9s-2.1-0.3-3-0.9c-1.4-0.9-2.3-2.4-2.3-4.1c0-1.3,0.5-2.5,1.5-3.5
		s2.3-1.4,3.8-1.4c1.3,0,2.4,0.4,3.3,0.8v1.5c-1.2-0.6-2.2-1-3.3-1c-2.3,0-3.9,1.6-3.9,3.7c0,2,1.6,3.6,3.8,3.6
		c1.1,0,2.3-0.4,3.4-1.1L46.3,132.3L46.3,132.3z"/>
	<path class="st3" d="M62.8,124.8c1-0.9,2.2-1.4,3.6-1.4s2.7,0.5,3.6,1.4c1,1,1.5,2.2,1.5,3.5s-0.5,2.5-1.5,3.5s-2.2,1.4-3.6,1.4
		s-2.6-0.5-3.6-1.4c-1-1-1.5-2.2-1.5-3.5C61.3,126.9,61.8,125.7,62.8,124.8z M63.8,130.8c0.7,0.7,1.6,1.1,2.6,1.1s1.9-0.4,2.6-1.1
		c0.7-0.7,1.1-1.6,1.1-2.6s-0.4-1.9-1.1-2.6c-0.7-0.7-1.6-1.1-2.6-1.1s-1.9,0.4-2.6,1.1c-0.7,0.7-1.1,1.6-1.1,2.6
		C62.7,129.2,63.1,130.2,63.8,130.8z"/>
	<path class="st3" d="M77.1,123.5v5.5c0,0.9,0,1.5,0.4,2c0.6,0.7,1.3,1,2.3,1c1.7,0,2.8-1,2.8-2.3v-6.1H84v6.1
		c0,2.1-1.7,3.6-4.1,3.6c-1.5,0-2.6-0.5-3.4-1.5c-0.6-0.8-0.7-1.6-0.7-2.7v-5.5h1.3V123.5z"/>
	<path class="st3" d="M88.8,123.5H90l6.3,7.4v-7.4h1.4v9.6h-1.2l-6.3-7.4v7.4h-1.4V123.5z"/>
	<path class="st3" d="M105.1,124.7h-3.5v-1.2h8.4v1.2h-3.5v8.3h-1.4V124.7z"/>
	<path class="st3" d="M115.6,123.5h1l4.2,9.6h-1.4l-1.2-2.8h-4.1l-1.2,2.8h-1.4L115.6,123.5z M117.6,129l-1.5-3.4l-1.5,3.4H117.6z"
		/>
	<path class="st3" d="M124.4,123.5h1.2l6.3,7.4v-7.4h1.4v9.6h-1.2l-6.3-7.4v7.4h-1.4V123.5z"/>
	<path class="st3" d="M140.6,124.7h-3.5v-1.2h8.4v1.2H142v8.3h-1.4V124.7z"/>
	<path class="st3" d="M148.9,130.5c0.8,0.9,1.6,1.4,2.5,1.4c1,0,1.5-0.5,1.5-1.2c0-0.8-0.6-1.2-1.6-1.8c-1.6-1-2.5-1.6-2.5-3
		c0-1.5,1.1-2.5,2.8-2.5c0.7,0,1.5,0.2,2.2,0.7v1.6c-0.8-0.6-1.5-1-2.2-1c-0.9,0-1.5,0.5-1.5,1.1c0,0.8,0.7,1.2,1.9,1.9
		c1.4,0.9,2.2,1.5,2.2,3.1c0,1.4-1.1,2.5-2.8,2.5c-1,0-1.8-0.3-2.6-0.9v-1.9H148.9z"/>
	<path class="st3" d="M171.2,133l-1.1-1.4c-0.9,1-1.9,1.5-3.1,1.5c-1.6,0-2.6-1-2.6-2.4c0-1.2,0.8-2,2.4-2.9
		c-0.8-0.8-1.1-1.5-1.1-2.3c0-1.3,1-2.3,2.5-2.3s2.5,0.9,2.5,2.1c0,1.1-0.6,1.9-1.8,2.6l1.4,1.6c0.4-0.4,0.7-1,1-1.6h1.4
		c-0.3,1-0.9,1.8-1.6,2.6l1.9,2.3h-1.8V133z M167.6,128.8c-1.2,0.7-1.8,1.3-1.8,1.9c0,0.7,0.5,1.1,1.3,1.1c0.6,0,1.3-0.4,2.1-1.1
		L167.6,128.8z M169.4,125.5c0-0.6-0.5-1.1-1.2-1.1s-1.2,0.5-1.2,1c0,0.4,0.3,1.1,1,1.8C168.9,126.6,169.4,126.1,169.4,125.5z"/>
	<path class="st3" d="M186.1,123.5h1l4.2,9.6h-1.4l-1.2-2.8h-4.1l-1.2,2.8H182L186.1,123.5z M188.1,129l-1.5-3.4l-1.5,3.4H188.1z"/>
	<path class="st3" d="M201.5,124.3c1.3,0.9,2,2.3,2,4s-0.7,3.1-2,4c-0.9,0.6-1.9,0.8-3.2,0.8h-3.5v-9.6h3.5
		C199.6,123.5,200.6,123.7,201.5,124.3z M196.1,124.8v7h2.2c2.4,0,3.8-1.4,3.8-3.5s-1.4-3.5-3.8-3.5H196.1z"/>
	<path class="st3" d="M206.4,123.5h1.4l3,6.8l3-6.8h1.4l-4.3,9.6h-0.3L206.4,123.5z"/>
	<path class="st3" d="M218.8,123.5h1.4v9.6h-1.4V123.5z"/>
	<path class="st3" d="M224.6,130.5c0.8,0.9,1.6,1.4,2.5,1.4c1,0,1.5-0.5,1.5-1.2c0-0.8-0.6-1.2-1.6-1.8c-1.6-1-2.5-1.6-2.5-3
		c0-1.5,1.1-2.5,2.8-2.5c0.7,0,1.5,0.2,2.2,0.7v1.6c-0.8-0.6-1.5-1-2.2-1c-0.9,0-1.5,0.5-1.5,1.1c0,0.8,0.7,1.2,1.9,1.9
		c1.4,0.9,2.2,1.5,2.2,3.1c0,1.4-1.1,2.5-2.8,2.5c-1,0-1.8-0.3-2.6-0.9v-1.9H224.6z"/>
	<path class="st3" d="M234.4,123.5h5.8v1.2h-4.4v2.9h4.3v1.2h-4.3v3h4.5v1.2h-5.9V123.5z"/>
	<path class="st3" d="M246.1,123.5v5.5c0,0.9,0,1.5,0.4,2c0.6,0.7,1.3,1,2.3,1c1.7,0,2.8-1,2.8-2.3v-6.1h1.4v6.1
		c0,2.1-1.7,3.6-4.1,3.6c-1.5,0-2.6-0.5-3.4-1.5c-0.6-0.8-0.7-1.6-0.7-2.7v-5.5h1.3V123.5z"/>
	<path class="st3" d="M257.7,123.5h2.8c2,0,3,1,3,2.6c0,1.2-0.5,2-1.8,2.4c0.4,0.2,0.7,0.6,1,1.1l2.3,3.5h-1.7l-1.6-2.5
		c-0.7-1.1-1.2-1.8-2.3-1.8H259v4.3h-1.4v-9.6H257.7z M260.2,127.6c1.3,0,1.9-0.5,1.9-1.5c0-1.1-0.6-1.5-1.9-1.5h-1.1v3H260.2z"/>
	<path class="st3" d="M268,130.5c0.8,0.9,1.6,1.4,2.5,1.4c1,0,1.5-0.5,1.5-1.2c0-0.8-0.6-1.2-1.6-1.8c-1.6-1-2.5-1.6-2.5-3
		c0-1.5,1.1-2.5,2.8-2.5c0.7,0,1.5,0.2,2.2,0.7v1.6c-0.8-0.6-1.5-1-2.2-1c-0.9,0-1.5,0.5-1.5,1.1c0,0.8,0.7,1.2,1.9,1.9
		c1.4,0.9,2.2,1.5,2.2,3.1c0,1.4-1.1,2.5-2.8,2.5c-1,0-1.8-0.3-2.6-0.9v-1.9H268z"/>
</g>
</svg>
