<?xml version="1.0" encoding="utf-8"?>
<!-- Generator: Adobe Illustrator 25.0.0, SVG Export Plug-In . SVG Version: 6.00 Build 0)  -->
<svg version="1.1" id="Layer_1" xmlns="http://www.w3.org/2000/svg" xmlns:xlink="http://www.w3.org/1999/xlink" x="0px" y="0px"
	 viewBox="0 0 2500 2500" style="enable-background:new 0 0 2500 2500;" xml:space="preserve">
<style type="text/css">
	.st0{fill-rule:evenodd;clip-rule:evenodd;}
	.st1{fill-rule:evenodd;clip-rule:evenodd;fill:#E3AA39;}
	.st2{fill-rule:evenodd;clip-rule:evenodd;fill:#E3AA39;stroke:#3067AD;stroke-width:0.2594;stroke-miterlimit:33.89;}
	.st3{fill-rule:evenodd;clip-rule:evenodd;fill:#3067AD;}
	.st4{fill-rule:evenodd;clip-rule:evenodd;fill:#3067AD;stroke:#3067AD;stroke-width:0.2594;stroke-miterlimit:33.89;}
</style>
<g>
	<path class="st0" d="M1654,1295.1c-6.7,47.6-28.2,72.2-57.5,72.2c-18.7,0-29.4-13-26.2-33.3l10.3-64.3c4-23.8,18.3-42.5,43.6-42.5
		C1652.5,1227.2,1660.8,1246.2,1654,1295.1z M1557.2,1389.5c4,0,13.5,16.6,44.4,16.6c65.9,0,103.6-47.6,113.9-109.1
		c13.1-75.9-23.8-110.4-70.2-110.4c-21.8,0-36.5,2-48.4,8.4l17.9-104.8l-56.4,0.8l-54.4,312l41.3-1.2c0,0,6-12.3,12.3-12.3
		L1557.2,1389.5L1557.2,1389.5z M2127.1,1256.6c8.3-47.2-9.1-70.3-60.3-70.3c-38.1,0-52,15.1-66.3,29.4l2-25l-52,0.8l-5.2,38.9
		l-29.4,172.7l56.4-1.2l17.9-111.1c6.3-38.5,33-67.9,57.9-67.9c27.8,0,26.2,15.9,21.9,40.1l-24.2,140.2l56.3-1.2L2127.1,1256.6
		L2127.1,1256.6z M2352.9,1187.1l-59.1-0.8l-80.2,81.7h-1.2l30.1-177.4l-54,0.4l-54.4,312l54.8-1.2l5.6-30.5l11.1-68.3
		c29,0,45.3,3.2,58,60.7l8.7,39.3l56-0.8c0,0-13.9-58.8-23-81.8c-9.5-24.2-21.8-38.5-44-42.9L2352.9,1187.1L2352.9,1187.1z
		 M797.2,1264.1c40.1-8.7,59.1-42.1,64.7-63.1c14.3-57.9-11.5-103.2-85.3-102.4l-85,1.6l-52.8,302.4l56.7-0.4l21.8-121.9
		c11.5,0,16.3-0.4,21.8,0.4c5.9,0.4,14.3,1.6,19.5,5.9c9.1,8.7,17.1,27.4,23,63.9l8.8,52l57.9-0.4c-6.8-31.4-11.1-60.7-16.7-84.6
		c-6-25-14.3-42.5-34.9-53.6L797.2,1264.1L797.2,1264.1L797.2,1264.1z M804.7,1192.6c-4.8,27-23.8,44.1-49.6,44.1h-32.6l16.7-94.9
		l29.8-1.2C798.4,1139.9,809.1,1165.7,804.7,1192.6L804.7,1192.6z M1056,1248.2c7.9-46.1-16.7-61.9-66.3-61.9
		c-55.2,0-88.9,29.4-88.9,29.4l19.1,32.1c0,0,25.8-23.4,65.8-23.4c13.1,0,16.7,8.7,14.7,23.4l-4.4,27.4
		c-79.8-2-120.7,15.1-129.8,67.5c-7.5,42.9,25,61.9,61.1,61.9c18.7,0,33.4-1.2,51.6-17c3.6,10.3,9.5,15,16.7,16.3
		c11.5,2.4,31.7,0.4,37.7-4c-0.4-6.4,0-22.7,6.8-60.8L1056,1248.2L1056,1248.2z M990.4,1304.2l-5.6,31c-3.1,21-20.8,36.8-42.1,37.3
		c-20.6,0-28.9-11.9-25.4-28.2c4.7-27,19.8-34.1,32.9-37.7C957.1,1304.6,978.9,1304.2,990.4,1304.2L990.4,1304.2z M1161.1,1406.2
		c65.9,0,103.6-47.6,113.9-109.1c13.1-75.9-23.9-110.4-70.3-110.4c-21.8,0-36.5,2-48.8,8.4l17.9-104.8l-56,0.8l-54.4,312l41.3-1.2
		c0,0,5.9-12.3,11.9-12.3C1120.6,1389.5,1130.2,1406.2,1161.1,1406.2L1161.1,1406.2z M1184.1,1227.2c28.2,0,36.5,19,29.8,67.9
		c-6.7,47.6-28.2,72.2-57.9,72.2c-18.6,0-29.4-13-25.8-33.3l10.3-64.3c4-23.8,18.3-42.5,43.2-42.5H1184.1L1184.1,1227.2z
		 M1370.7,1407.3c-52.4-2.8-83.4-41.7-79.4-92.4c4.8-72.6,46.8-133.8,130.6-129.4c66.3,3.5,83,46.8,80.6,94.4
		c-4,75-48,132.2-131.4,127.8L1370.7,1407.3z M1377.8,1368.5c42.5,2.4,61.5-47.7,64.3-90.1c1.6-22.2,5.6-52-26.7-53.2
		c-41.6-2.4-63,50.8-65.8,91.3c-2,29.4,5.5,51.2,27.7,52.4L1377.8,1368.5z M1909.2,1247.5c7.9-46.1-16.7-61.9-65.9-61.9
		c-55.1,0-88.9,29.4-88.9,29.4l19,32.2c0,0,25.9-23.4,65.9-23.4c13.1,0,16.7,8.7,14.3,23.4l-4.4,27.3c-79.8-2-120.7,15.1-129.8,67.5
		c-7.5,42.8,25,61.9,61.1,61.9c18.7,0,33.3-1.2,51.6-17c3.6,10.3,9.5,15.1,16.7,16.3c11.5,2.3,31.8,0.3,37.7-4
		c-0.4-6.4,0-22.6,6.7-60.7L1909.2,1247.5L1909.2,1247.5z M1804.1,1305.8c6.7-2,28.6-2.4,39.7-2.4l-5.6,31
		c-4,25.4-25.8,37.3-41.7,37.3c-20.6,0-29-11.9-25.8-28.2c4.8-27,19.8-34.1,32.9-37.7L1804.1,1305.8L1804.1,1305.8z M147.1,1349.1
		c0-52.1,68.2-94.5,153.1-95.5c0,0-0.3-4.1-0.5-6.4c-0.2-2.3-2-5.1-2-9.8c0-4.6,3.9-25.1,3.9-25.1s-3.1-3.1-4.9-9.5
		c-1.8-6.4-2.3-11.3-2.3-11.3s-3.1-14.7-3.1-19.8c0-2.4,0.9-10.8,0.8-18.8c-0.2-10.2-1.4-17.7-1.4-17.7
		c-4.8,11.7-9.2,17.1-12.5,21.2c-1.9,3.5-3,7.8-4,11.4c-1.1,3.6-7.3,13.9-7.3,18.6c0,5.8,3.4,10.5,3.4,12.3c0,1.8-1.5,3.6-1.5,3.6
		c0.9,3,1.6,4.9-2.9,4.9c-3.2,0-5.1-3.3-5.1-9c0-3.1,0.5-5.9,0.8-8.4c0.2-2.2,0.1-4.1,0.8-6.4c3-10.6,4-18.1,5.9-29.6
		c1-6.3,4.7-9,6.4-15.1c2.8-9.8,7.4-33.9,9.2-37c2.1-3.4,7-5,12.1-7.7c4.8-2.6,8.3-4.5,8.3-9.7c0-3.8-3.1-3.6-4.7-5.5
		c-1.4-1.6-1-12.3-1-17.2c0-4.9-1.1-5.4-1.1-9.8c0-4.4,1.9-13,11.1-13c3.9,0,5.2,3.7,6.9,7.4c1.8,4,3.3,6,3.3,13.5
		c0,4.6-6.7,9.2-6.7,18.4c0,2.6,2.4,8.1,15.7,8.1c5.5,0,8.6,6.7,9.1,9.2c0.5,2.6,0.1,5.4,0.6,8.9c0.5,3.5,2.9,6.2,3.8,9.3
		c0.9,3.1,2.8,14.7,3.3,16.9c0.5,2.2,4.3,11.8,5.1,16.3c0.8,4.5,2.2,20.6,3.5,27.6c1.3,7,2,6.7,2.4,9.9c0.6,4.2,2.3,4,2.3,7
		c0,2.9-4.9,11.8-8.2,11.8c-2.7,0-3.7-8.1-3.7-10.6c0-6.4,2.2-8.2,2.2-17.1c0-6.7-1.9-8.5-5.4-16.3c-3.6-7.8-5.4-10.9-5.9-13.3
		c-0.5-2.5-4.3-7.5-5.1-10.8c-1.4-5.1-3.5-11.3-3.5-11.3s-4.6,12.1-5.4,19.8c-0.1,1.3-2.7,6.1-2.4,10.1c0.2,3.4,3.5,3.8,5.7,9.5
		c2.3,5.8,1.7,8,1.7,16.9c0,8.8-5.6,20.8-5.6,20.8c2.6,3.1,6.3,17.8,9.6,23.4c1.9,3.2,8,6.3,13.9,11.3c8.4,7.2,9,17,14.2,24.9
		c58.5,13.8,99.9,48.4,99.9,89c0,66.1-70.6,112.3-156.4,112.3C217.4,1461.4,147.1,1421.6,147.1,1349.1L147.1,1349.1z M315,1253.8
		c7.7,0.4,15.3,1.1,22.7,2.1c0,0-3.4-5.1-6.4-7.8c-2.9-2.6-7.8-5.1-10.7-7.7c-2.9-2.6-3.7-6.7-6.2-8c-0.9,2.2-1.3,4.5-1.5,6.8
		C313,1241.3,315,1253.8,315,1253.8L315,1253.8z"/>
	<path class="st1" d="M313.5,1335.6c3.5,0.9,9.2,2.5,9.2,2.5l-6.7,1l-14.6,50.6l-14.7-50.5l-71.6-8.6l71.6-8.5l12.2-32
		c0,0,0.2,5.6-0.6,9.4c-0.9,3.9-0.9,5.9-2.2,8.5c-0.9,3.1-2.3,7.8-2.3,7.8s-6.2,6.4-8.1,7.4c-1.9,1-6.7,0.3-6.7,2.8
		c0,0.3,0.1,0.9,0.1,0.9l-17.8,0.1v0.9l18.1-0.3c1.6,2.5,7.7,2.3,7.7,2.3l0.5,1.3c0,0-1.7,2.8-1.7,4.1c0,1.3,1.2,1.9,2.2,1.9
		c1,0,3.9-0.7,3.9-0.7C297.9,1341.2,309.1,1339.8,313.5,1335.6L313.5,1335.6z M315,1272c14.9,0.9,28.9,3.8,41.3,8
		c0,0,1.4,4.3,1.6,6.1c1.4,2.9,1.7,7.6,1.7,7.6l-46,18.8l-5.5-15.8c0,0,2.1-8.9,4-14C314,1277.7,315,1272,315,1272L315,1272z"/>
	<path class="st1" d="M355.7,1278.7c-13.2-4.2-26.8-6.8-40.6-7.7c0,0,1.6-5.6,0.2-14.9c8.5,0.4,16.7,1.2,24.7,2.5
		C341.7,1260.8,352.4,1269.8,355.7,1278.7L355.7,1278.7z M369.7,1285.4c26.5,12.2,43.5,31.4,43.5,52.3c0,3-0.4,6.1-1.2,9.1
		c-3-0.8-10.5-4.7-11.5-8.7c-1-4-0.5-4.2-0.6-4.9c-0.7-3.4-1.8-6.8-3-10c-2.4-6-11.5-11.8-12.1-14.3c-0.6-2.5-0.1-5-0.1-6.7
		c0-1.7-1.9-3.3-4.9-3.3s-4.6,1.4-7.2,1.4c-2.6,0-4.6-0.9-4.6-0.9c1.3-3,0.2-3.5,0.2-8.1C368.3,1287.4,369.7,1285.4,369.7,1285.4
		L369.7,1285.4z"/>
	<path class="st1" d="M453.2,1341.3c0.5,4.9,0.3,9.8-0.5,14.6l-19.6-4.7l-18.7-3.8c0.7-2.9,1.1-5.8,1.1-8.8
		c0-21.8-17.9-41.8-45.5-54.4c0.5-1.4,4-4.6,4-8c0-2.2-5.1-3.8-8.1-6.7c-2-1.9-4.3-6.5-4.3-6.5c46.7,12.2,81.3,38.4,89.8,68.9
		c0,0-9.4-3.1-13.3-3.1c-1.5-2.9-2.4-5.4-2.4-5.4l-0.6,1.5c-5.8,0.3-14.1,0.1-14.1,0.1l-1.4-1.3l1.4,3.8l0.6-1.2l13.9,0l1.5,1.1
		l-0.3,1.2c-1.2-0.1-2.4,0.1-3.6,0.4h-10.5l-1.3-1l0.8,3.5l0.7-1.2l7.2,0.2c-1.2,0.9,0,2.6,0,2.6l-6.7,0.1l-1.1-1.1l0.6,3.5l0.8-1.2
		l7.5,0.2C436.4,1340.6,453.2,1341.3,453.2,1341.3L453.2,1341.3z M357.1,1334.5l18.9-2.8c0.1,2.8,1,5.2,0.1,9.3
		C365.3,1339.6,357.1,1334.5,357.1,1334.5z"/>
	<path class="st2" d="M306.7,1316.7c0,0-0.7-3.9-0.7-8.1c0-4.2,1.6-9.5,1.6-9.5l8.2,23l60.2,6.1l0,2.6l-20.4,2.9
		c0,0-5.2-3.4-15.1-4.4l29.9,0.4l0.5-1.2l-51.3-0.1l-3-0.6c0,0-1.1-5.9-9.4-7.9L306.7,1316.7z"/>
	<path class="st2" d="M314.1,1313.5l44.9-18.4l-28.8,27.2l-5.9-0.6l15.6-10l-0.4-0.6l-17.2,10.5l-4.8-0.5l34.4-21.3l-0.4-0.7
		l-35.1,21.1L314.1,1313.5L314.1,1313.5z"/>
	<path class="st1" d="M307.4,1321.4c5.1,1.8,6,5,6,5l-5.8-3L307.4,1321.4L307.4,1321.4z M331.8,1322.6l27.8-26.7
		c0.3,0.9,0.6,1.6,0.3,2.5c-0.6,1.6-4.8,3.2-4.8,5.7c0,1.2,1,1.4,2,1.4c1,0,2.4-1.1,3.5-0.8c2.2,0.6,6.6,1.9,8.5,4.7
		c3.3,4.9,5.9,12.3,6.7,17.7C368.3,1326.6,331.8,1322.6,331.8,1322.6L331.8,1322.6z M379.7,1387.2c7.9-4.6,14.8-9.9,20.4-15.6
		c3.4,1.5,7.3,5.6,16.9,10.3c6.9,3.3,16.4,5.9,19,7.2c-1.9,2.3-4,4.4-6.3,6.5C421.5,1393,392.6,1395.8,379.7,1387.2L379.7,1387.2z"
		/>
	<path class="st2" d="M299,1287l-9.5,25.1l-47.3-18.3l-0.8,0.7l29.7,28.4l-59.8,7.3v1.2l58.7,7l-38.4,34.7l0.8,0.8l56.1-23.9
		l12.2,42.9l1.4-0.1l12.1-43.3l56.3,24.2l0.9-1.1l-34.6-31c0,0,17.5,4.1,21.6,6.3c4.1,2.2,13.1,8.3,18.2,10.5c5.2,2.2,6.2,1.4,7.8,2
		c1.5,0.6,13.5,9.4,13.5,9.4c-6.4,6.3-13.6,11.6-21.4,15.9c0,0-5.9-3.5-11.2-0.5c-4.5,2.6-1.4,6.6-1.4,6.6
		c-17.7,7.4-38.8,11.8-60.9,11.8c-60.9,0-110.3-26.4-110.3-66c0-35.7,47.4-64.8,106.6-66C298.3,1278.8,299,1287,299,1287L299,1287z"
		/>
	<path class="st1" d="M295.1,1335.4c5.5-2.8,14.9-0.5,14.9-0.5c-2.2,1.6-4.8,2.4-7.4,2.3C299.5,1337.2,297.7,1336.9,295.1,1335.4z"
		/>
	<path class="st3" d="M231.8,1330.3l51.1,1v0.9l-51.3-0.8L231.8,1330.3L231.8,1330.3z"/>
	<path class="st2" d="M271.8,1338.5l6.2,0.7l-18,11.6l1.3,0.4l18.6-11.7l4.3,0.3l-42.9,27.1l0.5,0.5l44.2-26.9l2.1,8.1l-53.3,23
		L271.8,1338.5L271.8,1338.5z M272.8,1322.7l-28.9-27.3l45.1,17.7l-1.4,3.7l-15.9-9.6l-0.9,0.3l16.4,10.4l-1,2.4l-36.1-21.5
		l-0.8,0.2l35.7,22L272.8,1322.7L272.8,1322.7z"/>
	<path class="st4" d="M295.8,1341l1,0.1l-0.6,22.2l-0.9-0.2L295.8,1341L295.8,1341z M301,1341.6l1.2,0.1l-0.1,41.2l-1.3-0.5
		L301,1341.6z"/>
	<path class="st2" d="M314.6,1348.5l1.2-3.9l19,10.9l0.4-0.9l-19-11.1l0.9-3.1l42.8,26.1l1.2-0.2l-42.9-26.7l6.7-1.2l9,2l34.1,30.1
		L314.6,1348.5z"/>
	<path class="st1" d="M299.4,1270.6c-60.5,1.2-108.9,31.2-108.9,68.1c0,40.7,50.4,68,112.6,68c23,0,45-4.8,63.3-12.7
		c3.7,3.3,13,4.8,15.8,5.4c2.8,0.5,11.6,3.7,11.6,3.7l4.2,0.5c3.2,0.9,9.5,4.4,14.3,5.5c-27.3,17.4-66,28.3-108.8,28.3
		c-82.9,0-150.1-36.5-150.1-90.8c0-49.5,65.5-89.8,147-90.8v4.7l-3.2,3.1l-2.8-2.8l-3.5,0.2l2,0.9l3.1,2.6l-3,2.8l-1.6,0.8h3.6
		l-1-0.7l2.7-2.4l3.2,2.8L299.4,1270.6L299.4,1270.6z"/>
	<path class="st3" d="M370.6,1399.7l16,8.6l2.8-0.3l-6.8,3.1l0.6-2l-10-5.7c0.4,3.6,2.8,9.1,2.8,9.1l2.2,0.4l-5,2l1.3-1.9
		L370.6,1399.7L370.6,1399.7z M395,1293.4l2.2,0.5l9.1-3.2l0.2-1.3l3.3,2.3l-2-0.2l-9.9,3.4l-0.1,1.1L395,1293.4z M398.9,1296.8
		l2.2,0.5l9.1-3.2l0.4-1.7l3.2,2.7l-2.3-0.3l-9.6,3.4l-0.1,1.2L398.9,1296.8L398.9,1296.8z"/>
	<path class="st1" d="M297.8,1264l2.5-2.3l-0.4,4.4L297.8,1264L297.8,1264z"/>
	<path class="st3" d="M248.8,1268l3.1-1.2l-0.1,0.9l4.8,4.9l1.4,0.3l-3.8,1.2l0.6-0.8l-4.5-4.9L248.8,1268z M252.4,1274.4l-4.1,1.4
		l0.4-1l-3.7-1l-1.2,2.9h1.3l-3.3,1.4l1.3-1.4l1-3.1l-5.6-1.8h-2.1l3.7-1.3v0.6l4.2,1.3l0.9-2.8l-1.6-0.1l2.8-1l-1.2,4l5,1.9
		L252.4,1274.4L252.4,1274.4z M196.4,1292.4l2.7-1.9l-0.4,1.5l2.2,3.2l7.3-0.2l2.7-0.6l-3.2,3.1v-1.2l-5.9,0.2l1.6,2.8l1.9-0.2
		l-2.4,2.3v-1.7l-1.9-3.3l-7.2,0.2l-3.2,0.9l3.3-3.1l0.6,1.3l5.4-0.3l-1.9-2.8H196.4L196.4,1292.4z M168.7,1328.4l1-3.5l1.2,1.9l5,2
		l7.5-2.4l1.6-1.8l-0.8,3.6l-0.9-0.6l-5.4,2.1l4.5,2l1.4-1l-1.2,7.3l-1-1.2l-13.9,0.1l-1.5,1.6l1.8-8.1l1.3,0.8c1.8-0.2,5.3-2,5.3-2
		l-4.2-1.9L168.7,1328.4L168.7,1328.4z"/>
	<path class="st1" d="M167.5,1334.3l1.9-1.8l6.7-2.3l6,2.3l0.6,1.7l-1.2,1.1H168L167.5,1334.3L167.5,1334.3z"/>
	<path class="st3" d="M169.3,1364.8l2.8,0.5l12.3-4.5l1.2-2.2l1.8,4l-1.7-0.6l-13.6,4.5l-1,2.2
		C170.4,1367.4,169.8,1366.2,169.3,1364.8L169.3,1364.8z M171.4,1369.6l2.9,0.4l12.2-4.9l1.1-2.2l1.9,3.9l-1.7-0.6l-13.4,5l-0.9,2
		C172.5,1371.8,171.4,1369.6,171.4,1369.6L171.4,1369.6z M173.8,1374l2.4,0.1l13.1-5.4l0.3-1.8l2.1,3.6l-1.7-0.6l-13.3,5.5l-0.7,1.6
		L173.8,1374L173.8,1374z M176.3,1377.6l2.5,0.2l17.4-2l-12.5,9.2l0.1,1.6l-3-3.2l1.9,0.2l8.8-6.6l-13.2,1.7v1.1L176.3,1377.6
		L176.3,1377.6z M221.9,1395.3l4.3,2.2l-1.9,0.1l-9.1,10l1.2,1.8l2.3,0.2l9.5-9.8l-0.6-1.7l5,2l-2,0.3l-9.1,10l1.9,1.8l2.1,0.2
		l16.1-9l-4.3,12.8l1.3,1.7l-6.3-2.2l2.3-0.3l4-9.8l-12.4,7.1l1.4,1.4c-5.9-1.8-11.5-4.3-16.8-7.4l2.4-0.4l9.6-9.4L221.9,1395.3
		L221.9,1395.3z M289.3,1412.5l6.8,0.1l-1.9,0.8l-0.1,11.8l2.4,0.9l2.2-0.4l7.2-13.4h0.8l7.1,12.8l1.8,0.8l-7.6,0.3l2.3-1.3l-5-8.9
		l-5,9.6l2,0.6c-6.2,0.5-13.9,0.1-13.9,0.1l2.7-0.9v-12.2L289.3,1412.5L289.3,1412.5z"/>
	<path class="st1" d="M290.7,1254.4l4.4-0.2l0.3,1.2l-4.2,0.2L290.7,1254.4z M284.8,1254.7l4.4-0.2l0.5,1.1l-4.2,0.4L284.8,1254.7z
		 M278.9,1255.3l4.4-0.4l0.8,1l-4.7,0.5L278.9,1255.3L278.9,1255.3z M273,1255.9l4.4-0.5l0.6,1.1l-4.2,0.5L273,1255.9z
		 M266.9,1256.7l4.9-0.6l0.6,1.1l-4.7,0.6L266.9,1256.7z M296.5,1254.2l3.7-0.1l0.1,1.2l-3.6,0.1L296.5,1254.2z M261.1,1257.7
		l4.7-0.8l0.5,1l-4.4,0.7L261.1,1257.7L261.1,1257.7z M255.5,1258.8l4.4-0.8l0.7,1l-4.5,0.9L255.5,1258.8z M249.6,1260l4.6-1
		l0.5,1.1l-4.4,0.9L249.6,1260z M243.9,1261.4l4.4-1.2l0.8,1l-4.4,1.1L243.9,1261.4L243.9,1261.4z M238.4,1262.8l4.3-1.1l0.9,1
		l-4.4,1.2L238.4,1262.8L238.4,1262.8z M232,1264.8l4.6-1.5l1,1l-4.4,1.5L232,1264.8L232,1264.8z M225.9,1266.8l4.7-1.6l1.1,1
		l-4.7,1.6L225.9,1266.8z M219.7,1269.2l4.7-1.9l0.9,1l-4.7,1.8L219.7,1269.2z M214.4,1271.4l4-1.8l0.8,1.1l-3.8,1.6L214.4,1271.4z
		 M208.5,1274.1l4.4-2l1,1l-4.2,1.9L208.5,1274.1L208.5,1274.1z M203.1,1276.8l4-2.2l1.2,1l-4,2.1L203.1,1276.8z M197.9,1279.6
		l3.8-2.1l1.3,0.8l-3.7,2.1L197.9,1279.6z M192.4,1282.7l3.9-2.3l1.7,0.8l-4.1,2.5L192.4,1282.7L192.4,1282.7z M187.6,1286.1
		l3.7-2.7l1.5,0.9l-3.7,2.4L187.6,1286.1L187.6,1286.1z M182.9,1289.4l3.6-2.4l1.5,0.7l-3.4,2.6L182.9,1289.4z M178.3,1293.1
		l3.6-2.8l1.6,0.8l-3.5,2.9L178.3,1293.1z M174,1296.8l3.3-2.8l1.7,0.7l-2.9,2.7L174,1296.8z M170,1300.8l3.1-3.2l1.7,0.6l-2.9,3.2
		L170,1300.8z M166.2,1304.9l3.1-3.3l1.9,0.7l-3,3.1L166.2,1304.9L166.2,1304.9z M162.7,1309.1l2.8-3.2l2.2,0.5l-2.4,3.2
		L162.7,1309.1z M159.9,1313.2l2.2-3.1l2.4,0.4l-2.1,3.1L159.9,1313.2z M156.9,1317.8l2.3-3.5l2.5,0.3l-2,3.4L156.9,1317.8z
		 M154.4,1322.3l2-3.4l2.7,0.2l-1.6,3.4L154.4,1322.3z M152.4,1327.2l1.7-3.7l2.8,0.2l-1.3,3.6H152.4z M150.9,1331.7l1.2-3.3l3.2,0
		l-1.1,3.4L150.9,1331.7z M149.6,1336.8l1-3.8l3.2,0.1l-0.9,3.8L149.6,1336.8z M148.9,1341.6l0.6-3.6l3-0.1l-0.4,3.7H148.9
		L148.9,1341.6z M148.5,1346.5l0.3-3.7l3.3-0.1l-0.1,3.4L148.5,1346.5z M148.6,1351.7l-0.1-3.8l3.5-0.6l0.1,3.6L148.6,1351.7
		L148.6,1351.7z M148.6,1352.8l3.6-0.8l0.4,4.1l-3.6,0.8L148.6,1352.8L148.6,1352.8z M149.2,1358.1l3.4-0.9l0.9,3.7l-3.7,1
		L149.2,1358.1L149.2,1358.1z M150.2,1363.2l3.6-1.1l1.2,3.9l-3.6,1.1L150.2,1363.2z M151.7,1368.1l3.4-1l1.5,3.7l-3.5,1.4
		L151.7,1368.1L151.7,1368.1z M153.5,1373.3l3.3-1.3l2,3.8l-3.4,1.4L153.5,1373.3z M155.9,1378.3l3-1.3l2.3,3.5l-3.3,1.5
		L155.9,1378.3L155.9,1378.3z M158.6,1383.3l3.2-1.6l2.6,3.6l-3.3,1.9L158.6,1383.3z M161.8,1387.9l3-1.6l3.1,3.6l-3.3,2
		L161.8,1387.9z M165.6,1392.8l3.3-1.8l3.5,3.8l-3.3,2L165.6,1392.8z M170.1,1397.7l3.1-1.9l3.7,3.3l-3.2,2.2L170.1,1397.7z
		 M175,1402.3l2.9-2.1l4.1,3.3l-2.7,2.4L175,1402.3L175,1402.3z M180.2,1406.7l2.5-2.2l4.9,3.2l-2.7,2.3L180.2,1406.7z
		 M186.3,1411.1l2.2-2.3l4.9,2.9l-2.3,2.5L186.3,1411.1L186.3,1411.1z M192.5,1415.1l2.2-2.4l5.1,2.7l-2.3,2.7L192.5,1415.1
		L192.5,1415.1z M199.2,1418.9l1.8-2.4l5.8,2.8l-1.7,2.6L199.2,1418.9z M206.6,1422.4l1.6-2.5l5.9,2.5l-1.8,2.7L206.6,1422.4
		L206.6,1422.4z M213.9,1425.7l1.7-2.6l6,2.6l-1.8,2.6L213.9,1425.7z M222,1428.8l1.4-2.8l6.4,2.3l-1.6,2.9L222,1428.8L222,1428.8z
		 M230,1431.6l1.2-2.9l6.8,2l-1.5,3.1L230,1431.6L230,1431.6z M238.6,1434.1l1-3l7,1.5l-1.2,3.2L238.6,1434.1z M247.4,1436.3
		l0.9-3.2l7.4,1.4l-1.3,3.5L247.4,1436.3L247.4,1436.3z M256.6,1438.5l0.8-3.4l7.2,1.1l-1,3.5L256.6,1438.5L256.6,1438.5z
		 M265.7,1439.7l0.6-3.2l7.3,0.9l-0.6,3.5L265.7,1439.7z M275.5,1440.9l0.3-3.2l7.1,0.6l-0.3,3.3L275.5,1440.9z M285.2,1438.6
		l7.2,0.2l-0.1,3.3l-7.4-0.2L285.2,1438.6z M294.5,1442.2v-3.3l7.6,0.1v3.3L294.5,1442.2z M319.7,1255.9l-4.4-0.2l-0.2-1.1l5.1,0.1
		L319.7,1255.9L319.7,1255.9z M325.9,1256.4l-4.9-0.5l0.5-1.2l4.9,0.5L325.9,1256.4L325.9,1256.4z M331.7,1257l-4.7-0.5l0.6-1.1
		l4.9,0.5L331.7,1257z M339,1257.8l-5.8-0.8l0.6-1.1l4.2,0.5L339,1257.8L339,1257.8z M361.3,1262.3l-1-1.4l1.9,0.6L361.3,1262.3z
		 M367.1,1263.8l-4.4-1.2l0.9-1l4.2,1.2L367.1,1263.8L367.1,1263.8z M373.2,1265.7l-4.5-1.5l0.9-0.9l4.6,1.5L373.2,1265.7z
		 M379.4,1267.8l-4.8-1.5l1.1-1.1l4.7,1.6L379.4,1267.8z M385.7,1270.1l-4.7-1.9l0.9-1l4.8,1.9L385.7,1270.1z M391,1272.3l-3.8-1.6
		l0.8-1.1l4,1.9L391,1272.3L391,1272.3z M396.8,1274.9l-4.3-1.9l1-1l4.4,2.1L396.8,1274.9L396.8,1274.9z M402,1277.6l-3.9-2.2
		l1.2-0.9l4.1,2.2L402,1277.6L402,1277.6z M407.1,1280.3l-3.8-2.1l1.4-0.8l3.8,2.1L407.1,1280.3z M412.6,1283.6l-4.1-2.5l1.7-0.8
		l3.9,2.4L412.6,1283.6L412.6,1283.6z M417.4,1286.6l-3.7-2.4l1.5-0.9l3.7,2.6L417.4,1286.6L417.4,1286.6z M422,1290.1l-3.4-2.5
		l1.5-0.7l3.6,2.3L422,1290.1z M426.7,1293.8l-3.5-2.9l1.6-0.8l3.6,2.8L426.7,1293.8z M430.5,1297.3l-2.9-2.7l1.6-0.8l3.3,2.7
		L430.5,1297.3z M434.6,1301.2l-2.9-3.2l1.7-0.6l3.2,3.1L434.6,1301.2z M438.3,1305.2l-3-3.1l1.9-0.7l3.1,3.3L438.3,1305.2
		L438.3,1305.2z M441.4,1309.3l-2.5-3.1l2.2-0.5l2.9,3.2L441.4,1309.3z M444.2,1313.3l-2.2-3.1l2.5-0.5l2.2,3.1L444.2,1313.3
		L444.2,1313.3z M447.1,1317.8l-2-3.4l2.5-0.4l2.3,3.6L447.1,1317.8z M449.2,1322.2l-1.6-3.4l2.7-0.2l2,3.3L449.2,1322.2z
		 M451.2,1326.9l-1.3-3.6l2.9-0.1l1.7,3.7H451.2L451.2,1326.9z M453,1331.9l-1.4-3.8l3.2-0.1l1.5,4.7L453,1331.9L453,1331.9z
		 M454.8,1346.5l0.1-4.2l3,0.8l0.3,3.7L454.8,1346.5z M454.8,1351.3l0.1-3.5l3.3,0.4l-0.1,3.8L454.8,1351.3L454.8,1351.3z
		 M457.8,1357.2l-3.6-0.8l0.6-3.8l3.4,0.5L457.8,1357.2z M409,1417.4l-2.3-2.7l5.1-2.7l2.2,2.4L409,1417.4L409,1417.4z
		 M401.3,1421.2l-1.7-2.6l5.9-2.8l1.8,2.4L401.3,1421.2L401.3,1421.2z M394.1,1424.3l-1.8-2.6l6-2.5l1.6,2.5L394.1,1424.3z
		 M386.5,1427.5l-1.8-2.6l6-2.5l1.7,2.5L386.5,1427.5z M378.7,1430.7l-1.6-2.9l6.5-2.3l1.4,2.8L378.7,1430.7L378.7,1430.7z
		 M369.8,1433.4l-1.5-3l6.9-1.9l1.2,2.8L369.8,1433.4z M360.9,1436l-0.9-3.2l6.9-1.8l1,2.9L360.9,1436z M351.8,1438.3l-1.3-3.5
		l7.5-1.4l0.9,3.2L351.8,1438.3z M342.7,1439.9l-1-3.4l7.2-1.1l0.8,3.2L342.7,1439.9z M333.1,1441.1l-0.6-3.4l7.4-0.9l0.6,3.2
		L333.1,1441.1z M323.4,1441.8l-0.3-3.2l7.1-0.7l0.2,3.2L323.4,1441.8z M321.1,1442.1l-7.4,0.2l-0.1-3.2l7.3-0.2L321.1,1442.1z
		 M303.8,1442.6v-3.3l7.6-0.2v3.3L303.8,1442.6z M415.4,1413.5l-2.5-2.3l1.8-1.3l2.8,1.8L415.4,1413.5z M437.9,1394.7l3.2-4.2
		l-2.9-1.1l-2.4,2.7L437.9,1394.7L437.9,1394.7z M437.2,1395.5l-2.3-2.5l-3,3l4.1,1L437.2,1395.5z"/>
</g>
</svg>
