<?xml version="1.0" encoding="utf-8"?>
<!-- Generator: Adobe Illustrator 25.0.0, SVG Export Plug-In . SVG Version: 6.00 Build 0)  -->
<svg version="1.1" id="Layer_2_1_" xmlns="http://www.w3.org/2000/svg" xmlns:xlink="http://www.w3.org/1999/xlink" x="0px" y="0px"
	 viewBox="0 0 840.2 283.5" style="enable-background:new 0 0 840.2 283.5;" xml:space="preserve">
<style type="text/css">
	.st0{fill-rule:evenodd;clip-rule:evenodd;}
</style>
<g id="Favicons">
	<g id="Logo-RDW">
		<g id="Group-3">
			<path id="Fill-1" class="st0" d="M401.3,99.3l8.6,3.6c-13.7,5.3-27,11.7-39.8,19l-12.2-1.8C372,112.4,386.5,105.5,401.3,99.3
				 M431.2,104.3l-78.3-38.9l0,0c-5.9,0.9-12.2,1.8-17.6,2.7l52.9,23.1c-0.9,0.9-1.8,0.9-3.2,1.4l-56.6-23.1
				c-10.9,1.8-21.7,4.5-30.8,6.8l50.7,16.3c-1.9,0.7-3.7,1.6-5.5,2.7L288.2,79C269.4,84.2,251,90.5,233,98l0,0l103.6,18.1
				c-2.7,1.4-4.5,2.7-7.7,4.1L219,103.9c-26.2,11.3-56.5,28.5-81,44.3h108.2c-5,3.2-9,5.9-14.9,10l0,0l-113.1,3.6l0,0
				c-20.8,14.9-42.1,32.6-54.3,43.4C51.6,215.6,16.3,251.3,0,283.5l132.1-34.4l0,0c-5.9,8.6-10.9,18.1-13.6,26.2l143.4-45.7
				c-1.3-33.5,31.2-63.4,53-81.4H333c-28,24-41.2,50.7-37.6,71l44.8-14C329.9,177.1,359.2,127.8,431.2,104.3"/>
		</g>
		<path id="Fill-4" class="st0" d="M636.6,11.3v82.3h21.7c9.5,0,17.2-3.2,23.1-9.5c5.4-6.3,8.2-14.5,8.2-24.4V45.3
			c0-9.9-2.7-18.1-8.2-24.4s-13.1-9.5-23.1-9.6H636.6z M657.8,0c13.6,0,24.4,4.1,33,12.7s12.7,19.5,12.7,32.6v14.5
			c0,13.1-4.1,24-12.7,32.6c-8.1,8.1-19.5,12.7-33,12.7h-47v-9l11.8-1.8V11.3L610.8,9V0H657.8L657.8,0z"/>
		<g id="Group-8">
			<polygon id="Fill-6" class="st0" points="740.2,9.3 729.8,10.6 743.3,68.6 745.2,81.2 745.6,81.7 748.3,68.6 767.8,0.2 780,0.2 
				799.4,68.6 802.2,81.7 802.6,81.7 804.9,68.6 818,10.6 807.1,9.3 807.1,0.2 840.2,0.2 840.2,9.3 832,10.2 809.4,104.3 
				796.7,104.3 775.9,31.9 774.1,22.9 773.7,22.9 771.8,31.9 751,104.3 738.4,104.3 715.7,10.2 707.1,9.3 707.1,0.2 740.2,0.2 			
				"/>
		</g>
		<g id="Group-11">
			<path id="Fill-9" class="st0" d="M533.4,51.4V11.1h22.2c5.9,0,10.4,1.4,14,4.1c0.9,0.5,1.6,1.1,2.3,1.8c2.7,2.7,4.1,5.9,5,9.9
				c0.4,1.5,0.5,3,0.5,4.5c0.2,5.3-1.8,10.5-5.4,14.5c-3.2,3.2-7.7,5-13.6,5.4L533.4,51.4L533.4,51.4z M592.2,93.9l-25.8-32.1
				c6.3-1.4,11.3-3.6,15.4-7.7c6.3-5.9,9.5-13.1,9.5-22.6c0-6.3-1.4-12.2-4.5-16.7c-1.3-2.1-2.8-4.1-4.5-5.9
				c-4.1-4.1-9.5-6.3-15.8-7.7c-3.3-0.5-6.6-0.8-10-0.9h-47.9v9l0,0l11.8,1.8v82.3l-11.8,1.9l0,0v9h37.5v-9l0,0l-11.8-1.8V62.7h16.3
				l25.8,32.1l-8.1,0.9v9.1h33.5v-9.1L592.2,93.9z"/>
		</g>
	</g>
</g>
</svg>
