<?xml version="1.0" encoding="utf-8"?>
<!-- Generator: Adobe Illustrator 25.0.0, SVG Export Plug-In . SVG Version: 6.00 Build 0)  -->
<svg version="1.1" id="Layer_2_1_" xmlns="http://www.w3.org/2000/svg" xmlns:xlink="http://www.w3.org/1999/xlink" x="0px" y="0px"
	 viewBox="0 0 893.2 283.5" style="enable-background:new 0 0 893.2 283.5;" xml:space="preserve">
<style type="text/css">
	.st0{fill:#FFFFFF;}
</style>
<path class="st0" d="M227.5,134.6c-1.9-16.4-3.8-67.3,24-98.2c38-42.3,77.7-34.7,105.2-17.3c-24.5-26.7-74-22.8-100.2-4
	c-52.5,37.3-48.4,100.5-45.9,119.5H227.5z"/>
<path class="st0" d="M413.3,89c-25.4,9.9-46.6-10.7-46.6-10.7c31.1,42.4,75.8,0.8,110,16.7c23.1,10.8,32,43,32.3,57.9
	C520.4,97.4,480.1,58.7,413.3,89z"/>
<polygon class="st0" points="149.4,226.6 166.9,226.6 166.9,196.8 195.1,196.8 195.1,181.5 166.9,181.5 166.9,165.7 197.5,165.7 
	197.5,149.9 149.4,149.9 "/>
<rect x="279.2" y="149.9" class="st0" width="17.7" height="76.8"/>
<polygon class="st0" points="362,165.5 362,149.9 313,149.9 313,226.6 363.9,226.6 363.9,210.8 330,210.8 330,194.9 360.3,194.9 
	360.3,180 330,180 330,165.5 "/>
<path class="st0" d="M404.9,211.5c-1,0.7-2.1,1.1-3.2,1.4c-1.2,0.3-2.5,0.5-3.8,0.5c-3.1,0-6-0.8-8.7-2.3c-2.7-1.4-5.2-3.4-7.1-5.8
	l-11.5,12.4c3.4,3.6,7.5,6.5,12.2,8.2c4.8,1.9,10,2.9,15.1,2.9c3.5,0,7-0.5,10.4-1.5c3.3-1,6.3-2.5,9-4.7s4.8-4.9,6.2-8
	c1.6-3.6,2.4-7.5,2.3-11.4c0.1-3.3-0.6-6.6-2.2-9.6c-1.4-2.5-3.2-4.7-5.5-6.5c-2.2-1.7-4.7-3.2-7.3-4.2c-2.7-1-5.2-2-7.7-2.9
	c-1.7-0.6-3.3-1.1-4.6-1.7c-1.2-0.5-2.4-1.1-3.6-1.8c-0.9-0.6-1.7-1.4-2.3-2.3c-0.6-1-0.8-2.1-0.8-3.2c0-1.3,0.3-2.6,1-3.8
	c1.3-1.9,3.4-3.2,5.7-3.6c1.2-0.2,2.4-0.3,3.6-0.3c5.1,0.2,9.9,2.6,13,6.6l11.2-12.5c-3.2-3.1-7.1-5.5-11.3-7.1
	c-4-1.5-8.3-2.3-12.6-2.4c-3.4,0-6.9,0.5-10.2,1.4c-3.3,0.9-6.3,2.3-9.1,4.3c-5.9,4.2-9.3,11.2-9,18.4c-0.1,3,0.5,6,1.6,8.9
	c1,2.3,2.4,4.4,4.2,6.2c1.8,1.7,3.8,3.1,6,4.2c2.2,1.1,4.5,2,6.9,2.8s4.5,1.5,6.4,2.2c1.7,0.6,3.2,1.4,4.7,2.3
	c1.2,0.7,2.2,1.7,2.9,2.8c0.7,1.1,1.1,2.4,1,3.7c0,1.3-0.2,2.7-0.8,3.9C406.6,209.9,405.9,210.8,404.9,211.5z"/>
<polygon class="st0" points="455.5,194.9 485.8,194.9 485.8,180 455.5,180 455.5,165.5 487.5,165.5 487.5,149.9 438.5,149.9 
	438.5,226.6 489.4,226.6 489.4,210.8 455.5,210.8 "/>
<path class="st0" d="M575.9,155.1c-2.7-1.9-5.8-3.3-9.1-4c-3.7-0.8-7.4-1.3-11.2-1.2h-26.8v76.8h17.6v-29h8.8
	c3.7,0,7.3-0.4,10.9-1.3c3.3-0.8,6.5-2.2,9.3-4.1c2.7-1.9,4.9-4.5,6.4-7.4c3.1-7.1,3.2-15.3,0.2-22.5
	C580.6,159.5,578.5,157,575.9,155.1z M565.5,178.1c-0.7,1.2-1.7,2.2-2.8,2.9c-1.3,0.7-2.6,1.3-4.1,1.5c-1.6,0.3-3.1,0.5-4.7,0.5
	h-7.4v-18.1h7.7c1.5,0,3.1,0.1,4.6,0.3c1.4,0.2,2.8,0.6,4,1.3c1.1,0.6,2.1,1.6,2.8,2.7c0.7,1.4,1.1,2.9,1,4.5
	C566.6,175.2,566.3,176.7,565.5,178.1L565.5,178.1z"/>
<path class="st0" d="M660.6,158.6c-3.6-3.5-7.9-6.2-12.6-8c-5.1-1.9-10.5-2.9-15.9-2.8c-5.4,0-10.8,0.9-15.8,2.8
	c-9.6,3.6-17.2,11.1-20.9,20.6c-2.1,5.3-3.1,11-3,16.7c-0.1,5.7,1,11.3,3,16.6c1.9,4.8,4.7,9.2,8.3,12.9c3.6,3.6,7.9,6.4,12.6,8.3
	c5,2,10.4,3,15.8,2.9c5.4,0.1,10.8-0.9,15.9-2.9c4.7-1.9,9-4.7,12.6-8.3c3.6-3.7,6.4-8.1,8.3-12.9c2-5.3,3.1-11,3-16.6
	c0.1-5.7-0.9-11.3-3-16.7C667,166.5,664.2,162.2,660.6,158.6z M651.5,197.5c-0.9,2.8-2.4,5.3-4.3,7.5c-5.9,6.6-15.4,8.6-23.5,4.9
	c-2.5-1.2-4.7-2.8-6.5-4.9c-1.9-2.2-3.4-4.8-4.3-7.5c-2-6.1-2-12.8,0-18.9c0.9-2.7,2.4-5.3,4.3-7.4c1.8-2,4.1-3.7,6.6-4.9
	c2.7-1.2,5.5-1.8,8.5-1.8c2.9,0,5.8,0.6,8.5,1.8c2.5,1.1,4.8,2.8,6.6,4.9c1.9,2.2,3.4,4.7,4.3,7.4c1,3,1.6,6.2,1.5,9.3
	C653.1,191.2,652.6,194.4,651.5,197.5L651.5,197.5z"/>
<path class="st0" d="M749.3,158.6c-3.6-3.5-7.9-6.2-12.6-8c-5.1-1.9-10.4-2.9-15.9-2.9c-5.4,0-10.8,0.9-15.8,2.8
	c-4.7,1.8-9,4.5-12.6,8c-3.6,3.6-6.4,7.9-8.3,12.7c-2.1,5.3-3.1,11-3,16.7c-0.1,5.7,1,11.3,3,16.6c1.9,4.8,4.7,9.2,8.3,12.9
	c3.6,3.6,7.9,6.4,12.6,8.3c5,2,10.4,3,15.8,2.9c5.4,0.1,10.8-0.9,15.9-2.9c4.7-1.9,9-4.7,12.6-8.3c3.6-3.7,6.4-8.1,8.3-12.9
	c2-5.3,3.1-11,3-16.6c0.1-5.7-0.9-11.4-3-16.7C755.8,166.5,752.9,162.2,749.3,158.6z M740.2,197.5c-0.9,2.8-2.4,5.3-4.3,7.5
	c-5.9,6.6-15.4,8.6-23.5,4.9c-2.5-1.2-4.7-2.8-6.5-4.9c-1.9-2.2-3.4-4.8-4.3-7.5c-1-3.1-1.6-6.3-1.5-9.6c0-3.2,0.5-6.3,1.5-9.3
	c0.9-2.7,2.4-5.3,4.3-7.4c1.8-2.1,4.1-3.7,6.6-4.9c2.6-1.2,5.5-1.8,8.5-1.8c5.8-0.1,11.3,2.3,15.1,6.7c1.9,2.2,3.3,4.7,4.3,7.4
	c1,3,1.6,6.2,1.5,9.3C741.8,191.2,741.3,194.4,740.2,197.5z"/>
<path class="st0" d="M825,186.2c2.7-3.8,4.2-8.4,4-13.1c0.1-3.8-0.7-7.6-2.4-11.1c-1.5-2.9-3.7-5.3-6.3-7.2c-2.7-1.8-5.8-3.1-9-3.9
	c-3.4-0.8-6.8-1.2-10.2-1.1h-27.8v76.8h17.2v-30.5h6l15.8,30.5h20.6l-19.1-32.9C818.3,192.5,822.2,189.8,825,186.2z M810.4,178.2
	c-0.7,1.2-1.8,2.2-3,2.8c-1.3,0.7-2.7,1.1-4.2,1.4c-1.5,0.2-3,0.4-4.5,0.4h-8.4v-17.9h9.4c1.4,0,2.7,0.1,4.1,0.3
	c1.3,0.2,2.6,0.6,3.8,1.2c1.1,0.6,2.1,1.5,2.8,2.6c0.8,1.3,1.1,2.8,1.1,4.4C811.7,175.1,811.3,176.7,810.4,178.2L810.4,178.2z"/>
<polygon class="st0" points="834.4,149.9 834.4,165.7 855,165.7 855,226.6 872.6,226.6 872.6,165.7 893.2,165.7 893.2,149.9 "/>
<path class="st0" d="M250.9,193.6c4.2-1.3,7.9-3.9,10.7-7.4c2.8-3.8,4.2-8.4,4-13.1c0.1-3.8-0.7-7.6-2.4-11.1
	c-1.5-2.9-3.7-5.3-6.3-7.2c-2.7-1.8-5.8-3.2-9-3.9c-3.4-0.8-6.8-1.1-10.2-1.1h-27.8v76.8H227v-30.5h6.2l1.3,2.8
	c12.4,29.3,65.4,116.4,197,72.3C374.4,288.5,281.2,275,250.9,193.6z M247,178.2c-0.7,1.2-1.8,2.2-3,2.8c-1.3,0.7-2.7,1.1-4.1,1.4
	c-1.5,0.2-3,0.4-4.4,0.4H227v-17.9h9.4c1.4,0,2.7,0.1,4.1,0.3c1.3,0.2,2.6,0.6,3.8,1.2c1.1,0.6,2.1,1.5,2.8,2.6
	c0.8,1.3,1.2,2.9,1.1,4.4C248.3,175.1,247.8,176.7,247,178.2z"/>
<path class="st0" d="M25.6,188.5c1.7-1.9,2.5-4.4,2.4-6.9c0.1-1.8-0.3-3.6-1.2-5.3c-0.8-1.4-1.9-2.6-3.2-3.5c-1.4-0.9-3-1.6-4.6-1.9
	c-1.8-0.4-3.6-0.6-5.4-0.6H0v39.1h6.9v-16.5H12l9.1,16.6h8.4l-10.4-17.3C21.6,191.6,23.9,190.3,25.6,188.5z M15.6,186.9
	c-1,0.2-2,0.2-3,0.2H6.9v-11h6.3c0.9,0,1.8,0.1,2.7,0.2c0.9,0.1,1.7,0.4,2.5,0.8c0.7,0.4,1.3,1,1.8,1.6c0.5,0.8,0.8,1.7,0.7,2.6
	c0,1-0.2,2-0.8,2.9c-0.5,0.7-1.2,1.3-2,1.7C17.4,186.5,16.5,186.8,15.6,186.9L15.6,186.9z"/>
<path class="st0" d="M71.1,174.9c-1.9-1.8-4.2-3.2-6.7-4.1c-2.7-1-5.6-1.5-8.4-1.4c-2.8,0-5.7,0.5-8.4,1.4c-2.5,0.9-4.7,2.3-6.6,4.1
	c-1.9,1.8-3.4,4-4.4,6.4c-1.1,2.7-1.6,5.6-1.6,8.5s0.5,5.7,1.6,8.4c1,2.4,2.5,4.7,4.4,6.5c1.9,1.9,4.1,3.3,6.6,4.2
	c2.7,1,5.5,1.5,8.4,1.5s5.8-0.5,8.4-1.5c2.5-1,4.8-2.4,6.7-4.2c1.9-1.8,3.4-4.1,4.4-6.5c1.1-2.7,1.6-5.5,1.6-8.4s-0.5-5.8-1.6-8.5
	C74.5,178.9,73,176.7,71.1,174.9z M68.5,195.5c-0.6,1.7-1.5,3.2-2.8,4.5c-1.2,1.3-2.7,2.3-4.3,3c-1.7,0.7-3.6,1.1-5.5,1.1
	s-3.7-0.3-5.4-1.1c-1.6-0.7-3.1-1.7-4.3-3s-2.2-2.9-2.8-4.5c-0.7-1.8-1-3.8-1-5.8c0-1.9,0.3-3.8,1-5.6c0.6-1.7,1.5-3.2,2.7-4.5
	s2.6-2.3,4.2-3c1.7-0.8,3.6-1.1,5.5-1.1s3.8,0.4,5.5,1.1c1.6,0.7,3.1,1.7,4.2,3c1.2,1.3,2.1,2.8,2.7,4.5c0.7,1.8,1,3.7,1,5.6
	C69.5,191.7,69.2,193.7,68.5,195.5z"/>
<path class="st0" d="M110.6,202.9c-1.7,0.9-3.7,1.3-5.6,1.2c-1.9,0-3.7-0.3-5.5-1c-1.6-0.7-3-1.7-4.2-3s-2.1-2.9-2.7-4.5
	c-0.6-1.9-1-3.9-0.9-5.8c0-1.9,0.3-3.8,1-5.6c0.6-1.7,1.6-3.2,2.8-4.5c1.2-1.3,2.7-2.3,4.3-3c3.3-1.4,7-1.5,10.4-0.1
	c1.6,0.6,3,1.7,4,3.1l5.3-4.3c-0.8-1-1.7-1.9-2.8-2.6c-1.1-0.7-2.3-1.4-3.5-1.9c-1.3-0.5-2.6-0.9-3.9-1.1c-1.3-0.2-2.6-0.4-3.9-0.4
	c-2.9,0-5.7,0.5-8.4,1.4c-2.5,0.9-4.8,2.3-6.7,4.1c-1.9,1.8-3.4,4-4.4,6.4c-1.1,2.7-1.7,5.6-1.6,8.5c0,2.9,0.5,5.7,1.5,8.4
	c1,2.4,2.4,4.7,4.3,6.5c1.9,1.9,4.1,3.3,6.6,4.2c2.7,1,5.5,1.6,8.4,1.5c3,0.1,6-0.6,8.8-1.8c2.5-1.2,4.6-2.9,6.4-5l-5.6-3.9
	C113.6,201,112.2,202.2,110.6,202.9z"/>
</svg>
