<svg id="Layer_1" data-name="Layer 1" xmlns="http://www.w3.org/2000/svg" viewBox="0 0 493.26 130.6"><path d="M364.75,580.8c5.77-3.33,11.45-6.81,17.34-9.89,1.76-.92,4.11-1,6.19-1q150.14-.08,300.28,0h6.38c-6.7,6.87-13.33,10.52-22.36,10.51q-149.64-.25-299.28-.11h-9.41Z" transform="translate(-247.45 -481.84)"/><path d="M529.89,562c1.46-6.55,2.67-12.19,4-17.8,2.45-10.46-1-15-11.61-14.88-12.13.12-9.08-1.82-12.11,9.47-1.72,6.42-3.34,12.87-4.68,19.38-.58,2.8-1.63,4-4.57,3.89-5-.18-9.94-.05-15.65-.05,1.59-7.06,3-13.47,4.46-19.89,1.69-7.51-2-12.47-9.58-12.81-12.25-.56-12.25-.56-15,11.49-1.35,5.83-2.77,11.65-4,17.5-.58,2.69-1.84,3.9-4.77,3.77-5.13-.22-10.27-.06-16-.06.52-2.88.83-5.13,1.34-7.33,2.25-9.72,4.69-19.39,6.79-29.14.75-3.46,2-4.92,5.88-4.89,28.16.18,56.32.06,84.49.11,10.25,0,17.24,8,15.59,18.07-1.1,6.71-2.7,13.36-4.43,19.94a5.08,5.08,0,0,1-3.52,3.08C541.31,562.24,536.15,562,529.89,562Z" transform="translate(-247.45 -481.84)"/><path d="M555.55,562.08c4.2-17.52,8.21-34.48,12.45-51.38a4.93,4.93,0,0,1,3.58-2.87c5.29-.32,10.62-.14,17.09-.14-3.59,15.31-7,30-10.6,45.19a27.29,27.29,0,0,0,4,.62c9.83,0,19.66,0,29.49,0,6,.06,10.06-2.95,13.11-7.71,2.3-3.59,3-7.47.91-11.37s-5.87-5.1-10.13-5q-11.49.18-23,.28c-1.43,0-2.85-.16-4.92-.28,5.19-5.58,10.61-8.83,17.79-8.7,7.83.13,15.67,0,23.5,0,13.27.06,20.86,9.86,16.78,22.4-3.41,10.48-10.89,18.17-21.91,18.63C601.29,562.73,578.8,562.08,555.55,562.08Z" transform="translate(-247.45 -481.84)"/><path d="M709,553.52c-5.63,6.11-11.27,9.18-18.71,8.9-7.82-.29-15.66,0-23.49-.09-13.47-.2-20.53-10.55-15.93-23.23a28.23,28.23,0,0,1,26.12-18.31c19.33,0,38.66,0,58,0h5.79c-1.67,7-3.13,13.28-4.64,19.51s-3,12.61-4.76,18.84c-.35,1.24-1.88,3-2.94,3-5.77.3-11.55.15-17.78.15,2.52-11.13,4.89-21.57,7.46-32.88-9.86,0-18.81-.12-27.75,0-3.61.07-7.82-.27-10.67,1.41a25.08,25.08,0,0,0-9.35,9.61c-3.32,6.59,1.14,12.83,8.62,13C688.54,553.65,698.19,553.52,709,553.52Z" transform="translate(-247.45 -481.84)"/><path d="M486.59,482.44c-9.28,7.44-17.18,15.54-28.61,18a48.1,48.1,0,0,1-9.87,1.06q-41,.13-81.89-.05c-2.37,0-6.3-.95-6.73-2.33-.69-2.16.35-5.53,1.8-7.57,4.26-5.94,10.16-9.63,17.71-9.64q52.68-.11,105.36,0A13,13,0,0,1,486.59,482.44Z" transform="translate(-247.45 -481.84)"/><path d="M247.45,571.74c11.8-10.38,22.67-19.8,38.84-19.61,26.49.31,53,0,79.47.19,2.37,0,6.35,1,6.73,2.41.64,2.24-.4,5.63-1.91,7.65-4.35,5.84-10.25,9.55-17.81,9.56Q302,572,251.3,572C250.36,572,249.43,571.85,247.45,571.74Z" transform="translate(-247.45 -481.84)"/><path d="M342.15,497.16c-.4,1.58-.8,3.16-1.19,4.74-2.19,8.86,2.35,14.81,11.43,14.84,12.81,0,25.63,0,38.44,0,16.57,0,22.23,9.14,13.92,23.55-3.72,6.47-9.16,11.94-13.82,17.86l-1.12-.87c.57-3,1.46-6.07,1.63-9.13.31-5.58-2.37-9.26-7.7-10.73a28.54,28.54,0,0,0-7.38-.91c-12.81-.09-25.63,0-38.44-.07-12.13-.08-17-7-12.92-18.36C328.14,509.2,334.44,502.67,342.15,497.16Z" transform="translate(-247.45 -481.84)"/><path d="M411.48,562.36c3.14-13.38,6.09-26.1,9.19-38.78.25-1,1.54-2.56,2.39-2.59,5.9-.23,11.81-.12,18.36-.12-2.68,11.59-5.16,22.36-7.65,33.13a16.32,16.32,0,0,0-.6,2.41c-.33,4.64-2.48,6.57-7.37,6.05C421.24,562,416.58,562.36,411.48,562.36Z" transform="translate(-247.45 -481.84)"/><path d="M644.25,586.31h31.58c-.3,2-.55,3.76-.82,5.62-8.67,1-17.4-.45-25.8.8l.21,2.68H668c1.11,4.76-.43,6.4-4.74,6.08a97.89,97.89,0,0,0-12,0c-1.38.07-2.72.93-4.08,1.43l.38,1.69h24.31c.94,4.56.19,6.77-4.67,6.62-8.79-.28-17.6-.08-27.26-.08C641.46,602.57,642.84,594.51,644.25,586.31Z" transform="translate(-247.45 -481.84)"/><path d="M509.37,586.31c8.92,0,17.55-.09,26.18.05,3.23,0,4.89,2.25,4.58,5.34-.5,5-.86,10.27-7.62,11.75l5.65,7.32c-4.71.65-8.48,1.17-11.2-3.3-3.33-5.49-8.82-4.16-14.13-4-.61,2.48-1.2,4.84-1.85,7.48l-5.87.26C506.56,602.73,507.93,594.7,509.37,586.31Zm23.66,6c-5.06,0-10.19.12-15.31,0-3.81-.12-4,1.7-3,4.89,5.15,0,10.12,0,15.09,0C532.88,597.15,534,595.73,533,592.26Z" transform="translate(-247.45 -481.84)"/><path d="M608.66,586.29c9,0,17.42,0,25.88,0,3.22,0,5,1.82,4.84,5.05-.18,5.35-1,10.39-7.46,12.27l5.42,6.91c-4.5,1.05-8.26,1.53-10.92-2.95-3-5.1-8.11-4.53-12.9-4.09-.83.07-1.85,2-2.15,3.21-1.14,4.63-1,4.65-6.87,4C605.86,602.72,607.21,594.79,608.66,586.29Zm24.82,7.48-.82-1.49c-5.58,0-11.18-.19-16.74.17-1.11.07-2.1,2.2-3.15,3.39l.87,1.26c5.44,0,10.88.2,16.29-.15C631.18,596.87,632.3,594.88,633.48,593.77Z" transform="translate(-247.45 -481.84)"/><path d="M495.63,612.44v-5.72H477.51c-2.51,4.6-2.51,4.6-7.77,3.76,1.26-6.63,2.09-13.39,4-19.81.59-2,4.08-4.12,6.41-4.34,6.44-.6,13-.25,19.47-.23,3.89,0,5.47,2.33,5,5.86a129.85,129.85,0,0,1-3,16.69C501.27,610.09,498.3,610.84,495.63,612.44Zm2.94-20.18h-13c-7.21,0-7.35.15-7.12,7.84h18.6Z" transform="translate(-247.45 -481.84)"/><path d="M470.31,586.24l-1.3,6c-6.82,0-13.64.33-20.41-.12-4.42-.29-6,1.45-6.27,5.45-.14,2.13-.6,4.24-1,7.09h25.4c-.3,2.49-.5,4.25-.76,6.43-8.73,0-17.19.12-25.64-.06-3.47-.07-5.68-2-5.12-5.82.69-4.76,1.1-9.65,2.6-14.17.67-2,3.62-4.49,5.66-4.61C452.2,585.94,461,586.24,470.31,586.24Z" transform="translate(-247.45 -481.84)"/><path d="M563.36,586.27h5.9c-.3,2.88-.58,5.57-.9,8.56h18.31c2.83-2.81-.66-11.09,8.31-8.18-1.26,7.39-2.31,14.88-4,22.24-.3,1.31-3.2,2-4.89,3l-1.2-1.12c.37-3,.75-6,1.15-9.29H567.14c-.67,3-1.34,6-2.08,9.35h-5.91C560.55,602.64,561.92,594.7,563.36,586.27Z" transform="translate(-247.45 -481.84)"/><path d="M604.76,586.89c-1.19,7-2.44,14-3.55,21.08-.71,4.54-3.64,3.12-6.69,2.73,1.31-7.58,2.34-15,4-22.18.33-1.38,3.31-2.14,5.07-3.19Z" transform="translate(-247.45 -481.84)"/></svg>