<svg id="Layer_2" data-name="Layer 2" xmlns="http://www.w3.org/2000/svg" viewBox="0 0 1875.07 283.46"><defs><style>.cls-1{fill:#fff;fill-rule:evenodd;}</style></defs><path class="cls-1" d="M75.63,231.94h64.74l49.75,129.89c7.1,18.16,13,35.14,18.15,50.14h.79c5.14-15,11.06-32,18.17-50.14L277,231.94h64.75l-107,262.15H182.61Zm429.83,73.43h50.93l5.92,19c19-14.62,39.88-23.69,62.77-23.69,30,0,62.78,11.84,62.78,69.48v122H628.25V387.89c0-19.35-3.17-35.92-25.27-35.92-12.24,0-26.85,5.12-37.9,13.81V492.11H505.46Zm317-73.43H877l65.14,90.81c7.9,11.05,14.21,20.52,20.14,30.79H963a352.5,352.5,0,0,1,19-32.77l58.43-88.83h54.87V492.12h-60.4V359.47c0-9.48,0-20.14.39-28h-.39c-2.37,5.53-13,20.92-17.37,27.64L975.28,423H948.83l-48.17-66.33c-5.53-7.49-11.84-15.39-17.37-25.26h-.79c.39,8.69.39,18.95.39,26.06V492.12h-60.4Zm434.56,166.21c0-28.81-11.06-50.53-37.5-50.53S1182,369.34,1182,398.15s11.06,50.94,37.51,50.94S1257.05,427,1257.05,398.15Zm-135.8,0c0-56.84,40.26-97.51,98.3-97.51s98.3,40.67,98.3,97.51-40.26,97.91-98.3,97.91S1121.25,455,1121.25,398.15Zm228.2,35.54c16.18,10.65,36.32,16.57,53.69,16.57,17,0,28-3.15,28-12.62,0-25.27-88-14.61-88-77.39,0-35.93,30-59.61,76.2-59.61,22.5,0,43,3.55,60,9.47v49.36c-17.77-7.12-37.11-13-57.64-13-14.61,0-20.53,3.95-20.53,11.06,0,21.32,88,12.23,88,78.56,0,43.83-39.08,60-80.53,60-32.38,0-59.62-8.69-77.39-19.74Zm176,0c16.18,10.65,36.32,16.57,53.68,16.57,17,0,28-3.15,28-12.62,0-25.27-88-14.61-88-77.39,0-35.93,30-59.61,76.2-59.61,22.49,0,43,3.55,60,9.47v49.36c-17.76-7.12-37.11-13-57.64-13-14.6,0-20.52,3.95-20.52,11.06,0,21.32,88,12.23,88,78.56,0,43.83-39.08,60-80.53,60-32.38,0-59.62-8.69-77.39-19.74Zm282.16-56.46c-.4-16.19-8.7-32.37-30.4-32.37-19.75,0-29.22,15.79-29.22,32.37Zm-58.83,39.48c1.18,22.89,20.92,33.55,46.19,33.55,19.74,0,34.36-4.73,48.17-12.62l17.37,40.26c-22.11,13.42-45.8,18.16-70.28,18.16-74.22,0-101.07-47.37-101.07-95.14,0-56.06,30.4-100.28,89.23-100.28,56.06,0,88.83,38.69,88.83,102.24v13.83Zm146.08,75.17V212.6h55.88V491.88ZM396.75,409.6c-9.47.4-17,2-22.1,5.13-5.53,3.56-8.3,8.3-8.3,16.2,0,13,9.08,19.33,23.3,19.33,13,0,22.89-3.94,27.23-6.71V408.82Zm20.15,71.1c-7.16,5.86-23.31,15.36-46.59,15.36-36.72,0-63.57-25.27-63.57-61.18,0-25.28,11.84-40.67,31.19-50.94,13.42-7.1,30.4-10.66,49.35-11.45l29.6-1.18v-2c0-17.36-12.63-24.47-32.76-24.47-15.79,0-33.95,4.33-47.38,11.44l-18.55-37.5a169,169,0,0,1,77-18.16c57.65,0,77.75,25.66,77.75,71.06v83.7c0,11.44-.13,36.81-.13,36.81H416.9Z" transform="translate(-75.63 -212.6)"/></svg>