<svg height="231pt" preserveAspectRatio="xMidYMid meet" viewBox="0 0 1171 231" width="1171pt" xmlns="http://www.w3.org/2000/svg"><g transform="matrix(.1 0 0 -.1 0 231)"><path d="m1570 1709c-521-110-998-431-1176-794-60-123-77-197-72-310 13-246 175-414 475-491 123-32 341-43 489-25 407 51 814 235 1088 493 304 285 408 600 278 842-52 98-186 206-315 255-27 10-27 10-27-34 0-43 1-44 60-76 125-67 209-192 218-325 6-90-9-157-58-259-144-300-559-573-1005-661-138-27-382-25-499 4-172 43-302 135-362 257-27 55-29 68-29 170 0 96 3 118 27 173 43 102 88 170 178 265 178 189 429 337 700 412 90 25 103 33 147 77l47 48-34-1c-19 0-78-9-130-20z"/><path d="m3611 1187c-85-194-165-376-178-404l-23-53h49 48l46 108 45 107h167 167l43-105 43-105 50-3 50-3-170 398c-94 219-173 401-177 405-3 4-75-151-160-345zm223-7c31-75 56-139 56-143s-56-7-125-7-125 3-125 8c0 20 124 292 130 285 5-4 33-69 64-143z"/><path d="m10896 1520c-68-12-135-56-170-113-25-41-30-61-33-130-3-72-1-87 19-122 28-48 75-75 186-110 46-14 92-35 102-45 58-58-19-135-112-115-38 8-105 41-130 62-15 13-20 7-57-64-23-43-41-82-41-86s34-24 75-44c64-30 90-36 163-41 127-7 191 14 257 81 57 58 75 105 75 190 0 124-47 172-228 231-88 30-108 49-97 93 8 31 65 57 109 47 17-3 48-15 68-27 21-11 40-19 42-16 5 6 76 147 76 152 0 6-78 34-125 45-66 17-127 20-179 12z"/><path d="m4932 1494c-116-58-145-210-58-297 18-18 85-58 148-89 132-64 158-90 158-155 0-96-56-153-149-153-81 0-141 42-156 109-6 28-7 28-46 19-46-12-49-29-19-87 30-60 93-108 158-122 161-33 302 74 302 230 0 112-48 165-213 237-112 48-152 89-144 147 14 106 152 142 231 61l35-36 30 18c17 10 31 22 31 26s-15 24-32 44c-68 77-179 96-276 48z"/><path d="m5680 1506c-171-49-288-194-298-366-17-286 236-486 523-414l65 16v119 119l-45-32c-57-40-142-50-210-24-155 59-167 288-20 374 34 19 52 22 112 20 62-3 78-8 118-36l46-32-3 117-3 118-40 14c-56 19-190 23-245 7z"/><path d="m4220 1120v-390h139c154 0 206 12 254 58 51 48 70 97 65 172-4 81-32 129-95 162l-42 23 24 25c32 34 45 72 45 133-1 103-58 173-160 196-25 6-87 11-137 11h-93zm198 301c88-17 135-105 97-184-22-46-67-67-144-67h-61v130 130h33c17-1 51-5 75-9zm62-342c122-26 159-163 63-236-32-25-45-28-134-31l-99-4v141 141h60c32 0 82-5 110-11z"/><path d="m5997 1497c4-7 68-99 141-204l132-191v-186-186h105 105v188 189l140 196c77 108 140 198 140 201s-54 6-120 6h-121l-67-105c-37-58-69-105-72-105s-37 46-75 103l-70 102-123 3c-101 2-122 0-115-11z"/><path d="m6820 1120v-390h220 220v85 85h-120-120v305 305h-100-100z"/><path d="m7350 1120v-390h100 100v390 390h-100-100z"/><path d="m7700 1120v-390h100 100l2 235 3 235 183-235 183-235h105 104v390 391l-102-3-103-3-5-231-5-231-181 231-180 231-102 3-102 3z"/><path d="m8620 1120v-390h179c208 0 271 14 362 79 90 64 134 146 145 270 20 214-105 382-310 420-33 6-131 11-218 11h-158zm384 187c59-32 90-100 90-192 0-131-67-202-201-213l-63-5v223 222l68-7c38-4 84-16 106-28z"/><path d="m9420 1120v-390h220 220v85 85h-120-120v65 65h115 115v90 90h-115-116l3 63 3 62 118 3 117 3v84 85h-220-220z"/><path d="m9977 1503c-4-3-7-179-7-390v-383h105 104l3 142 3 142 92-142 92-142h126 126l-119 156-120 157 52 26c112 57 147 198 79 323-30 55-80 93-143 107-49 12-383 15-393 4zm302-164c31-11 61-52 61-83 0-55-51-96-120-96h-40v95 95h34c18 0 47-5 65-11z"/><path d="m11520 1325c102-102 186-185 187-185 2 0 3 83 3 185v185h-187-188z"/><path d="m4966 335c-53-19-92-59-106-110-34-120 40-225 157-225 56 0 83 10 83 29 0 15-8 17-53 13-101-8-153 44-145 145 4 44 11 60 37 86 29 29 37 32 96 32 54 0 65 2 65 16 0 29-71 37-134 14z"/><path d="m5491 337c-19-6-48-29-65-50-63-79-39-224 44-269 44-24 120-19 158 9 60 44 85 169 48 241-33 63-116 94-185 69zm119-57c77-83 33-240-67-240-75 0-107 47-101 148 4 58 8 68 36 93 45 40 94 40 132-1z"/><path d="m7690 338c-133-37-162-226-49-311 49-36 179-35 179 1 0 14-11 17-70 17-62 0-72 3-97 27-34 34-44 127-20 175 23 43 78 67 139 60 42-5 48-4 48 12 0 29-63 38-130 19z"/><path d="m11390 339c-42-17-60-40-60-76 0-51 16-72 76-99 66-29 85-60 60-99-13-20-25-25-57-25-22 0-49 4-59 10-14 7-20 6-24-7-10-24 7-35 62-41 80-7 132 30 132 96 0 40-29 73-89 102-60 28-75 58-45 91 16 18 27 20 66 16 34-4 48-2 52 8 3 8 2 17-3 19-18 12-88 15-111 5z"/><path d="m3410 320c0-17 7-20 50-20h49l3-147c3-140 4-148 23-148s20 8 23 147l3 147 47 3c35 2 48 7 50 21 3 15-8 17-122 17-119 0-126-1-126-20z"/><path d="m3692 173c3-160 4-168 23-168 18 0 20 8 23 78l3 77h79 80v-80c0-73 2-80 20-80 19 0 20 7 20 170s-1 170-20 170c-18 0-20-7-20-70v-70h-80-80v70c0 68-1 70-25 70h-25z"/><path d="m4020 170v-171l92 3c79 3 93 6 96 21s-6 17-72 17h-76v60 60h65c58 0 65 2 65 20s-7 20-65 20h-65v50 50h70c63 0 70 2 70 20 0 19-7 20-90 20h-90z"/><path d="m4370 170c0-162 1-170 20-170 17 0 19 8 22 78l3 77 63 3c45 2 62 7 62 17s-17 15-62 17l-63 3-3 53-3 52h70c64 0 71 2 71 20 0 19-7 20-90 20h-90z"/><path d="m4606 174c-31-91-56-168-56-170 0-3 10-4 22-2 16 2 26 16 38 53l17 50 60 3 61 3 17-51c17-50 34-68 54-56 6 4-12 71-47 171-54 158-58 165-83 165-26 0-29-7-83-166zm103 54c12-34 21-66 21-70s-21-8-46-8c-33 0-45 4-41 13 2 6 13 38 23 70 10 31 19 57 20 57s12-28 23-62z"/><path d="m5140 320c0-17 7-20 50-20h50v-150c0-143 1-150 20-150s20 7 20 149v150l52 3c41 2 54 7 56 21 3 15-8 17-122 17-119 0-126-1-126-20z"/><path d="m5752 173c3-160 4-168 23-168 18 0 20 8 23 73 3 70 4 72 28 72 44 0 63-18 80-78 19-65 27-77 48-69 13 5 13 12-1 64-8 32-23 67-34 78-19 19-19 20 6 40 16 12 28 34 32 57 5 32 1 41-25 68-29 28-35 30-106 30h-76zm136 121c16-11 22-25 22-50 0-30-4-37-35-50-67-28-75-22-75 51v65h33c18 0 43-7 55-16z"/><path d="m5990 334c0-3 23-47 50-98 47-87 50-98 50-164 0-65 2-72 20-72s20 7 20 72c0 68 2 75 55 165 30 52 55 96 55 99 0 2-10 4-23 4-18 0-30-15-62-81l-40-80-40 80c-32 66-43 81-62 81-13 0-23-3-23-6z"/><path d="m6340 338c1-2 20-77 44-168 37-144 46-165 64-168 23-4 25 2 74 190l23 87 33-140c31-130 35-140 55-137 19 3 28 23 64 146 60 207 57 192 30 192-21 0-25-10-57-137l-34-138-26 110c-42 175-38 165-64 165-22 0-26-9-57-136-22-90-36-129-41-117-4 10-19 71-33 136-25 110-28 117-51 117-13 0-24-1-24-2z"/><path d="m6792 173c3-160 4-168 23-168s20 8 23 168l2 167h-25-25z"/><path d="m6872 323c2-14 15-19 56-21l52-3v-150c0-142 1-149 20-149s20 7 20 150v150h50c43 0 50 3 50 20 0 19-7 20-126 20-114 0-125-2-122-17z"/><path d="m7160 170c0-163 1-170 20-170 18 0 20 7 20 80v80h80 79l3-77c3-70 5-78 23-78 19 0 20 8 23 168l2 167h-25c-24 0-25-2-25-70v-70h-80-80v70c0 63-2 70-20 70-19 0-20-7-20-170z"/><path d="m7891 263c23-43 46-83 50-88 4-6 9-47 11-90 3-72 5-80 23-80s20 8 23 73c3 66 7 80 48 150 71 119 68 112 39 112-21 0-31-11-62-75-21-41-40-75-43-75s-22 34-43 75c-32 64-40 75-63 75h-25z"/><path d="m8150 170v-170h90c83 0 90 1 90 20 0 18-7 20-70 20h-70v150c0 143-1 150-20 150s-20-7-20-170z"/><path d="m8382 173c3-160 4-168 23-168s20 8 23 168l2 167h-25-25z"/><path d="m8502 173c3-151 5-168 21-171s17 9 17 140v143l29-53c72-130 143-232 162-232 18 0 19 9 19 170 0 163-1 170-20 170s-20-7-21-127c0-87-3-123-10-113-5 8-40 65-78 125-56 91-72 111-95 113l-26 3z"/><path d="m8832 173 3-168 77 1c85 1 125 18 162 67 17 23 21 43 21 107 0 70-3 81-25 105-37 41-81 55-165 55h-75zm153 123c91-38 99-183 13-236-21-12-51-20-80-20h-48v128c0 71 3 132 7 135 11 12 72 8 108-7z"/><path d="m9160 170v-171l92 3c79 3 93 6 96 21s-6 17-72 17h-76v60 60h65c58 0 65 2 65 20s-7 20-65 20h-65v50 50h70c63 0 70 2 70 20 0 19-7 20-90 20h-90z"/><path d="m9404 327c-2-7-3-82-2-167 3-147 4-155 23-155 18 0 20 8 23 73l3 72h33c42 0 61-21 78-90 12-45 18-56 37-58 21-3 22-1 16 30-13 59-34 113-48 122-10 7-7 15 15 36 44 44 38 109-13 135-36 19-158 20-165 2zm146-37c42-42 12-98-58-107l-42-6v67 66h40c27 0 47-7 60-20z"/><path d="m9780 170v-171l92 3c79 3 93 6 96 21s-6 17-72 17h-76v60 60h65c58 0 65 2 65 20s-7 20-65 20h-65v50 50h70c63 0 70 2 70 20 0 19-7 20-90 20h-90z"/><path d="m10010 334c0-4 20-40 46-81l45-75-50-85c-40-66-47-85-36-90 21-7 42 13 70 66 42 80 39 80 84 2 29-50 48-71 61-71 28 0 26 10-25 93-25 41-45 80-45 86s20 42 45 81 45 72 45 75-10 5-23 5c-18 0-31-15-61-66l-38-67-36 67c-28 52-41 66-59 66-13 0-23-3-23-6z"/><path d="m10310 170c0-163 1-170 20-170 18 0 20 7 20 69v69l55 4c63 5 90 25 104 75 13 45-3 90-40 108-16 9-55 15-94 15h-65zm147 114c35-48 1-106-64-108l-38-1-3 54c-4 77 0 85 50 78 23-3 48-14 55-23z"/><path d="m10572 173 3-168 93-3c87-3 92-2 92 18 0 18-6 20-70 20h-70v60 60h65c58 0 65 2 65 20s-7 20-65 20h-65v50 49l67 3c55 2 68 6 71 21s-6 17-93 17h-95z"/><path d="m10820 170c0-163 1-170 20-170 18 0 20 7 20 75v75h34c43 0 62-19 76-73 6-23 13-48 15-55 5-14 33-27 42-19 9 10-18 111-38 139-19 27-19 27 0 37 24 13 40 60 34 95-9 47-46 66-129 66h-74zm138 124c28-19 29-64 2-89-11-10-36-18-57-19l-38-1-3 49c-2 27-1 55 2 62 7 19 66 18 94-2z"/><path d="m11052 323c2-14 15-19 50-21l47-3 3-147c3-139 4-147 23-147s20 8 23 148l3 147h49c43 0 50 3 50 20 0 19-7 20-126 20-114 0-125-2-122-17z"/></g></svg>