<?xml version="1.0" encoding="utf-8"?>
<!-- Generator: Adobe Illustrator 25.0.0, SVG Export Plug-In . SVG Version: 6.00 Build 0)  -->
<svg version="1.1" id="Layer_1" xmlns="http://www.w3.org/2000/svg" xmlns:xlink="http://www.w3.org/1999/xlink" x="0px" y="0px"
	 viewBox="0 0 841.9 189.5" style="enable-background:new 0 0 841.9 189.5;" xml:space="preserve">
<style type="text/css">
	.st0{fill-rule:evenodd;clip-rule:evenodd;}
</style>
<g>
	<g>
		<path class="st0" d="M98.4,162.3H126v-54.4c-2.9-30.9-24.3-41.2-56.6-40.1C-8.9,62.3,5,163.3,53.7,162.3h24.6v-22.6h-16
			c-34.5-9.3-20.1-51.9,4-49.7h7.9c13,0,22.4,7.7,23.9,20.8L98.4,162.3L98.4,162.3z"/>
		<path class="st0" d="M221.7,18.6h27.6V123c-2.9,30.9-24.3,41.2-56.6,40.1c-78.2,5.5-64.3-95.5-15.6-94.4h24.6v22.6h-16
			c-34.5,9.3-20.1,51.9,4,49.7h7.9c12.9-0.8,20.5-6.3,23.9-20.8L221.7,18.6L221.7,18.6z"/>
		<path class="st0" d="M261.3,162v-50.6c1-31.1,22.8-42.3,37.8-43.7h26v21.9h-15.4c-7.2,1.5-16.3,3.8-20.1,21.8V162H261.3L261.3,162
			z"/>
		<path class="st0" d="M334.8,67.6h27.9v50.6c7.3,36,49,21.8,47.6,0V67.4h28.2V121c-0.4,54.2-103.1,57.1-103.7,0V67.6L334.8,67.6z"
			/>
		<path class="st0" d="M451.3,67.6h27.9v50.6c7.3,36,49,21.8,47.6,0V67.4H555V121c-0.4,54.2-103.1,57.1-103.7,0V67.6L451.3,67.6z"/>
	</g>
</g>
<g>
	<g>
		<path d="M607.1,32.6v10c0,2.6,1.2,3.9,3.7,3.9c0.7,0,1.4-0.1,2.2-0.4v4.4c-1,0.4-2.2,0.5-3.5,0.5c-2.5,0-4.5-0.7-5.8-2.1
			c-1.4-1.4-2-3.5-2-6.1V32.6h-4.3v-4.2h4.3V23l5.5-1.9v7.3h5.9v4.2C613.1,32.6,607.1,32.6,607.1,32.6z"/>
		<path d="M637.7,37.1v13.7h-5.5V37.4c0-1.8-0.3-3.1-1-3.9c-0.7-0.8-1.7-1.2-3.1-1.2c-1.7,0-3,0.5-4.1,1.6c-1,1.1-1.5,2.5-1.5,4.3
			v12.7H617V18.2h5.5v13.5c0.8-1.2,1.8-2.1,3.1-2.8c1.3-0.7,2.7-1,4.3-1C635,27.9,637.7,31,637.7,37.1z"/>
		<path d="M663.2,39.9h-15.4c0.1,2.4,0.7,4.2,1.8,5.3s2.7,1.7,4.8,1.7c2.5,0,4.7-0.8,6.8-2.4l1.6,3.8c-1.1,0.9-2.4,1.5-3.9,2.1
			c-1.5,0.5-3.1,0.8-4.7,0.8c-3.7,0-6.5-1-8.6-3.1s-3.1-4.9-3.1-8.5c0-2.3,0.5-4.3,1.4-6.1s2.2-3.2,3.9-4.1s3.5-1.5,5.6-1.5
			c3.1,0,5.5,1,7.3,3s2.7,4.7,2.7,8.2v0.8H663.2z M649.7,33.2c-0.9,0.9-1.5,2.1-1.8,3.8h10.4c-0.2-1.7-0.7-3-1.5-3.8
			c-0.8-0.9-2-1.3-3.5-1.3C651.9,31.9,650.7,32.3,649.7,33.2z"/>
		<path d="M712,30.2c1.2,1.5,1.9,3.8,1.9,6.9v13.7h-5.5V37.3c0-1.8-0.3-3-0.9-3.8c-0.6-0.8-1.5-1.2-2.9-1.2c-1.5,0-2.7,0.5-3.6,1.6
			c-0.9,1.1-1.3,2.6-1.3,4.4v12.5h-5.5V37.3c0-1.7-0.3-3-0.9-3.8c-0.6-0.8-1.6-1.2-2.9-1.2c-1.5,0-2.7,0.5-3.6,1.6
			c-0.9,1.1-1.3,2.6-1.3,4.4v12.5H680v-16c0-2.4-0.1-4.5-0.4-6.3h5.2l0.4,3.5c0.6-1.3,1.6-2.3,2.8-3.1c1.2-0.7,2.6-1.1,4.2-1.1
			c3.4,0,5.7,1.4,6.7,4.3c0.7-1.3,1.7-2.4,3-3.1c1.3-0.8,2.8-1.1,4.4-1.1C708.9,27.9,710.8,28.6,712,30.2z"/>
		<path d="M739.4,39.9H724c0.1,2.4,0.7,4.2,1.8,5.3s2.7,1.7,4.8,1.7c2.5,0,4.7-0.8,6.8-2.4l1.6,3.8c-1.1,0.9-2.4,1.5-3.9,2.1
			c-1.5,0.5-3.1,0.8-4.7,0.8c-3.7,0-6.5-1-8.6-3.1s-3.1-4.9-3.1-8.5c0-2.3,0.5-4.3,1.4-6.1s2.2-3.2,3.9-4.1s3.5-1.5,5.6-1.5
			c3.1,0,5.5,1,7.3,3s2.7,4.7,2.7,8.2v0.8H739.4z M725.9,33.2c-0.9,0.9-1.5,2.1-1.8,3.8h10.4c-0.2-1.7-0.7-3-1.5-3.8
			c-0.8-0.9-2-1.3-3.5-1.3C728.1,31.9,726.9,32.3,725.9,33.2z"/>
		<path d="M750.8,32.6v10c0,2.6,1.2,3.9,3.7,3.9c0.7,0,1.4-0.1,2.2-0.4v4.4c-1,0.4-2.2,0.5-3.5,0.5c-2.5,0-4.5-0.7-5.8-2.1
			c-1.4-1.4-2-3.5-2-6.1V32.6H741v-4.2h4.3V23l5.5-1.9v7.3h5.9v4.2C756.7,32.6,750.8,32.6,750.8,32.6z"/>
		<path d="M781.9,28.5v22.4h-5.4v-3.6c-0.7,1.2-1.7,2.2-2.9,2.9c-1.3,0.7-2.7,1-4.3,1c-1.9,0-3.7-0.5-5.2-1.4s-2.7-2.3-3.5-4
			s-1.2-3.8-1.2-6.1s0.4-4.3,1.3-6.1c0.8-1.8,2-3.2,3.5-4.2s3.2-1.5,5.1-1.5c1.6,0,3.1,0.3,4.3,1c1.3,0.7,2.2,1.7,2.9,2.9v-3.4
			L781.9,28.5L781.9,28.5z M775,44.9c1-1.3,1.5-3.1,1.5-5.4c0-2.4-0.5-4.2-1.5-5.4c-1-1.3-2.4-1.9-4.3-1.9c-1.8,0-3.3,0.7-4.3,2
			s-1.5,3.1-1.5,5.5c0,2.3,0.5,4.1,1.5,5.3s2.5,1.9,4.3,1.9C772.5,46.8,774,46.2,775,44.9z"/>
		<path d="M787.9,50.8V18.2h5.5v32.6H787.9z"/>
		<path d="M614.4,81.4v5c-0.9-0.4-1.9-0.6-2.9-0.6c-1.9,0-3.3,0.5-4.3,1.6s-1.5,2.5-1.5,4.3V104h-5.5V88c0-2.4-0.1-4.5-0.4-6.3h5.2
			l0.4,3.9c0.6-1.4,1.4-2.6,2.7-3.3c1.2-0.8,2.6-1.2,4.1-1.2C613,81.1,613.7,81.2,614.4,81.4z"/>
		<path d="M636.6,93.1h-15.4c0.1,2.4,0.7,4.2,1.8,5.3c1.1,1.1,2.7,1.7,4.8,1.7c2.5,0,4.7-0.8,6.8-2.4l1.6,3.8
			c-1.1,0.9-2.4,1.5-3.9,2.1c-1.5,0.5-3.1,0.8-4.7,0.8c-3.7,0-6.5-1-8.6-3.1s-3.1-4.9-3.1-8.5c0-2.3,0.5-4.3,1.4-6.1
			c0.9-1.8,2.2-3.2,3.9-4.1s3.5-1.5,5.6-1.5c3.1,0,5.5,1,7.3,3s2.7,4.7,2.7,8.2v0.8H636.6z M623.2,86.3c-0.9,0.9-1.5,2.1-1.8,3.8
			h10.4c-0.2-1.7-0.7-3-1.5-3.8c-0.8-0.9-2-1.3-3.5-1.3C625.3,85,624.1,85.4,623.2,86.3z"/>
		<path d="M648.2,81.6h14.7V104h-5.5V85.8h-9.2V104h-5.5V85.8h-4.3v-4.2h4.3v-2.3c0-2,0.3-3.6,0.9-4.8c0.6-1.2,1.6-2,3-2.5
			s3.3-0.8,5.7-0.8h1.6v4.1h-1.1c-1.4,0-2.4,0.1-3.1,0.3c-0.7,0.2-1.1,0.7-1.3,1.3c-0.2,0.6-0.4,1.6-0.4,3v1.7H648.2z M657,71.2h6.2
			v5.6H657V71.2z"/>
		<path d="M689.7,90.2V104h-5.5V90.5c0-1.8-0.3-3.1-1-3.9s-1.7-1.2-3.1-1.2c-1.7,0-3,0.5-4.1,1.6c-1,1.1-1.5,2.5-1.5,4.3V104H669V88
			c0-2.4-0.1-4.5-0.4-6.3h5.2l0.4,3.7c0.8-1.4,1.8-2.4,3.1-3.1s2.8-1.1,4.5-1.1C687,81,689.7,84.1,689.7,90.2z"/>
		<path d="M715.1,93.1h-15.4c0.1,2.4,0.7,4.2,1.8,5.3c1.1,1.1,2.7,1.7,4.8,1.7c2.5,0,4.7-0.8,6.8-2.4l1.6,3.8
			c-1.1,0.9-2.4,1.5-3.9,2.1c-1.5,0.5-3.1,0.8-4.7,0.8c-3.7,0-6.5-1-8.6-3.1s-3.1-4.9-3.1-8.5c0-2.3,0.5-4.3,1.4-6.1
			c0.9-1.8,2.2-3.2,3.9-4.1s3.5-1.5,5.6-1.5c3.1,0,5.5,1,7.3,3s2.7,4.7,2.7,8.2v0.8H715.1z M701.7,86.3c-0.9,0.9-1.5,2.1-1.8,3.8
			h10.4c-0.2-1.7-0.7-3-1.5-3.8c-0.8-0.9-2-1.3-3.5-1.3C703.8,85,702.6,85.4,701.7,86.3z"/>
		<path d="M751.9,83.3c1.2,1.5,1.9,3.8,1.9,6.9V104h-5.5V90.4c0-1.8-0.3-3-0.9-3.8c-0.6-0.8-1.5-1.2-2.9-1.2c-1.5,0-2.7,0.5-3.6,1.6
			c-0.9,1.1-1.3,2.6-1.3,4.4V104h-5.5V90.4c0-1.7-0.3-3-0.9-3.8c-0.6-0.8-1.6-1.2-2.9-1.2c-1.5,0-2.7,0.5-3.6,1.6
			c-0.9,1.1-1.3,2.6-1.3,4.4V104h-5.5V88c0-2.4-0.1-4.5-0.4-6.3h5.2l0.4,3.5c0.6-1.3,1.6-2.3,2.8-3.1c1.2-0.7,2.6-1.1,4.2-1.1
			c3.4,0,5.7,1.4,6.7,4.3c0.7-1.3,1.7-2.4,3-3.1c1.3-0.8,2.8-1.1,4.4-1.1C748.8,81,750.7,81.8,751.9,83.3z"/>
		<path d="M779.2,93.1h-15.4c0.1,2.4,0.7,4.2,1.8,5.3c1.1,1.1,2.7,1.7,4.8,1.7c2.5,0,4.7-0.8,6.8-2.4l1.6,3.8
			c-1.1,0.9-2.4,1.5-3.9,2.1c-1.5,0.5-3.1,0.8-4.7,0.8c-3.7,0-6.5-1-8.6-3.1s-3.1-4.9-3.1-8.5c0-2.3,0.5-4.3,1.4-6.1
			c0.9-1.8,2.2-3.2,3.9-4.1s3.5-1.5,5.6-1.5c3.1,0,5.5,1,7.3,3s2.7,4.7,2.7,8.2v0.8H779.2z M765.8,86.3c-0.9,0.9-1.5,2.1-1.8,3.8
			h10.4c-0.2-1.7-0.7-3-1.5-3.8c-0.8-0.9-2-1.3-3.5-1.3S766.7,85.4,765.8,86.3z"/>
		<path d="M804.7,90.2V104h-5.5V90.5c0-1.8-0.3-3.1-1-3.9s-1.7-1.2-3.1-1.2c-1.7,0-3,0.5-4.1,1.6c-1,1.1-1.5,2.5-1.5,4.3V104H784V88
			c0-2.4-0.1-4.5-0.4-6.3h5.2l0.4,3.7c0.8-1.4,1.8-2.4,3.1-3.1s2.8-1.1,4.5-1.1C802,81,804.7,84.1,804.7,90.2z"/>
		<path d="M817.7,85.8v10c0,2.6,1.2,3.9,3.7,3.9c0.7,0,1.4-0.1,2.2-0.4v4.4c-1,0.4-2.2,0.5-3.5,0.5c-2.5,0-4.5-0.7-5.8-2.1
			c-1.4-1.4-2-3.5-2-6.1V85.8H808v-4.2h4.3v-5.4l5.5-1.9v7.3h5.9v4.2H817.7z"/>
		<path d="M604.2,156c-1.7-0.9-3-2.3-3.9-4s-1.4-3.8-1.4-6.1s0.5-4.4,1.4-6.2c1-1.8,2.3-3.2,4.1-4.1c1.8-1,3.8-1.5,6.1-1.5
			c1.6,0,3.1,0.3,4.6,0.8s2.7,1.2,3.6,2.1l-1.5,3.9c-0.9-0.8-1.9-1.4-3-1.7s-2.1-0.6-3.1-0.6c-2,0-3.6,0.6-4.7,1.9
			c-1.1,1.3-1.7,3.1-1.7,5.4c0,2.4,0.6,4.2,1.7,5.4c1.1,1.2,2.7,1.9,4.7,1.9c1,0,2.1-0.2,3.1-0.6s2.1-1,3-1.8l1.5,3.9
			c-0.9,0.9-2.2,1.6-3.7,2.1s-3.1,0.8-4.7,0.8C607.9,157.5,605.9,157,604.2,156z"/>
		<path d="M626.5,156c-1.7-0.9-3.1-2.3-4-4.1s-1.4-3.8-1.4-6.2s0.5-4.4,1.4-6.2s2.3-3.1,4-4.1c1.7-0.9,3.7-1.4,6-1.4
			c2.2,0,4.2,0.5,5.9,1.4s3,2.3,4,4.1c0.9,1.8,1.4,3.8,1.4,6.2s-0.5,4.4-1.4,6.2s-2.3,3.1-4,4.1c-1.7,0.9-3.7,1.4-5.9,1.4
			C630.2,157.5,628.2,157,626.5,156z M636.8,151.3c1-1.2,1.5-3,1.5-5.5c0-2.4-0.5-4.2-1.5-5.5s-2.4-1.9-4.3-1.9
			c-1.9,0-3.3,0.6-4.3,1.9c-1,1.3-1.5,3.1-1.5,5.5s0.5,4.2,1.5,5.5c1,1.2,2.4,1.8,4.3,1.8C634.4,153.1,635.8,152.5,636.8,151.3z"/>
		<path d="M680.7,136.4c1.2,1.5,1.9,3.8,1.9,6.9V157H677v-13.6c0-1.8-0.3-3-0.9-3.8c-0.6-0.8-1.5-1.2-2.9-1.2
			c-1.5,0-2.7,0.5-3.6,1.6c-0.9,1.1-1.3,2.6-1.3,4.4v12.5h-5.5v-13.6c0-1.7-0.3-3-0.9-3.8c-0.6-0.8-1.6-1.2-2.9-1.2
			c-1.5,0-2.7,0.5-3.6,1.6c-0.9,1.1-1.3,2.6-1.3,4.4v12.5h-5.5v-16c0-2.4-0.1-4.5-0.4-6.3h5.2l0.4,3.5c0.6-1.3,1.6-2.3,2.8-3.1
			c1.2-0.7,2.6-1.1,4.2-1.1c3.4,0,5.7,1.4,6.7,4.3c0.7-1.3,1.7-2.4,3-3.1c1.3-0.8,2.8-1.1,4.4-1.1
			C677.5,134.2,679.4,134.9,680.7,136.4z"/>
		<path d="M706.3,135.6c1.5,1,2.7,2.4,3.5,4.2s1.3,3.8,1.3,6.1s-0.4,4.3-1.2,6.1c-0.8,1.7-2,3.1-3.5,4s-3.2,1.4-5.2,1.4
			c-1.6,0-3.1-0.3-4.3-1c-1.3-0.7-2.2-1.7-2.9-2.9v13.2h-5.5v-25.6c0-2.4-0.1-4.5-0.4-6.3h5.2l0.4,3.9c0.6-1.4,1.5-2.5,2.9-3.3
			c1.3-0.8,2.9-1.2,4.6-1.2C703.1,134.2,704.8,134.7,706.3,135.6z M703.9,151.3c1-1.2,1.5-3,1.5-5.3s-0.5-4.2-1.5-5.5s-2.4-2-4.3-2
			c-1.9,0-3.3,0.6-4.3,1.9c-1,1.3-1.5,3.1-1.5,5.4c0,2.3,0.5,4.1,1.5,5.4c1,1.3,2.4,1.9,4.3,1.9S702.9,152.5,703.9,151.3z"/>
		<path d="M737.2,134.7v22.4h-5.4v-3.6c-0.7,1.2-1.7,2.2-2.9,2.9c-1.3,0.7-2.7,1-4.3,1c-1.9,0-3.7-0.5-5.2-1.4s-2.7-2.3-3.5-4
			s-1.2-3.8-1.2-6.1s0.4-4.3,1.3-6.1c0.8-1.8,2-3.2,3.5-4.2s3.2-1.5,5.1-1.5c1.6,0,3.1,0.3,4.3,1c1.3,0.7,2.2,1.7,2.9,2.9v-3.4h5.4
			V134.7z M730.3,151.2c1-1.3,1.5-3.1,1.5-5.4c0-2.4-0.5-4.2-1.5-5.4c-1-1.3-2.4-1.9-4.3-1.9c-1.8,0-3.3,0.7-4.3,2s-1.5,3.1-1.5,5.5
			c0,2.3,0.5,4.1,1.5,5.3s2.5,1.9,4.3,1.9C727.9,153.1,729.3,152.5,730.3,151.2z"/>
		<path d="M764.1,143.4v13.7h-5.5v-13.5c0-1.8-0.3-3.1-1-3.9c-0.7-0.8-1.7-1.2-3.1-1.2c-1.7,0-3,0.5-4.1,1.6c-1,1.1-1.5,2.5-1.5,4.3
			v12.7h-5.5v-16c0-2.4-0.1-4.5-0.4-6.3h5.2l0.4,3.7c0.8-1.4,1.8-2.4,3.1-3.1c1.3-0.7,2.8-1.1,4.5-1.1
			C761.4,134.2,764.1,137.2,764.1,143.4z"/>
		<path d="M791.1,134.7l-10.4,23.9c-1.2,2.8-2.7,4.8-4.5,6.1s-4.1,2.1-6.8,2.5l-1.2-4.3c2.1-0.5,3.7-1.1,4.7-1.8s1.9-1.8,2.5-3.2
			l0.7-1.6l-9.3-21.6h5.8l6.4,16.1l6.6-16.1L791.1,134.7L791.1,134.7z"/>
	</g>
</g>
</svg>
