<svg id="Layer_1" data-name="Layer 1" xmlns="http://www.w3.org/2000/svg" xmlns:xlink="http://www.w3.org/1999/xlink" viewBox="0 0 1133.08 283.46"><defs><style>.cls-1{fill:none;}.cls-2{fill:#fff;}.cls-3{clip-path:url(#clip-path);}</style><clipPath id="clip-path" transform="translate(-71.25 -141.73)"><rect class="cls-1" width="1275.59" height="566.93"/></clipPath></defs><title>alfa-large</title><polygon class="cls-2" points="85.04 42.71 0 282.69 91.25 282.69 106.4 233.37 189.11 233.37 202.7 283.46 297.83 283.46 260.17 175.9 119.99 175.9 163.09 42.71 85.04 42.71"/><polygon class="cls-2" points="204.64 0 156.88 148.72 252.79 148.72 204.64 0"/><path class="cls-2" d="M494.51,336.27h18.64l-8.93-27.57Zm-12-45.82h44.66l29.9,85H522.86L517,357.24H489.85l-5.05,18.25H452.57Z" transform="translate(-71.25 -141.73)"/><rect class="cls-2" x="492.37" y="142.12" width="30.68" height="91.25"/><g class="cls-3"><path class="cls-2" d="M613.33,330.06H602.07V311.81h11.26V306c.39-17.09,11.26-23.69,27.18-23.69a72.75,72.75,0,0,1,18.64,2.33v17.08a19,19,0,0,0-7-1.16c-4.27,0-7.76,2.72-7.76,7.77v3.49h13.2v18.25H644.4v45.43H612.55Z" transform="translate(-71.25 -141.73)"/><path class="cls-2" d="M704.58,346.76h-2.71c-6.22,0-13.59.39-13.59,7.38,0,4.66,2.33,6.21,7.37,6.21,6.22,0,9.71-5.83,9.71-11.26v-2.33Zm-37.27-32.62c8.93-2.72,14.75-3.49,26.79-3.49,17.47,0,38.44,3.49,38.44,26v38.45H703.81v-8.94c-3.89,7.38-12,10.88-20.58,10.88-12,0-23.3-5.05-23.3-18.64,0-19.42,17.47-23.3,32.23-23.3a58.09,58.09,0,0,1,12,1.16c0-7.76-8.55-8.93-15.92-8.93s-14.76,2.33-21,5.05Z" transform="translate(-71.25 -141.73)"/><rect class="cls-2" x="689.25" y="196.09" width="31.06" height="8.93"/><path class="cls-2" d="M861.07,323.07c-4.66-1.55-8.54-2.72-12.42-2.72-12.43,0-19.81,11.26-19.81,23.3,0,11.26,5.83,23.3,20.58,23.3a25.13,25.13,0,0,0,12.43-3.49l.39,10.09c-4.66,2.33-10.1,2.72-14,2.72-18.64,0-31.07-14.76-31.07-32.23,0-18.64,12.43-32.23,31.07-32.23a43,43,0,0,1,13.59,2.33Z" transform="translate(-71.25 -141.73)"/><path class="cls-2" d="M900.68,367.34c13.2,0,19.41-12,19.41-23.3,0-12-7.37-23.3-19.41-23.3-12.43,0-19.42,11.26-19.42,23.3,0,10.87,6.22,23.3,19.42,23.3m0-56.31c18.64,0,31.06,13.6,31.06,32.23,0,17.48-13.2,32.23-31.06,32.23-18.64,0-31.06-14.75-31.06-32.23C869.23,324.63,882,311,900.68,311" transform="translate(-71.25 -141.73)"/><rect class="cls-2" x="876.8" y="142.12" width="11.26" height="91.25"/><rect class="cls-2" x="907.86" y="142.12" width="11.26" height="91.25"/><path class="cls-2" d="M1050.57,337.83c0-9.71-5.83-17.09-15.15-17.09-11.26,0-15.92,8.93-16.31,17.09Zm7.37,34.56c-4.66,1.55-8.93,3.88-19.41,3.88-22.13,0-31.84-13.59-31.84-33.39,0-18.26,11.26-31.07,28.73-31.07,20.58,0,27.18,15.14,27.18,34.95h-44.26c0,12.42,9.71,20.58,20.58,20.58,7.38,0,16.31-3.88,18.64-6.21Z" transform="translate(-71.25 -141.73)"/><path class="cls-2" d="M1121.63,344.82c0-13.21-5.83-23.69-18.25-23.69-11.26,0-17.09,12.43-17.09,23.3,0,12,7,22.13,17.09,22.13,10.87-.77,18.25-10.48,18.25-21.74m11.26,27.57c0,18.64-9.71,29.51-31.84,29.51-7,0-12.43-.39-22.14-4.66l1.17-10.87c8.54,3.88,14,5.82,22.13,5.82,12,0,19.42-7.77,19.42-21.36v-6.21a27.36,27.36,0,0,1-20.58,9.71c-17.48,0-26.8-14.76-26.8-30.68s8.93-33,27.57-33c10.88,0,17.09,3.88,20.58,10.87v-8.93h10.88Z" transform="translate(-71.25 -141.73)"/><path class="cls-2" d="M1192.3,337.83c0-9.71-5.83-17.09-15.15-17.09-11.26,0-15.92,8.93-16.3,17.09Zm7.38,34.56c-4.66,1.55-8.94,3.88-19.42,3.88-22.13,0-31.84-13.59-31.84-33.39,0-18.26,11.26-31.07,28.73-31.07,20.58,0,27.19,15.14,27.19,34.95h-44.27c0,12.42,9.71,20.58,20.58,20.58,7.38,0,16.31-3.88,18.64-6.21v11.26Z" transform="translate(-71.25 -141.73)"/></g></svg>