<svg id="Layer_1" data-name="Layer 1" xmlns="http://www.w3.org/2000/svg" viewBox="0 0 606.23 188.7"><defs><style>.cls-1{fill:#fff;}</style></defs><path class="cls-1" d="M377.76,194H345.83v-59.5c0-1.33.06-2.67,0-4-.63-10.51-4.36-16-11.74-17.46-10.37-2-20.38,2.63-23.95,11.77a36.49,36.49,0,0,0-2.19,12.63c-.23,18.64-.1,37.27-.1,56.34h-31.9V90.08h30.94v13.78c6.66-8.23,13.78-13.48,22.83-15.29,14.3-2.86,28-2.32,38.85,9.24,6.32,6.76,8.87,15.49,9.05,24.35C378.07,145.93,377.76,169.72,377.76,194Z" transform="translate(-92.98 -43.89)"/><path class="cls-1" d="M492.65,90c10,0,19.36-.16,28.66.18,1.45,0,3.45,2.16,4.13,3.77,7.21,17.17,14.22,34.44,21.29,51.67.54,1.33,1.14,2.65,2.13,4.91,3.29-8,6.25-15.14,9.2-22.31,4.73-11.54,9.54-23,14.1-34.66,1.1-2.81,2.58-3.69,5.51-3.63,8.83.19,17.65.07,27,.07-.46,1.49-.74,2.7-1.2,3.83Q576,161,548.51,228.23c-1.35,3.33-3.06,4.46-6.58,4.36-8.48-.25-17-.08-26.08-.08a41.27,41.27,0,0,1,1.16-4c4.75-11.72,9.47-23.44,14.38-35.09a10,10,0,0,0,.13-8.46c-12.36-29.8-24.51-59.69-36.72-89.56C494.18,93.9,493.59,92.37,492.65,90Z" transform="translate(-92.98 -43.89)"/><path class="cls-1" d="M688.83,120c-10-3.33-19.22-7.09-28.79-9.26-4.69-1.06-10.31.11-15,1.72-2.39.82-4.55,4.65-5.23,7.5-.86,3.55,2.26,5.82,5.43,6.72,8,2.25,16.09,4.11,24.12,6.24a98.71,98.71,0,0,1,10.93,3.39c11.55,4.57,18.43,12.66,18.9,25.56.48,13.25-5.28,22.67-17,28.55-11.28,5.64-23.39,6.16-35.6,5.38-14.1-.89-27.54-4.16-39.83-12.52l8.55-22.34c9.75,6.12,19.94,10.44,31.15,11.47a70.57,70.57,0,0,0,15.84-.43c4.07-.54,7.61-2.75,7.87-7.66s-3.16-7.13-7.23-8.19c-8.2-2.15-16.5-3.91-24.71-6a93,93,0,0,1-10.42-3.37c-22.83-8.78-21.48-38.13-6.13-49.42,11.19-8.23,23.88-10.66,37.29-10.08a70.7,70.7,0,0,1,34.44,10.62c2.62,1.61,3.33,3,2,6C692.84,109.41,690.75,115.19,688.83,120Z" transform="translate(-92.98 -43.89)"/><path class="cls-1" d="M483,100.31c-2.9,7.19-5.62,14-8.52,21.17-3-1.68-5.64-3.31-8.4-4.72-9.51-4.87-19.43-7.91-30.27-6-1.93.35-4.3.75-5.52,2-1.9,2-4.09,4.79-4.08,7.23,0,2.12,2.51,5.36,4.62,6.11,6.86,2.44,14.1,3.81,21.1,5.88,6.36,1.87,13,3.39,18.82,6.37,17.67,9,20.15,34.4,5,47.24-7.28,6.15-16,8.56-25.21,9.84-19.54,2.7-43.83-2.38-57.41-12.45l8.34-21.9c2.85,1.5,5.43,2.91,8,4.23,10.45,5.25,21.5,8.07,33.22,7.54,2.93-.13,6.29-.5,8.59-2s4.67-4.67,4.75-7.17c.07-2.19-2.55-5.67-4.77-6.5-6.18-2.33-12.8-3.48-19.19-5.28-6.55-1.85-13.23-3.43-19.5-6-20.36-8.27-19.25-35-7.82-45.69C416,89.81,429.48,86.88,444,87.25A67.69,67.69,0,0,1,483,100.31Z" transform="translate(-92.98 -43.89)"/><path class="cls-1" d="M195.61,44c-1.72,4.28-3.11,7.79-4.54,11.29q-27.52,67.2-55,134.41c-1.43,3.53-3.23,4.64-7,4.56-11.82-.25-23.64-.09-36.18-.09.67-1.88,1.13-3.35,1.71-4.76Q123.51,119,152.27,48.51c1.39-3.44,3-4.71,6.84-4.62C170.92,44.19,182.75,44,195.61,44Z" transform="translate(-92.98 -43.89)"/><path class="cls-1" d="M204.88,48.42l62,145.74c-14.44,0-28.06.07-41.67-.13-1.15,0-2.83-1.55-3.33-2.76q-18.58-44.9-36.88-89.91a6,6,0,0,1,0-4.15C191.38,81.34,197.89,65.54,204.88,48.42Z" transform="translate(-92.98 -43.89)"/></svg>