<?xml version="1.0" standalone="no"?>
<!DOCTYPE svg PUBLIC "-//W3C//DTD SVG 20010904//EN"
 "http://www.w3.org/TR/2001/REC-SVG-20010904/DTD/svg10.dtd">
<svg version="1.0" xmlns="http://www.w3.org/2000/svg"
 width="423.000000pt" height="119.000000pt" viewBox="0 0 423.000000 119.000000"
 preserveAspectRatio="xMidYMid meet">

<g transform="translate(0.000000,119.000000) scale(0.100000,-0.100000)"
fill="#000000" stroke="none">
<path d="M936 967 c-38 -12 -38 -12 84 -35 67 -13 124 -21 127 -18 11 11 -28
43 -66 54 -47 15 -94 14 -145 -1z"/>
<path d="M2155 963 c-4 -10 -38 -103 -76 -208 -38 -104 -76 -195 -84 -201 -8
-6 -15 -27 -15 -48 0 -33 3 -36 28 -36 50 0 74 21 95 83 l19 58 86 -3 86 -3
18 -49 c23 -66 37 -78 97 -84 42 -4 51 -2 51 11 0 27 -22 67 -37 67 -7 0 -15
6 -18 13 -13 43 -129 358 -140 385 -13 29 -19 32 -59 32 -32 0 -46 -5 -51 -17z
m86 -190 c16 -49 29 -89 29 -90 0 -2 -28 -3 -63 -3 l-63 0 30 95 c17 52 32 92
35 90 2 -3 17 -44 32 -92z"/>
<path d="M2890 940 c0 -39 1 -40 35 -40 34 0 35 1 35 40 0 39 -1 40 -35 40
-34 0 -35 -1 -35 -40z"/>
<path d="M1308 905 c4 -31 6 -32 75 -45 40 -7 110 -21 157 -30 l84 -18 56 26
55 26 -105 18 c-58 10 -134 23 -170 28 -36 6 -85 14 -110 18 l-46 8 4 -31z"/>
<path d="M688 912 c-62 -14 -91 -32 -51 -32 9 0 39 -7 67 -15 28 -8 91 -26
139 -40 l88 -26 81 28 c79 27 80 28 51 40 -16 6 -49 14 -73 18 -25 4 -47 8
-51 10 -10 7 -153 35 -169 34 -8 -1 -45 -8 -82 -17z"/>
<path d="M3080 886 c0 -39 -3 -45 -22 -48 -18 -2 -24 -11 -26 -35 -3 -30 -1
-33 22 -33 l26 0 0 -97 c0 -146 34 -195 135 -197 39 -1 40 0 43 37 3 34 1 37
-22 37 -51 0 -66 30 -66 130 l0 90 40 0 c39 0 40 1 40 35 0 34 -1 35 -40 35
l-40 0 0 45 0 45 -45 0 -45 0 0 -44z"/>
<path d="M327 830 c-65 -16 -120 -30 -123 -32 -3 -4 73 -39 376 -175 41 -19
88 -40 105 -48 28 -13 29 -13 40 19 17 50 54 105 83 124 l25 16 -24 7 c-13 4
-94 30 -179 57 -85 28 -162 53 -170 55 -8 3 -68 -8 -133 -23z"/>
<path d="M2390 833 c0 -21 26 -73 36 -73 12 0 25 -31 92 -210 l28 -75 53 0 52
0 51 135 c27 74 56 140 64 146 8 6 14 28 14 48 0 33 -2 36 -28 36 -16 0 -36
-6 -45 -12 -17 -13 -53 -99 -86 -205 -18 -59 -26 -66 -34 -25 -10 57 -70 208
-89 225 -20 16 -108 25 -108 10z"/>
<path d="M2840 801 c0 -33 4 -40 23 -43 21 -3 22 -7 25 -135 3 -151 6 -157 85
-151 41 3 42 4 45 40 3 32 0 37 -20 40 -23 3 -23 6 -26 133 -3 149 -6 155 -84
155 l-48 0 0 -39z"/>
<path d="M3386 817 c-90 -51 -112 -195 -44 -282 47 -60 156 -83 235 -50 59 25
65 33 46 63 -9 15 -17 28 -18 29 -1 2 -19 -7 -41 -18 -69 -36 -149 -8 -169 59
-6 22 -6 22 119 22 l126 0 0 43 c0 54 -26 106 -69 134 -47 31 -131 31 -185 0z
m138 -58 c14 -11 26 -29 26 -40 0 -17 -8 -19 -75 -19 -78 0 -90 8 -62 42 32
41 73 47 111 17z"/>
<path d="M3805 828 c-32 -17 -76 -61 -91 -90 -17 -32 -19 -131 -3 -161 59
-115 196 -141 317 -59 12 8 11 15 -2 40 l-16 31 -36 -21 c-70 -41 -149 -20
-181 47 -33 69 22 155 99 155 26 0 58 -22 58 -41 0 -5 16 -9 35 -9 33 0 35 2
35 33 0 37 -6 47 -40 70 -28 20 -143 23 -175 5z"/>
<path d="M1178 792 l-73 -34 40 -13 c22 -7 119 -34 215 -60 96 -26 188 -51
203 -56 24 -7 42 -1 114 38 l86 46 -124 28 c-68 16 -146 33 -174 39 -27 6 -87
19 -132 29 l-81 18 -74 -35z"/>
<path d="M1040 630 c0 -95 120 -238 286 -338 83 -51 77 -52 243 49 83 51 151
95 151 99 0 3 -82 32 -182 65 -101 32 -250 80 -332 107 -82 26 -153 48 -158
48 -4 0 -8 -14 -8 -30z"/>
<path d="M1980 300 c0 -33 4 -60 10 -60 6 0 10 27 10 60 0 33 -4 60 -10 60 -6
0 -10 -27 -10 -60z"/>
<path d="M2040 300 c0 -68 17 -82 22 -17 l3 42 29 -42 c41 -61 56 -57 56 17 0
46 -3 60 -14 60 -10 0 -16 -13 -18 -37 l-3 -38 -23 38 c-36 56 -52 49 -52 -23z"/>
<path d="M2190 300 c0 -33 4 -60 10 -60 6 0 10 11 10 25 0 18 5 25 20 25 11 0
20 5 20 10 0 6 -9 10 -20 10 -11 0 -20 7 -20 15 0 9 9 15 25 15 14 0 25 5 25
10 0 6 -16 10 -35 10 l-35 0 0 -60z"/>
<path d="M2300 301 c0 -34 4 -61 10 -61 6 0 10 11 10 25 0 14 4 25 8 25 5 0
14 -11 20 -25 6 -14 19 -25 27 -25 11 0 13 4 8 13 -4 6 -8 32 -8 57 0 45 0 45
-37 48 l-38 3 0 -60z m53 24 c1 -5 -6 -11 -15 -13 -11 -2 -18 3 -18 13 0 17
30 18 33 0z"/>
<path d="M2434 308 c-10 -29 -20 -56 -22 -60 -2 -4 3 -8 11 -8 8 0 17 7 21 15
3 8 15 15 26 15 11 0 23 -7 26 -15 4 -8 12 -15 20 -15 10 0 8 14 -8 60 -28 76
-47 79 -74 8z m46 2 c0 -11 -6 -20 -14 -20 -9 0 -12 7 -9 20 3 11 9 20 14 20
5 0 9 -9 9 -20z"/>
<path d="M2618 348 c-2 -23 -5 -33 -12 -50 -17 -39 -3 -53 52 -54 41 -1 50 1
42 11 -6 7 -7 21 -3 30 5 15 3 17 -12 12 -11 -5 -22 -1 -31 10 -21 28 -17 45
7 38 15 -5 19 -4 15 4 -10 15 -56 14 -58 -1z m28 -86 c-10 -10 -29 15 -21 28
6 9 10 8 17 -4 6 -10 7 -20 4 -24z"/>
<path d="M2790 331 c0 -16 -3 -43 -6 -60 -4 -18 -2 -31 4 -31 5 0 13 17 17 37
6 34 8 36 20 20 16 -22 24 -21 41 1 12 15 13 13 14 -20 0 -28 4 -38 16 -38 11
0 14 5 10 16 -3 9 -6 36 -6 60 0 32 -4 44 -15 44 -8 0 -15 -4 -15 -8 0 -5 -6
-17 -14 -27 -14 -19 -15 -19 -27 8 -16 36 -39 35 -39 -2z"/>
<path d="M2940 300 c0 -47 3 -60 15 -60 12 0 15 13 15 60 0 47 -3 60 -15 60
-12 0 -15 -13 -15 -60z"/>
<path d="M3010 300 l0 -60 40 0 c29 0 40 4 40 15 0 10 -10 15 -30 15 -29 0
-30 2 -30 45 0 25 -4 45 -10 45 -6 0 -10 -27 -10 -60z"/>
<path d="M3120 300 c0 -47 3 -60 15 -60 12 0 15 13 15 60 0 47 -3 60 -15 60
-12 0 -15 -13 -15 -60z"/>
<path d="M3190 300 l0 -60 40 0 c29 0 40 4 40 15 0 10 -10 15 -30 15 -16 0
-30 5 -30 10 0 6 9 10 19 10 28 0 36 18 9 22 -35 5 -34 28 1 28 17 0 31 5 31
10 0 6 -18 10 -40 10 l-40 0 0 -60z"/>
<path d="M3310 312 c0 -53 12 -72 46 -72 30 0 46 22 52 75 4 37 2 45 -12 45
-12 0 -16 -10 -16 -44 0 -43 -11 -58 -37 -49 -8 3 -13 22 -13 49 0 24 -4 44
-10 44 -5 0 -10 -22 -10 -48z"/>
</g>
</svg>
