<?xml version="1.0" standalone="no"?>
<!DOCTYPE svg PUBLIC "-//W3C//DTD SVG 20010904//EN"
 "http://www.w3.org/TR/2001/REC-SVG-20010904/DTD/svg10.dtd">
<svg version="1.0" xmlns="http://www.w3.org/2000/svg"
 width="500.000000pt" height="208.000000pt" viewBox="0 0 500.000000 208.000000"
 preserveAspectRatio="xMidYMid meet">

<g transform="translate(0.000000,208.000000) scale(0.100000,-0.100000)"
fill="#000000" stroke="none">
<path d="M1101 1990 c-189 -49 -347 -92 -351 -97 -9 -9 505 -541 515 -532 5 5
205 702 205 715 0 8 -29 1 -369 -86z m224 -260 c-43 -154 -82 -280 -86 -280
-11 0 -399 403 -400 415 0 9 551 155 560 148 2 -2 -31 -129 -74 -283z"/>
<path d="M1795 2028 c-8 -50 -45 -308 -45 -319 0 -5 38 -9 85 -9 79 0 87 2
116 28 26 24 32 36 32 72 0 32 -6 48 -20 60 -20 16 -20 16 8 48 28 32 37 71
23 107 -11 28 -60 45 -128 45 l-65 0 -6 -32z m123 -40 c32 -32 -9 -95 -55 -86
-14 3 -17 11 -14 43 1 22 5 43 8 48 7 11 48 8 61 -5z m-14 -154 c9 -8 16 -22
16 -30 0 -25 -39 -54 -71 -54 -30 0 -31 2 -25 31 3 17 6 40 6 50 0 24 51 26
74 3z"/>
<path d="M2095 2028 c-5 -31 -45 -319 -45 -326 0 -2 15 -2 32 0 l33 3 22 150
c30 206 30 205 -7 205 -25 0 -30 -4 -35 -32z"/>
<path d="M2325 2046 c-94 -41 -141 -173 -96 -273 23 -49 55 -73 109 -80 80
-11 151 31 188 111 59 127 -5 257 -126 256 -25 -1 -59 -7 -75 -14z m122 -70
c25 -22 28 -31 28 -85 0 -54 -3 -63 -34 -94 -38 -40 -75 -51 -111 -32 -72 37
-63 169 14 216 41 25 69 24 103 -5z"/>
<path d="M2645 2048 c-5 -16 -45 -312 -45 -333 0 -10 10 -15 29 -15 32 0 34 6
47 120 3 36 10 71 14 79 5 9 32 -23 84 -98 42 -61 81 -111 86 -111 5 0 12 10
15 23 6 27 45 316 45 334 0 8 -12 13 -29 13 -33 0 -33 0 -51 -134 -6 -44 -12
-81 -13 -82 -2 -2 -38 46 -80 106 -75 106 -93 124 -102 98z"/>
<path d="M3020 2056 c0 -2 -11 -81 -25 -176 -14 -95 -25 -174 -25 -176 0 -2
15 -4 33 -4 l33 0 22 163 c28 205 29 197 -8 197 -16 0 -30 -2 -30 -4z"/>
<path d="M3240 2041 c-111 -59 -144 -228 -61 -312 49 -49 145 -51 198 -4 26
22 27 25 11 41 -16 16 -21 16 -60 3 -51 -16 -65 -14 -95 13 -49 46 -38 134 24
188 37 33 38 33 130 14 46 -9 57 20 19 53 -35 29 -115 32 -166 4z"/>
<path d="M631 1871 c-36 -9 -66 -21 -68 -27 -4 -13 113 -128 120 -117 2 4 12
35 21 68 10 33 19 68 22 78 7 21 -9 21 -95 -2z m58 -60 c-7 -28 -16 -51 -19
-51 -3 0 -23 18 -44 39 l-39 40 44 11 c24 6 49 12 54 14 17 5 18 -1 4 -53z"/>
<path d="M447 1825 c-87 -24 -86 -21 -32 -75 27 -28 52 -47 56 -42 7 7 39 109
39 124 0 10 -3 10 -63 -7z m28 -47 c-10 -44 -11 -45 -40 -18 -31 29 -31 37 -2
43 48 9 49 9 42 -25z"/>
<path d="M200 1760 c-13 -8 -11 -14 12 -37 31 -30 35 -29 48 16 8 29 7 31 -18
31 -15 0 -34 -5 -42 -10z"/>
<path d="M33 1723 c-30 -6 -29 -24 1 -52 26 -25 30 -22 41 27 7 34 6 34 -42
25z"/>
<path d="M587 1690 c-38 -10 -71 -21 -74 -24 -8 -8 98 -127 110 -123 12 4 57
154 49 162 -7 6 -3 7 -85 -15z m63 -13 c0 -2 -7 -27 -16 -56 l-16 -54 -39 39
c-21 21 -39 41 -39 45 0 4 17 11 38 17 38 10 72 14 72 9z"/>
<path d="M371 1636 c-25 -6 -46 -16 -48 -22 -5 -14 83 -98 95 -90 5 3 15 25
21 50 6 24 13 51 17 60 7 19 -18 20 -85 2z m54 -38 c-10 -48 -18 -51 -49 -19
l-29 30 34 9 c50 15 51 15 44 -20z"/>
<path d="M163 1583 c-28 -5 -29 -24 -5 -46 25 -23 39 -21 46 6 13 48 10 50
-41 40z"/>
<path d="M1612 1519 c-36 -11 -72 -59 -72 -97 0 -33 27 -76 59 -95 45 -26 64
-54 57 -81 -8 -34 -45 -42 -87 -21 -31 16 -33 16 -46 -1 -18 -24 -17 -31 10
-48 88 -56 197 -7 197 88 -1 47 -7 57 -72 109 -52 41 -60 70 -28 87 15 8 30 8
56 0 41 -14 64 -8 64 18 0 34 -80 58 -138 41z"/>
<path d="M2791 1349 c-56 -99 -101 -182 -101 -185 0 -2 16 -4 35 -4 34 0 36 2
90 110 30 61 59 110 63 110 5 0 19 -48 33 -107 l24 -108 33 -3 c21 -2 32 1 32
10 1 25 -93 358 -101 358 -4 0 -52 -81 -108 -181z"/>
<path d="M3203 1521 c-123 -30 -190 -179 -132 -292 19 -39 79 -78 119 -79 32
0 87 21 109 41 l23 22 -20 20 c-20 19 -22 19 -46 4 -111 -73 -189 109 -85 198
34 28 86 33 119 13 22 -14 53 -2 58 23 6 31 -87 63 -145 50z"/>
<path d="M518 1503 c-32 -8 -58 -20 -58 -27 0 -19 109 -121 118 -111 9 10 42
122 42 143 0 15 -31 14 -102 -5z"/>
<path d="M1836 1498 c-13 -59 -26 -172 -26 -222 0 -47 4 -61 29 -88 26 -29 35
-33 80 -32 99 1 135 51 162 227 10 67 19 125 19 130 0 4 -15 7 -33 7 l-34 0
-17 -122 c-18 -130 -26 -152 -56 -168 -31 -17 -59 -11 -76 14 -14 23 -14 34 0
131 22 145 22 145 -14 145 -23 0 -31 -5 -34 -22z"/>
<path d="M2190 1512 c0 -10 -38 -290 -45 -324 -4 -26 -2 -28 29 -28 l34 0 8
68 c8 63 11 67 36 70 24 3 27 -1 43 -55 9 -32 18 -64 20 -70 2 -7 18 -13 35
-13 35 0 37 11 11 85 l-17 49 38 37 c35 33 38 41 38 88 0 42 -5 57 -25 76 -22
23 -32 25 -115 25 -49 0 -90 -3 -90 -8z m160 -71 c15 -29 13 -39 -15 -66 -16
-17 -35 -25 -60 -25 -33 0 -35 2 -35 33 0 66 8 77 56 77 33 0 46 -5 54 -19z"/>
<path d="M2515 1488 c-8 -50 -45 -308 -45 -319 0 -5 13 -9 29 -9 33 0 36 6 46
88 l7 52 58 0 c44 0 59 4 64 16 15 38 8 44 -54 44 l-61 0 6 38 c11 63 9 62 85
62 l70 0 0 30 0 30 -100 0 -99 0 -6 -32z"/>
<path d="M3425 1498 c-6 -32 -45 -306 -45 -324 0 -11 21 -14 105 -14 l105 0 0
30 0 30 -71 0 -71 0 6 31 c3 17 6 38 6 45 0 10 16 14 59 14 44 0 60 4 65 16
15 38 8 44 -55 44 -59 0 -61 1 -55 23 3 12 6 32 6 44 0 20 5 22 73 25 70 3 72
4 75 31 l3 27 -100 0 c-96 0 -101 -1 -106 -22z"/>
<path d="M328 1453 c-32 -8 -58 -18 -58 -22 0 -16 90 -95 98 -86 10 12 32 86
32 109 0 19 2 19 -72 -1z"/>
<path d="M477 1320 c-38 -10 -71 -21 -74 -24 -8 -8 108 -126 118 -120 8 5 49
131 49 153 0 14 -10 13 -93 -9z"/>
<path d="M1160 1324 c-30 -8 -180 -47 -332 -86 -220 -56 -278 -74 -278 -87 1
-26 483 -516 501 -509 17 7 203 645 197 676 -4 22 -22 23 -88 6z"/>
<path d="M2015 971 c-22 -10 -50 -29 -62 -42 -77 -84 -67 -250 17 -294 41 -21
118 -19 158 5 35 21 40 41 17 60 -12 10 -22 9 -49 -4 -45 -21 -60 -20 -91 7
-28 24 -42 79 -31 121 9 37 62 94 95 101 18 4 42 -1 65 -11 34 -17 38 -17 53
-2 21 22 12 41 -30 61 -45 22 -92 21 -142 -2z"/>
<path d="M2650 988 c0 -2 -11 -82 -25 -178 -14 -96 -25 -179 -25 -183 0 -5 15
-7 33 -5 l32 3 12 90 c6 50 12 98 12 108 1 28 14 15 91 -98 39 -58 77 -105 84
-105 10 0 20 50 37 178 l24 177 -28 3 c-16 2 -31 2 -32 0 -2 -2 -9 -46 -16
-98 -6 -52 -14 -98 -18 -102 -3 -4 -40 41 -81 99 -41 59 -81 108 -87 111 -7 2
-13 2 -13 0z"/>
<path d="M3109 980 c-81 -24 -132 -100 -133 -194 0 -107 52 -166 148 -166 111
0 193 97 184 218 -8 115 -92 175 -199 142z m118 -96 c37 -57 8 -153 -58 -188
-46 -25 -83 -16 -110 27 -39 62 -10 153 60 189 40 20 84 9 108 -28z"/>
<path d="M3720 974 c-77 -33 -120 -101 -120 -190 0 -106 51 -164 143 -164 63
0 120 30 154 82 38 56 45 166 14 216 -42 66 -117 88 -191 56z m128 -94 c25
-38 28 -67 8 -113 -27 -64 -86 -98 -136 -77 -28 12 -60 62 -60 94 0 32 33 97
59 115 53 38 94 32 129 -19z"/>
<path d="M4100 974 c-45 -20 -68 -41 -91 -86 -44 -87 -33 -185 26 -237 31 -27
43 -31 91 -31 30 0 70 6 88 14 30 12 34 19 40 62 4 27 9 61 12 77 6 27 5 27
-50 27 -56 0 -56 0 -56 -30 0 -23 5 -30 19 -30 15 0 18 -5 13 -22 -18 -72
-122 -38 -137 45 -9 48 10 101 46 132 42 35 71 40 114 19 33 -15 38 -15 52 -1
22 21 10 45 -32 62 -44 19 -90 18 -135 -1z"/>
<path d="M4838 974 c-35 -19 -48 -43 -48 -91 0 -46 18 -74 65 -103 45 -28 59
-53 45 -79 -15 -28 -45 -34 -79 -17 -40 21 -48 20 -57 -6 -11 -34 27 -58 92
-58 45 0 59 5 86 29 28 25 33 36 33 76 0 49 3 45 -94 127 -35 30 -38 40 -14
63 11 12 25 15 47 11 65 -14 71 -12 71 14 0 45 -89 66 -147 34z"/>
<path d="M1380 955 c0 -22 4 -25 35 -25 28 0 35 -4 35 -20 0 -19 -23 -183 -35
-257 -6 -31 -4 -33 25 -33 17 0 33 6 35 13 3 6 13 71 24 144 11 73 22 137 26
143 3 5 22 10 41 10 30 0 34 3 34 25 l0 25 -110 0 -110 0 0 -25z"/>
<path d="M1638 805 c-13 -97 -22 -178 -20 -180 3 -3 50 -5 104 -5 78 0 98 3
98 14 0 8 3 21 6 30 5 14 -4 16 -65 16 l-71 0 0 31 c0 55 15 69 74 69 49 0 54
2 58 25 5 24 4 25 -53 25 -56 0 -59 1 -59 24 0 14 4 36 10 50 8 23 15 25 77
28 62 3 68 5 71 26 3 22 2 22 -101 22 l-104 0 -25 -175z"/>
<path d="M2275 968 c-5 -18 -45 -309 -45 -330 0 -13 8 -18 30 -18 26 0 30 4
35 38 3 20 9 55 13 77 l7 40 70 0 c79 0 72 10 60 -97 l-7 -58 31 0 c24 0 32 5
35 23 5 25 46 318 46 330 0 4 -13 7 -30 7 -16 0 -30 -3 -31 -7 -1 -5 -6 -37
-13 -73 l-11 -65 -70 0 c-79 0 -75 -6 -61 93 l7 52 -31 0 c-17 0 -32 -6 -35
-12z"/>
<path d="M3405 958 c-5 -23 -45 -316 -45 -330 0 -4 43 -8 95 -8 l95 0 0 30 0
30 -60 0 -61 0 6 33 c11 64 35 237 35 252 0 10 -10 15 -30 15 -23 0 -31 -5
-35 -22z"/>
<path d="M4351 818 c-12 -90 -23 -170 -24 -178 -1 -10 9 -16 31 -18 18 -2 32
1 32 7 0 17 40 303 45 329 5 19 1 22 -28 22 l-34 0 -22 -162z"/>
<path d="M4512 818 c-12 -90 -22 -171 -22 -180 0 -16 11 -18 99 -18 81 0 100
3 105 16 15 39 8 44 -65 44 l-72 0 7 42 c4 22 9 45 12 50 3 4 29 8 59 8 39 0
54 4 59 16 11 29 6 33 -51 36 l-58 3 1 33 c3 59 7 62 84 62 68 0 70 1 70 25
l0 25 -103 0 -103 0 -22 -162z"/>
<path d="M1205 338 c3 -18 9 -71 15 -117 5 -46 12 -86 14 -88 3 -3 23 29 46
71 23 42 43 76 45 76 2 0 11 -34 21 -75 10 -41 20 -75 23 -75 3 0 25 46 48
103 60 146 58 137 35 137 -15 0 -25 -14 -42 -57 -13 -32 -26 -62 -30 -66 -4
-5 -13 21 -21 57 -7 36 -16 66 -19 66 -4 0 -22 -27 -39 -60 -39 -73 -51 -82
-51 -37 0 63 -11 97 -32 97 -16 0 -18 -5 -13 -32z"/>
<path d="M1751 283 c-6 -49 -14 -103 -17 -120 -5 -29 -3 -33 15 -33 11 0 21 3
21 8 0 4 7 50 15 102 19 123 19 130 -3 130 -16 0 -21 -13 -31 -87z"/>
<path d="M1925 333 c-4 -21 -7 -45 -8 -53 -1 -8 -11 -15 -22 -16 -48 -2 -55
-6 -71 -35 -29 -57 10 -114 62 -91 17 8 24 8 27 -1 10 -27 25 12 36 93 7 47
14 97 17 113 5 22 2 27 -15 27 -16 0 -21 -8 -26 -37z m-15 -110 c-1 -33 -15
-53 -36 -53 -18 0 -24 5 -24 23 0 13 3 27 7 30 9 9 53 9 53 0z"/>
<path d="M2105 358 c-2 -7 -9 -47 -15 -88 -6 -41 -13 -90 -16 -107 l-6 -33 66
0 c59 0 66 2 66 20 0 17 -7 20 -40 20 -22 0 -40 3 -40 8 0 8 17 120 25 165 4
22 1 27 -16 27 -11 0 -21 -6 -24 -12z"/>
<path d="M2655 333 c-4 -21 -7 -45 -8 -53 -1 -8 -11 -15 -22 -16 -48 -2 -55
-6 -71 -35 -29 -57 10 -114 62 -91 17 8 24 8 27 -1 10 -27 25 12 36 93 7 47
14 97 17 113 5 22 2 27 -15 27 -16 0 -21 -8 -26 -37z m-15 -110 c-1 -33 -15
-53 -36 -53 -18 0 -24 5 -24 23 0 13 3 27 7 30 9 9 53 9 53 0z"/>
<path d="M3266 343 c-12 -58 -26 -159 -26 -185 0 -21 5 -28 20 -28 14 0 20 7
20 23 1 77 40 92 62 25 11 -31 21 -44 36 -46 26 -4 26 -5 7 47 -14 41 -14 43
11 64 17 15 26 33 26 56 2 49 -29 71 -97 71 -50 0 -54 -2 -59 -27z m109 -24
c4 -5 4 -21 1 -35 -5 -20 -13 -24 -41 -24 -32 0 -35 3 -35 28 0 16 3 32 7 35
10 11 61 8 68 -4z"/>
<path d="M3547 338 c-18 -105 -28 -200 -22 -206 4 -4 10 -2 12 5 3 9 10 9 29
1 44 -20 94 21 94 78 0 24 -40 56 -62 51 -19 -5 -20 -2 -13 49 6 49 5 54 -13
54 -14 0 -21 -9 -25 -32z m71 -135 c-3 -28 -32 -43 -49 -26 -17 17 2 53 28 53
21 0 24 -4 21 -27z"/>
<path d="M3711 283 c-6 -49 -14 -103 -17 -120 -5 -29 -3 -33 15 -33 11 0 21 3
21 8 0 4 7 50 15 102 19 123 19 130 -3 130 -16 0 -21 -13 -31 -87z"/>
<path d="M4165 358 c-2 -7 -9 -47 -15 -88 -6 -41 -13 -90 -16 -107 l-6 -33 71
0 c64 0 71 2 71 20 0 17 -7 20 -45 20 -46 0 -53 8 -39 44 4 11 19 16 45 16 32
0 39 3 39 20 0 17 -7 20 -38 20 -37 0 -38 1 -34 30 4 29 6 30 53 30 42 0 49 3
49 20 0 18 -7 20 -65 20 -44 0 -67 -4 -70 -12z"/>
<path d="M2742 348 c-19 -19 -14 -30 11 -26 12 2 22 9 22 17 0 19 -18 24 -33
9z"/>
<path d="M3472 348 c-19 -19 -14 -30 11 -26 12 2 22 9 22 17 0 19 -18 24 -33
9z"/>
<path d="M3950 294 c0 -8 -7 -23 -16 -31 -11 -12 -12 -18 -4 -23 8 -5 10 -21
5 -47 -7 -45 11 -69 45 -58 24 8 27 35 4 35 -11 0 -14 5 -10 16 3 9 6 24 6 34
0 10 9 20 20 23 23 6 27 27 5 27 -8 0 -15 9 -15 20 0 13 -7 20 -20 20 -12 0
-20 -7 -20 -16z"/>
<path d="M4920 294 c0 -8 -7 -23 -16 -31 -11 -12 -12 -18 -4 -23 8 -5 10 -21
5 -47 -7 -45 11 -69 45 -58 24 8 27 35 4 35 -11 0 -14 5 -10 16 3 9 6 24 6 34
0 10 9 20 20 23 23 6 27 27 5 27 -8 0 -15 9 -15 20 0 13 -7 20 -20 20 -12 0
-20 -7 -20 -16z"/>
<path d="M1503 258 c-27 -13 -47 -59 -38 -87 16 -50 90 -47 114 5 16 35 14 51
-9 74 -22 22 -35 24 -67 8z m45 -55 c-2 -20 -9 -29 -25 -31 -18 -3 -23 1 -23
21 0 29 7 37 32 37 15 0 19 -6 16 -27z"/>
<path d="M1626 243 c-19 -100 -18 -113 2 -113 16 0 21 9 27 46 5 35 12 47 31
54 13 5 24 16 24 25 0 18 -14 19 -41 5 -13 -7 -19 -7 -19 0 0 22 -19 8 -24
-17z"/>
<path d="M2267 250 c-66 -52 -20 -149 53 -110 26 14 18 25 -17 25 -15 0 -28 6
-30 13 -3 7 4 12 19 12 29 0 68 26 68 45 0 15 -30 35 -53 35 -8 0 -26 -9 -40
-20z m53 -20 c0 -12 -28 -25 -36 -17 -9 9 6 27 22 27 8 0 14 -5 14 -10z"/>
<path d="M2402 254 c-25 -17 -37 -66 -23 -93 14 -25 45 -35 70 -22 14 8 21 8
24 -2 9 -25 26 9 32 68 l7 60 -45 2 c-25 1 -54 -5 -65 -13z m63 -34 c12 -20
-6 -50 -31 -50 -18 0 -24 5 -24 23 0 13 3 27 7 30 10 10 41 8 48 -3z"/>
<path d="M2716 224 c-9 -72 -8 -94 8 -94 21 0 24 7 32 78 6 58 5 62 -13 62
-16 0 -21 -9 -27 -46z"/>
<path d="M2816 243 c-19 -99 -18 -113 1 -113 15 0 22 11 29 48 7 39 13 48 33
50 23 4 24 2 18 -47 -5 -45 -4 -51 12 -51 21 0 31 26 31 82 0 47 -26 65 -71
49 -18 -6 -29 -6 -29 0 0 21 -19 7 -24 -18z"/>
<path d="M3012 263 c-15 -6 -42 -55 -42 -78 0 -24 39 -58 61 -52 13 4 19 0 19
-11 0 -33 -16 -44 -49 -37 -25 5 -31 3 -31 -9 0 -40 87 -39 108 1 9 16 32 143
32 175 0 13 -70 21 -98 11z m50 -38 c3 -3 3 -17 0 -30 -6 -35 -52 -36 -52 -2
0 13 3 27 7 30 8 8 37 9 45 2z"/>
<path d="M3446 224 c-9 -72 -8 -94 8 -94 21 0 24 7 32 78 6 58 5 62 -13 62
-16 0 -21 -9 -27 -46z"/>
<path d="M3817 250 c-66 -52 -20 -149 53 -110 26 14 18 25 -17 25 -15 0 -28 6
-30 13 -3 7 4 12 19 12 29 0 68 26 68 45 0 15 -30 35 -53 35 -8 0 -26 -9 -40
-20z m53 -20 c0 -12 -28 -25 -36 -17 -9 9 6 27 22 27 8 0 14 -5 14 -10z"/>
<path d="M4320 265 c0 -4 7 -19 15 -35 14 -27 13 -30 -10 -58 -30 -36 -31 -42
-5 -42 10 0 24 9 30 20 6 11 15 20 20 20 5 0 12 -9 15 -20 4 -11 15 -20 27
-20 11 0 18 3 16 8 -2 4 -10 19 -17 34 -13 25 -12 30 13 63 l27 35 -23 0 c-13
0 -29 -10 -36 -21 l-14 -21 -14 21 c-14 19 -44 30 -44 16z"/>
<path d="M4476 243 c-12 -58 -26 -159 -26 -186 0 -22 4 -28 17 -25 13 2 20 18
26 54 7 47 10 51 32 46 16 -3 32 4 49 21 32 32 34 77 5 102 -17 16 -25 17 -50
8 -16 -6 -29 -7 -29 -2 0 21 -19 7 -24 -18z m82 -40 c-2 -20 -9 -29 -25 -31
-20 -3 -23 1 -23 27 0 27 4 31 26 31 22 0 25 -4 22 -27z"/>
<path d="M4667 250 c-66 -52 -20 -149 53 -110 26 14 18 25 -17 25 -15 0 -28 6
-30 13 -3 7 4 12 19 12 29 0 68 26 68 45 0 15 -30 35 -53 35 -8 0 -26 -9 -40
-20z m53 -20 c0 -12 -28 -25 -36 -17 -9 9 6 27 22 27 8 0 14 -5 14 -10z"/>
<path d="M4786 243 c-19 -100 -18 -113 2 -113 16 0 21 9 27 46 5 35 12 47 31
54 13 5 24 16 24 25 0 18 -14 19 -41 5 -13 -7 -19 -7 -19 0 0 22 -19 8 -24
-17z"/>
</g>
</svg>
