<svg id="Layer_1" data-name="Layer 1" xmlns="http://www.w3.org/2000/svg" xmlns:xlink="http://www.w3.org/1999/xlink" viewBox="0 0 1052.04 743.43"><defs><style>.cls-1{fill:none;}.cls-2{clip-path:url(#clip-path);}</style><clipPath id="clip-path" transform="translate(0 206.17)"><rect class="cls-1" y="0.72" width="1052.04" height="329.64"/></clipPath></defs><g class="cls-2"><path d="M409.6.72c.11,1.86.34,3.71.34,5.56q0,159.62,0,319.23c0,1.62.21,3.23.33,4.85H0V.72ZM390.27,311.26V20.64H20V311.26Z" transform="translate(0 206.17)"/><path d="M1052,190.79h-32V142h12.6v37.55H1052Z" transform="translate(0 206.17)"/><path d="M690.62,79V106.7H677.9V57.93c5.11,0,10.31-.11,15.5.11.74,0,1.58,1.53,2.07,2.5C699.36,68.25,703.16,76,707,83.73a6.56,6.56,0,0,0,2,2.55V58.06H721.8V107c-5.07,0-10.17.12-15.24-.12-.86,0-1.9-1.5-2.42-2.52-3.81-7.48-7.51-15-11.25-22.55-.49-1-1-1.94-1.58-2.91Z" transform="translate(0 206.17)"/><path d="M519.15,253.82V226H532v48.8c-5.22,0-10.43.1-15.62-.11-.76,0-1.68-1.43-2.17-2.38-3.79-7.49-7.49-15-11.22-22.54a8.47,8.47,0,0,0-2.2-3V274.6h-12.9V225.76c5.07,0,10.17-.14,15.24.13.93.05,2,1.67,2.59,2.79,4.26,8.4,8.41,16.86,12.6,25.3Z" transform="translate(0 206.17)"/><path d="M861.31,274.69H848.55V225.75c5,0,9.92-.12,14.79.1.92.05,2.11,1.28,2.6,2.25,3.72,7.27,7.29,14.61,10.92,21.92a12.64,12.64,0,0,0,2.67,3.85V226h13v48.84c-5.19,0-10.29.12-15.37-.12-.86,0-1.89-1.51-2.41-2.53-3.81-7.48-7.5-15-11.24-22.54a8.32,8.32,0,0,0-2.19-2.95Z" transform="translate(0 206.17)"/><path d="M584,274.82c-5.19,0-10.18.1-15.17-.1-.78,0-1.78-1.26-2.24-2.16-3.91-7.69-7.72-15.43-11.57-23.15a7.76,7.76,0,0,0-2.15-2.86v28H540.23V225.76c5,0,10-.12,14.94.11.88,0,2,1.38,2.48,2.37,4.3,8.4,8.47,16.85,13.41,25.27V225.89h13Z" transform="translate(0 206.17)"/><path d="M651.79,141.82c5.14,0,10.14-.09,15.12.1.79,0,1.8,1.24,2.26,2.14,4,7.9,7.93,15.85,11.88,23.79.4.8.88,1.57,1.83,3.26v-29h12.68v48.78c-5,0-9.95.12-14.92-.11-.87,0-2-1.37-2.49-2.36-3.92-7.68-7.72-15.43-11.57-23.16a8,8,0,0,0-2.16-2.89v28.29H651.79Z" transform="translate(0 206.17)"/><path d="M540,75.85V58.13H552.7v48.61H540V88.51H524.64v18.13h-12.8V58.12h12.6V75.85Z" transform="translate(0 206.17)"/><path d="M816.86,275.65A25,25,0,0,1,792,250.24c0-14.29,11.25-25.62,25.23-25.43,14.26.2,24.94,11.29,24.8,25.75C841.85,264.78,830.88,275.74,816.86,275.65Zm11.79-25.59c-.06-6.51-3.13-11.4-8.13-13-8.34-2.6-15.91,4.35-15.16,13.95.56,7.23,4.48,12.09,10.26,12.71C823.28,264.57,828.73,258.84,828.65,250.06Z" transform="translate(0 206.17)"/><path d="M818.28,191.61c-14.13,0-24.8-10.86-24.92-25.26A24.78,24.78,0,0,1,818.56,141c14.18,0,24.94,11.15,24.83,25.66C843.29,180.94,832.51,191.65,818.28,191.61Zm11.78-25.41c0-7.54-4.37-13-10.52-13.39-8-.43-13.66,6.12-12.75,14.67.8,7.52,4.8,12.08,10.89,12.42C825,180.3,830.11,174.68,830.06,166.2Z" transform="translate(0 206.17)"/><path d="M752,166.55c0,14.38-10.67,25.07-24.93,25.06s-24.9-10.83-24.87-25.51c0-14.29,10.82-25.13,25-25.11S752,151.89,752,166.55Zm-13.33-.72c0-.3,0-1.23-.1-2.16-.65-5.93-4.85-10.45-10-10.84-6.45-.49-10.82,2.74-12.47,9.19a16.12,16.12,0,0,0,1.58,12.47,10.3,10.3,0,0,0,9.18,5.41C733.85,180.1,738.63,174.69,738.65,165.83Z" transform="translate(0 206.17)"/><path d="M590.55,250.25c0-14.49,10.94-25.6,25.05-25.44s24.86,11.21,24.86,25.4c0,14.39-11,25.53-25.17,25.43S590.56,264.62,590.55,250.25Zm13.32-.06c0,7.57,4.11,13,10.35,13.57s11.2-3.27,12.61-10c1.31-6.31-1.19-13.08-5.81-15.74C612.82,233.28,603.89,239.63,603.87,250.19Z" transform="translate(0 206.17)"/><path d="M774,79.35c0,6.49,0,12.67-.05,18.84a4.07,4.07,0,0,1-1.09,2.42c-8.81,9.41-28.09,9.51-37.33.24-9.9-9.94-9.62-27.91.59-37.22,10.66-9.7,28.19-8.68,36.85,2.56l-8.67,7.26c.13.12-.37-.31-.85-.76-4.5-4.17-9.91-5.13-14.78-2.62a14,14,0,0,0-7,13.83c.89,6.51,4.39,10.84,10.14,11.84a21.1,21.1,0,0,0,6.88-.42c2.87-.48,3.81-2.36,2.85-5.45h-9.06V79.35Z" transform="translate(0 206.17)"/><path d="M892.73,150l-8.38,7.69c-2.83-3-6.4-5.3-11.25-4.93a12.37,12.37,0,0,0-10.91,8.49c-2,5.56-.46,12.16,3.68,15.77,3.64,3.16,10.09,4,14.1,1.49,1.11-.71,1.46-2.63,2.61-4.89H872.06V163.42h21.56c0,6.47,0,13,0,19.45,0,.57-.61,1.21-1.07,1.68-9.17,9.45-27.87,9.48-37.28.08-9.78-9.77-9.67-27,.23-36.69C865.69,138,882.82,138.7,892.73,150Z" transform="translate(0 206.17)"/><path d="M602.59,142H615v17.84h15.61V142.08h12.92v48.55H630.67V172.41H615.25v18.25H602.59Z" transform="translate(0 206.17)"/><path d="M544.46,160.35v10.83H521.92v8.29h23.6v11.2H508.79V142.05H545.5v11H521.91v7.32Z" transform="translate(0 206.17)"/><path d="M607.29,107c-4.54,0-8.49.17-12.41-.13-.87-.07-2.07-1.73-2.32-2.84-.87-3.92-2.84-5.63-7-5a45.35,45.35,0,0,1-9.1,0c-2.22-.13-3.34.61-4,2.77C570.65,107,570.55,107,565,107H557.4c.42-1.37.69-2.43,1.07-3.45C563.68,89.3,569,75.09,574.06,60.82c.8-2.24,1.79-3.19,4.22-3,3.59.29,8-1,10.57.71,2.39,1.55,2.92,6.05,4.12,9.31C597.69,80.64,602.35,93.45,607.29,107ZM577.6,87.37h9.1l-4.54-12.73C580.4,79.54,579,83.4,577.6,87.37Z" transform="translate(0 206.17)"/><path d="M733.94,274.84c-4,0-7.23-.16-10.48.05-2.37.15-3.85-.48-4.19-2.95-.6-4.32-3.12-5.77-7.27-5.09a14.08,14.08,0,0,1-4.2,0c-5.15-.72-9.16.1-10,6.32-.08.63-1.41,1.54-2.19,1.58-3.6.17-7.22.07-11.31.07.36-1.36.55-2.45.92-3.46,5.18-14.24,10.42-28.45,15.54-42.71.78-2.19,1.8-3.17,4.25-3,3.59.29,8.1-1.08,10.58.63s3,6.3,4.21,9.68q6.43,17.37,12.78,34.78C733,271.93,733.38,273.13,733.94,274.84Zm-20.45-19.52c-1.51-4.31-2.87-8.17-4.56-13-1.71,4.86-3.09,8.77-4.56,13Z" transform="translate(0 206.17)"/><path d="M1015.49,190.9c-4.23,0-8.18.19-12.08-.14-.95-.08-2.28-1.78-2.53-2.93-.87-4-3-5.49-7.09-5a46.38,46.38,0,0,1-8.74,0c-2.43-.15-4.1.39-4.42,3.08-.5,4.2-2.9,5.51-6.94,5a65.91,65.91,0,0,0-8.13-.06c2-5.4,3.83-10.4,5.66-15.4,3.71-10.18,7.5-20.33,11.07-30.55.82-2.33,1.81-3.42,4.4-3.2,3.59.31,8.08-1,10.55.7s3,6.3,4.21,9.67q6.45,17.55,12.82,35.12C1014.66,188.33,1015,189.42,1015.49,190.9Zm-25-32.44L986,171.15h9Z" transform="translate(0 206.17)"/><path d="M473.17,89.74c3.19,3.55,6.83,6.38,11.86,6.64a9,9,0,0,0,4.13-.33c1.29-.63,3-2,3.06-3.11s-1.52-2.86-2.72-3.24a93.64,93.64,0,0,0-9.91-2.07c-9.77-1.92-15.51-10-13.17-18.76,1.45-5.42,5.31-8.68,10.4-10.51,9.65-3.45,19.79-.67,27,7.5-2.6,2.8-5.24,5.65-7.89,8.49-1.66-1.33-2.94-2.83-4.57-3.57a26.2,26.2,0,0,0-7.54-2.25c-2-.25-4.55.19-4.76,3s2.29,3.09,4.33,3.55c4.08.94,8.27,1.54,12.24,2.83,6.17,2,9.48,6.62,9.92,13.07.43,6.2-2.38,10.77-7.71,13.85-10.64,6.16-26.7,2.63-32.65-7Z" transform="translate(0 206.17)"/><path d="M898.57,265.45l7.37-7.21c3.82,1.95,7.55,4.22,11.57,5.74,1.75.67,4.18.14,6.11-.46a3,3,0,0,0-.19-5.92c-3.57-1-7.29-1.53-10.94-2.33-9.4-2.05-14.91-10-12.59-18.52,1.88-6.89,7.14-10.23,13.74-11.43,9.17-1.67,17.08.86,23.67,8.26l-7.91,8.66c-.95-.84-1.78-1.59-2.63-2.32-3.15-2.7-6.72-4.42-10.91-3.44-1.3.31-2.31,1.87-3.45,2.86,1,1.09,1.9,2.74,3.16,3.14a69.75,69.75,0,0,0,8.57,1.66c9.85,1.87,15,7.43,14.88,16.09a13.51,13.51,0,0,1-4.14,9.72C925.52,279.3,905.37,276.71,898.57,265.45Z" transform="translate(0 206.17)"/><path d="M624.32,92.6v14.08h-12.7V57.42c9.44.51,18.78.41,27.93,1.7,7.41,1,11.48,7,12,14.81s-3.13,14.27-9.91,16.84a36.49,36.49,0,0,1-8.84,1.77A80.82,80.82,0,0,1,624.32,92.6Zm.18-11c3.3-.27,6.3-.35,9.25-.81,3.21-.49,4.82-2.62,4.8-5.87,0-3.46-2.29-5-5.32-5.34a84.38,84.38,0,0,0-8.73-.06Z" transform="translate(0 206.17)"/><path d="M641.74,225.75c4.16,0,8-.17,11.84.12.91.07,2.14,1.51,2.48,2.56,3.1,9.53,6,19.11,9.31,29.57.7-1.9,1.16-3,1.52-4.16,2.64-8.46,5.31-16.91,7.86-25.4.58-1.94,1.39-2.88,3.6-2.75,3.47.2,7,.05,10.87.05-.42,1.45-.71,2.54-1.06,3.6-4.72,14.17-9.51,28.32-14.13,42.52-.74,2.27-1.72,3.22-4.17,3-3.92-.31-8.82,1.07-11.52-.82s-2.86-6.85-4.08-10.49q-5.75-17.1-11.42-34.2C642.48,228.28,642.17,227.17,641.74,225.75Z" transform="translate(0 206.17)"/><path d="M964.57,150l-8.56,7.5c-7.44-6.07-14.65-6.38-19.57-.55-4.74,5.6-4.28,14.9,1,19.76,5.66,5.22,13.16,4,20.36-3.41,1.32,1.4,2.65,2.79,4,4.22s2.43,2.76,3.59,4.08c-5.22,8.16-16.61,11.93-27.28,9.22-10.42-2.63-17.37-11.29-18.19-22.64s5-21.07,15.07-25.28A25.44,25.44,0,0,1,964.57,150Z" transform="translate(0 206.17)"/><path d="M595.68,150l-8.08,7.59c-8.76-6.35-15.24-6.43-20.21-.15-4.57,5.77-3.7,15.07,1.82,19.66,5.78,4.81,13.17,3.47,19.87-3.88l7.63,8.3c-5.77,8.58-17.36,12.26-28.19,9.12-10.29-3-17.13-12.31-17.36-23.68-.24-11.58,6.13-21.07,16.54-24.64S589.54,141.79,595.68,150Z" transform="translate(0 206.17)"/><path d="M767.85,226v11H754.76v37.62H741.82V237.16H728.59V226Z" transform="translate(0 206.17)"/><path d="M477.63,153.05H464.4v-11h39V153H490.48V190.7H477.63Z" transform="translate(0 206.17)"/><path d="M771,142.06v37.4h20.43v11.21h-33V142.06Z" transform="translate(0 206.17)"/><path d="M913.53,190.74H900.89V142.09h12.64Z" transform="translate(0 206.17)"/><path d="M773.09,225.9h12.54v48.75H773.09Z" transform="translate(0 206.17)"/><path d="M669.69,106.76H657.27V58.19h12.42Z" transform="translate(0 206.17)"/><path d="M467.26,225.92h12.39v48.66H467.26Z" transform="translate(0 206.17)"/><path d="M265.22,172.68c7.89,0,15.57-.09,23.25.11,1,0,2.34,1.34,3.06,2.37q17.36,25.05,34.6,50.19c.71,1,1.46,2,2.79,3.87V172.94H356V275.5c-7.42,0-14.86.11-22.29-.12-1,0-2.11-1.62-2.87-2.71Q312.93,247,295.08,221.18c-.67-1-1.36-1.89-2.7-3.75v57.84H265.22Z" transform="translate(0 206.17)"/><path d="M199,54.61c31.31,0,53.17,22.58,53.12,54.83,0,30.77-22.74,53.2-53.83,53.18-30.47,0-53.06-23-53.13-54.07C145.12,77.24,167.73,54.59,199,54.61Zm24.9,52.81c-.21-1.57-.39-4.38-1-7.1-2.41-11.5-10.49-18.94-21.68-20.15s-20.75,4.47-25.09,15.07a33.46,33.46,0,0,0,.59,27.84c6.88,14.62,26.16,18.65,38.14,8C221.53,125.13,223.7,117.24,223.92,107.42Z" transform="translate(0 206.17)"/><path d="M250.74,223.81c.22,30.27-22.17,53.34-51.17,54.21-33.37,1-54.8-23.62-55.88-51.61-1.16-30.29,19.63-56.1,53.11-56.53C227.74,169.49,250.51,192.32,250.74,223.81Zm-53.4-28.23c-6.45-.05-12.14,1.8-16.83,6.43-9.3,9.2-11.31,25.89-4.5,38a24.32,24.32,0,0,0,39,4.71c6.45-7,8.07-15.69,7.08-24.81C220.47,204.74,211,195.65,197.34,195.58Z" transform="translate(0 206.17)"/><path d="M54.37,57.41c9.47,0,18.7-.1,27.92,0,8.63.13,17.33-.07,25.87.94,10.25,1.21,18.77,5.84,22.67,16.25,4.39,11.71.48,22.85-10.12,29.44-.68.42-1.33.86-2.25,1.46,6,2.56,11.23,5.65,15,10.76,8.76,11.72,4.8,30.81-8,37.87-7.66,4.22-16,5.7-24.65,5.8-15,.18-29.92.07-44.88.07a15,15,0,0,1-1.62-.21ZM81,141c7.26-.47,14-.52,20.64-1.45,5.46-.77,8.23-4.64,8.46-10,.28-6.49-1.81-10.7-7.5-11.75-7-1.29-14.2-1.29-21.6-1.86V141Zm.17-42.9c5.33,0,10.37.44,15.28-.13,5.39-.62,8.1-4.1,8.37-9.17.34-6.2-1.63-9.86-7.31-11-5.25-1.07-10.74-.92-16.34-1.32Z" transform="translate(0 206.17)"/><path d="M91.17,234.17C88,237.84,85.09,241,82.46,244.4a6.86,6.86,0,0,0-.94,3.93c-.08,8.87,0,17.74,0,26.91H54.35V172.88H81.43v36.93l.78.28c.77-.94,1.56-1.88,2.31-2.83,8.51-10.69,17-21.36,25.49-32.11a5.89,5.89,0,0,1,5.29-2.53c9.31.13,18.62,0,28.91,0L110,212.39l39.34,62.82c-1.16.14-1.89.31-2.62.32-9.22,0-18.45-.06-27.68.06a4.48,4.48,0,0,1-4.43-2.56C106.92,260.21,99.18,247.45,91.17,234.17Z" transform="translate(0 206.17)"/><path d="M266.74,57.41h26.91V159.77H266.74Z" transform="translate(0 206.17)"/></g><rect class="cls-1" width="1052.04" height="743.43"/></svg>