<?xml version="1.0" encoding="utf-8"?>
<!-- Generator: Adobe Illustrator 25.0.0, SVG Export Plug-In . SVG Version: 6.00 Build 0)  -->
<svg version="1.1" id="Layer_1" xmlns="http://www.w3.org/2000/svg" xmlns:xlink="http://www.w3.org/1999/xlink" x="0px" y="0px"
	 viewBox="0 0 1000 158.53" style="enable-background:new 0 0 1000 158.53;" xml:space="preserve">
<style type="text/css">
	.st0{fill:#FFFFFF;}
</style>
<path d="M959.84,9.05c-3.58,19.11-6.64,36.84-10.49,54.41c-0.58,2.62-4.77,6.09-7.5,6.28c-6.69,0.48-7.92,3.69-8.79,9.56
	c-1.7,11.56-4.36,23-7.28,34.33c-0.45,1.76-4.33,3.6-6.73,3.74c-12.11,0.68-24.26,0.79-36.39,1.14
	c-80.18,2.3-160.37,4.49-240.55,6.94c-71.28,2.18-142.55,4.6-213.82,6.99c-70.37,2.36-140.74,4.71-211.11,7.28
	c-49.96,1.82-99.9,4.01-149.85,6c-3.75,0.15-7.51,0.02-12.15,0.02c4.58-25.75,8.92-50.11,13.48-75.77c7.63,0,15.25-0.33,22.83,0.11
	c5.69,0.32,8.83-1.4,9.83-7.29c2.56-15.14,5.86-30.17,7.92-45.37c0.86-6.36,2.81-8.6,9.26-8.49c20.43,0.33,40.86,0.12,61.3,0.12
	c256.44,0,512.88,0,769.32,0C952.34,9.05,955.56,9.05,959.84,9.05z M912.17,26.9c-7.49-2.47-13.17-2.77-14.35,6.73
	c-0.43,3.48-1.41,6.89-2.12,10.34c-2.37,11.57-4.73,23.15-7.1,34.73c-7.02-15.24-12.7-30.12-17.71-45.22
	c-2.43-7.32-6.9-9.08-14-8.63c-7.18,0.45-7.34,5.89-8.48,10.45c-1.06,4.26-0.87,8.81-1.69,13.15c-3.13,16.7-6.63,33.33-9.48,50.07
	c-0.37,2.16,2.2,4.83,3.41,7.26c3.29-1.7,6.88-3.02,9.71-5.29c1.15-0.92,0.49-3.95,0.88-5.97c2.82-14.53,5.7-29.05,9.02-45.93
	c2.18,4.93,3.56,7.73,4.67,10.64c5.44,14.24,10.4,28.69,16.55,42.61c1.15,2.61,7.05,4.5,10.57,4.24c2.49-0.19,5.98-4.23,6.73-7.14
	c2.41-9.36,3.76-18.99,5.49-28.52C906.91,56.01,909.51,41.58,912.17,26.9z M637.96,81.35c-6.64-17.59-12.69-34.89-19.96-51.66
	c-1.19-2.74-7.7-4.15-11.82-4.28c-2.41-0.08-6.62,3.23-7.15,5.64c-3.84,17.49-7,35.14-10.27,52.75c-1.27,6.81-2.27,13.68-3.38,20.44
	c11.14,3.11,13.21,2.14,15.27-8.1c1.68-8.37,2.5-16.91,4.03-25.31c1.42-7.8,3.27-15.52,5.15-24.3c6.95,19.2,13.04,37.12,20.18,54.62
	c1.15,2.81,6.96,5.02,10.63,5.05c2.47,0.02,6.04-3.87,7.2-6.78c1.58-3.98,1.05-8.74,1.91-13.07c3.93-19.71,8.03-39.39,12.05-58.97
	c-11.68-3.5-13.63-2.07-15.33,8.1C643.91,50.8,640.83,66.04,637.96,81.35z M123.74,104.64c6.27,0.92,12.3,2.64,18.3,2.54
	c20.55-0.33,39.99-3.23,51.46-23.89c8.17-14.71,8.06-38.47-1.72-48.29c-10.86-10.91-37.88-13.29-51.01-8.05
	c-1.51,0.6-2.86,3.06-3.22,4.87c-1.57,8.07-2.55,16.25-4.1,24.33C130.47,71.69,127.25,87.18,123.74,104.64z M831.31,58.09
	c-0.56-3.33-0.81-10.23-2.94-16.5c-5.86-17.27-28.44-22.76-47.37-13.53c-18.63,9.09-28.45,33.55-24.96,53.12
	c3.84,21.5,25.14,31.35,43.22,25.09C820.89,98.78,829.39,82.85,831.31,58.09z M354.77,27.9c-10.97-5.13-15.42-2.82-16.56,8.5
	c-0.29,2.91-1.12,5.77-1.47,8.68c-1.7,14.27-4.31,28.55-4.45,42.84c-0.05,5.37,4.39,12.83,9.05,15.84
	c15.47,9.99,37.97,4.17,44.49-13.21c7-18.65,9.81-38.88,14.38-58.44c0.93-3.98,0.31-7.2-4.89-7.1c-4.43,0.09-8.35-0.42-9.41,6.25
	c-2.58,16.24-6.01,32.35-9.53,48.42c-2.47,11.29-11.34,16.96-22.07,14.89c-7.18-1.39-10.8-9.05-8.76-20.32
	C348.33,58.75,351.66,43.35,354.77,27.9z M494.75,22.59c-0.13,0.38-0.25,0.76-0.38,1.14c-2.06,0.12-4.14,0.16-6.19,0.38
	c-7.56,0.82-14.52,1.99-15.04,12.09c-0.32,6.12-1.89,12.2-3.04,18.26c-2.79,14.77-5.85,29.5-8.26,44.34
	c-0.34,2.1,2.05,6.37,3.75,6.71c3.48,0.69,8.55,2.23,9.58-4.3c0.77-4.91,2.96-9.7,3.1-14.59c0.23-8.01,3.48-10.97,11.48-10.57
	c4.58,0.23,9.55-0.81,13.82-2.55c9.57-3.89,17.59-9.86,19.31-21c1.53-9.89,0.37-19.26-9.95-24.06
	C507.2,25.76,500.83,24.49,494.75,22.59z M543.92,94.04c0-4.37-0.24-7.31,0.04-10.2c1.19-12.24,2.8-13.61,15.14-13.62
	c3.84,0,8.08,0.92,11.41-0.4c2.84-1.12,4.65-4.86,6.91-7.44c-2.32-1.58-4.53-4.28-6.98-4.52c-6.6-0.63-13.3-0.22-19.82-0.22
	c-1.29-18.78,1.05-21.45,17.3-21.45c2.66,0,5.35-0.23,7.98,0.05c7.59,0.8,10.42-2.29,8.08-10.97c-13.21,0-26.69-0.14-40.16,0.22
	c-1.33,0.04-3.33,2.97-3.74,4.84c-3.51,16.05-6.86,32.15-9.99,48.28c-1.69,8.69-2.85,17.49-4.41,27.28
	c15.05,0,28.03,0.21,41.01-0.08c7.5-0.17,8.1-5.04,6.5-11.79C563.61,94.04,554.25,94.04,543.92,94.04z M718.05,27.54
	c-10.02-5.07-19.67-5.4-29.58-1.39c-9.44,3.81-15.82,10.62-17.32,20.51c-1.31,8.6,3.77,15.05,10.54,19.99
	c4.03,2.94,8.95,5.11,11.99,8.84c2.39,2.92,3.87,7.95,3.21,11.57c-0.51,2.81-4.75,6.58-7.71,6.95c-5.66,0.71-11.58-0.98-17.4-1.08
	c-2.77-0.05-7.1,0.43-8.02,2.14c-1.99,3.67-1.85,7.53,3.67,9.81c10.51,4.35,20.79,4.11,30.85-0.35c17.49-7.76,23.07-30.7,6.67-40.87
	c-4.44-2.76-9.24-5.27-12.87-8.91c-2.56-2.57-5.18-7.22-4.53-10.24c0.69-3.21,4.78-6.65,8.18-8.04c3.26-1.33,7.69-0.79,11.35,0.05
	C717,38.8,717.22,38.82,718.05,27.54z M457.27,28.17c-12.99-6.89-24.47-5.99-35.7,0.78c-15.41,9.3-15.7,28.56-0.6,38.39
	c3.22,2.1,7.04,3.69,9.49,6.47c2.84,3.23,7.17,8.99,6.06,11.03c-2.28,4.17-7.46,8.51-12.01,9.24c-6.27,1.01-13.06-1.25-20.01-2.16
	c-6.14,9.55-5.67,9.6,4.65,13.8c9.67,3.94,18.69,2.53,27.44-1.23c8.75-3.76,14.8-10.26,15.69-20.58
	c0.82-9.47-2.21-16.75-10.59-21.56c-3.29-1.89-7.32-3.17-9.62-5.9c-2.94-3.48-7.09-9.17-5.96-12.04c1.48-3.76,7.33-7.18,11.81-8
	c5.03-0.92,10.61,1.23,16.28,2.1C455.21,35.08,456.2,31.76,457.27,28.17z M322.7,28.14c-10.93-5.2-20.46-6.08-30.52-2.16
	c-9.96,3.88-16.53,10.79-17.61,21.2c-0.91,8.83,3.92,15.61,11.7,20.19c3.78,2.23,8.18,4.32,10.59,7.7c2.4,3.36,3.96,8.43,3.42,12.42
	c-0.35,2.6-4.93,6.19-7.94,6.53c-5.67,0.63-11.7-0.18-17.32-1.52c-3.72-0.89-6.58-2.95-8.1,2.51c-1.23,4.44-1.49,7.87,3.95,9.76
	c9.84,3.42,19.54,4.13,29.29-0.07c9.53-4.1,15.93-11.17,17.42-21.42c1.48-10.22-4.43-17.17-12.54-22.44
	c-3.43-2.23-7.61-3.7-10.26-6.6c-2.42-2.66-4.97-7.17-4.29-10.15c0.7-3.11,4.91-7.1,8.08-7.6c5.81-0.92,11.98,0.45,19.89,0.99
	C319.35,35.53,321,31.89,322.7,28.14z M244.68,64.77c2.56-1.88,5.05-3.42,7.19-5.33c9.38-8.38,10.08-20.87,1.21-27.34
	c-8.97-6.54-18.82-7.39-29.3-3.37c-9.34,3.58-9.67,4.2-3.99,11.69c5.79-0.41,11.03-1.35,16.15-0.92c2.59,0.22,6.83,2.7,7.04,4.54
	c0.37,3.19-1.03,7.33-3.14,9.84c-1.79,2.13-5.57,3.21-8.6,3.56c-7.32,0.85-10.62,4.15-8.92,11.74c0.86,0.33,1.64,0.8,2.47,0.91
	c11.03,1.44,15.25,4.92,14.87,12.35c-0.38,7.48-7.18,12.62-17.16,12.17c-5.35-0.24-10.66-1.64-16.34-2.57
	c-1.4,3.67-2.82,7.35-5.29,13.81c10.72,0.85,20.08,3.19,28.91,1.91c12.09-1.75,21.52-9,24.9-21.66
	C257.17,76.82,251.88,70.57,244.68,64.77z M721.89,104.19c11.05,3.22,14.22,2.07,15.6-5.35c4.43-23.89,8.83-47.8,13.23-71.65
	c-10.93-4.55-13.83-2.94-15.68,7.81c-1.5,8.73-3.64,17.34-5.28,26.04C727.03,75.44,724.49,89.86,721.89,104.19z"/>
<path class="st0" d="M912.17,26.9c-2.66,14.68-5.26,29.11-7.88,43.53c-1.73,9.53-3.09,19.16-5.49,28.52
	c-0.75,2.91-4.24,6.96-6.73,7.14c-3.52,0.26-9.42-1.62-10.57-4.24c-6.15-13.92-11.11-28.37-16.55-42.61
	c-1.11-2.91-2.5-5.71-4.67-10.64c-3.32,16.88-6.2,31.4-9.02,45.93c-0.39,2.02,0.27,5.05-0.88,5.97c-2.83,2.27-6.42,3.59-9.71,5.29
	c-1.21-2.43-3.78-5.1-3.41-7.26c2.86-16.74,6.35-33.37,9.48-50.07c0.81-4.34,0.63-8.89,1.69-13.15c1.14-4.57,1.3-10,8.48-10.45
	c7.1-0.45,11.57,1.31,14,8.63c5,15.1,10.69,29.97,17.71,45.22c2.37-11.58,4.73-23.15,7.1-34.73c0.71-3.45,1.68-6.86,2.12-10.34
	C899,24.13,904.68,24.43,912.17,26.9z"/>
<path class="st0" d="M637.96,81.35c2.87-15.31,5.95-30.55,8.52-45.87c1.71-10.18,3.65-11.6,15.33-8.1
	c-4.02,19.58-8.12,39.26-12.05,58.97c-0.86,4.33-0.33,9.09-1.91,13.07c-1.15,2.91-4.73,6.8-7.2,6.78
	c-3.67-0.03-9.49-2.24-10.63-5.05c-7.14-17.5-13.23-35.42-20.18-54.62c-1.88,8.78-3.73,16.5-5.15,24.3
	c-1.53,8.4-2.35,16.94-4.03,25.31c-2.05,10.24-4.13,11.21-15.27,8.1c1.11-6.77,2.11-13.63,3.38-20.44
	c3.27-17.62,6.43-35.26,10.27-52.75c0.53-2.41,4.74-5.72,7.15-5.64c4.11,0.13,10.63,1.54,11.82,4.28
	C625.27,46.46,631.32,63.76,637.96,81.35z"/>
<path class="st0" d="M123.74,104.64c3.51-17.47,6.73-32.95,9.71-48.49c1.55-8.07,2.54-16.26,4.1-24.33c0.35-1.81,1.7-4.27,3.22-4.87
	c13.13-5.24,40.15-2.86,51.01,8.05c9.79,9.83,9.89,33.58,1.72,48.29c-11.47,20.66-30.91,23.55-51.46,23.89
	C136.04,107.28,130.01,105.56,123.74,104.64z M140.92,93.48c25.48,5.48,42.37-11.15,43.44-33.6c0.94-19.82-11.12-26.11-29.25-23.68
	c-1.55,0.21-3.77,2.26-4.07,3.77C147.48,57.77,144.24,75.64,140.92,93.48z"/>
<path class="st0" d="M831.31,58.09c-1.92,24.76-10.42,40.69-32.05,48.18c-18.07,6.26-39.37-3.59-43.22-25.09
	c-3.5-19.57,6.33-44.03,24.96-53.12c18.93-9.24,41.51-3.75,47.37,13.53C830.5,47.86,830.75,54.76,831.31,58.09z M771.68,69.42
	c-0.19,13.72,4.09,22.15,11.49,24.71c8.28,2.86,19.08-0.68,25.32-9.72c6.85-9.91,9.52-21.29,7.63-33.4
	c-2.5-16-18.64-19.26-29.5-11.72C775.49,47.03,772.07,58.61,771.68,69.42z"/>
<path class="st0" d="M354.77,27.9c-3.1,15.45-6.44,30.85-9.23,46.35c-2.03,11.27,1.59,18.93,8.76,20.32
	c10.73,2.08,19.6-3.6,22.07-14.89c3.52-16.07,6.95-32.18,9.53-48.42c1.06-6.68,4.98-6.16,9.41-6.25c5.2-0.1,5.82,3.12,4.89,7.1
	c-4.57,19.56-7.38,39.78-14.38,58.44c-6.52,17.38-29.02,23.2-44.49,13.21c-4.65-3.01-9.1-10.46-9.05-15.84
	c0.14-14.29,2.75-28.57,4.45-42.84c0.35-2.91,1.17-5.77,1.47-8.68C339.35,25.07,343.8,22.77,354.77,27.9z"/>
<path class="st0" d="M494.75,22.59c6.08,1.9,12.45,3.17,18.18,5.84c10.32,4.8,11.49,14.17,9.95,24.06
	c-1.73,11.14-9.75,17.11-19.31,21c-4.28,1.74-9.25,2.78-13.82,2.55c-8-0.4-11.25,2.57-11.48,10.57c-0.14,4.89-2.32,9.68-3.1,14.59
	c-1.03,6.53-6.1,4.99-9.58,4.3c-1.7-0.34-4.09-4.61-3.75-6.71c2.41-14.84,5.47-29.56,8.26-44.34c1.15-6.07,2.72-12.14,3.04-18.26
	c0.52-10.1,7.49-11.27,15.04-12.09c2.05-0.22,4.13-0.26,6.19-0.38C494.5,23.35,494.62,22.97,494.75,22.59z M482.96,62.7
	c12.45,3.41,21.89-0.08,24.88-10.51c1.05-3.67-0.32-10.09-3.01-12.28c-3.46-2.81-9.46-3.69-14.15-3.24
	c-2.02,0.19-4.2,5.63-5.09,9.01C484.2,50.96,483.85,56.52,482.96,62.7z"/>
<path class="st0" d="M543.92,94.04c10.33,0,19.68,0,29.29,0c1.6,6.75,0.99,11.62-6.5,11.79c-12.98,0.3-25.96,0.08-41.01,0.08
	c1.57-9.79,2.73-18.59,4.41-27.28c3.13-16.13,6.47-32.23,9.99-48.28c0.41-1.87,2.41-4.81,3.74-4.84
	c13.47-0.36,26.95-0.22,40.16-0.22c2.34,8.69-0.49,11.77-8.08,10.97c-2.63-0.28-5.32-0.05-7.98-0.05c-16.25,0-18.59,2.67-17.3,21.45
	c6.52,0,13.22-0.42,19.82,0.22c2.45,0.24,4.66,2.94,6.98,4.52c-2.26,2.58-4.07,6.31-6.91,7.44c-3.34,1.32-7.57,0.4-11.41,0.4
	c-12.34,0.01-13.95,1.38-15.14,13.62C543.68,86.73,543.92,89.67,543.92,94.04z"/>
<path class="st0" d="M718.05,27.54c-0.82,11.28-1.05,11.25-10.97,8.98c-3.66-0.84-8.09-1.38-11.35-0.05
	c-3.4,1.38-7.49,4.83-8.18,8.04c-0.65,3.02,1.98,7.68,4.53,10.24c3.62,3.64,8.42,6.15,12.87,8.91c16.4,10.18,10.82,33.12-6.67,40.87
	c-10.07,4.46-20.34,4.7-30.85,0.35c-5.52-2.28-5.66-6.15-3.67-9.81c0.93-1.71,5.26-2.19,8.02-2.14c5.82,0.1,11.74,1.8,17.4,1.08
	c2.96-0.37,7.19-4.14,7.71-6.95c0.66-3.62-0.82-8.65-3.21-11.57c-3.04-3.72-7.96-5.89-11.99-8.84
	c-6.77-4.94-11.85-11.39-10.54-19.99c1.51-9.9,7.88-16.7,17.32-20.51C698.38,22.15,708.03,22.47,718.05,27.54z"/>
<path class="st0" d="M457.27,28.17c-1.07,3.59-2.07,6.91-3.09,10.32c-5.67-0.87-11.26-3.02-16.28-2.1c-4.47,0.82-10.32,4.24-11.81,8
	c-1.13,2.86,3.02,8.56,5.96,12.04c2.31,2.73,6.34,4.01,9.62,5.9c8.38,4.81,11.41,12.1,10.59,21.56
	c-0.89,10.32-6.94,16.82-15.69,20.58c-8.75,3.76-17.77,5.17-27.44,1.23c-10.32-4.2-10.79-4.24-4.65-13.8
	c6.94,0.91,13.74,3.17,20.01,2.16c4.55-0.73,9.73-5.07,12.01-9.24c1.11-2.04-3.22-7.8-6.06-11.03c-2.45-2.78-6.26-4.37-9.49-6.47
	c-15.1-9.82-14.81-29.09,0.6-38.39C432.8,22.18,444.28,21.28,457.27,28.17z"/>
<path class="st0" d="M322.7,28.14c-1.71,3.75-3.36,7.39-4.24,9.33c-7.91-0.54-14.08-1.91-19.89-0.99c-3.17,0.5-7.38,4.49-8.08,7.6
	c-0.67,2.98,1.87,7.49,4.29,10.15c2.65,2.9,6.83,4.37,10.26,6.6c8.11,5.27,14.02,12.21,12.54,22.44
	c-1.49,10.26-7.88,17.32-17.42,21.42c-9.75,4.2-19.45,3.49-29.29,0.07c-5.44-1.89-5.18-5.32-3.95-9.76c1.52-5.46,4.37-3.4,8.1-2.51
	c5.61,1.34,11.65,2.15,17.32,1.52c3-0.33,7.58-3.93,7.94-6.53c0.54-3.99-1.01-9.05-3.42-12.42c-2.41-3.38-6.81-5.47-10.59-7.7
	c-7.77-4.58-12.61-11.36-11.7-20.19c1.08-10.42,7.65-17.32,17.61-21.2C302.25,22.06,311.78,22.94,322.7,28.14z"/>
<path class="st0" d="M244.68,64.77c7.19,5.8,12.48,12.05,10,21.32c-3.38,12.66-12.81,19.91-24.9,21.66
	c-8.83,1.28-18.18-1.06-28.91-1.91c2.47-6.46,3.88-10.14,5.29-13.81c5.68,0.93,10.98,2.33,16.34,2.57
	c9.97,0.45,16.78-4.7,17.16-12.17c0.38-7.43-3.84-10.91-14.87-12.35c-0.83-0.11-1.61-0.58-2.47-0.91c-1.7-7.6,1.6-10.89,8.92-11.74
	c3.03-0.35,6.81-1.43,8.6-3.56c2.11-2.52,3.52-6.65,3.14-9.84c-0.22-1.84-4.45-4.32-7.04-4.54c-5.12-0.43-10.36,0.51-16.15,0.92
	c-5.68-7.49-5.35-8.11,3.99-11.69c10.48-4.02,20.33-3.16,29.3,3.37c8.87,6.47,8.17,18.96-1.21,27.34
	C249.73,61.35,247.24,62.89,244.68,64.77z"/>
<path class="st0" d="M721.89,104.19c2.6-14.33,5.15-28.76,7.86-43.15c1.64-8.7,3.78-17.32,5.28-26.04
	c1.85-10.75,4.75-12.36,15.68-7.81c-4.4,23.86-8.8,47.76-13.23,71.65C736.11,106.26,732.94,107.42,721.89,104.19z"/>
<path d="M140.92,93.48c3.32-17.84,6.56-35.71,10.11-53.51c0.3-1.51,2.53-3.56,4.07-3.77c18.14-2.43,30.19,3.86,29.25,23.68
	C183.29,82.33,166.4,98.96,140.92,93.48z"/>
<path d="M771.68,69.42c0.39-10.82,3.81-22.39,14.94-30.12c10.86-7.54,27-4.28,29.5,11.72c1.89,12.11-0.78,23.49-7.63,33.4
	c-6.25,9.04-17.05,12.58-25.32,9.72C775.77,91.58,771.49,83.15,771.68,69.42z"/>
<path d="M482.96,62.7c0.89-6.18,1.24-11.74,2.62-17.02c0.88-3.38,3.07-8.82,5.09-9.01c4.7-0.45,10.7,0.43,14.15,3.24
	c2.69,2.19,4.07,8.6,3.01,12.28C504.85,62.62,495.41,66.11,482.96,62.7z"/>
</svg>
