<?xml version="1.0" encoding="utf-8"?>
<!-- Generator: Adobe Illustrator 25.0.0, SVG Export Plug-In . SVG Version: 6.00 Build 0)  -->
<svg version="1.1" id="Layer_1" xmlns="http://www.w3.org/2000/svg" xmlns:xlink="http://www.w3.org/1999/xlink" x="0px" y="0px"
	 viewBox="0 0 451.1 647.8" style="enable-background:new 0 0 451.1 647.8;" xml:space="preserve">
<path d="M95.9,399.6v-88.3l41.5-7.2v56.8c29.3,0,57.5,0.6,85.5-0.3c10.7-0.4,14.7-8.9,14.6-19.2c-0.2-14.6,0-29.1,0-44.9h44.4
	c-1.1,23.6,0.2,47.8-4.1,71c-3.5,18.6-19.3,31.3-39.3,31.9C191.5,400.4,144.5,399.6,95.9,399.6z"/>
<path d="M281.2,219.5h-43.9c0-15.3-0.2-29.8,0.1-44.3s-6.7-21-21.4-20.9c-25.1,0.2-50.3,0.1-77.6,0.1v54.5
	c-13.4-2-24.5-3.1-35.2-5.5c-3.1-0.7-7.4-5.2-7.5-8c-0.6-26.1-0.3-52.1-0.3-79.9c42.2,0,82.7-0.1,123.2,0
	c46.9,0.1,62.7,15.7,62.6,61.2C281.2,190.7,281.2,204.7,281.2,219.5z"/>
<path d="M314.4,429.7c2.6-0.5,3.1-0.7,3.6-0.7c38,3.5,38,3.5,37.7,42.4c-0.2,28.5-17.6,49.4-44.1,50.2c-33.6,1-67.4,0.9-101,0
	c-22.1-0.6-39.3-17.7-42.9-39.9c-0.6-3.6-0.4-7.3-0.5-11c0-16.7,0-33.3,0-51.1h41.2c0,14.2-0.3,28.2,0.1,42.1
	c0.4,16.8,6.4,22.6,23.4,22.8c20.3,0.2,40.6-0.1,60.9,0.1c14.8,0.1,21.4-7.5,21.5-21.4C314.4,452.4,314.4,441.4,314.4,429.7z"/>
<path d="M314.3,329.4c0-11.5,0.1-21.9,0-32.3c-0.1-13.4-7.3-20.3-20.9-20.5c-20.8-0.2-41.7-0.4-62.5,0c-15.8,0.3-21.8,6.4-22.2,22.4
	c-0.4,14-0.1,27.9-0.1,42.7h-39c-0.7-3-2.2-6.6-2.3-10.3c-0.3-15.2-0.6-30.4-0.2-45.6c0.7-26.9,20.4-46.4,47.9-46.8
	c31-0.4,62-0.4,93,0c27.5,0.4,46.9,19.7,47.8,46.8c0.1,2.1,0,4.2,0,6.3C356,329.4,355.9,329.5,314.3,329.4z"/>
</svg>
