<svg id="Layer_1" data-name="Layer 1" xmlns="http://www.w3.org/2000/svg" viewBox="0 0 290.14 489"><defs><style>.cls-1,.cls-2{fill:none;stroke:#000;stroke-miterlimit:10;}.cls-1{stroke-width:2px;}.cls-2{stroke-width:4px;}</style></defs><title>dutchbeans-bronze</title><path d="M248.14,129.85a48.53,48.53,0,0,1-3.08,17.64A38.06,38.06,0,0,1,223,169.87a46.67,46.67,0,0,1-17.35,3.1H173.33V86.66h32.28A46.67,46.67,0,0,1,223,89.76a38.38,38.38,0,0,1,13.43,8.8,39.2,39.2,0,0,1,8.67,13.64,48.55,48.55,0,0,1,3.08,17.65m-12,0A43.25,43.25,0,0,0,234,115.63a29.82,29.82,0,0,0-6.14-10.6,26.18,26.18,0,0,0-9.64-6.62,33.21,33.21,0,0,0-12.59-2.29H185.07v67.4h20.54a33.4,33.4,0,0,0,12.59-2.29,26.49,26.49,0,0,0,9.64-6.6A29.52,29.52,0,0,0,234,144.06a43.15,43.15,0,0,0,2.17-14.21" transform="translate(-129.39 -51)"/><path d="M317.17,313.08V226.77h27.52a52.91,52.91,0,0,1,13.71,1.56,26.52,26.52,0,0,1,9.45,4.46,17.68,17.68,0,0,1,5.49,7.08,24,24,0,0,1,1.77,9.42,19.23,19.23,0,0,1-1,6.15,18,18,0,0,1-3,5.48,21.58,21.58,0,0,1-5.06,4.52,28.31,28.31,0,0,1-7.14,3.25q9.45,1.86,14.28,6.81t4.81,13a24.37,24.37,0,0,1-2,10,21.4,21.4,0,0,1-5.91,7.76,27.44,27.44,0,0,1-9.51,5,42.57,42.57,0,0,1-12.86,1.78Zm11.68-47.64h15.42a30,30,0,0,0,8.56-1.09,17.19,17.19,0,0,0,6-3,11.66,11.66,0,0,0,3.52-4.67,15.23,15.23,0,0,0,1.15-6q0-7.59-4.58-11.14T344.69,236H328.85Zm0,8.31V303.8h18.68a28.49,28.49,0,0,0,8.58-1.14,16,16,0,0,0,5.9-3.22,12.43,12.43,0,0,0,3.4-4.94,17.49,17.49,0,0,0,1.09-6.29,13,13,0,0,0-4.73-10.58q-4.72-3.88-14.3-3.88Z" transform="translate(-129.39 -51)"/><path class="cls-1" d="M358.41,101.81c-15,50.68-38.78,75.52-57.79,88.84C277,207.22,259.29,206.9,230.75,226c-30,20.08-48.09,45.62-58.65,63.83" transform="translate(-129.39 -51)"/><rect class="cls-2" x="2" y="2" width="286.14" height="286.14"/><path d="M182.53,420.73a30.7,30.7,0,0,1-1.93,11.09,24.66,24.66,0,0,1-5.45,8.55,24.35,24.35,0,0,1-8.44,5.5,29.28,29.28,0,0,1-10.89,1.95H135.54V393.61h20.28a29.28,29.28,0,0,1,10.89,1.94,24.14,24.14,0,0,1,8.44,5.53,24.74,24.74,0,0,1,5.45,8.57,30.64,30.64,0,0,1,1.93,11.08m-7.53,0a27.46,27.46,0,0,0-1.36-8.93,19,19,0,0,0-3.86-6.66,16.58,16.58,0,0,0-6.05-4.16,20.94,20.94,0,0,0-7.91-1.44h-12.9v42.34h12.9a20.94,20.94,0,0,0,7.91-1.44,16.66,16.66,0,0,0,6.05-4.14,18.72,18.72,0,0,0,3.86-6.64,27.42,27.42,0,0,0,1.36-8.93" transform="translate(-129.39 -51)"/><path d="M219.26,442a15.28,15.28,0,0,0,6-1.13,12.7,12.7,0,0,0,4.48-3.18,13.74,13.74,0,0,0,2.8-4.88,19.35,19.35,0,0,0,1-6.24v-33h7.3v33a24.65,24.65,0,0,1-1.5,8.7,20.15,20.15,0,0,1-4.27,6.94,19.57,19.57,0,0,1-6.79,4.6,25.25,25.25,0,0,1-18,0,19.66,19.66,0,0,1-6.81-4.6,19.89,19.89,0,0,1-4.29-6.94,24.65,24.65,0,0,1-1.5-8.7v-33H205v32.92a19.08,19.08,0,0,0,1,6.24,13.74,13.74,0,0,0,2.8,4.88,12.77,12.77,0,0,0,4.5,3.2,15,15,0,0,0,6,1.15" transform="translate(-129.39 -51)"/><polygon points="166.64 342.6 166.64 348.77 149.12 348.77 149.12 396.82 141.78 396.82 141.78 348.77 124.19 348.77 124.19 342.6 166.64 342.6"/><path d="M343.92,436.62a1.55,1.55,0,0,1,1.1.49l2.88,3.14a23.21,23.21,0,0,1-8.08,6,27.51,27.51,0,0,1-11.44,2.15,27,27,0,0,1-10.64-2,23.27,23.27,0,0,1-8.13-5.67,25.59,25.59,0,0,1-5.22-8.76,32.64,32.64,0,0,1-1.86-11.24,30.86,30.86,0,0,1,2-11.24,25.66,25.66,0,0,1,5.58-8.77,25,25,0,0,1,8.61-5.7,29.27,29.27,0,0,1,11.06-2,24.69,24.69,0,0,1,18,6.88l-2.38,3.37a2.82,2.82,0,0,1-.61.63,1.67,1.67,0,0,1-1,.24,1.92,1.92,0,0,1-1-.36c-.37-.24-.8-.53-1.31-.89s-1.09-.73-1.77-1.13a16.34,16.34,0,0,0-2.43-1.14,21.18,21.18,0,0,0-3.25-.89,23.4,23.4,0,0,0-4.27-.36,20.61,20.61,0,0,0-8,1.5,17.88,17.88,0,0,0-6.22,4.26,19.31,19.31,0,0,0-4.07,6.73,25.7,25.7,0,0,0-1.45,8.89,26.14,26.14,0,0,0,1.45,9,20.08,20.08,0,0,0,4,6.72,16.82,16.82,0,0,0,6,4.18,19.06,19.06,0,0,0,7.42,1.44,30,30,0,0,0,4.35-.29,17.93,17.93,0,0,0,3.57-.88,15.47,15.47,0,0,0,3.07-1.54,24.51,24.51,0,0,0,2.86-2.21,1.89,1.89,0,0,1,1.24-.57" transform="translate(-129.39 -51)"/><polygon points="277.79 396.82 270.41 396.82 270.41 372.15 241.21 372.15 241.21 396.82 233.83 396.82 233.83 342.61 241.21 342.61 241.21 366.78 270.41 366.78 270.41 342.61 277.79 342.61 277.79 396.82"/><path d="M136.61,539.39V485.18H153.9a33.21,33.21,0,0,1,8.6,1,16.73,16.73,0,0,1,5.94,2.8,11.06,11.06,0,0,1,3.45,4.45,15.09,15.09,0,0,1,1.11,5.92,12.19,12.19,0,0,1-.62,3.86,11.5,11.5,0,0,1-1.89,3.44,13.5,13.5,0,0,1-3.18,2.84,18,18,0,0,1-4.48,2q5.92,1.18,9,4.28a11.18,11.18,0,0,1,3,8.17,15.16,15.16,0,0,1-1.27,6.28,13.37,13.37,0,0,1-3.71,4.88,17.41,17.41,0,0,1-6,3.16,27,27,0,0,1-8.08,1.11ZM144,509.47h9.68a18.91,18.91,0,0,0,5.37-.68,11.11,11.11,0,0,0,3.77-1.89A7.39,7.39,0,0,0,165,504a9.62,9.62,0,0,0,.72-3.76q0-4.77-2.87-7T153.9,491H144Zm0,5.22v18.88h11.73a17.85,17.85,0,0,0,5.39-.72,10,10,0,0,0,3.7-2,7.8,7.8,0,0,0,2.14-3.11,10.92,10.92,0,0,0,.68-4,8.14,8.14,0,0,0-3-6.64q-3-2.45-9-2.44Z" transform="translate(-129.39 -51)"/><polygon points="98.66 434.18 98.66 440.16 72.63 440.16 72.63 458.16 93.7 458.16 93.7 463.92 72.63 463.92 72.63 482.42 98.66 482.42 98.66 488.39 65.25 488.39 65.25 434.18 98.66 434.18"/><path d="M292.29,539.39h-5.68a2.45,2.45,0,0,1-1.59-.49,2.94,2.94,0,0,1-.9-1.25l-5.07-13.09H254.72l-5.07,13.09a3,3,0,0,1-.91,1.22,2.43,2.43,0,0,1-1.59.52h-5.67l21.68-54.21h7.45Zm-35.53-20.12H277l-8.51-22.06a41.78,41.78,0,0,1-1.62-5.11c-.28,1-.55,2-.82,2.86s-.52,1.63-.78,2.29Z" transform="translate(-129.39 -51)"/><path d="M313.46,485.43a3.63,3.63,0,0,1,1.07,1l31.41,40.86c-.08-.66-.13-1.29-.15-1.91s0-1.22,0-1.8v-38.4h6.43v54.21h-3.71a3.19,3.19,0,0,1-1.46-.3,3.66,3.66,0,0,1-1.15-1L314.5,497.25c.05.63.08,1.25.11,1.85s0,1.16,0,1.67v38.62h-6.43V485.18H312a3.25,3.25,0,0,1,1.46.25" transform="translate(-129.39 -51)"/><path d="M402.27,493.65a2.86,2.86,0,0,1-.72.85,1.58,1.58,0,0,1-1,.29,2.62,2.62,0,0,1-1.5-.64,23.25,23.25,0,0,0-2.16-1.42,17.36,17.36,0,0,0-3.13-1.42,13.54,13.54,0,0,0-4.45-.64,13.17,13.17,0,0,0-4.35.66,9.29,9.29,0,0,0-3.16,1.79,7.38,7.38,0,0,0-1.91,2.67,8.45,8.45,0,0,0-.64,3.31,6.15,6.15,0,0,0,1.11,3.77,9.85,9.85,0,0,0,2.95,2.55,22.78,22.78,0,0,0,4.16,1.84c1.56.51,3.14,1.05,4.77,1.6s3.22,1.18,4.77,1.88a16.85,16.85,0,0,1,4.16,2.62,12,12,0,0,1,2.95,3.9,13,13,0,0,1,1.12,5.68,18.41,18.41,0,0,1-1.21,6.67,15.3,15.3,0,0,1-3.54,5.43,16.7,16.7,0,0,1-5.71,3.64,21.11,21.11,0,0,1-7.7,1.32,23.53,23.53,0,0,1-9.59-1.91,22.53,22.53,0,0,1-7.4-5.16l2.12-3.49a2.71,2.71,0,0,1,.74-.69,1.72,1.72,0,0,1,1-.29,3.06,3.06,0,0,1,1.82.85,29.49,29.49,0,0,0,2.55,1.87,19.12,19.12,0,0,0,3.71,1.88,14.58,14.58,0,0,0,5.32.85,14,14,0,0,0,4.65-.72,9.94,9.94,0,0,0,3.46-2,8.8,8.8,0,0,0,2.18-3.12,10.56,10.56,0,0,0,.75-4.06,6.8,6.8,0,0,0-1.11-4,9.24,9.24,0,0,0-2.94-2.63,20.17,20.17,0,0,0-4.14-1.8L385.41,514a49.53,49.53,0,0,1-4.76-1.8,15.54,15.54,0,0,1-4.15-2.65,12.19,12.19,0,0,1-2.93-4.07,14.84,14.84,0,0,1,3.24-16.36,15.74,15.74,0,0,1,5.24-3.33,19.24,19.24,0,0,1,7.17-1.25A22.88,22.88,0,0,1,397.5,486a19.21,19.21,0,0,1,6.55,4.16Z" transform="translate(-129.39 -51)"/></svg>