<svg id="Layer_1" data-name="Layer 1" xmlns="http://www.w3.org/2000/svg" viewBox="0 0 668 234.1"><path d="M538,618c.13-5.81.36-11.62.37-17.44,0-18.81,0-37.63,0-56.45v-5.86h15.05c.22,1.26.49,2.74.89,4.91,4.7-5.42,9.95-8,16.65-6.43,6.14,1.44,10.37,5.34,10.58,12.26.39,12.42.69,25-.71,37.28-1.52,13.35-13.12,17.16-23.71,8.78a18.46,18.46,0,0,0-2.14-1.11V618Zm16.44-49c.29,3.35.22,7.57,1.16,11.54.42,1.76,3.13,4.42,4.36,4.2,1.88-.33,4.71-2.71,4.82-4.39a210.29,210.29,0,0,0,.3-25.23c-.09-1.84-3.06-3.53-4.7-5.29-1.62,1.83-4.14,3.44-4.64,5.54C554.74,559.55,554.85,564,554.44,569.05Z" transform="translate(-166 -383.9)"/><path d="M317,618V605.7c9-1.74,9.41-2.29,7.57-10.84-4-18.69-8.1-37.36-12.35-56.94,5,0,9.53-.24,14,.18,1,.1,2.4,2.39,2.65,3.84,1.5,8.69,2.7,17.43,4,26.14a7.6,7.6,0,0,0,2.13,4.59c1.53-9.8,3.35-19.57,4.46-29.42.52-4.6,2.4-5.84,6.62-5.45,3.25.31,6.56.06,10.45.06-2.18,10.11-4.18,19.52-6.23,28.92-2.18,10.07-4.35,20.16-6.63,30.21-2,8.68-4.6,17-13.74,21Z" transform="translate(-166 -383.9)"/><path d="M166,556a31.74,31.74,0,0,0,1.83-4.76c1.57-7.44,5.95-12.57,13.35-13.79a49.15,49.15,0,0,1,16.72.11c6.78,1.26,11,6.25,12,13.15.81,6,.78,12.2,1.15,19-7.9,0-15.18.29-22.42-.1-4.58-.25-6,1.49-5.48,5.71.28,2.3.27,4.65.64,6.94.51,3.18,2.35,5.1,5.78,5s5-2.3,5.52-5.39c.26-1.44.29-2.91.44-4.65h14.23c1.62,10.81-3.69,19-13.83,21a39.76,39.76,0,0,1-11.88.43c-9.85-1.08-14.36-5.6-16.35-15.34A26.6,26.6,0,0,0,166,579Zm30.89,3.63c-1.64-4.56-2.5-8.33-4.42-11.44-.55-.9-4.81-.79-6.18.32-3.46,2.81-2.87,7-2,11.12Z" transform="translate(-166 -383.9)"/><path d="M834,586c-8.2,12.39-18,16.17-30.67,11.84-8.08-2.76-12.24-9.64-10.93-19,3.82,0,7.76-.14,11.68.11.93.06,2,1.29,2.61,2.24s.54,3,1.41,3.61c1.73,1.27,4,2.74,5.88,2.57,1.64-.14,4.11-2.29,4.34-3.83a7,7,0,0,0-2.47-5.76c-4.56-3-9.75-5-14.39-7.94-8.15-5.12-11.14-13.42-8.2-22a15.48,15.48,0,0,1,2.91-5.16c6.14-6.89,14.23-7.39,22.55-6.08,7.36,1.17,12.46,5.27,14.16,12.9.13.54.74,1,1.12,1.46v4H819.2c-.43-1.68-.4-3.07-1.07-3.85-1.38-1.61-3-3.76-4.77-4-1.59-.27-4.82,1.43-5.05,2.67-.35,2,.84,4.54,2,6.44.78,1.26,2.63,2,4.13,2.64,7.83,3.37,15.16,7.34,19.53,15.15Z" transform="translate(-166 -383.9)"/><path d="M488,597.61c0-13,0-25.12,0-37.27,0-2,.22-4.12-.37-6-.54-1.66-2.36-4.4-3.07-4.24-2,.45-4.44,1.78-5.23,3.46-1.15,2.43-1.31,5.47-1.35,8.26-.13,11.65-.05,23.31-.05,35.7-4.61,0-8.88.13-13.14-.12a3.43,3.43,0,0,1-2.3-2.4c-.13-18.8-.1-37.6-.1-56.83h14.05c.26,1.32.56,2.84.74,3.71,4.5-1.85,8.81-4.51,13.43-5.29,5.14-.86,9.12,2.43,11.84,7.4,1.65-1.53,3-2.95,4.49-4.15a14.49,14.49,0,0,1,14.56-2.51c4.87,1.69,6.66,5.94,7.17,10.56a135.47,135.47,0,0,1,.48,14c.06,11.64,0,23.28,0,35.66-4.75,0-9.05.28-13.26-.2-1-.11-2.41-2.74-2.44-4.23-.2-11.66,0-23.33-.18-35-.05-3.18,1.25-8-4-8.12-4.79-.08-5.46,4.4-5.54,8.06-.22,11.5-.28,23-.06,34.49.07,3.92-1,5.47-5.06,5.09C495.37,597.36,492.05,597.61,488,597.61Z" transform="translate(-166 -383.9)"/><path d="M263.12,596.88c-8.13,2-14.38.86-16.57-4.11-1.52,1-2.93,2.06-4.41,3-7.66,4.81-17.43,3.63-22.17-2.66-5-6.67-4.42-18.41,1.93-23.8,3.46-2.93,7.92-4.74,12-6.86,2.8-1.45,6.2-2.06,8.52-4a10.48,10.48,0,0,0,3.21-6.91c.06-1.09-3.11-3.06-5-3.39-3.3-.58-5.18,1.64-5.75,4.87-.14.8-.3,1.6-.55,3H219.07c-1.51-7.12,1.77-14.22,8.24-17.12,9-4,18.2-3.77,27.22-.17,5.7,2.27,8.24,7.06,8.37,13.08.15,7.32.18,14.66.22,22C263.15,581.35,263.12,589,263.12,596.88Zm-16.66-28.82c-3.79,1.68-6.49,2.51-8.78,4-3.71,2.36-5.69,6-4,10.26.72,1.82,3.37,3.6,5.4,4,1.76.32,5.31-1.07,5.59-2.27C245.74,579.24,245.85,574.27,246.46,568.06Z" transform="translate(-166 -383.9)"/><path d="M633.66,568.58c-.81,5.4-1.24,11.58-2.75,17.47-2.09,8.17-7.42,12.17-15.77,12.82a48.64,48.64,0,0,1-8.95-.06c-7.65-.81-13.12-4.64-15.13-12.34a71.7,71.7,0,0,1-.12-37c2.8-10.59,12.17-15.22,25.08-13.13,8.63,1.4,13.71,5.89,15.5,14.64C632.65,556.52,632.92,562.2,633.66,568.58Zm-17.18-.68c-.23-4.65,0-9.4-.91-13.92-.4-2-3.08-3.56-4.73-5.32-1.54,1.7-4.32,3.34-4.4,5.11-.43,9.28-.4,18.6.06,27.88.09,1.75,2.63,4.42,4.44,4.81,3.27.7,4.5-2.31,4.77-5.11C616.14,576.89,616.24,572.39,616.48,567.9Z" transform="translate(-166 -383.9)"/><path d="M409.76,569.1c.48-5.42.74-9.39,1.19-13.35,1.77-15.38,9.65-21.31,27-19.19,8.21,1,13.12,6,14.88,14a76.61,76.61,0,0,1,0,34.12c-2.31,10-8.68,14.39-20.31,14.47s-18-4.08-20.41-14.21C410.73,579.34,410.37,573.5,409.76,569.1Zm16.87-1.79c.39,5,.42,10,1.36,14.85.33,1.73,2.86,4.21,4.38,4.21s4.33-2.6,4.4-4.16c.42-9.61.43-19.26,0-28.88-.06-1.61-2.72-3.11-4.19-4.66-1.61,1.55-4.25,2.87-4.65,4.69C427,557.87,427,562.6,426.63,567.31Z" transform="translate(-166 -383.9)"/><path d="M786.82,569.79h-27c0,4-.21,7.57.06,11.14.26,3.41,1.71,6.26,5.77,6.18s5.33-2.8,5.63-6.31c.09-1,.12-2,.21-3.5h14.6c2.28,10.51-4.33,20-15.24,21.4a48.89,48.89,0,0,1-10.95.08c-9.27-.94-14.91-5.78-15.8-15.12a163.68,163.68,0,0,1-.46-29.36c1.18-13.86,12.1-20.52,27.29-17.82,10,1.77,15.26,7.53,15.81,17.61C787.05,559.06,786.82,564.05,786.82,569.79Zm-21.47-10c3.42,0,6.74.82,6.66-4-.09-5.21-2.47-8.74-6.27-8.46-5.25.39-5.28,4.61-5.73,8.36C759.41,560.64,763,559.69,765.35,559.77Z" transform="translate(-166 -383.9)"/><path d="M387.56,574.4H402.5c3.9,10.54-3.69,22.92-15.15,24.34a43.93,43.93,0,0,1-10.93,0c-7.22-.93-12.4-4.78-14.33-12a71.86,71.86,0,0,1-.22-37c2.82-10.84,12.41-15.53,25.43-13.24,11.14,2,16.46,9.78,15.5,23.29H387.44c-.1-1.36-.14-2.65-.31-3.92-.45-3.29-.51-7.19-5.2-7.07s-4.82,4.06-4.95,7.32c-.26,6.48-.21,13-.12,19.46,0,2.47,0,5.13.93,7.34.68,1.67,2.79,3.83,4.23,3.81s3.57-2.17,4.25-3.85C387.22,580.43,387.12,577.62,387.56,574.4Z" transform="translate(-166 -383.9)"/><path d="M637.62,578.8c3.94,0,7.26.15,10.56,0,2.85-.18,4.4.76,4.69,3.72.09.95.47,2.31,1.14,2.67,1.92,1,4.11,2.32,6.08,2.16,1.49-.11,3.84-2.21,4-3.59.18-1.91-.82-4.83-2.3-5.82-5.38-3.58-11.6-6-16.72-9.83-10.7-8.09-9-24.34,2.74-29.78,6-2.77,12.28-2.81,18.58-1.21,8.62,2.18,12.86,8.24,12.27,17.71H665c-.53-1.89-.57-3.82-1.53-4.95-1.15-1.35-3.09-2.78-4.69-2.78a6.12,6.12,0,0,0-4.66,2.76c-.64,1.39-.06,4,.94,5.32,1.21,1.64,3.34,2.67,5.21,3.7,2.92,1.6,6,2.82,8.92,4.47,9.12,5.23,12.14,12.17,9.86,22.22-1.86,8.22-8,12.8-18.08,13.46-6.82.44-13.35-.13-18.53-5.36C638.49,589.69,637.26,584.92,637.62,578.8Z" transform="translate(-166 -383.9)"/><path d="M309.8,554.8H296.29c-.43-1.66-.4-3.45-1.27-4.48-1.24-1.48-3.1-3.27-4.76-3.35s-4.44,1.33-5.12,2.82.15,4.22,1.26,5.73,3.39,2.57,5.28,3.6c3.06,1.67,6.33,3,9.31,4.77,8.52,5.12,11.33,11.91,9.18,21.59-1.71,7.72-7.82,12.62-17.15,13.43-7.51.65-15.09.12-20-6.36-2.61-3.45-3.48-8.21-5.65-13.65,5.78,0,9.72-.14,13.64.11.92.06,2,1.32,2.58,2.28s.56,3,1.43,3.6c1.91,1.26,4.28,2.69,6.36,2.54,1.56-.11,4-2.45,4.16-4a7.12,7.12,0,0,0-2.57-5.72c-5-3.28-10.65-5.52-15.56-8.88-9.22-6.31-10.74-19-3.62-26.61S297.52,534,305,541C308.88,544.67,310.45,549.2,309.8,554.8Z" transform="translate(-166 -383.9)"/><path d="M737.72,586.72c.09.14.23.28.24.43,1,9.42.73,10.2-4.06,10.9-11.14,1.62-18.3-1.72-19.51-9.53a91.56,91.56,0,0,1-.56-12.95c-.08-8.3,0-16.59,0-25.14l-6.22-.8V538.15c6.23.75,6.68-3.15,6.27-7.93-.25-2.78-.05-5.6-.05-8.73h16.4v8.44c0,7.35,0,7.35,7.57,8.3v11.38l-6.89.67c0,10.8-.26,21.4.26,32,.09,1.75,3.58,3.32,5.5,5Z" transform="translate(-166 -383.9)"/><path d="M554,415.26,564,425.62l-42.47,42.43-9.9-10.53Z" transform="translate(-166 -383.9)"/><path d="M505.63,451.9l-10.72-10.23,43.2-42.25,9.18,10.91Z" transform="translate(-166 -383.9)"/><path d="M701.57,597.6c-4.59,0-8.74-.1-12.88,0-2.76.09-3.33-1.32-3.32-3.71q.07-26.25,0-52.5c0-2.46.71-3.72,3.39-3.65,4.14.12,8.29,0,12.82,0Z" transform="translate(-166 -383.9)"/><path d="M490.34,436.52l-10.51-10,42.66-42.65L532,395C518.72,408.28,504.48,422.44,490.34,436.52Z" transform="translate(-166 -383.9)"/><path d="M505.85,484.54l-41.79-43,10-9.7,42.28,42.42Z" transform="translate(-166 -383.9)"/><path d="M490.34,499.36l-42-42,10-9.18,42,42Z" transform="translate(-166 -383.9)"/><path d="M432.75,473.75l10.16-11,41.33,42.86L473.92,515Z" transform="translate(-166 -383.9)"/><path d="M701.68,517.39v14.19c-4.7,0-9.13.15-13.53-.13a3.78,3.78,0,0,1-2.62-2.57c-.3-3.73-.12-7.51-.12-11.49Z" transform="translate(-166 -383.9)"/></svg>