<?xml version="1.0" encoding="utf-8"?>
<!-- Generator: Adobe Illustrator 25.0.0, SVG Export Plug-In . SVG Version: 6.00 Build 0)  -->
<svg version="1.1" id="b194eda5-61dd-4302-9e10-429fbae863a4"
	 xmlns="http://www.w3.org/2000/svg" xmlns:xlink="http://www.w3.org/1999/xlink" x="0px" y="0px" viewBox="0 0 300 142.6"
	 style="enable-background:new 0 0 300 142.6;" xml:space="preserve">
<path d="M0-0.4v143.1h300V-0.4H0z M175.5,48.6H209v8h-25.3v4.7h19v8.1h-19v4.7H209v8h-33.5V48.6z M132.9,52.7c0-2.2,1.7-4,3.9-4.1
	h25.4c2.2,0,4.1,1.8,4.1,4c0,0,0,0,0,0v8.2l-8.1-0.9v-3.2H141v17.5h17.2v-3.2l8.1-1V78c0,2.2-1.7,4-3.9,4h-25.5
	c-2.2,0-4-1.7-4.1-3.9V52.7z M91.2,48.6h8.1v25.5h17.1v-6.4l8.1-1v15.4H91.2V48.6z M49,48.6h33.5v8H57.2v4.7h19v8.1h-19v4.7h25.3v8
	H49V48.6z M251.1,95.3H49v-2.5h202.1V95.3z M251.1,56.6h-25.3v4.7h19v8.1h-19v4.7h25.3v8h-33.5V48.6h33.5V56.6z"/>
</svg>
