<?xml version="1.0" standalone="no"?>
<!DOCTYPE svg PUBLIC "-//W3C//DTD SVG 20010904//EN"
 "http://www.w3.org/TR/2001/REC-SVG-20010904/DTD/svg10.dtd">
<svg version="1.0" xmlns="http://www.w3.org/2000/svg"
 width="4000.000000pt" height="2000.000000pt" viewBox="0 0 4000.000000 2000.000000"
 preserveAspectRatio="xMidYMid meet">

<g transform="translate(0.000000,2000.000000) scale(0.100000,-0.100000)"
fill="#000000" stroke="none">
<path d="M25417 15158 c-30 -51 -273 -472 -541 -935 l-486 -843 0 -2948 0
-2949 -77 -65 c-248 -208 -548 -403 -799 -519 -587 -271 -1133 -338 -1725
-213 -324 68 -670 217 -918 395 -46 33 -84 59 -85 57 -13 -19 -996 -1727
-1001 -1738 -10 -27 233 -167 447 -259 405 -174 800 -256 1288 -268 506 -13
890 68 1315 277 600 295 1116 831 1476 1533 l76 149 7 -149 c18 -391 95 -732
239 -1063 27 -63 103 -221 168 -351 66 -129 119 -241 119 -247 0 -9 223 -12
945 -12 l945 0 0 28 c0 16 -36 172 -81 348 -143 570 -218 990 -271 1529 -9 89
-13 1170 -15 4228 l-4 4107 -484 0 -484 0 -54 -92z"/>
<path d="M13875 15229 c-470 -44 -888 -369 -1049 -817 -92 -258 -92 -576 0
-834 150 -416 502 -717 942 -805 129 -26 356 -23 487 6 247 55 456 172 631
353 174 180 281 385 331 636 23 115 23 336 0 452 -125 637 -700 1070 -1342
1009z"/>
<path d="M5000 14968 c0 -17 29 -140 65 -272 173 -646 271 -1195 305 -1711 14
-219 14 -5751 0 -5970 -34 -516 -132 -1065 -305 -1711 -36 -132 -65 -255 -65
-272 l0 -32 1470 0 1470 0 0 31 c0 17 -25 121 -55 232 -155 575 -246 1042
-302 1557 -14 135 -17 326 -20 1493 l-4 1337 433 0 c864 0 1281 -48 1728 -196
292 -97 504 -212 777 -421 118 -89 141 -103 174 -103 l39 0 0 1020 0 1020 -42
0 c-37 0 -54 -10 -157 -89 -382 -292 -746 -447 -1261 -535 -340 -59 -619 -76
-1247 -76 l-443 0 0 2016 0 2015 883 -4 c957 -4 937 -3 1242 -64 827 -165
1604 -688 2078 -1400 77 -115 84 -123 115 -123 l32 0 0 1145 0 1145 -3455 0
-3455 0 0 -32z"/>
<path d="M21595 12443 c-615 -25 -1188 -247 -1665 -646 -360 -301 -668 -693
-906 -1151 l-84 -161 0 853 0 852 -1205 0 -1205 0 0 -33 c0 -19 36 -180 80
-358 168 -676 252 -1179 280 -1669 13 -236 13 -2830 0 -3070 -29 -525 -124
-1068 -319 -1835 -23 -88 -41 -174 -41 -192 l0 -33 1395 0 1395 0 0 27 c0 14
-27 126 -60 247 -147 542 -237 1003 -296 1511 -16 135 -18 299 -21 1597 l-4
1447 41 37 c85 77 256 207 378 288 613 407 1234 583 1852 525 435 -40 854
-185 1199 -416 69 -46 127 -83 130 -83 5 0 998 1715 1009 1741 5 13 -157 108
-333 194 -346 170 -701 269 -1113 309 -154 15 -388 24 -507 19z"/>
<path d="M31275 12443 c-777 -20 -1828 -198 -2842 -480 l-203 -56 0 -1009 0
-1008 30 0 c25 0 49 19 143 113 318 317 1014 862 1533 1199 587 382 1023 579
1314 595 175 9 286 -28 402 -135 210 -195 329 -569 368 -1157 12 -181 13
-1205 2 -1205 -5 0 -42 11 -83 25 -157 54 -388 109 -587 140 -275 42 -692 69
-942 61 -731 -23 -1349 -227 -1855 -609 -165 -125 -387 -361 -502 -532 -351
-524 -449 -1209 -268 -1871 218 -795 796 -1376 1560 -1569 230 -59 330 -70
620 -70 276 1 376 10 595 60 605 136 1146 509 1493 1029 27 40 48 63 51 55
171 -566 495 -914 981 -1054 173 -50 253 -60 490 -60 188 0 236 3 330 22 299
61 520 175 716 372 187 187 294 383 358 660 19 78 20 99 10 123 -9 21 -16 27
-28 22 -317 -138 -513 -135 -656 10 -72 73 -115 150 -150 271 -62 215 -58 99
-65 2075 -6 1592 -9 1820 -23 1930 -24 179 -53 324 -92 459 -258 897 -956
1437 -2024 1566 -118 14 -520 38 -561 33 -8 -1 -60 -3 -115 -5z m450 -3572
c39 -5 123 -13 188 -16 l117 -7 0 -1183 0 -1183 -71 -67 c-173 -163 -392 -291
-584 -341 -188 -49 -448 -44 -644 13 -376 108 -677 414 -811 824 -115 351
-112 778 7 1099 45 121 67 164 140 275 215 324 564 525 1023 590 118 16 511
14 635 -4z"/>
<path d="M12700 12162 c0 -16 36 -170 79 -343 120 -476 204 -911 245 -1279 40
-354 41 -382 41 -1955 0 -1393 -2 -1547 -18 -1715 -46 -481 -128 -928 -286
-1557 -34 -133 -61 -258 -61 -278 l0 -35 1395 0 1395 0 0 23 c0 12 -27 123
-60 247 -142 527 -232 969 -279 1370 -11 91 -23 185 -27 210 -3 25 -9 1235
-13 2690 l-6 2645 -1202 3 -1203 2 0 -28z"/>
</g>
</svg>
