<?xml version="1.0" encoding="utf-8"?>
<!-- Generator: Adobe Illustrator 25.0.0, SVG Export Plug-In . SVG Version: 6.00 Build 0)  -->
<svg version="1.1" id="Layer_1" xmlns="http://www.w3.org/2000/svg" xmlns:xlink="http://www.w3.org/1999/xlink" x="0px" y="0px"
	 viewBox="0 0 238.7 53.9" style="enable-background:new 0 0 238.7 53.9;" xml:space="preserve">
<path d="M8.4,24.4H0v-8.6h8.4C8.6,7.1,15.3,0,26.2,0v8.5c-4.3,0-7.5,2.5-8.2,7.4h11.5v8.6H18.2v28.6H8.4V24.4z M34.5,0h9.7v53.1
	h-9.7V0z"/>
<path d="M52.8,15.8h9.7v20.5c0,5.9,3.3,9.3,8,9.3c4.7,0,8.1-3.4,8.1-9.3V15.8h9.7v22c0,8.6-7.2,16.1-17.8,16.1
	c-10.5,0-17.7-7.5-17.7-16.1L52.8,15.8L52.8,15.8z"/>
<path d="M131.6,45.3c-5.3,6.2-11.4,8.6-17.5,8.6c-11.7,0-21-8.4-21-19.4c0-10.9,8.8-19.4,20.5-19.4c6.2,0,12.3,2.5,17.5,8.6
	l-7.8,5.5c-2.8-4-6-5.6-9.7-5.6c-6,0-10.8,4.8-10.8,10.8c0,6.1,5.3,10.8,11.4,10.8c3.7,0,7-1.6,9.9-5.3L131.6,45.3z"/>
<polygon points="143.9,24.5 135.4,24.5 135.4,15.8 143.9,15.8 143.9,4.2 153.7,4.2 153.7,15.8 164.9,15.8 164.9,24.5 153.7,24.5 
	153.7,53.1 143.9,53.1 "/>
<path d="M169.3,15.8h9.7v20.5c0,5.9,3.3,9.3,8,9.3c4.7,0,8.1-3.4,8.1-9.3V15.8h9.7v22c0,8.6-7.2,16.1-17.8,16.1
	c-10.5,0-17.7-7.5-17.7-16.1L169.3,15.8L169.3,15.8z"/>
<path d="M212,41.4c3.1,2.1,7.3,4.3,11.2,4.3c2,0,5.7-0.5,5.7-3.3c0-5.8-19.1-4.5-19.1-16.3c0-7.5,7.1-10.9,13.7-10.9
	c5,0,10.3,2.2,14.3,5l-4.3,7.1c-2.8-1.5-6.8-3.9-10.1-3.9c-1.5,0-3.8,0.3-3.8,2.3c0,5.9,19.1,3.7,19.1,16.6
	c0,8.1-8.3,11.5-15.3,11.5c-5.6,0-10.8-2.2-15.4-5.2L212,41.4z"/>
</svg>
