<?xml version="1.0" encoding="utf-8"?>
<!-- Generator: Adobe Illustrator 25.0.0, SVG Export Plug-In . SVG Version: 6.00 Build 0)  -->
<svg version="1.1" id="Layer_1" xmlns="http://www.w3.org/2000/svg" xmlns:xlink="http://www.w3.org/1999/xlink" x="0px" y="0px"
	 viewBox="0 0 349.3 318.4"><defs><style>.cls-1{fill:#fff;}</style></defs>
<rect class="cls-1" x="16.5" y="225.1" width="318.3" height="3.1"/>
<path class="cls-1" d="M132.9,182.4c-2.1,1-4.1,1.5-5.2,0.5c-0.5-1-2.1-3.1,0.5-5.2c17.5-13.4,34.6-21.2,53.7-31.5s38.2-19.1,58.3-26.8
	c21.7-8.8,42.8-16,65-23.2c6.2-2.1,11.9-4.6,18.1-8.3c2.1-1.5,4.7-3.1,7.2-2.1c6.2,2.1,5.7,9.8,3.1,15c-3.1,5.2-9.3,8.8-13.4,10.3
	c-31.5,9.8-62.5,17-92.4,28.9C194.8,153.5,163.9,166.9,132.9,182.4"/>
<path class="cls-1" d="M250.6,55.4c0-0.5-1-1.5-2.1-1.5c-1,0-2.1,1-2.1,2.6c-0.5,2.6-1,6.7,1,12.4c1,3.6,2.1,5.7,3.1,6.7c0.5-1.6,1-4.7,1.6-8.8
	C252.7,63.1,252.1,59,250.6,55.4 M222.2,66.8c-0.5,1.5,0.5-4.1-1.5-5.2c-2.1-1-3.1,1-3.6,2.6c-1.5,3.6-2.1,7.2-2.6,11.4v10.8
	c3.1-3.6,5.2-9.3,6.2-13.9C221.2,70.4,221.7,68.3,222.2,66.8 M175.2,86.9c0-1,0.5-5.2-1.5-5.7c-1.5,0-2.1,0.5-3.6,2.6
	c-1,2.1-2.1,7.7-2.1,11.9v4.6c0,1,0.5,2.1,0.5,4.1c0.5-1.6,1.5-2.6,2.1-4.1c0.5-2.1,1.5-3.6,2.1-5.2C173.7,92,174.7,90,175.2,86.9
	 M152,49.7c-2.6-5.7-4.6-5.7-5.2-2.1c0,4.1-0.5,9.3,4.1,19.6c1.5,4.1,3.1,7.7,5.2,11.9c0.5-5.2,0.5-10.3,0-15.5
	C155.6,59,154.1,54.4,152,49.7 M201,31.1c-1-2.6-3.6-7.7-5.7-6.7c-2.6,0.5-1,11.9,0.5,17c2.1,6.7,5.2,12.4,7.2,16
	c0.5-4.1,0.5-6.7,0.5-10.3C203.6,42,203.1,35.8,201,31.1 M108.6,168.4c-0.5-1.6-1.5-3.1-2.6-4.6c-1-1.5-1.5-3.1-3.6-4.6
	c0.5,3.6,0.5,6.7,1.6,9.8c1,4.1,1,8.8,4.6,10.8c2.6,1,2.1-3.6,2.1-5.2C110.2,172.1,109.1,170,108.6,168.4 M254.2,79.7
	c0,0,2.1,2.1,3.1,2.1c1.6,0,3.6-0.5,5.2-1.5c0,0,4.1-2.6,7.2-11.9c1.5-5.2,1-8.3,1-9.8c0,0-2.6-0.5-5.2-5.2
	c-1.5-2.6-1.5-5.7-1.5-5.7c1-3.6,3.6-5.2,5.7-3.6c2.6,2.1,1.5,6.7,6.2,7.2c3.1,0.5,6.2-2.1,7.2-3.1c1.6-1,4.1-0.5,4.1,2.1
	c0,4.7,0,8.8,2.1,12.9c1.6,2.1,5.7,6.7,13.4,3.1c4.1-1.6,10.3-8.8,14.5-11.9c2.1-1.5,4.1-0.5,3.1,2.6c-1.6,3-8.3,18-24.3,23.7
	c-8.8,3.6-16-4.7-17.6-9.8c-1-5.2-0.5-10.3,1-15.5c-1,1.6-3.1,2.6-4.6,3.1c0,8.3,0,30.5-12.4,36.7c-7.2,3.6-13.4-2.6-13.9-3.1
	c-1,2.1-3.1,5.2-5.2,8.3c-2.6,3.6-6.2,6.7-10.3,7.7c-5.7,1-8.8-3.6-10.8-7.7c-0.5-1-1-1.5-1-2.6c-1.5-2.1-2.1-3.6-4.1-2.6
	c-1,0-1.5,1.5-2.1,2.6v2.6c0,5.7-0.5,10.8-2.6,16.5c-0.5,2.1-3.6,2.1-4.7,0c-1.5-8.3-3.1-12.9-4.1-16.5c-0.5-2.6-1-4.6-1.6-6.2
	c0,2.1-0.5,4.1-1,6.2c-3.1,9.8-7.7,22.7-13.9,25.3c-9.3,4.6-13.9-10.3-13.4-8.8c-1-3.6-4.6-3.1-5.7-1c-2.1,3.6-1.5,8.3-1.5,14.5
	c0,1.5,0,3.6-0.5,6.2c-1.5,4.1-5.7,4.6-6.7,0.5c-1.5-6.2-0.5-8.3-4.6-24.3c-0.5-2.6-1.5-4.1-2.6-7.2c-2.6,3.1-5.2,6.2-8.3,9.3
	c2.6,11.4,5.2,25.3-1.5,34.6c-2.6,4.7-9.3,6.2-13.9,3.6c-3.6-2.6-7.7-7.7-9.8-12.4c-4.6-10.8-5.7-23.2-4.1-35.1
	c-5.7,5.7-12.4,11.4-19.6,15.5c2.6,9.3,4.6,18.6,6.2,28.4c6.2,4.7,10.3,11.4,12.4,18.6c1.5,4.6,2.1,8.8,1.5,13.4
	c0,2.1-0.5,4.7-2.6,5.2c-3.1,0.5-5.2-0.5-7.2-2.6c-10.8-10.3-14.5-24.8-18.6-38.2c-22.2-12.4-48.5-23.2-61.9-45.4
	c-2.1-3.1-3.6-6.2-5.2-9.8c-4.6-11.4-5.2-26.8,0.5-38.2c3.6-8.3,9.3-14.5,17-19.6c10.3-7.2,22.2-8.8,34.1-8.3
	c16,0.5,33,4.1,44.9,2.6c8.8-1,12.9-2.1,13.9-1c-0.5-0.5,3.1,1.5,0,5.2c-2.1,3.1-3.6,4.1-7.7,6.2c-9.8,5.7-20.1,7.2-31,6.7
	c-15-1-29.9-5.2-45.9-1.5c-15.5,3.1-23.7,19.1-21.7,34.1c1,8.8,4.1,16.5,8.8,23.7c3.6,5.7,8.8,10.8,13.9,15
	c11.9,9.8,24.8,16,37.7,22.7L81.4,128c-2.6,0.5-4.1,1-6.2,1c-1-0.5-2.1-1-3.1-1.5c-2.1-1-2.6-3.1-2.1-5.7c1-3.6,4.6-4.7,8.3-5.7
	c-1.5-5.2-3.1-10.3-4.1-15.5c-1.5-6.7-2.6-13.4-2.6-20.7c0.5-4.1,0.5-8.8,3.6-12.9c2.1-2.6,6.7-3.6,8.8,6.2c1.9,10.1,3,17.8,5,27.1
	c0.5,3.6,1.6,7.2,3.1,11.4c6.2-2.1,7.7-2.6,12.4-5.7c3.6-2.1,5.7-3.6,8.3-5.7c1.5-1,2.6-2.6,4.6-4.1c1.5-1,3.1-0.5,2.6,1v3.1
	c-0.5,4.1-1,7.7-1,12.9c0,5.7,3.1,13.9,7.2,19.6c2.1,2.6,5.7,4.6,7.7,4.1c6.7-2.6,5.7-12.9,4.6-19.6c-9.8,0.5-16.5-8.8-16.5-17
	c0-2.6,1-6.2,3.6-6.7c5.2-0.5,8.3,2.6,10.8,6.7c2.1,3.1,4.1,6.7,5.7,9.3c3.1-2.6,5.7-5.7,7.7-9.3v-1c-3.6-15-11.9-28.9-10.3-44.9
	c0.5-6.2,2.6-17.6,9.8-19.1c5.2-1,8.8,5.7,9.3,6.7c3.1,7.2,3.6,14.5,3.6,21.7V72c-0.5,5.7-1,8.8-2.6,15.5c0,0,1,6.7,1.5,12.9
	c0.5,1.5,0.5,3.1,0.5,4.1c0.5-1,0.5-2.6,1-4.1c1-8.3,3.6-21.2,11.9-27.9c1-1,5.7-4.1,7.7,2.1c1,3.6,0,8.3-1,11.9s-2.1,6.7-4.1,10.3
	c-0.5,1-1.6,2.1-2.1,3.6c-1.5,2.1-3.1,4.6-4.6,7.2c1-1.5,2.6-2.6,4.1-3.1c3.1-1.6,6.2,0.5,6.7,1c2.6,2.1,5.2,8.8,8.3,5.7
	c2.1-2.1,4.1-6.2,5.7-10.8c1.5-5.7,3.1-11.4,4.1-15c-3.1-10.8-8.3-22.7-10.8-37.7c-1.6-9.3-0.5-18.6,2.6-26.8
	c0.5-0.5,2.6-5.7,4.6-6.7c1.5-1,3.1-2.1,6.2,0c2.1,1,6.2,6.7,6.7,21.2v11.9v1.6c0,5.2-2.1,20.1-2.1,20.1c1.5,5.7,3.6,16.5,3.6,16.5
	c0-8.8,0.5-18.1,5.2-26.3c2.6-3.6,5.2-7.7,10.3-6.7c3.6,0.5,4.6,5.2,4.1,8.8c-0.5,4.1-1.6,7.7-3.1,11.4c-2.6,6.2-6.2,11.9-9.8,17
	c1.5-1,1.5-1,3.1-1.6c2.1-1,4.1-1,5.2-0.5c4.1,1,5.2,4.6,9.3,6.2c0,0,4.1,1.6,7.7-2.6c1-1.5,2.6-4.1,2.6-4.1c-1-1.6-2.1-4.1-2.1-4.1
	c-4.1-8.8-2.1-23.7,0.5-29.9c2.1-5.2,6.2-9.8,10.8-8.3c1.5,0,3.1,1.6,3.6,3.1c2.1,6.7,1.5,12.9,0,19.1
	C256.8,71.4,255.2,75.5,254.2,79.7"/>
<g class="cls-1" id="XMLID_70_">
	<polygon class="cls-1" id="XMLID_103_" points="78.4,300.9 78.4,291.8 92.1,300.9 123.9,300.9 96.6,282.7 99.9,280.7 130.1,300.9 141.9,300.9 
		141.9,264.6 123.8,264.6 123.8,273.7 110.3,264.6 91.9,264.6 78.4,273.7 78.4,264.6 60.2,276.8 60.2,288.7 48.2,280.6 72.4,264.6 
		42.1,264.6 14.8,282.7 42.1,300.9 	"/>
	<polygon class="cls-1" id="XMLID_102_" points="147.9,300.9 175.2,282.7 147.9,264.6 147.9,264.6 163.1,264.6 190.4,282.7 163.1,300.9 149,300.9 
			"/>
	<g id="XMLID_72_">
		<path class="cls-1" id="XMLID_100_" d="M205.2,280.3c0-0.3,0-0.8-0.3-1.2c-0.5-0.8-1.5-0.9-2-0.9c-3,0-3.6,2.8-3.6,4.6c0,0.8,0.1,2.3,1,3.3
			c0.6,0.7,1.4,1,2.9,1c1.3,0,1.7-0.2,2-0.2v-2.6h-2.4v-2h5v6.1c-0.8,0.3-2,0.7-4.4,0.7c-2.8,0-4.2-0.7-5.2-1.6
			c-1.4-1.3-1.6-3.3-1.6-4.5c0-4.3,2.7-6.6,6.4-6.6c1.6,0,3.2,0.4,4.1,1.5c0.8,0.9,0.9,1.9,0.9,2.5L205.2,280.3L205.2,280.3z"/>
		<path class="cls-1" id="XMLID_98_" d="M210,276.6h2.6v5.2l4.1-5.3h3l-4.5,5.5l4.8,6.7h-3.2l-4.3-6.2v6.2H210V276.6z"/>
		<path class="cls-1" id="XMLID_96_" d="M221.4,276.6h3.8l4.6,9.6v-9.6h2.4v12.2h-3.6l-4.7-10.1v10.1h-2.5V276.6z"/>
		<path id="XMLID_93_" d="M244.2,276.6l4.2,12.2h-2.6l-0.9-2.6h-4.8l-0.9,2.6h-2.5l4.4-12.2H244.2z M244.2,284.2l-1.7-5.2l-1.8,5.2
			H244.2z"/>
		<path id="XMLID_91_" d="M249.7,276.6h8.1v2h-5.5v2.9h5.2v2h-5.2v3.3h5.7v2h-8.3V276.6z"/>
		<path class="cls-1" id="XMLID_88_" d="M259.7,276.6h4.7c1.3,0,2.7,0,3.7,0.8c0.8,0.7,1.1,1.5,1.1,2.3c0,2.3-2,2.8-2.5,3c1.8,0.2,2,1.2,2.2,2.8
			c0.2,1.4,0.3,2,0.4,2.4c0.1,0.5,0.2,0.7,0.4,0.9h-2.9c-0.1-0.7-0.5-3.8-0.7-4.2c-0.2-0.7-0.9-0.7-1.3-0.7h-2.3v4.9h-2.7v-12.2
			L259.7,276.6L259.7,276.6z M262.3,281.9h2.1c0.3,0,0.9,0,1.3-0.3c0.2-0.1,0.7-0.6,0.7-1.4s-0.4-1.2-0.6-1.4
			c-0.4-0.3-0.9-0.3-1.7-0.3h-1.8V281.9z"/>
		<path class="cls-1" id="XMLID_85_" d="M276.4,276.4c1.3,0,3.1,0.3,4.3,1.7c1.3,1.5,1.5,3.4,1.5,4.6c0,1.8-0.5,3.7-1.5,4.8
			c-1.3,1.5-3.3,1.7-4.3,1.7c-1.6,0-3.2-0.5-4.3-1.7c-1.3-1.4-1.5-3.4-1.5-4.5C270.5,279.6,272,276.4,276.4,276.4z M274.2,286.2
			c0.4,0.5,1,1,2.2,1c1.1,0,1.8-0.4,2.3-1.1c0.4-0.6,0.8-1.5,0.8-3.5c0-0.6-0.1-1.4-0.3-2.2c-0.5-1.5-1.5-2.2-2.8-2.2
			c-1,0-1.8,0.4-2.2,1c-0.7,0.8-0.9,2.2-0.9,3.5C273.3,283.9,273.5,285.2,274.2,286.2z"/>
		<path class="cls-1" id="XMLID_83_" d="M285.9,284.9c0,0.6,0,2.3,2.2,2.3c1.4,0,2.3-0.7,2.3-1.7c0-1.1-0.8-1.3-2.3-1.6c-2.9-0.7-4.5-1.6-4.5-3.7
			c0-2,1.4-3.8,4.8-3.8c1.3,0,2.8,0.3,3.7,1.4c0.7,0.9,0.7,1.9,0.7,2.3h-2.5c0-0.4-0.2-1.9-2-1.9c-1.2,0-2,0.7-2,1.7
			c0,1.1,0.9,1.3,2.6,1.8c2.1,0.5,4.2,1.1,4.2,3.5c0,2.2-1.8,4-5.2,4c-4.7,0-4.7-3-4.7-4.2L285.9,284.9L285.9,284.9z"/>
		<path class="cls-1" id="XMLID_80_" d="M294.9,276.6h3.8c1.8,0,3.2,0.1,4.2,1.3c0.6,0.8,0.7,1.7,0.7,2.3c0,1.4-0.6,2.6-1.5,3.2s-2.1,0.6-2.8,0.6
			h-1.8v4.7h-2.6L294.9,276.6L294.9,276.6z M297.5,282.1h1c0.8,0,2.4,0,2.4-1.9c0-1.7-1.4-1.7-2.1-1.7h-1.3V282.1z"/>
		<path class="cls-1" id="XMLID_77_" d="M310,276.6l4.2,12.2h-2.6l-0.9-2.6h-4.8l-0.9,2.6h-2.5l4.4-12.2H310z M310.1,284.2l-1.7-5.2l-1.8,5.2
			H310.1z"/>
		<path class="cls-1" id="XMLID_75_" d="M321.9,280.6c-0.1-0.4-0.2-2.1-2-2.1c-1.9,0-2.7,2-2.7,4.5c0,0.7,0,4.2,2.5,4.2c1.1,0,2.1-0.7,2.2-2.3h2.7
			c-0.1,0.7-0.1,1.9-1.1,2.9c-1.1,1.1-2.4,1.4-3.6,1.4c-4.2,0-5.6-3.1-5.6-6.1c0-3.9,2.2-6.4,5.6-6.4c2.7,0,4.5,1.6,4.5,4h-2.5
			V280.6z"/>
		<path class="cls-1" id="XMLID_73_" d="M326.4,276.6h8.1v2H329v2.9h5.2v2H329v3.3h5.7v2h-8.3L326.4,276.6L326.4,276.6z"/>
	</g>
</g>
</svg>
