<svg width="381" height="65" viewBox="0 0 381 65" fill="none" xmlns="http://www.w3.org/2000/svg">
<g clip-path="url(#clip0_1116_2032)">
<path d="M135.182 21.9895L137.143 21.9938L137.162 17.7783L142.786 16.2095L142.651 22.0387L146.169 22.0303L145.839 25.8218H142.561C142.561 25.8218 142.431 30.4851 142.431 31.9637C142.431 36.0384 142.711 36.3249 144.522 36.3103C145.107 36.276 145.682 36.1488 146.228 35.9335L145.824 39.6451C143.928 40.1467 141.946 40.2241 140.017 39.8718C136.248 38.7291 137.03 35.1633 137.03 31.8734C137.03 29.9111 137.098 25.8072 137.098 25.8072H134.854L135.182 21.9895Z" fill="#007DC3"/>
<path d="M14.5814 27.7442H20.5085C20.5085 27.7442 20.4544 30.6416 20.4523 32.0907C20.4482 34.7455 20.5085 38.3375 20.4482 38.3986C17.0392 39.8867 13.2785 40.3579 9.61192 39.7563C0.742725 38.4908 -0.217922 30.1713 0.0338026 26.8985C0.632315 19.112 5.65807 15.7289 10.869 15.4908C13.7656 15.2275 16.6805 15.7216 19.3324 16.9254C19.653 17.067 19.6396 17.09 19.6396 17.09L19.1088 22.0398C19.1088 22.0398 19.0817 22.0136 18.6945 21.7419C17.0366 20.4595 14.9938 19.7871 12.9048 19.8361C11.0568 19.9136 9.31435 20.7253 8.0581 22.0941C6.80185 23.4628 6.13395 25.2772 6.20031 27.1409C6.13999 31.8788 7.73325 35.1749 11.9473 35.4403C12.8965 35.4793 13.8458 35.3674 14.7604 35.1087C14.7604 35.1087 14.8052 34.4434 14.7312 32.1505C14.6709 30.31 14.5814 27.7442 14.5814 27.7442Z" fill="#007DC3"/>
<path d="M29.8466 32.1548C29.8466 32.1548 29.7852 36.2073 34.7257 36.1643C36.6362 36.2156 38.5198 35.7016 40.1439 34.6858L39.8742 38.685C39.7431 38.7812 39.6042 38.8661 39.459 38.9388C37.1574 39.9879 34.5989 40.325 32.1072 39.9074C29.9229 39.7789 27.8783 38.782 26.422 37.1354C24.9657 35.4888 24.2166 33.327 24.3391 31.1243C24.2266 25.3894 27.3313 21.766 32.6004 21.5571C40.9826 21.2244 40.9306 29.4789 40.8161 31.6394C40.7984 31.9637 40.7767 32.1505 40.7767 32.1505L29.8466 32.1548ZM29.8769 28.7097H35.4741C35.4741 28.7097 35.8247 24.7693 32.4809 25.1188C29.8769 25.3894 29.8769 28.7097 29.8769 28.7097Z" fill="#007DC3"/>
<path d="M44.9707 22.1762L50.9872 21.2235V23.3978C51.0737 23.3123 51.1655 23.2323 51.2619 23.1584C52.6054 22.0643 54.2379 21.3918 55.9569 21.2244C56.8068 21.1557 57.6583 21.3356 58.4094 21.7424C59.1605 22.1493 59.7793 22.7659 60.1916 23.5184C61.7503 22.2092 63.6888 21.4465 65.7149 21.3452C66.4202 21.241 67.1398 21.3024 67.8177 21.5246C68.4956 21.7467 69.1135 22.1237 69.6233 22.626C70.1331 23.1283 70.5211 23.7425 70.7569 24.4208C70.9928 25.099 71.0702 25.823 70.9832 26.5364C71.0132 31.5021 71.0039 31.6678 70.9706 35.2892C70.9529 37.1003 71.0435 39.4761 71.0435 39.4761L65.2997 39.4677C65.2997 39.4677 65.4286 32.8745 65.3932 30.46C65.3694 28.8009 65.7149 25.6612 63.2639 25.6307C62.8444 25.5703 62.4165 25.616 62.0188 25.7637C61.6212 25.9113 61.2661 26.1563 60.9856 26.4766V35.0479C60.9856 36.5884 61.0451 39.4553 61.0451 39.4553H55.298C55.298 39.4553 55.4114 33.5693 55.3969 30.31C55.3875 28.3171 55.5977 25.6015 53.203 25.658C52.797 25.6388 52.3912 25.7013 52.0093 25.8418C51.6274 25.9823 51.2771 26.1981 50.9788 26.4766C50.9788 26.4766 50.9528 33.266 50.9788 35.0174C51.0174 37.644 51.0174 39.4553 51.0174 39.4553L45.2101 39.4415C45.2101 39.4415 45.2787 33.841 45.2194 30.1283C45.1527 25.9928 44.9707 22.1762 44.9707 22.1762Z" fill="#007DC3"/>
<path d="M131.015 35.286C131.022 36.7384 131.075 39.5118 131.075 39.5118H125.328C125.328 39.5118 125.441 33.6258 125.426 30.3665C125.418 28.3749 125.627 25.658 123.232 25.7148C122.277 25.7462 121.347 26.0284 120.534 26.5334C120.534 26.5334 120.508 33.3237 120.534 35.0752C120.572 37.7005 120.572 39.5118 120.572 39.5118L114.765 39.4993C114.765 39.4993 114.833 33.8977 114.774 30.1862C114.707 26.0504 114.525 22.2341 114.525 22.2341L120.542 21.2811V23.4554C120.628 23.3699 120.72 23.29 120.817 23.2162C122.347 22.1354 124.127 21.4694 125.986 21.2822C126.669 21.2562 127.35 21.377 127.984 21.6367C128.617 21.8965 129.189 22.2891 129.66 22.7887C130.132 23.2882 130.492 23.8832 130.718 24.534C130.944 25.1849 131.03 25.8767 130.97 26.5637C130.963 29.6762 131.003 33.0436 131.015 35.286Z" fill="#007DC3"/>
<path d="M79.9679 32.1515C79.9679 32.1515 79.9055 36.2043 84.847 36.1622C86.7576 36.2129 88.641 35.6986 90.265 34.6826L89.9956 38.6818C89.8641 38.778 89.7249 38.863 89.5793 38.9359C87.2782 39.9855 84.7197 40.3226 82.2283 39.9042C80.0439 39.7758 77.9993 38.7789 76.543 37.1323C75.0867 35.4857 74.3376 33.3238 74.4603 31.1211C74.3479 25.3874 77.4524 21.7628 82.7218 21.5541C91.1029 21.2214 91.0509 29.4757 90.9364 31.6364C90.9198 31.9605 90.8978 32.1475 90.8978 32.1475L79.9679 32.1515ZM79.998 28.7065H85.5952C85.5952 28.7065 85.945 24.7661 82.602 25.1156C79.9981 25.3874 79.9981 28.7065 79.9981 28.7065H79.998Z" fill="#007DC3"/>
<path d="M99.6047 32.1516C99.6047 32.1516 99.5422 36.2043 104.484 36.1622C106.394 36.2127 108.278 35.6983 109.902 34.6826L109.632 38.6818C109.501 38.7777 109.361 38.8627 109.216 38.9359C106.914 39.9853 104.356 40.3224 101.864 39.9042C99.6798 39.7756 97.6353 38.7786 96.1793 37.132C94.7232 35.4854 93.9743 33.3237 94.097 31.1211C93.9836 25.3874 97.0881 21.7628 102.359 21.5541C110.74 21.2214 110.688 29.4757 110.573 31.6364C110.555 31.9605 110.535 32.1475 110.535 32.1475L99.6047 32.1516ZM99.6347 28.7065H105.232C105.232 28.7065 105.582 24.7661 102.239 25.1156C99.6347 25.3874 99.6347 28.7065 99.6347 28.7065Z" fill="#007DC3"/>
<path d="M154.98 32.1516C154.98 32.1516 154.918 36.2043 159.86 36.1622C161.77 36.2127 163.654 35.6983 165.278 34.6826L165.008 38.6818C164.876 38.7778 164.737 38.8628 164.592 38.9359C162.29 39.9854 159.732 40.3224 157.24 39.9042C155.056 39.7757 153.011 38.7788 151.555 37.1322C150.098 35.4856 149.349 33.3238 149.472 31.1211C149.359 25.3874 152.464 21.7628 157.733 21.5541C166.116 21.2214 166.064 29.4757 165.949 31.6364C165.931 31.9605 165.909 32.1475 165.909 32.1475L154.98 32.1516ZM155.01 28.7065H160.608C160.608 28.7065 160.957 24.7661 157.615 25.1156C155.01 25.3874 155.01 28.7065 155.01 28.7065Z" fill="#007DC3"/>
<path d="M204.909 32.1705C204.909 32.1705 204.848 36.223 209.788 36.1801C211.699 36.2314 213.582 35.7174 215.206 34.7015L214.937 38.7007C214.806 38.7969 214.667 38.8818 214.522 38.9546C212.22 40.0034 209.661 40.3405 207.169 39.9232C204.984 39.7945 202.94 38.7976 201.484 37.151C200.028 35.5043 199.279 33.3426 199.402 31.14C199.289 25.4053 202.394 21.7817 207.663 21.573C216.044 21.2403 215.992 29.4946 215.878 31.6553C215.861 31.9794 215.839 32.1662 215.839 32.1662L204.909 32.1705ZM204.939 28.7255H210.537C210.537 28.7255 210.886 24.7851 207.543 25.1345C204.939 25.4062 204.939 28.7255 204.939 28.7255Z" fill="#007DC3"/>
<path d="M224.546 32.1705C224.546 32.1705 224.483 36.223 229.425 36.1801C231.335 36.2312 233.219 35.7172 234.843 34.7015L234.574 38.7007C234.442 38.7967 234.303 38.8816 234.157 38.9546C231.856 40.0036 229.297 40.3407 226.805 39.9232C224.621 39.7944 222.577 38.7975 221.12 37.1509C219.664 35.5044 218.915 33.3427 219.037 31.14C218.925 25.4053 222.029 21.7817 227.3 21.573C235.681 21.2403 235.629 29.4946 235.514 31.6553C235.498 31.9794 235.475 32.1662 235.475 32.1662L224.546 32.1705ZM224.575 28.7255H230.173C230.173 28.7255 230.523 24.7851 227.18 25.1345C224.575 25.4062 224.575 28.7255 224.575 28.7255Z" fill="#007DC3"/>
<path d="M239.485 25.9445C239.477 24.4932 239.425 21.8101 239.425 21.8101L245.172 21.6274C245.172 21.6274 245.058 27.6047 245.073 30.864C245.082 32.8558 244.873 35.5725 247.268 35.5158C248.223 35.4845 249.153 35.2024 249.967 34.6973C249.967 34.6973 249.993 27.9069 249.967 26.1555C249.928 23.53 249.928 21.8101 249.928 21.8101L255.734 21.6411C255.734 21.6411 255.666 27.3328 255.726 31.0456C255.793 35.1801 255.854 39.661 255.854 39.661L249.957 39.6483V37.7751C249.871 37.8613 249.779 37.9412 249.682 38.0143C248.153 39.0953 246.373 39.7613 244.514 39.9483C243.831 39.9745 243.15 39.8537 242.516 39.594C241.882 39.3343 241.311 38.9417 240.839 38.4421C240.368 37.9425 240.007 37.3475 239.782 36.6966C239.556 36.0457 239.47 35.3538 239.53 34.6669C239.537 31.5556 239.497 28.1882 239.485 25.9445Z" fill="#007DC3"/>
<path d="M290.949 22.68C293.308 21.8689 295.79 21.4807 298.282 21.533C302.174 21.7438 304.659 22.5887 304.718 28.0212C304.762 32.0066 304.779 39.581 304.779 39.581L299.231 39.6115L299.229 38.1478C298.471 38.8867 297.546 39.4281 296.533 39.7252C295.521 40.0223 294.452 40.0661 293.419 39.8529C292.612 39.6912 291.849 39.3586 291.179 38.8773C290.51 38.396 289.949 37.7768 289.534 37.0607C289.12 36.3446 288.861 35.5479 288.774 34.7233C288.688 33.8988 288.776 33.0651 289.033 32.2774C290.38 28.4441 296.112 27.7652 298.536 27.4871C298.745 27.4576 298.955 27.4398 299.166 27.4336C299.166 27.4336 299.178 27.2815 299.173 27.039C299.154 26.2561 298.642 25.0788 295.768 25.3653C294.033 25.5076 292.339 25.9681 290.769 26.7241L290.949 22.68ZM294.376 34.4204C295.05 36.7897 298.231 35.5746 299.044 35.0803C299.098 35.0453 299.155 35.0161 299.215 34.9933L299.211 30.9038C299.147 30.9043 299.084 30.91 299.021 30.9207C298.366 31.0046 293.491 31.3059 294.376 34.4204Z" fill="#007DC3"/>
<path d="M310.075 22.4376L315.913 21.5025L315.883 24.8521C316.253 23.8155 316.92 22.9127 317.799 22.2571C318.226 21.9481 318.717 21.7391 319.234 21.645C319.752 21.551 320.284 21.5744 320.792 21.7135L319.684 27.4179C319.33 27.1733 318.925 27.0112 318.501 26.9433C318.076 26.8755 317.642 26.9035 317.229 27.0255C315.583 27.7201 315.831 29.7108 315.852 31.9753C315.883 35.0541 316.032 39.6115 316.032 39.6115H310.105C310.105 39.6115 310.195 34.5714 310.166 30.7686C310.129 26.2112 310.075 22.4376 310.075 22.4376Z" fill="#007DC3"/>
<path d="M334.107 13.9722L339.917 12.9912C339.917 12.9912 339.861 14.8014 339.852 17.217C339.828 23.1627 339.708 30.6773 339.684 35.5514C339.668 38.6756 339.708 39.5915 339.708 39.5915L334.111 39.5958V38.2232C333.475 38.8333 332.722 39.306 331.898 39.6122C331.075 39.9185 330.198 40.0518 329.321 40.004C327.466 39.9494 322.189 38.7459 322.705 30.4662C323.214 22.3168 330.278 21.7481 333.482 21.8435C334.17 21.8646 334.111 21.8792 334.111 21.8792L334.107 13.9722ZM328.558 29.9227C327.991 33.3342 329.487 35.9292 331.342 36.05C332.324 36.1302 333.302 35.8516 334.096 35.265V25.7883C333.458 25.6378 332.795 25.6292 332.153 25.7631C331.511 25.8969 330.905 26.1699 330.378 26.5633C329.852 26.9567 329.416 27.4609 329.102 28.041C328.787 28.6211 328.602 29.2632 328.558 29.9227Z" fill="#007DC3"/>
<path d="M259.385 21.7692L265.191 21.5749L267.736 34.2912L270.384 21.7597L277.045 21.577L279.56 34.3217L282.253 21.7608L286.982 21.5822C286.982 21.5822 285.367 27.4398 284.289 31.394C283.212 35.3479 281.985 39.5391 281.985 39.5391L275.608 39.5475L273.229 27.2133L270.37 39.538L263.905 39.5434C263.905 39.5434 262.996 35.5379 261.719 30.7905C260.762 27.229 259.385 21.7692 259.385 21.7692Z" fill="#007DC3"/>
<path d="M349.373 32.1705C349.373 32.1705 349.311 36.223 354.252 36.1801C356.163 36.2313 358.046 35.7173 359.669 34.7015L359.401 38.7007C359.269 38.7966 359.13 38.8815 358.985 38.9546C356.683 40.0036 354.124 40.3407 351.633 39.9232C349.448 39.7946 347.404 38.7977 345.948 37.1511C344.491 35.5045 343.742 33.3427 343.865 31.14C343.752 25.4053 346.857 21.7817 352.127 21.573C360.508 21.2403 360.456 29.4946 360.342 31.6553C360.324 31.9794 360.302 32.1662 360.302 32.1662L349.373 32.1705ZM349.402 28.7255H355C355 28.7255 355.35 24.7851 352.007 25.1345C349.402 25.4062 349.402 28.7255 349.402 28.7255Z" fill="#007DC3"/>
<path d="M380.94 35.3133C380.948 36.7646 381 39.538 381 39.538H375.253C375.253 39.538 375.367 33.6523 375.351 30.3929C375.343 28.4011 375.552 25.6853 373.157 25.741C372.202 25.7725 371.272 26.055 370.459 26.5606C370.459 26.5606 370.433 33.3499 370.459 35.1014C370.497 37.7278 370.497 39.538 370.497 39.538L364.69 39.5256C364.69 39.5256 364.758 33.9239 364.699 30.2124C364.632 26.0769 364.45 22.2603 364.45 22.2603L370.467 21.3074V23.4816C370.554 23.3961 370.646 23.3162 370.743 23.2424C372.273 22.1618 374.052 21.4958 375.911 21.3084C376.594 21.2823 377.275 21.4032 377.909 21.6629C378.542 21.9227 379.114 22.3154 379.585 22.8149C380.057 23.3144 380.417 23.9094 380.643 24.5603C380.869 25.2111 380.955 25.903 380.895 26.5899C380.888 29.7024 380.928 33.0688 380.94 35.3133Z" fill="#007DC3"/>
<path d="M181.957 11.9555H193.158V53.7062H236.563V55.3481H224.344V64.9997H181.917L181.957 11.9555Z" fill="#007DC3"/>
<path d="M236.659 0H193.215V1.64218H236.659V0Z" fill="#007DC3"/>
</g>
<defs>
<clipPath id="clip0_1116_2032">
<rect width="381" height="65" fill="white"/>
</clipPath>
</defs>
</svg>
