<svg id="Layer_1" data-name="Layer 1" xmlns="http://www.w3.org/2000/svg" viewBox="0 0 643.81 91.6"><defs><style>.cls-1{fill:#fff;}</style></defs><title>greatwaves-plat</title><path class="cls-1" d="M31.73,91.6c16.52,0,28.15-10.4,28.15-25.09V13.07H47.54v5.81h-.2c-4.08-4.49-10.91-7-18.87-7C12.14,11.84,0,24.07,0,40.07,0,56.7,12.21,68.63,29,68.63c7.85,0,14.48-2.55,18.36-7.24h.2v5.1c0,8.16-6.73,14.18-15.91,14.18-8.57,0-13.57-2.75-18.67-10.1L3.43,77.71C9.24,86.79,19,91.58,31.68,91.58M30.25,57.51C19.34,57.51,12.6,51,12.6,40.07c0-10.2,7.14-17,17.85-17,9.18,0,16.73,6.22,16.73,13.77v6.73c0,7.75-7.45,14-16.93,14m40.13,9.59H83.07V39.89c0-10.71,5.2-16,13.06-16A24.83,24.83,0,0,1,103.78,25l2.76-11.53a28.08,28.08,0,0,0-8.67-1.43,20.4,20.4,0,0,0-15.2,6.22h-.2v-5.2h-12Zm66.92,1.53c11.53,0,20-4.39,26-12.14L154.83,49c-5,6.22-10.3,9.18-17.65,9.18-9.89,0-16.73-5.51-17.14-14h45.39V40.41c0-16.32-11.32-28.87-28.87-28.87-16.93,0-29.07,11.83-29.07,28.76,0,17.14,11.32,28.36,29.78,28.36M120.27,35c.82-7.55,7.24-13,16.52-13,8.87,0,15.5,5.41,16.22,13Zm70.92,33.66c8.26,0,15.5-3,18.87-7.75h.2v6.22h11.53V31.43c0-12.24-9.49-19.89-24.48-19.89-13.87,0-24.48,7.55-26.62,18.77l12,2.55c1.43-6.63,7.14-10.81,14.89-10.81,6.63,0,10.91,2.55,10.91,6.73,0,3.16-3.06,4.79-13.67,6.32-17.24,2.55-23.77,7.65-23.77,17.54,0,9.69,8,16,20.09,16m1.94-10.71c-6.83,0-10-1.84-10-6,0-3.88,3.67-6,13.67-7.75,8-1.43,11.22-2.65,12.65-5h.2v8.26c0,5.81-7.34,10.51-16.52,10.51m75.71-34.07V13.07H251.44V0H238.79V13.07H226.35v10.8h12.44V51.51c0,10.81,4.9,15.61,17.34,15.61h10.4V55.49h-9.38c-4.49,0-5.71-1.12-5.71-4.59v-27Z" transform="translate(0.03)"/><path class="cls-1" d="M429.44,68.65c8.26,0,15.5-3,18.87-7.75h.2v6.22H460V31.42c0-12.24-9.49-19.89-24.48-19.89-13.87,0-24.48,7.55-26.62,18.77l12,2.55C422.37,26.22,428.08,22,435.83,22c6.63,0,10.91,2.55,10.91,6.73,0,3.16-3.06,4.79-13.67,6.32-17.24,2.55-23.77,7.65-23.77,17.54,0,9.69,8,16,20.09,16m1.94-10.71c-6.83,0-10-1.84-10-6,0-3.88,3.67-6,13.67-7.75,8-1.43,11.22-2.65,12.65-5h.2v8.26c0,5.81-7.34,10.51-16.52,10.51m57,9.18h11.53l26.87-54h-14L494.27,52.54h-.2L475.53,13.07H461.66Zm67.28,1.53c11.53,0,20-4.39,26-12.14L573.14,49c-5,6.22-10.3,9.18-17.65,9.18-9.89,0-16.73-5.51-17.14-14h45.39V40.37c0-16.32-11.32-28.87-28.87-28.87-16.93,0-29.07,11.83-29.07,28.76,0,17.14,11.32,28.36,29.78,28.36M538.58,35c.82-7.55,7.24-13,16.52-13,8.87,0,15.5,5.41,16.22,13Zm79.09,33.66c15.71,0,26.11-6.63,26.11-16.42s-7.24-14.59-25.6-17.44c-12.44-1.94-15.71-3.47-15.71-6.94,0-3.67,4.69-5.92,11.93-5.92,8,0,14.18,3.67,16.22,9.59l11.53-3.16c-2.55-9.69-14.28-16.83-27.74-16.83-14.48,0-24.07,6.63-24.07,16.42,0,9.28,6.83,14,26.42,16.93,10.91,1.53,14.79,3.47,14.79,7.34s-5.2,6-13.87,6c-9.89,0-15.91-4-18-11.83L588,49.17c2.24,11.93,13.87,19.48,29.78,19.48" transform="translate(0.03)"/><path class="cls-1" d="M408.58,13.07h-14L376.12,52.54H376L361.13,21.07h0c-2.32-4.82-6.28-8-10.78-8s-8.46,3.17-10.78,8h0L324.85,52.55h-.2L309.84,21.07h0c-2.32-4.82-6.29-8-10.78-8s-8.46,3.17-10.78,8h0l-.82,1.75,11.1,5.23.53-1.06,16.44,33.25h0c2,4.16,5.35,6.9,9.18,6.9s7.2-2.74,9.18-6.9h0L350.39,27l16.44,33.25h0c2,4.16,5.35,6.9,9.18,6.9s7.2-2.74,9.18-6.9h0Z" transform="translate(0.03)"/><polygon class="cls-1" points="266.75 67.12 279.18 67.12 298.77 27.65 287.66 22.41 266.75 67.12"/></svg>