<?xml version="1.0" encoding="utf-8"?>
<!-- Generator: Adobe Illustrator 25.0.0, SVG Export Plug-In . SVG Version: 6.00 Build 0)  -->
<svg version="1.1" id="Layer_1" xmlns="http://www.w3.org/2000/svg" xmlns:xlink="http://www.w3.org/1999/xlink" x="0px" y="0px"
	 viewBox="0 0 1000 300.83" style="enable-background:new 0 0 1000 300.83;" xml:space="preserve">
<style type="text/css">
	.st0{fill:#85C5D8;}
	.st1{fill:#C5D870;}
	.st2{fill:#0993BB;}
	.st3{fill:#77BDAC;}
</style>
<g>
	<path class="st0" d="M144.4,150.22c2.93-1,5.39-2.87,8.04-4.38c14.75-8.43,29.45-16.95,44.15-25.46
		c13.87-8.02,27.73-16.08,41.6-24.1c11.6-6.71,23.21-13.39,34.82-20.08c0.3-0.17,0.61-0.35,0.93-0.49c0.93-0.44,1.3,0,1.35,0.89
		c0.02,0.26,0.01,0.53,0.01,0.79c0,0.44,0,0.88,0,1.32c0.02,48.05,0.04,96.1,0.02,144.14c0,1.05,0.55,2.28-0.56,3.17
		c-0.78-0.88-0.65-1.97-0.65-3.01c-0.01-47.72-0.01-95.44-0.01-143.15c0-0.53,0.01-1.05,0.18-1.92
		c-6.39,11.12-12.63,21.95-18.89,32.78c-13.21,22.85-26.4,45.72-39.59,68.59c-8.59,14.89-17.24,29.74-25.75,44.68
		c-0.39,0.68-0.72,1.41-1.23,2.02c-0.37,0.36-0.77,0.41-1.21,0.14c-13.45-0.02-26.9-0.05-40.35-0.06c-0.96,0-1.91,0.1-2.87,0.15
		c-0.29-0.21-0.5-0.48-0.64-0.81c-0.4-1.19-0.31-2.43-0.31-3.65c-0.01-22.36-0.01-44.72,0-67.08c0-1.22-0.09-2.46,0.31-3.65
		C143.88,150.7,144.1,150.43,144.4,150.22z"/>
	<path class="st1" d="M144.4,150.22c-0.05,0.18-0.11,0.36-0.16,0.54c-0.92,1.39-2.45,1.93-3.8,2.72
		c-19.48,11.38-39.08,22.57-58.59,33.91c-0.76,0.44-1.51,0.9-2.4,1.02c-0.26,0.01-0.52-0.05-0.75-0.16c-2.94-3.4-4.77-7.5-7-11.33
		c-4.54-7.78-8.96-15.62-13.53-23.38c-0.49-0.83-0.98-1.66-1.16-2.63c-0.03-0.26-0.02-0.52,0.02-0.78
		c4.34-8.31,9.25-16.3,13.91-24.44c11.68-20.38,23.46-40.7,35.2-61.04c9.81-17,19.59-34.03,29.47-50.99
		c1.9-3.26,3.75-6.54,5.62-9.81c0.65-1.13,1.18-2.36,2.31-3.14c0.24-0.14,0.48-0.15,0.73-0.01c0.02,1.14,0.06,2.28,0.06,3.41
		c0,47.57,0,95.14,0.01,142.7C144.34,147.95,144.38,149.09,144.4,150.22z"/>
	<path class="st2" d="M143.78,0.76c-17.43,30.2-34.86,60.39-52.29,90.59C80.63,110.18,69.78,129,58.92,147.82
		c-0.48,0.83-1.01,1.64-1.51,2.46c-1.16,0.21-1.49-0.72-1.91-1.44c-13.67-23.82-27.53-47.53-41.12-71.4
		c-0.17-0.3,0.07,0.06-0.09-0.24c-0.07-0.23-0.14-0.47-0.22-0.69c-0.05-0.35-0.05-0.71-0.25-1.03c0.24-0.9,1.11-1.07,1.76-1.45
		c42.32-24.46,84.65-48.9,126.98-73.34c0.37-0.22,0.79-0.36,1.19-0.54c0.16,0.13,0.22,0.26,0.18,0.41
		C143.88,0.69,143.83,0.76,143.78,0.76z"/>
	<path class="st2" d="M188.45,226.01c-0.03-0.64,0.21-1.17,0.53-1.72c8.04-13.88,16.07-27.75,24.08-41.65
		c8.27-14.35,16.51-28.72,24.78-43.07c6.79-11.76,13.62-23.5,20.41-35.26c4.95-8.57,9.87-17.17,14.81-25.75
		c0.39-0.68,0.82-1.34,1.29-2.11c0.65,0.49,0.4,1.12,0.4,1.64c0.02,3.33,0.01,6.67,0.01,10c0.01,44.75,0.03,89.49,0.03,134.24
		c0,1.23-0.04,2.46-0.06,3.68c-0.11,0.06-0.23,0.11-0.35,0.15c-1.57,0.64-3.21,0.79-4.9,0.79c-25.52-0.01-51.05,0-76.57-0.03
		C191.4,226.93,189.74,227.31,188.45,226.01z"/>
	<path d="M922.92,133.5c0,0.84,0,1.69,0,2.53c0,21.23,0.01,42.47-0.01,63.7c0,3.32,0.4,2.91-2.94,2.92c-4.47,0.02-8.95,0.02-13.42,0
		c-1.88-0.01-1.89-0.05-1.94-1.86c-0.02-0.53,0-1.05,0-1.58c0-31.85,0-63.7,0-95.55c0-0.44-0.01-0.88,0-1.32
		c0.05-1.96,0.05-1.99,2.07-1.99c5.18-0.02,10.35,0.06,15.53-0.04c1.59-0.03,2.5,0.49,3.35,1.85c9.03,14.41,18.13,28.78,27.2,43.16
		c4.44,7.04,8.88,14.09,13.33,21.13c0.46,0.72,0.95,1.42,1.6,2.39c0.51-1.18,0.29-2.13,0.29-3.03c0.02-20.62,0.01-41.24,0.01-61.86
		c0-0.44,0-0.88,0-1.32c-0.02-2.51-0.02-2.29,2.28-2.28c4.74,0.01,9.47-0.01,14.21,0.01c1.84,0.01,1.87,0.04,1.88,1.89
		c0.02,7.02,0.01,14.04,0.01,21.06c0,25.36,0,50.72,0,76.07c0,0.61-0.04,1.23,0.01,1.84c0.07,0.98-0.27,1.45-1.33,1.45
		c-5.61-0.03-11.23-0.02-16.84,0c-0.8,0-1.31-0.36-1.69-1.01c-0.35-0.6-0.74-1.19-1.11-1.78c-13.51-21.43-27.02-42.86-40.53-64.29
		c-0.46-0.73-0.92-1.46-1.38-2.18C923.3,133.43,923.11,133.47,922.92,133.5z"/>
	<path d="M776.84,191.63c-6.57,8.94-15.47,12.63-26.04,12.88c-6.92,0.16-13.67-0.82-19.93-3.9c-10.26-5.03-16.57-13.49-20.26-24.09
		c-1.68-4.83-2.59-9.85-2.89-14.92c-0.6-9.99-0.75-19.98,1.37-29.86c3.7-17.33,17.19-29.98,34.7-32.58c9.44-1.4,18.56-0.4,27.17,3.8
		c9.53,4.64,16.19,11.84,18.87,22.33c0.43,1.69,0.77,3.42,0.79,5.14c-0.29,0.5-0.74,0.46-1.16,0.46
		c-5.44,0.01-10.88-0.02-16.31,0.03c-1.05,0.01-1.53-0.28-1.79-1.35c-1.9-8.11-8.61-13.18-16.49-13.98c-3.51-0.36-7-0.29-10.43,0.7
		c-8.18,2.37-13.3,7.78-15.8,15.82c-1.05,3.36-1.74,6.81-1.96,10.31c-0.6,9.47-0.82,18.93,1.83,28.2c0.29,1.01,0.65,2,1.01,2.98
		c4.07,11.08,13.52,14.6,22.23,14.28c11.4-0.41,19-7.64,20.57-19.04c0.24-1.74,0.38-3.48,0.45-5.24c0.04-1.04-0.36-1.39-1.37-1.36
		c-1.75,0.05-3.51,0.01-5.26,0.01c-5.26,0-10.52,0.01-15.79-0.01c-1.85-0.01-1.88-0.04-1.89-1.87c-0.02-4.04,0.04-8.07-0.03-12.11
		c-0.02-1.27,0.38-1.64,1.65-1.63c12.98,0.04,25.96,0.02,38.94,0.03c1.75,0,1.78,0.04,1.78,1.97c0.01,10.7,0.01,21.41,0.01,32.11
		c0,6.49,0.02,12.98-0.02,19.48c-0.01,0.79,0.57,2.01-0.53,2.31c-1.21,0.33-2.6,0.52-3.66-0.67c-0.87-0.98-1.81-1.91-2.72-2.86
		C781.58,196.58,779.28,194.18,776.84,191.63z"/>
	<path d="M425.93,151.65c0,15.97,0,31.93,0,47.9c0,0.61-0.03,1.23,0.01,1.84c0.05,0.86-0.24,1.28-1.18,1.27
		c-5.44-0.02-10.88-0.02-16.31-0.01c-0.74,0-1.16-0.26-1.13-1.06c0.02-0.61,0-1.23,0-1.84c0-12.81,0-25.62,0-38.42
		c0-0.61-0.05-1.23,0.01-1.84c0.09-1.04-0.38-1.4-1.38-1.38c-1.84,0.04-3.68,0.01-5.53,0.01c-10.61,0-21.22-0.01-31.84,0.01
		c-3.68,0.01-3.12-0.44-3.13,3.26c-0.02,12.72-0.01,25.44-0.01,38.16c0,0.61-0.03,1.23,0,1.84c0.05,0.85-0.22,1.27-1.17,1.27
		c-5.44-0.03-10.88-0.02-16.31-0.01c-0.72,0-1.17-0.22-1.12-1.04c0.04-0.61,0-1.23,0-1.84c0-32.2,0-64.39,0-96.59
		c0-3.29-0.25-2.82,2.77-2.83c4.56-0.02,9.12-0.01,13.68,0c2.12,0.01,2.14,0.02,2.14,2.14c0.01,11.67,0,23.34,0,35
		c0,0.61,0.01,1.23,0,1.84c-0.01,0.65,0.31,0.96,0.95,0.97c0.53,0.01,1.05,0.01,1.58,0.01c12.28,0,24.56,0,36.84,0
		c0.53,0,1.05,0,1.58-0.01c0.64-0.02,0.92-0.38,0.92-1.01c0-0.61,0-1.23,0-1.84c0-11.4,0-22.81,0-34.21c0-0.61,0.01-1.23,0.01-1.84
		c-0.01-0.79,0.39-1.06,1.15-1.06c5.44,0.01,10.88,0.02,16.31,0c0.96,0,1.19,0.48,1.16,1.31c-0.02,0.61,0,1.23,0,1.84
		C425.93,119.54,425.93,135.6,425.93,151.65z"/>
	<path d="M445.32,151.52c0-15.88,0-31.76,0-47.64c0-0.44,0-0.88,0-1.32c-0.02-2.47-0.02-2.22,2.34-2.22c18.6,0,37.19,0,55.79,0
		c3.16,0,6.32-0.01,9.47,0c2.02,0.01,2.06,0.03,2.06,1.97c0.02,4.39,0.02,8.77,0,13.16c-0.01,1.84-0.04,1.87-1.88,1.88
		c-7.89,0.02-15.79,0.01-23.68,0.01c-7.81,0-15.61-0.01-23.42,0.01c-2.11,0-2.13,0.03-2.13,2.18c-0.01,6.41-0.01,12.81,0,19.22
		c0,2.27,0.02,2.29,2.28,2.29c13.07,0.01,26.14,0,39.21,0c0.7,0,1.4,0.02,2.11,0c0.74-0.01,1.11,0.27,1.1,1.07
		c-0.02,4.83-0.02,9.65,0,14.48c0.01,0.94-0.39,1.24-1.26,1.19c-0.61-0.04-1.23,0-1.84,0c-12.72,0-25.44,0-38.16,0
		c-0.53,0-1.05-0.01-1.58,0c-1.83,0.05-1.86,0.05-1.87,1.93c-0.02,7.11-0.01,14.21-0.01,21.32c0,1.14,0.03,2.28-0.01,3.42
		c-0.03,0.91,0.37,1.27,1.24,1.23c0.61-0.02,1.23,0,1.84,0c14.91,0,29.82,0,44.74,0c0.53,0,1.06,0.06,1.58-0.01
		c1.45-0.2,1.78,0.48,1.76,1.81c-0.07,4.39-0.01,8.77-0.03,13.16c-0.01,1.95-0.04,1.98-2.04,1.98c-10.88,0.01-21.75,0.01-32.63,0.01
		c-10.7,0-21.4,0-32.11,0c-0.61,0-1.23-0.03-1.84,0c-0.8,0.03-1.09-0.37-1.06-1.12c0.02-0.61,0-1.23,0-1.84
		C445.32,183.64,445.32,167.58,445.32,151.52z"/>
	<path d="M610.58,202.66c-2.69,0-4.87,0-7.04,0c-3.77,0-7.54-0.07-11.31,0.04c-1.6,0.05-2.5-0.52-3.33-1.88
		c-6.6-10.85-13.29-21.65-19.95-32.47c-0.5-0.82-1.03-1.62-1.6-2.51c-0.77,0.46-1.04,1.2-1.43,1.82
		c-6.76,10.96-13.54,21.91-20.24,32.91c-0.92,1.51-1.89,2.18-3.73,2.14c-5.69-0.13-11.38-0.05-17.19-0.05
		c-0.13-1.2,0.65-1.87,1.11-2.62c9.69-15.74,19.36-31.5,29.16-47.17c1.12-1.79,0.97-2.92-0.1-4.59
		c-9.65-15.05-19.2-30.15-28.77-45.25c-0.46-0.73-1.06-1.39-1.27-2.27c0.41-0.74,1.1-0.39,1.64-0.39
		c5.44-0.03,10.87,0.04,16.31-0.05c1.5-0.02,2.34,0.45,3.15,1.73c6.71,10.58,13.49,21.11,20.26,31.66c0.46,0.72,0.95,1.43,1.44,2.16
		c0.89-0.67,1.26-1.59,1.76-2.4c6.43-10.34,12.88-20.67,19.23-31.06c0.93-1.52,1.93-2.13,3.74-2.09c5.77,0.13,11.54,0.05,17.48,0.05
		c-0.1,1.17-0.81,1.87-1.29,2.65c-9.46,15.17-18.9,30.34-28.45,45.45c-1.11,1.76-1.06,2.93,0.01,4.66
		c9.65,15.56,19.2,31.18,28.78,46.79C609.4,200.63,609.82,201.38,610.58,202.66z"/>
	<path class="st1" d="M188.45,226.01c11.04,0.01,22.08,0.04,33.12,0.04c16.56,0.01,33.12,0,49.68,0.01c1.05,0,2.1,0.07,3.15,0.11
		c-2.32,1.89-5.03,3.15-7.6,4.64c-21.52,12.48-43.07,24.91-64.61,37.34c-18.28,10.56-36.56,21.11-54.85,31.65
		c-0.66,0.38-1.37,0.69-2.04,1.03c-0.49-0.64,0.18-1.05,0.07-1.54c0.55-3.23,2.75-5.64,4.3-8.34c11.63-20.32,23.42-40.55,35.1-60.85
		c0.6-1.04,1.06-2.24,2.21-2.88c0.4-0.26,0.51-0.68,0.63-1.09C187.89,226.1,188.17,226.05,188.45,226.01z"/>
	<path class="st0" d="M14.19,76.04c0.08,0.13,0.12,0.27,0.12,0.43c0.77,1.91,0.81,3.92,0.81,5.94
		c-0.01,44.14-0.01,88.27-0.01,132.41c0,0.96-0.11,1.92,0.16,3.18c0.9-0.74,1.63-1.62,2.77-1.64c1.87,0.1,1.27,1.24,0.79,2.13
		c-0.96,1.81-1.97,3.61-3.15,5.28c0.01,0.33-0.82-0.1-0.48,0.53c13.06-7.37,25.96-14.99,38.96-22.43
		c7.38-4.22,14.69-8.57,22.09-12.74c0.82-0.46,1.58-1.15,2.63-1.07c0.12,0.04,0.22,0.1,0.3,0.2c1.71,0.75,2.07,2.53,2.89,3.92
		c6.19,10.55,12.2,21.21,18.43,31.75c0.31,0.53,0.65,1.04,0.78,1.65c0.03,0.27-0.07,0.49-0.28,0.67c-1.12-0.3-2.27-0.19-3.4-0.19
		c-26.57-0.01-53.13,0-79.7,0c-0.61,0-1.23,0.01-1.84,0c-2.26-0.05-2.26-0.05-2.31-2.42c-0.01-0.26,0-0.53,0-0.79
		c0-48.32,0-96.65,0-144.97c0-0.61,0.02-1.23,0.03-1.84C13.91,75.87,14.05,75.88,14.19,76.04z"/>
	<path class="st1" d="M144.39,226.23c-0.02,7.72-0.05,15.44-0.05,23.15c-0.01,16.14,0,32.28,0,48.42c0,0.85,0,1.71,0,2.72
		c-1.61-1.6-29.41-49.32-43.33-74.26c0.09-0.05,0.15-0.13,0.17-0.24c1.02-0.91,2.29-0.76,3.5-0.77c12-0.02,24-0.02,36,0
		c1.21,0,2.48-0.15,3.52,0.73C144.22,226.09,144.29,226.17,144.39,226.23z"/>
	<path class="st3" d="M143.78,0.76c-0.01-0.21-0.02-0.41-0.03-0.62c0.51-0.25,0.51-0.25,0.52,0.55
		C144.11,0.73,143.95,0.75,143.78,0.76z"/>
	<path class="st0" d="M14.19,76.04c0,0-0.21,0-0.21,0s-0.21,0-0.21,0c0.02-0.19,0.03-0.38,0.05-0.57
		C13.95,75.66,14.07,75.85,14.19,76.04z"/>
	<path class="st2" d="M144.19,225.99c-14.34,0.01-28.68,0.02-43.02,0.04c-2.38-3.25-4.19-6.84-6.21-10.3
		c-5.32-9.12-10.52-18.3-15.77-27.46c7.79-4.54,15.57-9.1,23.37-13.62c13.34-7.71,26.69-15.4,40.05-23.09
		c0.53-0.3,1.09-0.53,1.64-0.79c0.02,0.96,0.07,1.93,0.07,2.89c0,23.06,0,46.12,0,69.18C144.3,223.89,144.23,224.94,144.19,225.99z"
		/>
	<path class="st0" d="M19.03,216.62c-1.36,0.46-2.81,0.76-3.07,2.61c-0.06,0.45-0.74,0.69-1.32,0.64c-0.58-0.35-0.36-0.93-0.36-1.4
		c-0.01-47.15,0-94.31,0-141.46c0-0.18,0.02-0.35,0.02-0.53c2.85,4.2,5.17,8.72,7.73,13.09c5.74,9.82,11.39,19.69,17.07,29.54
		c5.59,9.7,11.18,19.41,16.78,29.1c0.43,0.74,0.64,1.66,1.52,2.07c-0.01,0.21-0.03,0.42-0.04,0.64c-0.33,2.35-1.85,4.14-2.98,6.08
		c-10.91,18.79-21.71,37.64-32.61,56.43C21.09,214.62,20.81,216.31,19.03,216.62z"/>
	<path d="M888.55,130.37c-3.63-14.86-12.47-25.05-27.14-29.84c-6.7-2.18-13.6-2.56-20.53-1.38c-16.26,2.79-27.06,12.07-32.29,27.7
		c-2.19,6.54-2.71,13.37-2.8,20.24c-0.11,8.42-0.17,16.84,1.68,25.14c2.45,10.92,8.04,19.77,17.54,25.83
		c8.94,5.7,18.81,7.43,29.24,6.02c17.07-2.31,29.37-13.17,33.92-29.85c2.03-7.44,2.2-15.06,2.34-22.46
		C890.41,144.43,890.25,137.32,888.55,130.37z M871.63,151.59c-0.12,6.57-0.21,13.16-2.08,19.54
		c-3.02,10.31-11.32,16.59-21.74,16.48c-9.2-0.09-16.96-5.47-20.31-14.07c-1.51-3.87-2.3-7.93-2.52-12.04
		c-0.41-7.79-0.61-15.6,0.4-23.37c0.45-3.4,1.22-6.73,2.67-9.85c3.98-8.52,10.93-12.71,20.1-12.71c9.06,0,15.95,4.16,19.94,12.54
		c1.83,3.85,2.63,7.98,3.02,12.18C871.46,144.05,871.71,147.81,871.63,151.59z"/>
	<path d="M702.61,199.35c-5.2-14.87-10.43-29.73-15.65-44.6c-6.12-17.43-12.24-34.85-18.36-52.28c-0.74-2.11-0.75-2.12-2.86-2.12
		c-5.35-0.01-10.7-0.01-16.05,0c-2.11,0-2.11,0.02-2.87,2.12c-0.09,0.25-0.21,0.48-0.3,0.73c-9.62,27.42-19.25,54.84-28.87,82.26
		c-1.97,5.61-3.91,11.22-5.99,17.2c5.89,0,11.31-0.07,16.74,0.04c1.62,0.03,2.29-0.55,2.76-2.02c1.71-5.33,3.58-10.62,5.31-15.94
		c0.41-1.25,0.98-1.77,2.38-1.76c12.28,0.06,24.56,0.07,36.83-0.01c1.53-0.01,2.13,0.51,2.57,1.89c1.75,5.41,3.66,10.77,5.43,16.18
		c0.39,1.2,0.93,1.67,2.23,1.65c5.44-0.07,10.87-0.03,16.31-0.03c0.43,0,0.88,0.03,1.24-0.32
		C703.49,201.27,702.95,200.32,702.61,199.35z M643.19,166.02c0.51-2.37,12.4-37.89,14.01-41.94c1.04,1.61,13.03,36.6,14.32,41.81
		C669.66,166.31,646.64,166.43,643.19,166.02z"/>
	<path class="st0" d="M14.79,223.98c-0.07-0.04-0.21-0.09-0.21-0.12C14.62,223.69,14.7,223.73,14.79,223.98
		C14.79,223.98,14.79,223.98,14.79,223.98z"/>
</g>
</svg>
