<?xml version="1.0" standalone="no"?>
<!DOCTYPE svg PUBLIC "-//W3C//DTD SVG 20010904//EN"
 "http://www.w3.org/TR/2001/REC-SVG-20010904/DTD/svg10.dtd">
<svg version="1.0" xmlns="http://www.w3.org/2000/svg"
 width="800.000000pt" height="254.000000pt" viewBox="0 0 800.000000 254.000000"
 preserveAspectRatio="xMidYMid meet">

<g transform="translate(0.000000,254.000000) scale(0.100000,-0.100000)"
fill="#000000" stroke="none">
<path d="M33 2525 c-32 -22 -32 -79 0 -99 12 -8 64 -16 119 -20 176 -12 361
-71 514 -165 550 -341 708 -1055 353 -1601 -53 -81 -234 -263 -314 -315 -181
-119 -416 -195 -600 -195 -66 0 -95 -20 -95 -65 0 -68 -28 -65 680 -65 400 0
668 4 725 11 295 36 542 156 751 363 166 165 277 358 336 583 30 113 32 127
32 313 0 186 -2 200 -32 313 -55 209 -165 407 -311 560 -180 188 -396 309
-659 369 -94 21 -119 22 -787 25 -620 3 -692 2 -712 -12z m746 -156 c161 -44
341 -146 469 -265 179 -165 302 -390 348 -630 22 -121 15 -366 -14 -474 -98
-365 -340 -646 -677 -785 -82 -34 -200 -68 -216 -63 -5 2 32 30 83 63 108 71
253 210 327 315 105 149 191 354 222 530 19 107 16 335 -5 443 -69 353 -281
659 -591 850 -68 43 -55 46 54 16z m451 -15 c368 -122 648 -424 751 -811 27
-100 37 -339 19 -451 -57 -357 -293 -680 -616 -841 -90 -45 -209 -87 -274 -97
l-45 -6 60 37 c257 157 441 387 543 677 49 137 66 243 66 408 0 217 -39 381
-137 575 -104 207 -271 389 -469 509 l-63 38 45 -6 c24 -4 78 -18 120 -32z
m361 12 c351 -102 637 -373 758 -718 44 -126 61 -232 61 -378 0 -146 -17 -252
-61 -378 -121 -345 -407 -616 -758 -718 -119 -34 -137 -31 -65 12 564 338 775
1052 486 1639 -110 223 -276 403 -486 529 -72 43 -54 46 65 12z"/>
<path d="M3150 1250 l0 -680 120 0 120 0 0 295 0 295 290 0 290 0 0 -290 0
-290 120 0 120 0 0 675 0 675 -120 0 -120 0 0 -275 0 -275 -290 0 -290 0 0
275 0 275 -120 0 -120 0 0 -680z"/>
<path d="M6060 1690 c0 -132 -4 -240 -8 -240 -4 0 -24 16 -43 36 -46 48 -132
90 -214 105 -231 40 -447 -110 -510 -356 -20 -77 -20 -253 0 -328 64 -245 270
-386 508 -348 91 14 184 59 231 111 l36 40 0 -65 0 -65 110 0 110 0 0 675 0
675 -110 0 -110 0 0 -240z m-163 -312 c56 -28 98 -76 132 -148 22 -47 26 -69
26 -150 0 -130 -21 -187 -94 -260 -63 -63 -106 -80 -197 -80 -105 1 -184 55
-233 160 -23 49 -26 67 -26 170 0 110 1 118 33 182 55 112 139 163 256 153 32
-3 79 -15 103 -27z"/>
<path d="M7405 1594 c-174 -27 -313 -123 -381 -264 -43 -89 -58 -158 -58 -270
1 -313 201 -514 509 -514 312 0 515 206 515 520 -1 308 -185 512 -478 528 -42
2 -90 2 -107 0z m175 -205 c119 -54 176 -171 168 -343 -6 -115 -32 -180 -98
-239 -54 -49 -103 -67 -182 -67 -82 0 -140 24 -191 79 -96 103 -116 309 -43
449 25 49 91 109 139 126 62 22 153 20 207 -5z"/>
<path d="M6789 1576 c-52 -18 -94 -51 -121 -94 l-23 -37 -3 58 -3 57 -99 0
-100 0 0 -490 0 -490 109 0 109 0 5 308 c3 201 9 322 17 349 28 96 114 152
215 141 l45 -6 0 109 0 109 -57 0 c-32 -1 -74 -7 -94 -14z"/>
<path d="M4310 1552 c0 -5 69 -187 154 -403 84 -217 167 -429 183 -473 l30
-78 -64 -152 c-35 -83 -71 -166 -78 -184 l-14 -33 117 3 117 3 262 650 c144
358 262 656 262 663 1 9 -29 12 -118 12 l-119 0 -12 -32 c-6 -18 -58 -172
-117 -343 -58 -171 -108 -314 -112 -318 -4 -4 -50 115 -101 265 -51 150 -106
307 -120 348 l-28 75 -121 3 c-67 1 -121 -1 -121 -6z"/>
</g>
</svg>
