<?xml version="1.0" encoding="utf-8"?>
<!-- Generator: Adobe Illustrator 25.0.0, SVG Export Plug-In . SVG Version: 6.00 Build 0)  -->
<svg version="1.1" id="Layer_1" xmlns="http://www.w3.org/2000/svg" xmlns:xlink="http://www.w3.org/1999/xlink" x="0px" y="0px"
	 viewBox="0 0 917.6 442.7" style="enable-background:new 0 0 917.6 442.7;" xml:space="preserve">
<style type="text/css">
	.st0{fill:#373636;}
</style>
<path d="M515.2,88.8c0-2.4-1.4-3.4-4.2-3.4h-4.4v11.7h1.9v-5h1.8l3,5h2.2l-3.3-5.1c1.6,0.1,3-1.2,3.1-2.8
	C515.2,89,515.2,88.9,515.2,88.8z M508.5,90.5v-3.5h2.3c1.2,0,2.5,0.2,2.5,1.6c0,1.8-1.3,1.8-2.7,1.8L508.5,90.5z"/>
<path d="M510.5,80.5c-5.6-0.1-10.3,4.4-10.4,10c0,0.2,0,0.3,0,0.5c-0.2,5.7,4.2,10.5,9.9,10.8c5.7,0.2,10.5-4.2,10.8-9.9
	c0-0.3,0-0.6,0-0.8c0.2-5.6-4.2-10.3-9.9-10.5C510.8,80.5,510.7,80.5,510.5,80.5z M510.5,99.8c-5,0-8.1-3.9-8.1-8.8
	c-0.3-4.5,3.1-8.3,7.5-8.6c4.5-0.3,8.3,3.1,8.6,7.5c0,0.3,0,0.7,0,1.1c0.3,4.5-3,8.4-7.5,8.7C510.9,99.7,510.7,99.7,510.5,99.8
	L510.5,99.8L510.5,99.8z"/>
<path d="M498.3,142.7c-3.5-4.8-8-8.6-13.2-11.3l0,0c-14.7-7.7-36.4-9.5-61.8-9.5c-18.7,0-24.6-6.8-24.6-17.5
	c0-7.2,6.9-23.9,38.2-23.9c25.8,0,39.3,14.2,38.7,21.2h22.3c0.9-28.5-35.2-43.5-61-43.4c-38.7,0-60.4,19.1-60.4,46.7
	c0,10.8,2.7,19.8,8.8,26.5l0,0c4.9,5.4,12,9.3,21.6,11.3h-35v-11.3l0,0V58.5h-21.4v84.2H240.1c0-0.7,0-1.4,0-2.1v-9.2l0,0V58.5
	h-23.8v72.9l0,0v11.3h-3V58.5h-22.1v24.4c-14.3-15.6-34.4-24.4-55.5-24.5c-40.3,0-73.3,32-77.3,72.9c-0.3,2.8-0.4,5.6-0.4,8.4
	c0,0.9,0,1.9,0,2.9h-3V58.5H32.8v72.9l0,0v11.3H-0.5v4.6h33.3V188l0,0v33.3H55V188l0,0v-40.7h3.4c1.2,14.6,6.3,28.7,14.7,40.7l0,0
	c23.3,34.5,70.3,43.6,104.8,20.3c4.9-3.3,9.4-7.2,13.4-11.5v24c-0.1,8.2-1.9,16.3-5.1,23.8l0,0c-8.8,20.3-28,34.4-50.4,34.4
	s-41.6-14.1-50.4-34.4l0,0c-3.3-7.5-5.1-15.6-5.2-23.8H58c0.1,8.1,1.3,16.1,3.7,23.8c10,32.8,39.4,56.5,74,56.5s64-23.7,74-56.5l0,0
	c2.4-7.7,3.6-15.7,3.7-23.8v-73.4h3.3c1.2,14.6,6.3,28.7,14.8,40.7l0,0c14.2,20.7,37.6,33.1,62.6,33.3c21-0.1,41.1-8.9,55.4-24.3
	v24.3h22.3V188l0,0v-40.7h92.1c16.1,3.7,19.3,10.6,19.3,20.8c0.3,7.6-2.9,15-8.6,19.9l0,0c-8,6.9-21,10.2-37.7,10.2
	c-14.7,0-25.2-4.3-32-10.2l0,0c-6.5-5.7-9.4-12.9-9-19.3h-22.3c-0.2,6.6,1.1,13.2,3.8,19.3l0,0c8.9,19.6,32.1,32.5,59.4,32.5
	c23.6,0,54.5-7,64.8-32.5l0,0c2.5-6.4,3.7-13.1,3.6-20c0.2-7.1-1.3-14.2-4.3-20.7h37.4v-4.6L498.3,142.7L498.3,142.7z M169.2,188
	L169.2,188c-19,14.8-45.6,14.8-64.6,0l0,0c-12.8-9.9-21-24.6-22.8-40.7H192C190.2,163.4,182,178.1,169.2,188z M192.3,142.8h-111
	c0-1,0-1.9,0-2.9c0-2.8,0.1-5.6,0.4-8.4l0,0c3.8-28.8,27-50.9,55-50.9s51.2,22.1,55,50.9c0.4,2.8,0.5,5.6,0.5,8.4
	C192.4,140.7,192.4,141.8,192.3,142.8L192.3,142.8L192.3,142.8z M327.6,188c-19,14.8-45.8,14.8-64.8,0l0,0
	c-12.8-9.9-21-24.6-22.8-40.7h110.2C348.5,163.4,340.4,178.1,327.6,188z"/>
<path d="M43.8,43.8c6.1,0,11.1-4.9,11.1-11s-4.9-11.1-11-11.1s-11.1,4.9-11.1,11c0,0,0,0,0,0C32.8,38.8,37.7,43.8,43.8,43.8z"/>
<path class="st0" d="M10.6,343.2h15.2v10.1h0.4c4.9-7.2,10.7-12.1,22.3-12.1c8.9,0,17.2,3.8,20.4,12.1c5.5-7.4,12.1-12.1,22.8-12.1
	c15.3,0,24.3,6.9,24.3,24.5V416h-16v-42.6c0-11.7-0.7-19.5-13.2-19.5c-10.8,0-15.5,7-15.5,19.4v42.6h-16v-46.6
	c0-10.1-3.1-15.3-12.8-15.3c-8.3,0-15.9,6.9-15.9,18.9v43.1h-16L10.6,343.2z"/>
<path class="st0" d="M121.1,379.5c0-22.1,13.5-38.2,36.7-38.2s36.7,16.2,36.7,38.2c0,22.4-13.5,38.4-36.7,38.4
	S121.1,401.8,121.1,379.5z M178.4,379.5c0-12.5-6.3-25.6-20.7-25.6c-14.3,0-20.7,13.1-20.7,25.6c0,12.5,6.3,25.7,20.7,25.7
	S178.4,392.1,178.4,379.5L178.4,379.5z"/>
<path class="st0" d="M192.1,343.2h12.1v-21.8h16v21.8h14.5v11.9h-14.5v38.8c0,6.6,0.6,10,7.7,10c2.3,0.1,4.5-0.1,6.7-0.6v12.4
	c-3.4,0.5-6.9,0.8-10.4,0.8c-16.9,0-19.7-6.5-20.1-18.5v-42.9h-12.1L192.1,343.2L192.1,343.2z"/>
<path class="st0" d="M241,315.6h16v15.2h-16V315.6z M241,343.3h16v72.7h-16V343.3z"/>
<path class="st0" d="M262.6,379.5c0-22.1,13.5-38.2,36.7-38.2s36.8,16.2,36.8,38.2c0,22.4-13.5,38.4-36.8,38.4
	S262.6,401.8,262.6,379.5z M319.9,379.5c0-12.5-6.3-25.6-20.7-25.6s-20.7,13.1-20.7,25.6c0,12.5,6.3,25.7,20.7,25.7
	S319.9,392.1,319.9,379.5z"/>
<path class="st0" d="M340.9,343.2h15.2v10.7l0.3,0.3c4.7-8,13.3-12.9,22.6-12.9c15.9,0,25.7,8.3,25.7,24.7v49.9h-16.1v-45.7
	c-0.4-11.4-4.6-16.3-14.2-16.3c-10.7,0-17.5,8.4-17.5,19.1v42.9h-16L340.9,343.2L340.9,343.2z"/>
<path class="st0" d="M455.8,343.2h15.2v9.8h0.3c4.5-8.4,13.1-11.8,22.5-11.8c22.9,0,34,17.3,34,38.7c0,19.7-10,37.9-31.3,37.9
	c-9.3,0-19.4-3.4-24.3-11.4h-0.3v36.3h-16L455.8,343.2z M491.6,353.9c-13.5,0-20.4,10.1-20.4,25.7c0,14.6,7.5,25.6,20.4,25.6
	c14.6,0,20.1-12.9,20.1-25.6C511.7,366.5,504.8,353.9,491.6,353.9z"/>
<path class="st0" d="M533.2,315.6h16v100.4h-16V315.6z"/>
<path class="st0" d="M619.1,399.6c0,3.9,0.8,5.5,3.8,5.5c1.3,0.1,2.6,0,3.9-0.2V416c-3.3,1-6.7,1.6-10.1,1.8
	c-6.6,0-11.1-2.2-12.4-8.8c-6.3,6.2-16.6,8.8-25.2,8.8c-13.3,0-24.9-7-24.9-21.2c0-17.9,13.9-21,27.3-22.6l8.8-1.1
	c9.8-1.3,13.6-2.8,13.6-9.1c0-8.4-8.8-9.8-15-9.8c-9,0-15.3,3.7-16,11.5h-16c1.1-18.7,16.9-24.2,33-24.2c14.2,0,29.1,5.8,29.1,21
	L619.1,399.6z M603.1,379.4c-3.2,2-5.6,2.5-12.4,3.4l-6.5,0.8c-7.3,1-13.9,3.8-13.9,11.5c0,7.3,6.9,10,13.8,10c8.4,0,19-3.6,19-13.8
	L603.1,379.4L603.1,379.4z"/>
<path class="st0" d="M645.6,392.6c1,9.4,7.9,12.6,16.4,12.6c6.2,0,16.6-1.3,16.2-9.6c-0.4-8.3-12.1-9.4-23.8-12.1
	c-11.7-2.7-23.3-6.8-23.3-21.6c0-15.9,17.2-20.8,30.3-20.8c14.9,0,28.5,6,30.4,22.4h-16.7c-1.6-7.7-7.6-9.7-14.8-9.7
	c-4.6,0-13.2,1.1-13.2,7.5c0,7.9,11.8,9.1,23.6,11.6s23.5,6.9,23.5,21.2c0,17.3-17.4,23.6-32.5,23.6c-18.4,0-31.8-8.1-32.2-25.3
	L645.6,392.6z"/>
<path class="st0" d="M693.6,343.2h12.1v-21.8h16v21.8h14.5v11.9h-14.5v38.8c0,6.6,0.6,10,7.7,10c2.3,0.1,4.5-0.1,6.7-0.6v12.4
	c-3.4,0.5-6.9,0.8-10.4,0.8c-16.9,0-19.7-6.5-20.1-18.5v-42.9h-12.1L693.6,343.2z"/>
<path class="st0" d="M742.4,315.6h16v15.2h-16V315.6z M742.4,343.3h16v72.7h-16V343.3z"/>
<path class="st0" d="M813.7,367.5c-1.3-9-7.6-13.6-16.6-13.6c-8.3,0-20,4.5-20,26.4c0,12.1,5.2,24.9,19.3,24.9
	c9.4,0,15.8-6,17.3-16.6h16c-2.9,19-14.6,29.2-33.3,29.2c-22.8,0-35.3-16.1-35.3-37.5c0-21.9,12-39.1,35.8-39.1
	c16.9,0,31.2,8.4,32.7,26.3L813.7,367.5z"/>
<path class="st0" d="M849.2,392.6c1,9.4,7.9,12.6,16.4,12.6c6.2,0,16.6-1.3,16.2-9.6c-0.4-8.3-12.1-9.4-23.8-12.1
	c-11.7-2.7-23.3-6.8-23.3-21.6c0-15.9,17.2-20.8,30.3-20.8c14.9,0,28.5,6,30.4,22.4h-16.7c-1.6-7.7-7.6-9.7-14.8-9.7
	c-4.6,0-13.2,1.1-13.2,7.5c0,7.9,11.8,9.1,23.6,11.6s23.5,6.9,23.5,21.2c0,17.3-17.4,23.6-32.5,23.6c-18.4,0-31.8-8.1-32.2-25.3
	L849.2,392.6z"/>
<path class="st0" d="M907.6,363.6c-5.4,0.1-9.9-4.1-10-9.6c0-0.2,0-0.4,0-0.6c0.1-5.5,4.7-9.9,10.2-9.8c5.5,0.1,9.9,4.7,9.8,10.2
	C917.5,359.2,913.1,363.5,907.6,363.6z M907.6,345c-4.3,0-7.9,3.5-7.9,7.9c0,0.2,0,0.3,0,0.5c0,4.6,3,8.4,7.8,8.4
	c4.7-0.4,8.1-4.4,7.8-9.1C915,348.6,911.8,345.3,907.6,345z M905.6,359.2h-1.9v-11.3h4.3c2.7,0,4.1,1,4.1,3.2c0.1,1.6-1.1,3-2.7,3.1
	c-0.1,0-0.1,0-0.2,0l3.2,5h-2.1l-2.9-4.8h-1.8L905.6,359.2z M907.7,352.8c1.4,0,2.6-0.1,2.6-1.8c0-1.6-1.3-1.5-2.4-1.5h-2.2v3.3
	L907.7,352.8z"/>
</svg>
