<svg id="Layer_1" data-name="Layer 1" xmlns="http://www.w3.org/2000/svg" viewBox="0 0 936.64 216.79"><defs><style>.cls-1{fill:#fff;}</style></defs><title>infinite-plat</title><path class="cls-1" d="M756,455.73V335.26c1.48-.09,2.92-.26,4.36-.26,19.67,0,39.34-.28,59,.13A96.65,96.65,0,0,1,841,338.22c14.35,3.66,21.9,13.78,24,28.07a104.65,104.65,0,0,1,1,14.91c.11,22.84.05,45.67.05,68.5v5.71H834V382.74c0-1.66,0-3.33-.06-5-.49-10.92-4.33-15.25-15.15-15.71-10.11-.42-20.24-.09-31-.09V368c0,27.5-.08,55,.09,82.5,0,4.13-1.1,5.47-5.29,5.32C773.9,455.52,765.25,455.73,756,455.73Z" transform="translate(-212.24 -265.06)"/><path class="cls-1" d="M468,455.73V335.27c1.38-.09,2.81-.27,4.24-.27,19.66,0,39.33-.26,59,.12A93.78,93.78,0,0,1,551.88,338c15,3.72,23.25,13.45,25.14,28.7a126.23,126.23,0,0,1,1,14.92c.1,22.66,0,45.32,0,68v5.78H546v-5.6q0-34,0-68c0-16-4.06-20-20.13-20.07-8.17,0-16.33.06-24.49.11a8,8,0,0,0-1.63.56V368c0,27.49-.07,55,.09,82.48,0,4-.93,5.56-5.22,5.4C485.82,455.51,477,455.73,468,455.73Z" transform="translate(-212.24 -265.06)"/><path class="cls-1" d="M616,359.09c-6.43,0-11.94-.32-17.4.1-4.38.33-6.13-1-7.56-5.38-2.11-6.45-5.66-12.43-8.55-18.5h33.42c0-2.26-.06-4,0-5.74.27-6,.18-12,1-17.9,1.68-12.75,7.07-18.59,20-19.44,13.72-.9,27.55-.2,41.76-.2v23c-6.72,0-13.35-.27-19.94.09-5.65.31-8.76,3.21-9.56,7.83a14.8,14.8,0,0,0-.14,2.49c0,3,0,5.94,0,9.44H678.8V359H649.27v96.4H616Z" transform="translate(-212.24 -265.06)"/><path class="cls-1" d="M996.25,291.62v43.15h33.47V359H997.36c-.52.8-.85,1.08-.85,1.36.08,18-.33,36,.48,53.9.56,12.46,6,17.59,18.55,17.22,9.44-.28,15.93,1.14,19.91,10.9,2,5,7.38,8.62,11.72,13.39-10.09,0-19.68.07-29.27,0-7.82-.06-15.68.16-23.44-.57-17.53-1.64-29-13.56-29.5-31.24-.55-19.47-.2-39-.24-58.46v-6.21H942.36V335.18h22.22V291.62Z" transform="translate(-212.24 -265.06)"/><path class="cls-1" d="M212.24,265.15c56.24-2.48,110.33,48.08,108.27,108.3H267.34c-7.3-36.73-22.2-51.59-55.1-54.78Z" transform="translate(-212.24 -265.06)"/><path class="cls-1" d="M320.77,428.3v53.41c-54.51,3.15-110.1-47.12-108-107.66h53.6c.66,14.72,5.73,27.56,16.19,38S305.8,427.73,320.77,428.3Z" transform="translate(-212.24 -265.06)"/><path class="cls-1" d="M1148.88,334.48v25.8c-2.13,0-4.06,0-6,0-15.32.24-30.65.13-45.94.83-13.78.63-19.81,7.36-19.92,21-.08,9.49-.13,19,0,28.49.22,12.59,5,18.25,17.4,19.33,10.25.9,20.61.78,30.92.95,7.65.14,15.3,0,23.32,0v24.76a11.86,11.86,0,0,1-2.19.39c-17,0-34,.55-51-.18-20-.87-37.14-7.74-47.14-26.62-5.84-11-7.37-23.16-6.84-35.35a93.4,93.4,0,0,1,4-24.47c6.53-20.2,21.85-31.11,42.19-33.07C1107.83,334.43,1128.2,335,1148.88,334.48Z" transform="translate(-212.24 -265.06)"/><path class="cls-1" d="M893.14,455.73V335.34h33.59v4.71c0,36.81-.06,73.61.09,110.41,0,4.08-1,5.51-5.25,5.37C912.28,455.52,903,455.73,893.14,455.73Z" transform="translate(-212.24 -265.06)"/><path class="cls-1" d="M407.07,335.17h32.61V455.42H407.07Z" transform="translate(-212.24 -265.06)"/><path class="cls-1" d="M695.34,335.23h32.33V455.44H695.34Z" transform="translate(-212.24 -265.06)"/><path class="cls-1" d="M1148.7,408h-61.09V383.32h61.09Z" transform="translate(-212.24 -265.06)"/><path class="cls-1" d="M893.27,291.28c10.44,0,20.54-.07,30.64.12,1,0,2.66,1.59,2.68,2.48.2,8.92.12,17.85.12,27.08H893.27Z" transform="translate(-212.24 -265.06)"/><path class="cls-1" d="M407,320.9V291.58h32.79V320.9Z" transform="translate(-212.24 -265.06)"/><path class="cls-1" d="M727.84,291.9V321H695.2V291.9Z" transform="translate(-212.24 -265.06)"/></svg>