<?xml version="1.0" standalone="no"?>
<!DOCTYPE svg PUBLIC "-//W3C//DTD SVG 20010904//EN"
 "http://www.w3.org/TR/2001/REC-SVG-20010904/DTD/svg10.dtd">
<svg version="1.0" xmlns="http://www.w3.org/2000/svg"
 width="1615.000000pt" height="540.000000pt" viewBox="0 0 1615.000000 540.000000"
 preserveAspectRatio="xMidYMid meet">

<g transform="translate(0.000000,540.000000) scale(0.100000,-0.100000)"
fill="#000000" stroke="none">
<path d="M2450 5389 c-401 -38 -786 -164 -1138 -373 -358 -213 -715 -570 -928
-928 -418 -705 -498 -1528 -222 -2304 53 -151 186 -419 275 -554 286 -435 704
-791 1170 -995 297 -130 588 -201 918 -225 194 -14 12330 -14 12477 0 556 53
998 447 1120 1000 l23 105 0 1580 c0 1487 -1 1585 -18 1670 -70 347 -259 635
-537 820 -138 92 -267 148 -445 192 -66 16 -427 17 -6340 19 -3448 1 -6308 -2
-6355 -7z m499 -714 c802 -114 1458 -706 1656 -1495 46 -183 58 -305 52 -535
-4 -174 -10 -232 -32 -335 -246 -1177 -1449 -1875 -2580 -1499 -741 247 -1265
895 -1355 1679 -17 144 -8 424 19 565 56 298 167 557 352 820 77 109 293 329
406 414 274 205 580 334 918 385 123 19 434 19 564 1z m3301 -356 c21 -12 47
-38 59 -59 l21 -38 0 -1524 0 -1525 -22 -33 c-13 -18 -36 -43 -51 -54 -28 -20
-38 -21 -427 -21 -389 0 -399 1 -427 21 -15 11 -38 36 -50 54 l-23 33 0 1531
0 1531 24 36 c47 69 47 69 475 69 372 0 384 -1 421 -21z m1492 -11 c20 -15 46
-43 57 -61 15 -25 758 -2625 899 -3149 l10 -38 -443 0 -443 0 -53 28 c-38 20
-62 41 -81 72 -19 32 -146 467 -449 1542 l-422 1497 24 48 c13 27 39 58 58 71
l35 23 386 -3 387 -3 35 -27z m2195 15 c43 -20 83 -79 84 -124 1 -28 -786
-2838 -836 -2988 -36 -106 -102 -150 -227 -151 l-77 0 -15 53 c-8 28 -92 325
-186 658 l-171 606 261 922 c143 507 267 935 275 950 7 15 30 42 50 60 l36 31
385 0 c339 0 390 -2 421 -17z m1304 -868 l249 -880 0 -698 c0 -774 4 -730 -67
-784 l-36 -28 -398 0 c-388 0 -398 1 -426 21 -15 11 -38 36 -50 54 l-23 33 0
1531 0 1531 24 36 c44 64 66 69 285 66 l193 -2 249 -880z m889 866 c43 -22 75
-68 85 -118 3 -21 200 -723 436 -1561 236 -837 432 -1536 436 -1552 l6 -30
-457 0 c-363 0 -463 3 -489 14 -39 16 -85 67 -93 104 -10 45 -877 3120 -889
3150 -3 9 93 12 463 12 436 0 470 -1 502 -19z m2326 2 c-3 -10 -118 -416 -256
-903 -383 -1350 -617 -2181 -624 -2220 -4 -19 -17 -51 -31 -71 -34 -52 -88
-71 -194 -67 l-83 3 -186 656 -185 656 251 889 c138 489 256 911 262 938 13
60 39 98 82 119 29 15 90 17 501 17 441 0 468 -1 463 -17z m392 -11 c18 -13
40 -38 50 -55 16 -30 17 -129 17 -1557 l0 -1525 -23 -37 c-13 -21 -40 -45 -66
-57 -40 -20 -58 -21 -415 -21 -416 0 -417 0 -469 68 l-27 35 -3 326 -3 326
345 1220 c189 671 349 1240 356 1263 l11 44 97 -4 c82 -2 102 -7 130 -26z"/>
<path d="M2485 4203 c-16 -2 -74 -13 -129 -24 -554 -115 -1011 -554 -1150
-1106 -248 -980 521 -1925 1529 -1880 390 17 724 165 1001 442 232 232 371
498 426 820 17 102 19 147 15 295 -8 258 -50 420 -168 651 -218 422 -637 723
-1109 794 -86 13 -336 18 -415 8z m413 -369 c469 -97 831 -471 913 -944 16
-95 16 -283 -1 -380 -83 -488 -483 -879 -969 -950 -117 -18 -343 -7 -445 19
-329 87 -608 310 -758 606 -40 78 -86 216 -104 312 -24 131 -15 364 19 496 85
322 310 595 615 746 124 62 217 88 417 115 53 7 238 -4 313 -20z"/>
</g>
</svg>
