<svg height="276pt" preserveAspectRatio="xMidYMid meet" viewBox="0 0 1228 276" width="1228pt" xmlns="http://www.w3.org/2000/svg"><g transform="matrix(.1 0 0 -.1 0 276)"><path d="m9240 2754c-477-26-712-76-826-176-42-37-64-82-64-130 0-18 38-185 84-372 95-381 92-375 205-434 116-62 377-133 571-156 369-44 517-50 1195-51 663 0 852 5 1140 30 507 45 739 134 723 280-6 46-83 173-152 248l-34 37h-675c-371 0-677-3-680-7-3-3 12-38 34-79 32-58 38-77 30-92-27-51-205-82-466-83-243 0-420 27-461 72-22 24-236 580-229 597 15 40 189 70 416 71 171 2 268-8 351-35 42-14 54-25 101-92l52-77 683-2c560-2 682 0 682 11 0 16-89 143-121 173-106 97-365 178-694 217-188 22-217 25-345 31-63 4-128 9-145 11-37 6-1284 13-1375 8z"/><path d="m2300 2572c-46-97-145-298-220-446-151-300-164-318-267-342-88-22-274-28-392-15-128 15-190 37-211 74-14 26-13 30 23 96 20 38 37 74 37 80 0 8-161 10-581 9l-581-3-54-118c-57-125-65-167-39-217 53-102 317-184 710-220 338-31 1293-31 1715 0 557 41 846 154 928 362 72 181 322 894 318 905-4 10-129 13-654 13h-649z"/><path d="m4270 2745c0-3-36-133-80-291-102-363-264-994-256-1001 10-11 3207-14 3336-4 462 39 736 163 766 349 30 191-285 349-738 369-70 3-125 9-123 13s33 10 67 13c141 13 331 76 406 134 87 66 89 193 4 276-73 71-221 119-419 136-118 11-2963 16-2963 6zm1972-267c100-45 77-120-47-153-48-12-126-15-412-15-345 0-353 0-353 20 0 34 24 165 31 170 4 3 173 3 376 0 315-4 373-7 405-22zm57-418c24-7 61-30 82-50 31-29 39-44 39-73 0-51-8-66-49-86-75-38-132-42-575-41-237 0-431 2-433 4-4 4 25 233 32 254 7 19 839 12 904-8z"/><path d="m4175 954c-124-32-197-110-181-195 3-13 5-32 5-41 1-27 48-74 94-96 23-11 108-35 187-52 209-47 250-72 250-156 0-56-33-103-94-133-41-21-64-25-140-25-168 0-253 53-272 171-4 28-11 39-25 40-28 2-32-12-19-71 23-113 116-173 280-183 205-13 325 62 323 202-1 115-50 150-284 201-90 20-176 42-191 50-40 21-58 53-58 106 0 96 78 143 236 142 125 0 205-49 223-135 5-27 12-35 34-37 31-4 31-2 16 53-29 105-115 157-268 161-53 2-105 1-116-2z"/><path d="m9109 942c-140-47-223-148-248-300-20-127 22-257 110-336 74-66 142-90 264-90 90-1 106 2 162 28 93 42 168 132 188 224 6 29 4 32-17 32-19 0-27-9-40-48-29-81-69-126-145-163-59-30-77-34-143-33-110 1-173 25-240 93-68 68-93 136-91 242 3 133 64 235 174 288 77 37 147 46 224 31 103-22 175-74 208-152 12-29 21-38 40-38h24l-16 47c-22 64-102 144-168 167-75 27-217 31-286 8z"/><path d="m1800 925v-25h145 145v-335-335h25 25v335 335h146c145 0 145 0 142 23l-3 22-312 2-313 2z"/><path d="m2490 591v-361h25 25v169c0 96 5 182 11 198 28 74 99 112 210 113 63 0 82-4 110-23 62-41 69-69 69-274v-183h25 25v183c0 100-5 198-10 219-39 139-299 173-410 53l-25-27-5 144c-5 139-6 143-27 146l-23 3z"/><path d="m5337 944c-4-4-7-166-7-361v-353h25 25l-2 357c-3 314-5 358-18 361-9 1-19 0-23-4z"/><path d="m5985 940c-3-5-6-56-5-112 1-57 1-120 1-142l-1-39-44 41c-141 130-382 70-439-109-48-148 17-299 151-350 108-40 243-13 306 61l26 32 1-26c1-14 3-30 4-36 1-5 3-14 4-20 0-5 10-10 21-10 20 0 20 7 20 360 0 350-1 360-19 360-11 0-23-4-26-10zm-119-249c112-51 158-215 93-331-79-140-314-143-395-5-31 53-42 140-25 203 15 53 64 110 116 133 54 25 157 25 211 0z"/><path d="m7160 888c0-56 1-59 23-56 20 3 22 9 22 58 0 50-2 55-22 56-21 1-23-3-23-58z"/><path d="m3305 754c-68-18-110-42-149-85-120-133-82-356 72-426 166-77 362-12 407 135 5 19 3 22-18 22-18 0-28-8-37-30-20-49-81-97-141-110-143-32-298 61-299 178v32h260 260l-5 33c-18 114-76 199-157 232-43 17-157 28-193 19zm153-55c63-21 141-112 142-166 0-10-53-13-231-13h-231l5 30c15 71 91 143 171 160 38 8 100 3 144-11z"/><path d="m4855 747c-105-35-163-93-190-189-62-223 151-406 386-331 74 24 150 99 169 168 53 189-63 351-260 361-37 2-82-2-105-9zm193-53c140-58 182-254 79-366-68-73-205-96-300-49-166 81-161 336 7 412 52 23 162 25 214 3z"/><path d="m6314 742c-69-24-99-45-133-93-78-107-64-276 31-366 46-44 100-64 188-70 61-4 86-1 132 17 62 23 128 86 147 140 9 28 8 30-14 30-18 0-29-9-41-32-40-80-97-111-204-112-64 0-83 5-129 29-58 32-98 87-108 149l-6 36h263 263l-6 49c-7 56-44 136-79 168-67 63-210 89-304 55zm217-55c49-26 96-85 105-134l7-33h-232-232l7 23c35 115 105 166 230 167 55 0 80-5 115-23z"/><path d="m6969 745c-31-10-60-30-88-60l-41-45v50c0 47-2 50-25 50h-25v-255-255h25 25v163c0 135 3 169 19 202 33 74 118 122 198 113 31-4 34-2 31 21-3 22-9 26-38 28-19 1-56-4-81-12z"/><path d="m7507 744c-30-9-63-30-87-56l-40-40v46c0 43-2 47-22 44l-23-3-3-252-3-253h26 25v153c0 212 18 265 104 307 32 15 64 21 115 21 94 0 138-21 169-81 20-41 22-58 22-222v-178h25 25v173c0 183-7 235-37 276-48 66-194 98-296 65z"/><path d="m8120 747c-97-27-157-88-181-182-27-106 18-234 100-286 115-74 298-58 383 33l30 32-3-90c-4-80-7-95-31-126-44-57-87-73-203-73-124 0-173 21-201 85-14 30-23 40-42 40-24 0-25-4-2-66 12-32 76-82 119-94 48-13 183-16 231-5 47 10 100 38 127 67 47 51 53 91 53 384v274h-25c-23 0-25-4-25-46v-46l-25 30c-14 17-45 40-69 51-55 27-174 36-236 18zm176-42c50-8 113-60 136-112 16-37 19-60 15-116-6-84-39-138-107-174-40-22-56-24-137-21-83 3-95 6-134 33-62 44-84 93-84 186 0 66 4 81 28 117 30 46 85 79 150 91 41 7 66 6 133-4z"/><path d="m9865 747c-67-22-101-44-139-89-93-108-85-262 18-365 64-64 134-88 235-81 159 12 260 118 261 274 0 115-54 200-156 245-55 25-168 33-219 16zm211-60c126-66 155-256 56-360-70-74-200-95-295-48-155 75-168 311-23 396 75 44 191 49 262 12z"/><path d="m7160 485v-255h25 25v255 255h-25-25z"/><path d="m10340 280c0-47 2-50 25-50s25 3 25 50-2 50-25 50-25-3-25-50z"/></g></svg>