<svg id="Layer_1" data-name="Layer 1" xmlns="http://www.w3.org/2000/svg" viewBox="0 0 1000 625"><defs><style>.cls-1{fill:none;}.cls-2{fill:#fff;}.cls-3{fill:#231f20;}</style></defs><rect id="Artboard7" class="cls-1" width="1000" height="625"/><g id="Artboard71"><path class="cls-2" d="M735.16,314.26a174.85,174.85,0,0,0,18.47-1.21,98.57,98.57,0,0,0,23.55-5.81,106.24,106.24,0,0,0,24.71-13.3q12.21-8.73,21.93-23.73t15.93-37.51Q846,210.2,846,178.25q0-31-5.77-55.42T821.28,81.2a83.59,83.59,0,0,0-33.94-26.14q-20.77-9-51.26-9H662.21V314.26ZM731.46,7.38q76.2,0,117.29,40.66T889.84,172q0,43.56-9.23,77.21T852,305.79q-19.38,23-49.41,35.1T731.46,353H618.34V7.38Z" transform="translate(0 138.28)"/><path class="cls-2" d="M460.06,151.85h13.3a79.6,79.6,0,0,0,24.46-3.74,61.09,61.09,0,0,0,20.42-11,52.18,52.18,0,0,0,14-18.17,57.18,57.18,0,0,0,5.23-24.9q0-28.36-17.1-42.56T477.63,37.34q-16.15,0-28.26,6.22a57.29,57.29,0,0,0-19.94,16.68,71.5,71.5,0,0,0-11.64,24.4A111,111,0,0,0,414,114H373.62a167.16,167.16,0,0,1,7.84-46.3,104.29,104.29,0,0,1,19.7-35.85A88.45,88.45,0,0,1,433.23,8.47Q452.46,0,477.63,0a138.45,138.45,0,0,1,40.61,5.73A92.81,92.81,0,0,1,550.77,22.9a78.09,78.09,0,0,1,21.61,29.37q7.85,17.94,7.84,42.32,0,23.91-13.29,42.32a85.93,85.93,0,0,1-33.25,27.88v1q30.86,7,45.83,30.37t15,55.26q0,26.39-9.27,46.55a96.48,96.48,0,0,1-24.93,33.61,104.48,104.48,0,0,1-36.8,20.16,147.37,147.37,0,0,1-44.89,6.72q-25.65,0-46.54-7.47a94.62,94.62,0,0,1-35.62-22.15q-14.73-14.68-22.57-36.09T366.49,244h40.38q.93,34.35,19,56t52.72,21.66a82.86,82.86,0,0,0,28-4.73,71.13,71.13,0,0,0,23.28-13.45A64,64,0,0,0,545.79,282a66.88,66.88,0,0,0,5.94-28.63q0-16.42-5.71-29.12a64.27,64.27,0,0,0-15.19-21.41,60.67,60.67,0,0,0-22.56-12.94A91.3,91.3,0,0,0,480,185.7a185.68,185.68,0,0,0-24.22,1.5V151.35a20.33,20.33,0,0,0,4.27.5" transform="translate(0 138.28)"/><path class="cls-3" d="M260.73,132.18l21.48,24.91L381.87,5.89H265L180.84,132.18l146.9,199.31H281.35L185.13,202.63V331.49H131V37.68h50.7V65.17l34.36-46.4V5.89H99.22V363.28H216.06V301.42l47.25,61.86H393l-173.54-232,62.71-94.5h39.52l-61,95.36Z" transform="translate(0 138.28)"/><rect class="cls-3" x="685.41" y="402.76" width="33.75" height="31.8"/><rect class="cls-3" x="685.41" y="352.19" width="33.75" height="31.8"/><rect class="cls-3" x="685.41" y="301.61" width="33.75" height="31.8"/><rect class="cls-3" x="685.22" y="251.04" width="33.75" height="31.8"/><rect class="cls-3" x="685.41" y="202.34" width="33.75" height="31.8"/></g></svg>