<svg height="88pt" preserveAspectRatio="xMidYMid meet" viewBox="0 0 571 88" width="571pt" xmlns="http://www.w3.org/2000/svg"><g transform="matrix(.1 0 0 -.1 0 88)"><path d="m1890 445v-365h75 75l2 187 3 188 86-185 87-185 86-3 87-3-101 194c-55 107-100 199-100 204s45 81 100 169l100 159-71 3c-40 2-77 1-84-2-6-2-47-65-89-139-114-199-105-198-106-14v157h-75-75z"/><path d="m2524 445-101-365h73 73l11 40c5 22 15 58 20 80l11 40h108 109l18-80 18-80h78c43 0 78 3 78 7s-11 48-25 98c-14 49-58 209-98 355l-72 265-100 3-100 2zm230 72c20-81 36-152 36-157 0-6-34-10-75-10-73 0-75 1-70 23 33 143 65 287 65 293 0 25 13-19 44-149z"/><path d="m3110 445v-365h70 70v282c0 160 4 278 9 273 4-6 37-133 72-282l64-273h72c59 0 73 3 77 18 3 9 35 134 71 276 35 143 67 261 70 264s5-121 5-276v-282h70 70v365 365h-115c-84 0-117-3-120-12-2-7-30-121-61-252-40-165-60-233-66-220-4 10-26 100-49 199s-47 203-53 230l-11 50-123 3-122 3z"/><path d="m3980 445v-365h75 76l-2 148-1 147 98 5c116 6 157 24 191 86 18 31 23 55 23 120 0 92-14 135-57 176-39 37-95 47-260 48h-143zm285 230c35-34 36-121 1-162-21-24-31-27-82-28h-59l-3 94c-1 52-1 100 2 108 4 9 24 13 61 13 46 0 60-4 80-25z"/><path d="m4550 445v-365h205 205v50 49l-127 3-128 3-3 108-3 107h116 115v55 55h-115-115v95 95h125 125v55 55h-200-200z"/><path d="m5080 445v-365h70 71l-1 257v268c1 8 200-512 200-522 0-2 45-3 100-3h100v365 365h-70-70v-257l-1-258-99 255-98 255-101 3-101 3z"/><path d="m90 435v-365h120 120l2 174 3 175 140-175 140-174h113c61 0 112 2 112 5s-63 83-141 179c-93 116-138 179-133 188 4 7 66 85 138 173 71 88 134 166 139 173 7 9-15 12-104 12h-114l-148-181c-81-99-147-177-147-172-1 4 0 86 0 181l1 172h-121-120z"/><path d="m970 794c0-3 63-83 140-179 77-95 140-176 140-180 0-5-192-245-278-347-14-17-9-18 100-18h115l144 178 144 177 3-177 2-178h120 120v365 365h-120-120l-2-176-3-175-140 175-140 175h-112c-62 1-113-2-113-5z"/></g></svg>