<svg height="198" width="274" xmlns="http://www.w3.org/2000/svg"><path d="m0 0c.78568359-.01611328 1.57136719-.03222656 2.38085938-.04882812 6.36662383-.00532772 10.45795041 1.44792026 15.36914062 5.67382812 5.66210259 6.58028139 6.46571247 13.17910107 6.3125 21.6875-1.00664042 6.49918331-4.00734867 11.71725946-9 16-6.97905894 4.19051663-15.43178383 5.098745-23.3359375 3.5390625-6.9217988-2.00803037-11.63657256-5.46512614-15.6015625-11.4765625-2.50068712-7.00192393-2.54714551-16.82145959.5-23.625 5.5748429-9.07394642 13.19992194-11.79153093 23.375-11.75zm-9.9375 12.3125c-3.93946656 5.37114918-3.7918915 10.56914483-3 17 1.20780102 3.23938427 3.01908143 5.22927827 5.75 7.375 4.66386736 1.29551871 8.68975894 1.31844047 13.0625-.625 2.92553338-2.3404267 4.83247721-4.40855314 5.8046875-8.08203125.60934603-5.86264741.52699209-9.59671134-2.6171875-14.66796875-3.23736893-2.8694861-5.20280958-3.9003512-9.5-4.4375-3.87738817.48467352-6.23975376 1.28870134-9.5 3.4375z" fill="#858688" transform="translate(135.9375 10.6875)"/><path d="m0 0 11.5-.25c1.18013672-.03641602 2.36027344-.07283203 3.57617188-.11035156 6.51795685-.0682163 11.56968947.42871155 16.92382812 4.36035156 3.40351316 3.4240575 3.78111798 6.71703378 4.140625 11.390625-.27325773 5.07044902-2.60241136 9.07116136-6.140625 12.609375 5.80508926 5.60301052 5.80508926 5.60301052 13 9-.45822468 3.46941546-.89131683 6.67395049-2 10-9.0290387-.59553234-13.94691666-4.51151943-20-11-.65226562-.90105469-1.30453125-1.80210938-1.9765625-2.73046875-2.09206545-2.80447884-2.09206545-2.80447884-7.0234375-3.26953125v16c-3.96 0-7.92 0-12 0 0-15.18 0-30.36 0-46zm12 10v12c6.00325611-.11490655 6.00325611-.11490655 11.125-2.6875 1.18501634-3.1318289.79418422-5.13070848-.125-8.3125-3.42932071-1.71466036-7.21716065-1.05404056-11-1z" fill="#94125d" transform="translate(226 11)"/><path d="m0 0h12c.33 5.28.66 10.56 1 16 1.79360702-2.10253933 3.58494119-4.20694333 5.375-6.3125.50789063-.59490234 1.01578125-1.18980469 1.5390625-1.80273438.48984375-.57685546.9796875-1.15371093 1.484375-1.74804687.45036621-.52891846.90073242-1.05783691 1.36474609-1.6027832 1.16555914-1.44556022 2.20677945-2.98888011 3.23681641-4.53393555 2.62697064-.22137393 5.00893964-.28162025 7.625-.1875.70640625.01353516 1.4128125.02707031 2.140625.04101562 1.74511628.03537398 3.48984108.08918217 5.234375.14648438-1.29147402 2.79958976-2.69202304 4.98666879-4.75 7.27734375-.5259375.59619141-1.051875 1.19238281-1.59375 1.80664063-1.10222721 1.23350662-2.20638979 2.46528664-3.3125 3.6953125-.5259375.59748046-1.051875 1.19496093-1.59375 1.81054687-.71929687.80232056-.71929687.80232056-1.453125 1.62084961-1.62409798 2.24077825-2.60307707 4.09990296-3.296875 6.78930664.9530938 2.17449615.9530938 2.17449615 2.76171875 4.06640625.62455078.73283203 1.24910156 1.46566406 1.89257813 2.22070313.67095703.7508789 1.34191406 1.50175781 2.03320312 2.27539062 1.29591569 1.50100621 2.5914997 3.00229887 3.88671875 4.50390625.58354248.65943604 1.16708496 1.31887207 1.76831055 1.99829102 4.6574707 5.43817502 4.6574707 5.43817502 4.6574707 7.93530273-5.12863119 1.22828562-10.04230854 2.0894181-15 0-5.87404491-5.25485535-9.93033337-12.32800416-14-19-.33 6.27-.66 12.54-1 19-3.96 0-7.92 0-12 0 0-15.18 0-30.36 0-46z" fill="#858688" transform="translate(71 11)"/><path d="m0 0c1.39456452.00667256 2.78911118.01863093 4.18359375.03515625.71091797.00451172 1.42183594.00902344 2.15429687.01367187 1.76110326.01181949 3.52216349.0297555 5.28320313.04882813 2.14049482 6.22819754 4.27625755 12.4580028 6.40869141 18.68896484.72644144 2.12081899 1.45397738 4.24126341 2.18261718 6.36132813 1.04534233 3.04215951 2.08677941 6.0856313 3.12744141 9.12939453.32810669.95212372.65621338 1.90424744.9942627 2.88522339.30031127.88076202.60062255 1.76152405.91003417 2.66897583.26647339.77721405.53294678 1.5544281.80749512 2.35519409.56945801 1.91091919.56945801 1.91091919.56945801 3.91091919-4.29 0-8.58 0-13 0-3-9.625-3-9.625-3-13-4.95 0-9.9 0-15 0-.474375 1.588125-.94875 3.17625-1.4375 4.8125-.81970605 2.74423329-1.65672494 5.47017481-2.5625 8.1875-3.96 0-7.92 0-12 0 1.24834101-6.18255099 2.89919167-11.86299427 5.22265625-17.71875.30554306-.78395142.61108612-1.56790283.92588806-2.37561035.63986872-1.63804757 1.28285126-3.27488201 1.92884827-4.91052246.99249596-2.51383115 1.97489695-5.03143424 2.95581055-7.54980469.6250728-1.59658067 1.2507034-3.1929431 1.87695312-4.7890625.29479752-.75406128.58959503-1.50812256.89332581-2.28503418 2.51406276-6.35149168 2.51406276-6.35149168 6.57542419-6.46887207zm2.62109375 10.09765625c-.50692692 1.5811292-1.00526443 3.16501383-1.5 4.75-.2784375.88171875-.556875 1.7634375-.84375 2.671875-.82070285 2.78080029-.82070285 2.78080029-.65625 6.578125h7c-.51405169-4.96916636-1.23384882-9.29026351-3-14-.33 0-.66 0-1 0z" fill="#94125d" transform="translate(194.378906 10.902344)"/><path d="m0 0 1 2c.763125-.33 1.52625-.66 2.3125-1 2.6875-1 2.6875-1 5.6875-1 .75 2.3125.75 2.3125 1 5-1.31337396 1.0260734-2.64664105 2.02727325-4 3 .0950739 2.0480428.0950739 2.0480428 1 4 .33.99.66 1.98 1 3-1.9375 2.1875-1.9375 2.1875-4 4-2.46800047-1.15173355-4.04783565-2.04783565-6-4-1.65 1.32-3.3 2.64-5 4-2.2477975-2.05233685-3.0022242-3.00667261-4-6l2.5625-1.5625 2.4375-2.4375c-.28730055-2.33944736-.61936779-4.6739143-1-7 2.56869178-2.93564775 3.23038541-3.2565382 7-2z" fill="#e4d2d9" transform="translate(65 167)"/><path d="m0 0 4 4c-1.65 1.65-3.3 3.3-5 5l2 4c-1.98 1.32-3.96 2.64-6 4-1.32-.99-2.64-1.98-4-3-.7425.70125-1.485 1.4025-2.25 2.125-.9075.61875-1.815 1.2375-2.75 1.875-2.3125-.75-2.3125-.75-4-2 .3125-1.875.3125-1.875 1-4 .99-.66 1.98-1.32 3-2-.309375-1.175625-.309375-1.175625-.625-2.375-.12375-.86625-.2475-1.7325-.375-2.625 2.25-2.375 2.25-2.375 5-4 .99.33 1.98.66 3 1v2c2.31-1.32 4.62-2.64 7-4z" fill="#cfacba" transform="translate(100 145)"/><path d="m0 0 3 3 6-3c.33 1.65.66 3.3 1 5-1.65.99-3.3 1.98-5 3l.8125 1.75c.061875.7425.12375 1.485.1875 2.25-2.3125 2.3125-2.3125 2.3125-5 4-.66-.33-1.32-.66-2-1 0-.66 0-1.32 0-2-3.465 1.485-3.465 1.485-7 3-.75-2.3125-.75-2.3125-1-5 1.31787285-1.02028865 2.65210653-2.01971384 4-3-.020625-.825-.04125-1.65-.0625-2.5.020625-.825.04125-1.65.0625-2.5 2.5-1.8125 2.5-1.8125 5-3z" fill="#e1cdd4" transform="translate(53 146)"/><path d="m0 0v2c2.31-.66 4.62-1.32 7-2 .33 1.32.66 2.64 1 4-3 2-3 2-6 2 .2475.598125.495 1.19625.75 1.8125.0825.721875.165 1.44375.25 2.1875-2.01975755 1.95011074-3.14468729 3-6 3-.33-.66-.66-1.32-1-2-1.98.33-3.96.66-6 1-.33-1.32-.66-2.64-1-4 1.98-.66 3.96-1.32 6-2-.33-1.32-.66-2.64-1-4 3-2 3-2 6-2z" fill="#dcc2cc" transform="translate(49 129)"/><path d="m0 0c3.13400486.49160861 5.15469072.30280246 8.1875-.5.33.99.66 1.98 1 3-.825.433125-1.65.86625-2.5 1.3125-.825.556875-1.65 1.11375-2.5 1.6875v3c-3 2-3 2-6 2 0-.66 0-1.32 0-2-2.31.66-4.62 1.32-7 2-.33-1.32-.66-2.64-1-4l1.9375-.75c2.25310573-1.05148727 2.25310573-1.05148727 2.6875-3.3125.185625-.9590625.185625-.9590625.375-1.9375 2-1 2-1 4.8125-.5z" fill="#cda8b7" transform="translate(82.8125 132.5)"/><path d="m0 0c-.33.99-.66 1.98-1 3-.99.33-1.98.66-3 1l1 3c-5.625 2.125-5.625 2.125-9 1-3.15020361.88319294-3.15020361.88319294-6 2 0-1.32 0-2.64 0-4l3-2c0-.99 0-1.98 0-3 1.299375-.2165625 1.299375-.2165625 2.625-.4375 2.19277838-.36546306 4.38101497-.75975784 6.5625-1.1875 2.8125-.375 2.8125-.375 5.8125.625z" fill="#bb889d" transform="translate(130 132)"/><path d="m0 0h12c-.99 2.97-1.98 5.94-3 9-3.96 0-7.92 0-12 0 .99-2.97 1.98-5.94 3-9z" fill="#848688" transform="translate(165 35)"/><path d="m0 0h4c-.66 1.32-1.32 2.64-2 4l2 2c-2.67087777 3.45643006-5.92030553 3.88735605-10 5-.66.66-1.32 1.32-2 2-2.625.125-2.625.125-5 0 0-.66 0-1.32 0-2l2-1c-.66-.66-1.32-1.32-2-2 3.15535288-3.76215151 5.24545458-4.29187621 10-5 1.0194119-.98020375 2.02246356-1.97803008 3-3z" fill="#97165c" transform="translate(207 84)"/><path d="m0 0c-.33.99-.66 1.98-1 3l2 2c-2.55578827 3.12374122-5.23784729 3.77154197-9 5-.70125.556875-1.4025 1.11375-2.125 1.6875-1.875 1.3125-1.875 1.3125-4.125 1-.5775-.226875-1.155-.45375-1.75-.6875.66-.99 1.32-1.98 2-3-.66 0-1.32 0-2 0 .5625-1.8125.5625-1.8125 2-4 3.375-1.625 3.375-1.625 7-3 .7425-.391875 1.485-.78375 2.25-1.1875 1.75-.8125 1.75-.8125 4.75-.8125z" fill="#94125d" transform="translate(231 64)"/><path d="m0 0h4v3c-1.32.33-2.64.66-4 1v4c-1.98.33-3.96.66-6 1 0-.66 0-1.32 0-2-2.31.66-4.62 1.32-7 2-.33-.99-.66-1.98-1-3 .825-.433125 1.65-.86625 2.5-1.3125 1.2375-.8353125 1.2375-.8353125 2.5-1.6875 0-.99 0-1.98 0-3 3.52184638-1.17394879 5.39390366-.66234423 9 0z" fill="#caa4b3" transform="translate(80 119)"/><path d="m0 0 2.9375.0625c-.515625.61875-1.03125 1.2375-1.5625 1.875-.474375.70125-.94875 1.4025-1.4375 2.125l1 2c-2.81027388 1.87351592-4.23868658 2.4205796-7.4375 3.0625-3.39138445.6923326-3.39138445.6923326-6.72265625 1.62109375-.60714844.10441406-1.21429688.20882812-1.83984375.31640625-.66-.66-1.32-1.32-2-2l3-2c0-.99 0-1.98 0-3 3.45058686-2.30039124 5.94095502-2.4738275 10-3 1-1 1-1 4.0625-1.0625z" fill="#a1446e" transform="translate(185.0625 103.9375)"/><path d="m0 0c-1.98.99-1.98.99-4 2 .33.99.66 1.98 1 3-3.71881733 2.47921155-5.58885916 2.07351901-10 2-2.33824592.29692012-4.67377689.62020847-7 1 1-3 1-3 3-5 .66902344-.78117187.66902344-.78117187 1.3515625-1.578125 3.96096589-3.41656774 10.89607963-2.8015918 15.6484375-1.421875z" fill="#ae6686" transform="translate(160 120)"/><path d="m0 0c1.09570312.00902344 2.19140625.01804687 3.3203125.02734375.84304687.01160156 1.68609375.02320312 2.5546875.03515625v3c-2 1.1875-2 1.1875-4 2l1 2c-3.86247075 1.49231824-6.0448066 2.18655802-10 1-2.18703385.37907282-2.18703385.37907282-4 1 0-1.32 0-2.64 0-4 .99-.66 1.98-1.32 3-2 0-.66 0-1.32 0-2 2.76452033-1.38226016 5.0461363-1.09525387 8.125-1.0625z" fill="#be8b9f" transform="translate(113.125 120.9375)"/><path d="m0 0c2.625-.1875 2.625-.1875 5 0 .33 1.65.66 3.3 1 5-11.2 7-11.2 7-15 7 .33-.99.66-1.98 1-3-.66-.33-1.32-.66-2-1 .625-1.9375.625-1.9375 2-4 1.99285937-.37366113 3.99363529-.70740515 6-1 .66-.99 1.32-1.98 2-3z" fill="#96125c" transform="translate(202 66)"/><path d="m0 0 2.4375.0625c-.33.99-.66 1.98-1 3l2 2c-1.1875 1.5-1.1875 1.5-3 3-1.66666667 0-3.33333333 0-5 0-.680625.53625-1.36125 1.0725-2.0625 1.625-.639375.45375-1.27875.9075-1.9375 1.375-2.25-.8125-2.25-.8125-4-2 .66-.99 1.32-1.98 2-3-.66-.33-1.32-.66-2-1 2.68279973-2.68279973 5.38679134-3.01457946 9-4 1-1 1-1 3.5625-1.0625z" fill="#9a2c65" transform="translate(186.5625 83.9375)"/><path d="m0 0c-.99 1.485-.99 1.485-2 3v3c-4.65499974.81462495-9.30976546 1.43393721-14 2-.33-.66-.66-1.32-1-2l2-2c0-.66 0-1.32 0-2 1.74635165-.53293835 3.49727652-1.05090663 5.25-1.5625.97453125-.29003906 1.9490625-.58007812 2.953125-.87890625 2.75931432-.55109211 4.1881574-.49648984 6.796875.44140625z" fill="#a44f76" transform="translate(169 100)"/><path d="m0 0c2.375.375 2.375.375 5 1 .886875-.185625 1.77375-.37125 2.6875-.5625l2.3125-.4375c.66.66 1.32 1.32 2 2-1.32.33-2.64.66-4 1 .33.99.66 1.98 1 3-1.97746603.73080266-3.98072489 1.39421747-6 2-.66-.33-1.32-.66-2-1-2.00800456.28112064-4.01014051.61067967-6 1 0-3 0-3 2-5 .433125-.556875.86625-1.11375 1.3125-1.6875z" fill="#af6b88" transform="translate(134 111)"/><path d="m0 0c2.90598539.54064844 4.84993077.22966066 7.6875-.5v4c-.99.495-.99.495-2 1-.33.99-.66 1.98-1 3-9 0-9 0-12-1 .33-.99.66-1.98 1-3l2-1c0-.66 0-1.32 0-2 2-1 2-1 4.3125-.5z" fill="#bf8ca1" transform="translate(100.3125 110.5)"/><path d="m0 0c-.33.99-.66 1.98-1 3v3c-.70125.12375-1.4025.2475-2.125.375-2.96947409.57424193-2.96947409.57424193-6.0625 1.8125-.928125.268125-1.85625.53625-2.8125.8125-.66-.66-1.32-1.32-2-2l1-1c-.66-.66-1.32-1.32-2-2 3.7645273-3.7645273 9.83256832-4.32296448 15-4z" fill="#9d406e" transform="translate(169 82)"/><path d="m0 0v3c-2.24561282.86762314-4.49526255 1.7192103-6.75 2.5625-.63421875.24685547-1.2684375.49371094-1.921875.74804688-3.43821679 1.27142391-5.84981382 2.15631667-9.328125.68945312 0-.99 0-1.98 0-3 2.24561282-.86762314 4.49526255-1.7192103 6.75-2.5625.63421875-.24685547 1.2684375-.49371094 1.921875-.74804688 3.43821679-1.27142391 5.84981382-2.15631667 9.328125-.68945312z" fill="#d2d3d4" transform="translate(49 114)"/><path d="m0 0c2.6875-.265625 2.6875-.265625 6-.25 1.6396875-.00773437 1.6396875-.00773437 3.3125-.015625.886875.08765625 1.77375.1753125 2.6875.265625.33.66.66 1.32 1 2-.66.66-1.32 1.32-2 2v2c-3.28696233.79953138-4.71023192 1.09658936-8 0-1.33568021.32380126-2.66923011.65657551-4 1-.66-.33-1.32-.66-2-1 0-2 0-2 2-4z" fill="#b26e8a" transform="translate(119 103)"/><path d="m0 0c0 4 0 4-1.17578125 5.73828125-2.44890473 1.69378207-4.0638027 1.56407262-7.01171875 1.44921875-.90105469-.02707031-1.80210937-.05414063-2.73046875-.08203125-.68707031-.03480469-1.37414062-.06960937-2.08203125-.10546875-.33-1.65-.66-3.3-1-5 4.72750717-2.08566493 8.96396997-3.67867668 14-2z" fill="#a85779" transform="translate(151 94)"/><path d="m0 0v3c-1.72681437.50806447-3.45657979 1.00610467-5.1875 1.5-1.44439453.41765625-1.44439453.41765625-2.91796875.84375-2.82908503.64141199-5.02144217 1.09291984-7.89453125.65625-1.3125-2-1.3125-2-2-4 2.05922133-.53364887 4.12256107-1.05142189 6.1875-1.5625 1.72283203-.43505859 1.72283203-.43505859 3.48046875-.87890625 3.21683218-.53928136 5.22875908-.44106851 8.33203125.44140625z" fill="#d0d0d1" transform="translate(36 98)"/><path d="m0 0 2.4375.0625c-.33.66-.66 1.32-1 2l2 1c-.33.99-.66 1.98-1 3-2.31029085.74259349-4.645752 1.411438-7 2-.33.33-.66.66-1 1-1.66617115.04063832-3.33388095.042721-5 0l1-2c-.99-.66-1.98-1.32-3-2 2.99062663-1.99375109 5.60914317-2.89428582 9-4 1-1 1-1 3.5625-1.0625z" fill="#981e5f" transform="translate(181.5625 67.9375)"/><path d="m0 0c.52078125.36867188 1.0415625.73734375 1.578125 1.1171875-1.50863792 3.01727584-3.68315363 3.17535143-6.8125 4.25-1.58748047.56460938-1.58748047.56460938-3.20703125 1.140625-2.98046875.609375-2.98046875.609375-5.3671875-.15625-.53238281-.40734375-1.06476562-.8146875-1.61328125-1.234375 0-.66 0-1.32 0-2 2.07710746-.72638729 4.16200312-1.43053408 6.25-2.125 1.16015625-.39445312 2.3203125-.78890625 3.515625-1.1953125 3.234375-.6796875 3.234375-.6796875 5.65625.203125z" fill="#b0b1b4" transform="translate(72.421875 105.882813)"/><path d="m0 0c.433125.680625.86625 1.36125 1.3125 2.0625-1.5823006.33820166-3.16589375.67035939-4.75 1-1.32257812.2784375-1.32257812.2784375-2.671875.5625-2.578125.4375-2.578125.4375-6.578125.4375-.33-1.65-.66-3.3-1-5 10.15317287-1.61050328 10.15317287-1.61050328 13.6875.9375z" fill="#cdcdcf" transform="translate(18.6875 80.9375)"/><path d="m0 0v3c-5.30723432 1.42705634-9.53891111 2.4002792-15 1 .33-.99.66-1.98 1-3 4.5304116-1.83462949 9.30177726-2.51555572 14-1z" fill="#afb0b2" transform="translate(58 93)"/><path d="m0 0v2c-9.41002278 3.44419134-9.41002278 3.44419134-14 3-.33-.99-.66-1.98-1-3 1.55759343-.53532823 3.12138045-1.05265378 4.6875-1.5625.87011719-.29003906 1.74023438-.58007812 2.63671875-.87890625 2.92209199-.61001336 4.81978678-.33563008 7.67578125.44140625z" fill="#929394" transform="translate(96 100)"/><path d="m0 0c.87785156-.02578125 1.75570312-.0515625 2.66015625-.078125.75152344.10828125 1.50304688.2165625 2.27734375.328125.66.99 1.32 1.98 2 3-2.92168889.9738963-5.01029474 1.19605823-8.0625 1.25-1.31677734.03867188-1.31677734.03867188-2.66015625.078125-.75152344-.10828125-1.50304687-.2165625-2.27734375-.328125-.66-.99-1.32-1.98-2-3 2.92168889-.9738963 5.01029474-1.19605823 8.0625-1.25z" fill="#b6b7b9" transform="translate(32.0625 77.75)"/><path d="m0 0 1 2c-4.84241633 1.33583899-8.93437617 2.25328119-14 2-.33-.99-.66-1.98-1-3 9.78678038-2.57995736 9.78678038-2.57995736 14-1z" fill="#959698" transform="translate(78 89)"/><path d="m0 0c-3.09423168 3.09423168-6.5523812 3.93706005-10.875 4.125-.70125-.04125-1.4025-.0825-2.125-.125 0-.99 0-1.98 0-3 1.40945366-.56016748 2.8280031-1.09748502 4.25-1.625.78890625-.30164063 1.5778125-.60328125 2.390625-.9140625 2.85855215-.55845886 3.94897339.00215505 6.359375 1.5390625z" fill="#717273" transform="translate(115 95)"/><path d="m0 0c-6.57317073 5.16463415-6.57317073 5.16463415-11.25 4.625-.9075-.20625-1.815-.4125-2.75-.625 1.36784751-2.73569502 3.33762539-3.33631214 6.078125-4.46875 2.83086622-.78251587 5.12889427-.28058629 7.921875.46875z" fill="#6a6a6c" transform="translate(132 88)"/><path d="m0 0c-3.00515368 3.46748502-5.53009997 4.93111086-10 6-.66-.33-1.32-.66-2-1 0-.66 0-1.32 0-2 7.01358234-4.81324278 7.01358234-4.81324278 12-3z" fill="#6f7071" transform="translate(146 80)"/><path d="m0 0c.94875.04125 1.8975.0825 2.875.125-2.57784846 2.64752004-4.91648098 4.94432065-8 7-2.6875-.375-2.6875-.375-5-1 .78375-.61875 1.5675-1.2375 2.375-1.875 5.1200495-4.14480198 5.1200495-4.14480198 7.75-4.25z" fill="#6d6e6e" transform="translate(157.125 69.875)"/><path d="m0 0c1.95825873-.02694851 3.91662226-.04637218 5.875-.0625 1.09054688-.01160156 2.18109375-.02320312 3.3046875-.03515625 2.8203125.09765625 2.8203125.09765625 4.8203125 1.09765625v2c-1.95825873.02694851-3.91662226.04637218-5.875.0625-1.09054688.01160156-2.18109375.02320312-3.3046875.03515625-2.8203125-.09765625-2.8203125-.09765625-4.8203125-1.09765625 0-.66 0-1.32 0-2z" fill="#a1a2a4" transform="translate(42 77)"/><path d="m0 0 1 2c-4.17737474 1.59138085-7.53160785 2.21278058-12 2-.33-.99-.66-1.98-1-3 4.0524767-.98241859 7.83406505-1.2403424 12-1z" fill="#7d7e80" transform="translate(94 85)"/><path d="m0 0v2c-4.76052962 1.97387813-7.96488101 2.0070238-13 1 3.74288271-3.74288271 7.90233717-3.09803198 13-3z" fill="#727374" transform="translate(110 81)"/><path d="m0 0c2.14556558-.05371374 4.29150584-.09265994 6.4375-.125 1.79244141-.03480469 1.79244141-.03480469 3.62109375-.0703125.97066406.06445312 1.94132812.12890625 2.94140625.1953125.33.66.66 1.32 1 2-1.76813112.24915939-3.53974982.47366632-5.3125.6875-.98613281.12761719-1.97226563.25523438-2.98828125.38671875-2.69921875-.07421875-2.69921875-.07421875-4.5546875-1.5546875-.56654297-.75216797-.56654297-.75216797-1.14453125-1.51953125z" fill="#8f9092" transform="translate(58 76)"/><path d="m0 0c-3.18382329 2.81645906-5.75534029 3.72317437-10 4-.66-.66-1.32-1.32-2-2 7.28571429-3.57142857 7.28571429-3.57142857 12-2z" fill="#6d6e6e" transform="translate(124 77)"/><path d="m0 0c-2.12619097 2.33881007-3.99776492 3.94038762-7 5-2.75-.375-2.75-.375-5-1 3.52659701-3.52659701 7.10745023-4.27957427 12-4z" fill="#6d6e6e" transform="translate(137 71)"/><path d="m0 0h13v2c-4.29 0-8.58 0-13 0 0-.66 0-1.32 0-2z" fill="#7c7c7e" transform="translate(74 75)"/><path d="m0 0h13c-4.73447105 2.36723553-6.82546893 2.33931351-12 2-.33-.66-.66-1.32-1-2z" fill="#707172" transform="translate(88 74)"/><path d="m0 0v2c-3.96 0-7.92 0-12 0 0-.33 0-.66 0-1 1.43725871-.16873478 2.87481838-.33490737 4.3125-.5.80050781-.0928125 1.60101563-.185625 2.42578125-.28125 2.26171875-.21875 2.26171875-.21875 5.26171875-.21875z" fill="#6d6d6e" transform="translate(114 72)"/></svg>