<?xml version="1.0" standalone="no"?>
<!DOCTYPE svg PUBLIC "-//W3C//DTD SVG 20010904//EN"
 "http://www.w3.org/TR/2001/REC-SVG-20010904/DTD/svg10.dtd">
<svg version="1.0" xmlns="http://www.w3.org/2000/svg"
 width="1200.000000pt" height="954.000000pt" viewBox="0 0 1200.000000 954.000000"
 preserveAspectRatio="xMidYMid meet">

<g transform="translate(0.000000,954.000000) scale(0.100000,-0.100000)"
fill="#000000" stroke="none">
<path d="M2080 4735 c-189 -190 -350 -345 -356 -345 -20 0 -27 -19 -13 -36 6
-8 14 -12 17 -9 3 3 159 -148 347 -335 l341 -340 386 0 c272 0 387 3 390 11 2
6 -146 162 -329 347 -183 186 -333 342 -333 347 0 6 153 162 340 348 187 185
340 342 340 347 0 6 -141 10 -392 10 l-393 0 -345 -345z"/>
<path d="M1040 5053 c0 -27 637 -660 650 -647 7 7 9 121 8 335 l-3 324 -327 3
c-308 2 -328 1 -328 -15z"/>
<path d="M5015 4824 c-97 -26 -151 -54 -212 -109 -52 -46 -105 -140 -123 -217
-13 -57 -13 -175 1 -238 26 -120 115 -235 228 -291 64 -33 69 -33 191 -34 122
0 127 1 190 33 36 18 86 54 112 80 125 122 162 340 89 530 -37 98 -137 191
-246 228 -50 17 -191 28 -230 18z m174 -245 c56 -40 75 -85 75 -184 1 -110 -9
-150 -51 -196 -67 -75 -162 -73 -229 5 -44 51 -57 102 -52 196 6 92 28 143 81
181 56 41 118 40 176 -2z"/>
<path d="M6085 4823 c-166 -39 -273 -135 -325 -291 -34 -99 -27 -234 16 -357
10 -28 87 -130 119 -157 11 -10 49 -32 84 -49 51 -24 82 -32 150 -36 146 -10
243 23 341 114 166 153 176 471 21 646 -39 43 -124 96 -192 117 -58 19 -163
25 -214 13z m162 -234 c58 -36 85 -90 90 -183 9 -134 -27 -210 -116 -251 -36
-16 -46 -16 -86 -5 -118 33 -171 184 -118 340 35 105 144 152 230 99z"/>
<path d="M3712 4802 c-10 -7 -12 -99 -10 -428 l3 -419 114 -5 c89 -4 118 -2
128 9 11 10 14 42 12 126 l-2 113 35 37 c40 43 47 41 86 -18 29 -46 28 -43 95
-155 69 -115 60 -111 217 -112 74 -1 141 -1 148 -1 13 1 17 47 4 53 -5 2 -29
32 -54 68 -24 36 -75 110 -113 165 -38 55 -88 128 -112 162 -24 34 -43 67 -43
72 0 11 163 196 237 268 47 46 51 58 27 67 -24 9 -250 7 -276 -3 -13 -5 -68
-66 -122 -135 -92 -116 -124 -145 -127 -113 -1 6 -1 60 1 120 1 73 -2 112 -10
122 -10 12 -37 15 -119 15 -58 0 -112 -4 -119 -8z"/>
<path d="M6848 4800 c-17 -10 -18 -41 -18 -414 0 -318 3 -406 13 -420 12 -16
28 -18 122 -17 60 1 115 7 122 13 9 7 13 43 13 124 0 133 -15 121 156 127 166
7 248 51 300 164 35 76 34 193 -2 265 -33 65 -80 111 -141 139 -44 20 -68 22
-298 26 -171 3 -256 0 -267 -7z m432 -223 c63 -22 75 -90 24 -138 -19 -18 -38
-23 -101 -26 -43 -2 -83 0 -90 4 -9 7 -17 94 -14 150 2 21 127 28 181 10z"/>
<path d="M7808 4799 c-17 -9 -18 -40 -18 -418 0 -323 3 -411 13 -419 20 -17
217 -18 229 -1 5 8 8 105 5 237 -2 122 -1 224 3 227 15 9 38 -32 50 -90 6 -33
15 -73 20 -90 27 -99 44 -155 56 -190 8 -23 14 -48 14 -56 0 -39 23 -50 108
-51 94 -2 103 4 121 82 35 154 82 325 103 380 10 24 11 24 18 5 5 -11 9 -118
9 -237 1 -145 5 -219 12 -224 19 -12 223 -4 231 9 4 7 8 195 8 420 l0 407 -26
10 c-30 12 -324 13 -341 2 -15 -10 -52 -143 -53 -187 0 -17 -4 -35 -9 -40 -5
-6 -14 -32 -20 -60 -45 -220 -52 -224 -96 -45 -9 36 -20 85 -26 110 -5 25 -13
56 -18 70 -5 14 -12 47 -16 73 -11 83 -20 87 -203 86 -86 0 -165 -5 -174 -10z"/>
<path d="M9291 4802 c-14 -5 -33 -41 -54 -102 -9 -25 -26 -70 -37 -100 -12
-30 -25 -68 -30 -85 -5 -16 -22 -66 -39 -110 -16 -44 -44 -118 -61 -165 -17
-47 -35 -94 -40 -105 -5 -11 -12 -31 -15 -45 -4 -14 -16 -45 -27 -69 -33 -69
-23 -75 110 -74 61 1 116 4 121 7 5 4 17 28 26 55 9 27 23 52 31 55 9 3 67 6
129 6 127 0 138 -5 149 -65 10 -53 33 -61 163 -57 126 4 134 9 101 72 -10 19
-18 40 -18 47 0 8 -4 21 -9 31 -17 35 -41 93 -41 102 0 5 -5 21 -12 37 -6 15
-17 46 -24 68 -14 46 -70 201 -83 230 -5 11 -26 70 -46 130 -21 61 -46 118
-57 127 -16 14 -38 17 -123 16 -57 -1 -108 -4 -114 -6z m134 -339 c3 -16 10
-41 16 -58 20 -58 37 -130 33 -137 -7 -11 -91 -21 -119 -14 -20 5 -25 13 -25
36 0 16 4 31 9 34 5 3 14 27 20 53 27 104 55 141 66 86z"/>
<path d="M10038 4799 c-17 -9 -18 -40 -18 -413 0 -306 3 -406 13 -418 17 -24
213 -30 227 -8 5 8 10 106 10 218 0 174 2 202 15 202 9 0 21 -12 28 -27 6 -16
31 -61 54 -101 24 -40 43 -75 43 -78 0 -3 23 -44 50 -91 28 -47 50 -88 50 -92
0 -5 8 -15 19 -25 15 -14 37 -16 137 -14 l119 3 3 421 2 422 -22 6 c-36 9
-174 7 -202 -4 l-26 -10 0 -206 c0 -230 -3 -238 -55 -138 -18 32 -58 109 -90
169 -32 61 -65 124 -74 140 -8 17 -22 35 -30 42 -20 15 -228 17 -253 2z"/>
<path d="M1362 4020 c-176 -179 -317 -328 -313 -333 4 -4 151 -6 327 -5 l319
3 3 313 c1 179 -2 320 -7 330 -8 13 -66 -42 -329 -308z"/>
</g>
</svg>
