<svg id="Layer_2" data-name="Layer 2" xmlns="http://www.w3.org/2000/svg" viewBox="0 0 1671.24 239.1"><defs><style>.cls-1,.cls-2{fill:#fff;}.cls-1,.cls-3{stroke:#fff;stroke-miterlimit:10;}.cls-3{fill:none;stroke-width:3px;}</style></defs><polygon class="cls-1" points="77.31 103.24 66.25 103.24 50.26 75.55 66.25 47.85 77.86 47.85 64.96 26.55 77.78 5.18 41.19 5.18 0.58 75.52 41.19 145.86 78 145.86 90.5 125.02 77.31 103.24"/><polygon class="cls-1" points="163.03 75.52 122.41 5.18 87 5.18 74.18 26.55 87.09 47.85 98.22 47.85 114.21 75.55 98.22 103.24 86.54 103.24 99.73 125.02 87.22 145.86 122.41 145.86 163.03 75.52"/><path class="cls-1" d="M359.27,230.31h51v95.37h42.83v45.07H359.27Z" transform="translate(-165.21 -225.05)"/><path class="cls-1" d="M546.67,274.27c16.21,0,26.27,12.48,26.27,27.38,0,16-10.81,27-26.27,27s-26.26-11-26.26-27C520.41,286.75,530.47,274.27,546.67,274.27Zm0-46.19C504,228.08,469,256.76,469,300.9,469,346,503.83,373,546.67,373s77.67-27,77.67-72.08C624.34,256.76,589.33,228.08,546.67,228.08Z" transform="translate(-165.21 -225.05)"/><path class="cls-1" d="M772.18,230.31l-44,65.75,50.1,74.69H720.21l-16-29.8a29.44,29.44,0,0,1-3-8.57h-1.49a48.11,48.11,0,0,1-3.91,9.68l-15.65,28.69H622.05l49.17-74.69-44.14-65.75h57.55l10.43,19.93a53.92,53.92,0,0,1,4.29,11.55h1.12a51.09,51.09,0,0,1,4.47-11.55l9.68-19.93Z" transform="translate(-165.21 -225.05)"/><path class="cls-1" d="M849.9,319.9l9.32-42.84h1.86c.93,6,1.86,12.11,3.35,18.07l6,24.77Zm-9.13,33.34h38.56L884,370.75h54L887.9,230.31H831.46l-48.8,140.44h54Z" transform="translate(-165.21 -225.05)"/><path class="cls-1" d="M965.56,230.31h52.53l19.37,73.76h1.31a157.33,157.33,0,0,1,3.53-18.63l15.83-55.13h52l23.1,140.44h-49.36L1077,293.82H1076a117.53,117.53,0,0,1-3.34,14l-20.31,62.95h-29.8l-18.25-59.42a95.82,95.82,0,0,1-3.17-17.51h-1.68c-.36,5.59-.74,11.37-1.3,16.95l-6,60H942.85Z" transform="translate(-165.21 -225.05)"/><path class="cls-1" d="M235.29,463.13V427.07l-11.82,23.46H215.3l-11.9-23.46v36.06H191.32V401.26h11.9l16.17,33.45,16.07-33.45h11.91v61.87Z" transform="translate(-165.21 -225.05)"/><path class="cls-1" d="M290,463.13V459a15.49,15.49,0,0,1-11.3,4.69,14.66,14.66,0,0,1-10.68-4c-3.65-3.65-4.61-7.91-4.61-12.86V417.86h11.3v27.37c0,6.17,3.91,8.25,7.47,8.25s7.56-2.08,7.56-8.25V417.86h11.3v45.27Z" transform="translate(-165.21 -225.05)"/><path class="cls-1" d="M334.8,463.65c-9,0-20.25-4.87-20.25-23.2s11.21-23.12,20.25-23.12c6.25,0,10.94,1.92,14.94,6.09l-7.65,7.64c-2.34-2.52-4.34-3.56-7.29-3.56a7.83,7.83,0,0,0-6.43,3c-1.74,2.17-2.52,5.21-2.52,10s.78,7.91,2.52,10.08a7.82,7.82,0,0,0,6.43,3c2.95,0,4.95-1,7.29-3.56l7.65,7.56C345.74,461.65,341.05,463.65,334.8,463.65Z" transform="translate(-165.21 -225.05)"/><path class="cls-1" d="M387.55,463.13V435.5c0-6-3.83-8-7.39-8s-7.3,2.09-7.3,8v27.63h-11.3V401.26h11.3V422a15,15,0,0,1,10.86-4.7c9.91,0,15.12,7,15.12,16.51v29.29Z" transform="translate(-165.21 -225.05)"/><path class="cls-1" d="M482.09,463.13V427.07l-11.82,23.46h-8.16L450.2,427.07v36.06H438.12V401.26H450l16.16,33.45,16.08-33.45h11.9v61.87Z" transform="translate(-165.21 -225.05)"/><path class="cls-1" d="M542.06,458.09c-2.78,3-7.39,5.56-14.08,5.56s-11.21-2.61-14-5.56c-4.08-4.26-5.13-9.39-5.13-17.64s1.05-13.3,5.13-17.55c2.78-3,7.3-5.57,14-5.57s11.3,2.61,14.08,5.57c4.08,4.25,5.12,9.38,5.12,17.55S546.14,453.83,542.06,458.09Zm-8.78-28.59a7.15,7.15,0,0,0-5.3-2,6.94,6.94,0,0,0-5.21,2c-2.35,2.35-2.61,6.26-2.61,10.95s.26,8.69,2.61,11a6.9,6.9,0,0,0,5.21,2,7.11,7.11,0,0,0,5.3-2c2.35-2.34,2.61-6.34,2.61-11S535.63,431.85,533.28,429.5Z" transform="translate(-165.21 -225.05)"/><path class="cls-1" d="M585.6,430.19a7.56,7.56,0,0,0-6-2.69c-3.47,0-7.3,2.61-7.3,8.34v27.29H561V417.86h11v4.34a15.31,15.31,0,0,1,11.38-4.87c4.44,0,7.56,1.13,10.69,4.26Z" transform="translate(-165.21 -225.05)"/><path class="cls-1" d="M609.76,444c0,5.82,3.56,10.08,9.9,10.08,5,0,7.39-1.39,10.26-4.26l6.86,6.69c-4.61,4.61-9,7.13-17.21,7.13-10.68,0-20.94-4.87-20.94-23.2,0-14.77,8-23.12,19.73-23.12,12.6,0,19.72,9.22,19.72,21.64v5Zm16.16-12.6a8.44,8.44,0,0,0-15.12,0,12.28,12.28,0,0,0-1,4.87H627A12.64,12.64,0,0,0,625.92,431.41Z" transform="translate(-165.21 -225.05)"/><path class="cls-1" d="M688.92,463.13c-9.21,0-13.12-6.52-13.12-12.95V427.76H671v-8.6h4.78V405.78h11.3v13.38h8v8.6h-8v21.73c0,2.6,1.21,4.08,3.91,4.08h4.08v9.56Z" transform="translate(-165.21 -225.05)"/><path class="cls-1" d="M734.37,463.13V435.5c0-6-3.82-8-7.39-8s-7.29,2.09-7.29,8v27.63h-11.3V401.26h11.3V422a15,15,0,0,1,10.86-4.7c9.9,0,15.12,7,15.12,16.51v29.29Z" transform="translate(-165.21 -225.05)"/><path class="cls-1" d="M784.08,463.13v-3.91c-3,3-5.91,4.34-11.12,4.34s-8.87-1.3-11.56-4a14.48,14.48,0,0,1-3.74-10.16c0-7.21,5-13.12,15.47-13.12h10.69V434c0-4.95-2.43-7.13-8.43-7.13-4.34,0-6.34,1.05-8.69,3.74l-7.21-7c4.43-4.86,8.77-6.26,16.33-6.26,12.69,0,19.29,5.39,19.29,16v29.81ZM783.82,444h-9c-4.09,0-6.34,1.91-6.34,5.13s2.08,5.21,6.51,5.21c3.13,0,5.13-.26,7.13-2.17,1.21-1.13,1.65-3,1.65-5.74Z" transform="translate(-165.21 -225.05)"/><path class="cls-1" d="M836.66,463.13V435.76c0-6.17-3.91-8.26-7.48-8.26s-7.56,2.09-7.56,8.26v27.37H810.33V417.86h11V422a15.51,15.51,0,0,1,11.3-4.7,14.7,14.7,0,0,1,10.69,4c3.65,3.65,4.6,7.91,4.6,12.86v28.94Z" transform="translate(-165.21 -225.05)"/><path class="cls-1" d="M920.08,463.13,908,438.45h-8.69v24.68H887.24V401.26h24.24c12.6,0,20.07,8.6,20.07,18.94a16.66,16.66,0,0,1-11.3,16.25l13.82,26.68ZM910.7,412H899.31v16.34H910.7c5.3,0,8.77-3.39,8.77-8.17S916,412,910.7,412Z" transform="translate(-165.21 -225.05)"/><path class="cls-1" d="M955.11,444c0,5.82,3.56,10.08,9.9,10.08,5,0,7.39-1.39,10.25-4.26l6.87,6.69c-4.6,4.61-9,7.13-17.21,7.13-10.68,0-20.94-4.87-20.94-23.2,0-14.77,8-23.12,19.73-23.12,12.6,0,19.72,9.22,19.72,21.64v5Zm16.16-12.6a8.44,8.44,0,0,0-15.12,0,12.28,12.28,0,0,0-1,4.87h17.2A12.64,12.64,0,0,0,971.27,431.41Z" transform="translate(-165.21 -225.05)"/><path class="cls-1" d="M1023.24,463.13V435.76c0-6.17-3.91-8.26-7.48-8.26s-7.56,2.09-7.56,8.26v27.37H996.91V417.86h11V422a15.51,15.51,0,0,1,11.3-4.7,14.7,14.7,0,0,1,10.69,4c3.65,3.65,4.6,7.91,4.6,12.86v28.94Z" transform="translate(-165.21 -225.05)"/><path class="cls-1" d="M1063.91,463.13c-9.21,0-13.12-6.52-13.12-12.95V427.76H1046v-8.6h4.78V405.78h11.29v13.38h8v8.6h-8v21.73c0,2.6,1.22,4.08,3.91,4.08h4.09v9.56Z" transform="translate(-165.21 -225.05)"/><path class="cls-1" d="M1106.3,463.13v-3.91c-3,3-5.91,4.34-11.12,4.34s-8.87-1.3-11.56-4a14.48,14.48,0,0,1-3.74-10.16c0-7.21,5-13.12,15.47-13.12H1106V434c0-4.95-2.43-7.13-8.43-7.13-4.34,0-6.34,1.05-8.69,3.74l-7.21-7c4.43-4.86,8.78-6.26,16.33-6.26,12.69,0,19.3,5.39,19.3,16v29.81ZM1106,444h-9c-4.08,0-6.34,1.91-6.34,5.13s2.08,5.21,6.51,5.21c3.13,0,5.13-.26,7.13-2.17,1.22-1.13,1.65-3,1.65-5.74Z" transform="translate(-165.21 -225.05)"/><path class="cls-1" d="M1145.32,463.13c-9.3,0-13.21-6.52-13.21-12.95V401.26h11.3v48.23c0,2.69,1.13,4.08,4,4.08h4.35v9.56Z" transform="translate(-165.21 -225.05)"/><g id="LOX"><polygon class="cls-2" points="1416.48 17.32 1448.74 17.32 1448.74 77.61 1475.82 77.61 1475.82 106.11 1416.48 106.11 1416.48 17.32"/><path class="cls-2" d="M1679.2,287.47c0,10.13,6.83,17.07,16.6,17.07s16.59-6.94,16.59-17.07c0-9.41-6.35-17.31-16.59-17.31s-16.6,7.9-16.6,17.31m65.7-.47c0,28.5-22,45.58-49.1,45.58s-49.11-17.08-49.11-45.58c0-27.9,22.14-46,49.11-46s49.1,18.14,49.1,46" transform="translate(-165.21 -225.05)"/><path class="cls-2" d="M1831.26,242.37l-27.79,41.57,31.67,47.22H1798.4l-10.13-18.84a18.49,18.49,0,0,1-1.88-5.42h-.94A31.21,31.21,0,0,1,1783,313l-9.9,18.13h-36.74l31.09-47.22-27.9-41.57h36.38l6.6,12.61a35,35,0,0,1,2.71,7.3h.7a32.17,32.17,0,0,1,2.82-7.3l6.13-12.61Z" transform="translate(-165.21 -225.05)"/></g><g id="Green"><path class="cls-2" d="M1635.19,370.74c-.15,8.67-.15,15.94-6.41,22.71-5.65,6.14-14.32,9.45-22.58,9.45-16.22,0-29.34-10-29.34-27.08,0-17.35,12.77-27.79,29.49-27.79,9.24,0,21.92,4.59,26.09,13.68l-18.06,6.63a8.09,8.09,0,0,0-7.33-4.09c-6.91,0-10.72,5.93-10.72,12.34,0,5.86,3.67,11.36,9.94,11.36,3,0,6.91-1.41,7.83-4.66h-8.74V370.74Z" transform="translate(-165.21 -225.05)"/><path class="cls-2" d="M1660.72,372.44h1.34c3.17,0,6.34-.5,6.34-4.45s-2.88-4.59-6.21-4.59h-1.47Zm-18.9-23.56h23.35c12,0,22.14,5.08,22.14,18.47,0,8-3.11,11.43-10.3,13.83v.42a13.71,13.71,0,0,1,3.25,3.18l11.56,17.27h-22.29L1661.07,385h-.35v17.07h-18.9Z" transform="translate(-165.21 -225.05)"/><polygon class="cls-2" points="1529.71 123.82 1565.46 123.82 1565.46 138.35 1549.18 138.35 1549.18 143.43 1564.05 143.43 1564.05 157.25 1549.18 157.25 1549.18 162.47 1566.03 162.47 1566.03 177 1529.71 177 1529.71 123.82"/><polygon class="cls-2" points="1573.71 123.82 1609.46 123.82 1609.46 138.35 1593.17 138.35 1593.17 143.43 1608.07 143.43 1608.07 157.25 1593.17 157.25 1593.17 162.47 1610.03 162.47 1610.03 177 1573.71 177 1573.71 123.82"/><path class="cls-2" d="M1817.78,348.88v15.94a79.32,79.32,0,0,0,1.61,13.53h-.56l-17.34-29.47h-18.55v53.17h18.47V384.78a62.91,62.91,0,0,0-1.19-10.66h.56l17,27.93h18.47V348.88Z" transform="translate(-165.21 -225.05)"/></g><g id="Low_emiion" data-name="Low emiion"><path class="cls-2" d="M1577.82,442.15c.89-6.79,1.93-14.74,2.7-21.57.16-1.61,0-2.9,1.88-2.9h2c1.57,0,1.65,1.33,1.45,2.69-.68,4.67-2.29,16.12-2.57,20,3,0,8.8,0,10-.12s1.61.57,1.45,1.69l-.2,1.65c-.16,1-.36,1.44-1.69,1.44h-13.14c-1.77,0-2.05-1.32-1.81-2.85" transform="translate(-165.21 -225.05)"/><path class="cls-2" d="M1609.16,421.86c-5.1,0-7.31,4.38-7.87,9.44s.4,9.53,5.46,9.53,7.24-4.63,7.88-9.53c.56-5.06-.52-9.44-5.47-9.44m-2.89,23.55c-7.75,0-11.25-6-10.24-14.07s5.14-14.06,13.66-14.06c7.31,0,11.13,6.11,10.2,14.06s-5.54,14.07-13.62,14.07" transform="translate(-165.21 -225.05)"/><path class="cls-2" d="M1640.18,422.91H1640l-7.15,20c-.52,1.61-1.37,2.05-2.53,2.05H1627c-1.88,0-2-1.68-2.21-2.85-.24-1.73-2.53-19.73-2.61-21.82-.08-1.4-.2-2.65,1.69-2.65h1.45c1.76,0,1.93,1.41,2,2.09.16,2.25,1.44,16.56,1.8,20.49h.2c1.69-4.34,6.76-19,7.32-20.29s.8-2.29,2.49-2.29h3.09c1.61,0,1.81,1.57,1.89,2.29.2,2.21,2,16.6,2.41,20.41h.2c1.41-4.18,6.35-19.24,6.79-20.53s.65-2.17,2.25-2.17H1658c1.29,0,1.33,1.25.93,2.49-1.13,3.42-7.44,19.61-8.16,21.58-.44,1.37-.8,3.25-2.93,3.25h-3.22a1.93,1.93,0,0,1-2.09-2.08c-.2-1.69-1.76-15.88-2.37-20" transform="translate(-165.21 -225.05)"/><path class="cls-2" d="M1671.84,417.68H1686c1.32,0,1.45.69,1.32,1.73l-.12,1.41c-.16,1.12-.72,1.6-1.8,1.52h-10.57l-.89,7c3,0,8.12,0,9,0,.72,0,1.28.33,1.16,1.29l-.2,1.61c-.16,1-.48,1.24-1.33,1.24-1.16,0-6.11,0-9.12,0l-.8,6.91c3,0,9.28,0,10.49-.12s1.52.49,1.4,1.61l-.2,1.89c-.12,1-.36,1.28-1.69,1.28h-14c-1.77,0-1.65-1.64-1.45-2.89.49-3.17,2.38-20.25,2.5-21.17.16-1.37-.25-3.26,2-3.26" transform="translate(-165.21 -225.05)"/><path class="cls-2" d="M1693.82,417.68h3.86a1.57,1.57,0,0,1,1.81,1.37c.24,1.44,3.25,16,3.25,16h.28s7.24-14.67,7.84-16.07a2,2,0,0,1,2.29-1.33H1717c1.81,0,1.48,1.61,1.4,2.85l-.92,21.82c-.12,1.37.36,2.65-2,2.65h-1.77c-1.89,0-1.53-1.2-1.49-2.45.13-1.6,1.17-15.51,1.33-18.84h-.24c-1.09,2.45-6.83,14.26-7.43,15.67a1.69,1.69,0,0,1-1.65,1.24h-3.54a1.35,1.35,0,0,1-1.44-1.24c-.24-1.65-2.77-13.46-3.06-15.67h-.24c-.72,4.74-3,16.71-3.37,18.92-.24,1.41,0,2.37-1.81,2.37h-2c-1.73,0-1.77-1-1.49-2.21.73-3.17,4.42-21.25,4.78-22.9.13-.64.21-2.21,1.85-2.21" transform="translate(-165.21 -225.05)"/><path class="cls-2" d="M1726.73,417.68h1.93c1.77,0,1.61,1.61,1.41,2.85-.57,3.82-2.33,19.21-2.54,21.22-.08,1.37.37,3.25-2,3.25h-1.89c-1.77,0-1.65-1.64-1.45-2.89.48-3.17,2.13-17.64,2.49-21.17.16-1.37-.24-3.26,2-3.26" transform="translate(-165.21 -225.05)"/><path class="cls-2" d="M1745.21,429.61c4.66,1.41,6.31,4.06,6,7.36-.44,5.34-4.9,8.44-11.25,8.44a14,14,0,0,1-6.59-1.49,2.37,2.37,0,0,1-1.12-3.46,5.34,5.34,0,0,1,1.44-1.92,9.4,9.4,0,0,0,6.75,2.41c3.1,0,5.19-1.53,5.47-3.78.2-1.61-1.13-2.85-3.7-3.62l-3.3-1c-3.29-1-5.9-3.09-5.62-6.87.4-4.9,4.38-8.4,10.57-8.4a13,13,0,0,1,6.71,1.61c1.12.72,1.77,1.52.72,3.41a6.28,6.28,0,0,1-1.17,1.45,11.9,11.9,0,0,0-6.58-2c-3.06,0-4.7,1.53-5,3.7-.24,1.8,1.53,2.69,3.5,3.25Z" transform="translate(-165.21 -225.05)"/><path class="cls-2" d="M1765.83,429.61c4.66,1.41,6.3,4.06,6,7.36-.44,5.34-4.9,8.44-11.25,8.44a14.07,14.07,0,0,1-6.59-1.49,2.37,2.37,0,0,1-1.12-3.46,5.34,5.34,0,0,1,1.44-1.92A9.4,9.4,0,0,0,1761,441c3.1,0,5.19-1.53,5.47-3.78.2-1.61-1.13-2.85-3.7-3.62l-3.29-1c-3.3-1-5.91-3.09-5.63-6.87.4-4.9,4.38-8.4,10.57-8.4a13,13,0,0,1,6.71,1.61c1.12.72,1.77,1.52.72,3.41a6.41,6.41,0,0,1-1.16,1.45,11.91,11.91,0,0,0-6.59-2c-3.06,0-4.7,1.53-5,3.7-.25,1.8,1.52,2.69,3.49,3.25Z" transform="translate(-165.21 -225.05)"/><path class="cls-2" d="M1779.13,417.68h1.92c1.77,0,1.61,1.61,1.41,2.85-.56,3.82-2.33,19.21-2.53,21.22-.08,1.37.36,3.25-2,3.25H1776c-1.77,0-1.65-1.64-1.44-2.89.48-3.17,2.13-17.64,2.49-21.17.16-1.37-.24-3.26,2.05-3.26" transform="translate(-165.21 -225.05)"/><path class="cls-2" d="M1798.21,421.86c-5.1,0-7.31,4.38-7.87,9.44s.4,9.53,5.46,9.53,7.23-4.63,7.88-9.53c.56-5.06-.53-9.44-5.47-9.44m-2.89,23.55c-7.76,0-11.25-6-10.25-14.07s5.15-14.06,13.66-14.06c7.32,0,11.13,6.11,10.21,14.06s-5.55,14.07-13.62,14.07" transform="translate(-165.21 -225.05)"/><path class="cls-2" d="M1833,417.68h1.89c1.76,0,1.64,1.61,1.44,2.85-.24,1.41-2.61,19.21-2.73,21.22,0,1.37.32,3.25-2,3.25h-1.81c-1.6,0-1.6-1.48-1.52-2.57.12-1.4-7.84-13.3-9.85-16.27h-.36c-.32,2.69-1.57,14.83-1.61,15.59,0,1.37.32,3.25-2,3.25h-1.88c-1.77,0-1.61-1.64-1.45-2.89.48-3.17,2.61-20.89,2.77-21.82.16-1.36.08-2.61,2.13-2.61h2.57l10.53,16.52h.36c.12-1.81,1.73-14.67,1.69-15.11,0-.69.24-1.41,1.89-1.41" transform="translate(-165.21 -225.05)"/></g><path id="Feuille" class="cls-2" d="M1475.3,228.08H1342.39l-66.46,115.1,66.46,115.11h42.39c-.92-.76-1.83-1.55-2.71-2.39-5.49-5.25-8.94-12.15-11-19.67h-16l-53.72-93.05,53.72-93h107.44l53.73,93-53.73,93h-37.29c-20.9,0-27.74-10-29.58-13.79-9.39-19.33-.56-43.24-.56-43.24,14.61-2.31,38.46-8.83,47.4-27.59,11.87-24.93-7.45-54.47,12.2-85.24,4.6-7.19-65.22,13-87,49.95-16,27.28-2,49.05,3.56,56.92a106.52,106.52,0,0,1,5.85-20,173.42,173.42,0,0,0-.36-20.41,63,63,0,0,1,4.57,11.22c17.31-33.53,47.23-48.92,47.23-48.92a239.67,239.67,0,0,0-28.82,42.51c4.57-3.48,12-6.85,23.72-6.55,0,0-19.57,8.49-29.85,19.16a145.93,145.93,0,0,0-10.29,32.15s-12.16,47.84,6.31,65.48c6.68,6.38,17.49,10,27.81,10.33l18.93,0h38.87l66.47-115.11Z" transform="translate(-165.21 -225.05)"/><line class="cls-3" x1="1052.39" x2="1052.39" y2="236.26"/></svg>