<?xml version="1.0" standalone="no"?>
<!DOCTYPE svg PUBLIC "-//W3C//DTD SVG 20010904//EN"
 "http://www.w3.org/TR/2001/REC-SVG-20010904/DTD/svg10.dtd">
<svg version="1.0" xmlns="http://www.w3.org/2000/svg"
 width="1166.000000pt" height="348.000000pt" viewBox="0 0 1166.000000 348.000000"
 preserveAspectRatio="xMidYMid meet">

<g transform="translate(0.000000,348.000000) scale(0.100000,-0.100000)"
fill="#000000" stroke="none">
<path d="M1410 3035 l-315 -315 -162 0 -163 0 0 -163 0 -163 -332 -331 c-287
-287 -330 -334 -319 -347 7 -9 18 -13 24 -9 5 3 7 2 4 -4 -3 -5 136 -151 309
-324 l314 -314 0 -162 0 -163 163 0 162 0 315 -315 c173 -173 318 -314 322
-312 4 1 149 143 322 314 l315 313 161 0 160 0 0 160 0 161 337 334 337 335
-337 332 -337 333 -2 160 -3 160 -155 3 c-119 2 -158 6 -170 17 -9 8 -20 12
-23 8 -4 -3 -7 -2 -7 4 0 10 -583 595 -598 600 -4 2 -149 -139 -322 -312z
m204 -787 c61 -229 114 -412 117 -405 4 7 53 188 109 402 57 215 105 398 108
408 4 16 27 17 346 15 l341 -3 3 -937 2 -938 -260 0 -260 0 -2 292 -3 292 -39
-155 c-21 -84 -54 -216 -74 -292 l-35 -137 -241 0 -241 0 -69 278 c-38 152
-73 281 -78 287 -4 5 -8 -120 -8 -278 l0 -287 -255 0 -255 0 0 940 0 940 341
-2 342 -3 111 -417z"/>
<path d="M920 1730 l0 -830 155 0 155 0 0 653 c0 358 4 645 8 637 5 -8 80
-302 168 -652 l159 -638 161 0 161 0 36 138 c19 75 93 365 163 645 70 279 130
507 133 507 4 0 6 -290 5 -645 l-1 -645 153 0 154 0 0 830 0 830 -249 0 -249
0 -26 -97 c-14 -54 -46 -174 -71 -268 -25 -93 -53 -201 -64 -240 -11 -38 -45
-172 -78 -297 -32 -126 -61 -228 -64 -228 -3 0 -73 253 -155 563 l-150 562
-252 3 -252 2 0 -830z"/>
<path d="M11256 3083 c-15 -21 -95 -141 -178 -268 -266 -405 -319 -485 -326
-485 -4 1 -58 79 -121 175 l-114 175 -128 0 -127 0 78 -117 c42 -65 121 -185
176 -268 54 -82 101 -153 102 -158 2 -4 -75 -125 -170 -270 -96 -144 -177
-268 -182 -274 -6 -10 22 -13 127 -13 l135 0 112 171 c61 94 115 167 120 163
4 -5 55 -82 113 -171 l106 -163 136 0 135 0 -151 228 c-83 125 -164 246 -180
269 -16 23 -29 46 -29 52 0 5 39 70 87 143 47 73 86 138 86 145 0 7 3 10 7 8
6 -4 176 254 174 264 -1 3 5 11 11 16 11 9 163 237 248 373 l27 42 -123 0
-123 0 -28 -37z"/>
<path d="M3670 2130 l0 -550 105 0 105 0 1 423 1 422 106 -422 107 -423 107 0
106 0 11 33 c5 17 53 205 106 417 53 212 98 387 101 389 2 2 4 -185 4 -417 l0
-422 105 0 105 0 0 550 0 550 -169 0 -169 0 -22 -82 c-11 -46 -39 -148 -60
-228 -21 -80 -55 -210 -76 -289 -25 -95 -40 -137 -44 -125 -4 11 -49 178 -101
372 l-93 352 -168 0 -168 0 0 -550z"/>
<path d="M5065 2140 c-115 -297 -211 -545 -213 -550 -2 -6 42 -10 115 -10
l118 0 45 125 45 125 221 0 221 0 48 -125 48 -125 118 0 c66 0 119 3 119 8 0
4 -98 251 -217 549 l-218 543 -120 0 -120 0 -210 -540z m409 67 c36 -98 66
-182 66 -185 0 -8 -279 -6 -287 1 -3 4 78 237 127 362 15 38 12 43 94 -178z"/>
<path d="M6080 2129 l0 -551 338 4 c380 5 395 8 476 79 25 22 57 65 73 97 24
49 28 69 28 142 0 68 -5 93 -22 125 -28 52 -70 91 -128 119 l-46 23 36 24
c145 98 145 321 -1 428 -73 54 -125 61 -456 61 l-298 0 0 -551z m554 361 c22
-5 51 -20 65 -35 22 -21 26 -35 26 -80 0 -48 -4 -59 -31 -85 -37 -38 -102 -50
-276 -50 l-118 0 0 130 0 130 148 0 c81 0 165 -5 186 -10z m61 -456 c97 -50
99 -195 4 -246 -29 -16 -59 -18 -216 -18 l-183 0 0 146 0 146 178 -4 c155 -3
182 -6 217 -24z"/>
<path d="M7200 2308 c0 -212 5 -401 11 -438 31 -195 174 -290 434 -290 152 0
258 40 332 124 75 85 77 98 81 564 l3 412 -110 0 -110 0 -3 -397 c-3 -395 -3
-398 -26 -435 -33 -52 -91 -78 -178 -78 -73 0 -135 21 -166 56 -46 52 -48 72
-48 474 l0 380 -110 0 -110 0 0 -372z"/>
<path d="M8230 2590 l0 -90 160 0 160 0 2 -457 3 -458 113 -3 112 -3 0 461 0
460 160 0 160 0 0 90 0 90 -435 0 -435 0 0 -90z"/>
<path d="M9250 2130 l0 -550 420 0 421 0 -3 93 -3 92 -308 3 -308 2 3 148 3
147 273 5 273 5 2 88 2 87 -277 0 -278 0 0 125 0 125 300 0 300 0 0 90 0 90
-410 0 -410 0 0 -550z"/>
<path d="M7302 1279 c-73 -14 -121 -64 -122 -127 0 -53 38 -107 68 -97 7 3 11
1 8 -4 -3 -5 16 -14 42 -21 171 -44 179 -49 191 -100 7 -30 4 -39 -20 -64 -23
-25 -37 -30 -87 -34 -80 -6 -124 15 -152 73 -17 35 -25 42 -41 38 -18 -5 -20
-11 -15 -42 13 -82 130 -137 242 -113 85 17 133 64 134 129 1 81 -38 113 -175
147 -113 28 -137 45 -133 94 4 48 44 77 107 77 61 0 94 -18 114 -61 13 -26 23
-34 43 -34 24 0 26 3 20 31 -16 81 -116 129 -224 108z"/>
<path d="M10968 1281 c-160 -32 -232 -266 -126 -412 37 -51 114 -89 181 -89
29 0 46 4 42 10 -3 5 0 7 9 4 17 -6 51 10 83 39 24 22 23 23 39 -30 2 -7 10
-13 19 -13 13 0 15 19 15 125 l0 125 -99 0 c-96 0 -111 -5 -111 -35 0 -2 35
-5 77 -7 90 -3 96 -11 68 -83 -13 -35 -25 -48 -59 -64 -54 -27 -116 -27 -167
0 -117 59 -118 290 -2 366 37 25 128 23 170 -2 18 -10 40 -34 48 -52 13 -26
22 -33 45 -33 28 0 29 2 20 26 -18 47 -31 65 -42 58 -6 -4 -8 -3 -5 3 4 6 -1
17 -11 25 -39 34 -128 51 -194 39z"/>
<path d="M8089 1273 c-30 -3 -54 -22 -151 -119 -64 -62 -121 -114 -128 -114
-8 0 -11 31 -9 113 l3 112 -27 3 -27 3 0 -241 0 -241 28 3 27 3 -2 81 -1 81
45 44 c25 24 47 39 49 34 2 -6 42 -62 87 -125 79 -109 86 -115 122 -118 l38
-3 -39 53 c-21 29 -68 94 -105 144 l-67 91 101 102 c56 55 100 100 97 99 -3
-1 -21 -3 -41 -5z"/>
<path d="M8315 1272 c-3 -3 -5 -113 -5 -244 l0 -238 160 0 160 0 0 25 0 25
-130 0 -130 0 0 214 0 214 -25 4 c-13 3 -27 3 -30 0z"/>
<path d="M10233 1272 l-23 -3 0 -240 0 -239 25 0 25 0 1 108 c1 59 1 142 -1
184 -1 42 1 82 5 88 7 11 255 -353 255 -372 0 -5 16 -8 35 -8 l35 0 0 240 0
240 -25 0 -25 0 0 -197 c0 -169 -2 -195 -14 -183 -7 8 -66 96 -131 195 -64 99
-122 182 -128 186 -7 3 -22 3 -34 1z"/>
<path d="M3660 1030 l0 -240 133 0 c146 0 183 10 221 63 26 35 29 122 6 137
-8 5 -11 10 -6 10 5 0 -1 9 -14 20 -13 11 -29 20 -37 20 -21 0 -15 18 8 25 22
7 49 60 49 95 0 34 -28 79 -60 95 -22 11 -63 15 -165 15 l-135 0 0 -240z m229
191 c50 -10 71 -31 71 -74 0 -66 -41 -87 -167 -87 l-73 0 0 85 0 85 63 0 c34
-1 82 -5 106 -9z m47 -209 c-2 -2 7 -14 20 -27 28 -28 31 -66 7 -105 -21 -36
-36 -40 -150 -40 l-93 0 0 91 0 91 109 -3 c61 -2 108 -5 107 -7z"/>
<path d="M4240 1030 l0 -240 165 0 165 0 0 25 0 25 -135 0 -135 0 0 90 0 90
125 0 c118 0 125 1 125 20 0 19 -7 20 -125 20 l-125 0 0 85 0 85 135 0 c128 0
135 1 135 20 0 19 -7 20 -165 20 l-165 0 0 -240z"/>
<path d="M4770 1030 l0 -240 98 0 c208 0 281 57 290 228 5 96 -13 157 -59 201
-41 39 -91 51 -218 51 l-111 0 0 -240z m262 172 c48 -30 71 -81 72 -162 0 -49
-6 -77 -23 -114 -32 -65 -81 -88 -183 -84 l-72 3 0 188 c-1 104 1 191 4 194 3
3 41 3 86 1 60 -3 89 -10 116 -26z"/>
<path d="M5360 1030 l0 -240 30 0 30 0 0 105 0 105 88 0 c48 0 97 -3 109 -6
28 -8 45 -51 52 -133 l6 -66 34 -3 c29 -3 33 -1 26 15 -4 10 -9 47 -12 83 -6
71 -25 120 -48 120 -25 0 -27 20 -2 31 52 24 73 109 42 169 -26 51 -58 60
-215 60 l-140 0 0 -240z m265 186 c18 -8 35 -13 37 -11 2 2 5 -22 6 -54 3 -53
1 -61 -24 -80 -23 -18 -40 -21 -128 -21 l-101 0 3 90 3 90 85 0 c50 0 98 -6
119 -14z"/>
<path d="M5940 1030 l0 -240 30 0 30 0 0 240 0 240 -30 0 -30 0 0 -240z"/>
<path d="M6410 1076 c0 -180 -1 -195 -21 -220 -16 -20 -29 -26 -60 -26 -50 0
-79 27 -79 74 0 39 -11 50 -40 41 -15 -5 -20 -15 -20 -45 0 -129 215 -166 266
-45 10 26 14 83 14 225 l0 190 -30 0 -30 0 0 -194z"/>
<path d="M6690 1030 l0 -240 30 0 30 0 0 116 c0 114 0 115 23 114 12 -1 61 -2
110 -1 80 1 87 3 87 21 0 19 -7 20 -110 20 l-110 0 0 85 0 85 130 0 c123 0
130 1 130 20 0 19 -7 20 -160 20 l-160 0 0 -240z"/>
<path d="M8800 1030 l0 -240 170 0 170 0 0 25 0 25 -140 0 -141 0 3 88 3 87
128 3 c118 2 127 4 127 22 0 18 -9 20 -127 22 l-128 3 0 80 0 80 138 3 c125 2
138 4 135 20 -3 15 -22 17 -171 20 l-167 2 0 -240z"/>
<path d="M9330 1030 l0 -242 118 4 c142 5 196 24 237 86 57 86 57 243 0 318
-45 58 -75 68 -222 72 l-133 4 0 -242z m225 189 c82 -22 124 -101 112 -214 -7
-66 -27 -107 -69 -137 -27 -19 -48 -24 -120 -26 l-88 -4 0 196 0 196 63 0 c34
0 80 -5 102 -11z"/>
<path d="M9930 1029 l0 -240 28 3 c15 2 26 6 25 11 -2 4 -3 111 -3 237 l0 230
-25 0 -25 0 0 -241z"/>
</g>
</svg>
