<?xml version="1.0" encoding="utf-8"?>
<!-- Generator: Adobe Illustrator 25.0.0, SVG Export Plug-In . SVG Version: 6.00 Build 0)  -->
<svg version="1.1" id="Group_138" xmlns="http://www.w3.org/2000/svg" xmlns:xlink="http://www.w3.org/1999/xlink" x="0px" y="0px"
	 viewBox="0 0 366.2 100" style="enable-background:new 0 0 366.2 100;" xml:space="preserve">
<style type="text/css">
	.st0{fill:none;}
</style>
<rect id="Rectangle_89" x="199.4" y="36.7" class="st0" width="13.7" height="9.3"/>
<path id="Path_186" d="M0,100h81.3c10.3,0,18.7-8.4,18.7-18.7V0H0V100z M19.8,63.3L19.8,63.3l4.6,0V36.7h-4.6v-8h49.7
	c4.4,0,7.9,3.6,7.9,8c0,0,0,0,0,0v34.5h-9.5V36.7H55.7v34.5h-9.5V36.7H33.9v34.5H19.8L19.8,63.3z"/>
<path id="Path_187" d="M172.3,28.8h-49.7v8h4.6v26.6h-4.6v8h14.2V36.7H149v34.5h9.6V36.7h12.2v34.5h9.5V36.7
	C180.3,32.3,176.7,28.8,172.3,28.8C172.3,28.8,172.3,28.8,172.3,28.8z"/>
<path id="Path_188" d="M245,19.2h6.2v52.1h9.5V11.2H245V19.2z"/>
<rect id="Rectangle_90" x="232.1" y="28.8" width="9.5" height="42.5"/>
<rect id="Rectangle_91" x="270.4" y="28.8" width="9.5" height="42.5"/>
<path id="Path_189" d="M214.7,28.8h-16.9c-4.4,0-7.9,3.6-7.9,8c0,0,0,0,0,0v26.6c0,4.4,3.5,8,7.9,8c0,0,0,0,0,0h16.9
	c4.4,0,7.9-3.6,7.9-8c0,0,0,0,0,0V58H213v5.3h-13.7V54h23.2V36.7C222.6,32.3,219,28.8,214.7,28.8C214.7,28.8,214.7,28.8,214.7,28.8z
	 M213,46h-13.7v-9.3H213V46z"/>
<path id="Path_190" d="M312.8,28.8h-23.4v42.5h9.5V36.7h12.2v34.5h9.5V36.7C320.8,32.3,317.2,28.8,312.8,28.8z"/>
<path id="Path_191" d="M360.9,63.3l-11-13.3l9.5-13.3h4.6v-8h-11.4l-12.8,18.2V28.8h-9.5v42.5h9.5V52.6l15.2,18.6h11.1v-8
	L360.9,63.3z"/>
<path id="Path_949" d="M0,100h81.3c10.3,0,18.7-8.4,18.7-18.7V0H0V100z M19.8,63.3L19.8,63.3l4.6,0V36.7h-4.6v-8h49.7
	c4.4,0,7.9,3.6,7.9,8c0,0,0,0,0,0v34.5h-9.5V36.7H55.7v34.5h-9.5V36.7H34v34.5H19.8L19.8,63.3z"/>
</svg>
