<?xml version="1.0" encoding="utf-8"?>
<!-- Generator: Adobe Illustrator 25.0.0, SVG Export Plug-In . SVG Version: 6.00 Build 0)  -->
<svg version="1.1" id="Layer_1" xmlns="http://www.w3.org/2000/svg" xmlns:xlink="http://www.w3.org/1999/xlink" x="0px" y="0px"
	 viewBox="0 0 1000 223.12" style="enable-background:new 0 0 1000 223.12;" xml:space="preserve">
<style type="text/css">
	.st0{fill:#36A8CD;}
	.st1{fill:#FCFCFC;}
	.st2{fill:#FEFEFE;}
	.st3{fill:#FDFDFD;}
	.st4{fill:#BEE3EE;}
</style>
<g>
	<path d="M970.14,192.9c-2.63,6.04-6.01,8.19-11.97,7.88c-3.24-0.17-5.26-2.23-7.1-4.4c-0.79-0.94-1.44-1.26-2.52-1.18
		c-0.57,0.04-1.15,0.01-1.72,0.01c-140.88,0-281.76-0.01-422.64,0.05c-2.24,0-3.5-0.64-4.66-2.56
		c-9.03-14.99-18.25-29.88-27.34-44.83c-12.7-20.89-25.16-41.93-38.76-62.26c-3.55-5.3-6.93-10.71-10.4-16.07
		c-1.41,0.58-0.69,1.82-0.7,2.7c-0.06,13.94-0.03,27.89-0.06,41.83c0,1.03,0.29,2.1-0.29,3.08c-5.43,0-10.86,0-16.38,0
		c0.31-1.14,0.59-2.2,0.37-3.32c0.49-1,0.24-2.07,0.24-3.11c0.02-24.38,0.01-48.76,0.03-73.14c0-1.01-0.36-2.1,0.35-3.05
		c3.15,0.02,6.3,0.14,9.45,0.04c1.79-0.06,2.85,0.45,3.87,2.08c9.75,15.5,19.62,30.92,29.47,46.36c0.44,0.69,0.93,1.34,1.5,2.16
		c0.76-0.97,0.47-1.84,0.48-2.62c0.02-14.32,0.02-28.64,0.02-42.96c0-0.48,0.02-0.96-0.01-1.43c-0.19-3.55-0.19-3.54,3.58-3.55
		c4.1-0.01,8.21-0.05,12.31-0.07c0.68,0.9,0.33,1.87,0.22,2.83c-0.05,5.06-0.13,10.13-0.13,15.19c-0.01,20.37,0.04,40.74-0.06,61.11
		c-0.01,2.49,0.55,4.59,1.83,6.64c2.69,4.31,5.35,8.65,7.96,13.01c0.71,1.19,1.56,1.83,2.98,1.64c0.56-0.08,1.15-0.01,1.72-0.01
		c157.42,0,314.84,0,472.26,0.04c2.23,0,3.75-0.36,5.18-2.41c2.34-3.35,8.05-4.11,12.7-2.21c4.05,1.65,6.63,5.98,6.25,10.48
		c-0.37,4.36-3.61,7.77-8.08,9.08c-5.48,1.6-10.3-0.78-12.21-4.64c-0.98-0.58-2.06-0.29-3.09-0.29
		c-155.53-0.02-311.06-0.02-466.6,0.03c-1,0-2.51-0.96-3.08,0.88c4.29,8.04,9.36,15.61,14.03,23.42c3.13,5.25,6.47,10.37,9.71,15.55
		c0.49,0.41,1.08,0.29,1.64,0.29c11.98,0,23.96,0,35.94,0c0.56,0,1.15,0.11,1.64-0.29c4.67-4.05,9.15-8.3,13.92-12.25
		c2.22-1.84,4.4-3.83,6.41-5.91c2.95-3.06,6.09-4.8,10.63-4.78c32.9,0.13,65.8,0.03,98.7-0.01c0.86,0,1.72-0.07,2.57-0.1
		c2.08-0.37,4.18-0.15,6.27-0.16c14.68-0.02,29.36-0.01,44.04-0.02c1.13,0,2.29,0.19,3.4-0.25c1,0.48,2.07,0.24,3.1,0.23
		c24.37-0.05,48.74-0.12,73.12-0.17c23.32-0.05,46.65-0.07,69.97-0.1c2.52,0,4.63-0.23,7.02-1.95c5.38-3.86,12.4-1.59,14.17,5.4
		c0.24,0.95,0.24,1.9,0,2.85c-1.19,3.89-3.45,6.49-7.76,7.12c-3.35,0.49-5.85-0.68-7.97-3.09c-0.59-0.45-1.28-0.29-1.93-0.29
		c-14.56-0.01-29.12-0.01-43.68,0c-0.76,0-1.53-0.06-2.25,0.25c-1.04-0.08-2.07-0.23-3.11-0.23c-15.09-0.01-30.18-0.04-45.27,0
		c-35.33,0.08-70.66,0.18-105.99,0.28c-0.67,0-1.33,0.07-2,0.1c-2.08,0.37-4.18,0.15-6.27,0.16c-14.68,0.02-29.36,0.01-44.04,0.02
		c-1.13,0-2.29-0.19-3.4,0.25c-0.84-0.08-1.68-0.24-2.52-0.24c-14.96-0.01-29.91,0.02-44.87-0.04c-1.94-0.01-3.35,0.54-4.76,1.92
		c-3.65,3.56-7.5,6.91-11.27,10.34c-0.09,0.58,0.16,0.9,0.75,0.94c0.95,0.07,1.91,0.03,2.87,0.03c119.71,0,239.42,0,359.13-0.01
		c1.12,0,2.29,0.3,3.38-0.28c5.45-5.54,9.43-6.45,14.81-3.47c2.57,1.43,3.9,3.75,4.92,6.35
		C970.44,189.47,970.45,191.19,970.14,192.9z"/>
	<path d="M192.91,34.52c4.77,0.01,9.56,0.39,14.31-0.15c1.74-0.2,1.77,1.14,2.28,2c6.43,10.86,12.83,21.73,19.37,32.82
		c2.08-3.57,4.12-6.97,6.07-10.42c4.32-7.64,8.61-15.3,12.87-22.97c0.61-1.09,1.45-1.31,2.58-1.3c4.68,0.04,9.36,0.08,14.04-0.02
		c1.59-0.03,1.87,0.55,1.87,1.99c-0.04,26.19-0.05,52.38,0.02,78.57c0,1.87-0.62,2.22-2.29,2.16c-2.47-0.09-4.96,0.06-7.44,0.11
		c-2.09,0.45-4.26-0.29-6.34,0.41c-1.03-0.82-0.51-1.96-0.51-2.93c-0.04-17.1-0.03-34.2-0.59-51.59
		c-6.51,11.59-13.02,23.19-19.81,35.28c-6.61-10.82-13.01-21.3-19.55-32.01c-0.83,1.04-0.51,2.09-0.51,3.02
		c-0.02,15.1-0.01,30.21-0.02,45.31c0,1.27,0.4,2.8-1.67,2.88c-1.8-0.6-3.68,0.02-5.49-0.4c-3.06-0.05-6.12-0.1-9.17-0.14
		c-0.52-0.79-0.29-1.67-0.29-2.51c-0.01-25.87-0.01-51.73,0-77.6C192.64,36.2,192.43,35.31,192.91,34.52z"/>
	<path class="st0" d="M743.43,34.53c3.15,0.02,6.3,0.14,9.45,0.03c1.82-0.06,2.89,0.52,3.9,2.13c9.74,15.47,19.58,30.86,29.38,46.29
		c0.45,0.71,0.84,1.42,1.91,2.08c0.05-1.11,0.12-1.92,0.12-2.72c0.01-14.23,0.02-28.45-0.01-42.68c0-1.57-0.91-3.85-0.18-4.57
		c1.31-1.28,3.61-0.42,5.49-0.47c3.53-0.1,7.06-0.07,10.6-0.09c0.69,0.89,0.33,1.86,0.23,2.82c-0.05,5.45-0.13,10.89-0.13,16.34
		c-0.02,20.18-0.05,40.36,0.05,60.54c0.01,2.38-0.59,3.33-2.99,2.95c-0.75-0.12-1.55-0.15-2.29,0c-6.18,1.28-9.62-1.63-12.79-6.81
		c-8.15-13.31-16.93-26.24-25.44-39.32c-0.31-0.47-0.54-1-0.81-1.5c-1.51,0.48-0.76,1.75-0.76,2.6
		c-0.06,13.98-0.03,27.96-0.05,41.94c0,1.02,0.29,2.09-0.29,3.07c-5.39,0-10.78,0-16.17,0c0.05-1.2,0.1-2.29,0.15-3.38
		c0.52-1,0.26-2.07,0.26-3.1c0.02-24.37,0.01-48.73,0.03-73.1C743.08,36.56,742.72,35.47,743.43,34.53z"/>
	<path class="st0" d="M991.4,52.28c-0.07,1.24-0.12,2.48-0.23,3.71c-0.05,0.54,0.02,1.22-0.73,1.38c-0.68,0.14-1.05-0.39-1.39-0.83
		c-4.06-5.13-9.9-6.7-15.89-7.84c-4.33-0.83-8.69-0.91-12.87,0.89c-2.73,1.18-4.52,3.09-4.67,6.24c-0.18,3.56,1.15,6.27,4.26,8.11
		c3.7,2.2,7.87,2.66,11.98,3.28c6.13,0.91,12.14,2.17,17.61,5.26c6.03,3.4,8.88,8.85,9.95,15.44c0.28,2.28,0.26,4.55,0.01,6.83
		c-1.93,14.71-13.05,21.71-25.51,23.54c-9.14,1.34-18.06,0.27-26.73-2.83c-1.84-0.66-3.66-1.41-5.42-2.24
		c-1.62-0.77-2.74-1.67-2.25-3.98c0.47-2.19,0.13-4.56,0.14-6.85c0.66-2.88-0.09-5.82,0.41-8.71c0.07-0.85,0.14-1.7,0.25-2.91
		c2.47,2.61,4.13,5.64,7.04,7.55c9.64,6.34,19.93,7.47,30.31,2.75c5.29-2.41,7.2-6.27,4.97-11.29c-1.49-3.35-4.75-4.75-8.17-5.45
		c-5.59-1.15-11.35-1.26-16.9-2.8c-10.75-2.99-17.35-9.45-17.92-21.16c-0.39-7.99,1.41-14.99,7.53-20.46
		c4.87-4.35,10.9-5.81,17.15-6.63c3.04-0.28,6.09-0.28,9.13,0c6.49,0.84,12.7,2.57,18.43,5.84c0.45,1.32,0.26,2.65,0.11,3.98
		c-0.06,1.51-0.11,3.02-0.17,4.53C991.18,49.12,991.91,50.76,991.4,52.28z"/>
	<path class="st0" d="M71.2,0.53c19.16,1.1,35.32,8.62,48.22,22.84c8.21,9.05,13.48,19.69,16.04,31.63
		c0.33,1.53,0.92,2.51,2.18,3.42c13.92,10.04,22.98,23.39,26.63,40.17c4.46,20.53,0.36,39.43-12.61,55.92
		c-14.18,18.02-33.03,26.68-56.08,25.68c-13.44-0.59-25.33-5.22-36.22-13.21c-10.03-7.35-16.49-17.15-21.71-28.07
		c-0.08-0.17-0.2-0.34-0.22-0.52c-0.58-6.44-4.7-10.25-9.73-13.6c-10.13-6.75-16.7-16.42-21.83-27.26
		c-3.22-6.8-5.08-14.03-5.64-21.34C-1,59.78,2.46,44.31,11.95,30.52C25.02,11.54,43.26,1.88,66.1,0.53
		C67.8,0.28,69.5,0.28,71.2,0.53z"/>
	<path class="st0" d="M910.33,33.23c5.09,0.57,10.02,1.81,14.81,3.61c0.91,1.3,0.37,2.75,0.4,4.13c0.08,4.18,0.05,8.36,0.01,12.54
		c-0.01,0.87,0.45,1.96-0.74,2.52c-4.51-4.72-10.26-6.11-16.54-6.73c-4.21-0.42-8.26-0.59-12.4,0.36
		c-8.9,2.04-14.33,7.65-16.19,16.36c-1.87,8.8-1.83,17.66,2.73,25.81c3.64,6.49,9.27,10.12,16.83,10.48
		c0.97,0.46,2.05,0.04,3.04,0.37c0.41,0.01,0.81,0.02,1.22,0.03c1.18-0.43,2.47,0.11,3.64-0.4c7.45-0.19,13.72-3,18.75-8.52
		c0.23,0.04,0.65-0.27,0.66,0.19c0.12,5.81,0.53,11.63-0.2,17.43c-9.26,6.88-20.05,8.36-30.94,7.28
		c-12.23-1.21-22.41-6.75-28.6-18.1c-3.06-5.6-4.94-11.51-5.33-17.88c-0.3-4.19-0.26-8.38-0.01-12.57
		c0.39-7.56,2.67-14.56,6.94-20.77c6.32-9.2,15.5-13.77,26.33-15.39c1.97-0.29,3.95-0.51,5.92-0.75
		C903.88,33.02,907.1,32.99,910.33,33.23z"/>
	<path class="st0" d="M559.56,49.41c-6.65-0.73-13.31-0.95-19.98-0.37c-0.57,0.98-0.28,2.05-0.28,3.08
		c-0.02,20.87-0.01,41.74-0.04,62.6c0,0.99,0.47,2.1-0.42,2.98l-0.15-0.07l-0.16,0.07c-2.67-0.67-5.41,0.05-8.09-0.39
		c-1.81-0.05-3.64-0.29-5.43-0.11c-2.45,0.24-3.23-0.46-3.21-3.08c0.13-18.54,0.07-37.08,0.07-55.63c0-2.58-0.06-5.16,0.02-7.74
		c0.05-1.47-0.41-2.03-1.95-2c-4.68,0.1-9.37,0.1-14.05,0.06c-1.43-0.01-2.56,0.55-3.66,1.33c-0.42-0.05-0.78-0.28-0.77-0.68
		c0.14-5.17-0.5-10.36,0.31-15.52c2.28,0.98,4.71,0.6,7.06,0.61c14.89,0.06,29.77,0.01,44.66,0.06c2.03,0.01,3.91-0.27,5.63-1.37
		c0.24,0.1,0.65,0.04,0.66,0.41C559.9,38.92,560.36,44.18,559.56,49.41z"/>
	<path d="M290.48,34.41c4.77,0.04,9.54,0.14,14.3,0.08c1.64-0.02,2.31,0.24,2.3,2.13c-0.07,26.16-0.07,52.31,0,78.47
		c0.01,1.95-0.75,2.12-2.34,2.1c-4.96-0.08-9.93-0.02-14.89-0.02c-0.4-0.92-0.21-1.88-0.21-2.83c-0.01-25.67-0.02-51.33,0.04-77
		C289.68,36.39,288.84,35,290.48,34.41z"/>
	<path class="st0" d="M828.83,34.39c4.77,0.05,9.54,0.14,14.31,0.11c1.54-0.01,2.41,0.07,2.41,2.06c-0.07,26.16-0.06,52.32,0,78.47
		c0,1.9-0.71,2.18-2.34,2.15c-4.96-0.09-9.93-0.03-14.89-0.04c-0.56-0.88-0.29-1.86-0.29-2.79c-0.02-25.67-0.02-51.33,0.03-77
		C828.05,36.39,827.25,35.02,828.83,34.39z"/>
	<path class="st1" d="M505.12,145.9c-0.47-0.32-0.71-0.87-0.1-1.03c0.8-0.22,1.71-0.08,2.57-0.08c155.68,0,311.36,0,467.03,0.02
		c1.08,0,2.29-0.5,3.26,0.46c-156.32,0-312.63,0-468.95,0.03C507.67,145.31,506.24,144.76,505.12,145.9z"/>
	<path class="st2" d="M950.43,184.87c-0.71,0.99-1.74,0.45-2.6,0.45c-120.53,0.03-241.06,0.03-361.59,0.03
		c-0.76,0-1.65,0.23-2.27-0.08c-0.96-0.48,0.01-0.77,0.33-1.08c1.08,1.22,2.52,0.65,3.78,0.65
		C708.87,184.88,829.65,184.87,950.43,184.87z"/>
	<path class="st1" d="M290.48,34.41c-1.22,0.34-0.84,1.35-0.84,2.13c-0.02,26.51-0.01,53.01,0,79.52c0,0.37,0.14,0.74,0.21,1.11
		c-0.87-0.88-0.51-1.99-0.51-2.99c-0.02-25.74-0.03-51.48,0.05-77.22C289.4,36.18,288.17,34.39,290.48,34.41z"/>
	<path class="st1" d="M828.83,34.39c-0.85,0.49-0.61,1.33-0.61,2.05c0,26.71,0,53.43,0.01,80.14c0,0.19,0.05,0.38,0.08,0.57
		c-0.84-0.63-0.6-1.55-0.6-2.37c-0.01-26.12-0.02-52.24,0.04-78.36C827.77,35.77,826.66,34.07,828.83,34.39z"/>
	<path class="st3" d="M192.91,34.52c-0.03,19.44-0.08,38.89-0.09,58.33c0,8.1,0.07,16.2,0.11,24.3c-0.84-0.63-0.59-1.56-0.59-2.38
		c-0.01-26.27-0.01-52.53,0-78.8c0-0.47,0.05-0.93,0.1-1.4c0.01-0.06,0.13-0.13,0.2-0.14C192.73,34.43,192.82,34.49,192.91,34.52z"
		/>
	<path class="st1" d="M426.6,34.54c-0.62,1.07-0.36,2.24-0.36,3.37c-0.01,24.27-0.01,48.55-0.02,72.82c0,1.03,0.25,2.1-0.24,3.1
		c-0.02-25.66-0.04-51.31-0.04-76.97C425.94,36.05,425.67,35.11,426.6,34.54z"/>
	<path class="st1" d="M743.43,34.53c-0.48,1.2-0.29,2.45-0.29,3.69c-0.01,24.07,0,48.13-0.02,72.2c0,1.12,0.3,2.3-0.33,3.36
		c-0.01-25.54-0.02-51.09-0.01-76.63C742.78,36.24,742.42,35.19,743.43,34.53z"/>
	<path class="st1" d="M538.84,117.7c0.6-1.17,0.36-2.44,0.36-3.67c0.01-20.65,0-41.3,0.03-61.95c0-1.01-0.38-2.1,0.35-3.04
		c0,21.84,0.01,43.68-0.02,65.53C539.56,115.63,540.11,116.91,538.84,117.7z"/>
	<path class="st2" d="M647.73,172.21c0.95-0.65,2.03-0.43,3.06-0.43c16.88-0.01,33.76,0,50.65,0c-0.72,0.68-1.62,0.46-2.45,0.46
		C681.9,172.24,664.81,172.23,647.73,172.21z"/>
	<path class="st2" d="M754.01,161.38c-0.95,0.65-2.03,0.43-3.06,0.43c-16.88,0.01-33.76,0-50.65,0c0.72-0.68,1.62-0.46,2.45-0.46
		C719.84,161.35,736.92,161.37,754.01,161.38z"/>
	<path class="st1" d="M441.99,117.15c0.04-15.28,0.08-30.55,0.12-45.83c0-0.76-0.27-1.71,0.08-2.25c0.57-0.88,0.68,0.05,0.84,0.47
		c-0.74,0.92-0.42,2.01-0.42,3.03c-0.02,13.79,0,27.57-0.04,41.36C442.57,115.01,443.03,116.23,441.99,117.15z"/>
	<path class="st2" d="M758.81,117.15c0.04-15.22,0.07-30.44,0.11-45.67c0-0.76-0.23-1.64,0.07-2.26c0.52-1.08,0.68-0.02,0.93,0.32
		c-0.85,0.88-0.49,1.99-0.49,2.99c-0.02,13.8-0.01,27.59-0.04,41.39C759.39,115.01,759.84,116.23,758.81,117.15z"/>
	<path class="st2" d="M857.8,171.63c0.74-0.6,1.63-0.42,2.47-0.43c14.56-0.01,29.11-0.01,43.67,0.01c0.57,0,1.35-0.43,1.73,0.46
		C889.71,171.66,873.75,171.65,857.8,171.63z"/>
	<path class="st2" d="M568.08,184.87c-0.45,0.75-1.19,0.47-1.81,0.47c-11.86,0.02-23.72,0.02-35.59,0c-0.63,0-1.36,0.27-1.82-0.47
		C541.94,184.87,555.01,184.87,568.08,184.87z"/>
	<path class="st1" d="M924.81,56.02c0.91-0.85,0.55-1.97,0.53-2.96c-0.09-5.41,0.29-10.82-0.2-16.22c0.87,0.44,0.72,1.26,0.72,2.01
		c0.01,5.16,0.03,10.32-0.03,15.48C925.82,54.95,926.48,56.27,924.81,56.02z"/>
	<path class="st1" d="M926.35,111.4c0.61-5.61,0.18-11.24,0.23-16.85c0-0.42-0.28-0.68-0.69-0.77c0.52-0.76,1.06-0.52,1.06,0.21
		c-0.02,5.68,0.36,11.37-0.19,17.04C926.74,111.16,926.49,111.28,926.35,111.4z"/>
	<path class="st1" d="M501.78,33.95c-0.6,5.11-0.2,10.23-0.2,15.35c0,0.28,0.43,0.56,0.66,0.84c-0.73,0.47-1.09,0.08-1.09-0.6
		c0.01-4.99,0.05-9.98,0.11-14.97C501.27,34.37,501.6,34.16,501.78,33.95z"/>
	<path class="st1" d="M559.56,49.41c0.06-5,0.12-9.99,0.17-14.99c0.01-0.49-0.11-0.93-0.6-1.17c0.48-0.35,1.02-0.32,1.02,0.3
		c0.05,5.17,0.38,10.34-0.18,15.51C559.96,49.19,559.71,49.3,559.56,49.41z"/>
	<path class="st1" d="M861.46,70.13c0,4.19,0.01,8.38,0.01,12.57C860.69,78.51,860.71,74.32,861.46,70.13z"/>
	<path class="st1" d="M910.33,33.23c-3.22-0.01-6.45-0.01-9.67-0.02C903.88,32.52,907.1,32.5,910.33,33.23z"/>
	<path class="st1" d="M973.47,33.26c-3.04,0-6.09,0-9.13,0C967.39,32.51,970.43,32.51,973.47,33.26z"/>
	<path class="st1" d="M940.09,93.66c0.02,2.91,0.18,5.83-0.41,8.71C939.85,99.47,939.11,96.52,940.09,93.66z"/>
	<path class="st1" d="M530.45,117.31c2.7-0.02,5.42-0.4,8.09,0.39C535.84,117.54,533.1,118.2,530.45,117.31z"/>
	<path class="st1" d="M324.82,74.12c-0.01,2.29-0.02,4.58-0.03,6.87C324.1,78.7,324.04,76.41,324.82,74.12z"/>
	<path class="st1" d="M641.64,74.14c-0.02,2.27-0.03,4.54-0.05,6.81C640.95,78.68,640.85,76.41,641.64,74.14z"/>
	<path class="st1" d="M999.45,94.74c0-2.28-0.01-4.55-0.01-6.83C1000.2,90.19,1000.17,92.46,999.45,94.74z"/>
	<path class="st1" d="M409.43,78.12c0-2.1,0-4.19,0-6.29C410.14,73.93,410.14,76.02,409.43,78.12z"/>
	<path class="st1" d="M250.27,117.72c2.08-0.68,4.21-0.46,6.34-0.41C254.54,118.21,252.38,117.53,250.27,117.72z"/>
	<path class="st1" d="M970.14,192.9c0-1.72,0-3.43,0.01-5.15C970.91,189.47,970.92,191.19,970.14,192.9z"/>
	<path class="st3" d="M71.2,0.53c-1.7,0-3.4,0-5.1,0C67.8-0.18,69.5-0.18,71.2,0.53z"/>
	<path class="st3" d="M202.11,117.29c1.83,0.09,3.71-0.44,5.49,0.4C205.77,117.55,203.88,118.17,202.11,117.29z"/>
	<path class="st1" d="M991.4,52.28c0-1.57-0.2-3.15,0.44-4.66C991.69,49.17,992.34,50.8,991.4,52.28z"/>
	<path class="st1" d="M992,43.08c-0.04-1.33-0.07-2.66-0.11-3.98C992.77,40.41,992.64,41.74,992,43.08z"/>
	<path class="st1" d="M628.58,117.26c1.18,0,2.39-0.24,3.48,0.45C630.89,117.59,629.64,118.13,628.58,117.26z"/>
	<path class="st2" d="M907.15,102.3c-1.15,0.74-2.42,0.34-3.64,0.4C904.64,101.83,905.93,102.37,907.15,102.3z"/>
	<path class="st2" d="M921.39,167.65c0-0.95,0-1.9,0-2.85C922.06,165.75,922.06,166.7,921.39,167.65z"/>
	<path class="st1" d="M487.49,37.37c-0.07-0.94-0.15-1.89-0.22-2.83C488.33,35.4,488.08,36.37,487.49,37.37z"/>
	<path class="st1" d="M804.32,37.35c-0.08-0.94-0.15-1.88-0.23-2.82C805.14,35.39,804.92,36.35,804.32,37.35z"/>
	<path class="st2" d="M902.29,102.67c-1.03,0.03-2.09,0.29-3.04-0.37C900.27,102.33,901.35,101.91,902.29,102.67z"/>
	<path class="st0" d="M726.24,71.85C726.24,71.85,726.24,71.85,726.24,71.85c-0.23-1.78-0.43-3.57-0.7-5.35
		c-1.34-8.71-5.1-16.22-11.47-22.29c-6.9-6.57-15.34-9.85-24.7-10.95c-2.85-0.02-5.69-0.03-8.54-0.05c0,0,0,0,0,0c0,0,0,0,0,0
		c-1.78,0.26-3.57,0.46-5.33,0.79c-9.76,1.8-17.89,6.59-24.04,14.25c-6.01,7.48-9.35,16.2-9.81,25.89c-0.3,2.27-0.23,4.54-0.05,6.81
		c0.06,1.52-0.13,3.11,0.24,4.55c2.06,8.13,5.19,15.57,11.46,21.65c7.61,7.38,16.58,11.04,26.94,11.59
		c6.8,0.36,13.53-0.47,19.8-3.31c16.06-7.27,24.72-19.81,26.22-37.34C726.24,76.02,726.24,73.93,726.24,71.85
		C726.24,71.85,726.24,71.85,726.24,71.85z M706.31,89.41c-3.95,9.54-11.66,13.71-21.82,13.62c-16.57-0.09-27.74-13.53-25.36-30.38
		c1.02-7.21,3.41-13.76,9.05-18.63c11.84-10.22,30.46-6.35,37.39,7.89C709.93,70.86,710.1,80.26,706.31,89.41z"/>
	<path d="M409.43,71.83c-0.43-2.79-0.72-5.6-1.32-8.35c-1.65-7.57-5.37-14.05-10.98-19.35c-6.88-6.51-15.29-9.73-24.58-10.88
		c-2.86-0.01-5.72-0.02-8.59-0.03c-1.68,0.25-3.36,0.47-5.03,0.75c-9.95,1.71-18.18,6.62-24.4,14.39
		c-5.95,7.43-9.29,16.12-9.72,25.76c-0.3,2.29-0.24,4.58-0.03,6.87c0.93,19.73,15.71,34.79,34.58,37.42c0.79-0.04,1.56,0,2.31,0.2
		c0.23,0.03,0.46,0.1,0.67,0.23c2.04,0.01,4.08,0.01,6.12,0.02c0.36-0.2,0.74-0.26,1.13-0.28c0.78-0.13,1.58-0.13,2.37-0.11
		c8.96-1.32,16.91-4.84,23.63-10.95c8.67-7.88,12.83-17.89,13.82-29.39C409.66,76.02,409.66,73.93,409.43,71.83z M390.1,88.02
		c-3.32,9.62-11.43,15.04-22.01,15.07c-11.5,0.04-20.53-5.96-24.25-16.12c-1.23-3.35-1.82-6.81-1.72-10.39
		c0.16-8.72,2.62-16.51,9.23-22.61c9.39-8.67,31.02-8.75,38.35,9.95C392.8,71.84,392.87,79.99,390.1,88.02z"/>
	<path class="st0" d="M632.64,116.47c-0.98-0.96-1.57-2.14-2.14-3.33c-4.89-10.17-9.7-20.38-14.68-30.51
		c-0.81-1.64-0.1-2.16,1.03-2.86c8.55-5.36,12.35-13.2,11.67-23.14c-0.59-8.57-4.01-15.4-12.24-19.37
		c-5.26-2.54-10.83-3.27-16.45-4.03c-4.95,0.01-9.91,0.02-14.86,0.03c0,0,0,0,0,0c0,0,0,0,0,0c-1.71,0.04-3.42,0.09-5.13,0.13
		c-1.11,0.56-2.29,0.47-3.47,0.41c0,0,0,0,0,0h0c-1.32,0.52-3.47-0.68-3.46,2.38c0.1,26.25,0.08,52.5,0.02,78.74
		c0,1.75,0.48,2.31,2.25,2.27c4.77-0.11,9.54-0.04,14.32-0.04c0.04-9.69,0.05-19.38,0.13-29.07c0.01-0.96-0.52-2.09,0.47-2.91
		c0.2,0,0.41-0.01,0.61-0.01c2.99,0.2,6.02-0.36,8.99,0.44c0,0,0,0,0,0h0c3.97,9.15,7.81,18.36,12.02,27.4
		c0.89,1.9,0.93,5.45,4.75,4.73c1.68-0.66,3.42-0.48,5.16-0.41c0,0,0,0,0,0c0,0,0,0,0,0c2.32-0.02,4.64-0.03,6.96-0.05
		c1.12,0.48,2.38-0.19,3.48,0.45C632.83,117.56,633.48,117.29,632.64,116.47z M604.13,71.23c-4.3,1.23-8.7,0.79-13.09,0.64
		c-1.37-0.05-1.46-0.87-1.45-1.92c0.02-3.34,0.01-6.68,0.01-10.02c0-3.25,0.07-6.49-0.03-9.73c-0.04-1.47,0.5-1.96,1.92-2.12
		c4.12-0.46,8.2-0.23,12.21,0.67c6.06,1.35,8.74,4.44,8.85,9.88C612.7,65.48,610.01,69.55,604.13,71.23z"/>
	<path class="st2" d="M5.72,69.45c0-31.57,22.7-58.07,53.88-62.91c32.66-5.07,64.79,17.74,70.71,50.27
		c0.45,2.46,1.37,4.15,3.53,5.68c18.18,12.93,27.1,30.74,26.65,52.95c-0.61,29.65-23.76,55.11-53.15,58.98
		c-30.6,4.03-59.47-15.68-67.03-45.85c-0.45-1.79-1.2-2.98-2.84-3.93C17.45,113.01,5.72,92.55,5.72,69.45z"/>
	<path class="st0" d="M57.5,147.09c8.93,0,17.88,0,26.83-0.01c0.85,0,1.39,0.52,1.99,1.01c2.21,1.83,4.41,3.67,6.66,5.45
		c1.11,0.88,1.69,1.82,1.8,3.34c0.19,2.77,2.68,4.63,5.37,4.38c2.78-0.26,4.57-2.4,4.46-5.32c-0.11-2.78-2.28-5.12-5-4.73
		c-2,0.29-3.33-0.3-4.49-1.62c-5.08-5.74-11.36-7.51-18.93-6.81c-6.35,0.59-12.81-0.04-19.21,0.19c-2.95,0.11-4.41-1.04-5.16-3.95
		c1.75-0.09,3.42-0.23,5.09-0.25c11.66-0.17,23.32-0.3,34.98-0.48c1.66-0.03,3.01,0.19,4.34,1.51c1.96,1.94,5.17,1.55,6.95-0.45
		c1.78-2,1.67-5.15-0.26-7.02c-1.94-1.89-5.01-2.04-6.94,0.02c-1.22,1.3-2.5,1.51-4.06,1.53c-13.38,0.17-26.76,0.37-40.14,0.55
		c-0.57,0.01-1.16,0.07-1.72-0.03c-1.49-0.25-1.61-1.61-1.71-2.64c-0.14-1.44,1.2-0.89,1.9-0.9c8.7-0.04,17.41-0.06,26.11,0
		c1.73,0.01,3.07-0.39,4.4-1.57c2.57-2.28,5.34-4.34,7.98-6.54c1.68-1.41,3.23-2.73,5.7-2.84c2.31-0.11,3.98-2.99,3.65-5.38
		c-0.37-2.66-2.72-4.52-5.5-4.34c-2.53,0.16-4.94,2.41-4.52,4.92c0.37,2.21-0.89,2.94-2.04,4.19c-5.27,5.73-11.53,8.01-19.39,7.15
		c-5.86-0.64-11.85-0.19-17.78-0.09c-1.71,0.03-2.52-0.42-2.9-2.21c-6.5-30.91,15.32-61.35,46.71-65.09
		c34.26-4.08,63.35,23.49,61.15,57.97c-1.64,25.71-22.51,47.48-48.13,50.14c-18.84,1.96-34.52-4.33-47.24-18.23
		C58.03,148.5,57.33,148.15,57.5,147.09z"/>
	<path class="st0" d="M124.45,56.31c-45.76-18.77-90.39,17.76-87.06,60.53c-13.87-7.31-27.93-28.61-25.03-52.55
		C16,34.21,38.42,13.54,68.52,12.92C97.09,12.34,118.9,32.48,124.45,56.31z"/>
	<path class="st2" d="M132.01,79.33c-9.42-6.49-19.77-9.63-31.27-9.27c-21.85,0.69-41.91,17.57-46.16,39.04
		c-0.27,1.37-0.54,2.75-0.91,4.67c-1.72-15.27,6.91-35.34,26.12-44.48c17.53-8.35,39.35-4.58,52.86,9.4
		C132.77,79.24,132.6,79.49,132.01,79.33z"/>
	<path class="st4" d="M132.01,79.33c0.21-0.21,0.42-0.42,0.63-0.63c0.99,0.57,1.68,1.39,2.5,2.99
		C133.68,80.81,132.71,80.29,132.01,79.33z"/>
	<path class="st2" d="M20.04,70.6C18.77,49.49,31.41,30.07,51.1,22.55c18.76-7.17,41.72-1.64,53.28,13.03
		C88.13,24.19,70.66,21.15,52.2,28.81C33.7,36.49,23.5,51.04,20.04,70.6z"/>
</g>
</svg>
