<svg id="Layer_1" data-name="Layer 1" xmlns="http://www.w3.org/2000/svg" xmlns:xlink="http://www.w3.org/1999/xlink" viewBox="0 0 1660.79 283.46"><defs><style>.cls-1{fill:none;}.cls-2{clip-path:url(#clip-path);}.cls-3{fill:#fff;}</style><clipPath id="clip-path" transform="translate(-28.69 -224.35)"><rect class="cls-1" width="1700.79" height="708.66"/></clipPath></defs><title>Logo Noorderpoort LArge</title><g class="cls-2"><path class="cls-3" d="M28.69,241.18H64.46l69.74,116c-.6-11.42-.9-22.24-.9-31V241.18h44.19V444.39H141.42L71.67,329c.91,11.72,1.21,22.84,1.21,31.86v83.57H28.69Z" transform="translate(-28.69 -224.35)"/><path class="cls-3" d="M202.46,352.1c0-43,28.26-68.84,67-68.84s67,25.86,67,68.84v27.36c0,43-28.25,68.84-67,68.84s-67-25.86-67-68.84Zm67,59.82c18,0,24.35-13.22,24.35-34V353.6c0-20.74-6.31-34-24.35-34-18.34,0-24.35,13.22-24.35,34V378c0,20.74,6.31,34,24.35,34" transform="translate(-28.69 -224.35)"/><path class="cls-3" d="M361.19,352.1c0-43,28.26-68.84,67-68.84s67,25.86,67,68.84v27.36c0,43-28.26,68.84-67,68.84s-67-25.86-67-68.84Zm67,59.82c18,0,24.35-13.22,24.35-34V353.6c0-20.74-6.31-34-24.35-34-18.34,0-24.35,13.22-24.35,34V378c0,20.74,6.31,34,24.35,34" transform="translate(-28.69 -224.35)"/><path class="cls-3" d="M520.38,344c0-36.38,28-60.73,63.73-60.73a97.83,97.83,0,0,1,29.76,4.82L605.75,323a82.94,82.94,0,0,0-21.34-3.31c-13.52,0-21.34,10.22-21.34,24.35v100.4H520.38Z" transform="translate(-28.69 -224.35)"/><path class="cls-3" d="M623.35,349.4c0-44.49,30.36-66.14,62.23-66.14,9.62,0,20.14,3.61,26.45,7.22V224.35h43V382.47c0,41.47-30.37,65.83-65.84,65.83s-65.83-24.36-65.83-65.83Zm65.83,62.52c13.23,0,22.85-10.22,22.85-31V325.05c-7.22-3-15-5.41-22.54-5.41-13.23,0-23.45,8.41-23.45,31.26V381c0,20.74,9.92,31,23.14,31" transform="translate(-28.69 -224.35)"/><path class="cls-3" d="M780.73,349.7c0-43.29,28.56-66.44,64-66.44s64.33,24.95,64.33,60.73v34.26H823.42v2.11c0,21.34,9.31,31.56,27.65,31.56,15,0,29.16-3,43-7.51L902.47,439c-17.13,6.31-30.36,9.32-51.4,9.32-42.08,0-70.34-23.75-70.34-67.94Zm85.37-1.5V344c0-13.53-7.81-24.35-21.34-24.35-12.63,0-21.34,10.52-21.34,24.35v4.21Z" transform="translate(-28.69 -224.35)"/><path class="cls-3" d="M934.81,344c0-36.38,28-60.73,63.73-60.73a97.88,97.88,0,0,1,29.76,4.82L1020.17,323a82.94,82.94,0,0,0-21.34-3.31c-13.52,0-21.34,10.22-21.34,24.35v100.4H934.81Z" transform="translate(-28.69 -224.35)"/><path class="cls-3" d="M1081.81,507.81h-43V349.1c0-41.49,30.35-65.84,66.13-65.84,35.47,0,65.83,24.35,65.83,65.84v33.06c0,44.49-30.36,66.14-62.22,66.14a58.42,58.42,0,0,1-26.76-7.22Zm22.85-95.89c12.92,0,23.15-8.41,23.15-31.26V350.6c0-20.74-9.92-31-22.85-31-13.23,0-23.15,10.22-23.15,31v55.91c7.51,3,15,5.41,22.85,5.41" transform="translate(-28.69 -224.35)"/><path class="cls-3" d="M1494.08,344c0-36.38,28-60.73,63.73-60.73a97.78,97.78,0,0,1,29.76,4.82L1579.46,323a83.08,83.08,0,0,0-21.35-3.31c-13.53,0-21.33,10.22-21.33,24.35v100.4h-42.7Z" transform="translate(-28.69 -224.35)"/><polygon class="cls-3" points="1592.55 91.38 1573.32 91.38 1567.01 62.83 1592.55 62.83 1592.55 20.44 1635.55 14.73 1635.55 62.83 1660.79 62.83 1660.79 91.38 1635.55 91.38 1635.55 220.04 1592.55 220.04 1592.55 91.38"/><path class="cls-3" d="M1405.7,280c-40.26,0-61.06,28.34-72.12,42.5-20.79-31.53-40.7-42.5-70.34-42.5-42,0-74.33,32.45-74.33,83.17,0,51.17,34.95,81.79,69.9,81.79,33.18,0,54-15.54,75.21-45.69,25.23,42.95,48.23,45.69,70.35,45.69,35.4,0,71.23-30.16,71.23-84.53v-.92c0-48.89-33.18-79.51-69.9-79.51M1263.11,404.45h-.47c-18.45,0-36-18.62-36-40.77.47-27.68,12.78-44.29,36-44.29,24.13,0,32.64,18.62,49.2,46.3-16.56,25.16-28.86,38.76-48.73,38.76m140.51.32c-24.1,1.07-33.38-17.16-51.07-44.07,15.5-25.88,27.21-40,47.07-40.89l.47,0c18.43-.82,36.7,17,37.62,39.13.68,27.68-10.93,44.82-34.09,45.85" transform="translate(-28.69 -224.35)"/></g></svg>