<svg id="Layer_2" data-name="Layer 2" xmlns="http://www.w3.org/2000/svg" viewBox="0 0 2493.31 283.46"><defs><style>.cls-1{fill:#fff;}</style></defs><path class="cls-1" d="M146.74,426.58h-73c-21.8,0-36.06-15.1-36.06-36.06v-73c0-21.81,15.1-36.07,36.06-36.07v99.8c0,5.87,3.36,9.23,9.23,9.23h54.51c5.87,0,9.23-3.36,9.23-9.23V326.78c0-5.87-3.36-9.22-9.23-9.22H83V281.49h63.74c21.8,0,36.06,15.1,36.06,36.07v73C183.64,412.32,168.54,426.58,146.74,426.58Z" transform="translate(-37.71 -225.3)"/><path class="cls-1" d="M200.41,426.58V225.3h36.06V425.74l-36.06.84Z" transform="translate(-37.71 -225.3)"/><path class="cls-1" d="M364,426.58H291c-21.81,0-36.07-15.1-36.07-36.06v-73c0-21.81,15.1-36.07,36.07-36.07h63.73v36.07H300.21c-5.87,0-9.22,3.35-9.22,9.22v54.51c0,5.87,3.35,9.23,9.22,9.23h54.51c5.87,0,9.23-3.36,9.23-9.23V226.14H400V389.68C400,412.32,386.59,426.58,364,426.58Z" transform="translate(-37.71 -225.3)"/><path class="cls-1" d="M453.68,426.58c-21.8,0-36.06-15.1-36.06-36.06v-73c0-21.81,15.1-36.07,36.06-36.07h73c21.8,0,36.06,15.1,36.06,36.07v54.51H462.07V336h63.74v-9.23c0-5.87-3.36-9.22-9.23-9.22H462.07c-5.87,0-9.22,3.35-9.22,9.22v54.51c0,5.87,3.35,9.23,9.22,9.23h99.8v36.06Z" transform="translate(-37.71 -225.3)"/><path class="cls-1" d="M689.35,426.58V325.94c0-5.87-3.36-9.22-9.23-9.22H616.38v109H580.32V280.66h109c21.8,0,36.06,15.09,36.06,36.06v109H689.35Z" transform="translate(-37.71 -225.3)"/><path class="cls-1" d="M853.72,426.58h-73c-21.81,0-36.06-15.1-36.06-36.06V226.14h36.06V381.29c0,5.87,3.35,9.23,9.22,9.23H844.5c5.87,0,9.22-3.36,9.22-9.23V326.78c0-5.87-3.35-9.22-9.22-9.22H789.15V281.49h63.73c21.81,0,36.07,15.1,36.07,36.07v73C890.62,412.32,875.53,426.58,853.72,426.58Z" transform="translate(-37.71 -225.3)"/><path class="cls-1" d="M943.46,426.58c-21.81,0-36.06-15.1-36.06-36.06v-109h36.06v99.8c0,5.87,3.35,9.23,9.22,9.23h63.74v-109h36.06V427.42h-109Z" transform="translate(-37.71 -225.3)"/><path class="cls-1" d="M1143.9,335.17v-9.23c0-5.87-3.36-9.22-9.23-9.22h-26.84v109h-36.06V280.66h73c21.81,0,36.07,15.09,36.07,36.06v18.45Z" transform="translate(-37.71 -225.3)"/><path class="cls-1" d="M1387.1,426.58c-21.8,0-36.06-15.1-36.06-36.06v-73c0-21.81,15.1-36.07,36.06-36.07h73c21.8,0,36.06,15.1,36.06,36.07v54.51h-99.8V336h63.74v-9.23c0-5.87-3.36-9.22-9.23-9.22h-54.51c-5.87,0-9.23,3.35-9.23,9.22v54.51c0,5.87,3.36,9.23,9.23,9.23h99.8v36.06Z" transform="translate(-37.71 -225.3)"/><path class="cls-1" d="M1586.7,335.17v-9.23c0-5.87-3.35-9.22-9.22-9.22h-26.84v109h-36.06V280.66h73c21.81,0,36.06,15.09,36.06,36.06v18.45Z" transform="translate(-37.71 -225.3)"/><path class="cls-1" d="M1336,318.39c0-21.8-15.1-36.06-36.07-36.06h-73c-21.8,0-36.06,15.1-36.06,36.06v73c0,21.8,15.1,36.06,36.06,36.06h63.74V391.36h-54.51c-5.87,0-9.23-3.36-9.23-9.23V327.62c0-5.87,3.36-9.23,9.23-9.23h54.51c5.87,0,9.22,3.36,9.22,9.23V447.55h-73v35.22h109V318.39Z" transform="translate(-37.71 -225.3)"/><path class="cls-1" d="M1713.34,299.94V428.26h-18.45V263c0-21.8,15.1-36.06,36.06-36.06h18.45v17.61H1736c-14.25,0-22.64,8.39-22.64,23.49v13.41h45.29v18.45Z" transform="translate(-37.71 -225.3)"/><path class="cls-1" d="M1854.23,336V323.43c0-14.26-8.38-23.49-22.64-23.49H1790.5V428.26h-18.45V280.66h63.73c21.81,0,36.07,15.09,36.07,36.06v18.45h-17.62Z" transform="translate(-37.71 -225.3)"/><path class="cls-1" d="M1901.2,253.82c-7.55,0-13.42-6.71-13.42-13.42,0-7.55,6.71-14.26,13.42-14.26a14.14,14.14,0,0,1,14.26,14.26C1913.78,248,1908.75,253.82,1901.2,253.82ZM1892,426.58V280.66h18.45V426.58Z" transform="translate(-37.71 -225.3)"/><path class="cls-1" d="M1975,426.58c-21.8,0-36.06-15.1-36.06-36.06V263h18.45v18.45h63.74v17.62h-63.74v87.22c0,14.25,8.38,22.64,22.64,22.64h41.1v18.45H1975v-.84Z" transform="translate(-37.71 -225.3)"/><path class="cls-1" d="M2139.38,426.58H2074.8c-21.81,0-36.06-15.1-36.06-36.06v-73c0-21.81,15.09-36.07,36.06-36.07h5v18.45c-14.26,0-22.64,8.39-22.64,23.49v63.73c0,14.26,8.38,22.65,22.64,22.65h54.51c14.26,0,22.65-8.39,22.65-22.65V323.43c0-14.26-8.39-23.49-22.65-23.49h-46.12V281.49h50.32c21.8,0,36.06,15.1,36.06,36.07v73C2176.28,413.16,2162,426.58,2139.38,426.58Z" transform="translate(-37.71 -225.3)"/><path class="cls-1" d="M2349,426.58V321.75c0-14.26-8.39-23.48-23.48-23.48h-47.81V426.58H2259.3V299.94h-47V428.26h-18.45V280.66h136.7c21.8,0,36.06,15.09,36.06,36.06v109H2349Z" transform="translate(-37.71 -225.3)"/><line class="cls-1" x1="1621.95" y1="57.87" x2="1621.95" y2="281.79"/><polygon class="cls-1" points="1622.79 281.79 1619.44 281.79 1619.44 57.87 1622.79 57.87 1622.79 281.79"/><path class="cls-1" d="M2436.26,304.14c-2.52-5-9.23-18.45-11.74-22.65-9.23-13.41-22.65-13.41-34.39-8.38v1.67c10.07-1.67,17.61,5.88,22.65,10.91h0c6.71,9.22,11.74,26,21,37.74,9.23,13.41,26,10.06,35.23,7.54V329.3c-9.23,1.67-15.94-.84-24.32-11.74-1.68-2.52-3.36-6.71-5-9.23l-3.35-4.19Z" transform="translate(-37.71 -225.3)"/><path class="cls-1" d="M2521,360.33c.84-.84,0-2.52-.84-3.36-5-2.51-11.74-2.51-16.77-3.35-10.06-.84-22.64,2.51-29.35,10.9-2.52,2.52-3.36,3.35-3.36,7.55,0,1.68,8.39-5,9.23-5.87,10.06-5.87,23.48-5,35.22-5C2517.61,362,2519.29,363.68,2521,360.33Z" transform="translate(-37.71 -225.3)"/><path class="cls-1" d="M2444.65,366.2c3.35,0,16.77,1.67,16.77,6.71,0-2.52-1.68-6.71-3.36-9.23-7.54-6.71-26.83-7.55-31.86,1.68C2430.39,369.55,2438.77,365.36,2444.65,366.2Z" transform="translate(-37.71 -225.3)"/><path class="cls-1" d="M2445.48,388.84c.84-.84,1.68-.84,2.52-2.51h5c2.52,0,3.36,0,5-2.52,1.68-3.36-24.32-8.39-21.8.84C2437.94,388,2440.45,390.52,2445.48,388.84Z" transform="translate(-37.71 -225.3)"/><path class="cls-1" d="M2465.61,385.49c-6.71,0-10.9,27.67,2.52,23.48,1.67-.84,5.87-2.52,5-5.87s-5-2.52-5.87-5.87C2467.29,393,2471.48,389.68,2465.61,385.49Z" transform="translate(-37.71 -225.3)"/><path class="cls-1" d="M2503.35,384.65c1.68,0,3.36,0,3.36-2.52s-5-3.35-6.71-5c-2.52-.84-18.45,1.68-16.78,6.71.84,1.68,3.36,2.52,5.87,3.35,1.68,2.52,3.36,3.36,7.55,3.36,1.68-.84,2.52-2.52,3.36-5C2500.84,383.81,2500.84,383.81,2503.35,384.65Z" transform="translate(-37.71 -225.3)"/><path class="cls-1" d="M2498.32,422.39c-10.9-.84-21.81-1.68-31.87-2.52-5,0-8.39,0-13.42,1.68-3.35.84-7.55,2.51-10.06-.84-1.68,1.68-1.68,3.35,0,5.87,0,0,5-1.68,6.71-1.68,3.35.84,5.87,0,8.38-.84,7.55-1.67,15.94-.83,23.49,0C2484.9,423.23,2497.48,426.58,2498.32,422.39Z" transform="translate(-37.71 -225.3)"/><path class="cls-1" d="M2485.74,430.77c-2.52-2.51-6.71-.83-10.06-.83-5,0-9.23,0-13.42.83a20.19,20.19,0,0,0-10.07,5.87c.84,0,.84.84,1.68.84,1.68,1.68,6.71,1.68,8.39,1.68,5,0,8.38.84,11.74.84C2479,440,2493.29,436.64,2485.74,430.77Z" transform="translate(-37.71 -225.3)"/><path class="cls-1" d="M2457.23,269.75c2.51-2.51,10.06-11.74,11.74-15.09,6.71-10.07,1.67-19.29-5-26.84l-.83.84c5,6.71,1.67,14.26-.84,18.45h0c-5,7.55-14.26,16.77-19.29,25.16-6.71,10.06.84,21.8,5.87,26.84l.84-.84c-3.36-5.87-5-10.91.84-21,1.67-2.52,2.51-5,5-6.71l1.68-.84Z" transform="translate(-37.71 -225.3)"/><path class="cls-1" d="M2484.9,283.17c3.36-3.35,15.94-14.26,18.45-17.61,10.07-13.42,6.71-25.16-.84-35.22l-.84.83c5,9.23-.83,18.45-5.87,24.33h0c-7.54,8.38-22.64,18.45-31,29.35-10.06,11.74-3.35,27.67,1.68,36.06l1.68-.84c-5-8.38-3.36-15.93,5.87-26a54.27,54.27,0,0,1,7.55-6.71l3.35-4.19Z" transform="translate(-37.71 -225.3)"/><path class="cls-1" d="M2501.67,300.78c3.36-1.67,15.1-7.55,17.62-10.06,10.06-7.55,9.22-17.61,5.87-27.68h-.84c1.67,7.55-3.36,14.26-8.39,17.62h0c-6.71,5.87-21,10.06-29.35,16.77-10.07,7.55-7.55,21-5.87,27.67h.84c-1.68-7.54,0-11.74,9.22-18.45,1.68-1.67,5-2.51,7.55-3.35l3.35-2.52Z" transform="translate(-37.71 -225.3)"/><path class="cls-1" d="M2510.9,311.69c1.68-.84,9.22-3.36,10.9-3.36,7.55-2.52,8.39-7.55,9.23-10.9h-.84c-.84,2.51-5,5.87-8.39,7.55h0a170.42,170.42,0,0,0-18.45,7.54,12.37,12.37,0,0,0-8.39,10.91h.84c.84-2.52,2.52-5,8.39-7.55,1.68-.84,2.52-.84,5-1.68l1.68-2.51Z" transform="translate(-37.71 -225.3)"/><path class="cls-1" d="M2481.55,469.35c0-2.51-.84-7.55-3.36-9.22-3.35,0-.84,7.54-.84,8.38a91.12,91.12,0,0,1,.84,15.1c-2.51-2.52-3.35-10.9-5-15.1-.84-2.51,0-10.9-3.35-9.22,0-1.68.83-9.23-.84-10.07-1.68-1.67-2.52,3.36-3.36,5a69.59,69.59,0,0,0,.84,29.35,6.31,6.31,0,0,0,1.68,3.35c.84,0,3.35.84,2.51,0v-5c0-3.35-.83-7.55-.83-10.9,1.67,7.55,3.35,15.1,6.7,21.8.84,3.36,5,5,3.36.84,0-6.71-.84-13.42-.84-18.45C2482.38,474.38,2482.38,470.19,2481.55,469.35Z" transform="translate(-37.71 -225.3)"/><path class="cls-1" d="M2509.22,321.75c-1.68,0-7.55,0-8.38,1.68,0-1.68.83-2.52,2.51-3.36,3.36-1.68,13.42-.84,14.26,3.36C2515.09,325.1,2511.74,321.75,2509.22,321.75Z" transform="translate(-37.71 -225.3)"/><path class="cls-1" d="M1694.05,466h7.55v34.38h16.77v6.71h-24.32Z" transform="translate(-37.71 -225.3)"/><path class="cls-1" d="M1724.24,481.93c0-10.9,7.55-16.77,15.94-16.77s15.93,5.87,15.93,16.77v9.23c0,10.9-7.55,16.77-15.93,16.77s-15.94-5.87-15.94-16.77Zm15.94,18.45c5,0,8.38-2.51,8.38-10.9v-8.39c0-7.54-3.35-10.9-8.38-10.9s-8.39,2.52-8.39,10.9v8.39C1731.79,497.87,1735.15,500.38,1740.18,500.38Z" transform="translate(-37.71 -225.3)"/><path class="cls-1" d="M1762.82,481.93c0-10.9,6.71-16.77,15.94-16.77a43.69,43.69,0,0,1,11.74,1.68l-1.68,5.87a42.47,42.47,0,0,0-10.9-1.68c-5.87,0-9.23,2.52-9.23,10.9v8.39c0,7.55,3.36,10.9,9.23,10.9,2.51,0,5,0,6.71-.84V490.32h-5v-5.87h10.91v21c-3.36.84-9.23,2.52-13.42,2.52-9.23,0-15.94-5.87-15.94-16.77l1.68-9.23Z" transform="translate(-37.71 -225.3)"/><path class="cls-1" d="M1801.4,466H1809v41.09h-7.55Z" transform="translate(-37.71 -225.3)"/><path class="cls-1" d="M1816.49,498.7a49.08,49.08,0,0,0,10.91,1.68c3.35,0,6.71-1.68,6.71-5.87,0-8.39-17.62-6.71-17.62-19.29,0-6.71,5.88-10.9,13.42-10.9a25.82,25.82,0,0,1,10.91,2.52l-1.68,5.87c-3.36-.84-6.71-1.68-9.23-1.68-3.35,0-5.87,1.68-5.87,5,0,8.39,17.61,5.87,17.61,19.29,0,7.55-6.7,11.74-14.25,11.74a24.43,24.43,0,0,1-11.74-2.51Z" transform="translate(-37.71 -225.3)"/><path class="cls-1" d="M1855.91,471.87h-10.06v-6.71h27.67v6.71h-10.06v34.38h-7.55V471.87Z" transform="translate(-37.71 -225.3)"/><path class="cls-1" d="M1880.23,466h7.55v41.09h-7.55Z" transform="translate(-37.71 -225.3)"/><path class="cls-1" d="M1924.68,505.41a49.4,49.4,0,0,1-11.74,1.68c-9.23,0-15.93-5.87-15.93-16.77v-9.23c0-10.9,6.7-16.77,15.93-16.77a65.69,65.69,0,0,1,11.74,1.68l-.84,6.71a36,36,0,0,0-10.06-1.68c-5.87,0-9.23,2.52-9.23,10.9v8.39c0,7.55,3.36,10.9,9.23,10.9a36,36,0,0,0,10.06-1.68Z" transform="translate(-37.71 -225.3)"/><path class="cls-1" d="M1944,498.7a49,49,0,0,0,10.9,1.68c3.36,0,6.71-1.68,6.71-5.87,0-8.39-17.61-6.71-17.61-19.29,0-6.71,5.87-10.9,13.42-10.9a25.78,25.78,0,0,1,10.9,2.52l-1.68,5.87c-3.35-.84-6.71-1.68-9.22-1.68-3.36,0-5.87,1.68-5.87,5,0,8.39,17.61,5.87,17.61,19.29,0,7.55-6.71,11.74-14.26,11.74a24.46,24.46,0,0,1-11.74-2.51Z" transform="translate(-37.71 -225.3)"/><path class="cls-1" d="M1975,481.93c0-10.9,7.55-16.77,15.93-16.77s15.94,5.87,15.94,16.77v9.23c0,10.9-7.55,16.77-15.94,16.77S1975,502.06,1975,491.16Zm15.93,18.45c5,0,8.39-2.51,8.39-10.9v-8.39c0-7.54-3.35-10.9-8.39-10.9s-8.38,2.52-8.38,10.9v8.39C1982.55,497.87,1985.9,500.38,1990.93,500.38Z" transform="translate(-37.71 -225.3)"/><path class="cls-1" d="M2015.26,466h7.54v34.38h16.78v6.71h-24.32Z" transform="translate(-37.71 -225.3)"/><path class="cls-1" d="M2045.45,466H2053v26.83c0,5.87,2.52,8.39,7.55,8.39s7.55-3.35,7.55-8.39V466h7.55v26.83c0,8.39-6.71,14.26-15.1,14.26s-15.09-5.87-15.09-14.26V466Z" transform="translate(-37.71 -225.3)"/><path class="cls-1" d="M2091.57,471.87h-10.06v-6.71h27.67v6.71h-10.06v34.38h-7.55V471.87Z" transform="translate(-37.71 -225.3)"/><path class="cls-1" d="M2115.89,466h7.55v41.09h-7.55Z" transform="translate(-37.71 -225.3)"/><path class="cls-1" d="M2131,481.93c0-10.9,7.55-16.77,15.93-16.77s15.94,5.87,15.94,16.77v9.23c0,10.9-7.55,16.77-15.94,16.77S2131,502.06,2131,491.16Zm15.93,18.45c5,0,8.39-2.51,8.39-10.9v-8.39c0-7.54-3.35-10.9-8.39-10.9s-8.38,2.52-8.38,10.9v8.39C2138.54,497.87,2141.89,500.38,2146.92,500.38Z" transform="translate(-37.71 -225.3)"/><path class="cls-1" d="M2171.24,466h5.88l15.93,26V466h7.55v41.09h-5.87l-15.94-26v27.68h-7.55V466Z" transform="translate(-37.71 -225.3)"/><path class="cls-1" d="M2209,498.7a49.08,49.08,0,0,0,10.91,1.68c3.35,0,6.71-1.68,6.71-5.87,0-8.39-17.62-6.71-17.62-19.29,0-6.71,5.87-10.9,13.42-10.9a25.75,25.75,0,0,1,10.9,2.52l-1.67,5.87c-3.36-.84-6.71-1.68-9.23-1.68-3.35,0-5.87,1.68-5.87,5,0,8.39,17.61,5.87,17.61,19.29,0,7.55-6.71,11.74-14.25,11.74a24.47,24.47,0,0,1-11.75-2.51Z" transform="translate(-37.71 -225.3)"/><path class="cls-1" d="M2374.2,416.52c0-6.71,3.35-11.74,10.9-11.74,6.71,0,10.9,5.87,10.9,11.74,0,6.71-3.35,11.74-10.9,11.74S2374.2,423.23,2374.2,416.52Zm19.29,0c0-5.87-2.52-9.23-8.39-9.23s-8.39,3.36-8.39,9.23,2.52,9.22,8.39,9.22C2390.13,425.74,2393.49,422.39,2393.49,416.52Zm-5.87,6.71-1.68-5h-.84v5h-2.51V411.48h5a3.07,3.07,0,0,1,3.35,3.36,6.31,6.31,0,0,1-1.68,3.35l1.68,5Zm-2.52-6.71a1.68,1.68,0,1,0,0-3.36h-1.68v3.36Z" transform="translate(-37.71 -225.3)"/></svg>