<?xml version="1.0" standalone="no"?>
<!DOCTYPE svg PUBLIC "-//W3C//DTD SVG 20010904//EN"
 "http://www.w3.org/TR/2001/REC-SVG-20010904/DTD/svg10.dtd">
<svg version="1.0" xmlns="http://www.w3.org/2000/svg"
 width="820.000000pt" height="196.000000pt" viewBox="0 0 820.000000 196.000000"
 preserveAspectRatio="xMidYMid meet">

<g transform="translate(0.000000,196.000000) scale(0.100000,-0.100000)"
fill="#000000" stroke="none">
<path d="M803 1945 c-41 -18 -67 -66 -59 -111 8 -40 57 -84 95 -84 31 0 71
-36 71 -64 0 -27 -46 -66 -77 -66 -38 0 -89 -33 -108 -69 -8 -17 -15 -51 -15
-77 0 -40 5 -51 38 -84 28 -28 48 -39 85 -44 35 -5 52 -14 64 -32 23 -35 8
-76 -32 -87 -66 -20 -95 -38 -110 -68 -34 -65 3 -129 85 -148 101 -23 92 -109
-14 -131 -75 -15 -116 -64 -116 -137 0 -72 49 -122 132 -137 38 -7 68 -36 68
-66 0 -29 -25 -51 -70 -61 -55 -12 -88 -41 -96 -84 -12 -68 58 -137 122 -121
20 5 159 137 447 424 l417 417 -407 408 c-359 359 -445 438 -480 437 -4 -1
-22 -7 -40 -15z"/>
<path d="M632 1730 c-20 -9 -42 -45 -42 -71 0 -18 49 -59 70 -59 26 0 70 43
70 68 0 44 -55 79 -98 62z"/>
<path d="M432 1575 c-22 -10 -38 -27 -48 -51 -18 -43 -13 -73 20 -111 20 -23
32 -28 69 -28 107 0 145 130 55 185 -39 23 -52 24 -96 5z"/>
<path d="M2265 1524 c-147 -38 -209 -107 -234 -264 -32 -197 4 -403 85 -484
66 -66 190 -91 304 -62 152 39 212 153 212 401 0 168 -31 284 -94 342 -53 50
-200 86 -273 67z m138 -115 c45 -23 78 -64 92 -114 32 -119 25 -317 -15 -399
-27 -56 -80 -86 -151 -86 -136 0 -189 85 -189 305 0 165 34 260 104 291 38 16
129 18 159 3z"/>
<path d="M4343 1520 c-165 -35 -232 -169 -221 -449 8 -198 48 -285 155 -338
51 -24 69 -28 148 -28 153 0 236 56 282 188 26 75 26 369 0 444 -42 119 -121
179 -252 187 -38 3 -89 1 -112 -4z m184 -126 c16 -12 39 -41 53 -65 24 -42 25
-51 25 -214 0 -163 -1 -172 -25 -215 -37 -65 -79 -90 -155 -90 -79 0 -120 25
-155 95 -21 43 -25 67 -28 175 -6 195 21 283 98 323 47 25 148 19 187 -9z"/>
<path d="M2750 1505 c0 -3 50 -89 111 -191 61 -102 109 -191 106 -197 -2 -7
-55 -97 -116 -200 -61 -104 -111 -193 -111 -198 0 -6 28 -9 66 -7 l67 3 86
154 c48 84 91 153 96 153 6 0 48 -69 95 -154 l86 -153 67 -3 c37 -2 67 1 67 6
0 6 -48 90 -106 188 -59 99 -111 189 -116 201 -9 18 6 49 101 208 61 103 111
189 111 191 0 2 -30 4 -67 4 l-68 0 -84 -157 c-68 -126 -86 -153 -95 -141 -6
8 -45 79 -86 156 l-75 141 -67 1 c-38 0 -68 -2 -68 -5z"/>
<path d="M3522 1113 l3 -398 58 -3 57 -3 0 181 0 180 165 0 165 0 0 55 0 55
-165 0 -165 0 0 115 0 115 180 0 180 0 0 50 0 50 -240 0 -240 0 2 -397z"/>
<path d="M4900 1110 l0 -401 58 3 57 3 3 163 2 162 84 0 84 0 73 -165 73 -165
67 0 68 0 -23 53 c-13 28 -49 103 -80 166 -56 113 -65 141 -46 141 22 0 80 64
96 105 22 60 16 188 -12 236 -23 40 -72 75 -123 89 -20 5 -114 10 -208 10
l-173 0 0 -400z m345 286 c37 -16 49 -34 58 -86 9 -51 -8 -111 -38 -137 -24
-21 -36 -23 -136 -23 l-109 0 0 130 0 130 95 0 c60 0 108 -5 130 -14z"/>
<path d="M5610 1110 l0 -400 113 0 c216 1 300 23 371 96 67 69 99 214 85 385
-9 114 -33 173 -93 235 -71 73 -114 84 -318 84 l-158 0 0 -400z m302 290 c49
-14 93 -52 121 -104 20 -37 22 -56 22 -181 0 -127 -2 -144 -23 -183 -45 -85
-95 -110 -219 -111 l-83 -1 0 295 0 295 73 0 c39 0 89 -5 109 -10z"/>
<path d="M6500 1110 l0 -401 58 3 57 3 3 153 3 152 100 0 c137 0 182 13 240
69 52 51 69 94 69 176 0 75 -17 122 -61 170 -60 65 -100 75 -301 75 l-168 0 0
-400z m329 282 c54 -27 72 -60 72 -127 0 -106 -52 -145 -193 -145 l-88 0 0
145 0 145 88 0 c63 0 96 -5 121 -18z"/>
<path d="M7110 1503 c0 -7 78 -260 196 -630 l55 -173 57 0 58 0 123 391 c67
215 125 397 128 405 4 11 -8 14 -59 14 l-64 0 -89 -312 c-48 -172 -91 -316
-95 -321 -3 -4 -47 136 -96 310 l-90 318 -62 3 c-34 2 -62 -1 -62 -5z"/>
<path d="M7860 1500 c0 -5 11 -10 25 -10 25 0 25 -1 25 -80 0 -47 4 -80 10
-80 6 0 10 33 10 80 0 79 0 80 25 80 14 0 25 5 25 10 0 6 -27 10 -60 10 -33 0
-60 -4 -60 -10z"/>
<path d="M8030 1420 c0 -105 18 -123 22 -22 l3 67 24 -52 c13 -29 29 -53 36
-53 7 0 20 20 29 45 26 68 37 66 34 -6 -2 -43 1 -63 10 -66 9 -4 12 18 12 86
0 82 -2 91 -19 91 -14 0 -25 -16 -42 -62 l-23 -62 -22 49 c-13 28 -23 56 -23
63 -1 6 -10 12 -21 12 -19 0 -20 -7 -20 -90z"/>
<path d="M262 1360 c-63 -26 -37 -130 33 -130 22 0 65 45 65 68 0 44 -55 79
-98 62z"/>
<path d="M632 1360 c-20 -9 -42 -45 -42 -71 0 -18 49 -59 70 -59 26 0 70 43
70 68 0 44 -55 79 -98 62z"/>
<path d="M403 1231 c-82 -52 -84 -173 -4 -230 20 -15 44 -21 80 -21 44 0 56 5
87 33 60 55 63 143 5 200 -40 40 -119 49 -168 18z"/>
<path d="M54 1201 c-44 -27 -60 -77 -40 -124 30 -73 120 -86 171 -25 72 86
-37 209 -131 149z"/>
<path d="M249 982 c-45 -38 -16 -122 43 -122 25 0 68 44 68 70 0 26 -43 70
-68 70 -11 0 -30 -8 -43 -18z"/>
<path d="M614 974 c-20 -19 -24 -31 -20 -52 8 -32 40 -62 68 -62 25 0 68 44
68 70 0 12 -11 32 -25 45 -31 32 -59 32 -91 -1z"/>
<path d="M433 840 c-26 -11 -63 -66 -63 -93 0 -58 67 -114 125 -103 110 21
106 186 -6 201 -18 3 -44 0 -56 -5z"/>
<path d="M614 604 c-40 -39 -20 -95 38 -109 21 -5 33 -1 52 19 33 32 33 60 1
91 -31 32 -59 32 -91 -1z"/>
</g>
</svg>
