<?xml version="1.0" standalone="no"?>
<!DOCTYPE svg PUBLIC "-//W3C//DTD SVG 20010904//EN"
 "http://www.w3.org/TR/2001/REC-SVG-20010904/DTD/svg10.dtd">
<svg version="1.0" xmlns="http://www.w3.org/2000/svg"
 width="785.000000pt" height="271.000000pt" viewBox="0 0 785.000000 271.000000"
 preserveAspectRatio="xMidYMid meet">

<g transform="translate(0.000000,271.000000) scale(0.100000,-0.100000)"
fill="#000000" stroke="none">
<path d="M4055 2619 c-573 -22 -1200 -130 -1815 -313 -292 -86 -303 -94 -49
-36 472 107 948 179 1399 210 186 13 676 13 850 0 1013 -74 1857 -393 2518
-950 l24 -20 -246 -300 -246 -300 145 0 144 0 183 224 183 224 43 -41 c66 -63
210 -232 277 -325 l60 -82 143 0 144 0 -23 38 c-182 301 -543 673 -890 914
-367 256 -753 440 -1186 567 -355 104 -752 170 -1108 186 -268 11 -355 12
-550 4z"/>
<path d="M1978 2223 c7 -3 16 -2 19 1 4 3 -2 6 -13 5 -11 0 -14 -3 -6 -6z"/>
<path d="M1451 1994 c-263 -56 -411 -249 -411 -534 0 -237 94 -407 272 -494
100 -49 186 -66 348 -66 160 0 246 16 348 65 179 85 271 253 272 496 0 284
-133 462 -397 530 -93 23 -331 25 -432 3z m354 -191 c136 -46 208 -210 184
-420 -22 -197 -131 -294 -329 -294 -164 0 -267 68 -309 206 -36 115 -26 290
22 380 18 35 81 97 117 116 75 40 218 45 315 12z"/>
<path d="M130 1456 l0 -546 135 0 135 0 0 195 0 195 115 0 c260 0 421 72 489
219 27 59 29 215 4 272 -23 54 -85 117 -140 145 -99 50 -143 56 -450 61 l-288
5 0 -546z m544 330 c51 -26 76 -68 76 -132 0 -62 -28 -108 -82 -136 -42 -22
-157 -41 -221 -36 l-42 3 -3 163 -3 164 118 -4 c91 -2 127 -7 157 -22z"/>
<path d="M2370 1455 l0 -545 126 0 127 0 -6 378 c-4 207 -10 392 -13 411 -4
22 -3 32 4 30 6 -2 136 -186 290 -409 l279 -405 176 -3 177 -2 0 545 0 545
-121 0 -121 0 4 -409 c2 -225 1 -407 -2 -405 -3 3 -131 186 -285 407 l-280
402 -178 3 -177 2 0 -545z"/>
<path d="M3620 1905 l0 -95 145 0 145 0 0 -450 0 -450 135 0 135 0 0 450 0
450 145 0 145 0 0 95 0 95 -425 0 -425 0 0 -95z"/>
<path d="M4560 1455 l0 -545 135 0 135 0 0 545 0 545 -135 0 -135 0 0 -545z"/>
<path d="M4980 1455 l0 -545 135 0 135 0 2 213 3 212 223 3 222 2 0 95 0 95
-225 0 -225 0 0 140 0 140 240 0 240 0 0 95 0 95 -375 0 -375 0 0 -545z"/>
<path d="M5810 1455 l0 -545 284 0 285 0 75 93 76 92 -225 3 -225 2 0 140 0
140 220 0 220 0 0 95 0 95 -220 0 -220 0 0 120 0 120 168 0 167 0 -35 22 c-19
12 -99 54 -177 95 l-142 73 -126 0 -125 0 0 -545z"/>
<path d="M7289 1885 c-52 -63 -94 -119 -94 -125 0 -8 158 -152 161 -147 1 3
286 351 302 370 14 16 7 17 -130 17 l-146 0 -93 -115z"/>
<path d="M1159 580 c-132 -23 -193 -96 -194 -235 0 -106 29 -160 107 -199 45
-23 64 -26 142 -25 129 1 140 6 144 55 l3 40 -76 -14 c-71 -14 -79 -14 -122 4
-63 26 -85 68 -81 151 5 74 26 109 83 137 39 19 69 18 161 -9 18 -6 24 0 37
32 l15 38 -36 11 c-56 17 -132 23 -183 14z"/>
<path d="M4525 580 c-128 -18 -195 -98 -195 -235 0 -82 22 -138 69 -178 42
-35 90 -47 186 -46 118 1 129 6 133 56 l3 41 -58 -14 c-81 -20 -139 -10 -179
30 -81 81 -38 251 70 271 32 6 92 -3 139 -21 12 -4 20 5 31 31 9 21 16 39 16
41 0 6 -73 22 -120 26 -25 3 -68 2 -95 -2z"/>
<path d="M1560 350 l0 -230 155 0 155 0 0 40 0 40 -100 0 -100 0 0 60 0 60 95
0 95 0 0 40 0 40 -95 0 -95 0 0 50 0 50 100 0 100 0 0 40 0 40 -155 0 -155 0
0 -230z"/>
<path d="M2070 350 l0 -230 55 0 55 0 0 90 0 90 33 0 c29 -1 38 -10 97 -90
l65 -89 63 -1 c34 0 62 2 62 4 0 2 -34 46 -75 97 -41 52 -75 97 -75 101 0 4 9
9 19 13 10 3 31 17 45 32 22 21 26 35 26 80 0 48 -4 58 -30 83 -39 37 -103 50
-235 50 l-105 0 0 -230z m230 137 c17 -9 26 -22 28 -44 4 -41 -26 -62 -94 -65
l-49 -3 -3 63 -3 62 48 0 c26 0 59 -6 73 -13z"/>
<path d="M2600 540 l0 -40 75 0 75 0 0 -190 0 -190 55 0 55 0 2 187 3 188 73
3 72 3 0 39 0 40 -205 0 -205 0 0 -40z"/>
<path d="M3180 350 l0 -230 55 0 55 0 0 230 0 230 -55 0 -55 0 0 -230z"/>
<path d="M3520 350 l0 -230 55 0 55 0 0 90 0 90 90 0 90 0 0 40 0 40 -90 0
-90 0 0 60 0 60 100 0 100 0 0 40 0 40 -155 0 -155 0 0 -230z"/>
<path d="M4020 350 l0 -230 55 0 55 0 0 230 0 230 -55 0 -55 0 0 -230z"/>
<path d="M4992 458 c-28 -68 -71 -171 -96 -231 l-45 -107 62 0 63 0 19 55 18
55 102 0 102 0 20 -52 20 -53 63 -3 c48 -2 61 0 57 10 -2 7 -46 111 -97 231
l-92 217 -72 0 -72 0 -52 -122z m161 -43 c14 -38 28 -78 32 -87 6 -16 0 -18
-64 -18 -39 0 -71 4 -71 9 0 22 64 181 70 174 4 -4 19 -39 33 -78z"/>
<path d="M5480 540 l0 -40 75 0 75 0 0 -190 0 -190 55 0 55 0 0 190 0 190 75
0 75 0 0 40 0 40 -205 0 -205 0 0 -40z"/>
<path d="M6060 350 l0 -230 55 0 55 0 0 230 0 230 -55 0 -55 0 0 -230z"/>
<path d="M6390 350 l0 -230 160 0 160 0 0 40 0 39 -102 3 -103 3 0 55 0 55 93
3 92 3 0 39 0 40 -95 0 -95 0 0 50 0 50 105 0 105 0 0 40 0 40 -160 0 -160 0
0 -230z"/>
</g>
</svg>
