<?xml version="1.0" encoding="utf-8"?>
<!-- Generator: Adobe Illustrator 25.0.0, SVG Export Plug-In . SVG Version: 6.00 Build 0)  -->
<svg version="1.1" id="Layer_1" xmlns="http://www.w3.org/2000/svg" xmlns:xlink="http://www.w3.org/1999/xlink" x="0px" y="0px"
	 viewBox="0 0 168.9 119" style="enable-background:new 0 0 168.9 119;" xml:space="preserve">
<g>
	<path d="M12.8,50.8h24.1c3.6,0,5.3,1.3,5.3,4.6v9.2c0,3.3-1.7,4.6-5.3,4.6H18.2v5.3h-5.4C12.8,74.5,12.8,50.8,12.8,50.8z
		 M18.2,54.8V65h16.3c1.7,0,2.5-0.3,2.5-1.9v-6.4c0-1.6-0.8-1.9-2.5-1.9C34.5,54.8,18.2,54.8,18.2,54.8z"/>
	<path d="M53.8,50.8h17.4c4.4,0,5.9,1.1,5.9,5.6v12.4c0,4.4-1.4,5.6-5.9,5.6H53.8c-4.4,0-5.9-1.1-5.9-5.6V56.3
		C48,51.9,49.4,50.8,53.8,50.8 M71.5,55H53.4v14.9h18.1V55z"/>
	<path d="M89,69.9h15.6V50.8h5.5v18c0,4.4-1.4,5.6-5.9,5.6H89.4c-4.4,0-5.9-1.1-5.9-5.6v-18H89V69.9z"/>
	<path d="M133.9,50.8h5.5V70h11.7V50.8h5.5v18c0,4.4-1.4,5.6-5.9,5.6h-28.2c-4.4,0-5.8-1.1-5.8-5.6v-18h5.5V70h11.7V50.8h5.5"/>
	<polygon points="102.3,17.7 101.8,18.8 98.3,25.9 110.4,30.7 113.3,21 	"/>
	<polygon points="92.4,9.5 100.5,14.2 108.8,11.4 101.1,7 	"/>
	<polygon points="89.1,8 88.7,3.5 81,3.5 80.6,8 	"/>
	<polygon points="56.3,21 59.3,30.7 71.4,25.9 67.9,18.8 67.4,17.7 	"/>
	<polygon points="68.6,7 60.8,11.4 69.2,14.2 77.2,9.5 	"/>
	<polygon points="93.9,40.6 91.4,28.5 78.3,28.5 75.7,40.6 	"/>
	<path d="M18,108.4L18,108.4l-2.1,4.3h4.2L18,108.4z M15.4,113.9l-0.8,1.6h-2.4l4-8.3h3.4l4.1,8.3h-2.3l-0.8-1.6H15.4z"/>
	<path d="M36.8,107.1v5.9c0,2.3-2.1,2.5-5,2.5c-2.8,0-5-0.1-5-2.5v-5.9H29v5.9c0,0.9,0.4,1.1,2.7,1.1c2.1,0,2.7-0.2,2.7-1.1v-5.9
		H36.8z"/>
	<polygon points="45.6,115.4 43.3,115.4 43.3,108.5 39.8,108.5 39.8,107.1 49.2,107.1 49.2,108.5 45.6,108.5 	"/>
	<path d="M54.1,110.1v2.2c0,1.6,0.5,1.8,2.8,1.8c2.1,0,2.8-0.2,2.8-1.8v-2.2c0-1.6-0.8-1.7-2.8-1.7
		C54.4,108.4,54.1,108.8,54.1,110.1 M62,110.1v2.2c0,2.7-1.5,3.2-5.1,3.2c-3.7,0-5.1-0.4-5.1-3.2v-2.2c0-2.6,1.3-3,5.1-3
		C60.4,107.1,62,107.4,62,110.1"/>
	<polygon points="75.7,107.1 71.8,115.4 68.3,115.4 64.4,107.1 66.8,107.1 70,114.1 70.1,114.1 73.3,107.1 	"/>
	<polygon points="80.7,110.6 86.3,110.6 86.3,111.9 80.7,111.9 80.7,114.1 86.7,114.1 86.7,115.4 78.4,115.4 78.4,107.1 86.6,107.1 
		86.6,108.5 80.7,108.5 	"/>
	<path d="M95.7,111.3c1.7,0,2.1-0.2,2.1-1.4c0-1.2-0.3-1.4-2-1.4h-3.2v2.8H95.7z M92.7,112.7v2.7h-2.3v-8.3h6.2
		c2.6,0,3.6,0.6,3.6,2.5c0,1.2-0.1,2.1-2.1,2.3l0,0c1.6,0.1,2,0.7,2,1.9v1.5h-2.3v-1.5c0-0.7-0.4-1.2-1.5-1.2L92.7,112.7L92.7,112.7
		z"/>
	<polygon points="114.2,115.4 111.9,115.4 111.9,111.9 106.3,111.9 106.3,115.4 104,115.4 104,107.1 106.3,107.1 106.3,110.5 
		111.9,110.5 111.9,107.1 114.2,107.1 	"/>
	<path d="M128.3,107.1v5.9c0,2.3-2.1,2.5-5,2.5c-2.8,0-5-0.1-5-2.5v-5.9h2.3v5.9c0,0.9,0.5,1.1,2.7,1.1c2.1,0,2.7-0.2,2.7-1.1v-5.9
		H128.3z"/>
	<path d="M142.4,107.1v5.9c0,2.3-2.1,2.5-5,2.5c-2.8,0-5-0.1-5-2.5v-5.9h2.3v5.9c0,0.9,0.5,1.1,2.7,1.1c2.1,0,2.7-0.2,2.7-1.1v-5.9
		H142.4z"/>
	<path d="M151.8,111.3c1.7,0,2.1-0.2,2.1-1.4c0-1.2-0.3-1.4-2-1.4h-3.2v2.8H151.8z M148.7,112.7v2.7h-2.3v-8.3h6.2
		c2.6,0,3.6,0.6,3.6,2.5c0,1.2-0.1,2.1-2.1,2.3l0,0c1.6,0.1,2,0.7,2,1.9v1.5h-2.3v-1.5c0-0.7-0.4-1.2-1.5-1.2L148.7,112.7
		L148.7,112.7z"/>
</g>
<path d="M46.1,90.7c4,0,5-0.6,5-3.5c0-2.8-0.7-3.3-4.6-3.3h-7.6v6.8H46.1z M38.9,93.9v6.6h-5.5v-20h14.5c6.2,0.1,8.6,1.5,8.6,6
	c0,3-0.2,5.1-5,5.6v0.1c3.9,0.2,4.8,1.7,4.8,4.5v3.7h-5.5v-3.7c0-1.7-1-2.9-3.6-2.9h-8.3V93.9z"/>
<polygon points="66.1,88.8 79.4,88.8 79.4,92 66.1,92 66.1,97.3 80.2,97.3 80.2,100.6 60.6,100.6 60.6,80.6 80.1,80.6 80.1,83.8 
	66.1,83.8 "/>
<polygon points="105.4,80.6 110.8,80.6 110.8,100.6 101.8,100.6 89.7,83.8 89.5,83.8 89.9,100.6 84.5,100.6 84.5,80.6 93.5,80.6 
	105.7,97.3 105.8,97.3 "/>
<polygon points="127.2,100.6 121.8,100.6 121.8,83.8 113.4,83.8 113.4,80.6 135.6,80.6 135.6,83.8 127.2,83.8 "/>
</svg>
