<?xml version="1.0" encoding="utf-8"?>
<!-- Generator: Adobe Illustrator 25.0.0, SVG Export Plug-In . SVG Version: 6.00 Build 0)  -->
<svg version="1.1" id="Layer_1" xmlns="http://www.w3.org/2000/svg" xmlns:xlink="http://www.w3.org/1999/xlink" x="0px" y="0px"
	 viewBox="0 0 1000 90.3" style="enable-background:new 0 0 1000 90.3;" xml:space="preserve">
<path d="M866.5,0c13.8,2.2,24.9,10.1,37.3,16.9c-4,2.3-7.3,4.5-11,6.1c-1.3,0.6-3.3,0-4.8-0.7c-6.5-2.9-12.7-7-19.5-8.8
	c-13.9-3.5-28.5,2.7-35.7,15.1c-7,11.8-5.5,26.8,3.8,37c9.6,10.7,25.4,14.7,38.4,8.1c17.6-8.9,34.6-18.9,52.9-29l-16-9.3
	c3.9-2.2,7.4-4.3,11-6.2c0.8-0.4,1.8-0.5,2.7-0.1c8.8,4.8,17.5,9.7,27.2,15.1c-2.2,1.5-3.3,2.5-4.7,3.3
	c-21.2,11.9-42.3,23.9-63.6,35.5c-27,14.8-60.1,0.7-67.3-28.5c-6-24,10.3-48.7,35.3-53.5c1.4-0.3,2.8-0.8,4.2-1.2L866.5,0z"/>
<path d="M998.3,34.2C994.1,19.4,985.2,9.5,972,4.1c-3-1.2-6.2-2.2-9.6-3c-1.2-0.3-2.5-0.7-3.7-1.1h0c0,0,0,0,0,0H949
	c-6.2,2.2-12.9,3.7-18.7,6.8c-20.9,11.2-41.6,23.1-62.3,34.7c-1.5,0.8-2.8,1.9-4.4,3c0.8,0.9,1.1,1.6,1.7,1.9
	c8.1,4.6,16.1,9.2,24.3,13.6c1,0.5,2.1,0.5,3.1,0.1c3.7-1.8,7.2-3.9,11.3-6.2l-16.4-9.4c19.2-10.4,37-21,55.6-29.7
	c12.7-6,28.2-0.7,37,10.2c8.5,10.3,9.5,24.9,2.5,36.2c-7.3,12.1-21.7,18.1-35.5,14.6c-6.8-1.8-13-5.9-19.5-8.8
	c-1.3-0.6-3.2-1.3-4.3-0.9c-3.8,1.7-7.3,3.9-11.6,6.3c8.4,4.6,15.7,9.2,23.6,12.7c26.1,11.6,56.2-2.9,63.2-30l1.7-6.5l0-7.8
	C999.4,38.6,998.9,36.4,998.3,34.2z"/>
<path d="M762.7,62.7V12.2h10.6v76.3l-53-54.6v50.4h-11.1V7.4L762.7,62.7z"/>
<path d="M282.1,12.1h10.7c0,7.2,0,14.2,0,21.3c0,8.4-0.6,7.2,7.3,7.3s16,0,24.6,0V12.2h10.6v72H325V51h-32.1v33.3h-10.8V12.1z"/>
<path d="M382.1,84.3V12.2h39.8v9.9h-29v17.5h28.1v10.2h-28.3c0,8.1-0.1,15.4,0.2,22.8c0,0.7,2.6,1.9,4,2c8.1,0.2,16.3,0.1,24.9,0.1
	v9.6L382.1,84.3z"/>
<path d="M497.3,84.3h-31.8V12.2h10.2c0.1,1.5,0.2,3.2,0.2,4.9c0,17.1,0,34.3,0,51.4c0,6.2,0,6.2,6.5,6.2h14.9L497.3,84.3z"/>
<path d="M547.2,84.3H537V12.2h10.2L547.2,84.3z"/>
<path d="M41.2,30.4c-0.9-9.4-8.2-16.8-18.3-17.7C15.3,12,7.6,12,0,11.6v72.8h11.2V55.9c5.7-0.9,11-1.1,15.9-2.5
	C37.5,50.3,42.3,41.9,41.2,30.4z M29.5,39.2c-1.3,2.1-2.8,3.4-4.6,4.2c0,0,0,0-0.1,0c-0.1,0.1-0.3,0.1-0.4,0.2
	c-2.7,1.2-5.8,1.3-9.1,1.3c-0.1,0-0.3,0-0.4,0c-1.1,0-2.3,0-3.5,0V23v0c5.8-2.2,13.8-0.6,17.1,3.3c1.5,1.7,2.3,4.4,2.3,7.1
	C31,35.5,30.5,37.6,29.5,39.2z"/>
<path d="M201.2,10.7c-21.5,0-38.3,16.6-38.3,37.7c0,0.2,0,0.4,0,0.6c0.3,20.8,17.4,37.5,38.3,37.2c21.4-0.2,38.4-16.9,38.4-37.8
	C239.5,27.2,222.7,10.7,201.2,10.7z M211.6,74C211.6,74,211.5,74,211.6,74c-0.4,0.2-0.8,0.3-1.2,0.4c0,0-0.1,0-0.1,0
	c-0.4,0.1-0.7,0.2-1.1,0.3c-0.1,0-0.2,0-0.2,0.1c-0.3,0.1-0.7,0.2-1,0.3c-0.1,0-0.2,0.1-0.3,0.1c-0.3,0.1-0.6,0.1-0.9,0.2
	c-0.1,0-0.3,0.1-0.4,0.1c-0.3,0-0.6,0.1-0.9,0.1c-0.2,0-0.4,0-0.5,0.1c-0.3,0-0.5,0.1-0.8,0.1c-0.2,0-0.4,0-0.6,0
	c-0.2,0-0.5,0-0.7,0c-0.2,0-0.5,0-0.7,0c-0.1,0-0.2,0-0.4,0c-0.2,0-0.4,0-0.6,0c0,0,0,0,0,0c0,0,0,0,0,0
	c-14.9-0.4-26.8-12.6-26.9-27.5c0-14.8,11.5-26.9,26.1-27.6c0.1,0,0.2,0,0.2,0c0.4,0,0.8,0,1.1,0c0,0,0,0,0,0c0,0,0,0,0,0
	c15.5,0.2,27.2,12.3,27.1,27.9C228.7,60.1,221.6,69.9,211.6,74z"/>
<path d="M629.1,10.7c-21.7-0.1-39,16.2-39.2,36.9c0,0.3,0,0.6,0,0.9c0.1,20.9,17.1,37.8,38,37.7c21.4,0.1,38.6-16.6,38.7-37.4
	c0-0.1,0-0.2,0-0.3C666.6,27.6,649.8,10.7,629.1,10.7z M655.1,54.3c0,0.2-0.1,0.4-0.1,0.6c-0.1,0.2-0.1,0.5-0.2,0.7
	c-0.1,0.2-0.1,0.4-0.2,0.6c-0.1,0.2-0.1,0.4-0.2,0.7c-0.1,0.2-0.1,0.4-0.2,0.6c-0.1,0.2-0.1,0.4-0.2,0.6c-0.1,0.2-0.2,0.4-0.2,0.6
	c-0.1,0.2-0.2,0.4-0.2,0.6c-0.1,0.2-0.2,0.4-0.3,0.6c-0.1,0.2-0.2,0.4-0.3,0.6c-0.1,0.2-0.2,0.4-0.3,0.6c-0.1,0.2-0.2,0.4-0.3,0.5
	c-0.1,0.2-0.2,0.4-0.3,0.6c-0.1,0.2-0.2,0.3-0.3,0.5c-0.1,0.2-0.2,0.4-0.4,0.6c-0.1,0.2-0.2,0.3-0.3,0.5c-0.1,0.2-0.3,0.4-0.4,0.6
	c-0.1,0.2-0.2,0.3-0.4,0.5c-0.1,0.2-0.3,0.4-0.4,0.6c-0.1,0.2-0.3,0.3-0.4,0.5c-0.1,0.2-0.3,0.4-0.4,0.5c-0.1,0.2-0.3,0.3-0.4,0.5
	c-0.1,0.2-0.3,0.3-0.4,0.5c-0.1,0.2-0.3,0.3-0.5,0.5c-0.2,0.2-0.3,0.3-0.5,0.5c-0.2,0.2-0.3,0.3-0.5,0.5c-0.2,0.1-0.3,0.3-0.5,0.4
	c-0.2,0.2-0.4,0.3-0.5,0.4c-0.2,0.1-0.3,0.3-0.5,0.4c-0.2,0.1-0.4,0.3-0.6,0.4c-0.2,0.1-0.3,0.2-0.5,0.3c-0.2,0.1-0.4,0.3-0.6,0.4
	c-0.2,0.1-0.3,0.2-0.5,0.3c-0.2,0.1-0.4,0.3-0.6,0.4c-0.2,0.1-0.3,0.2-0.5,0.3c-0.2,0.1-0.4,0.2-0.6,0.4c-0.2,0.1-0.3,0.2-0.5,0.3
	c-0.2,0.1-0.4,0.2-0.6,0.3c-0.2,0.1-0.4,0.2-0.5,0.3c-0.2,0.1-0.4,0.2-0.6,0.3c-0.2,0.1-0.4,0.2-0.6,0.2c-0.2,0.1-0.4,0.2-0.6,0.2
	c-0.2,0.1-0.4,0.2-0.6,0.2c-0.2,0.1-0.4,0.1-0.6,0.2c-0.2,0.1-0.4,0.1-0.7,0.2c-0.2,0.1-0.4,0.1-0.6,0.2c-0.2,0.1-0.5,0.1-0.7,0.2
	c-0.2,0-0.4,0.1-0.6,0.1c-0.2,0.1-0.5,0.1-0.7,0.1c-0.2,0-0.4,0.1-0.6,0.1c-0.3,0-0.5,0.1-0.8,0.1c-0.2,0-0.4,0-0.6,0.1
	c-0.3,0-0.5,0.1-0.8,0.1c-0.2,0-0.4,0-0.6,0c-0.2,0-0.5,0-0.7,0c-0.1,0-0.2,0-0.3,0c-0.3,0-0.6,0-0.8,0l0,0h0c-0.5,0-0.9,0-1.4-0.1
	c-0.2,0-0.4,0-0.5-0.1c-0.3,0-0.6,0-0.8-0.1c-0.2,0-0.4-0.1-0.6-0.1c-0.2,0-0.5-0.1-0.7-0.1c-0.2,0-0.5-0.1-0.7-0.1
	c-0.2,0-0.4-0.1-0.6-0.1c-0.2-0.1-0.5-0.1-0.7-0.2c-0.2,0-0.4-0.1-0.6-0.2c-0.2-0.1-0.5-0.1-0.7-0.2c-0.2-0.1-0.4-0.1-0.6-0.2
	c-0.2-0.1-0.5-0.2-0.7-0.3c-0.2-0.1-0.4-0.1-0.5-0.2c-0.2-0.1-0.5-0.2-0.7-0.3c-0.2-0.1-0.3-0.1-0.5-0.2c-0.2-0.1-0.5-0.2-0.7-0.3
	c-0.2-0.1-0.3-0.2-0.5-0.2c-0.2-0.1-0.4-0.2-0.7-0.3c-0.2-0.1-0.3-0.2-0.5-0.3c-0.2-0.1-0.4-0.2-0.6-0.4c-0.2-0.1-0.3-0.2-0.5-0.3
	c-0.2-0.1-0.4-0.3-0.6-0.4c-0.2-0.1-0.3-0.2-0.5-0.3c-0.2-0.1-0.4-0.3-0.6-0.4c-0.2-0.1-0.3-0.2-0.5-0.4c-0.2-0.1-0.4-0.3-0.5-0.4
	c-0.2-0.1-0.3-0.3-0.5-0.4c-0.2-0.1-0.3-0.3-0.5-0.4c-0.2-0.1-0.3-0.3-0.5-0.4c-0.2-0.1-0.3-0.3-0.5-0.4c-0.2-0.2-0.3-0.3-0.5-0.5
	c-0.1-0.1-0.3-0.3-0.4-0.5c-0.2-0.2-0.3-0.3-0.5-0.5c-0.1-0.2-0.3-0.3-0.4-0.5c-0.2-0.2-0.3-0.4-0.4-0.5c-0.1-0.2-0.3-0.3-0.4-0.5
	c-0.1-0.2-0.3-0.4-0.4-0.6c-0.1-0.2-0.2-0.3-0.4-0.5c-0.1-0.2-0.3-0.4-0.4-0.6c-0.1-0.2-0.2-0.3-0.3-0.5c-0.1-0.2-0.2-0.4-0.4-0.6
	c-0.1-0.2-0.2-0.4-0.3-0.5c-0.1-0.2-0.2-0.4-0.3-0.6c-0.1-0.2-0.2-0.4-0.3-0.6c-0.1-0.2-0.2-0.4-0.3-0.6c-0.1-0.2-0.2-0.4-0.3-0.6
	c-0.1-0.2-0.2-0.4-0.3-0.6c-0.1-0.2-0.2-0.4-0.3-0.6c-0.1-0.2-0.1-0.4-0.2-0.6c-0.1-0.2-0.2-0.5-0.2-0.7c-0.1-0.2-0.1-0.4-0.2-0.6
	c-0.1-0.2-0.1-0.5-0.2-0.7c-0.1-0.2-0.1-0.4-0.1-0.6c-0.1-0.3-0.1-0.5-0.2-0.8c0-0.2-0.1-0.4-0.1-0.6c-0.1-0.3-0.1-0.5-0.2-0.8
	c0-0.2-0.1-0.4-0.1-0.6c0-0.3-0.1-0.5-0.1-0.8c0-0.2,0-0.4-0.1-0.6c0-0.3-0.1-0.5-0.1-0.8c0-0.2,0-0.4,0-0.6c0-0.2,0-0.5,0-0.7
	c0-0.1,0-0.1,0-0.2c0-0.2,0-0.4,0-0.5c0-0.2,0-0.3,0-0.5c0-0.1,0-0.1,0-0.2c0-0.3,0-0.5,0-0.8c0-0.2,0-0.4,0-0.6
	c0-0.3,0-0.5,0.1-0.8c0-0.2,0-0.4,0.1-0.6c0-0.3,0.1-0.5,0.1-0.8c0-0.2,0.1-0.4,0.1-0.5c0-0.3,0.1-0.5,0.2-0.8
	c0-0.2,0.1-0.4,0.1-0.5c0.1-0.3,0.1-0.5,0.2-0.8c0-0.2,0.1-0.4,0.1-0.5c0.1-0.2,0.1-0.5,0.2-0.7c0.1-0.2,0.1-0.4,0.2-0.6
	c0.1-0.2,0.2-0.5,0.2-0.7c0.1-0.2,0.1-0.4,0.2-0.6c0.1-0.2,0.2-0.4,0.3-0.7c0.1-0.2,0.2-0.4,0.2-0.6c0.1-0.2,0.2-0.4,0.3-0.6
	c0.1-0.2,0.2-0.4,0.3-0.6c0.1-0.2,0.2-0.4,0.3-0.6c0.1-0.2,0.2-0.4,0.3-0.6c0.1-0.2,0.2-0.4,0.3-0.6c0.1-0.2,0.2-0.4,0.4-0.6
	c0.1-0.2,0.2-0.4,0.3-0.5c0.1-0.2,0.3-0.4,0.4-0.6c0.1-0.2,0.2-0.3,0.4-0.5c0.1-0.2,0.3-0.4,0.4-0.6c0.1-0.2,0.3-0.3,0.4-0.5
	c0.1-0.2,0.3-0.4,0.4-0.5c0.1-0.2,0.3-0.3,0.4-0.5c0.2-0.2,0.3-0.3,0.5-0.5c0.1-0.2,0.3-0.3,0.4-0.5c0.2-0.2,0.3-0.3,0.5-0.5
	c0.2-0.1,0.3-0.3,0.5-0.4c0.2-0.1,0.3-0.3,0.5-0.4c0.2-0.1,0.3-0.3,0.5-0.4c0.2-0.1,0.3-0.3,0.5-0.4c0.2-0.1,0.4-0.3,0.5-0.4
	c0.2-0.1,0.3-0.2,0.5-0.4c0.2-0.1,0.4-0.3,0.6-0.4c0.2-0.1,0.3-0.2,0.5-0.3c0.2-0.1,0.4-0.3,0.6-0.4c0.2-0.1,0.3-0.2,0.5-0.3
	c0.2-0.1,0.4-0.2,0.6-0.4c0.2-0.1,0.3-0.2,0.5-0.3c0.2-0.1,0.4-0.2,0.7-0.3c0.2-0.1,0.3-0.2,0.5-0.2c0.2-0.1,0.5-0.2,0.7-0.3
	c0.2-0.1,0.3-0.1,0.5-0.2c0.2-0.1,0.5-0.2,0.7-0.3c0.2-0.1,0.4-0.1,0.5-0.2c0.2-0.1,0.5-0.2,0.7-0.3c0.2-0.1,0.4-0.1,0.6-0.2
	c0.2-0.1,0.5-0.1,0.7-0.2c0.2-0.1,0.4-0.1,0.6-0.1c0.2-0.1,0.5-0.1,0.7-0.2c0.2,0,0.4-0.1,0.6-0.1c0.2,0,0.5-0.1,0.7-0.1
	c0.2,0,0.5-0.1,0.7-0.1c0.2,0,0.4-0.1,0.6-0.1c0.3,0,0.6-0.1,0.9-0.1c0.2,0,0.3,0,0.5,0c0.5,0,0.9-0.1,1.4-0.1c0,0,0,0,0,0h0l0,0
	c15.5,0,27.3,12,27.3,27.7c0,0,0,0,0,0c0,0.3,0,0.6,0,0.8c0,0.1,0,0.2,0,0.3c0,0.3,0,0.5,0,0.8c0,0.2,0,0.4,0,0.6
	c0,0.3,0,0.5-0.1,0.8c0,0.2,0,0.4-0.1,0.6c0,0.3-0.1,0.5-0.1,0.8c0,0.2-0.1,0.4-0.1,0.6C655.2,53.8,655.1,54,655.1,54.3z"/>
<path d="M106.2,54c1.9-0.8,3.5-1.4,4.9-2.1c7.5-3.7,11.9-11.7,11.2-20c-0.7-8.7-4.7-15.7-13.5-17.7c-8.7-2-17.9-2.1-27.2-3.1v73.3
	h10.8V55.2l1.2-0.4c1.1,1.3,2.2,2.5,3.2,3.8c4.8,6.7,9.5,13.5,14.3,20.3c4.3,6.1,8.6,7.4,16.7,4.7C120.7,73.8,113.5,64,106.2,54z
	 M92.6,45.5C92.6,45.5,92.6,45.5,92.6,45.5L92.6,45.5l0-23.3c6.7,0,13.3-0.9,17.5,5.4c0,0,0,0,0,0c0.6,0.9,1.1,2,1.4,3
	s0.5,2.1,0.4,3.2c0,0.8-0.1,1.6-0.3,2.4c-0.1,0.3-0.1,0.5-0.2,0.8c-0.4,1-0.9,2-1.6,2.9c-0.1,0.1-0.1,0.2-0.2,0.3
	C105.5,45.8,99.2,45.5,92.6,45.5z"/>
</svg>
