<?xml version="1.0" encoding="utf-8"?>
<!-- Generator: Adobe Illustrator 25.0.0, SVG Export Plug-In . SVG Version: 6.00 Build 0)  -->
<svg version="1.1" xmlns="http://www.w3.org/2000/svg" xmlns:xlink="http://www.w3.org/1999/xlink" x="0px" y="0px"
	 viewBox="0 0 378 120" style="enable-background:new 0 0 378 120;" xml:space="preserve">
<style type="text/css">
	.st0{display:none;}
	.st1{display:inline;}
	.st2{fill:#FFFFFF;}
</style>
<g id="Layer_2" class="st0">
	<rect class="st1" width="378" height="120"/>
</g>
<g id="Layer_1">
	<path class="st2" d="M109.3,65.3c-0.5,0-1.1,0.5-1,1s0,0.4,0.1,0.5c-0.4-0.1-0.2-0.1-0.4-0.1c-0.5,0-0.8,0.7-0.8,1.2
		c0,0.8,0.8,1.1,1.5,1.1h1.7v-1.7C110.4,66.5,110.1,65.3,109.3,65.3z M118.1,57.3h1.7v-1.7c0-0.9-0.2-2.1-1.1-2.1
		c-0.5,0-1.1,0.5-1,1s0.1,0.4,0.1,0.5c-0.4-0.1-0.2-0.1-0.4-0.1c-0.5,0-0.8,0.7-0.8,1.2C116.6,57,117.4,57.3,118.1,57.3z
		 M113.6,63.1h1.7v-1.7c0-1-0.2-2.1-1.1-2.1c-0.5,0-1.1,0.5-1,1.1c0.1,0.5,0.1,0.4,0.1,0.4c-0.4-0.1-0.2-0.1-0.4-0.1
		c-0.5,0-0.8,0.7-0.8,1.2C112,62.7,112.9,63.1,113.6,63.1z M96.9,61.8c-0.5,0-1.1,0.5-1.1,1.1c0.1,0.5,0.1,0.4,0.1,0.4
		c-0.4-0.1-0.2-0.1-0.4-0.1c-0.5,0-0.8,0.7-0.8,1.2c0,0.8,0.8,1.1,1.5,1.1h1.7v-1.7C98,63,97.8,61.8,96.9,61.8z M97.5,42.3
		c-0.5,0-1.1,0.4-1,1l0.1,0.5c-0.4-0.1-0.2-0.1-0.4-0.1c-0.5,0-0.8,0.7-0.8,1.2c0,0.8,0.8,1.1,1.5,1.1h1.7v-1.7
		C98.6,43.4,98.4,42.3,97.5,42.3z M98.6,46.1C98.7,46.1,98.6,46.1,98.6,46.1z M110.5,48.2h1.7v-1.7c0-1-0.2-2.1-1.1-2.1
		c-0.5,0-1.1,0.5-1.1,1.1c0.1,0.5,0.1,0.3,0.1,0.4c-0.4-0.1-0.2,0-0.4,0c-0.5,0-0.8,0.7-0.8,1.2C108.9,47.9,109.8,48.2,110.5,48.2z
		 M89.3,92.2H91v-1.5c0-0.9-0.2-2-1.1-2c-0.5,0-1.1,0.4-1,0.9c0.1,0.4,0,0.4,0.1,0.5c-0.4-0.1-0.2,0-0.4,0c-0.5,0-0.8,0.6-0.8,1.1
		C87.9,91.9,88.7,92.2,89.3,92.2z M87.6,112.3h1.6v-1.5c0-0.9-0.2-1.9-1-1.9c-0.5,0-1,0.4-1,0.9c0.1,0.4,0,0,0.1,0.5
		c-0.4-0.1-0.1,0-0.4,0c-0.5,0-0.8,0.6-0.8,1.1C86.1,112,86.9,112.3,87.6,112.3z M85.4,96.8H87v-1.5c0-0.9-0.2-2-1.1-2
		c-0.5,0-1.1,0.4-1,1c0.1,0.4,0,0.3,0.1,0.4c-0.4-0.1-0.2,0-0.4,0c-0.5,0-0.8,0.6-0.8,1.1C83.9,96.5,84.7,96.8,85.4,96.8z
		 M81.7,101.1h1.6v-1.5c0-0.9-0.2-1.9-1.1-1.9c-0.5,0-1.1,0.4-1,1c0.1,0.4,0,0.3,0.1,0.5c-0.4-0.1-0.2,0-0.4,0
		c-0.5,0-0.8,0.6-0.8,1.1C80.3,100.8,81.1,101.1,81.7,101.1z M91.2,108.1h1.7v-1.5c0-0.9-0.2-1.9-1-1.9c-0.5,0-1,0.4-1,0.9
		c0.1,0.4,0,0,0.1,0.5c-0.4-0.1-0.2,0-0.4,0c-0.5,0-0.8,0.6-0.8,1.1C89.8,107.8,90.6,108.1,91.2,108.1z M121.8,71.5h1.7v-1.7
		c0-0.9-0.2-2.1-1.1-2.1c-0.5,0-1.1,0.5-1.1,1c0.1,0.5,0,0.3,0.1,0.5c-0.4-0.1-0.2-0.1-0.4-0.1c-0.5,0-0.8,0.7-0.8,1.2
		C120.3,71.2,121.1,71.5,121.8,71.5z M118.9,72.2c-0.5,0-1.2,0.5-1.1,1s0.1,0.3,0.1,0.5c-0.4-0.1-0.2,0-0.4,0
		c-0.5,0-0.8,0.7-0.8,1.2c0,0.8,0.8,1.1,1.5,1.1h1.7v-1.7C120,73.4,119.7,72.2,118.9,72.2z M104.7,71.1c-0.5,0-1.1,0.5-1,1
		s0.1,0.4,0.1,0.5c-0.4-0.1-0.2,0-0.4,0c-0.5,0-0.8,0.7-0.8,1.2c0,0.8,0.8,1.1,1.5,1.1h1.7v-1.7C105.8,72.3,105.5,71.1,104.7,71.1z
		 M77.9,105.9h1.6v-1.5c0-0.9-0.2-1.9-1-1.9c-0.5,0-1,0.4-1,1c0.1,0.4,0,0.3,0.1,0.4c-0.4-0.1-0.1,0-0.4,0c-0.5,0-0.8,0.6-0.8,1.1
		S77.2,105.9,77.9,105.9z M102.7,59.6V58c0-0.9-0.2-2.1-1.1-2.1c-0.5,0-1.1,0.5-1,1s0.1,0.3,0.1,0.5c-0.4-0.1-0.2,0-0.4,0
		c-0.5,0-0.8,0.7-0.8,1.2c0,0.8,0.8,1.1,1.5,1.1C101.8,59.6,102,59.7,102.7,59.6z M75.4,87.7c-0.5,0-1,0.4-1,1
		c0.1,0.4,0,0.3,0.1,0.4c-0.4-0.1-0.2,0-0.4,0c-0.5,0-0.8,0.6-0.8,1.1c0,0.7,0.8,1,1.5,1h1.6v-1.5C76.5,88.8,76.2,87.7,75.4,87.7z
		 M72.5,95.8v-1.5c0-0.9-0.2-1.9-1-1.9c-0.5,0-1,0.4-1,1c0.1,0.4,0,0.3,0.1,0.4c-0.4-0.1-0.1,0-0.4,0c-0.5,0-0.8,0.6-0.8,1.1
		c0,0.7,0.8,1,1.5,1C71.6,95.8,71.8,95.8,72.5,95.8z M83,78.8c-0.5,0-1.1,0.5-1,1c0.1,0.4,0.1,0.3,0.1,0.4c-0.4-0.1-0.1,0-0.4,0
		c-0.5,0-0.8,0.6-0.8,1.1c0,0.7,0.8,1,1.5,1H84v-1.5C84.1,79.9,83.8,78.8,83,78.8z M79.2,83.1c-0.5,0-1.1,0.4-1,0.9
		c0.1,0.4,0,0.4,0.1,0.4c-0.4-0.1-0.2,0-0.4,0c-0.5,0-0.8,0.6-0.8,1.1c0,0.7,0.8,1,1.5,1h1.6V85C80.3,84.2,80,83.1,79.2,83.1z
		 M68.7,82.2c0-0.9-0.2-2-1.1-2c-0.5,0-1,0.4-1,0.9c0.1,0.4,0,0,0.1,0.5c-0.4-0.1-0.2,0-0.4,0c-0.5,0-0.8,0.6-0.8,1.1
		c0,0.7,0.8,1,1.5,1h1.6C68.7,83.2,68.7,82.8,68.7,82.2z M107.6,53.8v-1.7c0-1-0.2-2.1-1.1-2.1c-0.5,0-1.1,0.5-1,1.1
		c0.1,0.5,0.1,0.2,0.1,0.4c-0.4-0.1-0.2,0-0.4,0c-0.5,0-0.8,0.7-0.8,1.2c0,0.8,0.8,1.1,1.5,1.1C105.9,53.8,107.6,53.8,107.6,53.8z
		 M109.6,99.4C110.3,98.8,109.8,99.2,109.6,99.4z M109.6,99.4C109.3,99.7,109.4,99.6,109.6,99.4z M110.9,92.9h-7.3v2.3h7.3V92.9z
		 M110.8,89.8c-1.1-0.4-3.9-1.1-7.3,0v2.1h7.3V89.8z M110.7,96.2h-7c0.3,1,1.1,2.8,3.3,3.5C109.6,98.9,110.5,97.2,110.7,96.2z
		 M79.5,65.9c2.6-0.8,3.4-2.5,3.7-3.5h-7C76.4,63.4,77.2,65.2,79.5,65.9z M184.1,44.1c-7.1-6.3-10.8-1.2-10.8-1.2s6.5-1.7,5.6,2.6
		c0,0,0.1,1.3-6.2,2.2c-8.4,1.1-7.3,12.3-6,14.8c0.9,1.8,7.2,8,10.5,12c0,0,3,2.8,2,6.7c-0.1,0.3-1.3,4.2-4.8,4.3
		c-5.6,0.2-9.4-6.9-9.4-6.9s-2.9-5.4-3-11.5c0,0-2.5,3.2-5.2,1.2c-0.4-0.3,1,10.9,11.9,19.1c3.6,2.7,11.6,1.4,13.3-5.3
		c1.5-6.2-0.5-7.6-7-14.3s-5.2-11-3-13.3c2.2-2.2,6.6,0.8,9.9,1.2C185.2,55.9,191.3,50.4,184.1,44.1z M176.4,51.2
		c-3.6-1.1-6.7,1.8-6.7,1.8s2.2-3.2,4.7-3.1c7.8,0.3,7.8-3,7.8-3C185.5,51.8,180.9,52.6,176.4,51.2z M148.7,25.6
		C148.8,25.6,148.8,25.5,148.7,25.6z M83.3,55.9c-1.1-0.4-3.9-1.1-7.3,0V58h7.3V55.9z M76,61.4h7.3V59H76V61.4z"/>
	<path class="st2" d="M145.6,36.9c1-0.1,5.2-0.4,5.2-0.4s1,2.3,0.6,2.2c-4.9-1.2-6.6,0.5-6.6,0.5s-0.3,2.5-1.2,4.6
		c4.9,1.8,12.4-2.9,10.2-2.1c-2.2,0.8-6.7,0.9-7.7,0.5c-0.3,0.1,0.5-1.6,0.7-1.8c2.2-1.3,5.5-0.1,5.7-0.3c1.2-1.2-0.4-5.3-0.4-5.3
		s0.2-0.5-6.1,0.4c-1.7-0.4-2.1-3.3-2-3.3c4,0,5.6-3.1,6.1-3.2c10.8-0.7,8.6-6.8,8.9-6.5c1.4,1.3,2.9,3,2.9,3l2.5-0.5
		c0,0-1.4-3-3.5-5.2c-2.3-2.3-5.3-3.7-5.1-3.1c3.6,10.6-6.3,9.2-7,9.1c-2.5,6-7.7,4.5-7.8,4.8C140.6,32.7,144.3,37,145.6,36.9
		L145.6,36.9z"/>
	<path class="st2" d="M161.1,31.3c0.3-0.2,5.3-3.8,5.1-2.7c-0.5,2.6-4.3,5-4.3,5c3.6,2.5,4.5,4.8,4.4,9.1s-7.1,11.6-8.4,14
		c-1.2,2.4,1.5,6.2,3.8,6.2c2.2,0,3.1-1.8,3.1-1.8s-10.4,2.8,0-9.2s2.3-20.4,2.3-20.4s2.7-5,1.6-5.3c-3.9-1.1-9.1,1.3-9,1.3
		C161,27.6,161.1,30.9,161.1,31.3L161.1,31.3z M161.1,31.3C161.1,31.3,161,31.3,161.1,31.3z M172,100.1
		c-14.5,1.3-16.5-5.5-17.1-10.6s4.2-10.3-2-14.6c-6.2-4.3-5.5-6.1-5.5-6.1s-4.5,1.4-4.7,3.3s3.1,3.1,6.4,5.2c3.4,2.1,3.5,3.8,3.1,11
		C151.8,95.4,156.3,105.9,172,100.1z M156.7,30.7c0,0-2.5-1.9-3.5-1.1c-0.1,0.1-1.5,2.3-1.4,2.3c2.3,0,4.5,0.2,4.5,0.2
		S156.7,30.7,156.7,30.7z"/>
	<path class="st2" d="M184.1,109.1c-5-1.4-4.6-3.4-4.6-3.4c2.4-3,1.6-7.6,1.6-7.6c-12-3-10.6-8.6-10.6-8.6s-2.8-0.2-4.8-2.5
		c0,0,0,10.1,11.7,13c0,0,1.5,2.4-0.9,6.1c-0.5,0.8,4,3.3,4,3.3s-0.9,3.9-0.6,6c0,0-6.3-3.5-13.7-2c0,0-0.5-3.9,0.8-5.2
		c0,0-0.7-1-4-1.3c0,0,1.6,4.9-0.4,11.2c0,0,11.6-6.7,18.9-0.1C180.2,113.6,184.6,109.2,184.1,109.1z M151.3,83.4
		c0.7-3.5-3-4.9-3-4.9s-2.7,8.5-16.8,11c0,0,11.6,21.5-3.9,18.8l0.7,1.2l1.5,0.9c13.2,2.4,6-20,6-20
		C149.9,87.8,151.3,83.4,151.3,83.4z M38.9,25.5C38.9,25.5,39,25.5,38.9,25.5z"/>
	<path class="st2" d="M166.6,103.4c0,0-0.4,3.3,6.8,5.5c0.2,0.1-1.6-1.3-2.6-3c-0.9-1.6-1-3.6-1-3.6L166.6,103.4z M28.7,22.2
		c0.3-0.3-1.9,5.9,8.9,6.6c0.5,0,2.1,3.2,6,3.2c0,0-0.3,2.9-2,3.3c-6.2-0.9-6.1-0.4-6.1-0.4s-1.5,4-0.3,5.1c0.2,0.2,3.4-1,5.7,0.3
		c0.2,0.1,1,1.9,0.7,1.8c-1,0.4-5.5,0.3-7.7-0.5s5.2,3.9,10.2,2.1c-0.9-2.1-1.2-4.6-1.2-4.6s-1.7-1.7-6.6-0.5
		c-0.4,0.1,0.6-2.2,0.6-2.2s4.3,0.4,5.2,0.4c1.2,0.1,5-4.2,4.6-6.5c-0.1-0.3-5.3,1.2-7.8-4.8c-0.7,0.1-10.6,1.5-7-9.1
		c0.2-0.6-2.8,0.8-5.1,3.1c-2.1,2.1-3.5,5.2-3.5,5.2l2.5,0.5C25.9,25.1,27.3,23.4,28.7,22.2z M5.7,55.5c3.3-0.4,7.7-3.4,9.9-1.2
		s3.6,6.5-3,13.3c-6.5,6.7-8.6,8.1-7,14.3c1.7,6.7,9.7,8,13.3,5.3C29.8,79,31.2,67.8,30.8,68.1c-2.7,2-5.2-1.1-5.2-1.1
		c-0.1,6.1-3,11.5-3,11.5s-3.8,7.1-9.4,6.9c-3.5-0.1-4.7-4-4.8-4.3c-1-3.8,2-6.7,2-6.7c3.2-3.9,9.5-10.1,10.5-12
		c1.2-2.5,2.4-13.7-6-14.8c-6.2-0.8-6.2-2.2-6.2-2.2c-1-4.3,5.6-2.7,5.6-2.7s-3.6-5.1-10.8,1.2C-3.6,50.4,2.5,55.9,5.7,55.5z
		 M5.5,46.9c0,0,0,3.3,7.8,3C15.8,49.8,18,53,18,53s-3.1-2.9-6.7-1.8C6.8,52.5,2.2,51.8,5.5,46.9z M145.8,99.7c0,0-3,0.3-3.8,0.3
		c-0.9,0-0.4,4.2,1.3,9.3c1.7,5.1-0.4,6.9-0.4,6.9s-6.5-4-12.5-1.6c0,0,1.4-2.8,0.9-3.2c0,0-1.8,1.2-3.7-0.9c-0.1-0.1,0.5,2,0.2,4
		c-0.3,2.3-1.5,4.5-1.5,4.5c9-5.5,17.8-1.2,17.8-1.2s4-4.9,2.6-8.4C143.6,101.7,145.8,99.7,145.8,99.7L145.8,99.7z M151.1,91.2
		c-3.3,6.7-8.8,5.5-8.8,5.5l-0.4,2.1c7.6,0.3,10.2-3.3,10.2-3.3C151,93.6,151.5,90.4,151.1,91.2z M38.5,77.3
		c3.4-2.1,6.6-3.3,6.4-5.2c-0.2-1.9-4.7-3.3-4.7-3.3s0.8,1.7-5.5,6.1c-6.3,4.3-1.4,9.5-2,14.6s-2.6,11.9-17.1,10.6
		c15.7,5.9,20.2-4.7,19.8-11.8C35.1,81.2,35.2,79.5,38.5,77.3z"/>
	<path class="st2" d="M34.5,29.6c-1.1-0.8-3.5,1.1-3.5,1.1l0.5,1.4c0,0,2.2-0.2,4.5-0.2C36,31.9,34.6,29.7,34.5,29.6z M22.9,51.9
		c10.4,12,0,9.2,0,9.2s0.8,1.8,3.1,1.8c2.2,0,5-3.7,3.8-6.1c-1.2-2.4-8.3-9.7-8.4-14s0.9-6.6,4.4-9.1c0,0-3.9-2.4-4.3-5
		c-0.2-1.2,5.1,2.7,5.1,2.7s0-3.7,1.4-3.7c0.1,0-5.1-2.4-9-1.3c-1.1,0.3,1.6,5.3,1.6,5.3S12.6,39.9,22.9,51.9z M24.4,107
		c-3.3,0.3-4,1.3-4,1.3c1.2,1.2,0.8,5.1,0.8,5.1c-7.4-1.5-13.7,2-13.7,2c0.3-2.1-0.6-6-0.6-6s4.5-2.5,4-3.3C8.5,102.3,10,100,10,100
		c11.7-2.9,11.7-13,11.7-13c-2,2.3-4.8,2.5-4.8,2.5s1.4,5.6-10.6,8.6c0,0-0.8,4.6,1.6,7.6c0,0,0.5,2-4.5,3.5c-0.5,0.1,3.9,4.5,2.3,9
		c7.3-6.6,18.9,0.1,18.9,0.1C22.8,111.9,24.4,107,24.4,107z M39.4,78.5c0,0-3.6,1.4-3,4.9c0,0,1.4,4.4,15.6,7c0,0-7.2,22.4,6,20
		l1.5-0.9l0.7-1.2c-15.6,2.7-3.9-18.8-3.9-18.8C42.1,87,39.4,78.5,39.4,78.5z"/>
	<path class="st2" d="M14.3,108.8c7.2-2.2,6.8-5.5,6.8-5.5l-3.3-1.1c0,0.1-0.1,2-1,3.6C16,107.6,14.2,108.9,14.3,108.8z M85,32.2
		h2.1c0,0-3.5-4.3-5-9.3c-1-3.1-1.3-7.3-0.9-9.8c1.1-6.4,5.3-1.2,5.3-1.2l0.3-8.4c0,0-11.1-8.5-10.5,8.5C77,27.6,85,32.2,85,32.2z
		 M60.1,110.6c-1.8,2-3.6,0.8-3.6,0.8c-0.5,0.5,0.9,3.2,0.9,3.2c-6.1-2.4-12.5,1.6-12.5,1.6s-2.1-1.8-0.4-6.9
		c1.7-5.1,2.2-9.3,1.3-9.3S42,99.7,42,99.7s2.2,2-0.9,9.9c-1.3,3.5,2.6,8.4,2.6,8.4s8.7-4.3,17.8,1.1c0,0-1.2-2.2-1.5-4.5
		C59.6,112.8,60,110.9,60.1,110.6z M126.8,78.3c3.6-0.4,7.3,3,7.4,3c0.5,0,0.6-3.2,2.1-6.1s6.2-6.2,9.6-7.2c5.5-1.5,5.2-3.6,5.2-3.6
		c7.7,6.7,11.5-0.7,11.5-0.7s-5.1,3.4-7.8,0.4h0.1c-2.7-3-3.5-7.9-3.5-7.9s0.4,3.7-4.4,6.4c-4.8,2.7-3.5,1.3-7.8,4.7
		c0,0-4,3.3-5.5,7.8c-0.4,1.2-0.4,1.8-0.4,2c-0.1-0.2-0.6-0.5-1.7-0.7c-1.3-0.2-3.6-0.2-5-0.2V74c2.5-1.3,5.2,0.4,5.4,0.2
		c0.4-0.4,1.4-9.3,7.8-18.9c6.4-9.6,15.6-6.5,15.6-6.5c-0.8-2,1.6-4.7,1.6-4.7s-12.7-1-18.2,6.9S131,71.7,131,71.7s-2.5-1.5-4.4,0
		V45.2c0.3,0.2,0.6,0.5,1,0.7c0,0,0.6,6.8,6.8,10.5l1.5-3.3c-8.1-4.3-5.6-8.8-5.6-8.8c-2.1-0.6-4.1-2.7-4.1-2.7
		c3.3,1.5,5.2-0.2,5.5,0.5c1.3,3.1,6.9,7.2,6.9,7.2l2-2.5c0,0-6.6-2.4-8.1-7.5c0,0-4.6,2.4-8.2-0.2c0,0-0.3,1.2,0,2.8
		c-4.8-1.7-17-5.6-31.1-5.5c-13.9-0.1-25.9,3.8-30.7,5.5c0.4-1.5,0-2.8,0-2.8c-3.5,2.5-8.2,0.2-8.2,0.2c-1.5,5.1-8.1,7.5-8.1,7.5
		l2.1,2.5c0,0,5.7-4.1,6.9-7.2c0.3-0.8,2.2,0.9,5.5-0.5c0,0-2,2.1-4.1,2.7c0,0,2.5,4.4-5.6,8.8l1.4,3.3c6.2-3.7,6.8-10.5,6.8-10.5
		c0.4-0.2,0.7-0.4,1-0.7v26.4c-1.9-1.4-4.4,0-4.4,0S53.5,58.8,48,50.9c-5-7.9-17.7-6.8-17.7-6.8s2.4,2.7,1.6,4.7
		c0,0,9.2-3.1,15.6,6.6c6.4,9.6,7.3,18.4,7.8,18.9c0.2,0.2,2.9-1.5,5.4-0.2v2.4c-1.4,0-3.6,0-5,0.2c-1.1,0.1-1.5,0.5-1.7,0.6
		c0-0.2,0-0.8-0.4-2c-1.5-4.4-5.5-7.8-5.5-7.8c-4.2-3.4-3-2-7.8-4.7s-4.4-6.4-4.4-6.4s-0.8,4.9-3.5,7.9c-2.7,3-7.8-0.4-7.8-0.4
		s3.8,7.4,11.5,0.7c0,0-0.3,2,5.2,3.6c3.4,1,8.1,4.2,9.6,7.2c1.5,2.9,1.6,6.1,2.1,6.1c0.1,0,3.8-3.3,7.4-3c0,0.8,0.1,2.3,0.5,4.3
		c3.5,18.8,12.2,32,32.6,37.2c20.4-5.2,29-18.4,32.5-37.2C126.7,80.6,126.8,79.2,126.8,78.3L126.8,78.3z M62.5,61.3V47.2
		c0.5-0.3,1.3-0.6,2.3-1.1l5.1-2.2c2-0.8,4.1-1.7,6-2.3l5.9-1.4c5.2-0.9,10-1,11.8-1.1v37.6H73v-0.3c0-0.1-0.2-0.1-0.2-0.2
		c-0.5-1.7,0.8-3.2,2.3-3.8c0.8-0.3,1.5,0.1,2.3-0.2c0.3-0.1,0.5-0.3,0.9-0.4c-0.8-0.7-1.5-0.6-2.5-0.4c0.1-1.5,0.7-2.2,1.5-3.4
		c0.1-0.1,0.3-0.5,0.5-0.8c1.2,2.9,1.8,3.8,2,3.5c0.5-0.9,1.1-2.2,1.4-3.2c0.2,0.2,0.4,0.5,0.4,0.6c0.9,1,1.6,1.6,1.8,3.1
		c-1,0-1.8,0-2.4,0.8c0.4,0.1,0.6,0.2,0.9,0.2c0.9,0.2,1.4-0.3,2.3-0.2c1.5,0.3,3,1.6,2.8,3.4c0,0.1-0.2,0.2-0.2,0.3V76
		c0.5-0.3,0.9-0.6,1-1.3c0.2-1.3-0.8-2-1.7-2.8c0.4-0.4,0.8-0.5,1.3-0.4c0.6,0.1,1,0.4,1.3,1v-0.3c-0.2-0.8-0.5-1.5-1.2-1.7
		c-0.8-0.2-1.3,0-2,0.3c0-0.3,0-0.5,0.1-0.8c0.1-0.7,0.6-1.3,1.2-1.2c0.3,0.1,0.5,0.3,0.8,0.5L87.5,69c-0.3-0.6-0.6-1-1.2-1.1
		c-1.2-0.2-1.7,1.1-2.3,2.3c-0.6-0.8-1-1.7-1.3-2.5c-0.1-0.3-0.4-1.1-0.6-1.4L82,66.1c0.7,0.4,1.5,0.8,2.6,1.1c3,0.8,6.7-4,5.9-3.8
		c-2.1,0.4-4.7-0.9-3.4-0.6c1.3,0.2,3.1-0.3,4.6-2.9c1.5-2.5,1.2-5.6,0.8-5c-1.5,2.3-5.6,3.1-4.8,2.7c1.7-0.9,4.4-2.4,5-6
		c0.8-4.9-1.6-7.2-1.6-7.2s-4.7,0.5-5.3,10.7c0,0-0.1,0.2-0.6-0.5c-0.4-0.6-1-0.6-1.8-1.2s-1.1-1.6-1.1-2.5s0.3-1.2,0.9-1.4
		s2.1-1.1,2.1-1.1s-3,0.2-2.1-0.3c0.9-0.6,2.5-0.5,2.5-0.5L85.2,47c0,0-1.4-0.4-2.3-1s-0.6-1-2.1-0.2c-1.5,0.7-0.8,3.1-0.6,5.3
		c0.2,1.8-0.5,2.5-0.7,2.7c-0.3-0.2-0.9-0.9-0.7-2.7c0.2-2.2,0.9-4.6-0.6-5.3S77,45.5,76.1,46s-2.3,1-2.3,1l-0.4,0.6
		c0,0,1.5-0.1,2.5,0.5s-2.1,0.3-2.1,0.3s1.5,0.9,2.1,1.1s0.9,0.6,0.9,1.4s-0.3,1.8-1,2.5C75,54,74.5,54,74,54.6s-0.6,0.5-0.6,0.5
		c-0.6-10.2-5.1-9.8-5.1-9.8s-2.6,1.4-1.7,6.3c0.6,3.5,1.6,5.5,0.1,3.3c-0.4-0.6-0.8,2.5,0.8,5c1.5,2.5,3.4,3.1,4.6,2.9
		c1.3-0.2-1.3,1-3.4,0.6c-0.8-0.2,2.9,4.6,5.9,3.8c0.7-0.2,1.3-0.4,1.8-0.7c-0.2,0.4-0.3,1.1-0.4,1.3c-0.2,0.8-0.5,1.8-1,2.7
		c-0.7-1.1-1.4-2.4-2.5-2c-0.6,0.2-0.8,0.7-1,1.3l-0.1,0.4c0.3-0.2,0.4-0.5,0.7-0.6c0.6-0.2,1.2,0.3,1.4,1c0.1,0.3,0.1,0.5,0.2,0.8
		c-0.8-0.2-1.3-0.3-2,0s-0.9,1-1,1.8v0.3c0.3-0.6,0.6-1,1.2-1.2c0.5-0.2,0.9-0.1,1.4,0.2c-0.8,1-1.7,1.8-1.3,3
		c0.2,0.6,0.6,0.9,1.1,1.1H62.5C62.5,76.6,62.5,61.3,62.5,61.3z M75.1,55.2c5.2-2,9-0.1,9.2,0v6.5c0,0.1-0.2,3.9-4.8,5.2
		c-4.1-1-4.5-5.2-4.5-5.2S75.1,55.2,75.1,55.2z M63.2,82.8c-0.4-2.1-0.6-3.8-0.6-4.7v-1h12.5L64.7,89.4
		C64.1,87.3,63.6,85.1,63.2,82.8z M69.9,101.4c-1.2-1.9-2.3-3.9-3.2-6.1l15.2-18.2h8.2C90.1,77.1,69.9,101.4,69.9,101.4z
		 M93.6,115.4c-4-0.7-7.5-1.8-10.5-3.1l10.5-12.8V115.4z M93.6,91.3l-15.3,18.5c-1.9-1.2-3.6-2.6-5-4.1l20.3-24.5V91.3z M125.2,76.6
		h-12.5l5.4-6.7l1.4-1.6l5.7-7C125.2,61.3,125.2,76.6,125.2,76.6z M125.1,47.1v6l-14.7,17.8l-4.7,5.7h-8.4l14-16.8L122.9,46
		C123.8,46.5,124.6,46.8,125.1,47.1z M94.2,39c1.9,0,6.7,0.2,11.8,1.1l-5.3,6.4l-6.5,7.7V39z M94.1,62.5L104.6,50l7.2-8.4
		c1.9,0.6,4,1.4,6,2.3l-9.4,11.3l-1.2,1.5L94.1,72.1V62.5z M113.4,106.7c0.3-0.6,0.5-1.3,0.1-1.7c0.4-0.3,0.8-0.4,1.3-0.3
		c0.3,0.1,0.5,0.1,0.6,0.1C114.7,105.4,114.1,106,113.4,106.7z M125.2,78.1c-0.1,0.9-0.3,2.6-0.6,4.7c-1.7,9-4.3,16.2-9,21.7
		c-0.1-0.6,0-0.8-0.7-0.9c-0.7-0.2-1.2,0-1.9,0.3v-0.8c0.1-0.7,0.6-1.2,1.2-1.1c0.3,0.1,0.4,0.3,0.7,0.5l-0.2-0.3
		c-0.2-0.6-0.5-1-1.1-1.1c-1.1-0.2-1.6,1.1-2.1,2.2c-0.5-0.8-1-1.6-1.2-2.4c-0.1-0.3-0.4-1.1-0.6-1.4v-0.1c-0.6,0.5-1.4,0.9-2.5,1.2
		c-4.1-1-4.5-5.2-4.5-5.2V89c5.2-2,9-0.1,9.2,0v6.4c0,0.1-0.2,2.3-2.2,3.9c0.6,0.3,1.4,0.7,2.3,1l-0.1-0.1h0.1
		c2.8,0.8,6.4-3.8,5.6-3.7c-2,0.4-4.4-0.8-3.2-0.6h-0.1c1.2,0.2,2.9-0.3,4.4-2.7c1.5-2.5,1.1-5.4,0.7-4.8c-1.4,2.2-5.3,3-4.6,2.6
		c1.6-0.9,4.1-2.3,4.7-5.7c0.8-4.7-1.5-6.9-1.5-6.9s-4.4,0.5-5,10.2c0,0-0.1,0.2-0.5-0.5c-0.4-0.6-0.9-0.5-1.7-1.1
		c-0.7-0.6-1-1.5-1-2.4c0-0.8,0.3-1.1,0.9-1.4c0.6-0.2,2-1.1,2-1.1s-2.9,0.2-2-0.3s2.3-0.5,2.3-0.5l-0.4-0.6c0,0-1.3-0.4-2.2-0.9
		c-0.9-0.5-0.6-0.9-2-0.2s-0.7,3-0.5,5.1c0.2,1.7-0.5,2.4-0.7,2.6c-0.2-0.2-0.8-0.9-0.7-2.6c0.2-2.1,0.9-4.4-0.5-5.1s-1.1-0.3-2,0.2
		s-2.2,0.9-2.2,0.9l-0.4,0.6c0,0,1.4-0.1,2.3,0.5c0.9,0.5-2,0.3-2,0.3s1.4,0.8,2,1.1c0.6,0.2,0.9,0.5,0.9,1.4c0,0.8-0.3,1.8-1,2.4
		s-1.3,0.5-1.7,1.1c-0.4,0.6-0.5,0.5-0.5,0.5c-0.5-9.8-5-10.2-5-10.2s-2.3,2.1-1.5,6.9c0.6,3.4,3.1,4.9,4.7,5.7
		c0.7,0.4-3.2-0.4-4.6-2.6c-0.4-0.6-0.7,2.4,0.7,4.8c1.5,2.4,3.2,3,4.4,2.7c1.2-0.2-1.2,1-3.2,0.6c-0.8-0.2,2.7,4.4,5.6,3.7
		c0.7-0.2,1.2-0.4,1.7-0.6c-0.1,0.3-0.4,1.2-0.4,1.5c-0.2,0.8-0.5,1.8-1,2.7c-0.7-1.1-1.3-2.4-2.5-2c-0.5,0.2-0.8,0.7-1,1.3
		l-0.1,0.4c0.3-0.2,0.4-0.5,0.7-0.6c0.6-0.2,1.1,0.3,1.3,1c0.1,0.3,0.1,0.5,0.1,0.8c-0.8-0.2-1.2-0.3-2,0c-0.7,0.3-0.9,1-1,1.9v0.3
		c0.3-0.6,0.6-1,1.2-1.2c0.5-0.2,0.9-0.1,1.3,0.2c-0.8,1-1.6,1.8-1.3,3.1c0.2,0.7,0.6,0.9,1.2,1.1v-0.3c-0.1-0.1-0.2-0.1-0.2-0.3
		c-0.5-1.7,0.8-3.3,2.3-3.8c0.8-0.3,1.4,0.1,2.2-0.2c0.3-0.1,0.5-0.3,0.9-0.4c-0.8-0.7-1.5-0.6-2.5-0.5c0.1-1.5,0.7-2.3,1.4-3.4
		c0.1-0.1,0.3-0.6,0.5-1c1.1,2.7,1.7,3.5,1.8,3.3c0.5-0.8,1-2.2,1.4-3.1c0.2,0.2,0.3,0.5,0.4,0.6c0.8,0.9,1.5,1.5,1.7,3
		c-1,0-1.7,0-2.3,0.8c0.3,0,0.5,0.1,0.9,0.2c0.8,0.2,1.3-0.3,2.2-0.2c1.4,0.3,1.5,0.6,1.3,2c-4.5,4-10.5,6.7-18.8,8.3v-38h31v1
		L125.2,78.1z M45.8,98.8l-0.4-2.1c0,0-5.5,1.2-8.9-5.5c-0.4-0.8,0.1,2.4-1,4.3C35.6,95.5,38.2,99.1,45.8,98.8z M60,110.6
		C60.1,110.6,60.1,110.6,60,110.6z M69.3,36.1l1.7-0.7c0,0-3.7-2.2-5.9-5.6c-1.4-2.1-2.6-5.3-2.8-7.4c-0.5-5.4,3.9-2.8,3.9-2.8
		L64.5,13c0,0-10.5-3-6.3,10.2C62,35.1,69.3,36.1,69.3,36.1z M100.8,32.2h2.7c0,0,8-4.6,8.6-20.1c0.6-17.1-11-8.5-11-8.5l0.3,8.4
		c0,0,4.7-5.2,5.9,1.2c0.4,2.5,0.1,6.7-0.9,9.8C104.9,27.9,100.8,32.2,100.8,32.2z"/>
	<path class="st2" d="M77,34l1.9-0.4c0,0-3.7-3.2-5.7-7.3c-1.3-2.6-2.1-6.3-2-8.6c0.2-6,4.6-2.2,4.6-2.2L75,8c0,0-11-5.4-8.3,9.7
		C69.2,31.5,77,34,77,34z M117.3,17.7c0.1,2.3-0.8,6-2,8.6c-2,4.1-6.2,7.3-6.2,7.3L111,34c0,0,8.3-2.6,10.8-16.3
		c2.7-15.2-8.3-9.7-8.3-9.7l-0.8,7.5C112.7,15.6,117.1,11.8,117.3,17.7z M93.8,27v5.4c0,0,2.7-20.1,6.1-30.3c0-0.1-3.2-1.8-6.1-1.8
		s-5.2,2-5.2,2c3.6,12.8,5.2,26.5,5.2,30.1V27z M307.3,88.4c-1.5,0-2.9,0.6-4.2,1.8c-0.4,0.4-0.9,0.9-1.3,1.4v-2.7h-6.2v19.8h6.2
		V96.1c0.4-1,0.9-1.8,1.5-2.3s1.2-0.9,1.9-0.9s1.2,0.3,1.7,0.9c0.4,0.6,0.6,1.4,0.6,2.3v12.5h6.2V95.5c0-2.3-0.5-4.1-1.7-5.3
		C311,89,309.4,88.4,307.3,88.4z M375.4,90.2c-1.1-1.2-2.7-1.8-4.8-1.8c-1.5,0-2.9,0.6-4.2,1.8c-0.4,0.4-0.9,0.9-1.3,1.4v-2.7h-6.2
		v19.8h6.2V96.1c0.4-1,0.9-1.8,1.5-2.4s1.2-0.9,1.9-0.9s1.2,0.3,1.7,0.9c0.4,0.6,0.6,1.4,0.6,2.3v12.5h6.2v-13
		C377.1,93.2,376.5,91.4,375.4,90.2L375.4,90.2z"/>
	<path class="st2" d="M122.4,19.7c0,0,4.4-2.6,3.9,2.8c-0.2,2.1-1.4,5.2-2.8,7.4c-2.3,3.3-6.5,5.6-6.5,5.6l1.7,0.7
		c0,0,7.8-0.9,11.6-12.9C134.5,10.1,124,13,124,13L122.4,19.7z M346.7,88.4c-2.6,0-4.7,1-6.4,2.9c-1.6,1.9-2.4,4.4-2.4,7.5
		c0,3.3,0.8,5.8,2.4,7.6c1.6,1.8,3.9,2.7,6.8,2.7c1.3,0,2.4-0.2,3.4-0.4c1-0.3,2.2-0.8,3.7-1.6v-3.9c-1,0.7-1.9,1.1-2.7,1.4
		c-0.8,0.2-1.6,0.4-2.6,0.4c-1.7,0-2.9-0.5-3.7-1.6c-0.7-0.9-1.1-2.2-1.2-3.8h10.8v-0.8c0-3.1-0.8-5.6-2.3-7.5
		C351.1,89.4,349.1,88.4,346.7,88.4L346.7,88.4z M344.1,96.8c0.1-1.4,0.3-2.5,0.6-3.2c0.4-1,1.1-1.5,2.1-1.5s1.6,0.5,2.1,1.4
		c0.3,0.7,0.5,1.8,0.6,3.3L344.1,96.8L344.1,96.8z M336.3,88.5h-8.5c-0.5-0.1-1.1-0.2-1.8-0.2c-2.5,0-4.5,0.7-6,2.1
		s-2.3,3.2-2.3,5.4s0.8,4,2.3,5.4c0.5,0.4,0.9,0.7,1.4,1l-0.9,0.3c-1.5,0.7-2.2,1.5-2.2,2.6c0,1.4,0.7,2.5,2,3.4h0.1
		c-1,0.3-1.9,0.8-2.6,1.7c-0.7,0.8-1.1,1.7-1.1,2.7c0,1.5,0.9,2.8,2.6,3.8c1.8,1,3.9,1.6,6.4,1.6c3.5,0,6.1-0.5,7.8-1.6
		c1.7-1.1,2.6-2.6,2.6-4.7c0-2-0.7-3.4-2-4.3s-3.6-1.4-6.8-1.6c-1.9-0.1-3.1-0.3-3.6-0.4c-0.6-0.1-0.8-0.4-0.8-0.7
		c0-0.5,0.3-0.8,0.9-1.1l0.5-0.2c-0.1,0.1,0.1,0.1,0.8,0s1.5-0.2,2.7-0.4c1.6-0.2,3-0.8,4.2-1.7c1.5-1.3,2.3-2.9,2.3-4.9
		c0-1.8-0.4-3.3-1.2-4.6h3.1L336.3,88.5L336.3,88.5z M324.7,110.4c0.9-0.1,1.8-0.2,2.8-0.1h0.7c0.9,0,1.6,0.3,2.2,0.8s0.9,1,0.9,1.6
		c0,0.7-0.5,1.3-1.4,1.8s-2.1,0.7-3.5,0.7c-1.2,0-2.2-0.2-3-0.8c-0.8-0.5-1.2-1.1-1.2-1.8c0-0.5,0.2-1,0.8-1.5
		C323.2,110.8,323.8,110.6,324.7,110.4z M328.2,99.4c-0.5,0.7-1.1,1-2,1s-1.5-0.3-2-1c-0.4-0.7-0.7-1.7-0.7-3.1s0.2-2.4,0.7-3.1
		s1.1-1,2-1s1.6,0.3,2,1c0.5,0.7,0.7,1.7,0.7,3.1S328.7,98.7,328.2,99.4z M255,91.3c-1.8-1.9-4.1-2.9-7-2.9c-2.8,0-5.2,1-6.9,2.9
		c-1.8,1.9-2.7,4.4-2.7,7.5c0,3,0.9,5.5,2.7,7.4s4.1,2.9,6.9,2.9c2.8,0,5.2-1,7-2.9c1.8-1.9,2.7-4.4,2.7-7.4
		C257.7,95.7,256.8,93.2,255,91.3L255,91.3z M250.5,103.1c-0.5,1-1.3,1.4-2.4,1.4s-1.9-0.5-2.4-1.4c-0.5-1-0.8-2.4-0.8-4.3
		s0.3-3.4,0.8-4.4s1.3-1.4,2.4-1.4c1.1,0,1.9,0.5,2.4,1.4c0.5,1,0.8,2.4,0.8,4.4C251.3,100.7,251,102.1,250.5,103.1z M229.2,92.6
		c-0.4,1-0.8,2.3-1.1,3.6v-7.4h-5.8v19.8h6.2v-4.3c0.1-3.1,0.6-5.5,1.4-7.3c0.8-1.8,1.9-2.7,3.1-2.7c1.1,0,1.9,0.4,2.6,1.2l1.4-5.7
		c-0.8-0.8-2-1.2-3.5-1.2C231.7,88.6,230.3,89.9,229.2,92.6L229.2,92.6z M211.3,88.5c-0.5-0.1-1.1-0.1-1.8-0.1c-2.5,0-4.4,0.7-6,2.1
		c-1.5,1.4-2.3,3.2-2.3,5.4s0.8,4,2.3,5.4c0.4,0.4,0.9,0.7,1.4,1l-0.9,0.3c-1.5,0.7-2.2,1.6-2.2,2.6c0,1.4,0.7,2.5,2,3.4h0.1
		c-1,0.3-1.9,0.8-2.6,1.7c-0.7,0.9-1,1.7-1,2.7c0,1.5,0.9,2.8,2.6,3.8c1.7,1,3.9,1.5,6.4,1.5c3.5,0,6.1-0.5,7.8-1.6
		c1.7-1,2.6-2.6,2.6-4.7c0-2-0.7-3.4-2-4.3s-3.6-1.5-6.8-1.7c-1.9-0.1-3.1-0.3-3.6-0.4c-0.6-0.1-0.8-0.4-0.8-0.7
		c0-0.5,0.3-0.8,0.9-1.1l0.5-0.2c-0.1,0.1,0.1,0.1,0.8,0s1.6-0.2,2.7-0.3c1.6-0.2,3-0.8,4.2-1.7c1.5-1.3,2.3-2.9,2.3-4.9
		c0-1.8-0.4-3.3-1.2-4.6h3.1v-3.5h-8.5V88.5z M208.2,110.4c0.9-0.1,1.8-0.2,2.8-0.1h0.7c0.9,0,1.6,0.3,2.2,0.8
		c0.6,0.5,0.9,1,0.9,1.6c0,0.7-0.5,1.3-1.4,1.8s-2.1,0.7-3.5,0.7c-1.2,0-2.2-0.2-3-0.8s-1.2-1.1-1.2-1.8c0-0.5,0.2-1,0.8-1.5
		C206.7,110.8,207.3,110.6,208.2,110.4z M211.7,99.5c-0.4,0.7-1.1,1-2,1s-1.6-0.3-2-1s-0.7-1.7-0.7-3.1s0.2-2.4,0.7-3.1
		c0.4-0.7,1.1-1,2-1s1.5,0.3,2,1s0.7,1.7,0.7,3.1S212.2,98.8,211.7,99.5z M284.4,108.6h6.2V88.8h-6.2V108.6z M287.5,79.3
		c-1,0-1.7,0.3-2.4,1s-1,1.4-1,2.4c0,0.9,0.3,1.7,1,2.4c0.7,0.6,1.4,1,2.4,1c0.9,0,1.7-0.3,2.4-1c0.7-0.6,1-1.4,1-2.4
		s-0.3-1.7-1-2.4S288.4,79.3,287.5,79.3z M273.3,88.4c-1.5,0-2.9,0.6-4.2,1.8c-0.4,0.4-0.9,0.9-1.3,1.4v-2.7h-6.2v19.8h6.2V96.1
		c0.4-1,0.9-1.8,1.5-2.3s1.2-0.9,1.9-0.9s1.2,0.3,1.7,0.9c0.4,0.6,0.6,1.4,0.6,2.3v12.5h6.2V95.5c0-2.3-0.6-4.1-1.6-5.3
		C277,89,275.4,88.4,273.3,88.4L273.3,88.4z M277.2,75l8.7-20.2h-6.4l-3.9,10.6l-4.5-10.6h-6.5l9.1,20.2H277.2z M349.2,52
		c1,0,1.9-0.3,2.6-1c0.7-0.6,1.1-1.4,1.1-2.4c0-0.9-0.3-1.7-1-2.4c-0.7-0.6-1.6-1-2.6-1s-1.9,0.3-2.6,1c-0.7,0.6-1,1.4-1,2.4
		c0,0.9,0.4,1.7,1,2.4C347.3,51.6,348.2,52,349.2,52z M292,52c1,0,1.9-0.3,2.6-1c0.7-0.6,1.1-1.4,1.1-2.4c0-0.9-0.4-1.7-1-2.4
		c-0.7-0.6-1.6-1-2.6-1s-1.9,0.3-2.6,1c-0.7,0.6-1,1.4-1,2.4c0,0.9,0.4,1.7,1,2.4C290.2,51.6,291,52,292,52z M345.8,54.8h6.8v19.8
		h-6.8V54.8z M335.7,75c1,0,1.8-0.1,2.7-0.3c0.8-0.2,1.9-0.6,3.2-1.1V69c-0.9,0.5-1.7,0.8-2.3,1c-0.6,0.2-1.2,0.3-1.9,0.3
		c-1.9,0-3.3-0.5-4.2-1.4c-0.9-0.9-1.4-2.3-1.4-4.2c0-1.9,0.5-3.3,1.4-4.2s2.4-1.4,4.2-1.4c0.6,0,1.2,0.1,1.7,0.2
		c0.6,0.2,1.3,0.5,2.1,0.9v-4.6c-1.3-0.5-2.3-0.9-3-1c-0.8-0.2-1.6-0.3-2.5-0.3c-3.2,0-5.9,1-7.9,2.9s-3,4.4-3,7.5
		c0,3.1,1,5.5,3,7.4C329.9,74.1,332.5,75,335.7,75L335.7,75z M367.2,75c1.4,0,2.7-0.1,3.7-0.4c1.1-0.3,2.5-0.8,4.1-1.6v-3.9
		c-1.1,0.7-2.1,1.1-3,1.4c-0.8,0.2-1.8,0.4-2.8,0.4c-1.8,0-3.2-0.5-4.1-1.6c-0.8-0.9-1.2-2.2-1.3-3.8h11.8v-0.8
		c0-3.1-0.8-5.6-2.5-7.5s-3.8-2.9-6.4-2.9c-2.9,0-5.2,1-7,2.9s-2.7,4.4-2.7,7.5c0,3.3,0.9,5.8,2.7,7.6C361.5,74.1,364,75,367.2,75
		L367.2,75z M364.4,59.5c0.5-1,1.2-1.5,2.3-1.5c1.1,0,1.8,0.5,2.2,1.4c0.3,0.7,0.5,1.8,0.6,3.3h-5.8
		C363.9,61.3,364.1,60.2,364.4,59.5L364.4,59.5z M220.4,57.2c-1.6-1.9-3.7-2.9-6.2-2.9c-1.9,0-3.7,0.7-5.4,2.2v-1.7H202V84h6.8V73
		c1.7,1.4,3.5,2.1,5.4,2.1c2.6,0,4.6-1,6.3-2.9c1.6-1.9,2.4-4.4,2.4-7.5C222.8,61.6,222,59.1,220.4,57.2z M214.9,68.8
		c-0.6,1-1.5,1.4-2.7,1.4c-1.1,0-2.1-0.4-2.9-1.3c-0.2-0.2-0.3-0.4-0.5-0.5v-7.5l0.6-0.8c0.8-0.8,1.7-1.2,2.8-1.2
		c1.2,0,2.1,0.5,2.7,1.4c0.6,0.9,0.9,2.4,0.9,4.2C215.8,66.4,215.5,67.8,214.9,68.8L214.9,68.8z M254.6,75c3.1,0,5.7-1,7.6-2.9
		c2-1.9,2.9-4.4,2.9-7.4c0-3.1-1-5.6-2.9-7.5c-2-1.9-4.5-2.9-7.6-2.9s-5.7,1-7.6,2.9c-2,1.9-2.9,4.4-2.9,7.5c0,3,1,5.5,2.9,7.4
		C249,74.1,251.5,75,254.6,75z M252,60.3c0.6-1,1.5-1.4,2.6-1.4c1.2,0,2.1,0.5,2.6,1.4c0.6,1,0.9,2.4,0.9,4.4c0,1.9-0.3,3.4-0.9,4.3
		c-0.6,1-1.5,1.4-2.6,1.4c-1.2,0-2-0.5-2.6-1.4c-0.6-1-0.9-2.4-0.9-4.3S251.4,61.3,252,60.3z M288.6,54.8h6.8v19.8h-6.8V54.8z
		 M320.7,74.6V61.4c0-2.3-0.6-4.1-1.8-5.3c-1.2-1.2-2.9-1.8-5.2-1.8c-1.7,0-3.2,0.6-4.6,1.8c-0.5,0.4-0.9,0.9-1.4,1.4v-2.7h-6.8
		v19.8h6.8V62.1c0.5-1,1-1.8,1.7-2.3c0.7-0.6,1.4-0.9,2.1-0.9c0.8,0,1.4,0.3,1.8,0.9c0.5,0.6,0.7,1.4,0.7,2.3v12.5H320.7L320.7,74.6
		z M227.3,74.6h6.8v-4.3c0.2-3.1,0.7-5.5,1.6-7.3c0.9-1.8,2-2.7,3.4-2.7c1.2,0,2.1,0.4,2.9,1.2l1.5-5.8c-0.9-0.8-2.2-1.2-3.8-1.2
		c-2,0-3.6,1.3-4.8,4c-0.5,1-0.9,2.2-1.2,3.6v-7.4h-6.3L227.3,74.6L227.3,74.6z"/>
</g>
</svg>
