<?xml version="1.0" encoding="utf-8"?>
<!-- Generator: Adobe Illustrator 25.0.0, SVG Export Plug-In . SVG Version: 6.00 Build 0)  -->
<svg version="1.1" id="Layer_1" xmlns="http://www.w3.org/2000/svg" xmlns:xlink="http://www.w3.org/1999/xlink" x="0px" y="0px"
	 viewBox="0 0 1000 331" style="enable-background:new 0 0 1000 331;" xml:space="preserve">
<style type="text/css">
	.st0{display:none;fill:#FFFFFF;}
</style>
<g>
	<path class="st0" d="M5.16,328.23c0-29.23,0-58.47,0-87.7c6.55,0,13.1,0,20.94,0c0-6.14,0-10.62,0-15.11
		c0-36.67-0.07-73.34,0.02-110.01c0.06-24.39,9.59-33.89,34.31-34.11c21.36-0.18,42.72-0.05,64.08-0.04
		c27.74,0.02,34.28,5.02,41.01,31.47c6.05,0,12.11,0,18.08,0c2.78-28.73-17.9-52.23-46.09-52.57c-28.48-0.34-57.01-0.96-85.42,0.41
		c-9.73,0.47-20.55,4.81-28.39,10.67c-7.81,5.84-12.49,15.8-18.55,23.95c0-30.07,0-60.14,0-90.2c251.03,0,502.05,0,753.08,0
		c0,20.52,0,41.03,0,59.47c-13.45-1.59-25.22-3.84-37.05-4.21c-20.94-0.66-41.91-0.22-62.87-0.18
		c-31.62,0.07-51.42,19.86-51.51,51.6c-0.08,25.85-0.11,51.71,0.01,77.56c0.14,30.56,20.46,50.96,51,51.17
		c22.21,0.15,44.43,0.06,66.64,0.03c34.68-0.06,54.58-19.62,54.78-54.16c0.18-30.02,0.15-60.05,0.01-90.07
		c-0.15-30.41-0.56-60.81-0.86-91.22c71.36,0,142.72,0,214.09,0c-0.11,61.38-0.15,122.77-0.47,184.15
		c-0.02,3.61-1.48,9.72-3.61,10.37c-10.18,3.15-9.35,9.79-7.65,17.72c3.83-0.84,7.27-1.59,13.86-3.04
		c-9.58,9.21-29.25,6.96-21.03,25.96c5.79-1.59,11.69-3.22,18.25-5.03c0,31.25,0,61.52,0,92.2c-48.92,0-97.24,0-137.55,0
		c39.17-5.08,86.09-11.17,133.02-17.25c0.12-1.65,0.23-3.29,0.35-4.94c-11.21-6.9-22.31-14.01-33.76-20.5
		c-2-1.14-5.52,0.22-8.31,0.63c-48.86,7.06-97.52,16.28-146.61,20.76c-82.29,7.5-164.2,2.8-244.8-17.04
		c-58.07-14.3-116.4-27.53-176.38-30.43c-80.63-3.89-160.68,1.84-239.93,17.4c-9.18,1.8-18.2,4.34-27.3,6.54
		c12.55,4.07,24.79,7.3,36.51,6c49.44-5.52,98.58-13.83,148.09-18.41c63.3-5.84,126.56-1.47,189.06,9.5
		c33.71,5.92,66.66,16.03,100.18,23.22c44.56,9.56,89.34,18.1,125.7,25.41C481.04,328.23,243.1,328.23,5.16,328.23z M497.43,60.08
		c-13.83,0-27.66-0.1-41.48,0.02c-27.5,0.24-49.12,20.19-49.85,47.44c-0.76,28.33-0.75,56.71,0,85.03
		c0.71,26.67,21.98,47.32,48.52,47.75c28.07,0.46,56.16,0.53,84.22-0.03c25.92-0.51,47.17-21.19,47.86-47.05
		c0.76-28.74,0.76-57.54,0-86.28c-0.7-26.51-22.36-46.57-49.04-46.86C524.24,59.96,510.83,60.08,497.43,60.08z M385.53,150.11
		c0-13.78,0.06-27.55-0.01-41.33c-0.15-27.41-20.81-48.42-48.24-48.65c-27.69-0.24-55.39-0.22-83.09-0.01
		c-25.1,0.19-46.38,17.8-47.58,42.41c-1.54,31.62-1.51,63.42,0.01,95.05c1.14,23.92,22.01,42.17,46.29,42.69
		c28.52,0.61,57.08,0.63,85.6-0.01c26.59-0.6,46.86-22.22,47.01-48.82C385.59,177.67,385.53,163.89,385.53,150.11z M593.69,284.35
		c6.93,1,13.83,2.34,20.8,2.93c8.77,0.74,17.6,0.77,26.4,1.29c90.73,5.4,179.54-6.91,267.38-28.43c8.26-2.02,10.8-6.42,6.62-14.85
		C810.36,276.9,703.94,290.9,593.69,284.35z M858.33,251.4c-0.82-1.29-1.65-2.58-2.47-3.87c-71.6,19.5-144.28,31.44-218.63,30.91
		c30.04-0.37,60.3,2.13,89.97-0.97c41.38-4.33,82.33-12.75,123.4-19.8C853.44,257.17,855.76,253.56,858.33,251.4z M674.49,274.41
		c-0.12-0.28-0.24-0.55-0.35-0.83c11.58-0.98,23.3-1.16,34.73-3.08c43.17-7.26,86.26-14.97,129.31-22.91
		c2.98-0.55,5.36-4.3,9.5-7.82C787.68,251.77,731.08,263.09,674.49,274.41z M988.7,181.41c-9.78,8.94-31.51,4.03-30.21,25.62
		C968.97,198.87,990.91,204.63,988.7,181.41z M894.97,221.06c-33.08,9.82-33.08,9.82-33.45,18.62
		C882.83,238.63,895.66,231.81,894.97,221.06z M950.41,197.16c-7,6.92-22.01,3.68-16.91,21.27
		C940.52,212.61,954.97,216.12,950.41,197.16z M943.56,236.32c-9.23,2.74-20.84,2.63-15.56,17.54
		C937.61,252.3,948.6,252.26,943.56,236.32z M907.79,228.26c8.13-6.64,22.04-2.9,18.23-19.34
		C918.7,213.32,905.93,210.17,907.79,228.26z M887.59,248.66c7.25-4.65,20.38-0.49,18.65-17.41
		C898.34,236.94,884.84,232.35,887.59,248.66z M948.24,228.63c10.2-1.24,17.97-3.79,13.27-16.54
		C953.12,214.03,944.16,215.1,948.24,228.63z M938.09,221.62c-15.84,3.48-15.86,3.51-12.65,14.86
		C933.68,234.88,942.5,233.97,938.09,221.62z"/>
	<path d="M992.02,186.23c0,0.97-0.01,1.95-0.01,2.92c-0.02,3.61-1.48,9.72-3.61,10.37c-10.18,3.15-9.35,9.79-7.65,17.72
		c3.83-0.84,7.27-1.59,13.86-3.04c-9.58,9.21-29.25,6.96-21.03,25.96c5.79-1.59,11.69-3.22,18.25-5.03v5.98
		c0.83-0.87,1.98-1.36,3.17-1.49c0-17.65-0.01-35.28-0.01-52.92C994,186.88,992.95,186.69,992.02,186.23z"/>
	<path d="M852.42,330.07c1.6-0.21,3.2-0.36,4.8-0.48c0.57-0.23,1.23-0.37,1.98-0.37h0.44c0.83-1.11,2.11-1.84,3.8-1.69
		c0.63,0.05,1.25,0.09,1.87,0.11c0.06-0.1,0.13-0.19,0.21-0.29h-11.22c39.14-5.08,86.04-11.16,132.95-17.24
		c-0.2-1.58-0.54-3.2-0.93-4.87c-0.08-0.36-0.17-0.71-0.25-1.07c-10.67-6.59-21.25-13.33-32.15-19.5c-2-1.14-5.52,0.22-8.31,0.63
		c-48.86,7.06-97.52,16.28-146.61,20.76c-82.29,7.5-164.2,2.8-244.8-17.04c-58.07-14.3-116.4-27.53-176.38-30.43
		c-80.63-3.89-160.68,1.84-239.93,17.4c-9.18,1.8-18.2,4.34-27.3,6.54c12.55,4.07,24.79,7.3,36.51,6
		c49.44-5.52,98.58-13.83,148.09-18.41c63.3-5.84,126.56-1.47,189.06,9.5c33.71,5.92,66.66,16.03,100.18,23.22
		c41.03,8.8,82.24,16.74,116.91,23.65c3.31,0.37,6.58,1,9.77,1.99c2.01,0.62,3.92,1.39,5.75,2.27c44.55,0,89.11,0,133.66,0
		C851.1,330.4,851.75,330.15,852.42,330.07z"/>
	<path d="M5.16,95.2c6.06-8.15,10.74-18.12,18.55-23.95c7.84-5.86,18.65-10.2,28.39-10.67c28.41-1.38,56.94-0.75,85.42-0.41
		c28.19,0.34,48.86,23.84,46.09,52.57c-5.97,0-12.03,0-18.08,0c-6.73-26.44-13.27-31.45-41.01-31.47
		c-21.36-0.01-42.72-0.15-64.08,0.04c-24.72,0.21-34.25,9.72-34.31,34.11c-0.09,36.67-0.02,73.34-0.02,110.01c0,4.49,0,8.97,0,15.11
		c-7.83,0-14.39,0-20.94,0C5.16,192.09,5.16,143.65,5.16,95.2z"/>
	<path d="M593.69,284.35c110.25,6.55,216.67-7.45,321.19-39.05c4.18,8.42,1.65,12.82-6.62,14.85
		c-87.83,21.52-176.65,33.82-267.38,28.43c-8.79-0.52-17.63-0.55-26.4-1.29C607.52,286.69,600.62,285.35,593.69,284.35z"/>
	<path d="M858.33,251.4c-2.57,2.16-4.88,5.78-7.74,6.27c-41.07,7.05-82.02,15.47-123.4,19.8c-29.67,3.11-59.93,0.6-89.97,0.97
		c74.35,0.53,147.03-11.41,218.63-30.91C856.68,248.82,857.5,250.11,858.33,251.4z"/>
	<path d="M674.49,274.41c56.59-11.32,113.19-22.64,173.19-34.64c-4.15,3.53-6.53,7.28-9.5,7.82
		c-43.05,7.94-86.14,15.65-129.31,22.91c-11.42,1.92-23.14,2.1-34.73,3.08C674.26,273.86,674.37,274.13,674.49,274.41z"/>
	<path d="M988.7,181.41c2.21,23.21-19.73,17.46-30.21,25.62C957.19,185.44,978.92,190.36,988.7,181.41z"/>
	<path d="M894.97,221.06c0.69,10.75-12.14,17.57-33.45,18.62C861.9,230.88,861.9,230.88,894.97,221.06z"/>
	<path d="M950.41,197.16c4.56,18.97-9.89,15.45-16.91,21.27C928.4,200.83,943.41,204.07,950.41,197.16z"/>
	<path d="M943.56,236.32c5.03,15.94-5.95,15.98-15.56,17.54C922.72,238.95,934.33,239.06,943.56,236.32z"/>
	<path d="M907.79,228.26c-1.85-18.09,10.91-14.94,18.23-19.34C929.83,225.36,915.92,221.62,907.79,228.26z"/>
	<path d="M887.59,248.66c-2.75-16.31,10.75-11.72,18.65-17.41C907.97,248.17,894.84,244.01,887.59,248.66z"/>
	<path d="M948.24,228.63c-4.08-13.53,4.88-14.59,13.27-16.54C966.21,224.83,958.44,227.39,948.24,228.63z"/>
	<path d="M938.09,221.62c4.41,12.35-4.41,13.27-12.65,14.86C922.23,225.13,922.25,225.1,938.09,221.62z"/>
	<path d="M779.25,96.22c-0.15-30.41-0.56-60.81-0.86-91.22c-6.72,0-13.43,0-20.15,0c0,20.52,0,41.03,0,59.47
		c-13.45-1.59-25.22-3.84-37.05-4.21c-20.94-0.66-41.91-0.22-62.87-0.18c-31.62,0.07-51.42,19.86-51.51,51.6
		c-0.08,25.85-0.11,51.71,0.01,77.56c0.14,30.56,20.46,50.96,51,51.17c22.21,0.15,44.43,0.06,66.64,0.03
		c34.68-0.06,54.58-19.62,54.78-54.16C779.42,156.26,779.4,126.24,779.25,96.22z M758.11,179.63c-0.02,3.12-0.05,6.25-0.11,9.37
		c-0.36,18.48-11.23,29.22-29.87,29.36c-23.87,0.18-47.74,0.21-71.6-0.03c-17.11-0.17-28.65-10.73-29.03-27.75
		c-0.6-27.06-0.59-54.16,0-81.22c0.34-15.72,11-26.93,26.82-27.47c25.5-0.87,51.08-0.92,76.57-0.04
		c17.05,0.59,26.81,12.23,27.1,29.67c0.22,13.33,0.04,26.66,0.04,39.99C758.05,160.88,758.16,170.26,758.11,179.63z"/>
	<path d="M586.7,106.97c-0.7-26.51-22.36-46.57-49.04-46.86c-13.41-0.14-26.82-0.03-40.23-0.03c-13.83,0-27.66-0.1-41.48,0.02
		c-27.5,0.24-49.12,20.19-49.85,47.44c-0.76,28.33-0.75,56.71,0,85.03c0.71,26.67,21.98,47.32,48.52,47.75
		c28.07,0.46,56.16,0.53,84.22-0.03c25.92-0.51,47.17-21.19,47.86-47.05C587.46,164.51,587.46,135.71,586.7,106.97z M564.55,191.34
		c-0.12,16.16-10.33,26.71-26.57,26.92c-27.68,0.35-55.37,0.34-83.06,0c-16-0.2-26.53-11.04-26.81-26.87
		c-0.24-13.77-0.05-27.54-0.05-41.31c0.01-13.77-0.19-27.55,0.06-41.31c0.27-15.15,8.98-25.98,24.32-26.52
		c29.3-1.03,58.68-1.04,87.98-0.02c15.57,0.55,24.02,11.05,24.13,26.49C564.75,136.25,564.75,163.8,564.55,191.34z"/>
	<path d="M385.51,108.78c-0.15-27.41-20.81-48.42-48.24-48.65c-27.69-0.24-55.39-0.22-83.09-0.01c-25.1,0.19-46.38,17.8-47.58,42.41
		c-1.54,31.62-1.51,63.42,0.01,95.05c1.14,23.92,22.01,42.17,46.29,42.69c28.52,0.61,57.08,0.63,85.6-0.01
		c26.59-0.6,46.86-22.22,47.01-48.82c0.08-13.78,0.01-27.55,0.01-41.33C385.53,136.34,385.59,122.56,385.51,108.78z M364.68,190.18
		c-0.54,18.33-11.62,27.97-29.89,28.19c-13.01,0.16-26.01,0.03-39.02,0.03c-13.43-0.01-26.86,0.19-40.28-0.06
		c-16.7-0.31-28.15-10.63-28.47-26.93c-0.54-27.54-0.51-55.1-0.02-82.65c0.27-15.21,10.56-26.39,26.02-26.85
		c28.49-0.86,57.05-0.86,85.54,0.06c15.94,0.52,25.62,11.19,26.1,28.07C365.42,136.74,365.47,163.48,364.68,190.18z"/>
</g>
</svg>
