<svg id="Layer_1" data-name="Layer 1" xmlns="http://www.w3.org/2000/svg" xmlns:xlink="http://www.w3.org/1999/xlink" viewBox="0 0 1021.1 283.46"><defs><style>.cls-1{fill:none;}.cls-2{clip-path:url(#clip-path);}.cls-3{fill:#fff;}</style><clipPath id="clip-path" transform="translate(-135.98 -153.48)"><rect class="cls-1" width="1275.59" height="566.93"/></clipPath></defs><title>Logo Rijksuniversiteit Groningen Large </title><g class="cls-2"><path class="cls-3" d="M991.18,332h3.43c3.7,0,4.17.84,4.17,7.05v22.61c0,4.26-.46,5.84-5.19,5.84h-3V372h25.94V367.5h-1.29c-4.73,0-5.19-1.57-5.19-5.84v-15.2c0-8.72,4.63-13.52,11.4-13.52,5,0,8.15,3,8.15,9.54v19.19c0,4.26-.46,5.84-5.19,5.84h-1.29v4.54h25.39v-4.54h-2.41c-4.73,0-5.19-1.57-5.19-5.84V339.79c0-10-7-14.08-16.12-14.08-7.52,0-12.8,3.15-15.95,10.65h-.19V326.07c-4.54.56-12.78,1.1-17.5,1.1V332Zm-7.32,18.35v-2.13c0-15.57-6.21-22.52-21.14-22.52-15.57,0-22.23,10.19-22.23,23.91s6.66,23.91,22.23,23.91,20.12-8,20.2-15.94h-9.45c-.09,7-2.87,10.58-9.63,10.58-11.41,0-11.5-11.5-11.5-17.81ZM952.35,345c0-7.79,2.32-14.18,10.28-14.18s9.93,6.57,9.93,14.18ZM917,341.83c0,8.05-2.32,11.95-7.33,11.95s-8.05-3.52-8.05-11.86c0-8.06,2.77-11.12,8-11.12,4.44,0,7.41,2.59,7.41,11m3.89,38c0,4.25-2.87,8.72-11.67,8.72-7.78,0-10.85-3.71-10.85-8.25,0-4.91,2.78-9,11.12-9,8.06,0,11.4,3.79,11.4,8.51m13.44-53.38-13.72,1.2a41.4,41.4,0,0,0-10.75-1.94c-12.14,0-20.1,6.95-20.1,15.94,0,8.43,5.27,12.6,12.22,14.83v.18c-6.38.56-9.07,2.88-9.07,5.84,0,3.15,2.12,4.72,8.33,5.93v.18c-6.49.64-14.18,4.08-14.18,11.59s6.4,13.44,21,13.44c15.57,0,24.09-5.1,24.09-13.72,0-10.93-8.71-12.23-17.41-12.88-10.2-.74-11.87-1.67-11.87-4.26,0-3.06,4.17-3.52,7.23-4l2.24-.37c13-2.13,17-9.08,17-16.49,0-4-1.76-7.6-4.08-9.36v-.19h9ZM824.92,332h3.44c3.7,0,4.17.84,4.17,7.05v22.61c0,4.26-.46,5.84-5.19,5.84h-3V372h25.94V367.5H849c-4.73,0-5.19-1.57-5.19-5.84v-15.2c0-8.72,4.63-13.52,11.4-13.52,5,0,8.15,3,8.15,9.54v19.19c0,4.26-.46,5.84-5.19,5.84H856.9v4.54h25.38v-4.54h-2.41c-4.72,0-5.18-1.57-5.18-5.84V339.79c0-10-7.06-14.08-16.13-14.08-7.51,0-12.79,3.15-15.94,10.65h-.18V326.07c-4.55.56-12.79,1.1-17.52,1.1Zm-25.1-20.66c0,4,2.4,7,6.75,7s6.78-3,6.78-7-2.41-7-6.78-7-6.75,3-6.75,7M793.5,332H797c3.7,0,4.17.84,4.17,7.05v22.61c0,4.26-.47,5.84-5.2,5.84h-3V372h27V367.5H817.6c-4.71,0-5.18-1.57-5.18-5.84V326.07c-5.93.56-14.18,1.1-18.91,1.1V332Zm-62.26,0h3.42c3.71,0,4.18.84,4.18,7.05v22.61c0,4.26-.46,5.84-5.19,5.84h-3V372h25.95V367.5h-1.31c-4.73,0-5.18-1.57-5.18-5.84v-15.2c0-8.72,4.63-13.52,11.39-13.52,5,0,8.16,3,8.16,9.54v19.19c0,4.26-.47,5.84-5.19,5.84h-1.3v4.54h25.4v-4.54H786.2c-4.73,0-5.2-1.57-5.2-5.84V339.79c0-10-7-14.08-16.12-14.08-7.51,0-12.79,3.15-16,10.65h-.17V326.07c-4.54.56-12.79,1.1-17.52,1.1V332Zm-50.69,17.61c0,13.73,6.66,23.91,22.24,23.91S725,363.34,725,349.61s-6.67-23.91-22.24-23.91-22.24,10.2-22.24,23.91m11.86,0c0-12.6,2.77-18.53,10.38-18.53s10.37,5.92,10.37,18.53-2.77,18.53-10.37,18.53-10.38-5.92-10.38-18.53M634.65,332h4c3.7,0,4.17.84,4.17,7.05v22.61c0,4.26-.47,5.84-5.19,5.84h-3V372h29.57V367.5H659.3c-4.72,0-5.19-1.57-5.19-5.84v-15.2c0-7.78,4.27-13.52,8.53-13.52,3.61,0,4.64,2.59,4.73,7.23h8.89V326.83a22.74,22.74,0,0,0-7.41-1.11c-7.51,0-12.79,3.15-15.94,10.65h-.18V326.08a180.75,180.75,0,0,1-18.07,1.11V332Zm-21.59,9.83c0,8.05-2.32,11.95-7.32,11.95s-8.06-3.52-8.06-11.86c0-8.06,2.78-11.12,8-11.12,4.44,0,7.41,2.59,7.41,11m3.89,38c0,4.25-2.87,8.72-11.68,8.72-7.77,0-10.83-3.71-10.83-8.25,0-4.91,2.77-9,11.12-9,8.06,0,11.39,3.79,11.39,8.51m13.44-53.38-13.71,1.2a41.48,41.48,0,0,0-10.76-1.94c-12.13,0-20.1,6.95-20.1,15.94,0,8.43,5.28,12.6,12.23,14.83v.18c-6.4.56-9.08,2.88-9.08,5.84,0,3.15,2.13,4.72,8.33,5.93v.18c-6.48.64-14.18,4.08-14.18,11.59s6.4,13.44,21,13.44c15.58,0,24.1-5.1,24.1-13.72,0-10.93-8.72-12.23-17.43-12.88-10.19-.74-11.86-1.67-11.86-4.26,0-3,4.18-3.52,7.23-4l2.22-.37c13-2.13,17.06-9.08,17.06-16.49,0-4-1.76-7.6-4.08-9.36v-.19h9Zm488.78-86.55h8.16V269c0,4.27-.47,5.85-5.2,5.85h-3v4.53h29.56v-4.53h-4.91c-4.73,0-5.18-1.57-5.18-5.85V239.89h12.13v-5.38h-12.13v-9.18c0-5.56,2.22-8.25,6-8.25,3.44,0,4.64,2,4.64,8.15h7.78V213a61.44,61.44,0,0,0-12.32-1.31c-16.86,0-17.42,10.19-17.42,22.81h-8.16v5.39ZM1069,256.94c0,13.72,6.67,23.9,22.24,23.9s22.24-10.18,22.24-23.9S1106.84,233,1091.27,233,1069,243.23,1069,256.94m11.86,0c0-12.6,2.78-18.53,10.38-18.53s10.38,5.93,10.38,18.53-2.77,18.53-10.38,18.53-10.38-5.93-10.38-18.53m-57.27,21.32-4.45,11.31c-1.21,3.24-2.41,5.18-5.94,5.18h-4.16v4.54h24.84v-4.54h-3.06c-3.62,0-4.64-.83-4.64-2.78a15,15,0,0,1,1.49-4.91l18.16-43.45c1.3-3.06,2.12-4.54,4.08-4.54h2v-4.54h-19.65v4.54h3.89c1.58,0,2.24.28,2.24,1.56a9.89,9.89,0,0,1-1,3.25L1029,265.47l-7.6-20.57a12.62,12.62,0,0,1-1.21-4.18c0-1.3.93-1.66,2.51-1.66h3.43v-4.55h-23v4.55h1.39c2.24,0,3.34,1.39,5.2,5.84Zm-62.09-38.37h8.16v26.59c0,11.5,5.19,14.55,14.55,14.55,9,0,14.18-4.43,14.18-14.36v-2h-7.78v4.72c0,4-1.49,5.74-4.82,5.74s-4.82-1.76-4.82-5.74V239.88h14.83V234.5H981V221.44h-8.07c-.74,9.36-2.77,12.05-11.39,13.06v5.39ZM937,218.66c0,4,2.42,7,6.77,7s6.77-3,6.77-7-2.41-6.95-6.77-6.95-6.77,3-6.77,6.95m-6.3,20.67h3.43c3.71,0,4.17.84,4.17,7V269c0,4.26-.46,5.84-5.19,5.84h-3v4.54h27.06v-4.54h-2.41c-4.73,0-5.19-1.57-5.19-5.84V233.41c-5.93.55-14.18,1.1-18.91,1.1v4.82Zm-44.39,38.55a49.89,49.89,0,0,0,17.06,3c9.72,0,20-4.17,20-15,0-7-3.52-9.73-11.5-12.32l-7.58-2.5c-4.27-1.39-6.68-3.9-6.68-7.42,0-3.7,2.69-5.46,7-5.46,6.67,0,8.43,3,8.43,10.1h7.78v-12.7c-2.7-1.21-8.91-2.52-15.94-2.52-10.94,0-18.54,5.11-18.54,13.53,0,7.23,5.19,11.12,16,14.37,8.53,2.59,9.82,4.64,9.82,8.06,0,4.26-3.89,6.76-9.82,6.76-6.4,0-8.16-4.26-8.16-10.84h-7.79v13Zm-48.11-38.55h4c3.7,0,4.16.84,4.16,7V269c0,4.26-.46,5.84-5.17,5.84h-3v4.54h29.57v-4.54h-4.92c-4.72,0-5.18-1.57-5.18-5.84V253.8c0-7.78,4.26-13.52,8.52-13.52,3.61,0,4.64,2.59,4.73,7.22h8.9V234.16a23.39,23.39,0,0,0-7.42-1.11c-7.51,0-12.79,3.16-15.94,10.65h-.17V233.42a181.14,181.14,0,0,1-18.08,1.11v4.8Zm-6.77,18.36v-2.14c0-15.57-6.21-22.53-21.12-22.53C794.7,233,788,243.22,788,256.94s6.67,23.9,22.25,23.9,20.1-8,20.19-15.92H821c-.1,6.94-2.88,10.56-9.64,10.56-11.41,0-11.5-11.49-11.5-17.79Zm-31.5-5.39c0-7.77,2.32-14.18,10.29-14.18s9.92,6.58,9.92,14.18Zm-34.29-13.24h3.89c2.13,0,2.69.56,2.69,1.2a6.56,6.56,0,0,1-.46,2.31l-9.64,27.53h-.19L753,244a11.3,11.3,0,0,1-.83-3.24c0-1,.92-1.66,3.71-1.66h3.06v-4.55H735.76v4.55h1.11c2,0,2.6.56,3.8,3.61l14.38,37.26H766l14.36-37.72c.93-2.41,1.77-3.15,3.71-3.15h1.21v-4.55H765.6v4.55Zm-51.53-20.4c0,4,2.41,7,6.76,7s6.77-3,6.77-7-2.41-6.95-6.77-6.95-6.76,3-6.76,6.95m-6.31,20.67h3.43c3.7,0,4.17.84,4.17,7V269c0,4.26-.46,5.84-5.19,5.84h-3v4.54h27.07v-4.54h-2.41c-4.73,0-5.19-1.57-5.19-5.84V233.41c-5.93.55-14.18,1.1-18.9,1.1v4.82Zm-62.28,0h3.43c3.71,0,4.17.84,4.17,7V269c0,4.26-.46,5.84-5.19,5.84h-3v4.54h25.94v-4.54h-1.3c-4.72,0-5.19-1.57-5.19-5.84V253.8c0-8.72,4.64-13.52,11.4-13.52,5,0,8.15,3,8.15,9.54V269c0,4.26-.45,5.84-5.18,5.84h-1.3v4.54h25.39v-4.54h-2.41c-4.73,0-5.18-1.56-5.18-5.84V247.12c0-10-7-14.08-16.13-14.08-7.51,0-12.79,3.16-15.94,10.65H663V233.41c-4.54.55-12.79,1.1-17.52,1.1Zm-22.42,40h17.51v-4.54h-2.41c-4.72,0-5.19-1.57-5.19-5.84V233.4c-5.93.55-14.17,1.1-18.9,1.1v4.82h3.43c3.71,0,4.18.84,4.18,7.05v12.69c0,9.55-3.44,14.55-11.32,14.55-5.28,0-8.25-2.69-8.25-8.16v-32c-5.93.55-14.17,1.1-18.9,1.1v4.82h3.43c3.71,0,4.18.84,4.18,7.05v21.68c0,8.62,5.56,12.79,14.73,12.79,9.35,0,15.19-4.08,17.33-10.28h.18v8.8Z" transform="translate(-135.98 -153.48)"/><path class="cls-3" d="M520,233.85,355.4,436.93h13.08L533,233.84ZM215.48,194.28c-1.2.18-2.88.66-3.87-1.48-.89-1.93,2.45-5.06,3.56-6.07,1.43-1.32-.43-2.73-1.53-1.19-.3.42-2.93,4.13-5,4.13-3.19,0-3-3.73-3-3.73s-3.56-2.28-3.56-9.49a12,12,0,0,1,4.23-9.49s0-3.65,2.9-3.56,4.69,4,4.88,4.29c1.44,2.17,3.25.34,2-1.22-3-3.64-3.62-6.52-.35-8.05,1.19-2.72,4.77-4.62,8.69-4.92h.13l.12,0c3.92.32,7.51,2.23,8.69,4.93,3.27,1.54,2.64,4.42-.35,8.05-1.26,1.55.55,3.39,2,1.22.18-.27,2-4.19,4.89-4.29s2.89,3.56,2.89,3.56a12,12,0,0,1,4.23,9.49c0,7.22-3.56,9.48-3.56,9.48s.18,3.74-3,3.74c-2,0-4.67-3.71-5-4.13-1.09-1.54-3-.12-1.53,1.19,1.11,1,4.46,4.14,3.56,6.07-1,2.14-2.66,1.66-3.86,1.48,0,0-1.1,1.91-2.76,1.91,8.29,6.19,21.3,2.69,23.05-1.84a1.75,1.75,0,0,1-2.19-1.87c0-1.4,1.44-2.16,3.36-2.44a6.71,6.71,0,0,1-.53-3.1c.19-3.24,2.43-6,5-6.1s4.51,2.44,4.32,5.68a7.3,7.3,0,0,1-1.63,4.24c1.89.64,3.23,1.61,3,2.75a2.51,2.51,0,0,1-3.22,2.25c-.34,6.81,10.06,8.12,12.71,6.35-1.05-3.93.52-5.11,1.72-6.17a42.6,42.6,0,0,1,3.75-2.54c.79-.52,1.2-1.62.7-2s-1.51.28-2,.84c-.7.79-1.93,2.66-3.87,2.15-2.33-.62-1.32-3.29-1.72-4.73-2.49-9.08-.36-15.43,8.72-19.22,0,0,3.46-3.65,6.56-2s1.13,6.42,1.13,6.42l.91.43c3.31-6,8.11-10.39,15-10.56,4.88-.12,7.23,2.75,7.42,6.69.43,8.76-8.54,5.5-7.84,2.23a4.86,4.86,0,0,0-3.36,2.13c0-.55.07-5.76-4.58-3-1.32.79-3.67,4.71-3.84,5.21-.58,1.73.26,2-.64,3.7-.71,1.31-1.69,1.62-2.11,2.53s.17,2.75-.41,3.91c-.71,1.42-1.69,1.54-2.33,2.82-.52,1-7,17.57-7,17.57s2.59,1.66,2.09,4.11c-.65,3.3-2.75,2.59-3.86,4.75q-52.88-13.61-109.42-.16c-1.13-2-3.14-1.37-3.78-4.59-.49-2.45,2.09-4.1,2.09-4.1s-6.49-16.54-7-17.57c-.64-1.29-1.62-1.39-2.33-2.82-.59-1.17,0-3-.4-3.91s-1.42-1.23-2.12-2.54c-.91-1.68-.07-2-.66-3.69-.15-.5-2.51-4.43-3.83-5.22-4.64-2.74-4.57,2.46-4.57,3a4.87,4.87,0,0,0-3.36-2.12c.7,3.27-8.27,6.54-7.85-2.23.19-3.95,2.54-6.82,7.42-6.69,6.89.16,11.68,4.54,15,10.56l.92-.43s-1.84-4.85,1.13-6.43,6.54,2,6.54,2c9.09,3.8,11.22,10.14,8.73,19.22-.39,1.44.61,4.11-1.72,4.73-1.93.5-3.15-1.37-3.86-2.16-.49-.56-1.53-1.21-2-.83s-.1,1.51.71,2c.35.23,2.88,1.79,3.73,2.54,1.2,1.07,2.77,2.25,1.73,6.17,2.65,1.77,13,.45,12.71-6.35a2.52,2.52,0,0,1-3.23-2.25c-.16-1.12,1.17-2.09,3.05-2.73a7.5,7.5,0,0,1-1.63-4.25c-.2-3.25,1.74-5.78,4.32-5.68s4.82,2.84,5,6.1a6.44,6.44,0,0,1-.54,3.1c1.93.28,3.36,1,3.37,2.44a1.75,1.75,0,0,1-2.18,1.87c1.74,4.53,14.75,8,23,1.84-1.67,0-2.75-1.92-2.75-1.92m3-16.95a6.1,6.1,0,0,0,12.19.37v-.38a6.1,6.1,0,0,0-12.19,0m33.6,26.42a46.51,46.51,0,0,1,7.76,1,36,36,0,0,1-3.18-4.09s-1.17,1.09-1.87,1.6-2.71,1.5-2.71,1.5m-27.51-5.35a14,14,0,0,1-5.17,3.84l5.09-.12h.15l5.1.12a13.84,13.84,0,0,1-5.17-3.84M197,203.75s-2.15-1.09-2.7-1.5a23.45,23.45,0,0,1-1.88-1.61,35.87,35.87,0,0,1-3.17,4.1,46.5,46.5,0,0,1,7.75-1m80.64,16.45c1.68.46,4.06,2.12,3.4,4.56s-3.54,2.7-5.23,2.24-4.06-2.11-3.41-4.55,3.54-2.7,5.24-2.25m-22.15-.66-5.13,4.31-4.31-5.14,5.13-4.31ZM173.86,227c-1.7.45-4.58.2-5.24-2.25s1.73-4.1,3.41-4.55,4.58-.2,5.24,2.24-1.72,4.1-3.41,4.56m45.64-9.09c0-1.94,2.4-3.5,5.35-3.5s5.36,1.56,5.36,3.5-2.4,3.51-5.36,3.51-5.35-1.57-5.35-3.51m-25.32,1.63,4.31-5.14,5.13,4.31-4.31,5.14Zm-44,155.06c.59-2.33,3.08-1.81,3.08-1.81a2.68,2.68,0,0,1,1.59-3.14c2.44-1.08,3.65,1.6,3.65,1.6l1,6.91-7.38-.25a2.72,2.72,0,0,1-2-3.31m10.45-11.44c.58-2.33,3.07-1.81,3.07-1.81a2.69,2.69,0,0,1,1.6-3.14c2.43-1.08,3.64,1.59,3.64,1.59l1,6.92-7.37-.25a2.71,2.71,0,0,1-2-3.31m10.44-11.45a2.56,2.56,0,0,1,3.07-1.8,2.71,2.71,0,0,1,1.6-3.15c2.43-1.07,3.65,1.6,3.65,1.6l1,6.91-7.38-.24a2.72,2.72,0,0,1-2-3.32m53.5-106c.58-2.33,3.07-1.81,3.07-1.81a2.68,2.68,0,0,1,1.6-3.14c2.43-1.09,3.64,1.6,3.64,1.6l1,6.91-7.37-.25a2.72,2.72,0,0,1-2-3.31m10.21,39a2.55,2.55,0,0,1,3.06-1.81,2.68,2.68,0,0,1,1.6-3.13c2.43-1.09,3.64,1.58,3.64,1.58l1,6.92-7.37-.24a2.71,2.71,0,0,1-2-3.32m12.24-13a2.55,2.55,0,0,1,3.07-1.81,2.69,2.69,0,0,1,1.6-3.14c2.44-1.09,3.65,1.59,3.65,1.59l1,6.92-7.37-.25a2.73,2.73,0,0,1-2-3.31m12.26-13c.59-2.32,3.07-1.79,3.07-1.79a2.69,2.69,0,0,1,1.61-3.14c2.43-1.1,3.64,1.58,3.64,1.58l1,6.92-7.37-.25a2.71,2.71,0,0,1-2-3.32m12.25-13a2.56,2.56,0,0,1,3.07-1.8,2.69,2.69,0,0,1,1.6-3.14c2.43-1.09,3.64,1.59,3.64,1.59l1,6.91-7.36-.24a2.74,2.74,0,0,1-2-3.32M143.3,333.16c.58-2.33,3.07-1.8,3.07-1.8a2.68,2.68,0,0,1,1.59-3.14c2.44-1.1,3.65,1.58,3.65,1.58l1,6.92-7.37-.25a2.71,2.71,0,0,1-2-3.31m28.45,69.45c.58-2.33,3.07-1.82,3.07-1.82a2.67,2.67,0,0,1,1.6-3.13c2.44-1.09,3.65,1.59,3.65,1.59l1,6.92-7.38-.25a2.73,2.73,0,0,1-2-3.31m12.12-13.18a2.55,2.55,0,0,1,3.06-1.8,2.7,2.7,0,0,1,1.61-3.14c2.43-1.09,3.64,1.59,3.64,1.59l1,6.92-7.37-.25a2.72,2.72,0,0,1-2-3.32M196,376.26a2.57,2.57,0,0,1,3.07-1.81,2.69,2.69,0,0,1,1.6-3.14c2.43-1.09,3.64,1.59,3.64,1.59l1,6.92-7.38-.25a2.71,2.71,0,0,1-2-3.31m12.11-13.18c.58-2.33,3.07-1.81,3.07-1.81a2.68,2.68,0,0,1,1.59-3.13c2.44-1.1,3.65,1.58,3.65,1.58l1,6.92-7.37-.25a2.72,2.72,0,0,1-2-3.31m53.36-56a2.56,2.56,0,0,1,3.07-1.8,2.68,2.68,0,0,1,1.61-3.13c2.43-1.1,3.64,1.57,3.64,1.57l1,6.92-7.37-.24a2.72,2.72,0,0,1-2-3.32m10.92-11.92c.59-2.32,3.07-1.8,3.07-1.8a2.68,2.68,0,0,1,1.6-3.14c2.43-1.09,3.65,1.58,3.65,1.58l1,6.92-7.38-.25a2.71,2.71,0,0,1-2-3.31m10.92-11.91a2.57,2.57,0,0,1,3.07-1.81,2.69,2.69,0,0,1,1.6-3.14c2.44-1.09,3.65,1.59,3.65,1.59l1,6.92-7.37-.25a2.73,2.73,0,0,1-2-3.31m10.94-11.92a2.56,2.56,0,0,1,3.07-1.8,2.69,2.69,0,0,1,1.6-3.14c2.43-1.09,3.64,1.59,3.64,1.59l1,6.92-7.37-.26a2.71,2.71,0,0,1-2-3.31m-84.81,143a2.57,2.57,0,0,1,3.07-1.81,2.68,2.68,0,0,1,1.6-3.13c2.43-1.09,3.64,1.59,3.64,1.59l1,6.91-7.37-.24a2.74,2.74,0,0,1-2-3.32m84.86-93.91a2.56,2.56,0,0,1,3.07-1.82,2.69,2.69,0,0,1,1.6-3.14c2.43-1.08,3.64,1.6,3.64,1.6l1,6.91-7.37-.24a2.73,2.73,0,0,1-2-3.31m-82.07,9.41c0-.36.58-.3,1.68-.49s2.08-.55,2.08-.17c0,.55-.76.12-.76,1v8.61c0,.43.58.12.58.46s-1,.25-1.8.25-1.81.17-1.81-.16c0-.58.7,0,.7-.55v-8.18c0-.86-.67-.07-.67-.78m-9.35,3.74c0-.24.3-.27.85-.55s.89-.6,1.38-.15,3.16,3.49,3.16,3.49V332c0-.49-.86.15-.86-.34s.37-.36,1-.61,1.5-.91,1.5-.49-.64.36-.64,1.05V340c0,.71-.06.71-.36.71s-4.43-5.35-4.43-5.35V341c0,.52,1-.2,1,.29,0,.28-.61.43-1.23.67s-1.47.65-1.47.35c0-.52.77-.35.77-.86v-7.38c0-.55-.68-.12-.68-.55m-3.32,5.25c0-3.55-2.26-2.23-2.26-2.23v7.29s2.26,0,2.26-5.06m-5.3-1.47c0-.26,1.1-.67,1.84-1,1.31-.61,5.57-2.78,5.57,2.46,0,4.81-3.37,5.61-4.44,6.09s-2.52,1.2-2.63,1,.58-.44.58-1.3v-6c0-1.51-.92-.73-.92-1.23m14.84-21.7c0-.23.87-.38,1.32-.5.77-.21,1.26-.36,1.57,0s1.9,2.87,1.9,2.87,2-2.87,2.18-3.06.23-.46,1-.48,1.34-.12,1.34.08c0,.36-.58.18-.61.92,0,.58,0,7.43,0,7.81,0,.87.6.58.6.87s-.38.16-1.75.15c-1.12,0-1.88.15-1.88-.07,0-.38.6-.07.6-.85V318.1s-2,2.87-2.06,2.87-2.51-3.66-2.51-3.66v6.25c0,1,1,.42,1,.82,0,.19-.76.28-1.31.41s-1.21.4-1.28.22c-.13-.38.7-.17.7-1.3s0-6.74,0-7.16c-.05-1.1-.81-.62-.84-.93m-2.83,1.08c.34-.15,1.21-.62,1.31-.49s-.35.27-.7,1.78c-.13.55-1.78,9.22-2.39,9.53-.19.1-3-6.83-3.25-7.38-.45-1-.94-.33-1-.67s.7-.51,1.33-.8c.35-.15,1.57-.9,1.71-.75s-.67.3-.23,1.35c.3.71,1.86,4.17,1.86,4.17s.92-3.89,1.2-5.2-.73-.66-.77-.95.49-.38.92-.56Zm-10.74,9.11v4.75a3.33,3.33,0,0,0,2.46-3.47c0-2.54-2.46-1.28-2.46-1.28m0-4.18v3.15s1.79-.65,1.79-2.2c0-1.83-1.79-.95-1.79-.95m.19-.82c1-.4,3.76-.95,3.76,1.41a2,2,0,0,1-1.1,2.07s2,.37,2,2a4.11,4.11,0,0,1-2,3.77c-.53.29-3.8,1.86-4.11,2s-1,.59-1.11.4c-.18-.41.54-.35.54-1.56v-7.64c0-1.62-.77-.9-.77-1.32,0-.26,1.69-.8,2.76-1.2m17-21.5v3.86A2,2,0,0,0,214.5,301c0-2.48-1.81-1.65-1.81-1.65m4.79,8.61a1,1,0,0,0,.8-.15,1.6,1.6,0,0,1-1.62,1.37c-2,0-1.93-3.36-2.49-4.34a1,1,0,0,0-1.47-.46v3.43c0,1.1.69.62.69,1,0,.16-.54.26-.54.26s-1.49.42-2,.55-.8.25-.8,0c0-.43.55-.15.55-1.35v-7.09c0-1.37-.79-.91-.81-1.31,0-.23.55-.34,1.1-.48.92-.23,1.27-.51,2.58-.82s3.5.31,3.5,2.07a2.92,2.92,0,0,1-1.72,2.82c2.27,1.1,1.25,4.34,2.27,4.47m-14.89-5a27.85,27.85,0,0,0,4.29-2c.24-.13,1-.58,1.29.07s.61,1.53.4,1.62-.52-.12-.92-.35a1.76,1.76,0,0,0-1.23-.27,9.92,9.92,0,0,0-1,.38v3s1.06,0,1.19-.58.29-1.08.62-1.17.14.57.16,1.44l0,.62c0,1.07,0,1.41-.2,1.44s-.54-.71-.6-.89c-.13-.33-1.21,0-1.21.14v4.34l1.19-.65a6.75,6.75,0,0,0,1.67-1.84c.32-.57.45-1,.75-1s-.22,1.9-.22,1.9a1.27,1.27,0,0,1-.64,1c-.6.31-4,1.91-4.33,2.05-.59.28-1.29.78-1.3.51,0-.44.56-.21.56-1.47V304s0-.6-.49-.69-.69-.21,0-.44m-8,3.33c.49-.18,1.89-.78,2-.61.19.44-.73.35-.42,1.21s1.87,4.57,1.87,4.57l1.41-5.51c.3-1.2-.66-.78-.75-1.07s.71-.44,1.14-.62,1.49-.65,1.55-.5c.15.38-.43.38-.73,1.45-.37,1.28-2.51,9.91-3.11,10.23-.34.18-3.29-7.27-3.52-7.84s-1-.36-1.1-.71c0-.13,1.19-.44,1.69-.6m38.81,23.9c0-.23.33-.14.85,0a2.33,2.33,0,0,1,1.58,1c.42.7,3.65,6.22,3.65,6.22l0-5c0-.66-.58-.68-.58-.95s.44,0,.91.16,1.14.23,1.14.44-.59-.1-.59.49v9.39s0,.41-.28,0-5.06-8.08-5.06-8.08,0,4.89,0,5.39.63.52.63.81-.69.14-1.11.06-1.07,0-1.07-.38.58.2.58-.68v-8c0-.61-.61-.65-.63-1m4.56-14.4c0-.35,1.54.27,2.75.62s3.47.72,3.47,1.46c0,.9.24,1.77,0,1.77s-.56-1.14-.92-1.52a4.38,4.38,0,0,0-2-.87c-.32-.06-.24,0-.24.17v2.93s.78.37,1.21.18.48-.86.74-.82.15.59.12,1.59.08,1.93-.18,1.83-.27-.95-.79-1.47a2.16,2.16,0,0,0-1.11-.57v4.75a1.71,1.71,0,0,0,1.79.26c1.21-.39,2.06-1.21,2.26-1s.1.46-.49,1.38-.89,1.5-1.48,1.24-1.9-.76-2.72-1.11-2.51-.79-2.51-1.13.84.29.84-.72v-8.15c0-.39-.67-.51-.67-.8m-2-1.38c.43,0,.34,1.57.4,2.08.12,1,.42,1.85.11,1.87-.46,0-1-1.54-1.78-2.31s-3.3-2.05-3.3,3.43c0,4.69,2,4.6,3.16,4.25s1.54-1.21,1.67-1.12a3.85,3.85,0,0,1-3.18,2.58c-2.27.25-4.49-2-4.49-5.47s1.71-5.64,3.88-5.64c1.73,0,2.24,1.2,3,1.2.5,0,.05-.87.55-.87m5.86-12.46c.09-.43.87.12,2.16.64s2.21.8,2.14,1-1-.14-.88.46,1.55,5.33,1.55,5.33,1.67-4,1.71-4.12c.12-.49-.44-.57-.39-.81s.58.09,1,.32,1.07.44.95.72-.6-.35-.8.12-3.54,8-3.54,8l-3.34-10.79c-.19-.63-.6-.56-.54-.86M234.21,299c0-.26.47-.05.47-.05l3,1.08s.53.17.51.41-1-.3-1,.59v8.38s.22.56,1.21.16a18.52,18.52,0,0,0,2.47-1.39s.7-.35.53.14-.88,2-.88,2-.15.6-.95.47-2.76-.74-3.31-.9-2.05-.61-2.05-.61-.31-.06-.31-.3,1,0,1-.74v-8.16c0-.74-.59-.76-.59-1.11m11.51,29.6c0-.58.81.22.81-.7v-8.09c0-1-.46-1-.46-1.37s.88.18,1.09.28,2.54,1.29,2.79,1.41a4.32,4.32,0,0,1,2.73,3.86c0,1.87-1.56,1.56-1.56,1.56a3.43,3.43,0,0,1,1.65,2.29c.1,1.37.28,2.54.28,2.73s.28,1,1.13.24c0,0,.1,1.65-1.78,1a2.56,2.56,0,0,1-1.65-2.3c-.1-.77-.52-4.45-2.18-4.4v3.7c0,1,.58.71.58,1.3,0,.36-.85-.22-1.61-.53-1.14-.53-1.82-.69-1.82-1m2.86-8.23v3.76c.25.1,2.11,1.29,2.11-1.05a2.66,2.66,0,0,0-2.11-2.71m-4.1,14.11c.17-.6-.38-.76-.27-1s.84.23,1.31.43,1.16.4,1.34,1l2.82,9.58c.26.85.76.61.61,1-.06.16-.77-.18-2.16-.73-1.16-.46-1.74-.6-1.74-.79,0-.38,1.17.24.9-.56-.19-.54-.59-1.94-.59-1.94l-3.23-1.05L243,342c-.23.79.5.65.36.94s-.53,0-1.13-.29-.82-.28-.8-.44.49.12.7-.44,2.16-6.82,2.34-7.31m.51,1.06-1.13,3.63,2.51.84ZM309.71,234.1V341.59c1.19,64.2-51.34,87-86,87s-87.18-22.78-86-87V234.1h32a7.54,7.54,0,0,1,.41-3.43c43.8-8.77,65-9.19,108.72,0a4.19,4.19,0,0,1,1,3.41ZM153.76,389.9l33.57-35.75V343.72l-3.8-.14a2.72,2.72,0,0,1-2-3.31c.58-2.34,3.07-1.81,3.07-1.81a2.68,2.68,0,0,1,1.6-3.13,2.78,2.78,0,0,1,1.1-.27v-6.93l-41.94,44.66a73,73,0,0,0,8.37,17.11m41.77-91.35c.45-.2.91-.42,1.37-.65,1.62-.82,4.54-2.34,7.67-3.66s6.74-2.58,9.67-2.58a14.54,14.54,0,0,1,8.82,3l.16.14a6.43,6.43,0,0,1,1.75-1.62,12.92,12.92,0,0,1,6.95-1.61c3.47,0,7.38,1.39,10.53,2.81l.72.34,53.93-57.44H272.66l-47.5,50.58V263.49l24.64-26.24H140.88V341.62a105.27,105.27,0,0,0,.38,11.23l23.5-25h22.58V307.87a1.14,1.14,0,0,1-1.07.48s.57-1.73-1-2a2.43,2.43,0,0,0-.38,0,2.93,2.93,0,0,0-1.93.87c-.83.67-3.3,3.56-3.78,4-.48-.47-3-3.36-3.79-4a2.88,2.88,0,0,0-1.92-.87l-.39,0c-1.56.25-1,2-1,2s-1.42.23-1.42-1.94a2.9,2.9,0,0,1,2.3-2.72c1.63-.36,3.23-.48,3.54-3.18,0-.55-.08-.65-.08-.65a5.14,5.14,0,0,1-2,1.58c-1.67.86-6.2.81-6.09,3.41,0,1,1.1.94,1.1.94s-.06.47-.82.58a3.12,3.12,0,0,1-.61,0c-1.05-.15-1.4-1.27-1.32-2.67.06-.86-.53-2-1.66-1.86a2.43,2.43,0,0,0-.64.22,1.1,1.1,0,0,0-.56,1.33,1.74,1.74,0,0,1-.84-1.69c.13-1,.78-1.43,1.7-1.81l.34-.07a5,5,0,0,1,2.16.18,4.5,4.5,0,0,1-.18-1.79,1.87,1.87,0,0,1,1.64-1.75c1.71-.33,2.07.83,1.82,1.45-.1.07-.39-.39-.88-.32l-.23.07a1.2,1.2,0,0,0-.54.55c-.29.67.28,1.54.37,1.67a2.94,2.94,0,0,0,2.72.54,4.94,4.94,0,0,0,3.14-2.21,2,2,0,0,0,.36-1.17l.83-9.24s.27-2.37-1.35-2.65a1.42,1.42,0,0,0-.58,0c-1.36.21-2.78,2-2.33,4.32.34,1.75-.56,3.08-1.42,3.27-1.09.26-1.76.05-2.14-.76,1.91-.12,1.79-1.66,1.19-2.21a1.3,1.3,0,0,0-1.07-.23c-1.79.28-4.61,2.74-5.06,4.21-.41,1.31.58,1,1,2.08a1.59,1.59,0,0,1-.42,1.61,5.34,5.34,0,0,1-.12.77c-.2.78-.6,1-1,1.08a1.44,1.44,0,0,1-.71-.09,1.13,1.13,0,0,0,.66-1,1.87,1.87,0,0,0,0-.45s-.53.06-1-.65.12-1.11-.47-2a5.91,5.91,0,0,0-3.57-2,.65.65,0,0,0-.24,0c-.26,0-.5.16-.89.22a1.58,1.58,0,0,1-.38,0c-1,0-.74-.6-1.58-.53-.44.09-.69.51-.55,1.1a.12.12,0,0,1,0,.14,1.55,1.55,0,0,1-.69-1.26,2.2,2.2,0,0,1,1.65-2.34,1.55,1.55,0,0,1,1.46.6c.53-2.21-1.21-1.46-2-2.51a1.18,1.18,0,0,1-.26-1.37c.11-.4-.59-.45-1.11-.36a2.36,2.36,0,0,0-.38.1c-.11-.11.16-1.13,1.26-1.3a2.78,2.78,0,0,1,1.45.21,1.13,1.13,0,0,1,1.3.49c.24.46,0,1,.11,1.55.17,1.47,1.07,1.43,1.21,1.42a2.72,2.72,0,0,1,.31-3.06.76.76,0,0,0-.54-1c-.12,0-.26-.12-.09-.17,0,0,2-.09,2.32,1.23a1.84,1.84,0,0,1,.89,1.56,1.73,1.73,0,0,1-1,1.75c.2,1.41,1,1.65,1.82,1.54a4.39,4.39,0,0,0,1.49-.59c1.32-.52,4.07-2.22,3.33-3.61a1.44,1.44,0,0,0-1.51-.82,2.21,2.21,0,0,0-.89.38,1.65,1.65,0,0,0-.39,1.76c-1.22.33-1.79-1.79-1-2.67a3,3,0,0,1,1.87-1c.8-.14,1.65-.11,2.47-.28a3.58,3.58,0,0,0,2.42-2,3.29,3.29,0,0,0,.09-3,4.3,4.3,0,0,0-2.8-2.63,7.34,7.34,0,0,1-3,5.17,3.07,3.07,0,0,1-1.21.46c-.27,0-.44,0-.38-.06a5.9,5.9,0,0,0,1.43-5,10.58,10.58,0,0,1-4.5,4.38,3.49,3.49,0,0,1-.84.23c-1.51.24-3-.46-2.41-.54a6,6,0,0,0,3.79-7.4,16.23,16.23,0,0,1-4.09,4.91,6.65,6.65,0,0,1-2.74,1.08c-1.71.28-3-.2-2.77-.43,0,0,4.72-2.23,4.78-4.36a7,7,0,0,1-2.92,1.34c-.2,0-.4,0-.6,0-4,0-4-2.89-4-2.89.28,0,4,.27,7.1-6.24a21.77,21.77,0,0,1-4.31.95c-1.36.15-1.94-.7-1.78-.69a1.67,1.67,0,0,0,.86.05,7.77,7.77,0,0,0,3.21-1.65c-.38-.14-5.31-2.32-3.4-5.71a6,6,0,0,0,3,1.34c1.24.11,3.38-.12,3.91-1.36a12.23,12.23,0,0,1-5.27-1.8c-1.54-1-2.14-3.24-1.57-2.58a3.37,3.37,0,0,0,2,1.1,2.23,2.23,0,0,0,1.16,0s-3.82-3.63-1.4-6.43c0,0,1.29,3.61,4.46,3.62a7.08,7.08,0,0,1-1.93-3.28c-.23-1.23-.13-2.86.1-2.39.15.32.5.9.72,1.31A9.82,9.82,0,0,0,156.2,252a6.64,6.64,0,0,1,.17-3.6c.1-.26,1-1.7,1-1.34,0,0,0,1.13.07,1.5.2,1.22.66,2.74,3,5.08,2.91,3,6.07,2.94,6.09,4.8-.11,2.21-2.83,1.92-4.62,1.76-.62,0-.54.95,0,1.63,1.49,2,7.78,2.47,9.75-.76a4.2,4.2,0,0,0,.42-3.74c-.59-1.68-1.95-1.73-4.52-2.28-1.82-.39-1.32-1.21-1.06-1.21a2.59,2.59,0,0,0,1.09.32c1.35,0,.53-1.73.38-1.71a20.68,20.68,0,0,1-3.05.75c-1.59.13-3.5-.5-3.5-1.61,0-1.32,1.67-1.7,1.59-1.35,0,.09-1,1.89,1.93,1.8a18.51,18.51,0,0,0,2.8-.22,1.87,1.87,0,0,0-1.59-1.2,11.16,11.16,0,0,1-1.84,0c-.33-.8.54-1.59,1.12-1.89s1-.15,1.28-.25.55-1.21,2.52-1.24c1,0,2.53.7,3.23.7s1.91-.45,2-.23-.49.94-.36,1.56c-.06,1.44,2.43,7.12,5.06,7.67,2.62-.55,5.12-6.23,5.06-7.67.12-.62-.5-1.33-.37-1.56s1.35.23,2,.23,2.19-.72,3.23-.7c2,0,2.18,1.11,2.52,1.24s.67-.05,1.27.25,1.45,1.09,1.13,1.89a10.22,10.22,0,0,1-1.85,0,1.88,1.88,0,0,0-1.59,1.2,18.51,18.51,0,0,0,2.8.22c3,.1,2-1.71,1.94-1.8-.08-.35,1.59,0,1.59,1.35,0,1.11-1.91,1.75-3.5,1.61a20.91,20.91,0,0,1-3.06-.75c-.14,0-1,1.72.38,1.71a2.54,2.54,0,0,0,1.1-.32c.27,0,.76.82-1.06,1.21-2.58.57-3.94.62-4.53,2.3a4.26,4.26,0,0,0,.41,3.74c2,3.23,8.28,2.75,9.77.75.51-.67.6-1.62,0-1.62-1.78.16-4.5.44-4.62-1.77,0-1.85,3.19-1.83,6.1-4.79,2.29-2.34,2.76-3.87,3-5.08,0-.36.07-1.51.07-1.51.06-.36.95,1.08,1.05,1.35a6.76,6.76,0,0,1,.17,3.6,9.81,9.81,0,0,0,1.91-2.25c.23-.42.58-1,.73-1.32s.31,1.17.09,2.39a6.94,6.94,0,0,1-1.92,3.29c3.18,0,4.46-3.62,4.46-3.62,2.42,2.8-1.41,6.43-1.41,6.43a2.23,2.23,0,0,0,1.16,0,3.37,3.37,0,0,0,2-1.1c.57-.66,0,1.62-1.57,2.58a12.29,12.29,0,0,1-5.27,1.79c.52,1.24,2.67,1.47,3.9,1.36a6,6,0,0,0,3-1.33c1.9,3.38-3,5.57-3.39,5.73a7.5,7.5,0,0,0,3.2,1.65,1.82,1.82,0,0,0,.86-.06c.16,0-.41.85-1.79.7a21.59,21.59,0,0,1-4.3-1c3.07,6.52,6.82,6.27,7.11,6.24,0,0,0,2.9-4,2.9a6,6,0,0,1-.61-.05,7,7,0,0,1-2.92-1.34c.07,2.13,4.78,4.38,4.78,4.38.24.21-1.07.69-2.76.41a6.49,6.49,0,0,1-2.75-1.07,16.31,16.31,0,0,1-4.09-4.92,6,6,0,0,0,3.79,7.4c.6.08-.91.78-2.41.55a3.78,3.78,0,0,1-.83-.24,10.51,10.51,0,0,1-4.51-4.38,5.93,5.93,0,0,0,1.43,5c.06.1-.11.11-.38.07a3.3,3.3,0,0,1-1.21-.46,7.45,7.45,0,0,1-3.06-5.17,4.28,4.28,0,0,0-2.78,2.62,3.32,3.32,0,0,0,.08,3.05,3.58,3.58,0,0,0,2.43,2.05c.81.16,1.66.13,2.45.27a3,3,0,0,1,1.88,1c.76.88.18,3-1,2.67a1.69,1.69,0,0,0-.39-1.77,2.06,2.06,0,0,0-.89-.37,1.42,1.42,0,0,0-1.51.81c-.74,1.39,2,3.09,3.33,3.62a4.61,4.61,0,0,0,1.49.58c.78.12,1.62-.12,1.82-1.54a1.7,1.7,0,0,1-1-1.75,1.85,1.85,0,0,1,.9-1.55c.31-1.32,2.31-1.23,2.31-1.23.18.05,0,.13-.09.17a.77.77,0,0,0-.54,1,2.72,2.72,0,0,1,.31,3.05c.13,0,1,.06,1.21-1.41.06-.57-.13-1.09.11-1.56a1.14,1.14,0,0,1,1.31-.49,2.75,2.75,0,0,1,1.45-.21,1.68,1.68,0,0,1,1.35,1.2s0,.12-.11.1a2.22,2.22,0,0,0-.37-.09c-.53-.09-1.22,0-1.11.36a1.19,1.19,0,0,1-.27,1.37c-.83,1.06-2.56.31-2,2.51a1.53,1.53,0,0,1,1.47-.6,2.21,2.21,0,0,1,1.64,2.35,1.54,1.54,0,0,1-.68,1.25.15.15,0,0,1-.06-.14c.14-.6-.1-1-.55-1.1-.83-.08-.56.56-1.59.53a1.54,1.54,0,0,1-.37,0c-.39-.06-.63-.19-.88-.22a.65.65,0,0,0-.24,0,5.83,5.83,0,0,0-3.57,2c-.6.9.08,1.17-.47,2s-1,.65-1,.65a2.79,2.79,0,0,0,0,.45c0,.1,0,.2.05.3m-3.44,1.3a25.23,25.23,0,0,0,2.64-1,2,2,0,0,1-.28-.65,3.34,3.34,0,0,1-.12-.77,1.57,1.57,0,0,1-.42-1.6c.42-1.1,1.4-.78,1-2.09-.46-1.47-3.28-3.93-5.07-4.2a1.28,1.28,0,0,0-1.06.23c-.59.55-.72,2.08,1.19,2.21-.39.81-1.05,1-2.15.76-.86-.19-1.76-1.54-1.41-3.28.45-2.27-1-4.09-2.34-4.31a1.56,1.56,0,0,0-.57,0c-1.62.26-1.36,2.64-1.36,2.64l.84,9.23a1.92,1.92,0,0,0,.36,1.17,5,5,0,0,0,3.14,2.22,3,3,0,0,0,2.72-.55,2,2,0,0,0,.36-1.68,1.18,1.18,0,0,0-.54-.54.62.62,0,0,0-.23-.07c-.48-.08-.79.37-.88.32-.25-.63.12-1.78,1.82-1.46a1.88,1.88,0,0,1,1.65,1.75,4.73,4.73,0,0,1-.19,1.8,4.53,4.53,0,0,1,.9-.19m-4.75,3.29a2.55,2.55,0,0,1,0-.73,24.25,24.25,0,0,1-3.39-1,5.16,5.16,0,0,1-2-1.58s-.09.12-.07.65c.3,2.7,1.91,2.81,3.54,3.18a3.28,3.28,0,0,1,1.94,1.4Zm58.19,52a2.31,2.31,0,0,0,.13,2c1.35,1.79,6.66,2.35,9.11,0-3.17-.5-6.17-1.32-9.24-2.06m14.78-5a4.89,4.89,0,0,0,2.63,2.09c2.63-.53,5.13-6.23,5.06-7.67.12-.61-.48-1.32-.36-1.55s1.36.22,2,.22,2.2-.71,3.23-.69c2,0,2.17,1.1,2.51,1.23s.69,0,1.28.26,1.45,1.09,1.13,1.88a10.26,10.26,0,0,1-1.85,0,1.87,1.87,0,0,0-1.59,1.21,20.54,20.54,0,0,0,2.8.21c2.94.1,2-1.7,1.93-1.79-.06-.35,1.6,0,1.6,1.35,0,1.1-1.91,1.74-3.5,1.6a18.55,18.55,0,0,1-3.06-.75c-.14,0-1,1.72.38,1.71a2.6,2.6,0,0,0,1.1-.32c.27,0,.76.82-1.07,1.21-2.57.57-3.92.61-4.52,2.29a4.24,4.24,0,0,0,.41,3.73c2,3.23,8.28,2.75,9.77.77.51-.68.6-1.63,0-1.63-1.78.15-4.5.44-4.62-1.78,0-1.84,3.18-1.82,6.1-4.79,2.29-2.33,2.75-3.87,2.95-5.08.06-.36.08-1.49.08-1.49.06-.36.94,1.07,1.05,1.33a6.73,6.73,0,0,1,.16,3.61,9.91,9.91,0,0,0,1.93-2.26c.22-.42.57-1,.71-1.31.23-.47.33,1.16.11,2.38a6.92,6.92,0,0,1-1.93,3.29c3.17,0,4.46-3.63,4.46-3.63,2.42,2.81-1.41,6.44-1.41,6.44a2.12,2.12,0,0,0,1.16,0,3.48,3.48,0,0,0,2.05-1.1c.56-.66,0,1.61-1.58,2.57a12.33,12.33,0,0,1-5.26,1.8c.52,1.23,2.67,1.47,3.9,1.35a6,6,0,0,0,3-1.33c1.9,3.38-3,5.57-3.39,5.73a7.49,7.49,0,0,0,3.21,1.64,1.57,1.57,0,0,0,.85-.05c.16,0-.42.85-1.79.7a21.37,21.37,0,0,1-4.3-1c3.07,6.52,6.82,6.27,7.1,6.24,0,0,0,2.89-4,2.89a4.08,4.08,0,0,1-.61,0,7.19,7.19,0,0,1-2.92-1.33c.06,2.12,4.77,4.36,4.77,4.36.25.22-1.06.7-2.76.43a6.53,6.53,0,0,1-2.74-1.09,16.48,16.48,0,0,1-4.09-4.9,6,6,0,0,0,3.8,7.4c.59.07-.91.77-2.41.54a3.1,3.1,0,0,1-.84-.24,10.52,10.52,0,0,1-4.51-4.37,6,6,0,0,0,1.43,5c.07.07-.11.09-.37.05a2.93,2.93,0,0,1-1.21-.46,7.36,7.36,0,0,1-3.06-5.17,4.29,4.29,0,0,0-2.79,2.62,3.32,3.32,0,0,0,.08,3,3.64,3.64,0,0,0,2.44,2.06c.8.16,1.66.12,2.45.27a3,3,0,0,1,1.88,1c.75.9.18,3-1,2.68a1.65,1.65,0,0,0-.39-1.76,1.88,1.88,0,0,0-.88-.38,1.42,1.42,0,0,0-1.51.82c-.74,1.39,2,3.09,3.33,3.62a4.57,4.57,0,0,0,1.49.57c.78.12,1.62-.11,1.83-1.53a1.68,1.68,0,0,1-1-1.76,1.88,1.88,0,0,1,.89-1.55c.31-1.31,2.32-1.23,2.32-1.23.17.05,0,.13-.1.17a.78.78,0,0,0-.54,1,2.69,2.69,0,0,1,.31,3.05c.14,0,1.05.06,1.21-1.41.07-.57-.13-1.09.11-1.55a1.12,1.12,0,0,1,1.31-.49,2.75,2.75,0,0,1,1.45-.21,1.7,1.7,0,0,1,1.36,1.19s0,.13-.11.11a1.26,1.26,0,0,0-.38-.1c-.53-.08-1.22,0-1.1.36a1.19,1.19,0,0,1-.28,1.36c-.83,1.08-2.56.32-2,2.53a1.49,1.49,0,0,1,1.47-.61,2.21,2.21,0,0,1,1.64,2.35,1.52,1.52,0,0,1-.69,1.24.12.12,0,0,1-.05-.12c.14-.61-.11-1-.55-1.12-.84-.06-.56.57-1.59.54a2.43,2.43,0,0,1-.38,0c-.38-.06-.62-.19-.88-.23a1,1,0,0,0-.24,0,5.87,5.87,0,0,0-3.57,2c-.59.9.08,1.16-.47,2s-1,.67-1,.67a2.29,2.29,0,0,0,0,.45c.05.36.19.81.64.9,0,0,.15.07,0,.11a1.74,1.74,0,0,1-.72.08c-.36-.06-.77-.31-1-1.08a4.21,4.21,0,0,1-.12-.78,1.59,1.59,0,0,1-.42-1.6c.42-1.11,1.41-.78,1-2.09-.45-1.47-3.28-3.93-5.06-4.2a1.25,1.25,0,0,0-1.06.23c-.6.55-.73,2.07,1.18,2.21-.38.8-1.05,1-2.14.77-.86-.21-1.76-1.55-1.41-3.29.44-2.27-1-4.1-2.34-4.32a1.88,1.88,0,0,0-.58,0c-1.61.28-1.35,2.65-1.35,2.65l.83,9.24a2,2,0,0,0,.37,1.18,4.9,4.9,0,0,0,3.14,2.2,3,3,0,0,0,2.71-.52,2.05,2.05,0,0,0,.38-1.68,1.25,1.25,0,0,0-.54-.55l-.23-.08c-.48-.06-.79.38-.89.33-.25-.62.12-1.78,1.83-1.45a1.87,1.87,0,0,1,1.64,1.75,4.42,4.42,0,0,1-.19,1.78,4.87,4.87,0,0,1,2.17-.16l.33.07c.92.37,1.57.82,1.7,1.8a1.76,1.76,0,0,1-.83,1.69,1.1,1.1,0,0,0-.57-1.32,2.11,2.11,0,0,0-.64-.22c-1.14-.17-1.72,1-1.65,1.86.07,1.4-.28,2.51-1.33,2.66a3,3,0,0,1-.6,0c-.77-.12-.83-.59-.83-.59s1.14.11,1.1-.94c.12-2.59-4.42-2.53-6.1-3.41a5.2,5.2,0,0,1-2-1.58s-.1.12-.08.65c.31,2.7,1.92,2.81,3.54,3.19a2.89,2.89,0,0,1,2.3,2.72c0,2.16-1.42,1.92-1.42,1.92s.56-1.72-1-2l-.39,0a2.87,2.87,0,0,0-1.92.86c-.84.66-3.3,3.56-3.79,4-.48-.47-2.95-3.37-3.78-4a2.92,2.92,0,0,0-1.93-.86l-.38,0c-1.57.24-1,2-1,2s-1.42.24-1.42-1.92a2.89,2.89,0,0,1,2.29-2.72c1.63-.37,3.24-.49,3.54-3.19,0-.54-.07-.65-.07-.65a5.24,5.24,0,0,1-2,1.58c-1.68.87-6.21.82-6.1,3.41,0,1,1.1.94,1.1.94s-.06.47-.82.59a3.11,3.11,0,0,1-.61,0c-1.05-.15-1.39-1.26-1.32-2.66.06-.88-.51-2-1.65-1.86a2.08,2.08,0,0,0-.65.22,1.1,1.1,0,0,0-.56,1.32,1.77,1.77,0,0,1-.84-1.69c.13-1,.79-1.43,1.7-1.8l.34-.07a5.23,5.23,0,0,1,2.17.16,4.38,4.38,0,0,1-.19-1.75,1.91,1.91,0,0,1,1.66-1.75c1.7-.33,2.07.83,1.81,1.46-.1.06-.4-.39-.88-.33a1.15,1.15,0,0,0-.77.62,2,2,0,0,0,.37,1.68,3,3,0,0,0,2.72.53,4.92,4.92,0,0,0,3.14-2.21,1.9,1.9,0,0,0,.36-1.17l.84-9.24s.26-2.38-1.36-2.65a1.56,1.56,0,0,0-.57,0c-1.37.21-2.79,2-2.34,4.32.35,1.75-.55,3.08-1.41,3.28-1.09.25-1.77,0-2.15-.76,1.91-.13,1.8-1.66,1.19-2.21a1.21,1.21,0,0,0-1.06-.24c-1.79.29-4.62,2.75-5.06,4.2s.58,1,1,2.1a1.58,1.58,0,0,1-.41,1.6,4,4,0,0,1-.13.77c-.19.78-.6,1-1,1.08a1.48,1.48,0,0,1-.72-.08,1.17,1.17,0,0,0,.67-1,1.94,1.94,0,0,0,0-.46,1.18,1.18,0,0,1-1-.66c-.54-.84.13-1.09-.47-2a5.72,5.72,0,0,0-3.57-2,1,1,0,0,0-.24,0c-.25,0-.5.17-.88.23a2.31,2.31,0,0,1-.37,0c-1,0-.75-.59-1.59-.53-.44.1-.7.5-.55,1.11a.13.13,0,0,1-.05.13,1.53,1.53,0,0,1-.69-1.25,2.21,2.21,0,0,1,1.64-2.35,1.55,1.55,0,0,1,1.47.61c.52-2.22-1.21-1.46-2-2.53a1.2,1.2,0,0,1-.27-1.36c.12-.39-.58-.44-1.1-.36a1.27,1.27,0,0,0-.38.11c-.11-.11.16-1.13,1.25-1.31a2.78,2.78,0,0,1,1.45.21,1.13,1.13,0,0,1,1.31.49c.24.46,0,1,.11,1.56.17,1.47,1.07,1.43,1.2,1.4a2.7,2.7,0,0,1,.31-3,.76.76,0,0,0-.53-1c-.12,0-.27-.13-.1-.17,0,0,2-.1,2.33,1.22a1.86,1.86,0,0,1,.88,1.56,1.69,1.69,0,0,1-1,1.75c.2,1.42,1,1.66,1.83,1.54a4.38,4.38,0,0,0,1.48-.58c1.32-.52,4.08-2.23,3.34-3.61a1.45,1.45,0,0,0-1.52-.83,2.06,2.06,0,0,0-.88.39,1.65,1.65,0,0,0-.4,1.75c-1.21.33-1.78-1.78-1-2.67a3,3,0,0,1,1.87-1c.8-.14,1.65-.12,2.46-.27a3.65,3.65,0,0,0,2.43-2.06,3.37,3.37,0,0,0,.09-3.06,4.3,4.3,0,0,0-2.8-2.61,7.37,7.37,0,0,1-3,5.16,3.13,3.13,0,0,1-1.22.47c-.26,0-.44,0-.37-.06a5.9,5.9,0,0,0,1.43-5,10.52,10.52,0,0,1-4.5,4.37,3.49,3.49,0,0,1-.84.23c-1.5.24-3-.46-2.41-.54a6,6,0,0,0,3.79-7.39,16.27,16.27,0,0,1-4.08,4.9,6.61,6.61,0,0,1-2.75,1.08c-1.71.27-3-.2-2.76-.43,0,0,4.71-2.23,4.78-4.36a7.12,7.12,0,0,1-2.92,1.33,4.3,4.3,0,0,1-.61.05c-4,0-4-2.89-4-2.89.28,0,4,.28,7.11-6.25a21.58,21.58,0,0,1-4.31,1c-1.37.15-1.94-.7-1.79-.69a1.67,1.67,0,0,0,.86.05,7.64,7.64,0,0,0,3.2-1.64c-.36-.17-5.29-2.35-3.39-5.73a6.14,6.14,0,0,0,3,1.33c1.23.11,3.38-.12,3.9-1.36a12.23,12.23,0,0,1-5.26-1.79l-.24-.16a35.08,35.08,0,0,0-3.69.19,6.93,6.93,0,0,1-13.63.05,24.06,24.06,0,0,0-6.11-.27l-46.19,49.19a78.38,78.38,0,0,0,14.42,10.66l43.19-46v24.34l-27.12,28.89a90.73,90.73,0,0,0,28.61,4.84c33.68,0,84-22.07,82.85-83.81V301.87l-21.59,23H262.14l44.45-47.34v-26L260,301.12a.8.8,0,0,1,.34.6l0,48.42Zm-5,14.9h15.33v-6.16H255.28Zm7.66,12c6.89,0,7.5-6.52,7.5-6.52h-15s.64,6.52,7.54,6.52M171.51,269.76h15.33v-6.15H171.5Zm7.67,12c6.89,0,7.49-6.52,7.49-6.52h-15s.66,6.52,7.55,6.52m41.36,70.89a3.3,3.3,0,1,0,6.6.27,1.31,1.31,0,0,0,0-.28,3.3,3.3,0,0,0-6.6,0M189.43,303v50.57s.55.67,3.93-.24c3.9-1.08,8.72-6,15.48-7.51,5.07-1.09,11.91.5,13.5,1.6V296.75a12.23,12.23,0,0,0-8.09-3c-4.92,0-13.22,4.42-16.4,6a25,25,0,0,1-7.83,2.64c-.64.07-.59.58-.59.58m44.34,42.72c8.78,0,13.36,5.44,16.34,6.63,6.94,2.75,8.1,1.34,8.1,1.34V302.85c0-.5-.74-.5-.74-.5s-6.76-1-9.09-2.46-10.43-6.27-16.45-6.27-7.12,2.58-7.12,2.58v51.33s2.82-1.82,9-1.82" transform="translate(-135.98 -153.48)"/></g></svg>