<?xml version="1.0" standalone="no"?>
<!DOCTYPE svg PUBLIC "-//W3C//DTD SVG 20010904//EN"
 "http://www.w3.org/TR/2001/REC-SVG-20010904/DTD/svg10.dtd">
<svg version="1.0" xmlns="http://www.w3.org/2000/svg"
 width="1024.000000pt" height="715.000000pt" viewBox="0 0 1024.000000 715.000000"
 preserveAspectRatio="xMidYMid meet">

<g transform="translate(0.000000,715.000000) scale(0.100000,-0.100000)"
fill="#000000" stroke="none">
<path d="M3016 5397 c-183 -503 -243 -669 -481 -1322 -130 -357 -272 -747
-315 -865 -178 -491 -244 -671 -284 -782 l-44 -118 2173 0 c2060 0 2173 1
2180 18 14 35 94 257 630 1732 300 828 555 1529 566 1558 l19 52 -2173 0
-2172 0 -99 -273z"/>
<path d="M7765 5658 c-2 -7 -20 -55 -40 -107 -20 -52 -32 -97 -28 -101 6 -5
539 -460 734 -627 15 -13 20 -6 47 69 16 46 32 92 36 104 5 17 -33 54 -260
245 l-265 224 142 3 c78 1 144 1 146 -1 2 -2 -8 -37 -23 -78 l-26 -73 25 -20
c13 -12 47 -40 75 -64 60 -51 50 -61 113 115 l44 123 103 0 c56 0 102 2 102 4
0 2 16 47 35 100 l35 96 -495 0 c-388 0 -497 -3 -500 -12z"/>
<path d="M7628 4981 c-72 -23 -144 -99 -179 -187 -31 -81 -168 -468 -166 -471
3 -2 421 -160 725 -273 78 -29 144 -51 145 -49 17 21 67 183 60 190 -5 5 -135
56 -289 113 -379 141 -394 147 -394 154 0 17 86 231 102 254 32 46 97 49 138
8 29 -29 24 -90 -14 -190 -19 -47 -32 -88 -30 -91 8 -13 156 -61 163 -53 5 5
23 47 41 94 62 165 88 193 154 170 79 -27 84 -68 25 -223 -23 -60 -37 -112
-33 -116 12 -11 164 -65 168 -60 7 9 85 227 96 269 48 180 -31 306 -212 340
-64 13 -117 -1 -162 -40 l-33 -29 -12 39 c-17 57 -52 93 -119 123 -67 30 -133
41 -174 28z"/>
<path d="M7087 3802 c-21 -55 -37 -104 -37 -110 0 -6 11 -19 24 -29 13 -10
104 -87 202 -172 99 -85 257 -222 352 -304 95 -82 174 -148 177 -146 2 2 19
48 39 102 l34 98 -142 122 c-79 67 -198 168 -264 225 -67 57 -122 107 -122
113 0 5 60 9 140 9 111 0 140 -3 140 -13 0 -8 -9 -40 -20 -72 -11 -32 -20 -64
-20 -71 0 -7 33 -40 74 -73 l74 -61 46 128 c25 70 50 134 55 142 6 11 32 16
108 18 l101 3 31 82 c17 46 31 88 31 95 0 9 -116 12 -493 12 l-494 0 -36 -98z"/>
<path d="M7000 3217 c-100 -28 -157 -84 -216 -212 -130 -281 -47 -506 195
-532 112 -11 172 35 307 239 46 70 94 134 106 142 32 23 65 20 93 -9 31 -30
32 -74 5 -149 -39 -103 -81 -145 -174 -172 -27 -8 -34 -20 -63 -102 -18 -52
-31 -97 -28 -102 10 -17 101 -20 159 -5 137 36 232 147 302 352 31 90 38 213
15 277 -33 95 -155 176 -265 176 -115 0 -169 -45 -276 -226 -73 -123 -131
-199 -157 -206 -57 -15 -94 49 -74 129 17 64 56 137 87 162 15 12 43 25 63 31
35 9 38 14 70 100 20 53 30 95 25 100 -16 16 -127 20 -174 7z"/>
<path d="M2530 1529 l0 -100 -26 20 c-19 15 -41 21 -78 21 -100 0 -149 -60
-149 -181 0 -80 24 -135 73 -163 40 -24 111 -24 147 -1 24 16 27 16 35 1 6
-10 23 -16 48 -16 l40 0 0 260 0 260 -45 0 -45 0 0 -101z m-31 -153 c28 -29
37 -92 22 -139 -15 -45 -31 -58 -72 -59 -55 -2 -90 67 -75 148 14 71 80 98
125 50z"/>
<path d="M2720 1370 l0 -261 43 3 42 3 5 115 c3 63 9 123 14 133 19 41 86 50
110 15 12 -17 16 -50 16 -146 l0 -123 43 3 42 3 0 148 0 149 -33 29 c-40 36
-110 40 -157 9 l-30 -20 -5 98 -5 97 -42 3 -43 3 0 -261z"/>
<path d="M7035 1617 c-3 -7 -4 -123 -3 -257 l3 -245 43 -3 42 -3 0 260 0 261
-40 0 c-24 0 -43 -5 -45 -13z"/>
<path d="M3830 1575 l0 -46 43 3 c42 3 42 3 42 43 0 40 0 40 -42 43 l-43 3 0
-46z"/>
<path d="M5386 1590 c-88 -27 -111 -132 -42 -189 23 -19 20 -28 -14 -46 -58
-30 -78 -120 -41 -181 40 -65 159 -88 241 -45 l42 22 15 -21 c11 -16 25 -20
69 -20 30 0 54 3 54 7 0 4 -16 24 -37 45 l-36 37 26 59 c15 33 27 71 27 86 0
23 -4 26 -38 26 -36 0 -38 -2 -50 -45 -7 -25 -18 -45 -24 -44 -7 0 -28 18 -47
40 l-34 40 42 38 c37 35 41 42 41 88 0 38 -5 54 -22 71 -43 40 -106 51 -172
32z m102 -72 c7 -7 12 -21 12 -32 0 -22 -37 -66 -56 -66 -15 0 -54 47 -54 66
0 36 71 59 98 32z m-19 -253 c29 -30 49 -59 46 -65 -3 -5 -22 -14 -41 -19 -87
-24 -150 54 -92 116 12 13 25 23 28 23 4 0 31 -25 59 -55z"/>
<path d="M8083 1549 c-29 -8 -33 -14 -33 -44 0 -33 -2 -35 -35 -35 -33 0 -35
-2 -35 -35 0 -33 2 -35 34 -35 l34 0 4 -119 c2 -100 6 -122 22 -140 24 -26 77
-41 121 -34 32 5 35 8 35 40 0 32 -2 35 -25 29 -17 -4 -31 0 -45 14 -17 17
-20 33 -20 115 l0 95 40 0 c39 0 40 1 40 35 0 34 -1 35 -40 35 l-40 0 0 45 c0
48 -2 50 -57 34z"/>
<path d="M1958 1458 c-23 -8 -28 -16 -28 -44 0 -39 0 -39 60 -18 53 18 105 11
120 -16 22 -41 14 -47 -66 -52 -89 -6 -122 -25 -143 -84 -12 -34 -12 -44 0
-69 22 -45 59 -67 114 -67 33 0 57 7 76 21 35 26 35 26 42 1 4 -15 14 -20 42
-20 l38 0 -5 138 c-6 150 -16 185 -59 208 -32 16 -149 18 -191 2z m162 -205
c-1 -40 -30 -73 -71 -79 -26 -4 -40 -1 -52 11 -44 43 5 91 96 94 23 1 27 -3
27 -26z"/>
<path d="M3193 1451 c-39 -25 -58 -53 -73 -109 -23 -89 12 -181 83 -215 44
-22 143 -25 188 -7 24 10 29 18 29 46 0 19 -2 34 -4 34 -2 0 -23 -7 -46 -15
-53 -19 -83 -19 -119 -1 -22 12 -51 52 -51 71 0 3 56 5 125 5 l125 0 -6 43
c-10 70 -23 102 -55 133 -26 24 -39 29 -97 32 -54 2 -73 -1 -99 -17z m120 -50
c29 -11 54 -69 33 -77 -7 -3 -42 -4 -77 -2 -58 3 -64 5 -61 23 3 23 47 65 67
65 7 0 25 -4 38 -9z"/>
<path d="M3548 1455 c-35 -20 -48 -44 -48 -92 0 -52 14 -69 84 -97 73 -30 89
-52 55 -79 -24 -19 -56 -19 -116 -1 -21 6 -23 3 -23 -29 0 -42 14 -49 100 -49
94 0 150 42 150 113 0 49 -30 84 -89 104 -27 9 -55 23 -62 32 -11 13 -10 18
10 34 26 21 31 22 84 10 l38 -9 -3 36 -3 37 -75 2 c-52 2 -83 -2 -102 -12z"/>
<path d="M3830 1290 l0 -181 43 3 42 3 0 175 0 175 -42 3 -43 3 0 -181z"/>
<path d="M3981 1458 c0 -7 28 -87 62 -178 l62 -165 51 -3 c42 -2 53 0 59 15 4
10 31 83 60 163 29 80 56 153 60 163 6 15 1 17 -38 17 l-45 0 -26 -72 c-14
-40 -35 -98 -45 -128 -12 -35 -21 -49 -25 -40 -3 8 -23 65 -45 125 l-39 110
-46 3 c-33 2 -46 -1 -45 -10z"/>
<path d="M4452 1451 c-117 -74 -101 -290 24 -331 46 -16 122 -16 168 0 32 10
36 15 36 46 0 19 -2 34 -4 34 -2 0 -23 -7 -46 -15 -53 -19 -83 -19 -119 -1
-22 12 -51 52 -51 71 0 3 56 5 124 5 l124 0 -5 43 c-8 68 -21 102 -54 133 -26
24 -39 29 -97 32 -54 2 -73 -1 -100 -17z m132 -63 c14 -13 26 -32 28 -43 3
-18 -3 -20 -71 -20 -87 0 -97 11 -53 55 36 36 62 38 96 8z"/>
<path d="M4803 1451 c-41 -26 -58 -80 -39 -125 14 -33 35 -47 101 -69 31 -11
41 -20 43 -40 5 -45 -40 -56 -125 -31 -21 6 -23 3 -23 -29 0 -42 14 -49 100
-49 94 0 150 42 150 113 0 49 -30 84 -89 104 -55 18 -74 35 -65 58 7 20 39 27
92 20 l43 -6 -3 34 -3 34 -75 3 c-60 2 -81 -1 -107 -17z"/>
<path d="M5991 1456 c-32 -18 -50 -53 -50 -96 0 -48 17 -67 84 -93 74 -29 89
-51 55 -79 -24 -20 -67 -21 -112 -3 -12 5 -18 -1 -23 -25 -4 -17 -4 -34 -1
-37 13 -14 104 -20 148 -11 61 12 98 53 98 107 0 51 -29 86 -89 106 -27 9 -55
23 -62 32 -11 13 -10 18 11 35 20 16 33 18 73 13 l48 -7 -3 33 -3 34 -75 2
c-48 2 -83 -2 -99 -11z"/>
<path d="M6334 1461 c-50 -22 -94 -104 -94 -177 0 -75 46 -144 108 -165 45
-15 120 -14 166 1 32 10 36 15 36 47 0 26 -4 34 -14 30 -111 -43 -179 -29
-200 41 -7 22 -7 22 113 22 l121 0 0 43 c0 49 -27 113 -59 142 -25 22 -139 32
-177 16z m120 -72 c15 -12 26 -30 26 -45 0 -24 -1 -25 -72 -22 -83 3 -93 15
-50 58 36 35 60 38 96 9z"/>
<path d="M6688 1458 c-23 -8 -28 -16 -28 -44 0 -39 0 -39 60 -18 73 25 130 3
130 -50 0 -13 -12 -16 -52 -16 -116 0 -170 -37 -172 -116 -1 -40 3 -49 32 -75
44 -39 116 -43 164 -8 34 24 34 24 41 -2 4 -16 12 -20 39 -17 l33 3 0 136 c0
150 -8 180 -57 205 -31 16 -149 18 -190 2z m162 -199 c0 -25 -18 -60 -39 -76
-23 -17 -67 -16 -85 3 -42 41 10 90 97 93 21 1 27 -4 27 -20z"/>
<path d="M7260 1457 c-19 -10 -24 -20 -23 -41 1 -16 3 -30 5 -32 2 -1 28 4 58
13 64 17 105 7 119 -29 12 -33 6 -38 -48 -38 -74 0 -109 -10 -141 -40 -25 -23
-30 -36 -30 -73 0 -57 26 -91 80 -105 46 -11 100 -1 120 23 17 20 27 19 33 -5
4 -15 14 -20 41 -20 l36 0 0 130 c0 149 -11 190 -59 214 -37 20 -156 21 -191
3z m165 -187 c9 -15 -21 -77 -43 -89 -35 -19 -70 -13 -87 13 -13 19 -14 29 -5
45 16 31 120 55 135 31z"/>
<path d="M7602 1293 l3 -178 42 -3 41 -3 4 115 c3 131 20 169 74 174 54 4 59
-5 64 -150 l5 -133 43 -3 42 -3 0 141 c0 191 -16 220 -117 220 -30 0 -60 -7
-80 -20 -33 -20 -33 -20 -33 0 0 17 -7 20 -45 20 l-45 0 2 -177z"/>
<path d="M8313 1451 c-37 -23 -54 -71 -41 -116 11 -40 25 -52 88 -73 46 -16
56 -23 58 -45 5 -44 -59 -59 -132 -31 -13 5 -16 -1 -16 -29 0 -42 14 -49 101
-49 99 0 154 48 145 125 -6 51 -28 73 -92 94 -53 16 -68 31 -58 57 7 19 40 26
92 19 l43 -6 -3 34 -3 34 -75 3 c-60 2 -81 -1 -107 -17z"/>
</g>
</svg>
