<?xml version="1.0" encoding="utf-8"?>
<!-- Generator: Adobe Illustrator 25.0.0, SVG Export Plug-In . SVG Version: 6.00 Build 0)  -->
<svg version="1.1" id="Layer_1" xmlns="http://www.w3.org/2000/svg" xmlns:xlink="http://www.w3.org/1999/xlink" x="0px" y="0px"
	 viewBox="0 0 708.9 215.1" style="enable-background:new 0 0 708.9 215.1;" xml:space="preserve">
<style type="text/css">
	.st0{fill:#1F1A17;}
	.st1{fill:#FFFFFF;}
</style>
<g id="Laag_x0020_1">
	<g id="_130216384">
		<path id="_129136536" class="st0" d="M328.3,116.3l8.9,8.9l-1.4,7.8h-3.9c-1.2,0-2,0.1-2.4,0.4c-0.4,0.3-0.7,0.9-0.8,1.9l-0.9,6.1
			h13.3l8.9,9.2l-2.5,14.8H299l-8.9-8.9l1.4-7.8h4c1.1,0,1.8-0.1,2.3-0.4c0.4-0.2,0.7-0.9,0.9-2l2.9-16.5l-5.7-5.7l1.4-7.8
			C297.2,116.3,328.3,116.3,328.3,116.3z"/>
		<path id="_129136464" class="st0" d="M519.4,165.4l-8.9-8.9l1.4-8h4c1.2,0,1.9-0.1,2.3-0.3c0.4-0.2,0.7-0.9,0.8-1.9l2.9-16.5
			l-5.7-5.7l1.3-7.8h37c3,0,5.5,0.3,7.2,0.9c1.8,0.6,3.9,2.1,6.4,4.4c2.9,2.7,5,5.1,6.2,7.2c1.2,2.1,1.8,4.1,1.8,6.2
			c0,2-0.5,3.7-1.4,5.2s-2.4,2.8-4.3,4c1.4,1.1,2.4,2.3,3.1,3.6c0.7,1.3,1,2.8,1,4.6c0,2.7-0.6,5-1.8,7.1c-1.2,2-2.9,3.5-5,4.5
			c-1.3,0.5-2.7,0.9-4.4,1.1c-1.7,0.2-4.4,0.3-8.2,0.3h-1.1L519.4,165.4L519.4,165.4z"/>
		<polygon id="_129136392" class="st0" points="606.1,154.9 604.3,165.4 590.1,165.4 581.2,156.5 583.1,146.1 597.3,146.1 		"/>
		<path id="_129132904" class="st0" d="M683.3,125.2l-1.3,7.8h-4c-1,0-1.7,0.1-2.1,0.3c-0.4,0.2-0.9,0.9-1.6,2l-17.3,30h-19.8
			l-9.2-9l-5.9-26.6l-7.6-5.7l1.4-7.8h58.5L683.3,125.2L683.3,125.2z"/>
		<path id="_129132832" class="st0" d="M708.9,38.3l-3,18.3h-13.6l9,8.5c0.4,0.4,0.8,1.3,1.2,2.9c0.4,1.6,0.7,3.1,0.7,4.6
			c0,5.4-2.2,9.4-6.6,12c-4.4,2.6-11.2,3.9-20.5,3.9c-5.1,0-8.9-0.2-11.6-0.6c-2.7-0.4-4.8-1.1-6.3-2l-0.3,2.2h-13.4l-11-10.9
			l3.3-19.7h15.4c-4.4-1.7-7.7-3.6-9.7-6c-2-2.3-3-5.3-3-8.8c0-5.4,2.3-9.4,6.9-12.1c4.6-2.7,11.5-4,20.8-4c2.6,0,4.9,0.1,6.9,0.4
			c2,0.3,3.9,0.6,5.6,1.1v-1.3h17.3L708.9,38.3L708.9,38.3z"/>
		<path id="_129132688" class="st0" d="M585.5,26.8L596.7,38l-1.7,9.8h-5c-1.4,0-2.4,0.2-2.9,0.5c-0.5,0.3-0.9,1.2-1.1,2.5L579.2,89
			h-20.3l-6.7-6.9l-1.1,6.9h-36.5l-11.2-11.4l1.7-9.9h5c1.4,0,2.3-0.2,2.8-0.5c0.5-0.3,0.9-1.2,1.1-2.5l3.7-20.8l-7.2-7.2l1.7-9.9
			h30.4l5.5,5.6l1-5.6L585.5,26.8L585.5,26.8z"/>
		<path id="_129132616" class="st0" d="M599.9,43.9l1.8-10.1h2.3c0.7,0,1.2-0.1,1.6-0.3c0.4-0.2,0.6-0.5,0.6-0.9l1-5.9h17.9
			L636.3,38l-1.9,10.9c-0.4,2.3-1.3,3.9-2.7,4.8c-1.4,0.9-3.8,1.4-7.2,1.4h-13.5C611.1,55.1,599.9,43.9,599.9,43.9z"/>
		<path id="_129132544" class="st1" d="M600.8,43.1h12.6c3.2,0,5.4-0.4,6.6-1.2c1.2-0.8,2-2.2,2.4-4.2l1.8-10.1h-16.3l-0.9,5.1
			c-0.1,0.7-0.4,1.1-0.9,1.5c-0.5,0.3-1.1,0.5-2,0.5h-1.8L600.8,43.1L600.8,43.1z"/>
		<path id="_129128208" class="st1" d="M555.3,49.4l-12.9-21.7H513l-1.5,8.2h5.1c0.9,0,1.7,0.2,2.2,0.6c0.5,0.4,0.7,0.9,0.7,1.7
			c0,0.2,0,0.3,0,0.4c0,0.1,0,0.2-0.1,0.4l-4.7,26.6c-0.2,1-0.6,1.8-1.2,2.3c-0.6,0.5-1.6,0.7-2.8,0.7h-5l-1.4,8.2H539l1.2-8.2h-4.1
			c-1.6,0-2.7-0.1-3.1-0.5c-0.5-0.3-0.7-0.8-0.7-1.6c0-0.4,0.2-1.4,0.5-3.1l0-0.2l1.4-8.3l12.9,21.9h20.7l6.5-37.9
			c0.2-1.1,0.6-1.8,1.2-2.3c0.6-0.5,1.6-0.7,2.8-0.7h5l1.4-8.2h-34.8l-1.4,8.2h3.6c1.5,0,2.6,0.4,3.4,1.1c0.8,0.7,1.2,1.7,1.2,3
			c0,0.2,0,0.5-0.1,1c0,0.1,0,0.1,0,0.2L555.3,49.4L555.3,49.4z"/>
		<path id="_129128136" class="st0" d="M436,71.6c-1.6-1.6-2.8-3.4-3.5-5.4c-0.8-2-1.1-4.3-1.1-6.8c0-1,0.1-2.2,0.2-3.8
			c0.1-1.5,0.4-3.3,0.7-5.2c0.3-2,0.7-3.8,1-5.2c0.3-1.5,0.6-2.5,0.8-3.3c0.5-1.8,1.3-3.4,2.2-4.9c0.9-1.5,2-2.8,3.3-3.9
			c2.6-2.3,5.9-4,9.9-5.1c4-1.1,9.2-1.6,15.6-1.6c6.4,0,11.5,0.5,15.1,1.6c3.7,1.1,6.7,2.8,9.1,5.2l11.2,11.2
			c1.5,1.5,2.6,3.2,3.4,5.2c0.8,2,1.1,4.2,1.1,6.6c0,1.5-0.2,3.8-0.7,6.8c-0.4,3-1,6.3-1.8,9.8c-0.3,1.6-0.8,3.1-1.6,4.5
			c-0.7,1.5-1.7,2.8-2.7,4c-2.5,2.8-5.8,4.8-9.9,6.1c-4.1,1.3-9.5,1.9-16.1,1.9c-6.9,0-12.2-0.5-16-1.5c-3.7-1-6.8-2.7-9.1-5
			L436,71.6L436,71.6z"/>
		<path id="_129128064" class="st1" d="M432.2,59.3c0,6,2.2,10.5,6.7,13.5c4.5,3,11.2,4.5,20.1,4.5c6.9,0,12.4-0.5,16.4-1.5
			c4-1,7.2-2.7,9.7-5c1.2-1.1,2.2-2.3,3.1-3.7c0.9-1.4,1.6-2.9,2.1-4.6c0.2-0.8,0.5-2,0.8-3.5c0.3-1.5,0.6-3.1,0.9-5
			c0.3-2,0.5-3.7,0.7-5.3c0.2-1.6,0.3-2.8,0.3-3.6c0-6.1-2.3-10.6-6.8-13.5c-4.5-2.9-11.5-4.4-20.9-4.4c-6.6,0-11.8,0.5-15.7,1.5
			c-3.9,1-7.1,2.7-9.6,5c-1.2,1.1-2.2,2.3-3,3.7c-0.9,1.4-1.5,2.9-2.1,4.6c-0.3,1-0.6,2.2-0.9,3.7c-0.3,1.5-0.6,3.1-0.9,4.8
			c-0.3,2-0.5,3.8-0.7,5.3C432.3,57.3,432.2,58.5,432.2,59.3z"/>
		<path id="_129127992" class="st0" d="M470,59.8c-0.6,3.6-1.7,6-3.1,7.3c-1.4,1.3-3.6,1.9-6.7,1.9c-2.8,0-4.8-0.5-6.2-1.5
			c-1.4-1-2-2.5-2-4.5c0-0.3,0-0.7,0.1-1.2c0.1-0.5,0.1-1.1,0.3-1.8l2.8-15.5c0.6-3.6,1.7-6.1,3.1-7.3c1.4-1.3,3.6-1.9,6.6-1.9
			c2.7,0,4.8,0.5,6.2,1.5c1.4,1,2.1,2.5,2.1,4.5c0,0.3,0,0.6-0.1,1.1c-0.1,0.4-0.1,1.1-0.3,1.8C472.8,44.3,470,59.8,470,59.8z"/>
		<path id="_129127920" class="st0" d="M462.5,68.2c2.1-0.4,3.6-1.2,4.6-2.3c1-1.2,1.7-3.2,2.2-6.1l2.1-11.4c-1.9,0.3-3.4,1-4.5,2.1
			c-1,1.1-1.8,2.8-2.2,5.2L462.5,68.2L462.5,68.2z"/>
		<path id="_129127848" class="st0" d="M421.7,26.8L432.9,38l-1.7,9.8h-5c-1.4,0-2.4,0.2-2.9,0.5c-0.5,0.3-0.9,1.2-1.1,2.5
			l-3.7,20.8l7.2,7.3L423.9,89h-35.7l-4.5-4.5L383,89h-9.9l-4.4-4.6l-0.4,4.6h-34.7l-11.2-11.4l1.7-9.9h5c1.4,0,2.3-0.2,2.8-0.5
			s0.9-1.2,1.1-2.5l3.7-20.8l-7.2-7.1l1.7-10h34.1L377.1,38l7.5-11.2L421.7,26.8L421.7,26.8z"/>
		<path id="_129127776" class="st1" d="M365.2,27.6H332l-1.5,8.2h5.1c0.9,0,1.7,0.2,2.2,0.6c0.5,0.4,0.7,0.9,0.7,1.7
			c0,0.2,0,0.3,0,0.4c0,0.1,0,0.2-0.1,0.4l-4.7,26.6c-0.2,1-0.6,1.8-1.2,2.3c-0.6,0.5-1.6,0.7-2.8,0.7h-5l-1.4,8.2H356l1.3-8.2
			c-0.2,0-0.4,0-0.6,0c-0.2,0-0.5,0-0.8,0c-1.3,0-2.2-0.2-2.9-0.5c-0.6-0.4-0.9-0.9-0.9-1.7c0-0.2,0-0.4,0-0.5c0-0.1,0-0.3,0.1-0.4
			l2.1-12.9l6.3,24.2h10.1l16.7-25.5l-2.1,11.4c-0.4,2.3-1,3.8-1.7,4.6c-0.7,0.8-1.8,1.2-3.1,1.2h-3.2l-1.4,8.2h36.5l1.5-8.2h-5.1
			c-1,0-1.7-0.2-2.2-0.6c-0.5-0.4-0.7-0.9-0.7-1.7c0-0.2,0-0.3,0-0.5c0-0.1,0-0.2,0.1-0.4l4.6-26.6c0.2-1.1,0.6-1.8,1.2-2.3
			c0.6-0.5,1.6-0.7,2.8-0.7h4.9l1.4-8.2H385l-13.7,20.7L365.2,27.6L365.2,27.6z"/>
		<path id="_129125256" class="st0" d="M255,71.6c-1.6-1.6-2.8-3.4-3.5-5.4c-0.8-2-1.1-4.3-1.1-6.8c0-1,0.1-2.2,0.2-3.8
			c0.1-1.5,0.4-3.3,0.7-5.2c0.3-2,0.7-3.8,1-5.2c0.3-1.5,0.6-2.5,0.8-3.3c0.5-1.8,1.3-3.4,2.2-4.9c0.9-1.5,2-2.8,3.3-3.9
			c2.6-2.3,5.9-4,9.9-5.1c4-1.1,9.2-1.6,15.6-1.6c6.4,0,11.5,0.5,15.1,1.6c3.7,1.1,6.7,2.8,9.1,5.2l11.2,11.2
			c1.5,1.5,2.6,3.2,3.4,5.2c0.8,2,1.1,4.2,1.1,6.6c0,1.5-0.2,3.8-0.7,6.8c-0.4,3-1,6.3-1.8,9.8c-0.3,1.6-0.8,3.1-1.6,4.5
			c-0.7,1.5-1.7,2.8-2.7,4c-2.5,2.8-5.8,4.8-9.9,6.1c-4.1,1.3-9.5,1.9-16.1,1.9c-6.9,0-12.2-0.5-16-1.5c-3.7-1-6.8-2.7-9.1-5
			L255,71.6L255,71.6z"/>
		<path id="_129125184" class="st1" d="M251.2,59.3c0,6,2.2,10.5,6.7,13.5c4.5,3,11.2,4.5,20.1,4.5c6.9,0,12.4-0.5,16.4-1.5
			c4-1,7.2-2.7,9.7-5c1.2-1.1,2.2-2.3,3.1-3.7c0.9-1.4,1.6-2.9,2.1-4.6c0.2-0.8,0.5-2,0.8-3.5c0.3-1.5,0.6-3.1,0.9-5
			c0.3-2,0.5-3.7,0.7-5.3c0.2-1.6,0.3-2.8,0.3-3.6c0-6.1-2.3-10.6-6.8-13.5c-4.5-2.9-11.5-4.4-20.9-4.4c-6.6,0-11.8,0.5-15.7,1.5
			c-3.9,1-7.1,2.7-9.6,5c-1.2,1.1-2.2,2.3-3,3.7c-0.9,1.4-1.5,2.9-2.1,4.6c-0.3,1-0.6,2.2-0.9,3.7c-0.3,1.5-0.6,3.1-0.9,4.8
			c-0.3,2-0.5,3.8-0.7,5.3C251.3,57.3,251.2,58.5,251.2,59.3L251.2,59.3z"/>
		<path id="_129125112" class="st0" d="M289.1,59.8c-0.6,3.6-1.7,6-3.1,7.3c-1.4,1.3-3.6,1.9-6.7,1.9c-2.8,0-4.8-0.5-6.2-1.5
			c-1.4-1-2-2.5-2-4.5c0-0.3,0-0.7,0.1-1.2c0.1-0.5,0.1-1.1,0.3-1.8l2.8-15.5c0.6-3.6,1.7-6.1,3.1-7.3c1.4-1.3,3.6-1.9,6.6-1.9
			c2.7,0,4.8,0.5,6.2,1.5c1.4,1,2.1,2.5,2.1,4.5c0,0.3,0,0.6-0.1,1.1c-0.1,0.4-0.1,1.1-0.3,1.8C291.8,44.3,289.1,59.8,289.1,59.8z"
			/>
		<path id="_129125040" class="st0" d="M281.5,68.2c2.1-0.4,3.6-1.2,4.6-2.3c1-1.2,1.7-3.2,2.2-6.1l2.1-11.4c-1.9,0.3-3.4,1-4.5,2.1
			c-1,1.1-1.8,2.8-2.2,5.2L281.5,68.2L281.5,68.2z"/>
		<path id="_129124968" class="st0" d="M219.1,26.8L230.3,38l-1.8,9.8h-5c-1.5,0-2.5,0.2-3,0.5c-0.5,0.4-0.9,1.2-1.1,2.5l-1.1,7.7
			h16.8l11.2,11.6l-3.2,18.6H182l-11.2-11.2l1.7-9.9h5c1.4,0,2.3-0.2,2.8-0.5s0.9-1.2,1.1-2.5l3.7-20.8l-7.2-7.2l1.7-9.9L219.1,26.8
			L219.1,26.8z"/>
		<path id="_129124896" class="st1" d="M171.7,76.8H232l3.2-17.4h-15.5c-1,3.2-2.3,5.6-4,7c-1.7,1.5-3.8,2.2-6.6,2.2h-6.4l5.1-29.7
			c0.2-1.1,0.6-1.8,1.2-2.3c0.6-0.5,1.6-0.7,2.8-0.7h4.9l1.4-8.2h-37.8l-1.5,8.2h5.1c0.9,0,1.7,0.2,2.2,0.6c0.5,0.4,0.7,0.9,0.7,1.7
			c0,0.2,0,0.3,0,0.4c0,0.1,0,0.2-0.1,0.4l-4.7,26.6c-0.2,1.1-0.6,1.8-1.2,2.3c-0.6,0.5-1.6,0.7-2.8,0.7h-5L171.7,76.8L171.7,76.8z"
			/>
		<path id="_129122248" class="st0" d="M83.5,77.6l1.6-9.9c0.9,0,1.8,0,2.9,0.1c0.2,0,0.4,0,0.4,0c1.8,0,3-0.2,3.6-0.6
			c0.7-0.4,1.5-1.5,2.4-3.3l20.4-37.1h28.5l15.3,15l7.6,32.2l3.8,3.3l-2.1,11.4H95.8C95.8,88.8,83.5,77.6,83.5,77.6z"/>
		<path id="_129122176" class="st1" d="M84.3,76.8h34.3l1.5-8.1h-4.9c-0.8,0-1.4-0.1-1.7-0.3c-0.4-0.2-0.5-0.6-0.5-1
			c0-0.2,0-0.3,0-0.5c0-0.2,0.1-0.4,0.2-0.5l1.8-4.2h14c0.2,0.8,0.4,1.6,0.4,2.4c0.1,0.7,0.1,1.4,0.1,2.1c0,0.8-0.2,1.3-0.6,1.6
			c-0.4,0.3-1.1,0.5-2.1,0.5h-5.7l-1.6,8.1h37l1.4-8.1h-1h-1.8c-1.7,0-2.8-0.2-3.3-0.5c-0.5-0.4-1-1.3-1.3-2.7l-8.3-37.8h-27
			L94.7,65.2c-0.8,1.5-1.6,2.5-2.4,2.9c-0.8,0.4-2.2,0.6-4.1,0.6h-2.4L84.3,76.8L84.3,76.8z"/>
		<polygon id="_129122104" class="st0" points="120.1,52.3 124.8,42.8 126.9,52.3 		"/>
		<path id="_129122032" class="st0" d="M85,38.3l-3,18.3H68.4l9,8.5c0.4,0.4,0.8,1.3,1.2,2.9c0.4,1.6,0.7,3.1,0.7,4.6
			c0,5.4-2.2,9.4-6.6,12c-4.4,2.6-11.2,3.9-20.5,3.9c-5.1,0-8.9-0.2-11.6-0.6c-2.7-0.4-4.8-1.1-6.3-2L34,88H20.6L9.6,77L13,57.3
			h15.4c-4.4-1.7-7.7-3.6-9.7-6c-2-2.3-3-5.3-3-8.8c0-5.4,2.3-9.4,6.9-12.1c4.6-2.7,11.5-4,20.8-4c2.6,0,4.9,0.1,6.9,0.4
			c2,0.3,3.9,0.6,5.6,1.1v-1.3h17.3L85,38.3L85,38.3z"/>
		<polygon id="_129121960" class="st0" points="708.9,154.9 707.1,165.4 692.9,165.4 684,156.5 685.9,146.1 700.1,146.1 		"/>
		<polygon id="_129121888" class="st1" points="684.8,155.9 697.7,155.9 699.3,146.7 686.4,146.7 		"/>
		<path id="_129121816" class="st1" d="M640.7,143.2l-2.3-16.4c0-0.1,0-0.2,0-0.4c0-0.1,0-0.3,0-0.5c0-0.9,0.2-1.5,0.7-1.9
			c0.5-0.4,1.3-0.6,2.4-0.6h2.2l1.1-6.5h-28.3l-1.2,6.5h3c1.3,0,2.1,0.2,2.6,0.5c0.5,0.4,0.9,1,1,1.9l6.5,30h19.4l17.2-30
			c0.5-0.8,1-1.4,1.6-1.8c0.6-0.4,1.2-0.6,2-0.6h3.9l1.1-6.5h-28.2l-1.2,6.5h2.4c0.6,0,1.2,0.2,1.6,0.5c0.4,0.4,0.6,0.8,0.6,1.4
			c0,0.2-0.1,0.6-0.2,0.9c-0.1,0.4-0.3,0.7-0.5,1.1L640.7,143.2L640.7,143.2z"/>
		<polygon id="_129119424" class="st1" points="582,155.9 594.9,155.9 596.5,146.7 583.6,146.7 		"/>
		<path id="_129119352" class="st1" d="M511.2,155.8h34.2c4.6,0,7.8-0.1,9.5-0.3c1.7-0.2,3.1-0.6,4.3-1.1c2-0.9,3.6-2.4,4.8-4.5
			c1.2-2.1,1.9-4.2,1.9-6.5c0-1.6-0.3-2.9-0.9-4.1c-0.6-1.2-1.6-2.2-2.9-3.2c1.9-1.1,3.4-2.5,4.3-4c1-1.6,1.4-3.4,1.4-5.4
			c0-1.7-0.3-3.2-1-4.5c-0.6-1.3-1.5-2.4-2.7-3.2c-1.1-0.8-2.6-1.3-4.3-1.6c-1.7-0.3-4.9-0.5-9.5-0.5h-32.2l-1.2,6.5h4.1
			c0.8,0,1.3,0.2,1.7,0.5c0.4,0.3,0.6,0.8,0.6,1.4c0,0.1,0,0.3,0,0.3c0,0.1,0,0.2,0,0.3l-3.8,21.1c-0.1,0.8-0.4,1.4-0.9,1.7
			c-0.4,0.4-1.1,0.5-1.9,0.5h-0.4h-4L511.2,155.8L511.2,155.8z"/>
		<path id="_129119280" class="st0" d="M540.3,123.4h4.9c1.7,0,2.9,0.3,3.7,0.8c0.7,0.5,1.1,1.3,1.1,2.5c0,1.8-0.5,3.2-1.6,4
			c-1,0.9-2.7,1.3-4.9,1.3h-4.8C538.7,131.9,540.3,123.4,540.3,123.4z"/>
		<path id="_129119208" class="st0" d="M537.4,140h4.9c1.7,0,2.9,0.3,3.7,0.8c0.8,0.5,1.1,1.4,1.1,2.6c0,1.9-0.5,3.3-1.5,4.3
			c-1,0.9-2.7,1.4-4.9,1.5h-4.8L537.4,140L537.4,140z"/>
		<path id="_129119136" class="st0" d="M475.9,116.3l8.9,8.9l-1.4,7.8h-4c-1.1,0-1.9,0.1-2.3,0.4c-0.4,0.3-0.7,0.9-0.9,2l-5.4,30.3
			h-16.1l-5.3-5.4l-0.9,5.4h-28.9l-8.9-9.1l1.4-7.8h4c1.1,0,1.8-0.1,2.3-0.4c0.4-0.2,0.7-0.9,0.9-2l2.9-16.5l-5.7-5.7l1.4-7.8h24.1
			l4.3,4.5l0.8-4.5C447,116.3,475.9,116.3,475.9,116.3z"/>
		<path id="_129119064" class="st1" d="M451.9,134.1l-10.3-17.2h-23.3l-1.2,6.5h4.1c0.8,0,1.3,0.2,1.7,0.5c0.4,0.3,0.6,0.7,0.6,1.3
			c0,0.1,0,0.3,0,0.3c0,0.1,0,0.2,0,0.3l-3.8,21.1c-0.1,0.8-0.5,1.4-1,1.8c-0.5,0.4-1.2,0.6-2.2,0.6h-4l-1.1,6.5H439l1-6.5h-3.3
			c-1.3,0-2.1-0.1-2.5-0.4c-0.4-0.2-0.6-0.7-0.6-1.3c0-0.3,0.1-1.1,0.4-2.4l0-0.2l1.1-6.6l10.3,17.4h16.4l5.2-30
			c0.1-0.9,0.5-1.5,1-1.8c0.5-0.4,1.2-0.6,2.2-0.6h4l1.1-6.5h-27.6l-1.1,6.5h2.9c1.2,0,2.1,0.3,2.7,0.8c0.6,0.6,0.9,1.3,0.9,2.4
			c0,0.1,0,0.4-0.1,0.8c0,0.1,0,0.1,0,0.1L451.9,134.1L451.9,134.1z"/>
		<path id="_129118992" class="st0" d="M405.9,116.3l9,8.9l-2.3,13.4h-12.2l-0.5,2.8l1.5,0.1l8.9,9.2l-2.5,14.8h-48.5l-8.9-8.9
			l1.4-7.8h4c1.1,0,1.8-0.1,2.3-0.4c0.4-0.2,0.7-0.9,0.9-2l2.9-16.5l-5.7-5.7l1.4-7.8C357.5,116.3,405.9,116.3,405.9,116.3z"/>
		<path id="_129117416" class="st1" d="M351.1,155.8h47.8l2.5-13.8h-12.3c-0.8,2.6-1.8,4.5-3.1,5.6c-1.3,1.2-3.1,1.7-5.2,1.7h-5.1
			l1.8-10.7h0.6c0.8,0,1.4,0.2,1.7,0.5c0.4,0.3,0.6,0.9,0.6,1.5c0,0.1,0,0.3,0,0.5c0,0.2-0.1,0.5-0.1,0.8h7.7l2.3-12.7h-7.6
			c-0.2,0.9-0.5,1.6-1.1,2.1c-0.6,0.4-1.3,0.7-2.4,0.7h-0.6l1.5-8.6h6.1c2.1,0,3.6,0.2,4.3,0.6c0.7,0.4,1.1,1,1.1,2
			c0,0.3-0.1,0.9-0.2,1.9c-0.1,0.6-0.1,1.1-0.2,1.5h12.3l2.2-12.4H358l-1.2,6.5h4.1c0.8,0,1.3,0.2,1.7,0.5c0.4,0.3,0.6,0.7,0.6,1.3
			c0,0.1,0,0.3,0,0.3c0,0.1,0,0.2,0,0.3l-3.8,21.1c-0.1,0.8-0.5,1.4-1,1.8c-0.5,0.4-1.2,0.6-2.2,0.6h-4L351.1,155.8L351.1,155.8z"/>
		<path id="_129117344" class="st1" d="M290.8,155.8h47.8l2.5-13.8h-12.3c-0.8,2.6-1.8,4.4-3.1,5.6c-1.3,1.1-3,1.7-5.2,1.7h-5.1
			l4.1-23.5c0.1-0.8,0.5-1.4,1-1.8c0.5-0.4,1.2-0.6,2.2-0.6h3.9l1.1-6.5h-30l-1.2,6.5h4.1c0.8,0,1.3,0.2,1.7,0.5
			c0.4,0.3,0.6,0.7,0.6,1.3c0,0.1,0,0.3,0,0.3c0,0.1,0,0.2,0,0.3l-3.8,21.1c-0.1,0.8-0.5,1.4-1,1.8c-0.5,0.4-1.2,0.6-2.2,0.6h-4
			L290.8,155.8L290.8,155.8z"/>
		<path id="_129117272" class="st0" d="M220.9,156.5l1.2-7.9c0.7,0,1.4,0,2.3,0.1c0.2,0,0.3,0,0.3,0c1.4,0,2.4-0.2,2.9-0.5
			c0.5-0.3,1.2-1.2,1.9-2.6l16.2-29.4h22.6l12.1,11.9l6,25.5l3,2.6l-1.7,9.1h-57.2L220.9,156.5L220.9,156.5z"/>
		<path id="_129117200" class="st1" d="M221.6,155.8h27.2l1.2-6.4H246c-0.6,0-1.1-0.1-1.4-0.3c-0.3-0.2-0.4-0.5-0.4-0.8
			c0-0.1,0-0.3,0-0.4c0-0.1,0.1-0.3,0.1-0.4l1.4-3.3h11.1c0.2,0.7,0.3,1.3,0.3,1.9c0.1,0.6,0.1,1.1,0.1,1.6c0,0.6-0.2,1-0.5,1.3
			c-0.3,0.2-0.9,0.4-1.6,0.4h-4.5l-1.2,6.4h29.3l1.1-6.4h-0.8h-1.4c-1.3,0-2.2-0.1-2.6-0.4c-0.4-0.3-0.8-1-1-2.1l-6.6-30h-21.4
			l-16.4,29.7c-0.7,1.2-1.3,2-1.9,2.3c-0.6,0.3-1.7,0.5-3.3,0.5h-1.9L221.6,155.8L221.6,155.8z"/>
		<polygon id="_129117128" class="st0" points="249.9,136.5 253.6,128.9 255.3,136.5 		"/>
		<path id="_129117056" class="st0" d="M215.2,116.3l9,8.9l-3.2,17.1h-11.2l-5.8-5.5l-2.7,15l5.7,5.8l-1.4,7.8h-31.1l-8.9-8.9
			l1.4-7.8h4c1.1,0,1.8-0.1,2.2-0.4c0.4-0.2,0.7-0.9,0.9-2l0.7-4H170l-9.1-8.8l2.9-17.2L215.2,116.3L215.2,116.3z"/>
		<path id="_129108632" class="st1" d="M215.1,116.9h-50.7l-2.8,16h10.7c0.5-3.4,1.2-5.7,2.1-7c0.9-1.3,2.3-2,4.2-2.1l-3.9,23.2
			c-0.1,0.8-0.5,1.4-1,1.8c-0.5,0.4-1.2,0.6-2.2,0.6h-4l-1.1,6.5h30l1.1-6.5h-4c-0.8,0-1.3-0.2-1.7-0.5c-0.4-0.3-0.6-0.8-0.6-1.3
			c0-0.1,0-0.3,0-0.4c0-0.1,0-0.2,0-0.3l4.1-23.4h0.5c1.9,0,3.2,0.3,3.9,0.8c0.6,0.5,1,1.6,1,3.2c0,0.5-0.1,1.9-0.3,4
			c-0.1,0.6-0.1,1.1-0.1,1.4H212C212,132.9,215.1,116.9,215.1,116.9z"/>
		<path id="_129108560" class="st0" d="M151.9,116.3l9,8.9l-2.3,13.4h-12.2l-0.5,2.8l1.5,0.1l8.9,9.2l-2.5,14.8h-48.5l-8.9-8.9
			l1.4-7.8h4c1.1,0,1.8-0.1,2.3-0.4s0.7-0.9,0.9-2l2.9-16.5l-5.7-5.7l1.4-7.8L151.9,116.3L151.9,116.3z"/>
		<path id="_129108488" class="st1" d="M97.2,155.8h47.8l2.5-13.8h-12.3c-0.8,2.6-1.8,4.5-3.1,5.6c-1.3,1.2-3.1,1.7-5.2,1.7h-5.1
			l1.8-10.7h0.6c0.8,0,1.4,0.2,1.7,0.5c0.4,0.3,0.6,0.9,0.6,1.5c0,0.1,0,0.3,0,0.5c0,0.2-0.1,0.5-0.1,0.8h7.7l2.3-12.7h-7.6
			c-0.2,0.9-0.5,1.6-1.1,2.1c-0.6,0.4-1.3,0.7-2.4,0.7h-0.6l1.5-8.6h6.1c2.1,0,3.6,0.2,4.3,0.6c0.7,0.4,1.1,1,1.1,2
			c0,0.3-0.1,0.9-0.2,1.9c-0.1,0.6-0.1,1.1-0.2,1.5h12.3l2.2-12.4h-47.8l-1.2,6.5h4.1c0.8,0,1.3,0.2,1.7,0.5
			c0.4,0.3,0.6,0.7,0.6,1.3c0,0.1,0,0.3,0,0.3c0,0.1,0,0.2,0,0.3l-3.8,21.1c-0.1,0.8-0.5,1.4-1,1.8c-0.5,0.4-1.2,0.6-2.2,0.6h-4
			L97.2,155.8L97.2,155.8z"/>
		<path id="_129108416" class="st0" d="M91.6,116.3l8.9,8.9l-1.4,7.8h-4c-1.1,0-1.9,0.1-2.3,0.4c-0.4,0.3-0.7,0.9-0.9,2L89,151.8
			l5.7,5.7l-1.4,8H65l-3.6-3.6l-0.5,3.6H53l-3.5-3.6l-0.3,3.6H21.8l-8.9-9.1l1.4-7.8h4c1.1,0,1.8-0.1,2.3-0.4c0.4-0.2,0.7-0.9,0.9-2
			l2.9-16.5l-5.7-5.6l1.4-7.9h27l9.2,8.9l5.9-8.9L91.6,116.3L91.6,116.3z"/>
		<path id="_129108344" class="st1" d="M46.8,116.9H20.5l-1.2,6.5h4.1c0.8,0,1.3,0.2,1.7,0.5c0.4,0.3,0.6,0.7,0.6,1.3
			c0,0.1,0,0.3,0,0.3c0,0.1,0,0.2,0,0.3L21.9,147c-0.1,0.8-0.5,1.4-1,1.8c-0.5,0.4-1.2,0.6-2.2,0.6h-4l-1.1,6.5h25.9l1.1-6.5
			c-0.1,0-0.3,0-0.4,0c-0.2,0-0.4,0-0.7,0c-1,0-1.8-0.1-2.3-0.4c-0.5-0.3-0.7-0.7-0.7-1.3c0-0.2,0-0.3,0-0.4c0-0.1,0-0.2,0-0.3
			l1.6-10.2l5,19.2h8l13.2-20.2l-1.7,9.1c-0.3,1.8-0.8,3-1.4,3.7c-0.6,0.6-1.4,0.9-2.5,0.9h-2.5l-1.1,6.5h28.9l1.2-6.5h-4.1
			c-0.8,0-1.3-0.2-1.7-0.5c-0.4-0.3-0.6-0.8-0.6-1.3c0-0.1,0-0.3,0-0.4c0-0.1,0-0.2,0-0.3l3.7-21c0.1-0.8,0.5-1.4,1-1.8
			c0.5-0.4,1.2-0.6,2.2-0.6h3.9l1.1-6.5H62.5l-10.9,16.4L46.8,116.9L46.8,116.9z"/>
		<path id="_129108272" class="st1" d="M646.7,74.8c1.5,0.9,3.4,1.6,5.7,2c2.3,0.4,5.8,0.6,10.7,0.6c5.4,0,9.5-0.2,12.5-0.6
			c3-0.4,5.4-1.1,7.3-2c2.9-1.4,5-3.1,6.5-5.3c1.5-2.2,2.2-4.7,2.2-7.6c0-3.7-1-6.7-3-9c-2-2.2-5.4-4.1-10.2-5.5
			c-1.7-0.5-4.1-1.2-7-2c-7.1-2-10.6-3.9-10.6-5.8c0-1.3,0.7-2.4,2-3.1c1.3-0.7,3.2-1.1,5.7-1.1c3.6,0,6.3,0.7,7.9,2.2
			c1.6,1.5,2.4,3.9,2.4,7.2v0.9h14.8l3-18.2h-15.6l-0.3,2c-1.1-0.7-3-1.2-5.6-1.6c-2.6-0.4-5.7-0.6-9.1-0.6
			c-8.4,0-14.8,1.3-19.2,3.9c-4.4,2.6-6.6,6.4-6.6,11.3c0,3.6,1.1,6.6,3.2,8.8c2.2,2.2,6,4.3,11.6,6.1c0.9,0.3,2.1,0.7,3.6,1.2
			c7,2.2,10.5,4.3,10.5,6.2c0,1.3-0.6,2.2-1.8,2.8c-1.2,0.6-3.3,0.9-6.2,0.9c-3.5,0-6.2-0.7-8-2.2c-1.8-1.5-2.7-3.6-2.7-6.5
			c0-0.4,0-0.8,0-1c0-0.3,0-0.5,0-0.6h-13.2L634.1,77h12.3L646.7,74.8L646.7,74.8z"/>
		<path id="_129108200" class="st1" d="M22.7,74.8c1.5,0.9,3.4,1.6,5.7,2c2.3,0.4,5.8,0.6,10.7,0.6c5.4,0,9.5-0.2,12.5-0.6
			c3-0.4,5.4-1.1,7.3-2c2.9-1.4,5-3.1,6.5-5.3c1.5-2.2,2.2-4.7,2.2-7.6c0-3.7-1-6.7-3-9c-2-2.2-5.4-4.1-10.2-5.5
			c-1.7-0.5-4.1-1.2-7-2c-7.1-2-10.6-3.9-10.6-5.8c0-1.3,0.7-2.4,2-3.1c1.3-0.7,3.2-1.1,5.7-1.1c3.6,0,6.3,0.7,7.9,2.2
			c1.6,1.5,2.4,3.9,2.4,7.2v0.9h14.8l3-18.2H57.2l-0.3,2c-1.1-0.7-3-1.2-5.6-1.6c-2.6-0.4-5.7-0.6-9.1-0.6c-8.4,0-14.8,1.3-19.2,3.9
			c-4.4,2.6-6.6,6.4-6.6,11.3c0,3.6,1.1,6.6,3.2,8.8c2.2,2.2,6,4.3,11.6,6.1c0.9,0.3,2.1,0.7,3.6,1.2c7,2.2,10.5,4.3,10.5,6.2
			c0,1.3-0.6,2.2-1.8,2.8c-1.2,0.6-3.3,0.9-6.2,0.9c-3.5,0-6.2-0.7-8-2.2c-1.8-1.5-2.7-3.6-2.7-6.5c0-0.4,0-0.8,0-1
			c0-0.3,0-0.5,0-0.6H13.5L10.1,77h12.3L22.7,74.8L22.7,74.8z"/>
	</g>
</g>
</svg>
