<?xml version="1.0" standalone="no"?>
<!DOCTYPE svg PUBLIC "-//W3C//DTD SVG 20010904//EN"
 "http://www.w3.org/TR/2001/REC-SVG-20010904/DTD/svg10.dtd">
<svg version="1.0" xmlns="http://www.w3.org/2000/svg"
 width="360.000000pt" height="360.000000pt" viewBox="0 0 360.000000 360.000000"
 preserveAspectRatio="xMidYMid meet">

<g transform="translate(0.000000,360.000000) scale(0.100000,-0.100000)"
fill="#000000" stroke="none">
<path d="M3404 2068 c43 -29 56 -49 56 -85 0 -30 -8 -44 -46 -81 l-47 -44 -19
31 c-17 27 -26 31 -64 31 -24 0 -44 -4 -44 -8 0 -4 14 -29 30 -55 17 -26 30
-52 30 -57 0 -6 -27 -36 -60 -67 -33 -31 -60 -60 -60 -64 0 -5 21 -9 47 -9 41
0 52 5 85 36 l37 37 21 -37 c20 -33 26 -36 66 -36 24 0 44 3 44 6 0 3 -16 29
-35 58 -33 50 -44 86 -27 86 4 0 35 26 70 58 54 50 62 62 62 93 0 22 -7 42
-17 51 -23 20 -90 54 -123 62 -23 6 -23 5 -6 -6z"/>
<path d="M1728 1900 c-93 -50 -104 -181 -18 -225 56 -29 163 -13 212 32 27 24
22 40 -14 46 -24 3 -39 -1 -54 -14 -12 -11 -35 -19 -57 -19 -89 0 -82 123 9
146 18 5 34 0 55 -15 22 -17 38 -21 60 -16 33 7 33 9 19 36 -27 49 -142 65
-212 29z"/>
<path d="M2049 1897 c-83 -44 -103 -161 -37 -210 34 -25 130 -34 182 -17 105
34 135 188 46 232 -51 26 -136 24 -191 -5z m145 -48 c26 -24 -3 -105 -46 -133
-25 -16 -71 4 -82 36 -25 70 75 147 128 97z"/>
<path d="M2355 1908 c-6 -20 -55 -236 -55 -243 0 -3 19 -5 42 -3 l42 3 13 65
c7 35 17 68 21 72 4 4 25 -27 46 -68 39 -72 41 -74 77 -74 36 0 39 2 49 41 24
87 48 208 42 213 -3 3 -20 6 -38 6 -36 0 -35 1 -55 -92 -7 -32 -15 -58 -18
-58 -4 0 -23 34 -44 75 -37 75 -37 75 -77 75 -24 0 -42 -5 -45 -12z"/>
<path d="M2662 1798 c-16 -68 -28 -126 -25 -130 2 -5 22 -8 43 -8 39 0 40 1
46 40 4 22 12 44 18 49 7 6 41 11 76 13 59 3 65 5 68 26 3 21 0 22 -62 22 -64
0 -66 1 -66 25 0 25 1 25 80 25 62 0 80 3 80 14 0 8 3 21 6 30 5 14 -9 16
-114 16 l-120 0 -30 -122z"/>
<path d="M2927 1798 c-15 -68 -27 -126 -27 -130 0 -5 59 -8 130 -8 l130 0 10
26 c6 14 10 27 10 30 0 2 -40 4 -90 4 -83 0 -90 1 -90 20 0 18 7 20 84 20 78
0 84 1 90 23 3 12 6 25 6 30 0 4 -36 7 -80 7 -44 0 -80 2 -80 4 0 30 15 36 95
36 77 0 83 1 89 23 3 12 6 25 6 30 0 4 -58 7 -128 7 l-128 0 -27 -122z"/>
</g>
</svg>
