<svg xmlns="http://www.w3.org/2000/svg" id="Laag_1" data-name="Laag 1" viewBox="0 0 1239.19 162.26"><defs><style>      .cls-1 {        fill: #fff;        fill-rule: evenodd;      }    </style></defs><path class="cls-1" d="m516.16,84.13c-.09.68-.23,1.33-.34,1.98-.08.48-.17.99-.26,1.5-.08.51-.17,1.02-.26,1.56-3.03,17.66-6.07,35.32-9.1,52.95-.91,5.36-1.81,10.72-2.75,16.04l-.51,2.95h-31.38l.71-4.14c3.94-23.02,7.88-46.01,11.85-68.99.17-1.02.34-2.04.51-3.09.06-.26.08-.51.14-.77h-31.35l1.47-4.42c.06-.28.11-.57.17-.91.14-.96.31-1.84.45-2.75.2-1.13.4-2.27.59-3.43l.06-.37c.14-.94.31-1.87.48-2.78l.09-.45c.14-.88.28-1.76.45-2.55.26-1.62.54-3.26.82-4.9l.51-2.92h92.66l-.74,4.17c-.14.79-.28,1.61-.42,2.41-.14.82-.28,1.64-.43,2.44-.17,1.02-.34,2.04-.51,3.06-.17,1.05-.34,2.1-.54,3.12-.14.88-.31,1.76-.45,2.66-.2,1.13-.4,2.27-.6,3.49-.08.37-.11.71-.17,1.08l-.43,3.06h-30.76Zm-72.37,10.29c-1.81,13.63-11.03,25.79-23.73,30.95,6.38,10.09,12.73,20.21,19.1,30.3l3.43,5.44h-38.01l-1.05-1.7c-3.37-5.44-6.75-10.89-10.12-16.33-2.55-4.14-5.13-8.28-7.68-12.42h-11.79c-.74,4.28-1.47,8.59-2.21,12.87-.82,4.88-1.67,9.75-2.49,14.63l-.51,2.95h-31.32l.71-4.14c2.01-11.76,4.03-23.5,6.04-35.23,1.93-11.25,3.85-22.51,5.81-33.76.09-.48.17-.96.26-1.45.09-.54.2-1.08.28-1.65.14-.93.31-1.87.48-2.83.2-1.11.37-2.18.57-3.32.14-.91.31-1.79.45-2.69.2-1.13.4-2.27.59-3.43.09-.51.17-1.05.26-1.56.11-.51.2-1.02.28-1.53.17-1.02.34-2.01.51-3.03.28-1.65.57-3.29.85-4.93l.51-2.92h43.96c10.89.11,22.2.59,32.26,5.24,1.64.82,3.26,1.76,4.88,3.06.14.11.2.17.2.17.06.03.08.09.14.11.03.03.09.09.17.11l.08.11c1.28,1.11,2.38,2.35,3.37,3.68,1.53,2.21,2.67,4.65,3.43,7.23.6,2.3.91,4.65.99,7.06l-.06,3.26c-.11,1.96-.31,3.85-.65,5.73Zm-31.32-3.8l-.09-1.5c-.09-.37-.17-.77-.31-1.16-.09-.23-.17-.45-.28-.65-.25-.4-.54-.77-.94-1.02-4.11-2.32-9.07-2.21-13.69-2.35h-15.19c-.14.71-.26,1.45-.37,2.15-.09.51-.17,1.05-.26,1.56-.11.51-.2,1.02-.28,1.53-.62,3.66-1.25,7.31-1.87,10.94-.28,1.7-.59,3.4-.88,5.07h13.44c5.21-.14,10.83-.17,15.48-2.95,2.98-1.98,4.39-5.5,4.99-8.9.17-.88.26-1.79.26-2.72Zm-76.96,19.25c-2.41,15.08-11.59,28.49-23.84,37.36-12.76,9.81-28.8,15-44.87,14.85-14.74.14-30.13-4.34-40.48-15.22-7.8-7.57-12.33-18.34-12.16-29.25,0-3,.28-5.98.79-8.93,1.3-7.91,4.34-15.51,8.9-22.11.74-1.11,1.56-2.18,2.41-3.26,1.81-2.32,3.8-4.51,5.95-6.55,2.1-1.96,4.28-3.8,6.6-5.53.23-.14.4-.28.57-.43.23-.14.43-.31.65-.48,1.59-1.13,3.2-2.21,4.88-3.23,1.9-1.13,3.83-2.21,5.81-3.18,6.32-3.17,13.15-5.33,20.15-6.46,4.22-.71,8.53-1.05,12.81-1.05s8.39.31,12.5,1.05c6.41,1.11,12.67,3.23,18.23,6.58,1.67.99,3.29,2.1,4.85,3.29,1.36,1.05,2.66,2.15,3.94,3.34.34.34.62.62.91.93,1.79,1.76,3.4,3.66,4.88,5.67,1.5,2.13,2.78,4.39,3.86,6.75.51,1.16.96,2.3,1.33,3.43,1.45,4.34,2.13,8.93,2.13,13.49,0,3-.28,5.98-.79,8.93Zm-31.61-1.19c.26-1.59.4-3.2.42-4.82.03-4.7-1.47-9.41-4.34-13.07-.26-.28-.54-.62-.79-.93-.51-.57-1.05-1.16-1.7-1.73-2.86-2.66-6.41-4.51-10.18-5.33-2.21-.48-4.45-.68-6.72-.68-2.38,0-4.76.23-7.09.68-4.51.93-8.79,2.92-12.56,5.58-.88.62-1.7,1.28-2.47,1.9-.11.09-.26.23-.4.34-.23.17-.45.37-.68.6-5.56,4.79-9.55,11.4-10.69,18.65-.28,1.67-.45,3.35-.45,5.02-.06,5.05,1.78,10.06,5.16,13.8,4.53,5.41,11.73,7.82,18.65,7.71,8.05.08,15.93-3.01,22.11-8.11,6.01-4.9,10.46-11.88,11.71-19.62Zm-140.46-50.03c10.43.09,21.23.79,30.79,5.24,2.01.91,3.91,2.07,5.64,3.43.06.06.17.11.26.2.26.2.51.4.65.54.96.82,1.96,1.84,2.83,2.89,1.73,2.13,3.12,4.56,4.05,7.17.85,2.24,1.36,4.62,1.59,6.97.14,1.13.2,2.27.23,3.43v.45c0,2.86-.28,5.7-.77,8.48-1.76,11.31-7.8,22.28-17.72,28.32-11.65,7.06-25.65,8.67-39.01,8.73h-11.42c-.45,2.75-.94,5.5-1.39,8.22-.88,5.16-1.76,10.29-2.64,15.45l-.51,2.95h-31.32l.71-4.14c3.94-23.02,7.88-46.01,11.85-68.99.17-1.05.34-2.1.54-3.15.37-2.01.71-4.05,1.05-6.12.2-1.08.4-2.15.57-3.23.17-.96.34-1.93.51-2.89.09-.48.17-.99.26-1.5.09-.51.17-1.02.26-1.56l.06-.43c.17-.91.31-1.78.48-2.64.25-1.59.54-3.23.82-4.9l.51-2.92h41.13Zm-3.34,25.28h-10.83c-.11.74-.26,1.45-.37,2.18-.17.91-.31,1.79-.45,2.67l-.08.4c-.79,4.79-1.62,9.58-2.44,14.37-.31,1.82-.62,3.66-.96,5.47h11.99c5.07-.11,10.69-.23,14.91-3.49,3.17-2.61,4.65-6.63,5.33-10.49.14-.91.23-1.84.23-2.78,0-.88-.06-1.76-.34-2.61-.11-.37-.26-.74-.45-1.08-.14-.26-.31-.54-.51-.79-.06-.06-.11-.09-.14-.11-.31-.34-.65-.62-.93-.85-4.42-2.64-9.86-2.78-14.94-2.89Zm-101.57-1.7c-1.62,0-3.23.17-4.73.51-1.13.34-2.3.79-3.34,1.47-1.08.71-2.01,1.64-2.55,2.81-.06.11-.11.26-.17.37-.14.4-.23.82-.28,1.11l-.06.37-.03.34c-.03.77.45,1.53,1.11,2.01.14.11.31.23.45.31,5.5,2.72,11.65,3.83,17.57,5.33,8.53,1.96,17.18,4.96,23.84,10.89,4.59,4.2,6.8,10.46,6.72,16.58,0,2.04-.2,4.08-.54,6.1-1.5,9.67-7.82,18.08-16.02,23.24-9.47,6.15-20.89,8.62-32.06,8.59-16.81.23-33.76-5.98-45.75-17.89l-2.69-2.61,2.78-2.55c2.3-2.1,4.59-4.2,6.89-6.26,3.4-3.09,6.78-6.15,10.18-9.24l2.38-2.18,2.38,2.15c7.57,6.86,17.04,12.59,27.52,12.61,3.15,0,6.41-.45,9.13-1.98,1.59-.96,2.98-2.52,3.29-4.45l.06-.28.03-.65c.03-.79-.48-1.61-1.22-2.1-.06-.06-.14-.11-.28-.2-4.22-2.55-9.13-3.46-13.78-4.62-9.58-2.21-19.5-4.85-27.35-11.05-4.93-3.94-7.23-10.38-7.12-16.55,0-2.24.23-4.45.62-6.69.2-1.05.4-2.13.71-3.15.6-2.32,1.45-4.65,2.58-6.86,1.33-2.49,2.98-4.82,4.88-6.86,1.1-1.28,2.38-2.44,3.71-3.49,1.39-1.11,2.86-2.13,4.42-3.09,5.73-3.37,12.05-5.61,18.57-6.8,4-.71,8.05-1.05,12.1-1.05s8.28.34,12.36,1.05c3.34.59,6.69,1.42,9.89,2.47,3.34,1.05,6.63,2.38,9.72,4.02,1.84.99,3.63,2.07,5.33,3.29,1.16.82,2.3,1.7,3.37,2.64l2.92,2.47-2.72,2.72c-.11.14-.26.28-.4.42l-.09.11c-2.01,2.1-3.97,4.14-5.92,6.18-1.96,2.07-3.91,4.11-5.9,6.18l-.09.09c-.79.82-1.59,1.64-2.38,2.47l-2.15,2.3-2.52-1.84c-1.16-.85-2.35-1.7-3.57-2.47-4.45-2.78-9.44-4.73-14.57-5.67-2.38-.4-4.79-.6-7.23-.6Z"></path><path class="cls-1" d="m1098.88,161.12l44.33-48.59c.85-.93,1.73-1.87,2.58-2.81l1.39-1.53c-.85-1.47-1.67-2.98-2.49-4.45-2.49-4.48-5.02-8.96-7.48-13.44-.57-1.02-1.13-2.04-1.73-3.09-1.05-1.87-2.1-3.74-3.06-5.53-.03,0-.11-.17-.2-.34l-.08-.11-.08-.17c-1.16-2.04-2.3-4.08-3.43-6.12-.28-.54-.59-1.05-.88-1.56-.26-.51-.54-1.02-.82-1.53-.57-1.02-1.13-2.01-1.7-3.03-.17-.26-.28-.51-.43-.74-.31-.57-.62-1.13-.93-1.7-.23-.4-.43-.79-.65-1.16-.26-.45-.54-.91-.77-1.36l-2.81-5.22h36.96l1.02,1.81c.45.82.91,1.62,1.36,2.44.45.82.91,1.61,1.36,2.44.2.34.4.71.6,1.05.34.65.71,1.33,1.1,1.98.42.77.82,1.53,1.3,2.33l.11.2c.03.11.11.23.17.34.06.08.08.17.14.26,1.13,2.04,2.27,4.08,3.43,6.09.57,1.08,1.13,2.1,1.7,3.12.57,1.02,1.13,2.04,1.7,3.03.11.2.23.4.34.62.37-.43.74-.85,1.13-1.25,1.81-2.04,3.66-4.08,5.53-6.15.91-.99,1.79-1.98,2.66-2.98.96-1.05,1.9-2.13,2.86-3.15.43-.48.88-.99,1.33-1.53.45-.51.91-1.02,1.42-1.56.91-1.02,1.81-2.01,2.75-3.06.57-.65,1.13-1.27,1.73-1.93.88-.99,1.79-1.98,2.69-2.98l1.05-1.13h.37c.96-1.3,1.9-2.55,2.83-3.83.77-1.05,1.53-2.1,2.33-3.15.74-.99,1.47-1.98,2.21-3,.71-.96,1.45-1.96,2.18-2.95.57-1.02,1.08-2.07,1.5-3.2.79-1.93,1.33-3.97,1.53-6.09.11-1.05.11-2.13.03-3.2-.08-.96-.26-1.96-.48-2.95-.48-2.01-1.33-4.05-2.61-6.15-1.28-2.01-2.95-4.05-5.13-6.15-1.13-1.05-2.41-2.13-3.83-3.2-1.28-.96-2.69-1.93-4.22-2.89-3.29-2.1-7.17-4.11-11.71-6.15-.14-.06-.28-.14-.4-.17-4.28-1.9-9.16-3.74-14.66-5.56.37.14,10.57,1.98,23.39,5.73,5.7,1.67,11.91,3.68,17.97,6.15,2.3.91,4.56,1.87,6.78,2.89,2.21,1.02,4.37,2.1,6.43,3.2,3.43,1.9,6.63,3.97,9.47,6.15,2.44,1.93,4.59,4,6.32,6.15.76.96,1.47,1.96,2.07,2.95.62,1.02,1.13,2.1,1.56,3.2.74,1.93,1.16,4,1.16,6.09.03,1.98-.31,4.05-1.02,6.15-.34.99-.76,1.98-1.25,3-.51,1.02-1.11,2.07-1.81,3.15-.82,1.25-1.76,2.52-2.86,3.83h.62l-5.5,5.95c-1.02,1.08-2.01,2.18-3.01,3.29-.48.51-.96,1.05-1.45,1.56-.45.51-.91,1.02-1.36,1.53-.48.51-.94,1.02-1.39,1.5-.91,1.05-1.84,2.1-2.81,3.12-1.84,2.04-3.69,4.08-5.53,6.12-.93,1.02-1.87,2.04-2.78,3.06-.94,1.02-1.87,2.07-2.78,3.09-.48.51-.96,1.02-1.42,1.53-.45.54-.94,1.05-1.39,1.56-5.36,5.9-10.69,11.76-15.99,17.69,7.14,12.59,14.29,25.17,21.43,37.79,1.79,3.12,3.57,6.26,5.36,9.38l3.01,5.3h-37.59l-1.02-1.81c-3.6-6.41-7.2-12.78-10.8-19.19-1.47-2.64-2.98-5.24-4.45-7.88-1.33,1.47-2.66,2.95-4,4.42-3.97,4.45-7.96,8.87-11.96,13.3-3.01,3.34-6.01,6.66-9.01,10.01l-1.05,1.16h-38.52Z"></path><path class="cls-1" d="m1108.35,62.82c-.09.54-.2,1.1-.28,1.67-.17,1.08-.37,2.18-.57,3.2-.17.99-.34,2.01-.51,3.03-.17,1.05-.34,2.1-.54,3.12-.06.43-.14.88-.23,1.33-.25,1.59-.54,3.2-.79,4.71-.06.31-.11.65-.17,1.02-.06.26-.08.51-.11.77l-.45,3.03h-53.97c-.08.45-.14.93-.23,1.39-.17.93-.31,1.81-.45,2.69l-.08.4c-.48,2.69-.94,5.39-1.39,8.08h48.53l-.74,4.17c-.54,3.03-1.05,6.1-1.59,9.16-.51,2.98-1.02,5.95-1.56,8.96l-.51,2.92h-48.47c-.71,4.25-1.45,8.53-2.18,12.78h55.59l-.71,4.14c-1.08,6.27-2.15,12.53-3.2,18.79l-.26,1.39.03-.06-.26,1.62h-86.91l.71-4.14c1.9-11.08,3.8-22.14,5.67-33.22,2.07-11.91,4.11-23.84,6.15-35.77.17-1.05.34-2.1.54-3.15.2-1.08.4-2.21.59-3.32.14-.93.31-1.87.48-2.81.06-.43.14-.88.23-1.33.26-1.59.54-3.2.82-4.79.09-.48.17-.99.26-1.5.09-.51.17-1.02.26-1.56.08-.45.17-.94.26-1.39.08-.54.2-1.08.28-1.64.11-.77.26-1.5.37-2.27.14-.88.28-1.76.45-2.66l.51-2.92h85.18l-.74,4.17Zm-98.31,0c-.28,1.59-.57,3.2-.79,4.88-.2.91-.34,1.76-.48,2.61l-.08.42c-.09.48-.17.96-.26,1.45-.08.54-.2,1.08-.28,1.62-.14.93-.31,1.81-.45,2.72-.2,1.13-.4,2.27-.59,3.4-.03.26-.08.54-.11.79-.06.26-.08.51-.14.74l-.45,3.01h-50.29c-.08.54-.17,1.11-.28,1.64-.09.51-.17,1.05-.26,1.56-.11.51-.2,1.02-.28,1.53-.45,2.64-.91,5.27-1.33,7.91-.06.28-.08.57-.14.85h47.74l-.71,4.14c-.51,3.06-1.05,6.12-1.59,9.18-.54,3.17-1.11,6.32-1.64,9.5l-.51,2.95h-47.73c-.68,3.94-1.33,7.88-2.01,11.82-1.3,7.54-2.61,15.11-3.91,22.65l-.51,2.95h-31.27l.71-4.14c3.57-20.83,7.14-41.7,10.71-62.53.37-2.15.74-4.31,1.11-6.52.2-1.02.37-2.01.54-3.03.2-1.13.4-2.27.59-3.37.14-.93.31-1.87.48-2.81.06-.43.14-.88.23-1.33.26-1.59.54-3.2.82-4.79l.06-.34c.14-.94.31-1.87.48-2.78.17-.96.34-1.96.51-2.98.08-.51.17-1.02.26-1.53.2-1.16.37-2.3.59-3.46l.57-2.86h81.47l-.74,4.17Zm-131.47-4.17h31.38l-.82,4.22c-.28,1.39-.51,2.78-.77,4.17-.03.23-.09.42-.11.62-.17,1.02-.34,2.04-.51,3.06l-.06.37c-.14.93-.31,1.87-.48,2.75-.34,2.01-.68,4.08-1.05,6.1-.17,1.1-.37,2.21-.57,3.34-.17.93-.31,1.87-.48,2.81l-.06.37c-.14.94-.31,1.87-.48,2.75-1.9,11.05-3.8,22.11-5.7,33.16-2.04,11.93-4.08,23.87-6.15,35.8l-.51,2.95h-28.97l-1.05-1.53c-10.43-15.11-20.89-30.22-31.35-45.33-1.67-2.47-3.37-4.9-5.07-7.34-.74,4.39-1.47,8.82-2.24,13.21-2.18,12.67-4.36,25.37-6.52,38.04l-.51,2.95h-31.29l.71-4.14c3.94-23.02,7.88-46.01,11.85-68.99.17-1.02.34-2.04.51-3.09.14-.93.31-1.87.48-2.83.2-1.11.37-2.18.57-3.32.14-.91.31-1.79.45-2.69.2-1.13.4-2.27.6-3.49.17-.88.31-1.76.45-2.64l.08-.4c.17-1.02.34-2.01.51-3.06.26-1.42.51-2.78.74-4.17.06-.26.08-.48.14-.74l.51-2.92h27.41l1.05,1.5c.45.62.88,1.28,1.33,1.9.68.99,1.36,1.98,2.07,2.98.74,1.05,1.45,2.07,2.15,3.09.34.51.71,1.02,1.08,1.56.34.51.68,1.02,1.05,1.53,1.42,2.04,2.83,4.08,4.25,6.12,1.42,2.07,2.84,4.11,4.25,6.15.34.51.71,1.02,1.08,1.56.34.51.68,1.02,1.05,1.53,4.99,7.23,10.01,14.46,15.02,21.68,1.45,2.07,2.89,4.14,4.31,6.24.62-3.54,1.22-7.06,1.81-10.57.94-5.3,1.84-10.63,2.75-15.93.17-1.02.34-2.04.51-3.09.37-2.07.71-4.11,1.05-6.18.2-1.08.4-2.15.57-3.23.17-.96.34-1.93.51-2.89l.06-.34c.14-.94.31-1.87.48-2.78.17-.96.34-1.98.51-3.03.09-.54.2-1.11.28-1.67.17-1.08.37-2.18.57-3.26l.57-2.86Zm-97.85,51.22c-2.38,15.08-11.59,28.46-23.84,37.36-12.76,9.81-28.83,15-44.9,14.85-14.71.14-30.1-4.34-40.45-15.19-7.82-7.57-12.36-18.37-12.19-29.28,0-3,.28-5.98.79-8.93,1.33-7.91,4.36-15.51,8.93-22.11.74-1.11,1.56-2.18,2.41-3.26,1.81-2.32,3.8-4.51,5.95-6.55,2.04-1.96,4.25-3.77,6.61-5.56l.2-.11c.11-.09.23-.17.37-.28.17-.14.37-.28.6-.42l.08-.06c1.5-1.1,3.15-2.18,4.82-3.23,1.9-1.16,3.85-2.24,5.84-3.2,6.32-3.12,13.15-5.3,20.15-6.43,4.22-.71,8.53-1.05,12.81-1.05s8.36.34,12.5,1.05c6.38,1.11,12.64,3.26,18.17,6.58,1.7.96,3.34,2.07,4.88,3.26,1.36,1.05,2.66,2.15,3.97,3.37.14.14.26.26.37.37.11.14.23.26.37.37,0,.03.03.06.14.14,1.79,1.87,3.43,3.71,4.88,5.73,1.5,2.16,2.83,4.42,3.83,6.78.51,1.05.96,2.21,1.36,3.37,1.47,4.34,2.18,8.93,2.15,13.49,0,3.01-.28,6.01-.79,8.96Zm-31.64-1.19c.26-1.62.43-3.23.43-4.85.03-4.71-1.47-9.38-4.39-13.1-.26-.34-.51-.62-.71-.88-.51-.57-1.11-1.19-1.7-1.79-2.86-2.64-6.43-4.45-10.21-5.27-2.21-.48-4.48-.68-6.75-.68-2.38,0-4.73.23-7.06.68-4.51.93-8.79,2.92-12.56,5.58-.82.6-1.62,1.19-2.44,1.9-.43.34-.82.68-1.16.96-5.5,4.76-9.47,11.39-10.66,18.62-.28,1.61-.42,3.29-.42,4.93-.09,5.07,1.81,10.12,5.19,13.89,4.51,5.39,11.68,7.82,18.6,7.71,8.08.08,15.99-3.01,22.17-8.11,5.98-4.9,10.43-11.88,11.68-19.62Zm-147.94,26.56c1.76,0,3.49-.11,5.22-.28,3-.4,6.01-1.1,8.9-2.13,4.59-1.64,8.9-4.17,12.67-7.34.68-.54,1.33-1.13,1.96-1.73l2.58-2.49,2.47,2.64c3.63,3.85,7.2,7.77,10.8,11.65.77.82,1.53,1.64,2.3,2.47l2.49,2.69-2.81,2.41c-5.3,4.48-11.03,8.45-17.23,11.57-4.54,2.3-9.33,4.11-14.29,5.39-4.17,1.05-8.42,1.73-12.67,2.01-1.53.11-3.09.17-4.65.17-14.91.11-30.61-4.05-41.33-14.97-7.62-7.62-12.02-18.31-11.85-29.11,0-3.09.28-6.18.82-9.21,1.33-7.99,4.42-15.7,9.04-22.39.74-1.11,1.56-2.18,2.41-3.29,1.84-2.3,3.85-4.48,5.98-6.52,2.04-1.93,4.2-3.71,6.46-5.44.23-.14.43-.31.65-.45.2-.17.43-.34.68-.51,1.59-1.16,3.23-2.24,4.9-3.26,1.9-1.13,3.83-2.21,5.84-3.2,6.32-3.12,13.1-5.3,20.07-6.43,4.2-.71,8.48-1.05,12.73-1.05,1.73,0,3.46.06,5.19.17l.43.03c2.21.14,4.39.45,6.44.79l.31.03c2.55.42,4.93.99,7.26,1.7,3.85,1.19,7.6,2.83,11.11,4.88,1.7,1.02,3.34,2.13,4.9,3.29,1.36,1.05,2.69,2.15,3.94,3.32,1.65,1.53,3.2,3.18,4.65,4.9l2.3,2.69-2.66,2.3c-.34.28-.68.57-1.05.85-.26.23-.51.45-.79.68-.82.71-1.64,1.42-2.49,2.13-1.56,1.36-3.12,2.69-4.68,4.03-.6.51-1.19,1.02-1.79,1.53-.6.54-1.19,1.05-1.81,1.56-.91.77-1.81,1.53-2.69,2.3-.79.68-1.56,1.36-2.35,2.01l-2.92,2.47-2.24-3.06c-.99-1.36-2.1-2.67-3.32-3.83-.85-.77-1.7-1.5-2.58-2.18-.11-.06-.23-.14-.37-.23-.2-.14-.37-.26-.48-.37-3.15-2.07-6.83-3.43-10.66-4.05-.88-.14-1.7-.26-2.55-.34-1.16-.09-2.32-.14-3.49-.14-6.52-.03-13.04,1.59-18.71,4.73-1.33.74-2.61,1.53-3.83,2.38l-.08.06c-.09.09-.14.11-.2.17l-.11.06s-.06.06-.11.11c-6.15,4.39-10.26,11.17-11.42,18.51-.28,1.7-.45,3.43-.45,5.16-.06,4.82,1.59,9.72,5.02,13.18,4.62,4.93,11.51,7.11,18.17,7.03Z"></path></svg>