<?xml version="1.0" standalone="no"?>
<!DOCTYPE svg PUBLIC "-//W3C//DTD SVG 20010904//EN"
 "http://www.w3.org/TR/2001/REC-SVG-20010904/DTD/svg10.dtd">
<svg version="1.0" xmlns="http://www.w3.org/2000/svg"
 width="225.000000pt" height="225.000000pt" viewBox="0 0 225.000000 225.000000"
 preserveAspectRatio="xMidYMid meet">

<g transform="translate(0.000000,225.000000) scale(0.100000,-0.100000)"
fill="#000000" stroke="none">
<path d="M493 1704 c-56 -20 -129 -86 -157 -143 -25 -48 -336 -795 -336 -805
0 -3 177 -6 394 -6 425 0 426 0 412 52 -3 13 -74 86 -157 163 -179 166 -202
201 -202 310 0 112 50 196 147 248 41 22 43 22 812 25 595 2 774 5 781 15 9
11 63 142 63 152 0 3 -386 5 -857 4 -731 0 -864 -3 -900 -15z"/>
<path d="M692 1314 c-45 -31 -31 -54 128 -201 121 -111 156 -150 180 -197 64
-126 26 -271 -93 -357 l-41 -30 169 3 169 3 157 380 c87 209 158 388 159 398
0 16 -26 17 -403 17 -348 0 -406 -2 -425 -16z"/>
<path d="M1768 1318 c-13 -11 -310 -714 -326 -771 -4 -15 5 -17 85 -17 55 0
107 6 136 16 53 18 130 82 154 128 34 63 271 641 267 648 -9 14 -298 9 -316
-4z"/>
</g>
</svg>
