<?xml version="1.0" standalone="no"?>
<!DOCTYPE svg PUBLIC "-//W3C//DTD SVG 20010904//EN"
 "http://www.w3.org/TR/2001/REC-SVG-20010904/DTD/svg10.dtd">
<svg version="1.0" xmlns="http://www.w3.org/2000/svg"
 width="729.000000pt" height="200.000000pt" viewBox="0 0 729.000000 200.000000"
 preserveAspectRatio="xMidYMid meet">

<g transform="translate(0.000000,200.000000) scale(0.100000,-0.100000)"
fill="#000000" stroke="none">
<path d="M4202 1271 c-121 -31 -215 -84 -302 -170 -123 -123 -180 -263 -180
-441 0 -178 57 -317 181 -442 60 -62 93 -86 160 -118 120 -57 193 -73 329 -73
172 0 324 42 453 125 l47 30 -2 247 -3 246 -127 3 -128 3 0 -181 0 -181 -47
-22 c-41 -19 -65 -22 -173 -22 -114 0 -130 2 -182 27 -79 37 -142 98 -181 177
-30 62 -32 71 -32 181 0 110 1 118 33 182 40 81 110 148 190 180 48 19 75 23
172 22 131 0 174 -14 267 -86 l53 -40 91 83 91 84 -53 47 c-63 55 -137 97
-229 128 -93 32 -323 38 -428 11z"/>
<path d="M30 1155 l0 -115 195 0 195 0 0 -500 0 -500 140 0 140 0 0 500 0 500
195 0 195 0 0 115 0 115 -530 0 -530 0 0 -115z"/>
<path d="M1277 672 c-146 -329 -269 -605 -273 -615 -6 -16 6 -17 135 -17 123
0 142 2 152 17 6 10 32 70 58 133 l47 115 286 3 285 2 56 -132 55 -133 147 -3
c137 -2 147 -1 143 15 -3 10 -126 287 -273 616 l-268 597 -141 0 -142 0 -267
-598z m502 94 c50 -120 91 -224 91 -232 0 -11 -34 -14 -190 -14 -104 0 -190 2
-190 4 0 2 61 150 187 454 3 7 7 12 8 10 2 -2 44 -101 94 -222z"/>
<path d="M2502 658 l3 -613 140 0 140 0 3 173 2 172 130 0 129 0 121 -175 121
-175 143 0 c78 0 145 3 148 6 3 3 -51 87 -121 187 -70 100 -130 187 -134 193
-4 7 17 26 53 48 132 82 201 227 187 394 -15 178 -126 314 -306 374 -62 21
-86 23 -414 26 l-347 3 2 -613z m629 372 c57 -16 102 -51 127 -100 19 -37 23
-57 20 -117 -3 -62 -7 -77 -34 -110 -16 -21 -52 -49 -79 -63 -46 -22 -64 -25
-212 -28 l-163 -4 0 216 0 216 153 0 c83 0 168 -5 188 -10z"/>
<path d="M5450 1155 l0 -115 570 0 570 0 0 -500 0 -500 140 0 140 0 0 500 0
500 200 0 200 0 0 115 0 115 -910 0 -910 0 0 -115z"/>
<path d="M5270 655 l0 -115 375 0 375 0 0 115 0 115 -375 0 -375 0 0 -115z"/>
<path d="M5100 155 l0 -115 370 0 370 0 0 115 0 115 -370 0 -370 0 0 -115z"/>
</g>
</svg>
