<?xml version="1.0" encoding="utf-8"?>
<!-- Generator: Adobe Illustrator 23.0.4, SVG Export Plug-In . SVG Version: 6.00 Build 0)  -->
<svg version="1.1" id="Layer_1" xmlns="http://www.w3.org/2000/svg" xmlns:xlink="http://www.w3.org/1999/xlink" x="0px" y="0px"
	 viewBox="0 0 1366 768" style="enable-background:new 0 0 1366 768;" xml:space="preserve">
<g>
	<path d="M765.6,330.1c0-48.7-31.1-81.2-89.5-81.2h-99.5v253.7h46.7v-90.9h52.8C734.4,411.7,765.6,378.8,765.6,330.1L765.6,330.1z
		 M719,330.4c0,24.3-14,40.8-44.7,40.8h-51v-81.9h51C705.1,289.3,719,306.1,719,330.4L719,330.4z M544.6,472.3l-96.4-96.4l96.3-96
		l-32-32L385.4,375.5l127.5,127.9L544.6,472.3L544.6,472.3z M350.3,375.5l46.9-47v-79.6h-46.9V375.5L350.3,375.5z M248.9,291.8h74.6
		v-42.9H127v42.9h74.6v210.8h47.3V291.8L248.9,291.8z M397.2,422.6l-46.9-47v127h46.9V422.6L397.2,422.6z"/>
	<path d="M885,502.5v-30.2c0-10.2-4.9-16.9-15.3-16.9c-5.8,0-11.7,3-14.2,8.7c-2-5.6-6.9-8.7-13.7-8.7c-5.2,0-10.4,2.5-12.9,7.7
		l-0.7-6.5h-6.7v45.9h7.7v-24.4c0-3.8,0.8-8.7,3.1-11.6c1.9-2.5,4.5-4.1,7.8-4.1c7.4,0,9.3,4.4,9.3,10.9v29.2h7.7v-24.4
		c0-4.8,0.8-9.4,3.9-12.6c1.8-1.9,4.1-3.1,7-3.1c7.3,0,9.3,4.4,9.3,10.9v29.2H885L885,502.5z M936.7,502.1v-5.7c0,0-1.2,0.3-2,0.3
		c-1.5,0-2.5-0.6-2.5-3.1v-22.2c0-2.6-0.5-5-1.4-7.1c-2.2-5-7.3-8.8-16.2-8.8c-5.6,0-11.1,1.6-14.2,4.9c-2.4,2.5-3.9,5.4-4,9.6h7.5
		c0-2.3,0.8-4.1,2.3-5.5c1.5-1.5,4.2-2.7,8.3-2.7c3.7,0,6,0.9,7.5,2.4c2.1,1.9,2.4,4.7,2.4,7v3.4l-14,0.8
		c-12.5,0.7-16.3,8.4-16.3,14.3c0,7.1,5.3,14.2,15.8,14.2c6.4,0,12.2-2.9,14.8-7.5h0.2c0,3.9,2.5,7,6.6,7
		C933.5,503.2,935,502.9,936.7,502.1L936.7,502.1z M924.5,483.1c0,3.8-1.2,7.6-3.9,10.4c-2.4,2.5-5.9,3.7-9.4,3.7
		c-6.5,0-9.1-3.8-9.1-7.9c0-5.8,5.4-8,10.1-8.3l12.3-0.7V483.1L924.5,483.1z M982.8,502.5V437h-7.7v25c-2.4-4.2-8.3-6.5-13.3-6.5
		c-5.4,0-9.6,1.8-12.6,4.6c-4.6,4.4-7,11.7-7,19.6c0,7.6,2.3,14.6,6.6,19.1c3,3.1,7.3,5,13,5c5.2,0,11.1-2.5,13.7-7.2l0.5,6H982.8
		L982.8,502.5z M975.6,479.6c0,5.7-1.3,11.3-5.1,14.6c-1.8,1.6-4.1,3-7.4,3c-10.3,0-13-9.2-13-17.6c0-8.4,2.7-17.6,13-17.6
		c3.4,0,5.6,1.4,7.4,3C974.3,468.3,975.6,473.9,975.6,479.6L975.6,479.6z M1033.5,477.5c0.1-6.2-2.1-12.1-5.8-16.2
		c-3.4-3.6-8.1-5.9-14-5.9c-8,0-14.1,4.1-17.3,9.6c-2.5,4.3-3.5,9.2-3.5,14.7c0,6.5,1.9,12.6,5.7,17.1c3.5,4.2,8.8,6.9,15.2,6.9
		c4.4,0,8.4-1.3,11.7-3.4c3.7-2.5,6.4-6.8,7.1-11.3h-7.5c-0.6,2.4-1.5,3.7-2.7,5c-1.9,2-4.9,3-8.5,3c-3.5,0-6.3-1.2-8.4-3.3
		c-2.8-2.8-4.4-7.4-4.4-11.5h32.5L1033.5,477.5L1033.5,477.5z M1025.6,475.5h-24.5c0.2-6.7,4.3-13.5,12.6-13.5
		c4.1,0,7.2,1.6,9.1,4.2C1024.6,468.6,1025.6,472.1,1025.6,475.5L1025.6,475.5z M1099.9,477.5c0.1-6.2-2.1-12.1-5.8-16.2
		c-3.4-3.6-8.1-5.9-14-5.9c-8,0-14.1,4.1-17.3,9.6c-2.5,4.3-3.5,9.2-3.5,14.7c0,6.5,1.9,12.6,5.7,17.1c3.5,4.2,8.8,6.9,15.2,6.9
		c4.3,0,8.4-1.3,11.7-3.4c3.7-2.5,6.5-6.8,7.1-11.3h-7.5c-0.6,2.4-1.5,3.7-2.7,5c-1.9,2-4.9,3-8.5,3c-3.5,0-6.4-1.2-8.4-3.3
		c-2.8-2.8-4.5-7.4-4.5-11.5h32.5L1099.9,477.5L1099.9,477.5z M1092,475.5h-24.5c0.2-6.7,4.3-13.5,12.6-13.5c4.1,0,7.2,1.6,9.1,4.2
		C1091,468.6,1092,472.1,1092,475.5L1092,475.5z M1148.8,502.1v-5.7c0,0-1.2,0.3-2,0.3c-1.5,0-2.5-0.6-2.5-3.1v-22.2
		c0-2.6-0.4-5-1.4-7.1c-2.2-5-7.3-8.8-16.2-8.8c-5.6,0-11.1,1.6-14.2,4.9c-2.4,2.5-3.9,5.4-4,9.6h7.5c0-2.3,0.8-4.1,2.3-5.5
		c1.5-1.5,4.2-2.7,8.3-2.7c3.7,0,6,0.9,7.5,2.4c2.1,1.9,2.4,4.7,2.4,7v3.4l-14,0.8c-12.5,0.7-16.3,8.4-16.3,14.3
		c0,7.1,5.3,14.2,15.8,14.2c6.4,0,12.2-2.9,14.8-7.5h0.2c0,3.9,2.5,7,6.6,7C1145.6,503.2,1147.2,502.9,1148.8,502.1L1148.8,502.1z
		 M1136.7,483.1c0,3.8-1.2,7.6-3.9,10.4c-2.5,2.5-5.9,3.7-9.4,3.7c-6.5,0-9.1-3.8-9.1-7.9c0-5.8,5.4-8,10.1-8.3l12.3-0.7V483.1
		L1136.7,483.1z M1192.4,489.2c0-6.9-5.2-11.6-11.7-12.7c-4.9-0.8-8.5-1.2-11.1-1.5c-3.8-0.5-6.2-2.2-6.2-6c0-2.5,1.7-5,4.6-6.2
		c2.2-0.9,3.5-0.9,5.4-0.9c3.1,0,5.6,0.7,7.5,2.5c1.4,1.2,2.5,3.4,2.6,5.7h7.7c0-3.7-1.3-6.4-3.3-8.8c-3.1-3.9-8.5-5.8-14.6-5.8
		c-5.7,0-10.5,2-13.5,5.1c-2.1,2.1-3.8,5.4-3.8,9c0,7,4.3,11.3,11.2,12.3l10.3,1.4c4.7,0.6,7.2,3.1,7.2,6.5c0,2.1-1,4-2.3,5
		c-2.4,2-5.3,2.5-8.4,2.5c-2.9,0-6.2-0.5-8.2-2.1c-2.2-1.6-3.6-4-3.7-7.2h-7.7c0,3.9,1.6,7.8,4.4,10.5c3.9,3.8,9.2,5.2,14.9,5.2
		c6,0,11.4-1.5,15-5.2C1190.9,496.3,1192.4,493.2,1192.4,489.2L1192.4,489.2z M1238.7,456.6h-8.1l-12.9,36.2l-13.5-36.2h-8.7
		l18.3,45.9l-2.9,7.7c-1.3,3.4-3.6,4.6-6.9,4.6c-3,0-5.5-0.7-5.5-0.7v6.7c0.6,0.2,3.2,0.9,7,0.9c6.9,0,10.3-3.9,12.4-9.8
		L1238.7,456.6L1238.7,456.6z"/>
	<path d="M867.3,366.9c0-5.6-1.8-10.3-4.9-13.6c-3.4-3.7-8.8-5.8-16.3-5.8h-23.9v64.3h8.1v-25h15.9c7.1,0,12.3-1.9,15.8-5.4
		C865.4,378,867.3,373.1,867.3,366.9L867.3,366.9z M858.9,366.9c0,8.6-4.4,12.6-13,12.6h-15.7v-24.7h15.6
		C853.8,354.8,858.9,358.7,858.9,366.9L858.9,366.9z M912.3,386.8c0.1-6.2-2.1-12.1-5.8-16.2c-3.4-3.6-8.1-5.9-14-5.9
		c-8,0-14.1,4.1-17.3,9.6c-2.5,4.3-3.5,9.2-3.5,14.7c0,6.5,1.9,12.6,5.7,17.1c3.5,4.2,8.8,6.9,15.2,6.9c4.4,0,8.4-1.3,11.7-3.4
		c3.7-2.5,6.4-6.8,7.1-11.3h-7.5c-0.6,2.5-1.5,3.7-2.7,5c-1.9,2-4.9,3-8.5,3c-3.5,0-6.4-1.2-8.4-3.3c-2.8-2.8-4.4-7.4-4.4-11.5h32.5
		L912.3,386.8L912.3,386.8z M904.4,384.8h-24.5c0.2-6.7,4.3-13.5,12.6-13.5c4.1,0,7.2,1.6,9.1,4.2
		C903.4,377.9,904.4,381.3,904.4,384.8L904.4,384.8z M959.4,411.8v-30.2c0-10.6-5.4-16.9-15.9-16.9c-5.2,0-11.5,2.8-13.9,8.1
		l-0.6-6.9h-6.7v45.9h7.7v-21.3c0-3.5,0.1-8.3,1.6-11.7c2-4.2,5.5-7.1,10-7.1c7.3,0,10.1,4.1,10.1,11v29.1H959.4L959.4,411.8z
		 M1006.4,398.5c0-6.9-5.2-11.6-11.7-12.7c-4.9-0.8-8.5-1.2-11.1-1.5c-3.8-0.5-6.2-2.2-6.2-6c0-2.5,1.7-5,4.6-6.2
		c2.2-0.9,3.5-0.9,5.4-0.9c3.1,0,5.6,0.7,7.5,2.5c1.4,1.2,2.5,3.4,2.6,5.7h7.7c0-3.7-1.3-6.4-3.3-8.8c-3.1-3.9-8.5-5.8-14.6-5.8
		c-5.7,0-10.5,2-13.5,5.1c-2.1,2.1-3.8,5.4-3.8,9c0,7,4.4,11.3,11.3,12.3l10.3,1.4c4.7,0.6,7.2,3.1,7.2,6.5c0,2.1-1,4-2.3,5
		c-2.4,2-5.3,2.5-8.4,2.5c-2.9,0-6.2-0.5-8.3-2.1c-2.2-1.6-3.6-4-3.7-7.2h-7.7c0,3.9,1.6,7.8,4.4,10.5c3.9,3.8,9.2,5.2,14.9,5.2
		c6,0,11.4-1.5,15-5.2C1004.9,405.5,1006.4,402.5,1006.4,398.5L1006.4,398.5z M1024.7,355.4v-9.1h-9v9.1H1024.7L1024.7,355.4z
		 M1024.1,411.8v-45.9h-7.9v45.9H1024.1L1024.1,411.8z M1075,388.8c0-7.3-1.5-13.9-6.5-18.8c-3.4-3.3-8.1-5.4-13.9-5.4
		c-5.8,0-10.5,2.1-13.9,5.4c-5,4.9-6.5,11.5-6.5,18.8c0,7.3,1.6,13.9,6.5,18.8c3.4,3.3,8.1,5.4,13.9,5.4c5.8,0,10.5-2.1,13.9-5.4
		C1073.4,402.7,1075,396.1,1075,388.8L1075,388.8z M1067.1,388.8c0,5.4-1,10.9-4.3,14.2c-1.9,1.9-4.6,3.3-8.3,3.3
		c-3.6,0-6.3-1.4-8.3-3.3c-3.3-3.4-4.3-8.9-4.3-14.2c0-5.4,1-10.9,4.3-14.2c1.9-1.9,4.6-3.3,8.3-3.3c3.6,0,6.4,1.4,8.3,3.3
		C1066.1,377.9,1067.1,383.5,1067.1,388.8L1067.1,388.8z M1122.9,386.8c0.1-6.2-2.1-12.1-5.8-16.2c-3.4-3.6-8.1-5.9-14-5.9
		c-8,0-14.1,4.1-17.3,9.6c-2.5,4.3-3.5,9.2-3.5,14.7c0,6.5,1.9,12.6,5.7,17.1c3.5,4.2,8.8,6.9,15.2,6.9c4.3,0,8.4-1.3,11.7-3.4
		c3.7-2.5,6.4-6.8,7.1-11.3h-7.5c-0.6,2.5-1.5,3.7-2.7,5c-1.9,2-4.9,3-8.5,3c-3.5,0-6.4-1.2-8.4-3.3c-2.8-2.8-4.4-7.4-4.4-11.5h32.5
		L1122.9,386.8L1122.9,386.8z M1115,384.8h-24.5c0.2-6.7,4.3-13.5,12.6-13.5c4.1,0,7.2,1.6,9.1,4.2
		C1114,377.9,1115,381.3,1115,384.8L1115,384.8z M1170,411.8v-30.2c0-10.6-5.5-16.9-15.9-16.9c-5.2,0-11.5,2.8-13.9,8.1l-0.6-6.9
		h-6.7v45.9h7.7v-21.3c0-3.5,0.1-8.3,1.6-11.7c2-4.2,5.5-7.1,10-7.1c7.3,0,10.1,4.1,10.1,11v29.1H1170L1170,411.8z"/>
</g>
</svg>
