<?xml version="1.0" encoding="utf-8"?>
<!-- Generator: Adobe Illustrator 25.0.0, SVG Export Plug-In . SVG Version: 6.00 Build 0)  -->
<svg version="1.1" id="Layer_1" xmlns="http://www.w3.org/2000/svg" xmlns:xlink="http://www.w3.org/1999/xlink" x="0px" y="0px"
	 viewBox="0 0 1000 1000" style="enable-background:new 0 0 1000 1000;" xml:space="preserve">
<style type="text/css">
	.st0{fill:#228A9D;}
	.st1{fill:#7DC390;}
	.st2{fill:#194366;}
	.st3{fill:#C9E0BC;}
	.st4{fill:#FFFFFF;}
	.st5{fill:#C9DFBC;}
	.st6{fill:#FEFFFE;}
	.st7{fill:#F7FAF6;}
	.st8{fill:#FDFEFD;}
</style>
<g>
	<path class="st0" d="M792.67,541.59c-0.66,0.84-0.42,1.83-0.42,2.76c-0.02,8.22,0.07,16.44-0.06,24.65
		c-0.03,2.16,0.56,2.71,2.72,2.71c38.65-0.07,77.3-0.02,115.95-0.11c2.61-0.01,3.55,0.59,3.21,3.23c-0.24,1.87-0.1,3.8-0.13,5.7
		c-6.39-2.54-12.82-0.32-19.2,0c-7.52,0.37-15.02,1.17-22.53,1.79c-9.58,0.8-19.16,1.6-28.74,2.39c-6.99,0.58-13.98,1.16-20.98,1.72
		c-11.31,0.91-22.63,1.72-33.93,2.77c-0.86,0.08-1.72,0.29-2.58,0.06c-0.55-1.21-1.59-1.78-2.75-2.36
		c-6.44-3.21-13.2-5.35-20.41-5.49c-5.13-0.1-10.16,0.84-14.95,2.84c-4.81,2.01-9.18,4.73-13.26,7.92c0.93-0.35,1.66-0.45,1.78,0.85
		c-0.77,0.72-1.75,0.7-2.7,0.73c-13.85,0.53-27.62,2.05-41.44,3c-10.02,0.69-20.03,1.52-30.04,2.29
		c-10.27,0.78-20.54,1.54-30.81,2.36c-10.27,0.83-20.54,1.63-30.82,2.24c-2.41,0.14-4.8,0.86-7.24,0.3
		c-1.5-0.43-2.39-1.67-3.43-2.69c-5.49-5.31-11.12-10.44-17.64-14.49c-13.03-8.09-26.46-9-40.34-2.24
		c-0.91,0.44-2.17,2.13-3.09-0.15c0.02-69.41,0-138.82,0-208.23c0-3.55,0.01-7.1,0-10.64c0-1.13,0.05-2.25,0.4-3.34
		c0.77-0.88,1.79-0.45,2.68-0.45c126.46-0.02,252.92-0.02,379.39-0.07c2.09,0,2.79,0.41,2.78,2.66
		c-0.09,20.27-0.05,40.55-0.07,60.82c0,0.82,0.35,1.76-0.52,2.41c-1.42,0.55-2.9,0.41-4.37,0.41c-37.09,0-74.18,0-111.27,0
		c-4.85,0-4.81,0.01-4.87,4.86c-0.03,1.88,0.4,3.81-0.35,5.65c-0.66,0.75-0.36,1.66-0.37,2.49c-0.02,8.74,0.08,17.48-0.08,26.22
		c-0.04,2.38,0.73,2.83,2.94,2.82c35.28-0.07,70.57-0.02,105.85-0.11c2.57-0.01,3.33,0.54,3.31,3.23
		c-0.14,18.26-0.06,36.52-0.09,54.78c0,0.9,0.41,1.9-0.4,2.7c-1.68,0.93-3.52,0.81-5.34,0.81c-33.49,0-66.98,0-100.47,0
		c-4.98,0-4.96,0-4.99,5C792.98,538.16,793.22,539.9,792.67,541.59z"/>
	<path class="st1" d="M303.18,362.25c37.4-0.01,74.79-0.22,112.19,0.06c21.87,0.17,42.4,5.55,60.35,18.61
		c19.13,13.91,30.91,32.77,35.91,55.69c5.96,27.36,2.04,53.3-12.7,77.36c-5.07,8.27-11.64,15.27-18.81,21.74
		c-11.03,10.29-24.44,15.89-38.84,19.41c-10.15,2.48-20.49,3.34-30.94,3.22c-8.84-0.09-17.69-0.1-26.53,0.03
		c-2.71,0.04-4.27-0.9-5.46-3.34c-6.25-12.85-12.83-25.52-19.78-38c-1.73-3.1-3.75-6-6.36-8.5c-6.47-6.19-15.36-7.09-22.92-2.29
		c-4.9,3.11-8.33,7.5-11.09,12.49c-4.63,8.38-7.54,17.47-10.91,26.37c-0.37,0.96-0.58,2.01-1.45,2.71c-2.39-0.21-3.29-1.9-3.89-3.9
		c-0.23-1.55-0.16-3.11-0.16-4.67c0-35.14,0-70.27,0-105.41c0-4.81-0.01-4.81-4.93-4.81c-20.29,0-40.57,0-60.86,0
		c-0.69,0-1.39,0.05-2.08,0.01c-2.15-0.13-2.9,0.93-2.87,2.98c0.05,2.59,0.11,5.19-0.05,7.78c-0.05,1.86,0.23,3.74-0.31,5.57
		c-1.58,1.54-2.3-0.24-3.06-0.96c-3.85-3.63-7.85-7.02-12.47-9.65c-6.92-3.94-14.35-5.86-22.32-5.67c-0.77,0.02-1.59,0.18-1.97-0.8
		c-2.59-13.1-6.3-25.91-10.04-38.71c-2.26-7.73-4.71-15.4-7.32-23.02c-0.25-0.74-0.49-1.48-0.63-2.25c-0.24-1.25,0.02-2.06,1.54-1.9
		c0.6,0.06,1.21,0.01,1.82,0.01c41.28,0,82.57,0,123.85-0.01C301.12,362.42,302.17,362.6,303.18,362.25z"/>
	<path class="st2" d="M302.6,544.63c1,1.09,2.01,2.18,3.01,3.27c1.42,0.04,2.08,1.16,2.79,2.09c1.48,1.94,3.22,3.61,5.03,5.22
		c4.83,4.18,9.33,8.72,14.25,12.81c9.99,8.31,20.54,15.79,31.94,22.08c4.25,2.34,8.59,4.45,13.04,6.35
		c0.25,0.07,0.49,0.15,0.73,0.25c6.07,2.57,12.28,4.76,18.6,6.64c3.33,0.97,6.67,1.87,10.04,2.69c0.92,0.22,1.87,0.39,2.61,1.07
		c8.66,2.2,17.49,3.29,26.37,4.07c23.2,2.06,46.37,0.79,69.54-0.61c1.99-0.9,4.12-1.13,6.26-1.15c3.42-0.04,6.8-0.62,10.2-0.72
		c0.48-0.3,0.55-0.84,0.75-1.31c2.73-3.96,6.72-6.58,10.34-9.59c0.74-0.61,1.61-0.66,2.09,0.47c0.51,2.22,0.29,4.47,0.24,6.71
		c-0.03,1.81,0.62,2.49,2.43,2.34c5.42-0.45,10.85-0.83,16.26-1.3c8-0.7,16-1.29,24.01-1.81c1.98-0.13,3.94-0.53,5.93-0.53
		c3.6,0.23,7.14-0.7,10.73-0.55c0.94,0.04,1.88-0.07,2.79,0.25c8.8-0.62,17.6-1.22,26.39-1.86c5.18-0.37,10.35-0.8,15.52-1.2
		c11.04-0.85,22.07-1.72,33.11-2.54c7.85-0.59,15.71-1.07,23.56-1.68c10-0.78,19.98-1.74,29.99-2.42c3.97-0.27,7.92-0.92,11.92-0.69
		c1.09,0.06,2.26,0.21,3.28-0.44c2.24-1.41,4.83-1.14,7.27-1.34c8.02-0.63,16.04-1.28,24.06-1.95c4.91-0.41,9.84-0.65,14.75-1.15
		c1.02-0.1,2.09-0.13,2.96,0.63c6.45-0.53,12.9-1.05,19.34-1.59c5.34-0.45,10.67-0.94,16.01-1.39c9.99-0.84,19.98-1.68,29.97-2.5
		c7.06-0.58,14.13-1.09,21.2-1.68c9.73-0.8,19.46-1.65,29.19-2.47c2.41-0.2,4.83-0.34,7.24-0.62c2.24-0.26,4.1,0.33,5.57,2.07
		c0.57,1.73,0.79,3.46-0.06,5.18c-0.07,1.21-0.45,2.22-1.69,2.7c-3.37,1.75-7.14,0.95-10.69,1.62c-1.26,0.24-2.57,0.26-3.85,0.49
		c-10.54,0.79-21.05,1.82-31.58,2.59c-11.74,0.87-23.47,1.93-35.21,2.83c-9.4,0.72-18.81,1.41-28.2,2.35
		c-5.73,0.14-11.42,0.86-17.14,1.21c-5.83,0.76-11.72,1-17.57,1.52c-7.84,0.69-15.7,1.17-23.53,1.93c-3.18,0.31-6.38,0.16-9.56,0.48
		c-4.69,0.56-9.4,0.79-14.1,1.25c-12.23,1.22-24.51,1.96-36.76,2.97c-10.09,0.83-20.2,1.55-30.3,2.3
		c-10.28,0.76-20.55,1.51-30.82,2.37c-5.61,0.47-11.23,0.84-16.84,1.21c-1.3,0.09-2.6,0.05-3.87,0.36
		c-4.34,0.05-8.65,0.59-12.98,0.76c-3.14,0.73-6.37,0.67-9.55,0.9c-11.48,0.83-22.96,1.74-34.45,2.54
		c-3.54,0.25-7.07,0.6-10.63,0.72c-3.65,0.13-4.03,0.59-4.04,4.14c-0.02,3.63-0.04,7.27,0.01,10.9c0.04,2.67,0.33,2.95,3.03,3.01
		c2.77,0.06,5.55,0.02,8.32,0.02c21.15,0,42.3,0,63.44,0c1.39,0,2.77-0.05,4.15,0.11c1.25,0.11,2.37,0.59,3.27,1.44
		c3.42,3.22,7.2,5.96,11.12,8.54c0.53,0.35,1.28,0.67,1.04,1.58c-25.14,0.02-50.28,0.04-75.43,0.06
		c-9.54,0.01-19.07-0.05-28.61,0.04c-1.95,0.02-2.65-0.36-2.61-2.5c0.14-8.22,0.01-16.44,0.09-24.66c0.02-1.65-0.34-2.29-2.11-2.07
		c-2.83,0.35-5.69,0.49-8.54,0.72c-6.32,1.5-12.81,1.49-19.23,2.1c-12.6,0.72-25.21,1.59-37.83,1.13
		c-12.43-0.45-24.89-0.86-37.16-3.23c-3.55-0.73-7.12-1.36-10.67-2.08c-1.54-0.31-3.02-0.71-4.32-1.62
		c-8.6-2.31-17.13-4.82-25.38-8.18c-0.9,0.31-1.69-0.07-2.5-0.4c-17.87-7.32-33.9-17.64-48.75-29.87c-4.34-3.58-8.54-7.3-12.69-11.1
		c-6.31-6.47-12.9-12.66-18.89-19.45c-7.44-8.66-14.7-17.47-21.54-26.61c-11.42-15.24-22.01-31.04-31.84-47.35
		c-2.1-3.48-4.46-6.8-6.72-10.17c-5.2-7.17-10.87-13.92-18.44-18.73c-5.33-3.38-11.04-5.77-17.57-5.33
		c-3.4-0.25-6.42,1.01-9.44,2.31c-6.26,3.46-10.62,8.69-13.98,14.87c-3.31,6.09-5.69,12.56-7.94,19.08c-1.07,3.1-2.09,6.21-3.19,9.3
		c-4.01,12.44-7.72,24.96-11.23,37.54c-0.25,0.91-0.49,1.86-1.35,2.44c-5.56,19.4-10.98,38.84-18.31,57.69
		c-8.05,20.73-18.21,40.26-32.55,57.44c-0.83,1-1.7,1.96-2.54,2.95c-1.54,1.81-3.32,2.75-5.7,1.68c-2.33-1.05-3.53-3.29-3.19-5.93
		c0.06-0.43,0.18-0.85,0.27-1.27c1.21-3.54,4.26-5.73,6.36-8.62c1.97-2.7,3.99-5.36,5.88-8.13c9.5-14.2,16.74-29.52,22.7-45.47
		c7.97-21.37,13.64-43.46,20-65.33c2.27-7.82,4.54-15.64,7.01-23.4c2.2-7.08,4.47-14.14,7.15-21.06c1.41-3.62,2.98-7.17,4.79-10.61
		c3.08-5.99,6.55-11.67,11.5-16.4c3.6-3.44,7.5-6.3,12.12-8.16c1.96-0.85,3.98-1.49,6.07-1.92c0.91-0.19,1.85-0.37,2.7,0.26
		c14.03-1.08,25.33,4.72,35.26,13.96c1.2,1.12,2.36,2.27,3.54,3.41c1.03,0.01,1.42,0.87,1.98,1.51
		c7.97,9.09,14.16,19.42,20.54,29.59c11.59,18.49,24.2,36.24,37.98,53.16c2.75,3.43,5.64,6.73,8.64,9.94
		C300.52,541.49,301.7,542.95,302.6,544.63z"/>
	<path class="st1" d="M159.04,484.31c2.78-7.9,5.27-15.92,8.77-23.55c3.25-7.08,7.28-13.59,13.86-18.14
		c0.84-0.58,1.64-1.29,2.71-1.47c1.31,0.88,1.31,2.37,1.64,3.68c4.89,19.31,8.15,38.96,12.17,58.45
		c5.43,26.28,11.43,52.43,18.89,78.22c2.21,7.65,4.82,15.19,7.9,22.53c1.33,3.18,3.31,6.08,4.73,9.24c0.44,0.98,1.29,1.93,0.55,3.13
		c-0.03,6.37-0.05,12.73-0.11,19.1c-0.01,0.9,0.36,1.91-0.44,2.7c-1.14,0.77-2.42,0.85-3.74,0.85c-20.91,0-41.81,0.01-62.72-0.01
		c-4.2,0-4.67-0.5-4.68-4.89c-0.02-36.37-0.01-72.74-0.01-109.11c0-10.91,0.05-21.82-0.04-32.73
		C158.5,489.62,159.1,486.99,159.04,484.31z"/>
	<path class="st3" d="M97.47,621.13c-2.81,4.82-6.45,9.02-9.99,13.3c-0.81,0.98-1.65,1.95-2.48,2.92
		c0.28-5.43,1.37-10.76,2.14-16.13c1.61-11.17,3.38-22.31,5.16-33.46c1.87-11.74,3.79-23.47,5.77-35.2c2.19-13,4.38-25.99,6.7-38.97
		c3.19-17.9,6.49-35.77,9.76-53.66c1.05-5.76,2.07-11.54,3.26-17.27c0.42-2.03,0.05-2.63-2.14-2.61
		c-12.75,0.1-25.51-0.02-38.26,0.11c-2.64,0.03-3.39-0.73-3.37-3.36c0.1-19.83,0.08-39.67,0.02-59.5c-0.01-2.06,0.56-3.63,2.08-5.05
		c3.36-3.12,6.59-6.38,9.88-9.58c1.05,1.27,0.77,2.8,0.77,4.24c0.02,18.79,0.01,37.58,0.01,56.38c0,4.04,0.04,4.08,4.03,4.09
		c8.5,0.01,17,0.01,25.5,0c3.59-0.01,3.66-0.05,4.37-3.65c3.52-17.85,7.57-35.57,12.35-53.13c0.39-1.42,0.85-2.82,1.3-4.22
		c0.89-2.73,0.78-2.88-2.2-2.91c-1.91-0.02-3.82,0-5.73,0c-12.15,0-24.29,0.01-36.44-0.01c-1.37,0-2.8,0.22-3.99-0.77
		c0.84-0.95,1.95-0.5,2.93-0.5c15.09-0.03,30.17-0.05,45.26,0.01c1.77,0.01,2.75-0.37,3.46-2.18c2.04-5.15,4.48-10.05,8.49-14.11
		c6.48-6.55,14.14-5.21,19.37,1.46c2.75,3.5,4.79,7.41,6.12,11.64c0.75,2.38,1.95,3.23,4.62,3.23c41.27-0.11,82.54-0.08,123.82-0.07
		c1.04,0,2.08,0.05,3.12,0.08c-1.01,0.76-2.18,0.41-3.28,0.41c-41.3,0.02-82.6,0.02-123.9,0.02c-2.97,0-2.98,0.01-2,2.89
		c6.53,19.23,12.22,38.7,16.86,58.47c0.34,1.44,1.23,2.91,0.42,4.49c-3.13,0.31-6.08,1.34-9.04,2.3c-1.58-0.53-1.44-2.05-1.7-3.22
		c-4.65-20.36-10.74-40.3-17.42-60.07c-1.39-4.11-1.38-4.11-5.6-4.11c-2.17,0-4.34,0.11-6.5-0.03c-2.29-0.14-3.51,0.89-4.26,2.95
		c-1.71,4.73-3.09,9.56-4.36,14.41c-3.79,14.49-7.01,29.11-9.97,43.79c-0.58,2.86-0.55,2.89,2.43,2.9
		c7.02,0.01,14.04-0.02,21.07,0.01c3.77,0.02,4.2,0.44,4.22,4.17c0.03,6.23,0,12.46,0.01,18.69c0,1.48-0.17,2.93-0.72,4.31
		c-4.91,10.26-8.31,21.07-11.92,31.82c-1.19-1.11-0.84-2.57-0.84-3.91c-0.03-12.55-0.01-25.1-0.02-37.65c0-3.94-0.02-3.96-3.85-3.96
		c-3.56-0.01-7.11,0.08-10.67-0.03c-2.27-0.07-3.2,0.93-3.6,3.08c-4.07,21.61-8.02,43.23-11.85,64.89
		c-4.72,26.68-9.13,53.41-13.46,80.16c-1.47,9.06-2.88,18.12-4.27,27.19C98.71,617.94,98.27,619.58,97.47,621.13z"/>
	<path class="st0" d="M912.47,587.49c1-0.18,0.78-1.32,1.41-1.78c0.05,10.91,0.1,21.82,0.14,32.73c0.02,5.63,0.02,11.26-0.02,16.89
		c-0.01,0.8,0.43,1.75-0.48,2.38c-1.23,0.78-2.61,0.83-4.02,0.83c-67.86,0-135.73,0-203.59-0.01c-0.87,0-1.74,0-2.59-0.15
		c-1.7-0.37-1.67-1.26-0.62-2.33c1.03-1.05,2.21-1.94,3.33-2.9c9.65-8.26,17.21-18.52,26.26-27.34c0.95-0.92,2.34-1.52,2.64-3.02
		c3.67-0.31,7.33-0.64,11-0.92c13.19-1.03,26.38-2.04,39.58-3.07c3.21,0.98,5.83,3.03,8.54,4.86c10.71,7.23,22.35,12.18,35.14,14.23
		c22.86,3.67,44.35-0.07,64.1-12.37c6.04-3.76,11.47-8.38,15.85-14.08C910.19,590.08,911.48,588.91,912.47,587.49z"/>
	<path class="st3" d="M230.26,616.41c-0.17-0.49-0.28-1.01-0.53-1.46c-8.93-15.93-13.66-33.36-18.2-50.84
		c-6.27-24.12-11.92-48.4-16.5-72.89c-3.14-16.78-6.63-33.48-10.66-50.06c3.03-1.86,6.31-2.79,9.88-2.55
		c1.31,1.23,1.34,2.95,1.74,4.52c5.47,21.59,8.89,43.6,13.49,65.37c5.45,25.75,11.57,51.36,19.3,76.55
		c0.48,1.57,0.89,3.17,1.76,4.59c3.98,12.37,9.69,23.89,17.32,34.43c2.3,3.18,5.25,5.75,8.79,7.58c3.14,1.62,6.16,1.44,9.16-0.34
		c2.73-1.62,4.93-3.84,6.8-6.35c6.29-8.42,10.17-18.06,14.13-27.69c2.64-6.42,3.44-12.92,3.26-19.77c-0.24-9-0.08-18.01-0.04-27.02
		c0-1.15-0.37-2.47,0.83-3.35c6.23,6.42,12.46,12.85,18.68,19.27c0.47,1.04,0.18,2.04-0.2,3.02c-0.56,1.45-0.92,3-1.6,4.39
		c-3.81,7.76-4.56,15.95-4.32,24.49c0.33,11.76,0.08,23.54,0.09,35.31c0,3.66,0.14,3.79,3.81,3.79c20.29,0.01,40.57,0,60.86,0.02
		c1.44,0,2.97-0.32,4.24,0.75c-3.31,4.01-7.24,7.43-10.89,11.12c-0.77,0.78-1.85,0.84-2.92,0.84c-21.78-0.01-43.56-0.03-65.33,0.03
		c-2.23,0.01-2.54-1-2.53-2.86c0.06-10.12,0.03-20.25-0.18-30.46c-2.2,3.68-4.18,7.47-6.6,10.99c-2.91,4.24-6.17,8.22-10.28,11.28
		c-9.48,7.06-19.28,6.17-28.21-2.12c-5.65-5.25-10.01-11.43-13.68-18.16C231.27,618,230.75,617.21,230.26,616.41z"/>
	<path class="st1" d="M372.35,638.16c-22.38,0.01-44.76-0.01-67.14,0.07c-2.11,0.01-2.6-0.65-2.6-2.65
		c0.07-16.19,0.01-32.39,0.06-48.58c0.01-4.18,2.33-7.73,3.57-11.57c0.98-3.04,2.15-6.02,3.24-9.03
		c10.61,9.59,21.58,18.71,33.67,26.42c9.51,6.07,19.51,11.17,29.95,15.43c-0.53,1.24-0.31,2.55-0.32,3.84
		c-0.02,7.68,0,15.36-0.02,23.04C372.75,636.16,372.97,637.22,372.35,638.16z"/>
	<path class="st3" d="M404.65,607.1c-4.46-0.63-8.77-1.82-13.02-3.28c-1.28-0.75-1.79-2.06-2.41-3.29
		c-4.48-8.86-8.67-17.87-12.94-26.84c-0.47-0.99-0.8-2.12-1.97-2.8c-0.98,0.75-0.65,1.85-0.65,2.79c-0.03,6.65,0,13.3-0.03,19.95
		c0,1.18,0.25,2.45-0.71,3.44c-0.17-0.04-0.34-0.08-0.5-0.13c-0.83-0.95-0.67-2.11-0.68-3.22c-0.01-7.19-0.01-14.38-0.01-21.57
		c0-1.04,0.01-2.08,0.25-3.1c0.52-2.22,0.15-4.3-0.87-6.3c-6.95-13.67-14.15-27.2-21.07-40.88c-1.06-2.09-2.45-3.98-4.15-5.63
		c-4.12-4-8.37-4.15-12.68-0.33c-4.52,4.01-7.3,9.2-9.62,14.65c-3.16,7.42-5.5,15.14-8.43,22.64c-0.39,1-0.52,2.29-2.01,2.39
		c-2.7-2.38-5.12-5.03-7.51-7.71c3.64-10.07,6.88-20.3,12.09-29.73c2.97-5.38,6.75-10.04,12.21-13.12
		c9.04-5.09,19.45-2.48,25.86,6.35c3.68,5.07,6.42,10.67,9.32,16.17c4.89,9.26,9.61,18.61,14.31,27.96
		c0.76,1.51,1.58,2.14,3.35,2.12c11.45-0.09,22.9,0.19,34.34-0.11c15.89-0.41,31.23-3.62,45.55-10.75
		c5.73-2.85,11.23-6.15,16.14-10.33c0.38-0.32,0.88-0.51,1.33-0.75c-4.97,5.92-10.75,10.96-17.02,15.45
		c-13.07,9.36-27.72,14.62-43.56,16.91c-9.28,1.34-18.6,1.52-27.94,1.46c-1.55-0.01-3.1,0-5.09,0
		C392.76,582.21,397.97,595,404.65,607.1z"/>
	<path class="st2" d="M529.23,362.19c0.62,0.86,0.34,1.85,0.34,2.77c0.01,72.3,0.01,144.61,0.01,216.91c0,1.12,0.08,2.26-0.33,3.34
		c0.06,0.85-0.62,1.2-1.17,1.58c-2.71,1.87-5.48,3.65-7.95,5.85c-0.49,0.44-1.09,0.95-1.82,0.3c-0.01-56.28-0.02-112.56-0.03-168.84
		c0-16.19,0.02-32.38-0.03-48.58c-0.01-1.74,0.34-3.02,1.73-4.28C523.2,368.36,526.17,365.22,529.23,362.19z"/>
	<path class="st3" d="M159.04,484.31c0.67,1.04,0.35,2.2,0.35,3.29c0.02,48.92,0.01,97.84,0.02,146.77c0,4.34-0.53,3.8,3.94,3.8
		c22.12,0.02,44.24,0.02,66.36,0.03c-3.63,3.71-7.28,7.41-10.9,11.14c-0.85,0.87-1.87,0.77-2.9,0.77c-21.78,0-43.57-0.04-65.35,0.06
		c-2.63,0.01-3.14-0.93-3.14-3.32c0.06-39.42,0.05-78.84,0.02-118.26c0-1.26,0.43-2.6-0.42-3.78
		C150.69,511.21,154.67,497.7,159.04,484.31z"/>
	<path class="st2" d="M701.96,637.55c1.21,0.03,2.43,0.09,3.64,0.09c68.01,0,136.01,0,204.02,0.01c1.3,0,2.6,0.04,3.9,0.06
		c-3.32,3.39-6.67,6.75-9.95,10.18c-0.95,0.99-2.07,0.71-3.14,0.71c-20.82,0.02-41.63,0.01-62.45,0.01c-49.87,0-99.74,0-149.61,0
		c-1.13,0-2.25-0.03-3.38-0.05c-0.24-0.96,0.59-1.16,1.14-1.46c4.87-2.68,9.59-5.58,13.96-9.03
		C700.62,637.63,701.19,637.19,701.96,637.55z"/>
	<path class="st3" d="M701.96,637.55c-5.37,4.11-11.13,7.63-16.98,11c-5.3,2.05-10.48,4.43-16.06,5.76
		c-14.86,3.55-29.07,2.03-42.58-5.24c-0.45-0.24-0.97-0.35-1.46-0.52c-5.03-3.36-9.83-7.01-14.37-11c-3.69-1.92-6.15-5.23-8.87-8.18
		c-3.85-4.18-7.68-8.39-11.36-12.74c-0.65-0.77-1.99-1.32-1.19-2.74c4.29-0.12,8.54-0.89,12.85-0.62c2.08,1.43,3.56,3.44,5.26,5.25
		c6.56,6.94,12.96,14.07,21.11,19.28c5.67,3.44,11.67,6,18.28,6.98c10.98,1.63,21.3-0.67,31.26-5.16c1.26-0.57,2.47-1.23,3.72-1.82
		c6.83-3.49,12.92-8.04,18.43-13.31c6.18-5.91,12.22-11.98,17.93-18.35c0.81-0.91,1.72-1.7,2.85-2.2c4.71-0.38,9.42-0.77,14.13-1.15
		c0.2,0.33,2.07-0.29,0.6,0.98c-4,3.46-7.54,7.36-11.08,11.27C717.33,622.92,710.19,630.78,701.96,637.55z"/>
	<path class="st2" d="M792.62,438.49c-0.9-3.32-0.21-6.7-0.4-10.05c-0.05-0.87,0.42-1.25,1.27-1.24c0.61,0.01,1.21-0.01,1.82-0.01
		c38.47,0,76.94,0,115.42,0.01c0.92,0,1.91-0.3,2.76,0.36c-3.34,3.38-6.71,6.72-9.99,10.15c-0.79,0.83-1.64,0.8-2.58,0.8
		C864.81,438.5,828.72,438.5,792.62,438.49z"/>
	<path class="st2" d="M792.67,541.59c-1-3.3-0.24-6.67-0.43-10c-0.03-0.6,0.35-0.96,0.96-1c0.52-0.04,1.04-0.04,1.56-0.04
		c35.82,0,71.65,0,107.47,0c0.52,0,1.04,0.04,1.56,0.07c-3.33,3.38-6.68,6.74-9.98,10.15c-0.76,0.79-1.6,0.85-2.57,0.85
		C858.38,541.61,825.52,541.6,792.67,541.59z"/>
	<path class="st3" d="M488.59,621.59c3.3-0.86,6.71-0.44,10.05-0.86c2.99-0.38,6.03-0.41,9.04-0.6c-2.75,0.13-4.34,2.05-6.16,3.76
		c-9.4,8.82-18.83,17.61-30.57,23.39c-17.74,8.73-38.64,5.69-53.49-7.39c-7.7-6.78-13.83-14.69-18.99-23.45c4.84,1,9.68,2,14.52,3
		c4,4.65,7.86,9.44,12.8,13.18c7.59,5.74,15.89,9.5,25.65,9.1c6.75-0.27,12.86-2.62,18.58-6.04c5.82-3.47,11.05-7.74,16.04-12.31
		C486.84,622.65,487.67,622.07,488.59,621.59z"/>
	<path class="st3" d="M518.32,592.93c3.64-2.57,7.29-5.15,10.93-7.72c5.87-3.34,12.07-5.54,18.91-5.76
		c9.61-0.31,18.28,2.32,26.16,7.81c6.71,4.68,12.8,10.03,18.27,16.1c-4.43,0.71-8.89,0.96-13.37,1.02c-2.31-1.09-3.98-3.01-5.91-4.6
		c-6.35-5.21-13.34-9-21.69-9.65c-5.19-0.4-10.14,0.5-14.73,3.16c-2.46,1.42-4.64,3.31-7.31,4.37c-4.36,2.65-7.87,6.27-11.38,9.88
		c-0.4,0.5-0.57,1.03-0.17,1.62c-5.79,0.89-11.64,1.01-17.47,1.4c5.02-5.21,10.02-10.43,15.48-15.18
		C516.88,594.65,517.57,593.75,518.32,592.93z"/>
	<path class="st2" d="M600.49,438.5c-0.85-3.33-0.25-6.71-0.34-10.07c-0.02-0.82,0.55-1.22,1.36-1.23c0.69-0.01,1.39-0.02,2.08-0.02
		c38.25,0,76.5,0,114.75,0c3.41,0,3.41,0,3.41,3.42c0,45.98-0.02,91.95,0.06,137.93c0,2.45-0.52,3.41-3.11,3.19
		c-2.76-0.23-5.55-0.08-8.32-0.09c-1.01-1.18-0.78-2.61-0.78-3.97c-0.02-10.38-0.01-20.77-0.02-31.15c0-0.94,0.09-1.89-0.19-3.14
		c-2.14,1.46-3.77,3.23-5.28,5c-2.57,3.01-5.59,4.06-9.57,4.04c-29.82-0.14-59.64-0.07-89.46-0.09c-1.53,0-3.14,0.33-4.53-0.71
		c-0.98-3.3-0.25-6.68-0.41-10.02c-0.04-0.75,0.54-1.01,1.23-1.02c0.78-0.01,1.56-0.01,2.34-0.01c34.7,0,69.41-0.03,104.11,0.06
		c2.49,0.01,3.18-0.61,3.16-3.13c-0.11-18.27-0.05-36.55-0.08-54.82c0-0.97,0.46-2.09-0.51-2.92c-0.97-1.08-0.81-2.43-0.81-3.71
		c-0.03-6.84,0.02-13.68-0.02-20.52c-0.03-6.53,0.7-6.07-5.96-6.08c-32.79-0.01-65.59,0-98.38-0.02
		C603.6,439.4,601.88,439.76,600.49,438.5z"/>
	<path class="st4" d="M600.49,438.5c35.44,0,70.87,0.01,106.31,0.01c3.6,0,3.6,0,3.6,3.72c0,9.17-0.01,18.34-0.01,27.5
		c-29.46,0.04-58.92,0.07-88.38,0.12c-6.5,0.01-12.99,0.07-19.49,0.12c-1.17,0.01-2.23,0.1-2.21-1.65
		C600.4,458.38,600.43,448.44,600.49,438.5z"/>
	<path class="st4" d="M600.54,541.6c32.45,0.01,64.89,0,97.34,0.05c1.34,0,2.26-0.41,3.17-1.34c2.93-3.03,5.93-5.99,9.34-9.41
		c0,13.98,0,27.36,0,40.73c-36.02,0.01-72.03,0.03-108.05,0.03c-0.88,0-2.04,0.34-2.01-1.23
		C600.45,560.82,600.03,551.21,600.54,541.6z"/>
	<path class="st5" d="M785.42,588.72c-14.97,1.18-29.94,2.36-44.91,3.54c-1.38,0.11-2.76,0.18-4.14,0.27c-0.86,0-1.72,0-2.62,0
		c-0.08-1.15,0.89-1.27,1.42-1.67c7.81-5.95,16.45-10.01,26.42-10.21c6.83-0.13,13.36,1.68,19.56,4.55
		c1.57,0.73,3.13,1.49,4.65,2.31C787.62,588.5,785.32,588.24,785.42,588.72z"/>
	<path class="st4" d="M428.62,491.58c-4.44,2.88-9.42,3.8-14.6,3.81c-12.99,0.05-25.99,0.01-38.98,0.03c-1.34,0-2.31-0.05-2.3-1.86
		c0.06-17.99,0.06-35.97,0.08-53.96c0-0.17,0.06-0.34,0.1-0.51c0.86-0.75,1.92-0.72,2.96-0.72c8.23-0.01,16.47-0.15,24.7,0.04
		c9.74,0.21,18.54,2.97,24.85,10.89c6.5,8.17,8.95,17.64,7.93,27.98c-0.32,3.27-0.9,6.51-2.06,9.62
		C430.65,488.62,429.96,490.27,428.62,491.58z"/>
	<path class="st4" d="M290.31,530.63c-13.04-15.54-24.72-32.06-35.62-49.14c-7.77-12.17-15.14-24.61-24.62-35.6
		c0.05-1.92,0.11-3.84,0.16-5.76c1-0.89,2.25-0.83,3.45-0.83c17.86-0.02,35.71-0.03,53.57,0.01c3.62,0.01,4.21,0.61,4.22,4.28
		c0.03,27.86,0.03,55.73-0.01,83.59C291.46,528.41,291.76,529.84,290.31,530.63z"/>
	<path class="st3" d="M290.31,530.63c0.66-0.85,0.38-1.84,0.38-2.76c0.01-28.24-0.01-56.49,0.06-84.73c0.01-2.29-0.48-3.1-2.98-3.09
		c-19.18,0.12-38.36,0.07-57.54,0.08c-0.01-3.2,0.11-6.41-0.07-9.61c-0.12-2.1,0.8-2.39,2.6-2.38c8.24,0.08,16.48,0.03,24.72,0.03
		c14.23,0,28.45,0.02,42.68-0.02c1.6,0,2.53,0.14,2.53,2.17c-0.07,38.1-0.07,76.2-0.09,114.3
		C298.2,540.23,294.15,535.52,290.31,530.63z"/>
	<path class="st3" d="M428.62,491.58c2.96-6.46,4.56-13.2,4.19-20.33c-0.71-13.61-8.14-26.7-21.82-30.65
		c-3.52-1.02-7.13-1.38-10.75-1.42c-9.1-0.13-18.21-0.06-27.32-0.08c-0.02-3.12,0.02-6.24-0.07-9.36c-0.04-1.51,0.39-2.17,2.04-2.16
		c14.06,0.07,28.15-0.51,42.17,0.25c12.67,0.69,21,8.34,25.26,20.05c3.87,10.63,3.25,21.26-1.84,31.41
		C437.85,484.55,434.11,488.97,428.62,491.58z"/>
	<path class="st4" d="M290.8,547.13c-0.03,10.13-0.28,20.26-0.02,30.38c0.18,6.85-0.69,13.32-3.28,19.72
		c-4.03,9.96-7.99,19.91-14.6,28.52c-1.36,1.77-2.95,3.44-4.7,4.83c-5.54,4.4-10.89,3.75-16.92-1.76c-4.08-3.73-7.2-8.2-9.77-13.01
		c-3.95-7.4-7.99-14.77-10.66-22.76c-0.35-1.05-0.48-2.18-0.71-3.27c-0.68-1.72-0.76-3.54-0.76-5.36c0-39.1-0.01-78.21,0.02-117.31
		c0-1.5-0.37-3.17,1.05-4.36c7.42,10.24,13.43,21.38,20.5,31.85c11.97,17.74,24.59,34.99,38.73,51.09
		C290.08,546.16,290.43,546.66,290.8,547.13z"/>
	<path class="st4" d="M97.47,621.13c1.5-9.52,2.99-19.05,4.51-28.56c2.12-13.26,4.21-26.53,6.4-39.79
		c2.25-13.59,4.58-27.17,6.95-40.74c2.49-14.25,5.05-28.49,7.65-42.72c1.67-9.15,3.49-18.27,5.14-27.43c0.3-1.68,1.24-1.8,2.56-1.8
		c4.77,0.03,9.54,0.1,14.31-0.03c1.95-0.05,2.51,0.54,2.5,2.49c-0.08,13.76-0.04,27.53-0.04,41.29c0,0.86,0.04,1.73,0.06,2.59
		c-4.9,16.98-9.79,33.97-14.72,50.95c-5.68,19.55-11.7,38.99-20.37,57.47C108.14,604.01,103.46,612.95,97.47,621.13z"/>
	<path class="st1" d="M313.13,555.61c2.44-3.92,3.45-8.42,5.04-12.67c3.03-8.09,5.61-16.35,10.79-23.45
		c1.24-1.7,2.66-3.22,4.25-4.53c4.98-4.08,10.32-3.15,14.77,2.54c1.11,1.42,2.11,2.97,2.94,4.57c6.59,12.75,13.1,25.54,19.72,38.27
		c1.64,3.15,2.35,6.19,1.93,9.89c-0.58,5.13-0.15,10.37-0.16,15.56c0,3.72,0,7.44,0,11.16c-16.51-6.97-31.17-16.88-44.89-28.27
		C322.53,564.54,317.74,560.17,313.13,555.61z"/>
	<path class="st1" d="M230.46,462.75c-0.49,1.08-0.29,2.22-0.29,3.33c-0.02,41.23-0.02,82.46-0.03,123.69
		c-1.6-1.62-1.83-3.85-2.43-5.86c-8.22-27.44-15.06-55.23-20.51-83.34c-4.02-20.72-7.99-41.44-12.94-61.97
		c5.3-0.48,10.08,1.24,14.65,3.6C218.08,446.96,224.65,454.47,230.46,462.75z"/>
	<path class="st0" d="M627.61,638.09c-9.99-6.79-18.02-15.59-25.66-24.81c2.82-1.08,5.82-0.66,8.72-0.93
		c10.42-0.95,20.87-1.48,31.3-2.28c14.65-1.12,29.28-2.37,43.93-3.51c10.08-0.78,20.18-1.46,30.27-2.2
		c1.55-0.11,3.09-0.28,4.64-0.42c-8.7,9.22-16.97,18.88-27.04,26.71c-3.61,2.81-7.35,5.42-11.43,7.51
		c-15.13,0.79-30.27,0.16-45.41,0.35C633.82,638.55,630.7,638.69,627.61,638.09z"/>
	<path class="st1" d="M159.43,454.63c-0.01-7.97-0.09-15.94,0.02-23.91c0.03-2.13-0.67-2.6-2.66-2.58c-7.9,0.1-15.8-0.02-23.69,0.09
		c-1.9,0.03-2.13-0.65-1.79-2.21c4.19-19.48,8-39.06,14.1-58.07c1.7-5.29,1.75-5.27,7.35-5.27c2.52,0,5.04,0.09,7.55-0.03
		c1.47-0.07,2.16,0.45,2.62,1.82c4.9,14.67,9.65,29.39,13.63,44.34c1.95,7.32,3.78,14.68,5.67,22.02
		c-9.6,4.53-16.27,11.99-21.23,21.16C160.52,452.88,159.96,453.75,159.43,454.63z"/>
	<path class="st0" d="M589.1,613.9c1.09,2.5,3.29,4.13,5,6.12c5.23,6.06,10.69,11.93,16.41,17.53c-12.05,0.03-24.09,0.08-36.14,0.09
		c-13.95,0.02-27.91-0.06-41.86,0.06c-2.48,0.02-3.07-0.76-2.98-3.07c0.17-4.58,0.11-9.17,0.02-13.75c-0.03-1.65,0.28-2.5,2.18-2.62
		c5.6-0.35,11.19-0.91,16.79-1.34c11.37-0.87,22.75-1.7,34.12-2.55C584.8,614.2,586.98,614.45,589.1,613.9z"/>
	<path class="st3" d="M912.47,587.49c0.18,1.01-0.56,1.58-1.07,2.25c-11.33,14.84-26.64,23.49-44.54,27.6
		c-26.65,6.11-51.54,1.76-74.25-13.77c-2.35-1.61-4.73-3.18-7.1-4.76c5.67-0.45,11.32-1.21,17.02-1.17
		c3.93,1.17,7.14,3.8,10.95,5.27c9.37,3.62,18.93,5.9,29.07,6.08c11.25,0.2,22.11-1.4,32.58-5.48c7.23-2.82,13.99-6.5,19.68-11.87
		c0.91-0.86,2.01-1.26,3.04-1.85c3.21-0.65,6.47-0.74,9.72-0.98C909.29,588.69,911.02,588.61,912.47,587.49z"/>
	<path class="st0" d="M897.85,589.79c-10.28,10.29-22.94,15.92-37.04,18.49c-17.78,3.24-35.02,1.48-51.39-6.54
		c-2.4-1.17-4.82-2.36-6.89-4.11c3.21-0.79,6.51-0.71,9.77-0.99c13.7-1.15,27.4-2.18,41.1-3.27
		C868.22,592.19,883.03,590.99,897.85,589.79z"/>
	<path class="st4" d="M488.59,621.59c-9.63,9.48-19.84,18.05-33.75,20.45c-7.99,1.38-15.45-0.56-22.47-4.34
		c-7.83-4.22-14.01-10.3-19.29-17.36c-0.22-0.3-0.39-0.57-0.09-0.9c10.46,1.4,20.95,2.4,31.51,2.83c13.25,0.53,26.46,0.03,39.68-0.6
		C485.65,621.59,487.12,621.61,488.59,621.59z"/>
	<path class="st0" d="M529.59,597.67c9.27-8.07,18.61-10.66,31.51-5.98c7.1,2.57,12.98,7.2,18.13,12.7
		c-11.44,0.9-22.89,1.79-34.33,2.69c-4.47,0.35-8.95,0.65-13.42,1.1c-1.46,0.15-1.98-0.15-1.92-1.7
		C529.67,603.55,529.59,600.6,529.59,597.67z"/>
	<path class="st6" d="M372.91,597.08c0.01-8.11-0.02-16.23,0.06-24.34c0.01-1.05-0.81-2.67,0.86-3.09c1.63-0.41,1.84,1.27,2.33,2.28
		c5.18,10.62,10.32,21.26,15.47,31.9C385.2,602.09,378.94,599.9,372.91,597.08z"/>
	<path class="st7" d="M518.03,609.16c-0.34-0.18-1.04,0.06-1.01-0.43c0.03-0.59,0.64-0.93,1.18-1.19
		C518.29,608.1,518.44,608.66,518.03,609.16z"/>
	<path class="st1" d="M85.99,362.69c15.96,0,31.93,0.02,47.89-0.04c2.06-0.01,2.6,0.14,1.8,2.48c-4.1,11.93-6.68,24.29-9.54,36.55
		c-1.92,8.22-3.55,16.52-5.2,24.8c-0.26,1.31-0.7,1.72-1.98,1.72c-10.32-0.03-20.65-0.07-30.97,0.02c-2.23,0.02-2.01-1.24-2.01-2.66
		c0.01-15.07,0.01-30.14,0.01-45.21C85.98,374.47,85.98,368.58,85.99,362.69C85.98,362.69,85.99,362.69,85.99,362.69z"/>
	<path class="st8" d="M154.84,362.16c-1.73,0-3.46-0.03-5.19,0.01c-1.21,0.03-1.87-0.18-1.17-1.58c1.31-2.63,2.79-5.16,4.66-7.42
		c1.19-1.44,2.36-1.64,3.8-0.04c2.07,2.3,3.29,5.03,4.63,7.73c0.59,1.19-0.13,1.31-1.04,1.3
		C158.64,362.16,156.74,362.16,154.84,362.16z"/>
	<path class="st2" d="M627.61,638.09c0.72-0.73,1.63-0.43,2.46-0.43c16.61-0.02,33.22-0.02,49.84,0c0.82,0,1.75-0.33,2.42,0.5
		c-13.41,7.01-27.34,10.29-42.34,5.84C635.55,642.69,631.51,640.53,627.61,638.09z"/>
</g>
</svg>
