<svg class="w-1/2" viewBox="0 0 334 115" xmlns="http://www.w3.org/2000/svg" xmlns:xlink="http://www.w3.org/1999/xlink">
    <defs>
        <path id="a" d="M.197.203h21.012V29.29H.197z"/>
    </defs>
    <g fill="none" fill-rule="evenodd">
        <g fill="#000">
            <path d="M17.512 62.85l-1.38-3.925-.592-1.603c-1.775-5.127-2.958-8.612-3.55-10.455-.71 2.364-1.932 5.929-3.629 10.736l-.473 1.322-1.38 3.926h11.004zm.867 2.404H5.64l-2.8 7.972H0l10.215-28.442h3.629l10.215 28.442h-2.84l-2.84-7.972zM44.329 47.147v23.716h6.744c6.35 0 9.9-4.527 9.9-11.858 0-7.251-3.55-11.858-9.9-11.858H44.33zm7.218-2.363c7.848 0 12.266 5.809 12.266 14.221 0 8.412-4.418 14.221-12.266 14.221H41.528V44.784h10.019zM101.476 44.784l-9.623 28.442h-3.55l-9.624-28.442h2.84l4.812 14.301c1.774 5.168 3.036 9.174 3.786 11.938.75-2.724 1.972-6.69 3.747-11.898l4.772-14.341h2.84zM119.143 59.005c0 7.17 4.141 12.378 10.254 12.378 6.114 0 10.255-5.208 10.255-12.378s-4.141-12.378-10.255-12.378c-6.113 0-10.254 5.207-10.254 12.378m23.31 0c0 8.613-5.01 14.822-13.056 14.822-8.045 0-13.054-6.21-13.054-14.822 0-8.613 5.009-14.822 13.054-14.822 8.046 0 13.056 6.21 13.056 14.822M182.482 48.149l-1.578 1.922c-3.115-2.603-5.443-3.444-8.006-3.444-6.39 0-10.413 5.167-10.413 12.378 0 7.17 4.063 12.378 10.097 12.378 3.353 0 5.561-1.362 8.717-4.446l1.735 1.882c-1.854 1.843-3.51 3.125-5.048 3.886-1.539.761-3.353 1.122-5.364 1.122-8.086 0-12.937-6.21-12.937-14.822 0-8.693 4.812-14.822 13.213-14.822 3.431 0 6.153 1.082 9.584 3.966M216.24 62.85l-1.38-3.925-.591-1.603c-1.775-5.127-2.958-8.612-3.55-10.455-.71 2.364-1.932 5.929-3.628 10.736l-.474 1.322-1.38 3.926h11.004zm.868 2.404h-12.74l-2.8 7.972h-2.839l10.215-28.442h3.629l10.215 28.442h-2.84l-2.84-7.972zM255.167 47.147h-8.993v26.079h-2.8V47.147h-9.032v-2.363h20.825zM290.977 47.147h-15.343v10.296h14.238v2.323h-14.238v11.097h15.658v2.363h-18.458V44.784h18.143zM331.085 44.784v28.442h-3.195l-8.834-13.58a789.244 789.244 0 01-7.257-11.417c.118 3.165.157 6.81.157 10.856v14.14h-2.721V44.785h3.195l8.795 13.54 1.499 2.364c2.642 4.085 4.575 7.13 5.798 9.133-.12-3.165-.158-6.81-.158-10.856V44.784h2.721zM24.453 84.841v28.442h-3.195l-8.834-13.58a786.564 786.564 0 01-7.257-11.417c.118 3.165.158 6.81.158 10.856v14.141H2.603V84.841h3.195l8.795 13.54 1.499 2.363c2.642 4.086 4.575 7.131 5.798 9.134-.118-3.165-.158-6.81-.158-10.856V84.84h2.721zM43.461 99.062c0 7.17 4.142 12.378 10.255 12.378s10.254-5.208 10.254-12.378-4.141-12.378-10.254-12.378c-6.113 0-10.255 5.207-10.255 12.378m23.31 0c0 8.613-5.01 14.822-13.055 14.822-8.046 0-13.055-6.21-13.055-14.822 0-8.613 5.01-14.822 13.055-14.822 8.046 0 13.055 6.209 13.055 14.822M99.701 87.205H90.71v26.078h-2.8V87.205h-9.032V84.84H99.7zM126.164 102.908l-1.38-3.926-.592-1.603c-1.774-5.127-2.958-8.613-3.55-10.455-.71 2.364-1.932 5.929-3.628 10.736l-.473 1.322-1.38 3.926h11.003zm.868 2.403h-12.74l-2.8 7.972h-2.84l10.216-28.442h3.628l10.215 28.442h-2.84l-2.84-7.972zM150.378 99.102h7.849c4.141 0 6.666-2.083 6.666-5.969 0-3.845-2.564-5.928-6.705-5.928h-7.81v11.897zm15.027 14.18l-7.888-11.817h-7.139v11.818h-2.8V84.84h11.083c5.364 0 8.993 3.044 8.993 8.292 0 4.607-2.8 7.531-7.06 8.172l8.006 11.978h-3.195zM184.216 113.283h2.8V84.841h-2.8zM223.537 88.286l-1.618 1.963c-2.958-2.604-5.482-3.566-8.637-3.566-4.102 0-6.98 2.164-6.98 5.128 0 2.124 1.261 3.325 3.391 4.086 1.065.36 2.603.802 4.654 1.282 7.02 1.683 9.584 3.726 9.584 8.132 0 5.168-4.22 8.573-9.979 8.573-4.377 0-7.572-1.362-11.516-4.727l1.617-2.003c2.011 1.683 3.786 2.804 5.285 3.405 1.46.6 2.998.881 4.614.881 4.26 0 7.218-2.323 7.218-6.049 0-2.403-1.34-3.765-3.51-4.566-1.104-.4-2.643-.842-4.654-1.282-7.139-1.643-9.23-3.165-9.387-7.652 0-4.686 4.457-7.651 9.624-7.651 3.983 0 7.02 1.202 10.294 4.046M259.031 88.286l-1.617 1.963c-2.958-2.604-5.482-3.566-8.637-3.566-4.102 0-6.981 2.164-6.981 5.128 0 2.124 1.262 3.325 3.391 4.086 1.066.36 2.603.802 4.654 1.282 7.02 1.683 9.584 3.726 9.584 8.132 0 5.168-4.22 8.573-9.978 8.573-4.378 0-7.573-1.362-11.517-4.727l1.617-2.003c2.012 1.683 3.786 2.804 5.285 3.405 1.46.6 2.998.881 4.615.881 4.26 0 7.218-2.323 7.218-6.049 0-2.403-1.341-3.765-3.51-4.566-1.105-.4-2.643-.842-4.654-1.282-7.14-1.643-9.23-3.165-9.388-7.652 0-4.686 4.457-7.651 9.624-7.651 3.983 0 7.02 1.202 10.294 4.046M293.54 87.205h-15.343V97.5h14.238v2.323h-14.238v11.096h15.658v2.364h-18.459V84.841h18.143zM331.045 84.841v28.442h-3.195l-8.834-13.58a786.564 786.564 0 01-7.257-11.417c.118 3.165.157 6.81.157 10.856v14.141h-2.721V84.841h3.195l8.795 13.54 1.499 2.363c2.642 4.086 4.575 7.131 5.798 9.134-.12-3.165-.158-6.81-.158-10.856V84.84h2.721z"/>
        </g>
        <path fill="#000" d="M1.665 0v2.412h8.98V29.03h2.784V2.412h8.942V0z"/>
        <g transform="translate(109.056)">
            <mask id="b" fill="#fff">
                <use xlink:href="#a"/>
            </mask>
            <path d="M2.996 14.787h7.845c4.14 0 6.662-2.13 6.662-6.104 0-3.933-2.562-6.063-6.701-6.063H2.996v12.167zm15.02 14.502L10.13 17.204H2.996v12.085h-2.8V.203h11.079c5.361 0 8.988 3.114 8.988 8.48 0 4.711-2.8 7.701-7.057 8.357l8.003 12.249h-3.193z" fill="#000" mask="url(#b)"/>
        </g>
        <path fill="#000" d="M218.958 29.289h2.799V.203h-2.8zM315.299 2.62v12.167h8.239c4.1 0 6.623-2.13 6.623-6.104 0-3.933-2.523-6.063-6.623-6.063h-8.24zm8.594-2.417c5.4 0 9.027 3.072 9.027 8.48s-3.626 8.52-9.027 8.52h-8.594V29.29h-2.8V.203h11.394z"/>
    </g>
</svg>