<?xml version="1.0" standalone="no"?>
<!DOCTYPE svg PUBLIC "-//W3C//DTD SVG 20010904//EN"
 "http://www.w3.org/TR/2001/REC-SVG-20010904/DTD/svg10.dtd">
<svg version="1.0" xmlns="http://www.w3.org/2000/svg"
 width="205.000000pt" height="157.000000pt" viewBox="0 0 205.000000 157.000000"
 preserveAspectRatio="xMidYMid meet">

<g transform="translate(0.000000,157.000000) scale(0.100000,-0.100000)"
fill="#000000" stroke="none">
<path d="M1735 1423 l-60 -126 -89 122 c-48 68 -92 119 -96 114 -5 -4 -63
-108 -129 -229 l-121 -222 0 -320 0 -321 131 -218 c72 -120 132 -219 134 -221
3 -4 189 256 507 709 l39 57 -121 383 c-67 211 -125 387 -129 391 -4 4 -34
-49 -66 -119z m-153 -15 c40 -56 77 -108 81 -115 4 -7 -12 -52 -43 -112 -42
-85 -50 -110 -50 -156 0 -30 -3 -55 -7 -55 -16 -1 -303 114 -303 120 0 17 233
429 240 425 5 -3 41 -51 82 -107z m332 -240 c67 -211 104 -343 99 -352 -6 -11
-53 14 -212 115 -112 72 -205 128 -207 126 -3 -2 79 -57 181 -122 102 -64 184
-119 182 -121 -1 -2 -86 30 -188 70 l-184 73 -1 60 c-1 51 5 72 45 157 43 93
47 97 62 80 9 -11 77 -104 152 -209 154 -217 166 -233 167 -223 0 5 -156 227
-296 419 l-33 45 56 117 c31 65 60 114 63 110 4 -5 55 -160 114 -345z m-498
-157 l149 -58 0 -188 0 -187 -155 -64 c-85 -35 -156 -64 -157 -64 -2 0 -3 140
-3 310 0 171 4 310 9 310 4 0 75 -26 157 -59z m391 -153 c117 -46 213 -86 213
-89 0 -6 -418 -179 -432 -179 -10 0 -10 350 0 350 4 0 103 -37 219 -82z m57
-337 c-81 -115 -151 -208 -156 -205 -4 3 -32 41 -63 86 -42 61 -53 83 -43 89
7 5 101 62 208 128 107 65 197 117 199 115 2 -1 -63 -97 -145 -213z m61 183
c-32 -25 -329 -204 -338 -204 -5 0 -7 17 -5 37 l3 37 175 73 c96 39 177 72
180 72 3 0 -4 -7 -15 -15z m-355 -177 c0 -25 17 -58 65 -128 36 -52 65 -98 65
-102 0 -4 -43 -69 -96 -143 -86 -121 -97 -134 -108 -117 -66 97 -236 397 -230
403 12 11 275 119 292 120 7 0 12 -13 12 -33z"/>
<path d="M18 880 c-3 -16 -1 -30 4 -30 13 0 9 -28 -5 -33 -6 -2 -9 -7 -6 -11
3 -3 18 3 32 15 20 15 27 30 27 55 0 29 -3 34 -24 34 -19 0 -25 -6 -28 -30z"/>
<path d="M344 874 c3 -9 6 -60 6 -115 0 -98 0 -99 24 -99 21 0 28 10 52 72 25
61 29 68 35 47 4 -13 7 -45 8 -71 1 -40 4 -48 20 -48 12 0 24 13 34 38 8 20
31 72 51 115 31 67 33 77 18 77 -13 0 -27 -20 -47 -69 -16 -38 -33 -67 -37
-65 -5 3 -8 34 -8 70 0 61 -1 64 -24 64 -20 0 -27 -10 -46 -62 -33 -90 -40
-92 -40 -10 0 71 0 72 -26 72 -20 0 -25 -4 -20 -16z"/>
<path d="M635 798 c-9 -51 -19 -103 -22 -115 -5 -22 -3 -23 70 -23 57 0 76 4
81 15 4 12 -4 15 -43 15 -26 0 -50 2 -53 5 -2 3 -3 18 0 35 4 28 7 30 48 30
37 0 44 3 44 20 0 17 -7 20 -41 20 -33 0 -40 3 -35 16 3 9 6 22 6 30 0 10 14
14 55 14 42 0 55 3 55 15 0 12 -15 15 -74 15 l-74 0 -17 -92z"/>
<path d="M826 803 c-9 -49 -19 -100 -22 -115 -6 -28 -5 -28 49 -28 81 0 134
49 107 100 -9 17 -8 29 5 56 26 54 9 74 -64 74 l-58 0 -17 -87z m100 42 c8
-20 -13 -45 -37 -45 -13 0 -19 7 -19 23 0 13 3 27 7 30 12 13 44 7 49 -8z m-9
-102 c5 -15 -32 -53 -52 -53 -16 0 -22 50 -8 64 11 11 56 3 60 -11z"/>
<path d="M102 842 c-19 -21 -20 -27 -8 -34 11 -6 12 -16 5 -45 -13 -57 -11
-93 6 -99 23 -9 65 5 65 21 0 8 -6 12 -14 9 -8 -3 -17 -1 -20 4 -10 17 14 112
29 112 7 0 15 7 19 15 3 9 0 15 -9 15 -8 0 -15 7 -15 15 0 24 -33 16 -58 -13z"/>
</g>
</svg>
