<?xml version="1.0" encoding="utf-8"?>
<!-- Generator: Adobe Illustrator 25.0.0, SVG Export Plug-In . SVG Version: 6.00 Build 0)  -->
<svg version="1.1" id="Layer_1" xmlns="http://www.w3.org/2000/svg" xmlns:xlink="http://www.w3.org/1999/xlink" x="0px" y="0px"
	 viewBox="0 0 1080 1080" style="enable-background:new 0 0 1080 1080;" xml:space="preserve">
<style type="text/css">
	.st0{display:none;fill:#FFFFFF;}
	.st1{fill-rule:evenodd;clip-rule:evenodd;}
	.st2{fill-rule:evenodd;clip-rule:evenodd;fill:#FF5A5F;}
</style>
<desc>Created with Fabric.js 5.2.4</desc>
<g id="e52ee105-0269-4ad0-916e-517b3b57030e" transform="matrix(1 0 0 1 540 540)">
	<rect x="-540" y="-540" vector-effect="non-scaling-stroke" class="st0" width="1080" height="1080"/>
</g>
<g id="_x31_96dda90-f612-4a7c-8870-df13bbff2e3c" transform="matrix(1 0 0 1 540 540)">
</g>
<g transform="matrix(6.88 0 0 6.88 540 540)">
	<g>
		<g transform="matrix(1 0 0 1 68.41 -18.13)">
			<path vector-effect="non-scaling-stroke" class="st1" d="M6-5.9C-1.9-5.9-7.1-2-5.8,5.9C2.1,5.9,6,2,6-5.9"/>
		</g>
		<g transform="matrix(1 0 0 1 62.43 7.3)">
			<path vector-effect="non-scaling-stroke" class="st2" d="M-3.1-2l0-0.7C-3-7.1-0.3-9.1,2.2-9.1c1.3,0,2.8,0.7,2.8,2.7
				C5.1-5,4.5-4,3.4-3.3C2.2-2.5,0.2-2-2.4-2L-3.1-2z M3.1-16.7c-5.8,0-10.7,1.8-14.1,5.3c-3,3.1-4.7,7.4-4.7,12c0,5,1.3,8.8,4,11.6
				c2.9,3,7.3,4.5,13.2,4.5c7.3,0,12.6-2.4,14-3.1l-3.1-7.2C9.6,7.9,6.6,8.7,3.7,8.7c-3.6,0-6-1.5-6.4-4.1l-0.1-0.8l0.8,0
				c5.6,0,9.7-0.8,12.7-2.3c1.6-0.8,2.9-1.9,3.7-3.3c0.9-1.4,1.4-3.2,1.4-5.3c0-3.2-1.2-5.7-3.4-7.3C10.1-15.9,7-16.7,3.1-16.7z"/>
		</g>
		<g transform="matrix(1 0 0 1 -16.08 7.32)">
			<path vector-effect="non-scaling-stroke" class="st1" d="M48.5-15.6v5.4l1.4,0.1c0.5,0.1,0.9,0.6,0.9,1.2c0,0.1,0,0.2,0,0.3
				L46.1,6h-0.5L41.4-8c-0.2-0.6-0.2-1.1,0.1-1.4c0.2-0.3,0.6-0.6,1.2-0.7l1.4-0.2v-5.4H27.5v5.4l1.8,0.2c0.8,0.1,1.2,0.3,1.4,0.9
				l8.8,24.8h11.1l8.2-23.9c0.4-1.3,1-1.8,2.2-1.9l1.3-0.1v-5.4L48.5-15.6L48.5-15.6z M13.7,15.7h12.6v-5.2l-1.1-0.1
				c-1.3-0.1-1.7-0.7-1.7-2.1v-23.9H10.1v5.3l1.9,0.2c1.3,0.1,1.7,0.7,1.7,2.1V15.7z M-5,15.7H8.1v-5.2l-1.4-0.1
				c-1.1-0.1-1.7-0.5-1.7-2.1V-6.2c0-7-2.9-10.3-9.2-10.3c-4,0-7.1,1.7-8.9,4.7l-0.1,0.1h-0.6v-4h-12v5.4l1.4,0.2
				c1.2,0.1,1.6,0.7,1.6,2.2v23.6h12.6v-5.2l-1.1-0.1c-1.3-0.1-1.7-0.7-1.7-2.1V-3.6c0-3.1,1.8-5.3,4.5-5.3c3,0,3.6,1.8,3.6,4.8
				V15.7L-5,15.7z M-62.4-10.3l1.4,0.1c1.1,0.1,1.7,0.5,1.7,2.1V6.2c0,7,2.9,10.3,9.2,10.3c4,0,7.1-1.7,8.9-4.7l0.1-0.1h0.6v4h12
				v-5.2l-1.4-0.2c-1.2-0.1-1.6-0.7-1.6-2.2v-23.8h-12.6v5.4l1.1,0.1c1.3,0.1,1.7,0.7,1.7,2.1V3.6c0,3.1-1.8,5.3-4.5,5.3
				c-3,0-3.6-1.8-3.6-4.8v-19.8h-13.1V-10.3L-62.4-10.3z"/>
		</g>
	</g>
</g>
</svg>
