<?xml version="1.0" encoding="utf-8"?>
<!-- Generator: Adobe Illustrator 25.0.0, SVG Export Plug-In . SVG Version: 6.00 Build 0)  -->
<svg version="1.1" id="Layer_1" xmlns="http://www.w3.org/2000/svg" xmlns:xlink="http://www.w3.org/1999/xlink" x="0px" y="0px"
	 viewBox="0 0 1000 1000" style="enable-background:new 0 0 1000 1000;" xml:space="preserve">
<style type="text/css">
	.st0{fill:#FAF9F4;}
</style>
<g id="BBOzms.tif">
	<g>
		<path class="st0" d="M691.7,430.7c0.4-0.8,0.3-1.4,0.3-2.1c0-4.6,0-9.2,0-13.8c0-2.1,0-2.1,2.2-2.1c0.9,0,1.8,0,2.7,0
			c1,0,1.4,0.5,1.4,1.4c0,0.2,0,0.4,0,0.6c0,8.6,0,17.2,0,25.8c0,2,0,2.1-2.1,2c-4.4-0.1-3,0.7-5.8-2.9c-3.8-4.8-7.6-9.7-11.4-14.5
			c-0.2-0.2-0.3-0.4-0.7-0.4c-0.4,0.4-0.2,0.9-0.2,1.4c0,4.8,0,9.6,0,14.4c0,1.9-0.1,2-1.9,2c-0.9,0-1.8,0-2.7,0
			c-1.5,0-1.6-0.1-1.6-1.7c0-0.3,0-0.5,0-0.8c0-8.3,0-16.6,0-24.8c0-0.3,0-0.5,0-0.8c0.1-1.7,0.1-1.7,1.8-1.7
			c3.9-0.1,3.9-0.1,6.4,3.1c3.7,4.8,7.5,9.6,11.2,14.4C691.2,430.3,691.4,430.4,691.7,430.7z"/>
		<path class="st0" d="M696.3,391.3c-3.7,0-3,0.3-4.1-2.7c-0.3-0.9-0.7-1.8-1-2.7c-0.3-0.9-0.8-1.2-1.7-1.2c-3,0-5.9,0-8.9,0
			c-0.9,0-1.4,0.4-1.7,1.2c-0.5,1.3-1,2.7-1.5,4c-0.3,1-0.9,1.5-2,1.4c-1.2-0.1-2.5,0-3.7,0c-1.5,0-1.7-0.3-1.1-1.8
			c1.2-3.1,2.4-6.2,3.5-9.2c2.2-5.7,4.4-11.3,6.6-17c0.7-1.8,0.7-1.8,2.7-1.8c1.2,0,2.5,0,3.7,0c1.1-0.1,1.8,0.4,2.2,1.5
			c1.5,4.1,3.1,8.2,4.7,12.3c1.8,4.6,3.6,9.3,5.4,13.9c0.1,0.3,0.3,0.6,0.3,0.9c0.2,0.7,0,1.2-0.8,1.2
			C698,391.4,697.1,391.3,696.3,391.3z M684.9,369.1c-1.1,3.2-2.1,6-3.1,8.8c-0.2,0.7,0.1,1,0.8,1c1.5,0,3.1,0,4.6,0
			c1.2,0,1.4-0.2,1-1.4c-0.5-1.3-0.9-2.7-1.4-4C686.1,372.2,685.8,370.7,684.9,369.1z"/>
		<path class="st0" d="M685.1,331.8c0.5-0.9,0.8-1.8,1.2-2.8c2-5.6,4-11.2,6-16.8c0.6-1.6,0.6-1.6,2.2-1.6c1.3,0,2.6,0,3.9,0
			c1.2,0,1.3,0.2,0.9,1.3c-1.5,4.3-3.1,8.5-4.7,12.7c-1.7,4.5-3.3,9-5,13.4c-1.1,2.8-0.7,2.4-3.4,2.4c-0.9,0-1.8,0-2.7,0
			c-2.1,0-2.1,0-2.9-2c-1.3-3.5-2.6-7-3.9-10.5c-1.9-5.2-3.8-10.3-5.7-15.5c-0.1-0.3-0.2-0.6-0.3-0.9c-0.2-0.6,0-0.9,0.6-0.9
			c1.7,0,3.4,0,5,0c1,0,1.2,0.8,1.5,1.5c0.9,2.4,1.7,4.9,2.6,7.3c1.3,3.7,2.6,7.3,3.9,11C684.4,330.9,684.4,331.4,685.1,331.8z"/>
		<path class="st0" d="M957.2,649.3c-0.2-0.7-0.4-1.4-0.7-2c-7.4-22.1-14.7-44.2-22.2-66.3c-0.6-1.7-0.6-3.2,0-4.9
			c1.2-3.2,2.3-6.5,3.3-9.7c3-9.1,6.1-18.2,9.1-27.2c3.4-10.1,6.7-20.3,10.2-30.4c0.9-2.7-0.6-5-3.3-5.4c-1-0.1-1.9-0.1-2.9-0.1
			c-118.1,0-236.3,0-354.4,0c-0.7,0-1.4,0-2.1,0c-0.9-0.1-1-0.5-0.4-1.1c1.1-1.1,2.4-2.2,3.5-3.3c4.9-4.8,9.7-9.6,14.8-14.3
			c3.1-2.9,6.1-5.9,9.2-8.9c8.5-8.2,17-16.5,25.5-24.7c1.4-1.3,1.9-2.8,1.9-4.6c0-46.7,0-93.4,0-140.2c0-0.6,0-1.2,0-1.7
			c0-1-0.5-1.9-1.2-2.6c-1-1-2.2-1.2-3.5-1.2c-6.8,0-13.6,0-20.4,0c-202.1,0-404.1,0-606.2,0c-1,0-2-0.1-2.9,0.1
			c-2.2,0.3-3.4,1.9-3.2,4.1c0.1,0.9,0.4,1.6,0.6,2.4c7.4,22,14.7,44.1,22.2,66.1c0.6,1.8,0.6,3.4,0,5.2c-7.4,22-14.8,44-22.2,66.1
			c-0.3,0.9-0.6,1.7-0.7,2.6c-0.1,2.3,1.3,3.9,3.5,4c0.8,0.1,1.6,0,2.3,0c71.9,0,143.8,0,215.7,0c0.8,0,1.7-0.1,2.8,0.2
			c-0.7,0.7-1.1,1.2-1.5,1.6c-4.6,4.6-9.3,9.2-14,13.8c-12.4,12.3-24.7,24.7-37.1,37c-1.4,1.4-2,2.9-2,4.8c0,46.5,0,92.9,0,139.4
			c0,0.6,0,1.2,0,1.7c0.2,2.9,1.6,4.4,4.4,4.2c0.6,0,1.3,0,1.9,0c32.6,0,65.2,0,97.8,0c222,0,444,0,666,0c0.9,0,1.8,0,2.7,0
			C956.4,653.6,957.8,651.5,957.2,649.3z M23.4,443.8c-3.7,0-3.4,0.1-2.3-3.2c6.9-20.6,13.7-41.2,20.7-61.9c0.7-2,0.7-3.8,0-5.8
			c-6.6-19.6-13.1-39.1-19.6-58.7c-0.5-1.5-1.1-3-1.6-4.6c-0.5-1.5-0.3-1.6,1.3-1.7c0.5,0,1,0,1.6,0c204.9,0,409.8,0,614.7,0
			c3.5,0,3.3-0.3,3.3,3.2c0,43.2,0,86.5,0,129.7c0,3.2,0.3,3-2.9,3c-102.6,0-205.2,0-307.9,0c0,0,0,0,0,0
			C228.3,443.8,125.9,443.8,23.4,443.8z M195.8,501.4c10.1-10.1,20.2-20.3,30.4-30.3c6.4-6.2,12.7-12.6,19-18.9
			c0.9-0.8,1.7-1.3,2.9-1.2c0.4,0,0.9,0,1.4,0c127.7,0,255.5,0,383.2,0c0.9,0,1.8-0.1,2.7,0.1c-0.2,0.8-0.7,1.2-1.2,1.6
			c-3.9,3.8-7.8,7.6-11.7,11.3c-5.9,5.8-11.8,11.6-17.8,17.3c-4.1,3.8-7.9,7.8-12,11.6c-3.2,2.9-6.2,6-9.3,9
			c-0.7,0.7-1.5,1.2-2.6,1.1c-0.5,0-1,0-1.6,0c-127.3,0-254.7,0-382,0c-0.8,0-1.7,0-2.7,0C194.8,502.2,195.4,501.9,195.8,501.4z
			 M945.4,646.5c-125.7,0-251.3,0-377,0c-125.5,0-251.1,0-376.6,0c-3.7,0-3.4,0.4-3.4-3.3c0-43.1,0-86.2,0-129.3c0-3.3-0.2-3,3.1-3
			c39.8,0,79.6,0,119.4,0c211.3,0,422.5,0,633.8,0c0.8,0,1.6,0,2.3,0c1.1,0.1,1.3,0.4,1,1.3c-0.1,0.5-0.3,1-0.5,1.5
			c-6.9,20.7-13.9,41.5-20.9,62.2c-0.6,1.9-0.7,3.6,0,5.5c7,20.7,13.9,41.5,20.9,62.2C948.6,646.5,948.6,646.5,945.4,646.5z"/>
		<path class="st0" d="M491.5,574.9c-0.4,0.8-0.2,1.5-0.2,2.2c0,9.7,0,19.4,0,29.1c0,0.3,0,0.6,0,1c0,1.9,0,1.9-2,2
			c-2.7,0-5.4,0-8.2,0c-1.9,0-1.9,0-1.9-2c0-0.8,0-1.6,0-2.3c0-16.3,0-32.6,0-48.9c0-0.5,0-1,0-1.6c0.1-1.3,0.2-1.5,1.5-1.5
			c2.8,0,5.6,0,8.3,0c0.9,0,1.4,0.4,1.9,1.1c2.7,3.4,5.4,6.8,8,10.2c5.7,7.3,11.4,14.6,17.1,21.9c0.2,0.3,0.5,0.6,1,0.8
			c0.5-0.6,0.3-1.3,0.3-2c0-9.5,0-19,0-28.5c0-3.9-0.4-3.3,3.5-3.4c2.4,0,4.8,0,7.2,0c1.5,0,1.6,0.1,1.7,1.7c0,3.2,0,6.3,0,9.5
			c0,14,0,28,0,41.9c0,0.5,0,1,0,1.6c-0.1,1.5-0.1,1.6-1.5,1.6c-2.8,0-5.6,0-8.3,0c-0.9,0-1.4-0.3-2-1c-5.1-6.5-10.2-13.1-15.3-19.6
			c-3.3-4.3-6.7-8.6-10-12.8C492.3,575.4,492.1,575.1,491.5,574.9z"/>
		<path class="st0" d="M845.1,575c-0.2,0.6-0.1,1.4-0.1,2c0,9.7,0,19.4,0,29.1c0,0.5,0,1,0,1.6c0,0.9-0.3,1.4-1.3,1.4
			c-3.2,0-6.3,0-9.5,0c-0.8,0-1.2-0.3-1.2-1.2c0-0.5,0-0.9,0-1.4c0-17.1,0-34.2,0-51.2c0-0.2,0-0.4,0-0.6c0-1.9,0.1-1.9,2-2
			c2.5,0,4.9,0.1,7.4,0c1.2,0,1.9,0.4,2.6,1.3c4.8,6.2,9.7,12.4,14.5,18.7c3.3,4.3,6.7,8.6,10,12.8c0.4,0.5,0.7,1,1.4,1.4
			c0.3-0.7,0.1-1.5,0.1-2.1c0-9.7,0-19.4,0-29.1c0-0.3,0-0.6,0-1c0-1.9,0.1-1.9,2-2c2.9,0,5.8,0,8.7,0c1.4,0,1.5,0.1,1.6,1.5
			c0,0.4,0,0.8,0,1.2c0,16.9,0,33.8,0,50.7c0,2.9,0,2.9-2.8,2.9c-2.2,0-4.4,0-6.6,0c-1,0-1.8-0.3-2.5-1.2
			c-5.4-7-10.8-13.9-16.2-20.8c-3-3.8-6-7.6-9-11.5C846,575.4,845.8,575,845.1,575z"/>
		<path class="st0" d="M614.7,575c0,0.8,0,1.5,0,2.3c0,9.7,0,19.4,0,29.1c0,0.5,0,1,0,1.6c0,0.9-0.4,1.3-1.3,1.3c-3.2,0-6.3,0-9.5,0
			c-0.9,0-1.3-0.4-1.3-1.3c0-0.4,0-0.8,0-1.2c0-17.1,0-34.2,0-51.2c0-2.6,0-2.6,2.5-2.6c2.3,0,4.5,0,6.8,0c1.1,0,1.8,0.3,2.5,1.2
			c5.6,7.2,11.3,14.5,16.9,21.7c2.8,3.6,5.6,7.1,8.4,10.7c0.2,0.2,0.3,0.6,0.8,0.6c0.3-0.6,0.1-1.3,0.1-2c0-9.8,0-19.5,0-29.3
			c0-0.5,0-1,0-1.6c0-0.9,0.4-1.3,1.3-1.3c3.2,0,6.3,0,9.5,0c0.9,0,1.3,0.5,1.2,1.3c0,0.4,0,0.8,0,1.2c0,17.1,0,34.2,0,51.2
			c0,2.6,0,2.6-2.5,2.6c-2.3,0-4.5,0-6.8,0c-1.1,0-1.8-0.4-2.4-1.2c-8.3-10.7-16.6-21.3-24.9-32C615.8,575.6,615.6,575.1,614.7,575z
			"/>
		<path class="st0" d="M421.9,551.7c8.5,0,16,2.9,22,8.9c4.6,4.6,7.4,10.2,8.2,16.7c1.1,9.2-1.6,17.1-8,23.7
			c-6.9,7.1-15.5,10-25.2,9.1c-9.4-0.8-17-5.1-22.5-12.8c-2.8-4-4.4-8.4-5-13.3c-0.9-7.6,1.1-14.4,5.6-20.4
			c4.8-6.4,11.2-10.2,19.1-11.6C418,551.8,419.9,551.6,421.9,551.7z M403.8,581c-0.4,9.3,7.4,18.1,18.1,18.1c9.5-0.1,18-7.2,18-18.1
			c0-10.9-8.7-18.1-18.2-18.1C411.3,563,403.4,571.7,403.8,581z"/>
		<path class="st0" d="M322,580.9c0-8.3,0-16.6,0-24.8c0-0.5,0-0.9,0-1.4c0-1.8,0.1-1.9,1.8-1.9c4.2,0,8.4,0,12.6,0c4,0,8-0.1,12,0
			c4.2,0.1,8.1,1.4,11.5,4c4,3.1,6,7.2,6.5,12.1c0.3,2.5,0.3,5.2-0.3,7.7c-1.1,4.5-3.4,8.2-7.5,10.7c-0.2,0.1-0.4,0.3-0.7,0.4
			c-0.8,0.4-0.7,0.9-0.3,1.6c1.9,3.4,3.8,6.8,5.6,10.2c1.5,2.7,3,5.3,4.5,7.9c0.8,1.5,0.7,1.7-0.9,1.7c-3.4,0-6.7,0-10.1,0
			c-1.2,0-1.7-0.5-2.2-1.4c-2.6-5-5.3-9.9-8-14.8c-0.2-0.4-0.5-0.8-0.7-1.2c-0.4-0.9-1.1-1.2-2-1.2c-2.7,0-5.3,0-8,0
			c-1.5,0-1.6,0.1-1.6,1.7c0,4.5,0,9.1,0,13.6c0,0.5,0,1,0,1.6c-0.1,1.5-0.2,1.7-1.7,1.7c-3,0-6.1,0-9.1,0c-1.4,0-1.5-0.1-1.5-1.6
			c0-3.3,0-6.6,0-9.9C322,592.1,322,586.5,322,580.9z M334.1,571.8c0,1.9,0,3.7,0,5.6c0,1.8,0.1,1.9,1.8,1.9c3.7,0,7.5,0.1,11.2,0
			c4.2-0.1,7-3.2,7.1-7.4c0-4.4-2.8-7.6-7-7.7c-3.9-0.1-7.8,0-11.6,0c-1.4,0-1.5,0.1-1.5,1.6C334.1,567.7,334.1,569.8,334.1,571.8z"
			/>
		<path class="st0" d="M723.7,578.1c3.2,0,6.3,0,9.5,0c1.7,0,1.8,0.1,1.8,1.7c0,6,0,12,0,18c0,1.4-0.6,2.4-1.5,3.2
			c-5.2,4.8-11.2,7.9-18.2,8.9c-6.2,0.9-12.1,0.2-17.8-2.3c-7.7-3.4-13.2-9-16-17c-3.4-9.8-2-19.1,4.3-27.3
			c4.7-6.2,11-9.9,18.7-11.2c6.2-1.1,12.2-0.5,18,2c4.1,1.8,7.6,4.4,10.6,7.6c0.6,0.7,0.8,1.3,0.1,2c-2.1,2.1-4.2,4.2-6.3,6.3
			c-0.7,0.7-1.1,0.6-1.8,0c-1.6-1.8-3.5-3.4-5.7-4.6c-6.9-3.9-15.9-3-21.7,2.6c-6.2,5.9-7.4,16.4-2,23.7c4.2,5.7,11.7,8.5,18.9,6.9
			c2.4-0.5,4.5-1.5,6.6-2.8c1-0.6,1.5-1.4,1.4-2.5c-0.1-1.1,0-2.2,0-3.3c0-2.1,0-2.1-2-2.1c-2.2,0-4.4,0-6.6,0
			c-1.7,0-1.8-0.1-1.8-1.7c0-2.1,0-4.3,0-6.4c0-1.4,0.1-1.6,1.6-1.6C717.1,578.1,720.4,578.1,723.7,578.1z"/>
		<path class="st0" d="M282.5,578.1c3.1,0,6.2,0,9.3,0c1.7,0,1.8,0.1,1.8,1.7c0,6.1,0,12.3,0,18.4c0,1-0.4,1.7-1.1,2.4
			c-4.9,4.8-10.7,7.9-17.4,9.1c-8.7,1.5-16.8,0.1-24-5c-6.8-4.7-10.9-11.2-12.3-19.5c-2-12.2,4.5-24.7,15.5-30.2
			c9.7-4.8,19.4-4.9,29.1,0c3.1,1.6,5.9,3.8,8.2,6.4c1,1.1,1,1.3,0,2.4c-1.9,2-3.9,4-5.9,5.9c-1,1-1.1,1-2,0c-2-2.2-4.3-4-6.9-5.2
			c-11.1-5.2-23.9,1.9-25.6,13.7c-1.3,8.9,4.3,17.8,13.1,20c5.8,1.5,11.1,0.5,16.1-2.9c0.8-0.6,1.3-1.2,1.2-2.2
			c-0.1-1.3,0-2.6,0-3.9c0-1.5-0.1-1.6-1.6-1.6c-2.1,0-4.3,0-6.4,0c-0.5,0-0.9,0-1.4,0c-0.7,0-1.1-0.3-1.1-1c0-2.5,0-5,0-7.6
			c0-1,0.7-1.1,1.5-1.1c2.3,0,4.7,0,7,0C280.5,578.1,281.5,578.1,282.5,578.1z"/>
		<path class="st0" d="M763.4,581c0-8.4,0-16.8,0-25.2c0-0.5,0-0.9,0-1.4c0.1-1.3,0.2-1.4,1.4-1.5c0.4,0,0.8,0,1.2,0
			c12.2,0,24.4,0,36.7,0c0.5,0,0.9,0,1.4,0c0.9,0,1.3,0.4,1.3,1.3c0,2.9,0,5.8,0,8.7c0,0.8-0.3,1.2-1.2,1.2c-0.5,0-1,0-1.6,0
			c-8,0-15.9,0-23.9,0c-0.5,0-0.9,0-1.4,0c-1.8,0-1.9,0.1-1.9,1.8c0,2.4,0,4.8,0,7.2c0,1.8,0.1,1.8,1.9,1.8c5.5,0,11,0,16.5,0
			c1.5,0,3.5-0.7,4.5,0.3c1.1,1.1,0.3,3.1,0.4,4.7c0.1,1.4,0,2.8,0,4.3c0,1.4-0.1,1.6-1.6,1.6c-3.8,0-7.5,0-11.3,0
			c-2.8,0-5.7,0-8.5,0c-1.9,0-1.9,0-1.9,2c0,2.7,0,5.4,0,8.2c0,1.8,0.1,1.9,1.8,1.9c3.1,0,6.2,0,9.3,0c5.8,0,11.5,0,17.3,0
			c2.2,0,2.2,0,2.2,2.1c0,2.5,0,4.9,0,7.4c0,1.7-0.1,1.8-1.8,1.8c-3,0-5.9,0-8.9,0c-9.6,0-19.1,0-28.7,0c-0.5,0-0.9,0-1.4,0
			c-1.9,0-1.9-0.1-1.9-2C763.4,598.4,763.4,589.7,763.4,581z"/>
		<path class="st0" d="M560,580.8c0-8.3,0-16.5,0-24.8c0-0.3,0-0.6,0-1c0-2.1,0-2.2,2.2-2.2c2.7,0,5.4,0,8.1,0
			c1.7,0,1.7,0.1,1.7,1.8c0,0.3,0,0.6,0,1c0,16.9,0,33.9,0,50.8c0,0.2,0,0.4,0,0.6c0,2.1,0,2.1-2.2,2.2c-2.6,0-5.3,0-7.9,0
			c-1.9,0-1.9,0-1.9-2C560,598.4,560,589.6,560,580.8z"/>
		<path class="st0" d="M330.7,349.7c9.8,0,17.2,3,23.4,9.2c4.4,4.5,7,9.8,7.9,16.1c1.8,11.8-4.2,23.3-14.3,29.2
			c-11.3,6.6-25.8,5.6-35.8-2.7c-6.1-5-9.7-11.5-10.5-19.4c-1-9.4,2.1-17.4,8.8-23.9C316,352.4,323.4,349.6,330.7,349.7z
			 M313.8,379.1c-0.4,9.2,7.2,18,17.9,18c10.3,0,18-7.6,18.1-17.9c0.1-11.3-9.2-18.2-18-18.2C322.1,360.9,313.4,369,313.8,379.1z"/>
		<path class="st0" d="M446.6,378.9c0.4,12.6-8.5,24.5-21.2,28.1c-9.8,2.8-19.1,1.6-27.5-4.3c-7.9-5.6-12.1-13.4-12.3-23.2
			c-0.4-14.8,11.1-27.2,25-29.3c9-1.4,17.3,0.3,24.7,6C442.3,361.4,446.9,370.1,446.6,378.9z M434.2,379.1
			c0.1-10.3-8.4-18-17.9-18.1c-9.7-0.1-18.3,7.7-18.2,18c0,9.6,7.3,18.1,18.1,18.1C426.6,397.1,434.1,388.8,434.2,379.1z"/>
		<path class="st0" d="M473.5,379c0-8.4,0-16.8,0-25.2c0-0.5,0-1,0-1.6c0-0.9,0.4-1.3,1.3-1.3c0.3,0,0.5,0,0.8,0
			c8.1,0,16.2,0,24.3,0c3.3,0,6.4,0.8,9.3,2.4c5.2,2.8,8,7.3,8.9,13.1c0.5,2.9,0.3,5.8-0.4,8.6c-1.1,4.2-3.3,7.7-7,10.1
			c-1.9,1.2-1.9,1.3-0.7,3.4c3.1,5.6,6.2,11.2,9.4,16.8c0.1,0.2,0.3,0.4,0.4,0.7c0.4,0.9,0.3,1.1-0.7,1.2c-0.5,0-1,0-1.6,0
			c-2.8,0-5.7-0.1-8.5,0c-1.5,0.1-2.3-0.5-2.9-1.8c-0.9-1.7-1.8-3.4-2.8-5.1c-1.8-3.4-3.7-6.8-5.5-10.2c-0.5-1-1.2-1.5-2.4-1.5
			c-2.6,0.1-5.2,0-7.8,0c-1.6,0-1.7,0.1-1.7,1.8c0,4.7,0,9.3,0,14c0,0.5,0,0.9,0,1.4c0,0.9-0.3,1.4-1.3,1.4c-3.2,0-6.5,0-9.7,0
			c-0.9,0-1.3-0.4-1.3-1.3c0-0.5,0-1,0-1.6C473.5,395.9,473.5,387.4,473.5,379z M485.8,369.6C485.8,369.6,485.8,369.6,485.8,369.6
			c0,2,0,4,0,6c0,1.7,0.1,1.8,1.8,1.8c3.6,0,7.1,0,10.7,0c1,0,1.9-0.3,2.8-0.6c3.3-1.2,5.1-4.6,4.5-8.5c-0.5-3.3-3.3-6-6.6-6.1
			c-3.9-0.1-7.9,0-11.8,0c-1,0-1.4,0.4-1.4,1.4C485.8,365.6,485.8,367.6,485.8,369.6z"/>
		<path class="st0" d="M546.4,378.9c0-8,0-16,0-24.1c0-0.3,0-0.6,0-1c0-3.2-0.3-3,2.9-3c3.3,0,6.6,0,9.9,0c3,0,6-0.1,8.9,0
			c9.7,0.3,17.7,4.1,23.5,12c3.6,4.9,5.1,10.5,5,16.6c-0.1,6.1-2,11.5-5.6,16.4c-4.3,5.7-10.1,9-16.9,10.5c-2.6,0.6-5.4,0.8-8.1,0.8
			c-5.8,0-11.6,0-17.5,0c-2,0-2,0-2-2.1C546.4,396.4,546.4,387.7,546.4,378.9z M558.4,379c0,5,0,10,0,14.9c0,2,0,2,1.9,2
			c2.3,0,4.5,0.1,6.8,0c3.3-0.1,6.4-0.8,9.2-2.6c5.3-3.5,7.8-8.4,7.7-14.7c-0.1-9-7.2-16.2-16.2-16.4c-2.5,0-4.9,0-7.4,0
			c-2,0-2,0-2,2.1C558.4,369.2,558.4,374.1,558.4,379z"/>
		<path class="st0" d="M246.7,374.3c3.7-4.1,7.4-8.3,11.1-12.4c3-3.3,6-6.6,9-9.9c0.5-0.5,1-1.1,1.8-1.1c4.3,0,8.7,0,12.9,0
			c0.3,0.8-0.2,1.2-0.6,1.6c-4,4.4-8,8.8-12,13.2c-2.2,2.4-4.3,4.8-6.5,7.2c-0.9,1.1-1,1.3-0.1,2.5c2.8,4.2,5.7,8.4,8.5,12.5
			c3.5,5.1,7,10.3,10.5,15.4c0.6,0.9,1.3,1.8,1.9,2.7c0.4,0.6,0.2,1-0.5,1c-0.9,0-1.8,0-2.7,0c-2.8,0-5.7,0-8.5,0
			c-1.2,0-1.9-0.4-2.5-1.4c-3.9-5.8-7.9-11.6-11.8-17.3c-0.9-1.4-1.9-2.8-2.9-4.1c-0.7-1-1-1.1-1.8-0.3c-1.9,1.9-3.7,3.8-5.6,5.7
			c-0.6,0.6-0.6,1.4-0.6,2.2c0,4.1,0,8.3,0,12.4c0,0.5,0,0.9,0,1.4c0,0.9-0.3,1.4-1.3,1.4c-3.2,0-6.3,0-9.5,0c-1,0-1.5-0.4-1.5-1.4
			c0-0.5,0-1,0-1.6c0-16.9,0-33.8,0-50.7c0-0.4,0-0.8,0-1.2c0.1-1.4,0.2-1.5,1.6-1.5c3,0,6,0,8.9,0c1.7,0,1.8,0.1,1.8,1.8
			c0,6.5,0,12.9,0,19.4c0,0.7,0,1.4,0,2.1C246.4,374.2,246.5,374.3,246.7,374.3z"/>
		<path class="st0" d="M173.9,374.3c1-1,2-1.8,2.9-2.7c2.9-3.2,5.7-6.4,8.5-9.5c3-3.4,6.1-6.7,9.1-10.1c0.5-0.6,1.1-1.1,1.9-1
			c4.1,0,8.3,0,12.4,0c0.2,0,0.3,0.1,0.7,0.2c-0.6,0.8-1.2,1.6-1.8,2.3c-4,4.4-8,8.8-12,13.2c-1.8,2-3.5,4-5.3,5.9
			c-1.7,1.9-1.4,1.5-0.2,3.4c3.7,5.5,7.5,11,11.3,16.5c3,4.3,5.9,8.7,8.9,13c0.1,0.2,0.2,0.3,0.3,0.5c0.6,0.9,0.4,1.2-0.7,1.3
			c-3.8,0-7.6,0-11.5,0c-0.9,0-1.4-0.4-1.9-1.1c-1.3-2-2.7-3.9-4.1-5.9c-3.5-5.1-7-10.3-10.5-15.4c-0.1-0.2-0.2-0.3-0.3-0.5
			c-0.8-1-1.1-1-2-0.1c-1.3,1.3-2.5,2.7-3.8,4.1c-2.7,2.9-2.3,1.6-2.3,5.7c0,3.8,0,7.5,0,11.3c0,1.8-0.1,1.9-1.9,1.9
			c-2.8,0-5.6,0-8.3,0c-1.8,0-1.8-0.1-1.8-1.9c0-5.8,0-11.5,0-17.3c0-11.6,0-23.2,0-34.7c0-2.4,0-2.4,2.3-2.4c2.7,0,5.3,0,8,0
			c1.7,0,1.8,0.1,1.8,1.8c0,6.5,0,12.9,0,19.4C173.7,372.8,173.6,373.5,173.9,374.3z"/>
		<path class="st0" d="M109.5,394.4c-2.8,0-5.6,0-8.3,0c-2.6,0-2.6,0-3.5,2.4c-1.1,3-2.2,5.9-3.3,8.9c-0.4,1-0.9,1.6-2.1,1.6
			c-3.3-0.1-6.6,0-9.9,0c-1.4,0-1.5-0.1-1-1.4c3-7.9,6.1-15.8,9.1-23.7c3.7-9.7,7.5-19.4,11.2-29.1c0.8-2,0.7-2,2.8-2
			c3.3,0,6.6,0,9.9,0c1.9,0,1.9,0,2.6,1.9c2,5.2,4,10.4,6,15.6c4.6,12,9.3,24,13.9,36c1.2,3.2,1.3,2.9-2,2.9c-2.8,0-5.6,0-8.3,0
			c-1.1,0-1.7-0.4-2.1-1.5c-1.1-3.2-2.3-6.3-3.5-9.5c-0.7-1.9-0.7-1.9-2.8-1.9C115.4,394.4,112.5,394.4,109.5,394.4z M109.7,365.1
			c-0.3,0.3-0.4,0.3-0.4,0.3c-2.1,5.6-4.2,11.2-6.2,16.9c-0.4,1-0.2,1.2,1,1.2c3.5,0,7.1,0,10.6,0c1.5,0,1.6-0.2,1.1-1.6
			c-1.7-4.7-3.4-9.5-5.1-14.2C110.4,366.9,110,366.1,109.7,365.1z"/>
	</g>
</g>
</svg>
