<?xml version="1.0" encoding="utf-8"?>
<!-- Generator: Adobe Illustrator 25.0.0, SVG Export Plug-In . SVG Version: 6.00 Build 0)  -->
<svg version="1.1" id="Layer_1" xmlns="http://www.w3.org/2000/svg" xmlns:xlink="http://www.w3.org/1999/xlink" x="0px" y="0px"
	 viewBox="0 0 1000 1000" style="enable-background:new 0 0 1000 1000;" xml:space="preserve">
<style type="text/css">
	.st0{fill:#010101;}
	.st1{fill:#FDFDFD;}
	.st2{fill:#0067A5;}
	.st3{fill:#EC1B24;}
	.st4{fill:#FEFEFE;}
	.st5{fill:#EA1B23;}
	.st6{fill:#FCFCFC;}
	.st7{fill:#0064A1;}
	.st8{fill:#0063A0;}
	.st9{fill:#F2F2F2;}
	.st10{fill:#030303;}
	.st11{fill:#0066A3;}
	.st12{fill:#E91B23;}
</style>
<g>
	<path class="st0" d="M708.1,646.9c0,22,0,41.8,0,62.5c-57.7,0-113.9,0-171.2,0c-3.4-17.3-0.1-35-1.8-51.1
		c-17.8,17.3-36.2,35.2-52.6,51.2c-57.8,0-111.8,0-167.3,0c0-20.6,0-40.4,0-61.2c-10.7,0-19.9,0-31.1,0c-2.6,19.7-5.2,39.9-7.9,61
		c-52.2,0-103.8,0-156.9,0C98.9,570.1,78.7,431.1,58.3,290.8c31,0,60.3,0,91,0c5.4,19.9,4.8,41.2,9.3,63c23.4,0,47.1,0,72.6,0
		c2.7-20.2,5.6-41,8.5-62.9c79.4,0,158.5,0,240.3,0c16.1,17.1,34,36,54.9,58c0-21.9,0-39.8,0-58.4c29.7,0,57.4,0,86.5,0
		c0,21.3,0,41.8,0,63.7c107.3,0,213.1,0,320.2,0c0,97.8,0,194.1,0,292.6C864.9,646.9,787.2,646.9,708.1,646.9z"/>
	<path class="st1" d="M249,301.8c21.9,0,42.8,0,65,0c-15.8,132.9-31.5,264.6-47.2,397.1c-46,0-91,0-138.3,0
		C109.3,567.2,90.1,435,70.7,301.7c23.5,0,45.6,0,70.2,0c13.9,113.4,27.8,227.3,41.8,340.9c8.3,1.8,15.3,2.3,23.3-0.3
		C220.2,529.1,234.6,415.7,249,301.8z"/>
	<path class="st1" d="M326.1,301.5c49.8,0,98.8,0,149.1,0c19.2,20.5,39,41.6,58.8,62.8c0,91,0,181.5,0,273.2
		c-19.5,20.4-39.5,41.3-58.9,61.7c-49.9,0-98.9,0-149,0C326.1,566.3,326.1,434.2,326.1,301.5z"/>
	<path class="st1" d="M546.5,301.5c21.2,0,41.7,0,63.9,0c0,114.6,0,229.3,0,345.3c29.4,0,57.1,0,85.6,0c3,17.7,0.8,34.2,1.6,51.9
		c-50.7,0-100.5,0-151.2,0C546.5,566.3,546.5,434.3,546.5,301.5z"/>
	<path class="st2" d="M621.9,629.2c0-25.8,0-50.7,0-77c101,0,201.2,0,302.7,0c0,25.3,0,50.6,0,77
		C824.4,629.2,724.1,629.2,621.9,629.2z"/>
	<path class="st3" d="M924.9,449.8c-101.3,0-201.5,0-302.7,0c0-25.8,0-51.1,0-77.2c101.2,0,201.4,0,302.7,0
		C924.9,398,924.9,422.8,924.9,449.8z"/>
	<path class="st4" d="M925.5,462.7c0,26.3,0,51.3,0,76.9c-100.9,0-201.1,0-302.6,0c0-25.3,0-50.5,0-76.9
		C723.3,462.7,823.9,462.7,925.5,462.7z"/>
	<path class="st5" d="M228,373c-0.2,26-6.8,50.2-7.8,75.6c-16.7,3.1-32.1,1.5-48.9,1.3c-6.6-25-6.8-50.5-10.6-76.9
		C182.9,373,204.3,373,228,373z"/>
	<path class="st6" d="M218,461.6c-3.5,27.6-6.7,52.3-9.8,77.1c-8.6,3.4-17,0.6-26.2,2.2c-5.4-26-7-51.7-10.5-78
		C186.8,460.2,201.5,462.2,218,461.6z"/>
	<path class="st7" d="M285.7,630.1c3.2-26.8,6.3-51.9,9.3-76.6c6.5-4.5,12.2-2.5,18.8-1.1c0,25.5,0,50.3,0,76
		C305.1,632.3,296,629.7,285.7,630.1z"/>
	<path class="st8" d="M183.4,553c8.2-3,14.6-3.2,21.8-0.3c-0.3,25.9-5.3,51.1-10.9,76.6C188.6,604,184.3,578.7,183.4,553z"/>
	<path class="st9" d="M313.8,539.2c-5.5,1.9-10.3,1.8-16.9,0c2.7-26.1,4.3-52.4,10.1-77.9c2.3,0.3,4.5,0.7,6.8,1
		C313.8,487.5,313.8,512.7,313.8,539.2z"/>
	<path class="st10" d="M380.4,358.7c23,0,45.2,0,69.6,0c9.9,10.5,20.9,22.2,32.1,34.1c0,69.9,0,139.7,0,210.6
		c-12.3,13-25.3,26.7-37.9,40.1c-21.5,0-42.1,0-63.7,0C380.4,548.9,380.4,454.8,380.4,358.7z"/>
	<path class="st6" d="M390.8,462.3c26.9,0,52.9,0,80,0c0,25.7,0,50.9,0,77.2c-26.7,0-53,0-80,0C390.8,513.5,390.8,488.2,390.8,462.3
		z"/>
	<path class="st11" d="M472.4,600.1c-10.6,9.3-21.5,18.8-33.6,29.4c-14.3,0-30.8,0-48.2,0c0-26,0-51.3,0-77.6c27,0,52.8,0,79.5,0
		C474.3,567.7,470.7,583.1,472.4,600.1z"/>
	<path class="st12" d="M470.9,449.6c-26.9,0-53,0-80.1,0c0-25.2,0-50.6,0-76.7c18.8-2.2,37.1-0.7,55-1c9,8.4,17.5,16.4,25.2,23.7
		C470.9,414.2,470.9,431.3,470.9,449.6z"/>
</g>
</svg>
