<svg id="Layer_2" data-name="Layer 2" xmlns="http://www.w3.org/2000/svg" viewBox="0 0 1958.15 283.46"><defs><style>.cls-1{fill:#fff;}</style></defs><path class="cls-1" d="M18.76,226.45,157.58,496.83l397.59-.73,32-62.5H259.35L152.5,226.45Z" transform="translate(-18.76 -220.63)"/><path class="cls-1" d="M693.27,226.45l-26.88,50.88H313.86L340,226.45Z" transform="translate(-18.76 -220.63)"/><path class="cls-1" d="M638,334l-26.9,50.88H258.62L285.51,334Z" transform="translate(-18.76 -220.63)"/><path class="cls-1" d="M989.1,498.29H883.71L772.5,226.45h95.94l69,202.06h.73L1008,226.45h95.94Z" transform="translate(-18.76 -220.63)"/><path class="cls-1" d="M1130.11,226.45h91.58V498.29h-91.58Z" transform="translate(-18.76 -220.63)"/><path class="cls-1" d="M1285.66,226.45h180.26c62.51,0,123.57,21.8,123.57,76.32,0,29.07-18.18,57.42-55.25,68.3v.73c37.8,6.54,48.7,39.25,51.61,64.69.73,11.63,2.18,51.6,14.54,61.05h-91.58c-8-9.45-9.46-35.62-10.16-43.61-2.18-27.62-8.72-55.24-51.61-55.24h-69.8v98.87h-92.31V226.45Zm91.58,117.75h77c27.62,0,42.89-11.63,42.89-32s-21.09-29.08-46.53-29.08h-73.4Z" transform="translate(-18.76 -220.63)"/><path class="cls-1" d="M1803.19,220.63c111.21,0,173.71,62.51,173.71,141.74,0,78.45-62.5,141.73-173.71,141.73s-174.45-62.51-174.45-141.73c.72-79.23,63.23-141.74,174.45-141.74m0,222.46c59.6,0,82.15-40,82.15-80.69,0-40-22.53-80.68-82.15-80.68S1721,321.7,1721,362.4c0,40,23.26,80.69,82.15,80.69" transform="translate(-18.76 -220.63)"/></svg>