<?xml version="1.0" standalone="no"?>
<!DOCTYPE svg PUBLIC "-//W3C//DTD SVG 20010904//EN"
 "http://www.w3.org/TR/2001/REC-SVG-20010904/DTD/svg10.dtd">
<svg version="1.0" xmlns="http://www.w3.org/2000/svg"
 width="1240.000000pt" height="496.000000pt" viewBox="0 0 1240.000000 496.000000"
 preserveAspectRatio="xMidYMid meet">
<metadata>
Created by potrace 1.16, written by Peter Selinger 2001-2019
</metadata>
<g transform="translate(0.000000,496.000000) scale(0.100000,-0.100000)"
fill="#000000" stroke="none">
<path d="M180 2480 l0 -2300 2300 0 2300 0 0 2300 0 2300 -2300 0 -2300 0 0
-2300z m962 463 l3 -488 101 140 100 140 246 3 c229 2 247 1 251 -15 3 -10 15
-78 28 -151 13 -81 25 -128 30 -120 5 7 138 230 296 496 l288 482 264 0 c246
0 263 -1 258 -17 -2 -10 -250 -436 -550 -948 l-546 -930 -237 -3 c-131 -1
-241 1 -246 6 -4 4 -17 73 -28 152 -12 80 -22 149 -23 153 -2 5 -51 -64 -110
-152 l-107 -161 -250 0 -250 0 0 950 0 950 240 0 240 0 2 -487z m3357 480 c0
-5 -62 -111 -137 -238 l-137 -230 -399 -5 -399 -5 -64 -102 -63 -103 395 0
c217 0 395 -3 395 -6 0 -3 -62 -111 -137 -240 l-137 -234 -400 0 -401 0 -72
-125 c-40 -68 -73 -127 -73 -130 0 -2 178 -6 395 -7 l396 -3 -138 -232 -138
-233 -667 0 c-368 0 -668 2 -668 5 0 3 248 430 551 950 l551 945 674 0 c371 0
674 -3 673 -7z"/>
<path d="M5990 4482 c0 -5 34 -185 75 -400 41 -215 75 -394 75 -397 0 -3 58
-5 128 -5 l128 0 59 289 c33 159 61 289 62 287 1 -1 27 -123 58 -271 31 -149
58 -278 61 -287 5 -16 20 -18 129 -18 109 0 124 2 129 18 3 9 37 186 76 392
39 206 73 381 75 388 3 9 -19 12 -88 12 l-92 0 -50 -330 c-27 -182 -52 -325
-55 -318 -4 7 -38 156 -75 331 l-69 318 -100 -3 -100 -3 -72 -330 c-48 -221
-74 -322 -78 -305 -5 20 -96 624 -96 636 0 2 -40 4 -90 4 -49 0 -90 -4 -90 -8z"/>
<path d="M7150 4405 l0 -85 85 0 85 0 0 85 0 85 -85 0 -85 0 0 -85z"/>
<path d="M7600 4405 l0 -85 85 0 85 0 0 85 0 85 -85 0 -85 0 0 -85z"/>
<path d="M7910 4085 l0 -405 90 0 90 0 0 135 0 136 73 -3 72 -3 45 -132 45
-133 92 0 c53 0 93 4 93 10 0 5 -24 74 -53 154 l-54 145 38 37 c50 48 73 110
73 193 1 93 -20 157 -65 202 -59 59 -108 69 -341 69 l-198 0 0 -405z m374 244
c61 -28 74 -146 22 -198 -24 -24 -34 -26 -121 -29 l-95 -4 0 121 0 121 85 0
c46 0 95 -5 109 -11z"/>
<path d="M8590 4415 l0 -75 110 0 110 0 0 -330 0 -330 85 0 85 0 0 330 0 330
105 0 105 0 0 75 0 75 -300 0 -300 0 0 -75z"/>
<path d="M9290 4085 l0 -405 90 0 90 0 0 170 0 170 140 0 140 0 0 -170 0 -170
90 0 90 0 0 405 0 405 -90 0 -90 0 0 -160 0 -160 -140 0 -140 0 0 160 0 160
-90 0 -90 0 0 -405z"/>
<path d="M7150 4077 c0 -223 11 -272 74 -333 56 -53 112 -69 246 -69 87 1 113
4 155 23 65 30 89 53 116 115 21 47 23 70 27 250 l4 197 -86 0 -86 0 -1 -152
c-1 -175 -12 -232 -51 -261 -37 -28 -114 -33 -158 -10 -61 31 -70 65 -70 256
l0 167 -85 0 -85 0 0 -183z"/>
<path d="M10101 3415 c-91 -26 -144 -76 -182 -172 -21 -52 -23 -75 -24 -228 0
-202 12 -256 74 -327 60 -68 122 -91 246 -92 235 -2 327 95 342 359 7 128 -10
243 -46 321 -30 65 -69 102 -137 130 -55 23 -204 28 -273 9z m208 -162 c49
-36 65 -86 69 -219 7 -190 -24 -264 -118 -285 -85 -19 -158 23 -182 105 -16
57 -15 250 1 309 15 52 58 103 94 110 41 9 109 -1 136 -20z"/>
<path d="M5990 3015 l0 -405 260 0 260 0 0 75 0 75 -175 0 -175 0 0 90 0 90
140 0 140 0 0 75 0 75 -140 0 -140 0 0 85 0 85 175 0 175 0 0 80 0 80 -260 0
-260 0 0 -405z"/>
<path d="M6620 3015 l0 -405 230 0 230 0 0 75 0 75 -145 0 -145 0 0 330 0 330
-85 0 -85 0 0 -405z"/>
<path d="M7180 3015 l0 -405 265 0 265 0 0 75 0 75 -180 0 -180 0 0 90 0 90
145 0 145 0 0 75 0 75 -145 0 -145 0 0 85 0 85 180 0 180 0 0 80 0 80 -265 0
-265 0 0 -405z"/>
<path d="M7820 3015 l0 -405 85 0 85 0 0 150 c0 149 0 150 24 156 13 3 36 4
52 2 27 -3 33 -13 93 -155 l64 -153 98 0 c55 0 99 2 99 5 0 2 -38 90 -85 194
-47 105 -85 196 -85 202 0 6 36 95 81 198 45 102 83 192 86 199 4 9 -19 12
-94 12 l-100 0 -58 -152 c-76 -199 -75 -198 -130 -198 l-45 0 0 175 0 175 -85
0 -85 0 0 -405z"/>
<path d="M8490 3340 l0 -80 105 0 105 0 0 -325 0 -325 85 0 85 0 0 325 0 325
105 0 105 0 0 80 0 80 -295 0 -295 0 0 -80z"/>
<path d="M9190 3016 l0 -406 85 0 85 0 0 130 0 130 73 0 72 0 45 -130 45 -130
92 0 c51 0 93 4 93 9 0 4 -24 72 -54 151 l-53 143 33 29 c55 48 79 110 78 203
0 134 -38 203 -136 245 -48 21 -72 24 -255 28 l-203 5 0 -407z m355 240 c39
-17 65 -60 65 -111 0 -51 -26 -94 -65 -111 -20 -8 -67 -14 -110 -14 l-75 0 0
125 0 125 75 0 c43 0 90 -6 110 -14z"/>
<path d="M10680 3015 l0 -405 85 0 85 0 2 327 3 326 48 -159 c27 -87 71 -234
99 -326 l51 -168 139 0 138 0 0 405 0 405 -85 0 -85 0 -1 -332 0 -333 -98 330
-97 330 -142 3 -142 3 0 -406z"/>
<path d="M11490 3015 l0 -405 85 0 85 0 0 405 0 405 -85 0 -85 0 0 -405z"/>
<path d="M11800 3015 l0 -405 90 0 89 0 3 153 3 152 46 3 46 3 64 -155 64
-156 98 0 c53 0 97 4 97 9 0 5 -39 95 -86 200 l-85 191 85 197 c47 109 86 202
86 206 0 4 -44 6 -97 5 l-97 -3 -62 -160 c-34 -88 -67 -166 -73 -172 -7 -7
-30 -13 -51 -13 l-40 0 0 175 0 175 -90 0 -90 0 0 -405z"/>
<path d="M7170 2364 c-108 -22 -172 -69 -209 -153 -54 -126 -54 -405 0 -531
24 -57 70 -103 124 -126 60 -25 187 -30 264 -10 159 41 208 148 199 438 -4
124 -9 163 -26 206 -46 118 -119 169 -253 176 -41 3 -85 2 -99 0z m198 -107
c77 -51 107 -159 99 -360 -4 -115 -8 -133 -33 -185 -39 -77 -87 -102 -194
-102 -178 1 -233 80 -233 335 0 199 33 282 128 327 60 28 180 21 233 -15z"/>
<path d="M5990 1950 l0 -410 40 0 40 0 2 367 3 366 125 -352 125 -352 49 3 48
3 122 342 c66 188 124 345 129 349 4 4 7 -158 7 -359 l0 -367 40 0 40 0 0 410
0 410 -72 0 -73 0 -120 -344 c-66 -189 -121 -343 -123 -342 -1 2 -56 156 -121
342 l-119 339 -71 3 -71 3 0 -411z"/>
<path d="M7720 1950 l0 -410 40 0 40 0 0 160 0 160 115 0 115 0 80 -160 80
-160 45 0 c25 0 45 2 45 5 0 3 -36 78 -81 166 -44 89 -79 162 -77 163 54 25
85 47 104 76 49 73 55 205 15 296 -40 89 -122 113 -378 114 l-143 0 0 -410z
m380 312 c55 -27 80 -74 80 -149 0 -78 -26 -135 -73 -160 -25 -14 -63 -18
-169 -21 l-138 -4 0 176 0 176 133 0 c106 0 139 -4 167 -18z"/>
<path d="M8420 1950 l0 -410 245 0 245 0 0 40 0 40 -205 0 -205 0 0 150 0 150
170 0 170 0 0 35 0 35 -170 0 -170 0 0 145 0 145 205 0 205 0 0 40 0 40 -245
0 -245 0 0 -410z"/>
<path d="M9260 2320 l0 -40 130 0 130 0 0 -370 0 -370 40 0 40 0 0 370 0 370
125 0 125 0 0 40 0 40 -295 0 -295 0 0 -40z"/>
<path d="M9970 1950 l0 -410 40 0 40 0 0 185 0 185 215 0 215 0 0 -185 0 -185
40 0 40 0 0 410 0 410 -40 0 -40 0 0 -185 0 -185 -215 0 -215 0 0 185 0 185
-40 0 -40 0 0 -410z"/>
<path d="M10915 2348 c-13 -38 -225 -789 -225 -798 0 -5 18 -10 39 -10 44 0
34 -19 87 168 l15 52 174 0 174 0 21 -72 c12 -40 26 -90 32 -110 10 -35 14
-38 50 -38 24 0 38 5 38 13 -1 6 -51 190 -113 407 l-112 395 -88 3 c-64 2 -89
-1 -92 -10z m180 -290 l62 -218 -152 0 -152 0 59 208 c32 114 61 213 63 220 3
8 16 12 31 10 26 -3 29 -11 89 -220z"/>
<path d="M11450 1950 l0 -410 45 0 45 0 0 372 c0 204 3 368 8 364 4 -4 81
-170 172 -369 l166 -362 72 -3 72 -3 0 411 0 410 -40 0 -40 0 0 -370 c0 -203
-3 -370 -7 -370 -5 0 -82 166 -173 368 l-166 367 -77 3 -77 3 0 -411z"/>
<path d="M6825 1288 c-58 -16 -136 -98 -159 -168 -28 -82 -34 -323 -12 -424
22 -99 64 -162 131 -196 45 -23 61 -25 170 -25 106 0 126 3 168 24 97 47 135
136 144 331 11 250 -34 381 -152 443 -32 17 -61 22 -145 23 -58 2 -123 -2
-145 -8z m243 -82 c43 -22 79 -70 97 -128 21 -73 29 -220 16 -313 -23 -164
-80 -220 -226 -220 -67 0 -87 4 -125 25 -76 43 -110 137 -110 310 0 253 77
358 252 346 36 -3 80 -12 96 -20z"/>
<path d="M11165 1285 c-86 -33 -135 -112 -154 -248 -29 -208 2 -420 72 -495
50 -54 93 -67 222 -67 66 0 142 4 169 8 47 8 48 9 42 40 -3 17 -8 32 -10 35
-2 2 -48 -2 -101 -8 -169 -20 -239 3 -285 95 -24 48 -25 58 -25 235 0 207 11
258 66 304 50 42 99 50 228 38 63 -6 116 -10 118 -8 1 1 6 16 9 33 8 40 -4 43
-176 49 -105 3 -144 1 -175 -11z"/>
<path d="M5993 1278 c2 -7 59 -112 126 -232 l121 -219 0 -174 0 -173 45 0 45
0 0 174 0 173 125 226 c69 125 125 229 125 232 0 3 -21 5 -46 3 l-47 -3 -101
-186 -101 -187 -31 57 c-17 31 -64 116 -103 189 l-72 132 -46 0 c-32 0 -44 -4
-40 -12z"/>
<path d="M7430 978 c0 -331 4 -370 47 -426 41 -54 94 -75 204 -80 118 -5 190
13 237 59 64 63 66 70 70 432 l4 327 -46 0 -46 0 0 -319 c0 -313 0 -319 -23
-351 -36 -55 -80 -74 -167 -75 -99 0 -146 23 -177 85 -22 43 -23 53 -23 352
l0 308 -40 0 -40 0 0 -312z"/>
<path d="M8410 885 l0 -405 245 0 245 0 0 35 0 35 -205 0 -205 0 0 155 0 155
170 0 170 0 0 35 0 35 -170 0 -170 0 0 145 0 145 205 0 205 0 0 35 0 35 -245
0 -245 0 0 -405z"/>
<path d="M9009 1273 c5 -10 61 -102 125 -206 l115 -187 -125 -198 -125 -197
37 -3 c20 -2 41 -1 48 1 6 3 56 77 111 166 55 88 103 160 107 158 4 -1 52 -74
106 -162 l98 -160 47 -3 c26 -2 47 -1 47 3 0 3 -52 88 -115 188 -63 101 -117
190 -120 199 -4 9 41 93 114 212 67 109 121 199 121 202 0 2 -20 4 -44 4 l-44
0 -103 -169 c-57 -93 -106 -168 -109 -166 -4 2 -51 78 -106 169 l-99 166 -48
0 c-42 0 -47 -2 -38 -17z"/>
<path d="M9730 885 l0 -405 40 0 40 0 0 139 0 139 158 4 c150 3 159 4 204 30
36 22 53 41 75 85 25 52 28 68 28 158 0 112 -18 160 -75 208 -47 40 -90 47
-287 47 l-183 0 0 -405z m397 309 c44 -32 64 -83 64 -162 0 -79 -12 -116 -49
-155 -36 -38 -78 -47 -214 -47 l-118 0 0 196 0 196 144 -4 c127 -3 148 -6 173
-24z"/>
<path d="M10420 885 l0 -405 240 0 240 0 0 35 0 35 -200 0 -200 0 0 155 0 155
170 0 170 0 0 35 0 35 -170 0 -170 0 0 145 0 145 200 0 200 0 0 35 0 35 -240
0 -240 0 0 -405z"/>
<path d="M11620 1255 l0 -35 125 0 125 0 0 -370 0 -370 40 0 40 0 0 370 0 370
125 0 125 0 0 35 0 35 -290 0 -290 0 0 -35z"/>
</g>
</svg>
