<?xml version="1.0" encoding="utf-8"?>
<!-- Generator: Adobe Illustrator 23.0.1, SVG Export Plug-In . SVG Version: 6.00 Build 0)  -->
<svg version="1.1" id="Layer_1" xmlns="http://www.w3.org/2000/svg" xmlns:xlink="http://www.w3.org/1999/xlink" x="0px" y="0px"
	 viewBox="0 0 783.2 206.8" style="enable-background:new 0 0 783.2 206.8;" xml:space="preserve">
<style type="text/css">
	.st0{fill:#63D471;}
</style>
<title>tdsr-full-logo-green</title>
<path class="st0" d="M87.9,0c1.1-0.1,2.1,0.8,2.2,1.9c0,0.1,0,0.2,0,0.3l-2.4,24.2c-0.2,1.3-1.3,2.2-2.6,2.2H61.5v79
	c0,1.2-1,2.2-2.2,2.2H31.1c-1.3,0-2.3-0.9-2.4-2.2v-79H2.2c-1.2,0-2.2-1-2.2-2.2V2.4C0,1.1,1,0.1,2.2,0L87.9,0z"/>
<path class="st0" d="M144.4,109.9c-32.5,0-54.2-22-54.2-54.8C90.2,22,111.9,0,144.4,0s54.2,22,54.2,55.1
	C198.6,88,176.9,109.9,144.4,109.9z M144.4,30.8c-12.5,0-20.9,9.8-20.9,24.3s8.4,24.3,20.9,24.3s20.9-9.8,20.9-24.3
	S156.9,30.8,144.4,30.8z"/>
<path class="st0" d="M244.1,0c27.9,0,44.6,15.1,44.6,37.9S272,75.8,244.1,75.8h-6.5v31.9c-0.1,1.3-1.2,2.3-2.6,2.2h-28.6
	c-1.2-0.1-2.2-1-2.2-2.2V2.4c0-1.3,1-2.3,2.2-2.4L244.1,0z M245.6,47.3c4.9,0.3,9.1-3.5,9.4-8.5c0-0.3,0-0.6,0-0.9
	c0.3-4.9-3.5-9.1-8.5-9.4c-0.3,0-0.6,0-0.9,0h-8.3v18.8H245.6z"/>
<path class="st0" d="M356.3,0c33.8,0,56.2,21.8,56.2,55c0,32.8-22.5,55-56.2,55h-37c-1.3-0.1-2.2-1.1-2.2-2.4V2.4
	c0-1.3,1-2.3,2.2-2.4L356.3,0z M358.2,81.2c12.3,0,20.5-10.5,20.5-26.3s-8.3-26.3-20.5-26.3h-8.3v52.6H358.2z"/>
<path class="st0" d="M501.8,0c1.5,0,2.6,1.2,2.7,2.6c0,0,0,0,0,0v65.1c0,27.6-14.8,42.2-43.1,42.2c-28,0-42.8-14.5-43.1-42.2V2.7
	c0-1.4,1.2-2.6,2.6-2.7h26.9c1.5,0,2.6,1.2,2.6,2.6c0,0,0,0,0,0v67.9c0,7.2,4.1,11.4,10.9,11.4s10.9-4.2,10.9-11.2V2.7
	c0-1.4,1.2-2.6,2.6-2.7L501.8,0L501.8,0z"/>
<path class="st0" d="M598,0c1.1-0.1,2.1,0.8,2.2,1.9c0,0.1,0,0.2,0,0.3l-2.4,24.2c-0.2,1.3-1.3,2.2-2.5,2.2h-23.7v79
	c0,1.2-1,2.2-2.2,2.2h-28.2c-1.3,0-2.3-1-2.4-2.2v-79h-26.5c-1.2,0-2.2-1-2.2-2.2V2.4c0-1.3,1-2.3,2.2-2.4L598,0z"/>
<path class="st0" d="M686.3,98.3c0.5,1.1-0.2,2.1-1.4,2.8c-9.7,5.8-20.8,8.8-32.1,8.9c-31.5,0-52.5-22-52.5-55s21.1-55,52.5-55
	c11.3,0,22.4,3.1,32.1,8.9c1.2,0.6,1.8,1.7,1.4,2.8l-10.1,21.3c-0.6,1.4-1.7,1.8-2.9,1.2c-5.7-3.2-11.2-4.3-17.7-4.3
	c-13.7,0-22.9,10.1-22.9,25.2s9.2,25.2,22.9,25.2c6.6,0,12.1-1.1,17.7-4.3c1.2-0.6,2.3-0.2,2.9,1.2L686.3,98.3z"/>
<path class="st0" d="M780.8,0c1.3,0,2.4,1,2.4,2.3c0,0,0,0.1,0,0.1v105.3c0,1.3-1.1,2.3-2.4,2.2H751c-1.2,0-2.2-1-2.2-2.2V72h-22.3
	v35.7c0,1.3-1.1,2.3-2.4,2.2h-29.8c-1.2-0.1-2.2-1-2.2-2.2V2.4c0-1.3,1-2.3,2.2-2.4h29.8c1.3,0,2.4,1,2.4,2.3c0,0,0,0.1,0,0.1V44
	h22.3V2.4c0-1.3,1-2.3,2.2-2.4c0,0,0,0,0,0L780.8,0z"/>
<path d="M0,199l5.3-11.7c6.5,4.5,14.2,6.9,22.1,7c9.2,0,12.9-3.1,12.9-7.2c0-12.5-39-3.9-39-28.8c0-11.4,9.2-20.9,28.2-20.9
	c8.4,0,17,2,23.3,5.9L48,155.2c-5.6-3.3-12-5.1-18.6-5.3c-9.2,0-12.7,3.4-12.7,7.7c0,12.3,39,3.8,39,28.4c0,11.2-9.3,20.8-28.4,20.8
	C16.6,206.7,5.9,203.6,0,199z"/>
<path d="M151.6,137.4h16v56.1h34.7v13h-50.7V137.4z"/>
<path d="M258.2,191.9h-32.2l-6.1,14.9h-16.4l30.9-69.3h15.8l31,69.3h-16.8L258.2,191.9z M253.2,179.7l-11-26.5l-11,26.5H253.2z"/>
<path d="M332,206.7l-13.4-19.3h-14.7v19.3h-16v-69.3h30c18.5,0,30.1,9.6,30.1,25.1c0,10.4-5.2,18-14.3,21.9l15.5,22.3L332,206.7
	L332,206.7z M317,150.5h-13.1v24.1H317c9.8,0,14.8-4.6,14.8-12.1S326.8,150.5,317,150.5L317,150.5z"/>
<path d="M433.7,206.7l-13.4-19.3h-14.7v19.3h-16v-69.2h30c18.5,0,30.1,9.6,30.1,25.1c0,10.4-5.2,18-14.2,21.9l15.5,22.3H433.7z
	 M418.7,150.5h-13.1v24.1h13c9.8,0,14.7-4.6,14.7-12.1S428.5,150.5,418.7,150.5L418.7,150.5z"/>
<path d="M508.1,191.8H476l-6.1,14.8h-16.4l30.9-69.2h15.8l31,69.2h-16.8L508.1,191.8z M503.1,179.7l-11-26.5l-11,26.5H503.1z"/>
<path d="M532.6,172.1c0-20.2,15.5-34.6,36.4-34.6c11.6,0,21.3,4.2,27.6,11.9l-9.9,9.2c-4.1-5-10.3-7.9-16.8-7.9
	c-12.5,0-21.4,8.8-21.4,21.4s8.9,21.4,21.4,21.4c6.5,0.1,12.7-2.9,16.8-7.9l10,9.2c-6.3,7.8-16,12-27.7,12
	C548.1,206.7,532.6,192.3,532.6,172.1z"/>
<path d="M609.3,137.4h16v69.3h-16V137.4z"/>
<path d="M706.5,137.4v69.3h-13.2l-34.5-42v42h-15.8v-69.3h13.3l34.4,42.1v-42.1H706.5z"/>
<path d="M767.8,171H782v27.2c-7.4,5.6-17.5,8.5-27.1,8.5c-21,0-36.5-14.4-36.5-34.6s15.5-34.6,36.8-34.6c11.8,0,21.5,4,28,11.6
	l-10,9.2c-4.4-4.9-10.7-7.7-17.3-7.6c-13,0-21.9,8.7-21.9,21.4c0,12.5,8.9,21.4,21.7,21.4c4.2,0.1,8.3-0.9,12.1-2.9L767.8,171
	L767.8,171z"/>
<path class="st0" d="M79.2,172.1c-0.1-8.6,5.3-16.3,13.4-19.2l-5.2-13.1c-13.9,4.6-23.1,17.7-22.9,32.3c0,11.3,4.9,21.4,13.6,27.6
	l9-11.3C82.1,184.5,79.1,178.5,79.2,172.1z"/>
<path class="st0" d="M94.8,158.4c-7.6,2.9-11.3,11.4-8.4,19c0.9,2.4,2.5,4.5,4.5,6.2l9.3-11.7L94.8,158.4z"/>
<path class="st0" d="M101,192.7c-3.5,0-6.9-0.7-10.1-2.1l-9,11.4c5.9,3.1,12.5,4.6,19.1,4.5c19.4,0,32.6-11.6,35.8-27.1l-14.6-2.1
	C120,186.2,112.3,192.7,101,192.7z"/>
<path class="st0" d="M94.8,185.8c2,0.7,4.1,1.1,6.2,1.1c7.8,0,13.2-4.4,15-10.4l-12.4-1.8L94.8,185.8z"/>
<path class="st0" d="M101,151.5c13.3,0,21.8,9.2,21.8,20.6c0,0.3,0,0.6,0,0.9l14.6,2.1c0.1-1,0.1-2,0.1-3.1
	c0-19.1-14.3-34.5-36.5-34.5c-3.1,0-6.3,0.3-9.3,1l5.3,13.2C98.3,151.6,99.7,151.5,101,151.5z"/>
<path class="st0" d="M116.6,172.1L116.6,172.1c0-8.1-6.1-14.7-15.6-14.7c-0.6,0-1.3,0-1.9,0.1l5.1,12.8L116.6,172.1z"/>
</svg>
