<?xml version="1.0" encoding="utf-8"?>
<!-- Generator: Adobe Illustrator 25.0.0, SVG Export Plug-In . SVG Version: 6.00 Build 0)  -->
<svg version="1.1" id="Layer_1" xmlns="http://www.w3.org/2000/svg" xmlns:xlink="http://www.w3.org/1999/xlink" x="0px" y="0px"
	 viewBox="0 0 827 225" style="enable-background:new 0 0 827 225;" xml:space="preserve">
<style type="text/css">
	.st0{fill:white;}
</style>
<g>
	<g>
		<g>
			<path class="st0" d="M100.31,6.77c1.44,0,2.39,1.11,2.23,2.23l-2.39,24.22c-0.16,1.28-1.43,2.23-2.55,2.23H73.86v79.03
				c0,1.12-0.96,2.23-2.23,2.23h-28.2c-1.27,0-2.39-1.11-2.39-2.23V35.45H14.59c-1.11,0-2.23-0.96-2.23-2.23V9.16
				c0-1.28,1.11-2.39,2.23-2.39H100.31z"/>
			<path class="st0" d="M156.76,116.71c-32.52,0-54.21-21.99-54.21-54.82c0-33.13,21.68-55.12,54.21-55.12s54.21,21.99,54.21,55.12
				C210.97,94.72,189.29,116.71,156.76,116.71z M156.76,37.61c-12.52,0-20.92,9.77-20.92,24.28s8.4,24.28,20.92,24.28
				c12.52,0,20.92-9.77,20.92-24.28S169.28,37.61,156.76,37.61z"/>
			<path class="st0" d="M256.48,6.77c27.88,0,44.61,15.14,44.61,37.92s-16.73,37.92-44.61,37.92h-6.53v31.87
				c0,1.12-1.12,2.23-2.55,2.23h-28.52c-1.12,0-2.23-1.11-2.23-2.23V9.16c0-1.28,1.11-2.39,2.23-2.39H256.48z M257.91,54.09
				c5.58,0,9.4-3.82,9.4-9.4s-3.82-9.4-9.4-9.4h-8.28v18.8H257.91z"/>
		</g>
		<g>
			<path class="st0" d="M368.65,6.77c33.78,0,56.24,21.83,56.24,54.97c0,32.82-22.47,54.97-56.24,54.97h-36.96
				c-1.12,0-2.23-1.11-2.23-2.39V9.16c0-1.28,1.11-2.39,2.23-2.39H368.65z M370.56,88.03c12.27,0,20.55-10.52,20.55-26.29
				c0-15.77-8.28-26.29-20.55-26.29h-8.28v52.58H370.56z"/>
			<path class="st0" d="M514.12,6.77c1.56,0,2.65,1.25,2.65,2.65v65.12c0,27.64-14.84,42.16-43.1,42.16
				c-27.95,0-42.79-14.52-43.1-42.16V9.43c0-1.41,1.25-2.65,2.65-2.65h26.86c1.56,0,2.65,1.25,2.65,2.65v67.93
				c0,7.18,4.06,11.4,10.93,11.4c6.87,0,10.93-4.22,10.93-11.24V9.43c0-1.41,1.25-2.65,2.65-2.65H514.12z"/>
			<path class="st0" d="M610.39,6.77c1.44,0,2.39,1.11,2.23,2.23l-2.39,24.22c-0.16,1.28-1.43,2.23-2.55,2.23h-23.74v79.03
				c0,1.12-0.96,2.23-2.23,2.23h-28.2c-1.27,0-2.39-1.11-2.39-2.23V35.45h-26.45c-1.11,0-2.23-0.96-2.23-2.23V9.16
				c0-1.28,1.11-2.39,2.23-2.39H610.39z"/>
			<path class="st0" d="M698.61,105.1c0.46,1.07-0.15,2.14-1.37,2.75c-8.86,5.5-20.77,8.86-32.07,8.86
				c-31.45,0-52.52-21.99-52.52-54.97c0-32.98,21.07-54.97,52.52-54.97c11.3,0,23.21,3.36,32.07,8.86c1.22,0.61,1.83,1.68,1.37,2.75
				L688.53,39.6c-0.61,1.37-1.68,1.83-2.9,1.22c-5.65-3.21-11.15-4.28-17.71-4.28c-13.74,0-22.9,10.08-22.9,25.19
				c0,15.12,9.16,25.2,22.9,25.2c6.56,0,12.06-1.07,17.71-4.28c1.22-0.61,2.29-0.15,2.9,1.22L698.61,105.1z"/>
			<path class="st0" d="M793.18,6.77c1.43,0,2.39,1.11,2.39,2.39v105.32c0,1.12-0.96,2.23-2.39,2.23h-29.8
				c-1.28,0-2.23-1.11-2.23-2.23V78.79h-22.31v35.69c0,1.12-0.96,2.23-2.39,2.23h-29.79c-1.12,0-2.23-1.11-2.23-2.23V9.16
				c0-1.28,1.11-2.39,2.23-2.39h29.79c1.44,0,2.39,1.11,2.39,2.39v41.59h22.31V9.16c0-1.28,0.96-2.39,2.23-2.39H793.18z"/>
		</g>
	</g>
	<g>
		<path class="st0" d="M12.36,205.75l5.26-11.68c5.65,4.12,14.07,6.99,22.11,6.99c9.19,0,12.92-3.06,12.92-7.18
			c0-12.54-38.95-3.92-38.95-28.8c0-11.39,9.19-20.86,28.23-20.86c8.42,0,17.03,2.01,23.25,5.93l-4.79,11.77
			c-6.22-3.54-12.63-5.26-18.56-5.26c-9.19,0-12.73,3.44-12.73,7.66c0,12.34,38.95,3.83,38.95,28.42c0,11.2-9.28,20.77-28.42,20.77
			C29.01,213.5,18.29,210.34,12.36,205.75z"/>
		<path class="st0" d="M164,144.22h16.01v56.13h34.69v13.04H164V144.22z"/>
		<path class="st0" d="M270.6,198.66h-32.17l-6.14,14.85h-16.43l30.88-69.29h15.84l30.98,69.29h-16.82L270.6,198.66z M265.55,186.48
			l-10.99-26.53l-10.99,26.53H265.55z"/>
		<path class="st0" d="M344.39,213.51l-13.36-19.3h-0.79h-13.96v19.3h-16.03v-69.29h29.99c18.51,0,30.09,9.6,30.09,25.14
			c0,10.39-5.24,18.01-14.25,21.87l15.54,22.27H344.39z M329.35,157.28h-13.07v24.15h13.07c9.8,0,14.75-4.55,14.75-12.08
			C344.1,161.74,339.15,157.28,329.35,157.28z"/>
		<g>
			<path class="st0" d="M446.06,213.45l-13.35-19.28h-0.79h-13.94v19.28h-16.02v-69.23h29.97c18.5,0,30.06,9.59,30.06,25.12
				c0,10.38-5.24,18-14.24,21.86l15.53,22.25H446.06z M431.03,157.27h-13.06v24.13h13.06c9.79,0,14.74-4.55,14.74-12.07
				C445.76,161.72,440.82,157.27,431.03,157.27z"/>
			<path class="st0" d="M520.45,198.61h-32.14l-6.13,14.83h-16.42l30.85-69.23h15.82l30.96,69.23h-16.81L520.45,198.61z
				 M515.41,186.45l-10.98-26.51l-10.98,26.51H515.41z"/>
			<path class="st0" d="M544.99,178.86c0-20.19,15.5-34.64,36.36-34.64c11.58,0,21.25,4.21,27.56,11.87l-9.95,9.19
				c-4.5-5.17-10.14-7.85-16.84-7.85c-12.54,0-21.44,8.8-21.44,21.44c0,12.63,8.9,21.44,21.44,21.44c6.7,0,12.34-2.68,16.84-7.94
				l9.95,9.19c-6.31,7.75-15.98,11.96-27.66,11.96C560.49,213.5,544.99,199.05,544.99,178.86z"/>
			<path class="st0" d="M621.62,144.22h16.03v69.26h-16.03V144.22z"/>
			<path class="st0" d="M718.82,144.22v69.26h-13.16l-34.53-42.05v42.05H655.3v-69.26h13.26l34.43,42.05v-42.05H718.82z"/>
			<path class="st0" d="M780.17,177.81h14.16v27.18c-7.37,5.55-17.51,8.52-27.08,8.52c-21.05,0-36.55-14.45-36.55-34.64
				s15.5-34.64,36.84-34.64c11.77,0,21.53,4.02,28.04,11.58l-9.95,9.19c-4.88-5.17-10.52-7.56-17.32-7.56
				c-13.02,0-21.91,8.71-21.91,21.44c0,12.54,8.9,21.44,21.72,21.44c4.21,0,8.13-0.77,12.06-2.87V177.81z"/>
		</g>
		<g>
			<g>
				<path class="st0" d="M91.59,178.86c0-8.73,5.12-16.17,13.41-19.18l-5.21-13.12c-14.16,4.92-22.91,17.52-22.91,32.3
					c0,11.31,4.92,21.35,13.64,27.64l8.97-11.34C94.45,191.4,91.59,185.5,91.59,178.86z"/>
				<path class="st0" d="M107.2,165.22c-5.81,2.2-9.39,7.47-9.39,13.64c0,4.67,1.99,8.81,5.48,11.51l9.25-11.69L107.2,165.22z"/>
			</g>
			<g>
				<path class="st0" d="M113.4,199.48c-3.8,0-7.17-0.76-10.08-2.07l-9.05,11.43c5.34,2.88,11.78,4.53,19.13,4.53
					c19.43,0,32.59-11.6,35.76-27.09l-14.61-2.15C132.36,192.96,124.64,199.48,113.4,199.48z"/>
				<path class="st0" d="M107.17,192.54c1.85,0.68,3.93,1.06,6.22,1.06c7.79,0,13.2-4.37,14.96-10.37l-12.37-1.82L107.17,192.54z"/>
			</g>
			<g>
				<path class="st0" d="M113.4,158.24c13.26,0,21.81,9.23,21.81,20.62c0,0.31-0.03,0.61-0.04,0.92l14.62,2.15
					c0.08-1.01,0.13-2.04,0.13-3.07c0-19.06-14.32-34.52-36.51-34.52c-3.29,0-6.42,0.35-9.35,1.01l5.25,13.23
					C110.61,158.37,111.97,158.24,113.4,158.24z"/>
				<path class="st0" d="M128.99,178.87c0-0.01,0-0.01,0-0.02c0-8.14-6.11-14.74-15.59-14.74c-0.64,0-1.26,0.04-1.87,0.1l5.09,12.84
					L128.99,178.87z"/>
			</g>
		</g>
	</g>
</g>
</svg>
