<?xml version="1.0" encoding="UTF-8"?>
<svg version="1.1" xmlns="http://www.w3.org/2000/svg" width="3840" height="1235">
<path d="M0 0 C1.13143433 -0.0071553 2.26286865 -0.01431061 3.42858887 -0.02168274 C4.67589279 -0.02437164 5.92319672 -0.02706055 7.20829773 -0.02983093 C9.17178665 -0.03968773 9.17178665 -0.03968773 11.17494202 -0.04974365 C14.77214589 -0.06715847 18.36933646 -0.0777067 21.96657205 -0.08594918 C24.21359949 -0.09109832 26.4606228 -0.09717409 28.70764732 -0.10346031 C35.73691446 -0.12251374 42.76617109 -0.13674455 49.79545909 -0.14507228 C57.91175477 -0.15484633 66.02777785 -0.18116933 74.14397746 -0.22157317 C80.4158086 -0.25172484 86.68756156 -0.26654024 92.95946378 -0.26985329 C96.70611387 -0.27220488 100.45247278 -0.28117889 104.19904518 -0.30631447 C108.37938751 -0.33390683 112.55912017 -0.32976701 116.73954773 -0.32279968 C117.98077896 -0.33560974 119.22201019 -0.3484198 120.50085449 -0.36161804 C122.21069519 -0.35120232 122.21069519 -0.35120232 123.95507812 -0.34057617 C125.43757286 -0.3441587 125.43757286 -0.3441587 126.95001698 -0.34781361 C130.43701957 0.28721739 132.12447404 1.73156136 134.66801453 4.14717102 C136.13648336 7.08410869 135.80169294 10.04038226 135.78826904 13.25914001 C135.78955068 14.37038776 135.78955068 14.37038776 135.79085821 15.50408494 C135.79251206 17.99923289 135.78699318 20.49431437 135.78153992 22.98945618 C135.781258 24.77297972 135.78141587 26.55650338 135.78198242 28.34002686 C135.78227022 33.19306953 135.77637639 38.04608767 135.76940846 42.89912462 C135.76317194 47.9666993 135.76257089 53.03427449 135.76138306 58.10185242 C135.75827063 67.70305999 135.75005842 77.30425623 135.74003357 86.90545881 C135.72678366 99.87601605 135.72137181 112.84657637 135.71553135 125.81713867 C135.70611848 146.26049129 135.68619897 166.70381997 135.66801453 187.14717102 C166.68801453 187.14717102 197.70801453 187.14717102 229.66801453 187.14717102 C229.63320984 174.28361633 229.59840515 161.42006165 229.56254578 148.16670227 C229.54722262 140.03193485 229.53265716 131.89717785 229.52153015 123.7624054 C229.50371557 110.84204037 229.48275061 97.92173394 229.44169617 85.00141907 C229.41181329 75.59244976 229.39244414 66.18352791 229.38574904 56.77451247 C229.38183491 51.79157906 229.3726229 46.80878143 229.35082436 41.82589149 C229.3304768 37.13673297 229.32417724 32.44776629 229.32869148 27.75856781 C229.32786551 26.03683365 229.32188955 24.31509315 229.3103981 22.59339714 C229.29548089 20.24335388 229.29905781 17.89403573 229.30725098 15.54397583 C229.3044856 14.22857724 229.30172022 12.91317865 229.29887104 11.5579195 C229.79548067 6.96943131 231.23537216 4.53865953 234.50960636 1.35848045 C237.23860931 -0.17304962 239.07885614 -0.23016723 242.20254517 -0.23377991 C243.32831467 -0.24223938 244.45408417 -0.25069885 245.6139679 -0.25941467 C247.46011185 -0.25030563 247.46011185 -0.25030563 249.34355164 -0.24101257 C250.64308273 -0.24626953 251.94261383 -0.25152649 253.28152466 -0.25694275 C256.84357878 -0.27061692 260.40537216 -0.26531707 263.96743083 -0.25580549 C267.69669848 -0.24820776 271.42594387 -0.25525497 275.1552124 -0.25996399 C281.41887924 -0.2654219 287.68243997 -0.25822976 293.9460907 -0.24394226 C301.18409168 -0.22762273 308.42183904 -0.23289892 315.65983385 -0.24942148 C321.87652375 -0.26304389 328.09313739 -0.26495212 334.3098374 -0.25710547 C338.02172441 -0.25243216 341.7334923 -0.25179447 345.44537163 -0.26171494 C349.58476097 -0.27200509 353.72371458 -0.2577349 357.86308289 -0.24101257 C359.09182129 -0.24708527 360.32055969 -0.25315796 361.58653259 -0.25941467 C362.71512192 -0.2509552 363.84371124 -0.24249573 365.00650024 -0.23377991 C366.474037 -0.23208329 366.474037 -0.23208329 367.97122097 -0.2303524 C371.22511 0.22515867 373.05873845 1.16399196 375.66801453 3.14717102 C378.15685863 6.75846446 377.94835005 10.50782002 377.92249012 14.7312994 C377.9256966 15.50262682 377.92890308 16.27395424 377.93220672 17.06865522 C377.94054708 19.6685458 377.93456839 22.26820843 377.92871094 24.86810303 C377.93172978 26.7447775 377.93561791 28.62145075 377.9403035 30.4981218 C377.95062667 35.66716848 377.94839074 40.83614614 377.94412291 46.0051986 C377.9416635 51.57515414 377.95066003 57.14509272 377.9581604 62.71504211 C377.9709312 73.63163425 377.97269814 84.54820182 377.97036014 95.46480017 C377.96857953 104.33480307 377.97032108 113.20479849 377.97458458 122.07480049 C377.97517977 123.33560428 377.97577496 124.59640807 377.97638818 125.89541804 C377.97759989 128.45645825 377.97881402 131.01749846 377.98003056 133.57853866 C377.98782164 150.78253845 377.99173418 167.98653464 377.98771381 185.19053555 C377.98755744 185.86354681 377.98740106 186.53655807 377.98723995 187.22996361 C377.98643414 190.64119042 377.98558837 194.05241722 377.98472665 197.46364402 C377.98447001 198.47989732 377.98447001 198.47989732 377.9842082 199.516681 C377.98386154 200.88675538 377.98351301 202.25682977 377.98316261 203.62690415 C377.9778045 224.94886167 377.98573747 246.27077785 378.00419617 267.59272766 C378.0249018 291.5382959 378.03561056 315.48383502 378.03162068 339.42941529 C378.02970513 352.11183729 378.03223054 364.79422163 378.04633522 377.47663689 C378.05822022 388.27276859 378.05968636 399.06883943 378.04754505 409.86497193 C378.04163616 415.37640894 378.04061222 420.88773447 378.05254745 426.3991642 C378.06333811 431.44050681 378.06038475 436.48164393 378.04628577 441.52297664 C378.04361994 443.35065927 378.04606395 445.17835765 378.05402163 447.00602489 C378.06406258 449.48333475 378.05576198 451.9599213 378.04274464 454.4372015 C378.05005398 455.15290022 378.05736333 455.86859894 378.06489417 456.60598549 C378.01727186 460.95453272 377.30355385 463.67151035 374.66801453 467.14717102 C371.56699294 469.32791413 368.8714959 469.40355904 365.14021301 469.42132568 C363.4537265 469.43628838 363.4537265 469.43628838 361.73316956 469.45155334 C359.88938217 469.45255035 359.88938217 469.45255035 358.00834656 469.4535675 C356.71042175 469.46189102 355.41249695 469.47021454 354.07524109 469.47879028 C350.51732866 469.50072043 346.95950217 469.50953208 343.40152979 469.51461673 C341.17759211 469.51826188 338.95367689 469.52450274 336.72974777 469.53161812 C328.9681118 469.55610688 321.20654262 469.56916339 313.44487 469.57270813 C306.21474331 469.57634361 298.98504106 469.60624094 291.7550441 469.64811271 C285.54344135 469.68282293 279.33197922 469.69825669 273.12028015 469.69895416 C269.41213829 469.69974671 265.70442896 469.70847399 261.99638748 469.73695183 C257.8594448 469.76801385 253.72351185 469.75906954 249.58647156 469.74653625 C248.36132843 469.76137054 247.1361853 469.77620483 245.87391663 469.79148865 C236.62039897 469.71153209 236.62039897 469.71153209 232.92311096 466.79721069 C229.56150596 462.84687559 229.54364547 460.00178601 229.54776001 454.97793579 C229.54569801 453.04070145 229.54569801 453.04070145 229.54359436 451.06433105 C229.54713352 449.63011146 229.55076833 448.19589211 229.55448914 446.76167297 C229.55477116 445.25386049 229.55461298 443.74604787 229.55404663 442.23823547 C229.55375925 438.14142435 229.55964647 434.0446424 229.56662059 429.94783807 C229.57286392 425.66770083 229.5734587 421.38756296 229.574646 417.10742188 C229.57775641 409.00080041 229.58596592 400.89419239 229.59599549 392.78757685 C229.60925345 381.83420992 229.61465887 370.88083932 229.6204977 359.92746639 C229.62990599 342.66735785 229.64982685 325.40727771 229.66801453 308.14717102 C198.64801453 308.14717102 167.62801453 308.14717102 135.66801453 308.14717102 C135.71442078 319.27822571 135.76082703 330.4092804 135.80863953 341.87763977 C135.82907148 348.91865909 135.84849219 355.95965699 135.86332703 363.00068665 C135.88707572 374.18280868 135.91501736 385.36481029 135.96977234 396.54682922 C136.00962847 404.69009389 136.03544457 412.833261 136.04436851 420.9766205 C136.04958535 425.28892073 136.06185459 429.60094187 136.09093475 433.91315269 C136.11808461 437.97200872 136.12646047 442.03047067 136.12044525 446.08940887 C136.12154569 447.57894596 136.12950243 449.06849622 136.14483643 450.55795479 C136.16475343 452.59237252 136.15756534 454.62700169 136.14903259 456.66149902 C136.15271976 457.79991336 136.15640694 458.93832769 136.16020584 460.11123943 C135.55531087 463.84234907 134.31922703 465.49631596 131.66801453 468.14717102 C128.60007639 469.16981707 126.50506384 469.27777412 123.29170227 469.28761292 C121.61773125 469.29617813 121.61773125 469.29617813 119.90994263 469.30491638 C118.68493546 469.30603424 117.45992828 469.3071521 116.19779968 469.30830383 C114.90816818 469.31326874 113.61853668 469.31823364 112.28982544 469.323349 C108.75052456 469.33646502 105.21124264 469.34291628 101.67192125 469.34735966 C99.46056774 469.35029139 97.24921941 469.35439637 95.0378685 469.35886383 C88.11859239 469.37253605 81.19932811 469.38220431 74.28003943 469.38606572 C66.29341346 469.39054734 58.30695857 469.40810106 50.32038462 469.43706632 C44.14619586 469.45868118 37.97205523 469.46876988 31.79782903 469.47010684 C28.11049471 469.47115492 24.42332125 469.47706338 20.73602676 469.49492645 C16.62291831 469.51446507 12.51016814 469.51011898 8.39701843 469.50361633 C7.17605972 469.51283112 5.95510101 469.5220459 4.69714355 469.53153992 C3.57552322 469.52597076 2.45390289 469.52040161 1.29829407 469.5146637 C-0.1601294 469.51686354 -0.1601294 469.51686354 -1.64801598 469.51910782 C-4.86964366 469.07266389 -6.71922179 468.06042323 -9.33198547 466.14717102 C-11.75286185 462.51585645 -11.61313974 459.8684512 -11.58925438 455.67326641 C-11.59276045 454.90170406 -11.59626653 454.1301417 -11.59987885 453.33519867 C-11.60924367 450.7284816 -11.60425652 448.12198546 -11.59941101 445.51525879 C-11.60314472 443.63603495 -11.60774511 441.75681266 -11.61314166 439.87759286 C-11.62542171 434.69681926 -11.62510532 429.51610998 -11.6227529 424.33532512 C-11.622346 418.75442365 -11.63337182 413.17354315 -11.64286804 407.59265137 C-11.65950655 396.65219435 -11.66497888 385.71175887 -11.6660928 374.77129027 C-11.66704195 365.88124882 -11.67114556 356.9912145 -11.67749405 348.10117531 C-11.69224534 327.01631679 -11.70454294 305.93146266 -11.70349693 284.84659863 C-11.70346578 284.17196371 -11.70343462 283.49732879 -11.70340252 282.80225038 C-11.7032363 279.38276417 -11.70303821 275.96327795 -11.7028331 272.54379173 C-11.70279321 271.86464545 -11.70275332 271.18549917 -11.70271222 270.48577269 C-11.70263135 269.11237248 -11.70254775 267.73897228 -11.70246144 266.36557207 C-11.70123587 244.9967647 -11.71624848 223.62802078 -11.74360657 202.25923157 C-11.7743165 178.26238644 -11.79151436 154.26558898 -11.78968012 130.26871854 C-11.78901523 117.55884852 -11.79455075 104.84905006 -11.81603622 92.1391964 C-11.83421095 81.31817077 -11.83862596 70.49724914 -11.82501738 59.6762149 C-11.8184689 54.15247609 -11.81843816 48.62893702 -11.83572388 43.10521698 C-11.85137679 38.05139492 -11.84867096 32.99793225 -11.83115561 27.94411937 C-11.82806848 26.11302266 -11.83178206 24.28189964 -11.84287576 22.45083394 C-11.8569349 19.96631717 -11.84646025 17.4830718 -11.82976341 14.99859905 C-11.83969977 14.28363716 -11.84963613 13.56867526 -11.85987359 12.83204785 C-11.78873351 7.84296044 -10.46164396 4.99112433 -7.33198547 1.14717102 C-4.75139855 -0.14312244 -2.89075746 0.01251379 0 0 Z " fill="#28B24B" transform="translate(3210.331985473633,176.8528289794922)"/>
<path d="M0 0 C0.72278483 -0.00467997 1.44556967 -0.00935994 2.19025707 -0.01418173 C4.61400355 -0.026153 7.03718675 -0.01666544 9.4609375 -0.00723267 C11.19932892 -0.01129829 12.93771775 -0.01664011 14.67610168 -0.02316284 C19.40699694 -0.03686775 24.13769634 -0.03151829 28.86859512 -0.02202559 C33.8429847 -0.01441648 38.81735779 -0.02148075 43.79174805 -0.02618408 C52.17157986 -0.03165017 60.55133255 -0.02444039 68.93115234 -0.01016235 C78.54875075 0.00603806 88.16615709 0.00097191 97.78375053 -0.01564157 C106.07890879 -0.02938618 114.3740101 -0.03110983 122.6691761 -0.02332556 C127.60524747 -0.0187029 132.54122967 -0.01786907 137.47729492 -0.02793503 C174.70789224 -0.0933194 210.23589747 2.49359276 245.8359375 14.38095093 C246.52026855 14.60863159 247.20459961 14.83631226 247.90966797 15.07089233 C276.90575029 24.90744769 303.19419091 40.77092019 325.30908203 61.92147827 C326.33909525 62.9060352 327.37406209 63.88543232 328.41357422 64.85995483 C342.26404214 77.87661532 353.35497895 92.94473048 362.8359375 109.38095093 C363.2494043 110.09412476 363.66287109 110.80729858 364.08886719 111.54208374 C396.70807094 168.58181359 401.88399845 242.87310772 385.0234375 305.69345093 C372.88244842 348.79262464 349.77999793 389.76539231 313.8359375 417.38095093 C313.0521875 418.03063843 312.2684375 418.68032593 311.4609375 419.34970093 C291.81989962 435.6310876 268.9338382 447.25383401 244.8359375 455.38095093 C243.61342285 455.79401489 243.61342285 455.79401489 242.36621094 456.21542358 C206.5265578 468.09276768 170.34207581 469.86520296 132.94779515 469.84979057 C129.03001292 469.84966901 125.11226625 469.85830346 121.19449419 469.86656809 C111.96321487 469.88560731 102.73202596 469.88875139 93.50073242 469.88192749 C84.0008064 469.87523566 74.50126357 469.89840014 65.00141531 469.93524122 C56.79356353 469.96590735 48.58583565 469.97730357 40.37792772 469.97340441 C35.49649807 469.97134114 30.61537021 469.97675769 25.73399544 470.001297 C21.16576462 470.02352249 16.59816741 470.02172186 12.02993393 470.00136948 C10.35697755 469.99795684 8.68397859 470.0030595 7.01107979 470.01735306 C4.72593038 470.0355333 2.44293658 470.02281135 0.15785217 470.00241089 C-1.11895888 470.0031234 -2.39576994 470.00383591 -3.71127224 470.00457001 C-8.29914067 469.17594097 -9.91564157 467.68396582 -13.1640625 464.38095093 C-14.34549383 460.83665693 -14.3045846 457.63853828 -14.29549026 453.95110512 C-14.2975429 453.18430829 -14.29959553 452.41751146 -14.30171037 451.62747836 C-14.30740156 449.03703675 -14.30592052 446.44664796 -14.30450439 443.85620117 C-14.30708681 441.98864028 -14.31009962 440.12107994 -14.3135078 438.25352037 C-14.32159544 433.10503579 -14.32336835 427.95656513 -14.32410526 422.80807495 C-14.32595273 417.26196415 -14.33349845 411.71586063 -14.34024048 406.16975403 C-14.3538363 394.0356864 -14.35985031 381.90162207 -14.36425114 369.76754808 C-14.36701114 362.19588558 -14.37124802 354.62422435 -14.37575531 347.05256271 C-14.38794903 326.10238292 -14.39828392 305.15220383 -14.4016304 284.20202065 C-14.40185204 282.84700577 -14.40207382 281.4919909 -14.40229575 280.13697603 C-14.40251639 278.77866305 -14.40273688 277.42035008 -14.4029572 276.06203711 C-14.40339976 273.33696151 -14.40384687 270.6118859 -14.40429688 267.8868103 C-14.40440627 267.21114902 -14.40451566 266.53548773 -14.40462836 265.83935186 C-14.40826031 243.92301499 -14.42418559 222.00671118 -14.44748724 200.09038697 C-14.47206945 176.92736078 -14.48579574 153.76435275 -14.48699832 130.60131109 C-14.48791641 117.97140849 -14.49370233 105.34154918 -14.51181793 92.71165848 C-14.52718566 81.959424 -14.53235907 71.20724617 -14.52407983 60.4550028 C-14.52016165 54.96584755 -14.52115967 49.47680651 -14.53513718 43.98766518 C-14.54780616 38.96664198 -14.54674061 33.94581963 -14.53454646 28.92479698 C-14.53257727 27.10448483 -14.53572378 25.28415878 -14.54439083 23.46386619 C-14.55539881 20.99649039 -14.54805594 18.52983404 -14.5359993 16.06247902 C-14.54359449 15.34970315 -14.55118968 14.63692727 -14.55901504 13.90255213 C-14.50231919 8.55706944 -13.11849896 5.39037177 -9.42431641 1.59226036 C-6.21287178 -0.12880875 -3.63486194 0.00317549 0 0 Z M126.8359375 123.38095093 C126.8359375 196.97095093 126.8359375 270.56095093 126.8359375 346.38095093 C179.46299914 347.32141158 179.46299914 347.32141158 219.8359375 321.38095093 C243.06516939 296.0572801 250.04848808 261.19067062 248.94091797 227.71591187 C247.5689928 197.20174368 238.80979861 167.39329516 216.8359375 145.38095093 C215.80919922 144.3368103 215.80919922 144.3368103 214.76171875 143.27157593 C190.26453876 119.90642828 159.49504475 123.38095093 126.8359375 123.38095093 Z " fill="#28B24B" transform="translate(1616.1640625,176.61904907226563)"/>
<path d="M0 0 C1.78188579 1.63386079 3.5513852 3.28127154 5.3125 4.9375 C5.87098633 5.4619873 6.42947266 5.98647461 7.00488281 6.52685547 C51.98199151 49.12083065 72.43513394 110.24560443 74.41748047 171.16357422 C75.91615826 233.50298531 60.14461063 297.39185721 16.9765625 344.14453125 C7.0240658 354.57860037 -2.77242763 364.71432768 -14.6875 372.9375 C-15.3170459 373.37368652 -15.9465918 373.80987305 -16.59521484 374.25927734 C-58.17314251 402.74879251 -106.59917798 415.19797959 -156.6875 415.125 C-157.45751343 415.12439575 -158.22752686 415.1237915 -159.02087402 415.12316895 C-171.34168452 415.0970074 -183.47426451 414.68499502 -195.6875 412.9375 C-196.58227051 412.81391113 -197.47704102 412.69032227 -198.39892578 412.56298828 C-238.04133039 406.9076219 -279.45630881 391.89119959 -309.6875 364.9375 C-310.97527344 363.79474609 -310.97527344 363.79474609 -312.2890625 362.62890625 C-313.98101275 361.11330731 -315.66621891 359.59013716 -317.34375 358.05859375 C-319.48674312 356.11918497 -321.67094638 354.24420701 -323.875 352.375 C-327.88462659 348.85960174 -331.29463696 345.04430527 -334.6875 340.9375 C-335.10483398 340.44846191 -335.52216797 339.95942383 -335.95214844 339.45556641 C-373.24176962 295.70539335 -388.96692005 238.28653238 -388.875 181.5625 C-388.87439575 180.86673859 -388.8737915 180.17097717 -388.87316895 179.45413208 C-388.78729877 142.74725038 -382.54613794 106.65098657 -367.6875 72.9375 C-367.222229 71.85082031 -367.222229 71.85082031 -366.74755859 70.7421875 C-358.0693205 50.5495658 -345.65218792 32.34263533 -330.7734375 16.2109375 C-328.8352745 14.0985576 -326.97726729 11.93751928 -325.125 9.75 C-321.61018128 5.74103443 -317.79750065 2.32564927 -313.6875 -1.0625 C-313.171875 -1.49578613 -312.65625 -1.92907227 -312.125 -2.37548828 C-302.81769759 -10.17828641 -293.22978724 -17.02772527 -282.6875 -23.0625 C-281.90665039 -23.50980469 -281.12580078 -23.95710938 -280.32128906 -24.41796875 C-252.09411219 -40.35644585 -220.91941861 -49.75367948 -188.6875 -53.0625 C-187.82777588 -53.1553125 -186.96805176 -53.248125 -186.08227539 -53.34375 C-119.8560943 -59.7462811 -50.72763647 -44.57379205 0 0 Z M-194.6875 85.9375 C-195.60789062 86.35644531 -196.52828125 86.77539062 -197.4765625 87.20703125 C-219.94854351 98.44302176 -233.23324722 119.24518516 -241.0625 142.4375 C-249.82283721 174.46497135 -248.45702182 212.17380752 -231.8125 241.5625 C-219.05019309 262.30124873 -201.60320214 275.55722317 -178.1015625 281.90625 C-155.22223188 287.17483786 -131.8890519 283.43871528 -111.50390625 271.77734375 C-87.36583163 256.00892052 -75.70061918 231.64688977 -69.87890625 204.11328125 C-64.76351749 172.60954223 -70.1632225 139.01896625 -88.25 112.4375 C-89.37728002 110.92350733 -90.52214665 109.42238572 -91.6875 107.9375 C-92.20570313 107.25558594 -92.72390625 106.57367188 -93.2578125 105.87109375 C-105.22780535 91.09653736 -123.44426194 82.73086561 -141.6875 78.9375 C-142.7703125 78.71126953 -142.7703125 78.71126953 -143.875 78.48046875 C-145.82728805 78.16490495 -147.71077349 78.0223684 -149.6875 77.9375 C-150.74839844 77.8859375 -151.80929687 77.834375 -152.90234375 77.78125 C-167.56775574 77.41192168 -181.29439022 79.80338542 -194.6875 85.9375 Z " fill="#28B24B" transform="translate(1024.6875,231.0625)"/>
<path d="M0 0 C1.02197983 -0.0071553 2.04395966 -0.01431061 3.09690857 -0.02168274 C4.21748657 -0.02437164 5.33806458 -0.02706055 6.49259949 -0.02983093 C7.67333542 -0.03640213 8.85407135 -0.04297333 10.07058716 -0.04974365 C13.98623508 -0.06948903 17.9018696 -0.08114322 21.81755066 -0.09111023 C23.16677559 -0.09515865 24.51600032 -0.0992756 25.86522484 -0.10346031 C32.20411102 -0.12250591 38.5429856 -0.13673861 44.88189489 -0.14507228 C52.19391686 -0.15484464 59.50563612 -0.18116639 66.81755143 -0.22157317 C72.47286318 -0.25175071 78.12808822 -0.26654266 83.78347892 -0.26985329 C87.15960009 -0.27220182 90.53539762 -0.28113594 93.91143227 -0.30631447 C97.67962007 -0.33060317 101.44701399 -0.32975921 105.21525574 -0.32279968 C106.8870137 -0.34201477 106.8870137 -0.34201477 108.59254456 -0.36161804 C114.66652078 -0.32068736 118.56124175 -0.14714355 123.04801941 4.14717102 C124.78268931 7.68546122 125.29854069 10.52580726 125.3013525 14.44533634 C125.3069679 15.49987666 125.31258329 16.55441698 125.31836885 17.64091307 C125.31239721 19.36938818 125.31239721 19.36938818 125.30630493 21.13278198 C125.30998064 22.36182013 125.31365634 23.59085828 125.31744343 24.85714 C125.32569949 28.26602333 125.32505168 31.6746967 125.3207165 35.08357346 C125.31823991 38.76133507 125.32730928 42.43906965 125.33509827 46.11682129 C125.34714451 52.4906212 125.35225129 58.8643961 125.35297966 65.23820686 C125.35430584 74.46673786 125.36942308 83.69520825 125.38847483 92.92371785 C125.41932285 107.9136407 125.44348355 122.90356509 125.46134949 137.89350891 C125.46295851 139.23929455 125.46295851 139.23929455 125.46460003 140.61226778 C125.4764117 150.61448109 125.48661762 160.61669501 125.49504089 170.61891174 C125.49811462 174.24201967 125.50120345 177.86512758 125.50431824 181.48823547 C125.50546625 182.82919679 125.50546625 182.82919679 125.50663745 184.19724823 C125.51973546 199.12269363 125.54439966 214.0480953 125.57806164 228.9735083 C125.59831572 238.17361727 125.60864598 247.37363259 125.60607243 256.57376402 C125.60503449 262.8845417 125.6147203 269.19524553 125.63271146 275.50599743 C125.64272017 279.14292391 125.64792396 282.77968694 125.63994408 286.41662216 C125.63137623 290.36873749 125.64606262 294.32058117 125.66275024 298.27267456 C125.65653843 299.40937625 125.65032661 300.54607794 125.64392656 301.71722513 C125.73543199 313.6550595 128.25385421 323.29289925 135.04801941 333.14717102 C135.62551941 334.05467102 136.20301941 334.96217102 136.79801941 335.89717102 C145.59050826 344.68965987 157.97642844 348.24405946 170.11051941 348.39717102 C182.21777288 348.38976235 194.46144316 345.39146717 203.73551941 337.20967102 C214.5172183 325.4826573 216.35998293 310.72961577 216.30630493 295.46885681 C216.30998064 294.23792026 216.31365634 293.00698371 216.31744343 291.73874605 C216.32564645 288.35270629 216.32507319 284.96688008 216.3207165 281.5808475 C216.31822521 277.91764047 216.32732744 274.25445989 216.33509827 270.59126282 C216.34710535 264.25356709 216.35224916 257.91589643 216.35297966 251.57818985 C216.35430869 242.40963377 216.36944873 233.24113834 216.38847483 224.07260375 C216.41926822 209.18779904 216.44345855 194.3029928 216.46134949 179.41816711 C216.46242217 178.52851475 216.46349485 177.63886239 216.46460003 176.72225086 C216.47643064 166.78747627 216.48663661 156.85270106 216.49504089 146.91792297 C216.49811522 143.30993142 216.50120394 139.70193988 216.50431824 136.09394836 C216.50508358 135.20356667 216.50584892 134.31318497 216.50663745 133.395822 C216.51971203 118.55723113 216.54433686 103.71868449 216.57806164 88.88012636 C216.59835651 79.73180452 216.60864038 70.5835772 216.60607243 61.43523268 C216.60503854 55.17315324 216.61465522 48.91114868 216.63271146 42.64909537 C216.64276842 39.03527178 216.64787163 35.42161386 216.63994408 31.80778122 C216.63145802 27.89294804 216.64597131 23.97839425 216.66275024 20.06358337 C216.65653843 18.91836641 216.65032661 17.77314945 216.64392656 16.59322894 C216.6521497 15.54503871 216.66037285 14.49684848 216.66884518 13.41689491 C216.66965963 12.51342752 216.67047409 11.60996013 216.67131323 10.67911494 C217.29286188 6.50151867 219.07753197 3.88162555 222.41098881 1.35890102 C225.26675801 0.04665943 227.11458386 -0.23194829 230.24050903 -0.24050903 C231.26523819 -0.25041367 232.28996735 -0.2603183 233.3457489 -0.27052307 C234.45913635 -0.26602142 235.5725238 -0.26151978 236.71965027 -0.25688171 C237.90067825 -0.26374496 239.08170624 -0.27060822 240.29852295 -0.27767944 C243.53004556 -0.29282766 246.76120592 -0.29444607 249.99274898 -0.28873706 C252.69400592 -0.28564238 255.39521087 -0.29174077 258.0964604 -0.2977758 C264.47090119 -0.31181347 270.84520794 -0.31026624 277.21965027 -0.2988739 C283.78800379 -0.28739415 290.35594893 -0.30146725 296.92424864 -0.32827038 C302.5711348 -0.35044769 308.21789297 -0.3570602 313.86481959 -0.35119396 C317.23416682 -0.34782788 320.60325232 -0.35021575 323.97256279 -0.36744499 C327.731016 -0.38231374 331.48856907 -0.37170659 335.24699402 -0.35453796 C336.35835724 -0.36420593 337.46972046 -0.3738739 338.61476135 -0.38383484 C344.67727621 -0.32581366 348.56740806 -0.13395586 353.04801941 4.14717102 C354.75071677 7.63397787 355.29827519 10.42919706 355.29970169 14.28967094 C355.30491719 15.30956041 355.31013268 16.32944988 355.31550622 17.38024509 C355.31104478 18.49393093 355.30658333 19.60761677 355.30198669 20.75505066 C355.30510668 21.94365916 355.30822666 23.13226767 355.31144118 24.35689461 C355.31803955 27.65333696 355.31566266 30.9495515 355.30946875 34.24598002 C355.30494536 37.80329215 355.31192806 41.3605843 355.31742859 44.91789246 C355.32633036 51.89064457 355.32439566 58.86335366 355.31860331 65.83610748 C355.3140834 71.51323565 355.31347537 77.19035178 355.31565094 82.86748123 C355.31595741 83.67611936 355.31626387 84.48475749 355.31657963 85.3178998 C355.31721912 86.96095832 355.31786754 88.60401683 355.31852481 90.24707533 C355.32423208 105.66766195 355.31766739 121.08822483 355.30692407 136.50880755 C355.29801866 149.6980071 355.29951488 162.88717136 355.3087616 176.07637024 C355.31950999 191.41451889 355.32365071 206.7526466 355.31753707 222.0907985 C355.31690004 223.73325801 355.3162713 225.37571752 355.31565094 227.01817703 C355.31534239 227.82611413 355.31503384 228.63405123 355.31471594 229.46647128 C355.31300035 235.11785426 355.31588001 240.76922381 355.32061005 246.42060471 C355.32627118 253.33646123 355.3245955 260.25227248 355.31404856 267.16812395 C355.30885647 270.68689631 355.30662144 274.20559373 355.31334686 277.72436523 C355.36801948 315.50176273 352.1814507 352.87239827 335.04801941 387.14717102 C334.70931824 387.83117981 334.37061707 388.5151886 334.02165222 389.21992493 C317.00103869 422.99444721 286.3912558 446.03997925 251.09098816 458.17012024 C225.28040915 466.45750288 198.48077908 469.37665738 171.48551941 469.39717102 C170.67943237 469.39784576 169.87334534 469.39852051 169.04283142 469.3992157 C127.98944225 469.34511159 83.74938673 462.38629721 50.04801941 437.14717102 C49.1753241 436.49619446 48.30262878 435.8452179 47.40348816 435.17451477 C11.37828828 406.95565396 -6.12631787 366.03485406 -11.73640865 321.33610982 C-13.30823291 307.77449723 -13.25920549 294.21794578 -13.25740707 280.58243859 C-13.25907907 276.91457492 -13.27218722 273.24674709 -13.28359985 269.5789032 C-13.30624808 261.59847535 -13.3143454 253.61807441 -13.3194263 245.63761878 C-13.32270079 240.64885872 -13.32923281 235.66010623 -13.33642769 230.67135048 C-13.35595115 216.83455883 -13.37238555 202.99777413 -13.37530422 189.16096783 C-13.37549179 188.27939351 -13.37567936 187.39781919 -13.37587262 186.48953049 C-13.37623884 184.70285658 -13.37660253 182.91618267 -13.37696373 181.12950876 C-13.37714654 180.24274209 -13.37732935 179.35597542 -13.3775177 178.44233704 C-13.37769825 177.55448038 -13.3778788 176.66662373 -13.37806482 175.75186232 C-13.38161728 161.32053677 -13.40872524 146.88935938 -13.44601559 132.45808532 C-13.48407118 117.61134396 -13.5034614 102.76467635 -13.50376374 87.91788512 C-13.50434818 79.59344358 -13.51283529 71.26917991 -13.5417614 62.94478416 C-13.56623603 55.8698925 -13.57358331 48.79524391 -13.55851387 41.72032138 C-13.55133421 38.11226825 -13.55224826 34.50469565 -13.57492447 30.89669609 C-13.59926333 26.9869058 -13.58491205 23.07780499 -13.56671143 19.16796875 C-13.57991139 18.02723064 -13.59311136 16.88649252 -13.60671133 15.71118659 C-13.51543869 7.15604027 -13.51543869 7.15604027 -10.60105991 3.45837116 C-7.03325552 0.34562555 -4.56982479 0.02196469 0 0 Z " fill="#28B24B" transform="translate(2045.9519805908203,176.8528289794922)"/>
<path d="M0 0 C0.73488663 -0.00382555 1.46977326 -0.00765109 2.22692919 -0.01159257 C4.69746013 -0.0219367 7.16775924 -0.01792739 9.63830566 -0.01396179 C11.40772721 -0.01830835 13.17714687 -0.02349131 14.94656372 -0.02944946 C19.76624815 -0.04287905 24.58585431 -0.04341213 29.40555382 -0.04088616 C33.44430942 -0.03981586 37.48304925 -0.04470305 41.52180147 -0.04949158 C51.07855182 -0.06060737 60.63526291 -0.06101716 70.1920166 -0.05497742 C79.98853674 -0.04897974 89.78491171 -0.06113574 99.58140707 -0.08254749 C108.02599029 -0.10031311 116.47052802 -0.10614028 124.91512918 -0.10290974 C129.94229468 -0.10111515 134.96935744 -0.103544 139.99650574 -0.11762428 C201.32342107 -0.27449738 261.35502219 8.57492586 306.95275879 53.27632141 C331.93180704 78.62963283 346.71975261 115.46379113 347.07385254 150.98335266 C347.08369171 151.79784882 347.09353088 152.61234497 347.10366821 153.45152283 C347.40937415 185.3248708 343.70024446 214.04577332 327.83557129 242.26069641 C327.50943848 242.84286926 327.18330566 243.42504211 326.84729004 244.02485657 C322.25420616 252.10163903 316.88396726 259.2287295 310.83557129 266.26069641 C310.30061035 266.91811829 309.76564941 267.57554016 309.21447754 268.25288391 C305.50481871 272.7768581 301.33176939 276.52998007 296.83557129 280.26069641 C296.09564941 280.88846985 295.35572754 281.51624329 294.59338379 282.16304016 C253.88578162 315.86359606 200.68023477 324.56113344 149.39807129 324.32319641 C147.49117143 324.31816673 145.58427028 324.31360644 143.67736816 324.30952454 C139.06340306 324.29864598 134.44950204 324.28146405 129.83557129 324.26069641 C129.83833667 324.96214877 129.84110205 325.66360113 129.84395123 326.38630962 C129.91020348 343.45397764 129.95984816 360.521613 129.9910078 377.58938122 C130.00647689 385.84322922 130.02756716 394.09699139 130.06188965 402.3507843 C130.09179079 409.54476981 130.111146 416.73869316 130.11783677 423.93273908 C130.12174784 427.74197256 130.13094011 431.55102821 130.15276146 435.3602047 C130.17313799 438.94625606 130.1794028 442.53205649 130.17489433 446.11816025 C130.17611196 448.06027172 130.19224803 450.00235592 130.20883179 451.94439697 C130.20470779 453.1040094 130.2005838 454.26362183 130.19633484 455.45837402 C130.19910022 456.46405017 130.2018656 457.46972631 130.20471478 458.50587749 C129.75904613 461.83178318 128.88007903 463.6052157 126.83557129 466.26069641 C123.3218568 468.93706435 120.78544952 469.63634018 116.40856934 469.64164734 C115.3319101 469.65010681 114.25525085 469.65856628 113.14596558 469.6672821 C111.97490265 469.66120941 110.80383972 469.65513672 109.59729004 469.64888 C108.35613434 469.65413696 107.11497864 469.65939392 105.83621216 469.66481018 C102.43939328 469.67574136 99.04312356 469.67319377 95.6463356 469.66367292 C92.08790612 469.65606588 88.52949976 469.66312483 84.97106934 469.66783142 C78.99584756 469.67328594 73.0207371 469.66610538 67.04553223 469.65180969 C60.14208015 469.63548368 53.2388939 469.6407724 46.33544827 469.65728891 C40.40323585 469.67091248 34.47110336 469.6728192 28.53888035 469.6649729 C24.99803372 469.66030114 21.45731195 469.65965776 17.91647339 469.66958237 C13.96882838 469.67987475 10.02147999 469.66560032 6.07385254 469.64888 C4.31725815 469.65798904 4.31725815 469.65798904 2.525177 469.6672821 C1.44851776 469.65882263 0.37185852 469.65036316 -0.73742676 469.64164734 C-2.13664619 469.63995072 -2.13664619 469.63995072 -3.56413269 469.63821983 C-6.75967003 469.17427643 -8.59401234 468.20181307 -11.16442871 466.26069641 C-13.65446562 462.65060912 -13.44476091 458.89950461 -13.4189043 454.67656803 C-13.42211078 453.90524061 -13.42531726 453.13391319 -13.4286209 452.33921221 C-13.43696127 449.73932163 -13.43098257 447.139659 -13.42512512 444.5397644 C-13.42814396 442.66308993 -13.4320321 440.78641669 -13.43671769 438.90974563 C-13.44704085 433.74069895 -13.44480492 428.57172129 -13.4405371 423.40266883 C-13.43807769 417.83271329 -13.44707421 412.26277471 -13.45457458 406.69282532 C-13.46734539 395.77623318 -13.46911233 384.85966561 -13.46677432 373.94306726 C-13.46499371 365.07306436 -13.46673526 356.20306894 -13.47099876 347.33306694 C-13.47159395 346.07226315 -13.47218914 344.81145936 -13.47280237 343.51244939 C-13.47401407 340.95140918 -13.47522821 338.39036898 -13.47644474 335.82932877 C-13.48423582 318.62532898 -13.48814836 301.42133279 -13.484128 284.21733189 C-13.48397162 283.54432062 -13.48381525 282.87130936 -13.48365413 282.17790382 C-13.48284833 278.76667701 -13.48200256 275.35545021 -13.48114083 271.94422341 C-13.48096974 271.26672121 -13.48079865 270.58921901 -13.48062238 269.89118644 C-13.48027573 268.52111205 -13.4799272 267.15103767 -13.4795768 265.78096328 C-13.47421868 244.45900576 -13.48215165 223.13708958 -13.50061035 201.81513977 C-13.52131599 177.86957153 -13.53202475 153.92403241 -13.52803487 129.97845215 C-13.52611932 117.29603014 -13.52864473 104.6136458 -13.5427494 91.93123055 C-13.5546344 81.13509884 -13.55610055 70.339028 -13.54395924 59.5428955 C-13.53805035 54.03145849 -13.53702641 48.52013297 -13.54896164 43.00870323 C-13.55975229 37.96736063 -13.55679894 32.9262235 -13.54269996 27.88489079 C-13.54003412 26.05720816 -13.54247813 24.22950979 -13.55043582 22.40184254 C-13.56047677 19.92453268 -13.55217617 17.44794613 -13.53915882 14.97066593 C-13.54646817 14.25496721 -13.55377751 13.5392685 -13.56130835 12.80188194 C-13.51366379 8.45130287 -12.843967 5.7116079 -10.16442871 2.26069641 C-6.42001628 -0.23557854 -4.4779908 0.00696923 0 0 Z M127.83557129 122.26069641 C127.83557129 148.33069641 127.83557129 174.40069641 127.83557129 201.26069641 C134.86869629 201.34319641 141.90182129 201.42569641 149.14807129 201.51069641 C151.34503662 201.54711243 153.54200195 201.58352844 155.80554199 201.62104797 C170.67596988 201.7656158 181.26727258 200.08076323 192.48400879 189.74116516 C199.51978922 182.40181045 202.57785076 172.61864522 202.96057129 162.62007141 C202.5617403 151.90148853 199.94637347 142.45751201 192.83557129 134.26069641 C174.10413758 117.22697572 153.26835636 122.26069641 127.83557129 122.26069641 Z " fill="#28B24B" transform="translate(1135.1644287109375,176.7393035888672)"/>
<path d="M0 0 C0.74644775 0.38768555 1.49289551 0.77537109 2.26196289 1.17480469 C16.58996615 8.88122475 16.58996615 8.88122475 18.5 14.75 C18.16723079 19.05388766 16.91156398 22.4875787 15.0859375 26.37109375 C14.57998047 27.45519531 14.07402344 28.53929687 13.55273438 29.65625 C12.72225586 31.40421875 12.72225586 31.40421875 11.875 33.1875 C11.29186154 34.42817111 10.70918919 35.6690614 10.12695312 36.91015625 C5.21165326 47.35878485 0.16883085 57.74658891 -4.88867188 68.12695312 C-8.04189895 74.60790665 -11.15066442 81.10504416 -14.1640625 87.65234375 C-14.45823059 88.29092316 -14.75239868 88.92950256 -15.05548096 89.58743286 C-16.4460356 92.61047249 -17.82845343 95.63676147 -19.20117188 98.66796875 C-26.57686179 114.7884309 -26.57686179 114.7884309 -30.5 116.75 C-36.24343538 117.27406192 -39.91901271 115.8844573 -44.8125 113.125 C-57.93342584 106.17608354 -71.86330991 102.06719809 -86.5 99.75 C-87.634375 99.56695312 -88.76875 99.38390625 -89.9375 99.1953125 C-118.82149465 95.75542204 -148.6779975 98.83951363 -172.5 116.75 C-191.74715421 132.17288305 -202.16552626 152.94740701 -207.5 176.75 C-207.86931641 178.38195312 -207.86931641 178.38195312 -208.24609375 180.046875 C-213.80145556 210.85039842 -208.51126165 244.51692138 -191.453125 270.91796875 C-189.54425598 273.60000371 -187.56384715 276.18595364 -185.5 278.75 C-184.95988281 279.45382812 -184.41976562 280.15765625 -183.86328125 280.8828125 C-169.89385176 298.13319758 -146.95791102 307.10165365 -125.5 309.75 C-120.82928126 310.03759581 -116.17869877 310.08378673 -111.5 310.0625 C-109.59903564 310.05621582 -109.59903564 310.05621582 -107.65966797 310.04980469 C-97.05372716 309.92352749 -86.87096672 308.95033313 -76.5 306.75 C-75.49308105 306.54117188 -75.49308105 306.54117188 -74.46582031 306.328125 C-62.62674154 303.77726114 -51.55657971 299.07304324 -40.9375 293.3125 C-37.03031618 291.53650735 -34.73508809 291.0308341 -30.5 291.75 C-26.59532563 295.09604664 -24.37981611 298.41694444 -22.1875 303.03515625 C-21.89717896 303.63960068 -21.60685791 304.2440451 -21.30773926 304.86680603 C-20.3614654 306.84395469 -19.43064877 308.82795502 -18.5 310.8125 C-17.83479051 312.21067028 -17.16876212 313.60845122 -16.50195312 315.00585938 C-11.73868018 325.01414733 -7.07042322 335.06822007 -2.44238281 345.13964844 C0.4964677 351.51592064 3.50722155 357.84643957 6.609375 364.14453125 C6.95492432 364.8483493 7.30047363 365.55216736 7.65649414 366.27731323 C9.3391139 369.70338639 11.03102781 373.12422215 12.74023438 376.53710938 C13.35328021 377.78104526 13.9659303 379.02517627 14.578125 380.26953125 C15.11856445 381.35339111 15.65900391 382.43725098 16.21582031 383.55395508 C17.9382927 387.84081555 19.15111344 391.84316779 17.625 396.3125 C-8.11835152 425.84163851 -69.1006087 435.658528 -105.79248047 438.52294922 C-164.81997943 442.13782964 -227.12697102 429.08257717 -272.48828125 389.1171875 C-274.35963728 387.4205589 -276.22101763 385.71283577 -278.0703125 383.9921875 C-280.08562636 382.13239625 -282.13297355 380.36566619 -284.25 378.625 C-288.09442103 375.34141215 -291.28122078 371.63935823 -294.5 367.75 C-294.92410156 367.24887695 -295.34820313 366.74775391 -295.78515625 366.23144531 C-308.2534239 351.46227869 -318.48607485 335.33900454 -326.5 317.75 C-326.9942749 316.67661377 -326.9942749 316.67661377 -327.49853516 315.58154297 C-348.53141779 269.40174182 -354.64994853 214.90650038 -347.5 164.75 C-347.37109375 163.81365723 -347.2421875 162.87731445 -347.109375 161.91259766 C-339.21003872 105.98639393 -314.33600693 52.38436891 -269.5 16.75 C-268.54480469 15.96625 -267.58960937 15.1825 -266.60546875 14.375 C-236.91815189 -9.4053411 -200.82060454 -22.60579441 -163.5 -28.25 C-162.71850586 -28.37842285 -161.93701172 -28.5068457 -161.13183594 -28.63916016 C-106.99313573 -37.34567627 -48.18300506 -25.08721746 0 0 Z " fill="#28B24B" transform="translate(3157.5,207.25)"/>
<path d="M0 0 C1.30132055 -0.00521549 2.60264111 -0.01043099 3.94339561 -0.01580453 C5.39092437 -0.01148024 6.83845258 -0.00696692 8.28598022 -0.002285 C9.82100892 -0.0045886 11.35603651 -0.00776444 12.89106178 -0.01173949 C17.11571726 -0.02011007 21.34028269 -0.01595198 25.56493855 -0.00976706 C30.11850414 -0.00525281 34.67205396 -0.01222121 39.22561646 -0.0177269 C48.14862039 -0.02663354 57.07159074 -0.02469324 65.994596 -0.01890162 C73.24466065 -0.01439013 80.49471585 -0.01377 87.74478149 -0.01594925 C89.29088779 -0.01640895 89.29088779 -0.01640895 90.86822855 -0.01687793 C92.9619635 -0.01751737 95.05569844 -0.01816579 97.14943337 -0.01882312 C116.79566368 -0.02453013 136.44187533 -0.01796269 156.08810258 -0.00722238 C172.95599171 0.00171346 189.82385331 0.00016152 206.69174194 -0.00905991 C226.26629528 -0.01975598 245.84083226 -0.02398078 265.41538811 -0.01783538 C267.50154495 -0.01719826 269.58770179 -0.01656952 271.67385864 -0.01594925 C272.70036486 -0.0156407 273.72687108 -0.01533215 274.78448355 -0.01501425 C282.02825221 -0.01328531 289.27201053 -0.01620667 296.51577759 -0.02090836 C305.34004152 -0.02650983 314.16426985 -0.02501623 322.98852968 -0.01434687 C327.4932657 -0.00908025 331.9979423 -0.00705021 336.50267792 -0.01364517 C340.62304434 -0.01958631 344.74329604 -0.01636001 348.86365199 -0.00569007 C350.35753603 -0.00344822 351.85142968 -0.00460981 353.34530759 -0.00944164 C355.36974518 -0.01548936 357.39420977 -0.00811361 359.41864014 0 C360.54500067 0.0003247 361.6713612 0.00064941 362.83185387 0.00098395 C365.71753665 0.25239815 367.32653311 0.63947214 369.70932007 2.25168228 C374.04800904 8.75971573 371.60455117 18.95708094 370.85482788 26.49313736 C370.76371735 27.45070938 370.67260681 28.4082814 370.57873535 29.39487076 C370.279334 32.52093619 369.97166772 35.64610523 369.66244507 38.77121353 C369.50444553 40.38318398 369.50444553 40.38318398 369.34325409 42.0277195 C368.7870012 47.70218197 368.22451016 53.37598387 367.65658569 59.0492897 C367.07209462 64.89970869 366.50836779 70.75193548 365.94935989 76.60483646 C365.51450004 81.11928994 365.06463624 85.63215756 364.61064911 90.14472389 C364.3961818 92.30230285 364.18731081 94.46044585 363.98419952 96.61912346 C363.69910824 99.63364358 363.39286079 102.64530691 363.08139038 105.65719986 C363.0022641 106.54406982 362.92313782 107.43093979 362.84161377 108.3446846 C362.26992312 113.60846474 361.26285516 117.1052483 357.70932007 121.25168228 C354.81273836 123.03286765 352.65794419 123.50035046 349.28005981 123.49219131 C347.9592038 123.49631531 347.9592038 123.49631531 346.61166382 123.50052261 C345.17452026 123.48973679 345.17452026 123.48973679 343.70834351 123.47873306 C342.69338806 123.47902512 341.67843262 123.47931717 340.63272095 123.47961807 C337.27795869 123.47822474 333.92341853 123.46266317 330.56869507 123.44699478 C328.24270753 123.44326467 325.91671843 123.44041769 323.59072876 123.43841934 C317.4685126 123.43078277 311.34639132 123.41113398 305.22421265 123.38901138 C298.97707401 123.36855353 292.72992005 123.35941775 286.48275757 123.34933853 C274.22490338 123.32788819 261.96711961 123.29375187 249.70932007 123.25168228 C249.71102881 124.32480495 249.71102881 124.32480495 249.71277207 125.41960686 C249.77987149 167.79844091 249.83136213 210.1772688 249.86251606 252.55614526 C249.86626828 257.64191355 249.87015124 262.72768173 249.87411499 267.81344986 C249.87490192 268.82595672 249.87568885 269.83846357 249.87649963 270.88165245 C249.88956205 287.28710222 249.9132205 303.69252053 249.94077846 320.09795161 C249.96880939 336.92498845 249.98549143 353.75200878 249.99158555 370.57906801 C249.9957068 380.9665689 250.00873457 391.35398087 250.03306947 401.7414544 C250.04889813 408.85955774 250.05372695 415.97761495 250.0498242 423.09573462 C250.04789817 427.20568087 250.05090009 431.31547149 250.06693649 435.42539024 C250.08150471 439.18641099 250.08229263 442.947171 250.07201675 446.70820359 C250.07014329 448.71668146 250.08310965 450.72515615 250.09656399 452.73358983 C250.09059085 453.92441617 250.0846177 455.11524251 250.07846355 456.3421545 C250.0801723 457.8840089 250.0801723 457.8840089 250.08191556 459.45701188 C249.64710422 462.71833522 248.621021 464.59775825 246.70932007 467.25168228 C243.67269068 469.36805952 241.09448238 469.50750151 237.44726562 469.52583694 C236.38184036 469.53581207 235.3164151 469.5457872 234.21870422 469.55606461 C233.0549678 469.55672928 231.89123138 469.55739395 230.69223022 469.55807877 C229.46258041 469.56640228 228.2329306 469.5747258 226.96601868 469.58330154 C223.59605577 469.60327111 220.22633993 469.61404252 216.85633898 469.61912799 C214.74965753 469.62277383 212.64299977 469.62901504 210.53632736 469.63612938 C203.18317371 469.66061622 195.83009053 469.67367422 188.47689819 469.67721939 C181.62848221 469.68085469 174.78051438 469.71075105 167.93223536 469.75262398 C162.04759299 469.78734031 156.16309907 469.80276805 150.278355 469.80346543 C146.76582294 469.80425776 143.25374759 469.8129755 139.74132156 469.84146309 C135.82243825 469.87253736 131.90419717 469.86357758 127.98519897 469.85104752 C126.24566704 469.87329895 126.24566704 469.87329895 124.47099304 469.89599991 C115.70135116 469.81605738 115.70135116 469.81605738 112.00457764 466.83922195 C108.75294338 463.17351891 108.58449864 461.51775293 108.58627224 456.71129799 C108.58428119 455.52644479 108.58229014 454.34159159 108.58023876 453.12083375 C108.5831516 451.80762797 108.58606444 450.49442218 108.58906555 449.14142227 C108.58862984 447.74138864 108.58775493 446.34135509 108.58647639 444.94132197 C108.58423142 441.0806968 108.58825274 437.22009917 108.59325445 433.35947752 C108.59755873 429.20132794 108.59611254 425.04318002 108.59535217 420.88502884 C108.59482692 413.67628357 108.59797382 406.46754732 108.60359001 399.25880432 C108.61170488 388.83607433 108.61432022 378.41334872 108.615578 367.99061592 C108.61776854 351.08186733 108.62442868 334.17312356 108.63388062 317.26437759 C108.64305468 300.8356669 108.65013554 284.40695752 108.65438843 267.97824478 C108.65465115 266.96617873 108.65491387 265.95411267 108.65518456 264.91137795 C108.65648956 259.83431907 108.65775328 254.75726019 108.65899646 249.68020129 C108.66936914 207.53735827 108.68698751 165.39452055 108.70932007 123.25168228 C108.12124982 123.25444766 107.53317957 123.25721304 106.92728901 123.26006222 C92.61355008 123.32633575 78.29982485 123.37596951 63.98596668 123.4071188 C57.06386108 123.42258304 50.14185795 123.44366397 43.21981812 123.47800064 C36.54141008 123.51111297 29.86313055 123.52852888 23.18463707 123.53631401 C20.63490815 123.54186304 18.08518514 123.55269872 15.53550148 123.56887245 C11.96806807 123.59060504 8.40107646 123.59365088 4.83358765 123.59225845 C3.7762291 123.60304428 2.71887054 123.61383011 1.62947083 123.62494278 C-7.56861984 123.58601736 -7.56861984 123.58601736 -11.29067993 120.25168228 C-13.24177971 117.39035895 -13.54252826 115.08684196 -13.55137634 111.66624832 C-13.55846115 110.75083267 -13.56554596 109.83541702 -13.57284546 108.89226151 C-13.57036804 107.89526733 -13.56789062 106.89827316 -13.56533813 105.87106705 C-13.57044907 104.81537521 -13.57556 103.75968338 -13.58082581 102.67200089 C-13.59473676 99.17897259 -13.59376391 95.68614125 -13.59146118 92.19308853 C-13.59534719 89.76697593 -13.59968167 87.340864 -13.60444641 84.91475296 C-13.6119118 79.8280657 -13.61161494 74.74144784 -13.60635376 69.65475845 C-13.60055787 63.13326076 -13.61749176 56.61204695 -13.64069843 50.0905962 C-13.65542312 45.07976493 -13.6563092 40.06900223 -13.65318871 35.05815315 C-13.65370252 32.65357208 -13.65895154 30.24898723 -13.66900063 27.84442711 C-13.68132328 24.48332719 -13.67459804 21.12278293 -13.66299438 17.76169205 C-13.67063812 16.76672211 -13.67828186 15.77175217 -13.68615723 14.74663162 C-13.61969461 6.04608769 -13.61969461 6.04608769 -10.29067993 2.25168228 C-6.87165355 0.04389428 -4.01842997 0.00115842 0 0 Z " fill="#28B24B" transform="translate(265.2906799316406,176.74831771850586)"/>
<path d="M0 0 C1.3021962 -0.00644889 2.6043924 -0.01289778 3.94604909 -0.0195421 C5.39976119 -0.01659952 6.85347291 -0.01346406 8.30718422 -0.01015663 C9.84476273 -0.01389091 11.38233935 -0.01849154 12.91991293 -0.02388728 C17.15629049 -0.03616023 21.39258934 -0.03585178 25.62898064 -0.03349853 C30.19349583 -0.03309144 34.75798543 -0.04411911 39.32248878 -0.05361366 C48.26935371 -0.07024807 57.21619229 -0.07572431 66.16307138 -0.07683842 C73.43317525 -0.07778772 80.7032704 -0.08189211 87.97337151 -0.08823967 C108.57122126 -0.10585859 129.16905015 -0.1150775 149.7669075 -0.11357872 C151.43361678 -0.11345885 151.43361678 -0.11345885 153.13399696 -0.11333656 C154.80273384 -0.11321392 154.80273384 -0.11321392 156.50518258 -0.1130888 C174.54002545 -0.11227567 192.57478485 -0.13141837 210.60960357 -0.1596133 C229.11368171 -0.18831431 247.61771911 -0.20215513 266.12182009 -0.20042574 C276.51608594 -0.19976089 286.91026428 -0.20529497 297.30451012 -0.22678185 C306.15368184 -0.24495707 315.0027264 -0.24937118 323.85190867 -0.235763 C328.36898236 -0.22921484 332.88581181 -0.22918244 337.40286255 -0.2464695 C341.53576584 -0.26212407 345.66822971 -0.25941524 349.80112179 -0.24190123 C351.2984213 -0.23881444 352.79575299 -0.24252651 354.29301457 -0.25362138 C356.32443423 -0.2676807 358.35598735 -0.25479998 360.3874054 -0.24050903 C361.51696604 -0.24094377 362.64652669 -0.24137851 363.81031644 -0.24182642 C367.49794015 0.36978431 369.16158319 1.68124644 371.81954384 4.25726891 C374.66877698 9.95573518 372.57277934 19.13947125 371.96505165 25.36347008 C371.87394112 26.33050362 371.78283058 27.29753716 371.68895912 28.29387474 C371.38862007 31.46317346 371.08139732 34.63174574 370.77266884 37.80023766 C370.6146693 39.43150817 370.6146693 39.43150817 370.45347786 41.09573364 C369.89643998 46.84142134 369.33382262 52.58653203 368.76680946 58.33124352 C368.1830054 64.25802642 367.61910133 70.18652959 367.05958366 76.11564732 C366.62466451 80.6849862 366.17479963 85.25276537 365.72087288 89.82025146 C365.50633615 92.00574156 365.29746826 94.19179595 365.09442329 96.37838364 C364.8093268 99.43380878 364.50306245 102.48641542 364.19161415 105.53925133 C364.11248787 106.43861412 364.03336159 107.33797691 363.95183754 108.26459312 C363.38428371 113.56185785 362.40310731 117.08858074 358.81954384 121.25726891 C355.92261463 123.03791575 353.76827994 123.50593735 350.39028358 123.49777794 C349.06942757 123.50190193 349.06942757 123.50190193 347.72188759 123.50610924 C346.28474403 123.49532341 346.28474403 123.49532341 344.81856728 123.48431969 C343.80361183 123.48461174 342.78865639 123.48490379 341.74294472 123.4852047 C338.38818246 123.48381137 335.0336423 123.4682498 331.67891884 123.45258141 C329.3529313 123.44885129 327.0269422 123.44600431 324.70095253 123.44400597 C318.57873637 123.4363694 312.45661509 123.4167206 306.33443642 123.39459801 C300.08729778 123.37414016 293.84014382 123.36500437 287.59298134 123.35492516 C275.33512715 123.33347482 263.07734338 123.29933849 250.81954384 123.25726891 C250.82125258 124.33039157 250.82125258 124.33039157 250.82299584 125.42519349 C250.89009526 167.80402753 250.9415859 210.18285543 250.97273983 252.56173189 C250.97649205 257.64750017 250.98037501 262.73326836 250.98433876 267.81903648 C250.98512569 268.83154334 250.98591262 269.84405019 250.9867234 270.88723908 C250.99978582 287.29268884 251.02344427 303.69810715 251.05100223 320.10353824 C251.07903316 336.93057507 251.0957152 353.7575954 251.10180932 370.58465463 C251.10593057 380.97215552 251.11895834 391.3595675 251.14329324 401.74704102 C251.1591219 408.86514436 251.16395072 415.98320157 251.16004797 423.10132124 C251.15812194 427.2112675 251.16112386 431.32105812 251.17716026 435.43097687 C251.19172848 439.19199761 251.1925164 442.95275763 251.18224052 446.71379022 C251.18036706 448.72226809 251.19333342 450.73074277 251.20678777 452.73917645 C251.20081462 453.93000279 251.19484147 455.12082914 251.18868732 456.34774113 C251.19039607 457.88959553 251.19039607 457.88959553 251.19213933 459.4625985 C250.75732799 462.72392184 249.73124477 464.60334487 247.81954384 467.25726891 C244.78291445 469.37364614 242.20470615 469.51308813 238.5574894 469.53142357 C237.49206413 469.5413987 236.42663887 469.55137383 235.32892799 469.56165123 C234.16519157 469.5623159 233.00145515 469.56298058 231.80245399 469.56366539 C230.57280418 469.57198891 229.34315437 469.58031242 228.07624245 469.58888817 C224.70627954 469.60885774 221.3365637 469.61962914 217.96656275 469.62471461 C215.8598813 469.62836045 213.75322354 469.63460166 211.64655113 469.641716 C204.29339748 469.66620284 196.9403143 469.67926085 189.58712196 469.68280602 C182.73870598 469.68644131 175.89073815 469.71633767 169.04245913 469.7582106 C163.15781676 469.79292694 157.27332284 469.80835468 151.38857877 469.80905205 C147.87604671 469.80984439 144.36397136 469.81856212 140.85154533 469.84704971 C136.93266202 469.87812398 133.01442094 469.86916421 129.09542274 469.85663414 C127.35589081 469.87888557 127.35589081 469.87888557 125.58121681 469.90158653 C116.81157493 469.821644 116.81157493 469.821644 113.11480141 466.84480858 C109.86316715 463.17910554 109.69472241 461.52333955 109.69649601 456.71688461 C109.69450496 455.53203142 109.69251391 454.34717822 109.69046253 453.12642038 C109.69337537 451.81321459 109.69628821 450.5000088 109.69928932 449.1470089 C109.69885361 447.74697526 109.6979787 446.34694171 109.69670016 444.94690859 C109.69445519 441.08628343 109.69847651 437.2256858 109.70347822 433.36506414 C109.7077825 429.20691457 109.70633631 425.04876664 109.70557594 420.89061546 C109.70505069 413.68187019 109.70819759 406.47313395 109.71381378 399.26439095 C109.72192865 388.84166096 109.72454399 378.41893535 109.72580177 367.99620254 C109.72799231 351.08745396 109.73465245 334.17871019 109.74410439 317.26996422 C109.75327845 300.84125353 109.76035931 284.41254414 109.7646122 267.98383141 C109.76487492 266.97176535 109.76513764 265.9596993 109.76540833 264.91696458 C109.76671333 259.8399057 109.76797705 254.76284681 109.76922023 249.68578792 C109.77959291 207.5429449 109.79721128 165.40010718 109.81954384 123.25726891 C109.23239538 123.26095608 108.64524693 123.26464325 108.04030609 123.26844215 C93.74293429 123.35684225 79.44558691 123.42300232 65.14800262 123.46451759 C58.23372892 123.4851286 51.31963782 123.51322088 44.40548134 123.55902672 C37.73354136 123.60320675 31.06183033 123.62640363 24.38973808 123.63677788 C21.84361344 123.64417149 19.29749923 123.65860931 16.75145531 123.68018913 C13.18652045 123.70920454 9.62237066 123.71322552 6.05733681 123.71137047 C5.00357353 123.72575157 3.94981026 123.74013268 2.86411476 123.75494957 C-3.11950753 123.72123433 -6.64169269 123.28926042 -11.18045616 119.25726891 C-12.35713753 116.90390616 -12.31117572 115.49836914 -12.32089806 112.87438011 C-12.3266082 111.95329964 -12.33231834 111.03221916 -12.33820152 110.08322716 C-12.33931938 109.0696917 -12.34043724 108.05615623 -12.34158897 107.01190758 C-12.34655388 105.94675423 -12.35151878 104.88160088 -12.35663414 103.78417015 C-12.37128195 100.24785283 -12.37806226 96.71158037 -12.38358116 93.17523766 C-12.38933062 90.72384705 -12.39508837 88.27245647 -12.40085411 85.8210659 C-12.41137167 80.67536776 -12.41720934 75.52968528 -12.42069054 70.38397789 C-12.42617572 63.78621444 -12.45020132 57.18865732 -12.47866249 50.5909586 C-12.49727475 45.5252325 -12.50249373 40.45955623 -12.50402641 35.39379883 C-12.50705684 32.96130114 -12.51509841 30.52880441 -12.52821159 28.09634018 C-12.5452416 24.6943379 -12.54339899 21.29284129 -12.53690147 17.89081383 C-12.54611626 16.88335106 -12.55533104 15.87588829 -12.56482506 14.83789635 C-12.51295597 6.18049562 -12.51295597 6.18049562 -9.18045616 2.25726891 C-5.64448498 -0.10004521 -4.18966488 0.00522708 0 0 Z " fill="#28B24B" transform="translate(2436.180456161499,176.74273109436035)"/>
<path d="M0 0 C18.81 0 37.62 0 57 0 C67.16103726 11.2900414 67.16103726 11.2900414 71.3125 16.75 C75.61936936 22.32422935 80.11293011 27.69884734 84.72314453 33.02368164 C88.27499541 37.13271971 91.70862068 41.3175121 95.078125 45.578125 C98.66376736 50.09661741 102.34123694 54.54068708 106 59 C107.50028317 60.83310162 109.00028408 62.66643427 110.5 64.5 C111.2425 65.4075 111.985 66.315 112.75 67.25 C124 81 135.25 94.75 146.5 108.5 C147.24894531 109.41523437 147.99789062 110.33046875 148.76953125 111.2734375 C150.20499935 113.02817784 151.63993796 114.78335155 153.07421875 116.5390625 C157.70323818 122.2034079 162.34813906 127.85440553 167 133.5 C172.34685204 139.98905001 177.68056318 146.48844833 183 153 C185.2392281 155.73727007 187.47887889 158.47419358 189.71875 161.2109375 C191.32404236 163.17357233 192.9282639 165.13704666 194.53125 167.1015625 C195.3459375 168.09929687 196.160625 169.09703125 197 170.125 C197.7425 171.03507813 198.485 171.94515625 199.25 172.8828125 C200.13277792 173.95081615 201.02022231 175.02022231 202 176 C202.495 88.88 202.495 88.88 203 0 C225.44 0 247.88 0 271 0 C271 97.68 271 195.36 271 296 C252.19 296 233.38 296 214 296 C208.90467866 290.33853184 204.04226729 284.89884493 199.359375 278.9609375 C196.30332667 275.12569804 193.18412902 271.34442591 190.0625 267.5625 C188.84113367 266.08204129 187.6197793 264.6015727 186.3984375 263.12109375 C185.81545898 262.41452637 185.23248047 261.70795898 184.63183594 260.97998047 C180.38619488 255.82855184 176.1681276 250.65451364 171.9453125 245.484375 C166.69686804 239.0632012 161.42755621 232.6594752 156.15356445 226.25927734 C152.22747162 221.49373259 148.31301136 216.71890943 144.40625 211.9375 C141.27823847 208.11888852 138.13915083 204.30945577 135 200.5 C130.45786868 194.98798441 125.92539199 189.4683902 121.40625 183.9375 C118.27823847 180.11888852 115.13915083 176.30945577 112 172.5 C107.45786868 166.98798441 102.92539199 161.4683902 98.40625 155.9375 C95.27823838 152.11888842 92.13912331 148.30947857 89 144.5 C75.22836096 127.7854512 75.22836096 127.7854512 69 120 C68.67 178.08 68.34 236.16 68 296 C45.56 296 23.12 296 0 296 C0 198.32 0 100.64 0 0 Z " fill="#FFFFFF" transform="translate(2990,762)"/>
<path d="M0 0 C193.00242058 0 193.00242058 0 227.3203125 33.3203125 C247.89573714 53.89573714 256.94855449 79.72094659 257.04345703 108.49316406 C256.57801857 135.34216457 248.00139406 159.80949284 229.49609375 179.59765625 C222.06285161 186.75171559 207.72072339 200 197 200 C201.66447872 207.45254645 206.51533154 214.73940742 211.5625 221.9375 C212.25794922 222.93330078 212.95339844 223.92910156 213.66992188 224.95507812 C215.77755436 227.971735 217.88834786 230.98615592 220 234 C221.1966807 235.70958914 222.39329893 237.419222 223.58984375 239.12890625 C225.29427332 241.56387496 226.99902773 243.99861267 228.70483398 246.43261719 C233.87157411 253.80719715 239.01174058 261.20014603 244.14453125 268.59838867 C247.29800824 273.1384817 250.46536438 277.66679159 253.6796875 282.1640625 C254.24284668 282.95337158 254.80600586 283.74268066 255.38623047 284.5559082 C256.43580038 286.02355944 257.48930775 287.48840554 258.54736328 288.94995117 C262 293.77964058 262 293.77964058 262 296 C252.35996686 296.27866116 242.72132906 296.49155528 233.07814026 296.62174606 C228.59963265 296.68425082 224.12388905 296.76893001 219.64697266 296.90527344 C215.3219313 297.03615951 210.99953791 297.10750379 206.67266846 297.13852692 C205.02653293 297.16061615 203.38053471 297.20376101 201.73553467 297.26876068 C196.58437867 297.46411053 191.97625809 297.44771059 187 296 C183.24770146 292.45769976 181.23782245 288.59660585 179 284 C177.7334176 282.09836488 176.43921274 280.214523 175.10546875 278.359375 C174.46609375 277.44285156 173.82671875 276.52632812 173.16796875 275.58203125 C172.51441406 274.64746094 171.86085938 273.71289062 171.1875 272.75 C169.77439349 270.72419971 168.36163384 268.69815742 166.94921875 266.671875 C166.27036621 265.69798828 165.59151367 264.72410156 164.89208984 263.72070312 C162.41369014 260.15692425 159.9537369 256.58078512 157.5 253 C152.90164428 246.2939535 148.26731043 239.61318441 143.625 232.9375 C142.94630859 231.96103516 142.26761719 230.98457031 141.56835938 229.97851562 C140.91931641 229.04587891 140.27027344 228.11324219 139.6015625 227.15234375 C139.02744629 226.32726318 138.45333008 225.50218262 137.86181641 224.65209961 C137.24741699 223.77690674 136.63301758 222.90171387 136 222 C135.5828347 221.08602196 135.5828347 221.08602196 135.15724182 220.15357971 C133.97540818 217.89480827 133.02434802 216.57074077 131 215 C126.33107629 213.94047525 121.71943463 214.04599855 116.94921875 214.09765625 C115.73544556 214.08504761 114.52167236 214.07243896 113.27111816 214.05944824 C108.74339541 214.02258237 104.21534333 214.046154 99.6875 214.0625 C89.560625 214.041875 79.43375 214.02125 69 214 C69 241.06 69 268.12 69 296 C46.23 296 23.46 296 0 296 C0 198.32 0 100.64 0 0 Z M69 57 C69 90.33 69 123.66 69 158 C80.22 158.0825 91.44 158.165 103 158.25 C108.26324219 158.30462402 108.26324219 158.30462402 113.6328125 158.36035156 C116.84984578 158.37375044 116.84984578 158.37375044 120.06689453 158.3817749 C121.4712434 158.38781377 122.87557503 158.40165912 124.27978516 158.42230225 C142.01479984 158.66939527 160.49800244 155.25507538 174 142.8125 C185.43247081 130.33684284 186.89034432 115.60697525 186.1953125 99.50830078 C185.47214746 90.22105372 181.82578539 82.20072744 176 75 C175.52175781 74.38640625 175.04351563 73.7728125 174.55078125 73.140625 C165.66085535 63.01909728 150.86664244 58.86346251 138 57 C135.66282834 56.9158777 133.32354444 56.88219131 130.98486328 56.88647461 C130.30019926 56.88635407 129.61553524 56.88623354 128.91012383 56.88610935 C126.71348596 56.88685042 124.51693501 56.89444157 122.3203125 56.90234375 C120.95629924 56.90381567 119.59228542 56.90483484 118.22827148 56.90539551 C113.19383899 56.91061941 108.15941863 56.92458068 103.125 56.9375 C91.86375 56.958125 80.6025 56.97875 69 57 Z " fill="#FFFFFF" transform="translate(1911,762)"/>
<path d="M0 0 C192.9566787 0 192.9566787 0 228 34 C228.68449219 34.61101563 229.36898438 35.22203125 230.07421875 35.8515625 C246.63465558 51.14312499 255.40693991 75.37736364 256.90625 97.4921875 C256.95265625 98.73355469 256.95265625 98.73355469 257 100 C257.07734375 101.58167969 257.07734375 101.58167969 257.15625 103.1953125 C257.87055353 130.7555236 250.42949518 157.24216341 231.36279297 177.57910156 C221.80241543 187.54710537 210.54478509 195.22939886 198 201 C200.56171855 205.9879616 203.37001416 210.63269565 206.7109375 215.140625 C210.77669471 220.67653107 214.71616835 226.29010167 218.625 231.9375 C220.03360273 233.9676224 221.44246143 235.99756721 222.8515625 238.02734375 C223.54926758 239.03265137 224.24697266 240.03795898 224.96582031 241.07373047 C227.96633559 245.39012223 230.9822572 249.69564288 234 254 C239.88302691 262.39315239 245.73922396 270.80476611 251.58398438 279.22460938 C252.21755859 280.13662109 252.85113281 281.04863281 253.50390625 281.98828125 C254.10090332 282.8488916 254.69790039 283.70950195 255.31298828 284.59619141 C256.83629691 286.76674087 258.39468989 288.90625885 259.96484375 291.04296875 C262 294 262 294 262 296 C252.48228671 296.5130475 242.96941394 296.90214905 233.44082546 297.13986778 C229.01388908 297.25407004 224.59648904 297.4083375 220.17504883 297.65966797 C191.75516282 299.23291459 191.75516282 299.23291459 184.00091553 293.96099854 C179.09115289 288.89509203 176.03351257 283.06403353 173.20950317 276.65057373 C171.63333948 273.19647937 169.68824179 270.42386374 167.421875 267.3828125 C166.80489746 266.49827393 166.18791992 265.61373535 165.55224609 264.70239258 C164.95750488 263.85185303 164.36276367 263.00131348 163.75 262.125 C155.10635274 249.73284292 155.10635274 249.73284292 151.77609253 244.84588623 C150.90663619 243.58405626 150.02563108 242.33000236 149.12692261 241.08883667 C146.54977733 237.48872319 144.4337409 233.92562962 142.53320312 229.92358398 C139.00247491 223.07864233 135.36966886 216.46006368 127.71759033 213.90322876 C118.20796144 212.3023982 108.73009842 212.8488128 99.125 213.25 C89.18375 213.4975 79.2425 213.745 69 214 C69 241.06 69 268.12 69 296 C46.23 296 23.46 296 0 296 C0 198.32 0 100.64 0 0 Z M69 57 C69 90.66 69 124.32 69 159 C83.0765625 159.061875 83.0765625 159.061875 97.4375 159.125 C101.82567017 159.15231201 101.82567017 159.15231201 106.30249023 159.18017578 C142.58398487 159.549634 142.58398487 159.549634 173.8125 142.875 C183.75186336 132.33001235 186.85051401 119.11147779 187 105 C186.11905347 90.90485554 181.44974463 79.60757771 171 70 C156.71621597 58.05308505 138.78521201 56.6715433 120.953125 56.8046875 C119.61507332 56.80763744 118.27701931 56.809672 116.93896484 56.81079102 C112.04260745 56.82116822 107.14629984 56.84909001 102.25 56.875 C91.2775 56.91625 80.305 56.9575 69 57 Z " fill="#FFFFFF" transform="translate(1478,762)"/>
<path d="M0 0 C1.22355698 0.00222061 2.44711395 0.00444122 3.70774841 0.00672913 C4.38089081 0.0065831 5.0540332 0.00643707 5.74757385 0.00628662 C7.98229649 0.00698573 10.21693674 0.01477799 12.4516449 0.02259827 C13.99721226 0.02446245 15.54278022 0.02588635 17.08834839 0.02688599 C21.16380941 0.03071112 25.23923502 0.04054135 29.31468201 0.05158997 C33.47035747 0.0618042 37.62603864 0.06638363 41.78172302 0.07142639 C49.94124452 0.08216363 58.10073718 0.09923998 66.26023865 0.12025452 C82.36397275 36.04050951 82.36397275 36.04050951 87.32273865 47.12025452 C87.83841904 48.27234406 87.83841904 48.27234406 88.36451721 49.44770813 C93.9081814 61.83542338 99.42413516 74.23529839 104.93022156 86.63975525 C111.73190237 101.96277907 118.5599362 117.27323205 125.44773865 132.55775452 C125.81762909 133.37859528 126.18751953 134.19943604 126.56861877 135.04515076 C127.31184781 136.69442801 128.05507799 138.34370474 128.79830933 139.99298096 C129.34600731 141.20840324 129.34600731 141.20840324 129.9047699 142.44837952 C130.44950706 143.6572155 130.44950706 143.6572155 131.00524902 144.89047241 C134.89455302 153.52390768 138.76812648 162.16435897 142.63523865 170.80775452 C142.97986145 171.57797943 143.32448425 172.34820435 143.67955017 173.14176941 C149.96631031 187.1965833 156.21445243 201.26847433 162.46098328 215.34120178 C169.66106879 231.55891073 176.92167362 247.7487451 184.22018433 263.92237854 C185.22670797 266.15476004 186.23100276 268.38813238 187.23484802 270.62171936 C188.66477155 273.80322019 190.10594778 276.97940625 191.55125427 280.15394592 C192.29298533 281.79497126 193.03452761 283.43608194 193.77586365 285.07728577 C194.12566284 285.84014389 194.47546204 286.60300201 194.83586121 287.38897705 C197.26023865 292.78015206 197.26023865 292.78015206 197.26023865 296.12025452 C173.17023865 296.12025452 149.08023865 296.12025452 124.26023865 296.12025452 C121.99148865 290.51025452 119.72273865 284.90025452 117.38523865 279.12025452 C112.35842968 266.69595511 107.30244405 254.28774602 102.0556488 241.95423889 C101.49369812 240.62295959 101.49369812 240.62295959 100.9203949 239.26478577 C100.59692078 238.50528625 100.27344666 237.74578674 99.94017029 236.96327209 C99.26023865 235.12025452 99.26023865 235.12025452 99.26023865 233.12025452 C54.05023865 233.12025452 8.84023865 233.12025452 -37.73976135 233.12025452 C-38.06976135 234.77025452 -38.39976135 236.42025452 -38.73976135 238.12025452 C-39.29164571 239.66872646 -39.88675278 241.20229198 -40.51808167 242.72010803 C-40.88226196 243.60195267 -41.24644226 244.4837973 -41.62165833 245.3923645 C-42.01641357 246.33510727 -42.41116882 247.27785004 -42.81788635 248.24916077 C-43.43056366 249.72738564 -43.43056366 249.72738564 -44.05561829 251.23547363 C-45.36273372 254.38635875 -46.67615202 257.53457197 -47.98976135 260.68275452 C-48.85866704 262.77437858 -49.72716096 264.86617376 -50.5952301 266.95814514 C-52.97138123 272.68109165 -55.35476774 278.40098709 -57.73976135 284.12025452 C-59.38976135 288.08025452 -61.03976135 292.04025452 -62.73976135 296.12025452 C-86.16976135 296.12025452 -109.59976135 296.12025452 -133.73976135 296.12025452 C-133.0264544 292.55371975 -132.48246821 290.19995583 -131.06007385 287.02479553 C-130.71392029 286.24536087 -130.36776672 285.46592621 -130.01112366 284.66287231 C-129.6328241 283.8250975 -129.25452454 282.98732269 -128.86476135 282.12416077 C-128.46873718 281.23631393 -128.07271301 280.3484671 -127.66468811 279.43371582 C-126.36119291 276.5145495 -125.05049355 273.59867763 -123.73976135 270.68275452 C-122.82458096 268.63673931 -121.90987297 266.59051275 -120.99562073 264.54408264 C-118.68130847 259.36676184 -116.36132123 254.19200719 -114.03956604 249.01802063 C-112.13450581 244.7709064 -110.23373924 240.52187627 -108.33351135 236.27259827 C-106.28237604 231.68631695 -104.23099526 227.10014829 -102.17726135 222.51502991 C-96.67448009 210.22724013 -91.20381334 197.92530792 -85.73976135 185.62025452 C-79.5930791 171.77791672 -73.43130855 157.94258398 -67.23976135 144.12025452 C-58.98598755 125.69233584 -50.78408877 107.24152548 -42.5894165 88.78726196 C-39.57939888 82.00918463 -36.56650101 75.23239273 -33.55226135 68.45619202 C-32.2667574 65.56588093 -30.98130055 62.6755489 -29.69587708 59.78520203 C-28.85493153 57.89435913 -28.01390866 56.00355062 -27.17280579 54.11277771 C-22.82607274 44.34037094 -18.48873955 34.56405875 -14.18507385 24.77259827 C-13.82990189 23.96502579 -13.47472992 23.15745331 -13.10879517 22.32540894 C-11.4502869 18.55373951 -9.79426474 14.78101613 -8.14283752 11.00624084 C-7.56715149 9.6952524 -6.99139133 8.38429651 -6.4155426 7.07337952 C-5.67171326 5.37423401 -5.67171326 5.37423401 -4.91285706 3.64076233 C-3.28548931 0.14420779 -3.28548931 0.14420779 0 0 Z M30.26023865 70.12025452 C29.77369812 71.29902161 29.28715759 72.4777887 28.78587341 73.692276 C26.46522868 79.31426742 24.14407361 84.93604806 21.82273865 90.55775452 C21.3972876 91.58811829 20.97183655 92.61848206 20.53349304 93.68006897 C14.77049538 107.63574605 8.99675548 121.58690439 3.20915222 135.53239441 C-4.06872037 153.06716612 -4.06872037 153.06716612 -11.30226135 170.62025452 C-11.66658264 171.50455139 -12.03090393 172.38884827 -12.40626526 173.29994202 C-14.01765437 176.61189897 -14.01765437 176.61189897 -14.73976135 180.12025452 C15.29023865 180.12025452 45.32023865 180.12025452 76.26023865 180.12025452 C75.56900684 176.6640955 75.00888592 174.19206169 73.7040863 171.05995178 C73.3843988 170.28616684 73.0647113 169.5123819 72.7353363 168.71514893 C72.3851947 167.88074783 72.0350531 167.04634674 71.67430115 166.18666077 C71.30530701 165.29695084 70.93631287 164.40724091 70.55613708 163.49057007 C69.33669486 160.55287034 68.11094206 157.61784672 66.88523865 154.68275452 C66.03368842 152.63428696 65.18262114 150.58561859 64.33201599 148.53675842 C62.55212326 144.25050648 60.77011457 139.9651429 58.98680115 135.68031311 C55.01162074 126.12321026 51.0662462 116.5538048 47.11882019 106.98521423 C45.91064831 104.05684255 44.70204883 101.12864794 43.4931488 98.20057678 C43.11475861 97.28399796 42.73636841 96.36741913 42.34651184 95.42306519 C41.62021994 93.6653581 40.89306072 91.90800909 40.16493225 90.15106201 C38.65446329 86.505826 37.15019694 82.8591643 35.68504333 79.19544983 C35.24321716 78.1007135 34.80139099 77.00597717 34.34617615 75.87806702 C33.98314392 74.96428284 33.62011169 74.05049866 33.24607849 73.10902405 C32.42561458 70.95179624 32.42561458 70.95179624 30.26023865 70.12025452 Z " fill="#FFFFFF" transform="translate(1252.739761352539,761.8797454833984)"/>
<path d="M0 0 C22.77 0 45.54 0 69 0 C72.96 8.91 76.92 17.82 81 27 C83.39688092 32.36735572 85.7939256 37.73457108 88.19644165 43.09939575 C89.249423 45.45077849 90.3018799 47.80239549 91.35424805 50.15405273 C94.61264691 57.43500072 97.87239043 64.71534583 101.13317871 71.995224 C102.86004466 75.85079219 104.58639986 79.7065889 106.3125 83.5625 C106.65817017 84.33463837 107.00384033 85.10677673 107.35998535 85.90231323 C112.81737585 98.0952526 118.24627279 110.30069611 123.66595459 122.51043701 C130.46899941 137.83647274 137.29833913 153.14996309 144.1875 168.4375 C144.55739044 169.25834076 144.92728088 170.07918152 145.30838013 170.92489624 C146.05160917 172.57417349 146.79483934 174.22345023 147.53807068 175.87272644 C148.08576866 177.08814873 148.08576866 177.08814873 148.64453125 178.328125 C149.18926842 179.53696098 149.18926842 179.53696098 149.74501038 180.7702179 C153.63431444 189.40365332 157.50784253 198.04412459 161.375 206.6875 C161.71696411 207.45174286 162.05892822 208.21598572 162.41125488 209.00338745 C166.67455779 218.53395577 170.92297149 228.07107284 175.16015625 237.61328125 C175.59948486 238.60253098 176.03881348 239.5917807 176.49145508 240.61100769 C178.62073979 245.40622433 180.7487553 250.20199749 182.87451172 254.9987793 C183.66494415 256.78047831 184.45547037 258.56213571 185.24609375 260.34375 C185.82049194 261.64014153 185.82049194 261.64014153 186.40649414 262.96272278 C188.51149399 267.70048592 190.64806382 272.42178788 192.82080078 277.12890625 C193.28454605 278.13651001 193.74829132 279.14411377 194.22608948 280.18225098 C195.12276209 282.12652634 196.02421004 284.06860835 196.93101501 286.00817871 C197.332845 286.88010864 197.73467499 287.75203857 198.14868164 288.65039062 C198.68580528 289.80408142 198.68580528 289.80408142 199.23377991 290.9810791 C200 293 200 293 200 296 C175.91 296 151.82 296 127 296 C119.17051245 276.91973623 119.17051245 276.91973623 116.14317322 269.53462219 C113.41519949 262.8801922 110.68384296 256.22728911 107.93359375 249.58203125 C107.51198975 248.56061035 107.09038574 247.53918945 106.65600586 246.48681641 C105.9031345 244.66370702 105.14757276 242.84170559 104.38891602 241.02099609 C102 235.22468459 102 235.22468459 102 233 C56.79 233 11.58 233 -35 233 C-35.99 236.3 -36.98 239.6 -38 243 C-38.67868712 244.8345356 -39.3870957 246.65881171 -40.14477539 248.4621582 C-40.53850845 249.40626053 -40.93224152 250.35036285 -41.33790588 251.32307434 C-41.7536235 252.30571762 -42.16934113 253.2883609 -42.59765625 254.30078125 C-43.25005531 255.85988472 -43.25005531 255.85988472 -43.91563416 257.45048523 C-45.29321339 260.73982223 -46.67766883 264.02621046 -48.0625 267.3125 C-48.99591368 269.5369118 -49.92886074 271.76151947 -50.86132812 273.98632812 C-52.17288654 277.11548348 -53.48510741 280.24434007 -54.80104065 283.37165833 C-55.19162155 284.29999985 -55.58220245 285.22834137 -55.98461914 286.18481445 C-56.32642715 286.99626419 -56.66823517 287.80771393 -57.020401 288.64375305 C-58.03601832 291.08663551 -59.01745206 293.54363016 -60 296 C-83.43 296 -106.86 296 -131 296 C-130.23439319 292.17196597 -129.53786398 289.63105507 -127.98046875 286.1875 C-127.54581299 285.2183667 -127.11115723 284.2492334 -126.66333008 283.25073242 C-125.93279419 281.64161987 -125.93279419 281.64161987 -125.1875 280 C-124.3824934 278.20822722 -123.57752052 276.41643917 -122.77330017 274.62431335 C-122.17829112 273.29908338 -121.58261378 271.97415329 -120.98634338 270.64949036 C-118.42373759 264.95513479 -115.88447948 259.25058511 -113.3515625 253.54296875 C-112.7419442 252.16928635 -112.7419442 252.16928635 -112.12001038 250.76785278 C-111.27948208 248.873654 -110.43899294 246.97943785 -109.59854126 245.08520508 C-102.92380162 230.04569775 -96.22604024 215.01662896 -89.5 200 C-83.37390539 186.322212 -77.27237209 172.63367715 -71.1875 158.9375 C-70.77034729 157.99862946 -70.35319458 157.05975891 -69.92340088 156.09243774 C-65.67497817 146.53016006 -61.42878353 136.96689536 -57.18510437 127.4025116 C-55.08242054 122.66387052 -52.97890869 117.92559737 -50.875 113.1875 C-50.46021393 112.25328217 -50.04542786 111.31906433 -49.61807251 110.35653687 C-43.38400496 96.31960278 -37.09503029 82.30821504 -30.77328491 68.31057739 C-24.04098927 53.3977717 -17.44969996 38.42491999 -10.92333984 23.42089844 C-10.56346481 22.59623077 -10.20358978 21.77156311 -9.83280945 20.92190552 C-9.17008935 19.40325178 -8.50939909 17.88370948 -7.85139465 16.36300659 C-5.41599532 10.78923614 -2.7317508 5.4635016 0 0 Z M33 70 C32.2807151 71.73474595 31.56143062 73.46949207 30.84214783 75.20423889 C30.18660647 76.78524551 29.53105811 78.36624922 28.87550354 79.94725037 C27.00066284 84.4688358 25.12595466 88.99047612 23.25146484 93.51220703 C19.32779863 102.9766687 15.40247164 112.44043354 11.47265625 121.90234375 C5.09698338 137.25564994 -1.27579666 152.60999989 -7.5625 168 C-8.02188965 169.12196777 -8.4812793 170.24393555 -8.95458984 171.39990234 C-9.56681396 172.90351318 -9.56681396 172.90351318 -10.19140625 174.4375 C-10.54404541 175.30246094 -10.89668457 176.16742187 -11.26000977 177.05859375 C-12.05936106 178.80946152 -12.05936106 178.80946152 -12 180 C18.03 180 48.06 180 79 180 C78.30361119 176.51805596 77.72755859 174.02080646 76.41210938 170.86035156 C76.08603699 170.0706044 75.7599646 169.28085724 75.42401123 168.46717834 C75.06752502 167.61691574 74.71103882 166.76665314 74.34375 165.890625 C73.78219208 164.53589333 73.78219208 164.53589333 73.20928955 163.15379333 C71.97712027 160.1840721 70.73856923 157.21705704 69.5 154.25 C68.64181763 152.18483239 67.78407531 150.11948187 66.92675781 148.05395508 C65.1612093 143.80207602 63.39317991 139.55124198 61.62304688 135.30126953 C58.01294051 126.63225974 54.41958752 117.95631619 50.82495117 109.28088379 C49.78310291 106.76736275 48.74037744 104.25420784 47.69726562 101.74121094 C47.36976318 100.9518515 47.04226074 100.16249207 46.70483398 99.34921265 C46.06714614 97.81324723 45.42866111 96.27761251 44.78930664 94.74234009 C43.17893706 90.86993283 41.59055754 86.99025253 40.03320312 83.09619141 C39.71514709 82.30662552 39.39709106 81.51705963 39.06939697 80.7035675 C38.46388288 79.19818831 37.86379763 77.69061059 37.2699585 76.18058777 C35.96601752 72.39755174 35.96601752 72.39755174 33 70 Z " fill="#FFFFFF" transform="translate(2314,762)"/>
<path d="M0 0 C0.87531372 0.73633667 0.87531372 0.73633667 1.76831055 1.48754883 C5.47664794 4.68132967 8.58501307 8.03801275 11.625 11.875 C10.15883493 15.36586922 8.29219588 17.29218814 5.4375 19.75 C0.96535946 23.6736096 -3.41136063 27.67921197 -7.75 31.75 C-12.50793375 36.20153342 -17.26984603 40.64833203 -22.0625 45.0625 C-22.99449219 45.92230469 -23.92648438 46.78210938 -24.88671875 47.66796875 C-26.98479019 49.52889553 -29.09986138 51.2392446 -31.375 52.875 C-32.06722656 52.19695312 -32.75945313 51.51890625 -33.47265625 50.8203125 C-53.97412143 31.14175583 -78.4406804 20.32134761 -107.2109375 20.7265625 C-129.17285659 21.75687475 -151.74185652 27.71687113 -168.375 42.875 C-169.58542969 43.94814453 -169.58542969 43.94814453 -170.8203125 45.04296875 C-182.17745971 55.68812355 -188.79901158 68.15557058 -193.375 82.875 C-193.7153125 83.91140625 -194.055625 84.9478125 -194.40625 86.015625 C-200.6767279 109.12349728 -197.34223761 136.81406568 -185.81640625 157.69921875 C-173.72221143 177.72586468 -155.48413359 191.59744872 -132.98046875 197.8125 C-107.36484116 204.01511995 -80.06204168 201.71852084 -56.375 189.875 C-56.045 162.155 -55.715 134.435 -55.375 105.875 C-34.915 105.875 -14.455 105.875 6.625 105.875 C7.02663668 134.83300491 7.02663668 134.83300491 7.12753868 149.14538288 C7.18293859 156.8839235 7.25324615 164.62138538 7.37939453 172.35913086 C7.48991259 179.14138354 7.54784716 185.92246804 7.57377243 192.7055645 C7.59224626 195.2928855 7.62832321 197.88014276 7.68230057 200.46696663 C7.75494607 204.09274242 7.76489017 207.71370112 7.76025391 211.34008789 C7.81418304 212.94339211 7.81418304 212.94339211 7.86920166 214.5790863 C7.80694449 219.08116917 7.71825857 221.77293711 4.46003342 225.05740166 C1.91718119 226.86146579 -0.6310344 228.39910749 -3.375 229.875 C-4.68260612 230.67231635 -5.98799511 231.47330768 -7.2890625 232.28125 C-8.52151867 232.98712316 -9.75859403 233.68498815 -11 234.375 C-11.67820801 234.75245361 -12.35641602 235.12990723 -13.05517578 235.51879883 C-32.95968888 246.39855518 -54.14091333 252.74581248 -76.375 256.875 C-77.44572754 257.07633545 -77.44572754 257.07633545 -78.53808594 257.28173828 C-120.64975615 264.76334686 -168.42688366 256.41182753 -203.93432617 232.23706055 C-211.30447308 227.03659621 -217.88655307 221.12210269 -224.375 214.875 C-225.14199219 214.18277344 -225.90898437 213.49054688 -226.69921875 212.77734375 C-238.53046354 201.75325749 -246.83008752 187.51404952 -253.375 172.875 C-254.18904297 171.1115625 -254.18904297 171.1115625 -255.01953125 169.3125 C-267.03930463 141.56051691 -269.95277455 105.26569272 -262.375 75.875 C-262.18695801 75.10687988 -261.99891602 74.33875977 -261.80517578 73.54736328 C-257.11845199 54.8414816 -249.23083821 37.14515204 -237.375 21.875 C-236.64539062 20.92496094 -235.91578125 19.97492187 -235.1640625 18.99609375 C-209.0640283 -13.92658097 -170.72168918 -31.27684158 -129.62133789 -36.47314453 C-82.46298591 -41.22767943 -36.46883983 -30.782302 0 0 Z " fill="#FFFFFF" transform="translate(3576.375,799.125)"/>
<path d="M0 0 C-0.59709342 3.38433019 -1.44337079 6.39897451 -2.75 9.57495117 C-3.10707031 10.44903122 -3.46414063 11.32311127 -3.83203125 12.22367859 C-4.21746094 13.15404434 -4.60289062 14.0844101 -5 15.04296875 C-5.39574219 16.00777664 -5.79148437 16.97258453 -6.19921875 17.96662903 C-7.46195978 21.04199285 -8.73099043 24.1147183 -10 27.1875 C-10.85456059 29.26741632 -11.70873175 31.34749269 -12.5625 33.42773438 C-14.12273777 37.22383487 -15.68338047 41.01976062 -17.25 44.81323242 C-17.56453125 45.57536545 -17.8790625 46.33749847 -18.203125 47.12272644 C-18.75972105 48.43395223 -19.36295805 49.7259161 -20 51 C-25.07497468 50.38208891 -29.17998509 48.06580049 -33.6875 45.8125 C-63.08558367 31.56891346 -99.46654269 23.85540713 -131.3125 34.1875 C-139.49886549 37.34457369 -145.70987025 41.03609436 -150 48.875 C-153.2307709 56.29006794 -153.90915412 62.39703793 -150.9296875 70.00390625 C-146.43339361 79.65771373 -136.03365373 83.17859452 -126.63171387 86.69702148 C-118.73620094 89.56875972 -110.66204204 91.55072672 -102.5 93.5 C-100.9139646 93.88736203 -99.32819271 94.27580446 -97.74267578 94.6652832 C-93.1643845 95.78771601 -88.58274719 96.89592025 -84 98 C-32.04441142 110.52610983 -32.04441142 110.52610983 -12 127 C-11.36191406 127.47695313 -10.72382813 127.95390625 -10.06640625 128.4453125 C2.53446445 138.2678175 9.92938514 154.4473817 12 170 C13.87554887 192.73560081 10.00560447 215.06428575 -5.1171875 232.93359375 C-5.73851562 233.61550781 -6.35984375 234.29742188 -7 235 C-7.70382812 235.79535156 -8.40765625 236.59070313 -9.1328125 237.41015625 C-30.82379327 260.56867863 -64.7521517 270.06931292 -95.68823242 271.12597656 C-100.00037249 271.22042711 -104.31191895 271.24660065 -108.625 271.25 C-109.39733978 271.25067474 -110.16967957 271.25134949 -110.96542358 271.25204468 C-148.19053511 271.20065598 -194.04542549 264.10138179 -224 240 C-225.32080078 238.36962891 -225.32080078 238.36962891 -226 236 C-225.10391659 233.30755177 -224.14003724 230.97812765 -222.90625 228.4453125 C-222.56251343 227.70731415 -222.21877686 226.9693158 -221.86462402 226.20895386 C-220.75777923 223.84039953 -219.62970304 221.48272494 -218.5 219.125 C-217.40713428 216.80847345 -216.31874878 214.48987977 -215.23071289 212.17108154 C-214.51696347 210.65101908 -213.8013185 209.13184516 -213.08374023 207.61358643 C-209.87952588 200.81472046 -206.89832943 193.9344905 -204 187 C-200.83490889 188.55642524 -197.77982705 190.25940884 -194.72338867 192.02026367 C-161.52360958 211.05469752 -120.67186525 222.6749248 -82.3828125 213.9765625 C-72.39102102 211.09209614 -62.9255529 207.66082859 -57.625 198.1875 C-54.97145675 192.14523268 -54.26824129 186.60886266 -56.1875 180.25 C-59.67724898 171.34033115 -66.34620261 167.60487788 -74.76660156 163.7253418 C-81.50080455 160.88166841 -88.17512968 158.63291076 -95.25 156.8125 C-96.32628662 156.52769775 -97.40257324 156.24289551 -98.51147461 155.94946289 C-105.65364259 154.07664968 -112.81776388 152.29940374 -119.98828125 150.5390625 C-121.29365341 150.21729286 -121.29365341 150.21729286 -122.62539673 149.88902283 C-126.94775989 148.82360961 -131.27174626 147.76657978 -135.60058594 146.7277832 C-149.40636379 143.37301164 -163.03100366 139.29627462 -175.875 133.125 C-176.57568604 132.79040771 -177.27637207 132.45581543 -177.99829102 132.11108398 C-184.19581889 129.06114473 -189.66471797 125.3942559 -195 121 C-195.84949219 120.33613281 -196.69898438 119.67226563 -197.57421875 118.98828125 C-210.25395951 108.48331992 -218.02963543 93.32866477 -220 77 C-221.32762143 53.68510429 -218.47660916 31.49226015 -202.8828125 13.06640625 C-202.26148438 12.38449219 -201.64015625 11.70257812 -201 11 C-200.29617188 10.20464844 -199.59234375 9.40929687 -198.8671875 8.58984375 C-152.86954387 -40.51985168 -52.16674376 -34.77782918 0 0 Z " fill="#FFFFFF" transform="translate(478,787)"/>
<path d="M0 0 C0.86496094 0.74378906 1.72992187 1.48757813 2.62109375 2.25390625 C7.51265429 6.54946684 11.90715017 10.937791 16 16 C14.66420352 18.97636205 13.20765397 21.03951858 10.875 23.3125 C10.06675781 24.11107422 10.06675781 24.11107422 9.2421875 24.92578125 C7.2753763 26.74525293 5.27623031 28.50859666 3.25390625 30.265625 C-0.90675444 33.89034106 -4.93016858 37.64491693 -8.9375 41.4375 C-14.54442764 46.72140283 -20.18520408 51.944358 -26 57 C-32.43813387 51.54158215 -32.43813387 51.54158215 -35.1640625 48.9140625 C-52.50469286 32.38536801 -74.94381523 24.28884493 -98.75 23.6875 C-124.31654525 24.5963571 -148.62666861 33.54509882 -166.55078125 52.14453125 C-184.71025803 73.31610625 -189.22087701 98.82418219 -188 126 C-186.30685298 146.39137931 -176.30493853 168.16266744 -160.94140625 181.78515625 C-141.02735438 198.60018307 -115.89769509 205.78762851 -90 204 C-66.1406271 201.59294822 -46.98349657 190.56613276 -30 174 C-29.34 173.01 -28.68 172.02 -28 171 C-24.69376652 172.46280307 -22.34406102 174.30908383 -19.6875 176.75 C-18.81222656 177.55179688 -17.93695312 178.35359375 -17.03515625 179.1796875 C-16.02254627 180.11883163 -15.01089277 181.05900772 -14 182 C-13.42749512 182.53270508 -12.85499023 183.06541016 -12.26513672 183.61425781 C-9.73974692 185.96662037 -7.21650619 188.32124474 -4.69702148 190.67993164 C0.37023111 195.42304471 5.47906011 200.1182146 10.609375 204.79296875 C12.45086819 206.49304007 14.24894738 208.20808949 16 210 C7.05415372 230.19732304 -20.4388877 244.13980966 -40 252 C-52.01848059 256.40940778 -64.33439354 259.23418325 -77 261 C-77.64372559 261.0942627 -78.28745117 261.18852539 -78.95068359 261.28564453 C-121.06750492 266.80059021 -166.39178751 257.23995706 -200.640625 231.6484375 C-206.07990373 227.44478682 -211.05565933 222.76643336 -216 218 C-216.96486328 217.11248047 -216.96486328 217.11248047 -217.94921875 216.20703125 C-243.19295861 192.37552859 -256.14835981 155.25775309 -257.28515625 121.2109375 C-257.99733766 83.92315356 -248.9038827 47.6611416 -224 19 C-223.30261719 18.18144531 -222.60523437 17.36289062 -221.88671875 16.51953125 C-195.31483636 -13.92250097 -156.7291248 -30.69733092 -116.74267578 -33.83886719 C-75.0196483 -36.29010434 -32.26430067 -28.06293931 0 0 Z " fill="#FFFFFF" transform="translate(2777,796)"/>
<path d="M0 0 C22.77 0 45.54 0 69 0 C69 78.87 69 157.74 69 239 C117.84 239 166.68 239 217 239 C217 257.81 217 276.62 217 296 C145.39 296 73.78 296 0 296 C0 198.32 0 100.64 0 0 Z " fill="#FFFFFF" transform="translate(898,762)"/>
<path d="M0 0 C23.1 0 46.2 0 70 0 C70 97.68 70 195.36 70 296 C46.9 296 23.8 296 0 296 C0 198.32 0 100.64 0 0 Z " fill="#FFFFFF" transform="translate(2846,762)"/>
<path d="M0 0 C2.17021401 5.54550242 4.33892162 11.09159092 6.50634766 16.63818359 C7.24097889 18.51756974 7.97599281 20.39680635 8.71142578 22.27587891 C13.22870845 33.81867624 17.68851492 45.37863495 22 57 C20.8644165 57.55212158 19.72883301 58.10424316 18.55883789 58.6730957 C-4.58213859 69.95496834 -20.69127181 84.63098969 -30.25 109.21484375 C-37.56768687 130.97958154 -36.61711546 155.64649389 -26.40234375 176.35546875 C-25.93957031 177.22816406 -25.47679687 178.10085938 -25 179 C-24.22849609 180.47919922 -24.22849609 180.47919922 -23.44140625 181.98828125 C-17.94210943 191.98353898 -10.84104595 199.85192029 -2 207 C-3.69218034 210.91973978 -6.28794338 214.07234166 -8.9375 217.375 C-9.93761716 218.63402152 -10.93761387 219.89313874 -11.9375 221.15234375 C-12.70320312 222.11309814 -12.70320312 222.11309814 -13.484375 223.09326172 C-15.81790111 226.02896387 -18.12608892 228.98438094 -20.4375 231.9375 C-23.37894147 235.69009702 -26.33754374 239.4277993 -29.32421875 243.14453125 C-29.874729 243.82974854 -30.42523926 244.51496582 -30.99243164 245.22094727 C-32.06150265 246.54965209 -33.13224172 247.87701693 -34.20483398 249.20288086 C-36.85435924 252.43331949 -36.85435924 252.43331949 -39 256 C-44.03956236 255.61807383 -46.72689229 252.93469236 -50.1875 249.5625 C-50.75702393 249.01899902 -51.32654785 248.47549805 -51.91333008 247.91552734 C-53.07157165 246.80612044 -54.22550734 245.69219989 -55.375 244.57373047 C-56.80543637 243.18842505 -58.26029525 241.82843243 -59.71875 240.47265625 C-84.71246934 216.70489466 -98.25740801 180.63651144 -99.28515625 146.5703125 C-99.53162916 132.21962451 -99.37674193 118.02195941 -96 104 C-95.81195801 103.21189941 -95.62391602 102.42379883 -95.43017578 101.61181641 C-90.93358187 83.53600968 -83.267191 65.9039279 -72 51 C-71.33871094 50.11828125 -70.67742188 49.2365625 -69.99609375 48.328125 C-55.4325603 29.76833651 -25.46371326 0 0 0 Z " fill="#0D9948" transform="translate(626,772)"/>
<path d="M0 0 C0.84546387 0.19835449 1.69092773 0.39670898 2.56201172 0.60107422 C21.1489581 5.1140724 39.75748002 13.36878475 55 25 C55.87914062 25.66 56.75828125 26.32 57.6640625 27 C88.49855028 51.16997313 106.15808454 84.48947838 112 123 C112.20109375 124.28777344 112.20109375 124.28777344 112.40625 125.6015625 C113.15646558 131.49909057 113.0981349 137.43886708 113.125 143.375 C113.13213013 144.69721558 113.13213013 144.69721558 113.1394043 146.04614258 C113.137229 146.8842749 113.13505371 147.72240723 113.1328125 148.5859375 C113.13168457 149.3392334 113.13055664 150.0925293 113.12939453 150.86865234 C112.99826189 153.02862962 112.54993083 154.91303314 112 157 C105.1170895 156.04099672 98.23438194 155.08054662 91.35180664 154.11914062 C89.01558896 153.79296938 86.6793268 153.46711646 84.34301758 153.14160156 C59.42538936 149.66942939 59.42538936 149.66942939 49 148 C48.94392578 146.51113281 48.94392578 146.51113281 48.88671875 144.9921875 C47.73891715 119.55450756 39.62606621 96.54561174 20.75 78.8125 C4.59828829 65.10461249 -17.01368604 56.81121754 -38.24609375 56.90234375 C-38.90207047 56.9037587 -39.55804718 56.90517365 -40.23390198 56.90663147 C-42.30181702 56.91216969 -44.36961842 56.92470998 -46.4375 56.9375 C-47.85090988 56.94252301 -49.26432148 56.9470845 -50.67773438 56.95117188 C-54.11852568 56.96211874 -57.55925172 56.97933962 -61 57 C-64.27233893 50.71606627 -66.96475042 44.31305031 -69.546875 37.71875 C-69.96294006 36.66465942 -70.37900513 35.61056885 -70.80767822 34.52453613 C-72.12519814 31.184357 -73.43767219 27.84222201 -74.75 24.5 C-75.64680185 22.22382688 -76.54393387 19.94778382 -77.44140625 17.671875 C-79.63142629 12.1160823 -81.817316 6.55867858 -84 1 C-64.72589025 -11.8494065 -20.97647416 -5.09083957 0 0 Z " fill="#28B24B" transform="translate(726,767)"/>
<path d="M0 0 C14.11705006 1.41683686 28.10710748 3.44878648 42.125 5.625 C44.25906197 5.95346703 46.3931763 6.28159404 48.52734375 6.609375 C53.68550589 7.40234444 58.8429445 8.1998665 64 9 C63.39803114 11.67468076 62.78892548 14.34740958 62.17578125 17.01953125 C62.00856567 17.76593872 61.8413501 18.51234619 61.66906738 19.28137207 C53.74420442 53.59761181 30.17229152 83.30326487 0.875 102.0625 C-40.0249346 126.36678287 -89.59873113 131.67971567 -135.62109375 120.61376953 C-148.00913988 117.4175926 -159.56998394 112.6981496 -171 107 C-170.40571044 103.87848767 -169.47912631 102.02915283 -167.4453125 99.6015625 C-166.91856934 98.96460449 -166.39182617 98.32764648 -165.84912109 97.67138672 C-165.28016113 96.9960791 -164.71120117 96.32077148 -164.125 95.625 C-162.93133703 94.18308141 -161.73864467 92.74035882 -160.546875 91.296875 C-159.94810547 90.57435547 -159.34933594 89.85183594 -158.73242188 89.10742188 C-156.23264815 86.06654719 -153.79799714 82.97718065 -151.375 79.875 C-150.93631592 79.31474121 -150.49763184 78.75448242 -150.0456543 78.17724609 C-148.69593904 76.45240359 -147.34782468 74.72632013 -146 73 C-143.980907 70.41530001 -141.95970686 67.83226415 -139.9375 65.25 C-139.4719873 64.65300293 -139.00647461 64.05600586 -138.52685547 63.44091797 C-136.76272491 61.18831955 -135.02531069 59.02531069 -133 57 C-128.66901265 57.73406565 -124.5231195 58.85987871 -120.28125 59.99609375 C-119.62729248 60.17124512 -118.97333496 60.34639648 -118.29956055 60.52685547 C-116.38152005 61.04389452 -114.46609267 61.57059755 -112.55078125 62.09765625 C-88.14810177 68.29899724 -61.14258172 64.07770837 -39.046875 52.4453125 C-19.10880315 40.53943531 -6.55627373 21.98280014 0 0 Z " fill="#297339" transform="translate(772,932)"/>
<path d="M0 0 C1.39178467 2.10542297 1.39178467 2.10542297 2.47949219 4.9152832 C3.10473785 6.48745354 3.10473785 6.48745354 3.74261475 8.09138489 C4.17302063 9.23298569 4.60342651 10.37458649 5.046875 11.55078125 C5.50354553 12.71626999 5.96021606 13.88175873 6.4307251 15.08256531 C7.64162929 18.1846157 8.83458728 21.29243197 10.01983643 24.40429688 C10.98938582 26.93810881 11.97551826 29.46529602 12.96274948 31.99226093 C15.00518362 37.22033065 17.03414062 42.45358858 19.03808594 47.6965332 C19.39384705 48.62617386 19.74960815 49.55581451 20.1161499 50.5136261 C20.88608038 52.67953076 21.5926342 54.73800124 22 57 C21.07885742 58.71655273 21.07885742 58.71655273 19.60546875 60.43359375 C19.06728516 61.07554687 18.52910156 61.7175 17.97460938 62.37890625 C17.08999023 63.39791016 17.08999023 63.39791016 16.1875 64.4375 C14.97121459 65.88290268 13.75638534 67.32953186 12.54296875 68.77734375 C11.93759277 69.49390137 11.3322168 70.21045898 10.70849609 70.94873047 C8.3849521 73.7384442 6.19179738 76.60537834 4 79.5 C0.13513742 84.56037653 -3.80893919 89.54858375 -7.8125 94.5 C-8.62170898 95.50643555 -8.62170898 95.50643555 -9.44726562 96.53320312 C-12.45752179 100.23899673 -15.55736292 103.69099579 -19 107 C-31.60813824 97.28122677 -39.73109324 82.74163995 -42 67 C-43.37081815 49.2985656 -40.90651609 31.94136115 -29.44921875 17.6953125 C-23.15560694 10.35182565 -10.53297837 -3.68338877 0 0 Z " fill="#0D9948" transform="translate(658,853)"/>
<path d="M0 0 C23.69143943 -0.87386457 41.87837171 3.30771195 59.89453125 19.7265625 C70.52707307 30.62311777 75.79185141 46.47377173 76.0625 61.4609375 C76.041875 62.29882812 76.02125 63.13671875 76 64 C69.55972356 63.21491179 63.13133802 62.36457716 56.70361328 61.48291016 C53.42399651 61.05528445 50.14434815 60.67594064 46.85713196 60.31437683 C44.05007295 59.99503732 41.24963621 59.63197511 38.44900513 59.26083374 C37.07361151 59.08785969 35.69585036 58.93271629 34.31637573 58.79605103 C23.45479549 57.70314137 23.45479549 57.70314137 20.20800781 53.90209961 C18.8382913 50.98262652 17.91845471 48.0911727 17 45 C16.287307 43.16398957 15.57379764 41.32819225 14.83847046 39.50112915 C13.51635717 36.20471131 12.26454435 32.88132791 11 29.5625 C9.98140525 26.89627338 8.96039085 24.23098751 7.9375 21.56640625 C7.69185303 20.92498688 7.44620605 20.2835675 7.19311523 19.62271118 C5.20343457 14.4563882 3.07579581 9.35610455 0.8828125 4.27319336 C0 2 0 2 0 0 Z " fill="#28B24B" transform="translate(674,847)"/>
<path d="M0 0 C6.88708196 0.97661972 13.77384826 1.95544227 20.66040039 2.93579102 C23.00277628 3.26898008 25.34522375 3.60166631 27.68774414 3.93383789 C31.05634235 4.41159753 34.42467832 4.89116962 37.79296875 5.37109375 C39.36198189 5.5930265 39.36198189 5.5930265 40.96269226 5.81944275 C41.94333145 5.95951248 42.92397064 6.09958221 43.93432617 6.24389648 C44.79370285 6.36603012 45.65307953 6.48816376 46.53849792 6.61399841 C49.04267311 7.0066918 51.51826397 7.48539328 54 8 C52.39292274 21.41909515 42.76094428 32.35254124 32.75 40.75 C19.55303861 50.46442991 5.40020109 53.22715375 -10.5625 53.375 C-11.6030957 53.38901855 -12.64369141 53.40303711 -13.71582031 53.41748047 C-21.58501272 53.36915 -29.8562848 52.5718576 -37 49 C-35.55416203 44.53104626 -33.06966887 41.45383859 -30 38 C-25.77510998 33.13051763 -21.75725632 28.17608513 -17.859375 23.03955078 C-13.97438778 17.93202591 -9.9659527 12.92793785 -5.93383789 7.93603516 C-3.84566419 5.34365154 -1.84784959 2.77177439 0 0 Z " fill="#297339" transform="translate(693,920)"/>
</svg>
